<svg width="28" height="28" viewBox="0 0 28 28" fill="none" xmlns="http://www.w3.org/2000/svg">
<g clip-path="url(#clip0_2313_99)">
<path d="M26.3593 15.6953C26.3593 14.3384 25.2553 13.2344 23.8984 13.2344H20.2435C20.6963 12.0101 20.9771 10.5559 21.1413 9.45432C21.2234 8.90561 21.1862 8.34562 21.0321 7.81262C20.878 7.27962 20.6107 6.78616 20.2484 6.36595C19.8876 5.947 19.4405 5.61087 18.9379 5.38052C18.4352 5.15017 17.8888 5.03103 17.3359 5.03125C16.8829 5.03125 16.5156 5.39853 16.5156 5.85156C16.5156 7.83327 15.3767 10.8249 14.0476 11.4913C12.5516 12.2412 9.60854 13.0723 9.02234 13.2344H0.820313C0.367281 13.2344 6.10636e-09 13.6017 6.10636e-09 14.0547V25.5391C-5.46814e-05 25.9921 0.367227 26.3594 0.820258 26.3594H3.2812V27.1797C3.2812 27.6327 3.64848 28 4.10151 28H7.49213C8.49406 28 9.35741 27.3978 9.74099 26.5367L15.4963 27.9755C15.5614 27.9917 15.6282 28 15.6953 28H20.6171C21.9741 28 23.0781 26.896 23.0781 25.5391C23.0784 25.2286 23.0197 24.9209 22.905 24.6324C23.9489 24.3475 24.7187 23.3908 24.7187 22.2578C24.719 21.9474 24.6603 21.6397 24.5457 21.3511C25.5895 21.0662 26.3593 20.1096 26.3593 18.9766C26.3593 18.3468 26.1216 17.7716 25.7312 17.3359C26.1216 16.9002 26.3593 16.325 26.3593 15.6953ZM3.28114 24.7188H1.64052V14.875H3.28114V24.7188ZM8.31239 25.5391C8.31239 25.9914 7.9444 26.3594 7.49208 26.3594H4.92177V14.875H8.31239V25.5391ZM18.9765 18.1562H23.8984C24.3507 18.1562 24.7187 18.5242 24.7187 18.9766C24.7187 19.4289 24.3507 19.7969 23.8984 19.7969H18.9765C18.5235 19.7969 18.1562 20.1642 18.1562 20.6172C18.1562 21.0702 18.5235 21.4375 18.9765 21.4375H22.2578C22.7101 21.4375 23.0781 21.8055 23.0781 22.2578C23.0781 22.7101 22.7101 23.0781 22.2578 23.0781H18.9765C18.5235 23.0781 18.1562 23.4454 18.1562 23.8984C18.1562 24.3515 18.5235 24.7188 18.9765 24.7188H20.6171C21.0695 24.7188 21.4374 25.0867 21.4374 25.5391C21.4374 25.9914 21.0695 26.3594 20.6171 26.3594H15.7963L9.95307 24.8986V14.6768C11.0598 14.359 13.4074 13.6475 14.7829 12.9579C16.6668 12.0134 17.8205 9.02595 18.0934 6.80591C18.4463 6.93506 18.7604 7.15235 19.0058 7.43712C19.214 7.67868 19.3676 7.96235 19.4561 8.26873C19.5446 8.57512 19.5659 8.897 19.5186 9.21238C19.1301 11.8185 18.6426 12.8882 18.2428 13.6878C18.1803 13.8129 18.1507 13.9518 18.157 14.0915C18.1633 14.2312 18.2052 14.367 18.2787 14.4859C18.3522 14.6049 18.4549 14.7031 18.577 14.7712C18.6992 14.8393 18.8367 14.875 18.9765 14.875H23.8984C24.3507 14.875 24.7187 15.243 24.7187 15.6953C24.7187 16.1476 24.3507 16.5156 23.8984 16.5156H18.9765C18.5235 16.5156 18.1562 16.8829 18.1562 17.3359C18.1562 17.789 18.5235 18.1562 18.9765 18.1562ZM18.1562 0C17.7032 0 17.3359 0.367281 17.3359 0.820312V2.57031C17.3359 3.02334 17.7032 3.39062 18.1562 3.39062C18.6092 3.39062 18.9765 3.02334 18.9765 2.57031V0.820312C18.9765 0.367281 18.6092 0 18.1562 0ZM13.5158 4.15264L12.3557 2.99255C12.0354 2.6722 11.516 2.6722 11.1956 2.99255C10.8753 3.31291 10.8753 3.83228 11.1956 4.15264L12.3557 5.31273C12.676 5.63309 13.1955 5.63309 13.5158 5.31273C13.8362 4.99237 13.8362 4.473 13.5158 4.15264Z" fill="#3276F5"/>
<path d="M10.7734 9.13272H9.13281C8.67978 9.13272 8.3125 9.50001 8.3125 9.95304C8.3125 10.4061 8.67978 10.7733 9.13281 10.7733H10.7734C11.2265 10.7733 11.5938 10.4061 11.5938 9.95304C11.5938 9.50001 11.2265 9.13272 10.7734 9.13272ZM27.1797 9.13272H25.5391C25.0861 9.13272 24.7188 9.50001 24.7188 9.95304C24.7188 10.4061 25.0861 10.7733 25.5391 10.7733H27.1797C27.6328 10.7733 28.0001 10.4061 28.0001 9.95304C28.0001 9.50001 27.6328 9.13272 27.1797 9.13272ZM25.1169 2.99247C24.7966 2.67211 24.2771 2.67211 23.9568 2.99247L22.7967 4.15255C22.4763 4.47291 22.4763 4.99228 22.7967 5.31264C23.117 5.633 23.6365 5.633 23.9568 5.31264L25.1169 4.15255C25.4372 3.83219 25.4372 3.31283 25.1169 2.99247Z" fill="#3276F5"/>
</g>
<defs>
<clipPath id="clip0_2313_99">
<rect width="28" height="28" fill="white"/>
</clipPath>
</defs>
</svg>
