<svg width="438" height="288" viewBox="0 0 438 288" fill="none" xmlns="http://www.w3.org/2000/svg">
<rect x="91" y="10.3652" width="297" height="151.53" rx="10" transform="rotate(-2 91 10.3652)" fill="white"/>
<g filter="url(#filter0_dddd_2254_499)">
<rect x="129.152" y="29.3088" width="297.692" height="150" rx="9.23077" fill="white"/>
<rect x="128.575" y="28.7319" width="298.846" height="151.154" rx="9.80769" stroke="#E5E6EC" stroke-width="1.15385"/>
<path d="M147.724 61.155V50.3365H143.533V48.6011H153.964V50.3365H149.792V61.155H147.724ZM162.662 57.9427C162.126 60.2319 160.428 61.395 158.12 61.395C155.222 61.395 153.449 59.4565 153.449 56.2442C153.449 52.9027 155.222 51.0565 158.028 51.0565C160.871 51.0565 162.588 52.9765 162.588 56.1334V56.6134H155.462C155.572 58.6257 156.514 59.7519 158.12 59.7519C159.375 59.7519 160.262 59.1611 160.594 57.9427H162.662ZM158.028 52.6996C156.606 52.6996 155.757 53.6042 155.517 55.2657H160.539C160.299 53.6042 159.431 52.6996 158.028 52.6996ZM172.708 54.7488H170.732C170.492 53.3457 169.588 52.718 168.443 52.718C166.8 52.718 165.914 53.9734 165.914 56.2442C165.914 58.478 166.837 59.7519 168.499 59.7519C169.68 59.7519 170.511 59.1057 170.806 57.8504H172.763C172.339 60.3057 170.64 61.395 168.462 61.395C165.619 61.395 163.902 59.438 163.902 56.2442C163.902 52.9027 165.656 51.0565 168.443 51.0565C170.64 51.0565 172.376 52.2934 172.708 54.7488ZM174.419 61.155V47.8627H176.395V52.6257C177.059 51.5734 178.093 51.0565 179.367 51.0565C181.416 51.0565 182.69 52.2565 182.69 54.5827V61.155H180.733V54.9888C180.733 53.5673 180.106 52.6996 178.758 52.6996C177.281 52.6996 176.395 54.0104 176.395 55.3765V61.155H174.419ZM196.816 61.155L195.745 58.3304H190.022L188.951 61.155H186.884L191.721 48.6011H194.139L198.976 61.155H196.816ZM192.514 51.8134L190.65 56.7057H195.117L193.253 51.8134L192.884 50.595L192.514 51.8134ZM206.247 57.075V51.315H208.203V61.155H206.247V59.8257C205.6 60.878 204.567 61.395 203.311 61.395C201.299 61.395 200.043 60.2134 200.043 57.8873V51.315H202.019V57.4811C202.019 58.9027 202.61 59.7519 203.92 59.7519C205.36 59.7519 206.247 58.4411 206.247 57.075ZM214.116 61.395C211.513 61.395 209.944 59.4565 209.944 56.2442C209.944 52.9027 211.55 51.0565 214.116 51.0565C215.242 51.0565 216.165 51.518 216.793 52.4227V47.8627H218.768V61.155H216.793V59.955C216.165 60.878 215.242 61.395 214.116 61.395ZM214.375 59.7334C215.944 59.7334 216.793 58.515 216.793 56.2442C216.793 53.9919 215.907 52.718 214.375 52.718C212.805 52.718 211.956 53.9734 211.956 56.2442C211.956 58.478 212.842 59.7334 214.375 59.7334ZM220.966 50.0965V47.8627H222.942V50.0965H220.966ZM220.966 61.155V51.315H222.942V61.155H220.966ZM225.403 58.2196V52.8473H224.074V51.315H225.403V49.0442H227.379V51.315H229.502V52.8473H227.379V58.1088C227.379 59.235 227.692 59.7704 229.077 59.7704H229.465V61.2104C229.243 61.3211 228.782 61.395 228.228 61.395C226.308 61.395 225.403 60.3427 225.403 58.2196ZM236.068 51.7027C236.068 55.0073 243.674 52.4042 243.674 57.5365C243.674 60.0104 241.662 61.395 238.911 61.395C236.124 61.395 234.204 60.1211 233.687 57.4996H235.847C236.198 58.9211 237.25 59.6965 238.93 59.6965C240.647 59.6965 241.551 58.9396 241.551 57.8134C241.551 54.2688 233.945 56.9088 233.945 51.8688C233.945 49.9857 235.533 48.3611 238.394 48.3611C240.868 48.3611 242.899 49.5427 243.342 52.2934H241.145C240.794 50.7427 239.816 50.0596 238.339 50.0596C236.899 50.0596 236.068 50.7057 236.068 51.7027ZM253.668 54.7488H251.693C251.453 53.3457 250.548 52.718 249.404 52.718C247.76 52.718 246.874 53.9734 246.874 56.2442C246.874 58.478 247.797 59.7519 249.459 59.7519C250.64 59.7519 251.471 59.1057 251.767 57.8504H253.724C253.299 60.3057 251.6 61.395 249.422 61.395C246.579 61.395 244.862 59.438 244.862 56.2442C244.862 52.9027 246.616 51.0565 249.404 51.0565C251.6 51.0565 253.336 52.2934 253.668 54.7488ZM259.497 61.395C256.635 61.395 254.9 59.4565 254.9 56.2442C254.9 52.9027 256.691 51.0565 259.497 51.0565C262.358 51.0565 264.094 53.0319 264.094 56.2442C264.094 59.5673 262.303 61.395 259.497 61.395ZM259.497 59.7334C261.177 59.7334 262.081 58.515 262.081 56.2442C262.081 53.9919 261.158 52.718 259.497 52.718C257.835 52.718 256.912 53.955 256.912 56.2442C256.912 58.478 257.835 59.7334 259.497 59.7334ZM265.832 61.155V51.315H267.808V52.7734C268.454 51.5919 269.469 51.0565 270.614 51.0565C271.001 51.0565 271.371 51.1488 271.555 51.315V53.0504C271.26 52.958 270.909 52.9211 270.503 52.9211C268.62 52.9211 267.808 54.0657 267.808 55.7827V61.155H265.832ZM281.267 57.9427C280.732 60.2319 279.033 61.395 276.725 61.395C273.827 61.395 272.055 59.4565 272.055 56.2442C272.055 52.9027 273.827 51.0565 276.633 51.0565C279.476 51.0565 281.193 52.9765 281.193 56.1334V56.6134H274.067C274.178 58.6257 275.119 59.7519 276.725 59.7519C277.981 59.7519 278.867 59.1611 279.199 57.9427H281.267ZM276.633 52.6996C275.212 52.6996 274.362 53.6042 274.122 55.2657H279.144C278.904 53.6042 278.036 52.6996 276.633 52.6996Z" fill="#313131"/>
<path d="M151.758 99.1603C147.348 99.1603 144.438 96.9403 144.438 93.4003C144.438 91.2103 145.608 89.6203 147.558 88.7203C145.998 87.8203 145.098 86.3803 145.098 84.5203C145.098 81.2503 147.798 79.0903 151.758 79.0903C155.748 79.0903 158.448 81.1303 158.448 84.5203C158.448 86.3803 157.488 87.8503 155.898 88.7203C157.908 89.6503 159.078 91.3003 159.078 93.3703C159.078 97.0003 156.168 99.1603 151.758 99.1603ZM151.758 81.7003C149.658 81.7003 148.248 82.8103 148.248 84.6403C148.248 86.5603 149.628 87.6403 151.758 87.6403C153.858 87.6403 155.298 86.5003 155.298 84.6703C155.298 82.7803 153.918 81.7003 151.758 81.7003ZM151.758 96.5503C154.248 96.5503 155.868 95.3503 155.868 93.2203C155.868 91.1203 154.188 89.8903 151.758 89.8903C149.298 89.8903 147.648 91.0903 147.648 93.2503C147.648 95.2903 149.298 96.5503 151.758 96.5503ZM176.393 92.5603C176.393 96.6703 173.333 99.1603 169.193 99.1603C169.163 99.1603 169.163 99.1603 169.133 99.1603C164.423 99.1303 161.243 96.0103 161.243 89.1403C161.243 82.6903 164.183 79.0903 169.133 79.0903C172.793 79.0903 175.403 81.1903 176.303 85.0003H173.033C172.403 82.8703 170.963 81.8203 169.013 81.8203C166.043 81.8203 164.363 84.1903 164.243 88.6003C165.383 87.0103 167.243 86.1403 169.403 86.1403C173.573 86.1403 176.393 88.5403 176.393 92.5603ZM169.103 96.4603C171.503 96.4603 173.093 95.1103 173.093 92.6803C173.093 90.2503 171.473 88.8103 169.103 88.8103C166.643 88.8103 165.053 90.2203 165.053 92.6803C165.053 95.0503 166.673 96.4603 169.103 96.4603Z" fill="#313131"/>
<path d="M179.922 100.309L184.408 87.7549H186.383L181.916 100.309H179.922ZM188.573 100.309V98.7765H190.825V90.9857H188.573V89.4719H189.773C190.862 89.4719 191.158 89.2134 191.158 88.6411V88.438H192.893V98.7765H195.127V100.309H188.573ZM201.961 100.549C198.989 100.549 197.272 98.2595 197.272 94.3826C197.272 90.4134 199.026 88.198 201.961 88.198C204.915 88.198 206.632 90.4872 206.632 94.3826C206.632 98.3519 204.878 100.549 201.961 100.549ZM201.961 98.8688C203.678 98.8688 204.619 97.2811 204.619 94.3826C204.619 91.5026 203.659 89.878 201.961 89.878C200.244 89.878 199.284 91.4657 199.284 94.3826C199.284 97.2257 200.244 98.8688 201.961 98.8688ZM212.413 100.549C209.441 100.549 207.724 98.2595 207.724 94.3826C207.724 90.4134 209.478 88.198 212.413 88.198C215.367 88.198 217.084 90.4872 217.084 94.3826C217.084 98.3519 215.33 100.549 212.413 100.549ZM212.413 98.8688C214.13 98.8688 215.072 97.2811 215.072 94.3826C215.072 91.5026 214.112 89.878 212.413 89.878C210.696 89.878 209.736 91.4657 209.736 94.3826C209.736 97.2257 210.696 98.8688 212.413 98.8688Z" fill="#313131"/>
<g filter="url(#filter1_i_2254_499)">
<rect x="142.998" y="119.616" width="270" height="45" rx="6.92308" fill="#F7F8FA" fill-opacity="0.35"/>
<rect x="143.575" y="120.193" width="268.846" height="43.8462" rx="6.34615" stroke="#E5E6EC" stroke-width="1.15385"/>
<g clip-path="url(#clip0_2254_499)">
<mask id="mask0_2254_499" style="mask-type:luminance" maskUnits="userSpaceOnUse" x="156" y="132" width="20" height="20">
<path d="M156.844 132.924H175.305V151.386H156.844V132.924Z" fill="white"/>
</mask>
<g mask="url(#mask0_2254_499)">
<path fill-rule="evenodd" clip-rule="evenodd" d="M175.08 136.996C175.224 137.14 175.305 137.336 175.305 137.54C175.305 137.744 175.224 137.939 175.08 138.083L167.773 145.391C167.628 145.535 167.433 145.616 167.229 145.616C167.025 145.616 166.829 145.535 166.685 145.391L163.383 142.089L158.157 147.314C158.012 147.454 157.818 147.532 157.616 147.53C157.414 147.528 157.221 147.447 157.079 147.305C156.936 147.162 156.855 146.969 156.854 146.768C156.852 146.566 156.929 146.372 157.069 146.226L162.839 140.457C162.983 140.313 163.179 140.232 163.383 140.232C163.586 140.232 163.782 140.313 163.926 140.457L167.229 143.76L173.993 136.996C174.137 136.852 174.332 136.771 174.536 136.771C174.74 136.771 174.936 136.852 175.08 136.996Z" fill="#3276F5"/>
<path fill-rule="evenodd" clip-rule="evenodd" d="M169.152 137.54C169.152 137.336 169.233 137.14 169.378 136.996C169.522 136.851 169.718 136.77 169.922 136.77H174.537C174.741 136.77 174.937 136.851 175.081 136.996C175.225 137.14 175.306 137.336 175.306 137.54V142.155C175.306 142.359 175.225 142.555 175.081 142.699C174.937 142.843 174.741 142.924 174.537 142.924C174.333 142.924 174.137 142.843 173.993 142.699C173.849 142.555 173.768 142.359 173.768 142.155V138.309H169.922C169.718 138.309 169.522 138.228 169.378 138.084C169.233 137.939 169.152 137.744 169.152 137.54Z" fill="#3276F5"/>
</g>
</g>
<path d="M189.595 148.155H187.834V145.829H182.891V144.278L188.012 137.768H189.595V144.472H191.032V145.829H189.595V148.155ZM184.393 144.472H187.834V139.949L184.393 144.472ZM192.618 148.155V147.703C192.618 143.05 198.256 143.373 198.256 140.74C198.256 139.658 197.61 139.012 196.447 139.012C195.171 139.012 194.541 139.674 194.347 140.773H192.586C192.861 138.786 194.234 137.558 196.463 137.558C198.805 137.558 200.001 138.947 200.001 140.724C200.001 143.971 195.106 144.084 194.395 146.814H200.081V148.155H192.618ZM202.071 148.155V146.168H204.074V148.155H202.071ZM206.066 148.155V147.703C206.066 143.05 211.704 143.373 211.704 140.74C211.704 139.658 211.058 139.012 209.895 139.012C208.619 139.012 207.989 139.674 207.795 140.773H206.034C206.309 138.786 207.682 137.558 209.911 137.558C212.253 137.558 213.449 138.947 213.449 140.724C213.449 143.971 208.554 144.084 207.843 146.814H213.529V148.155H206.066ZM223.321 144.682C223.321 146.814 221.964 148.365 219.412 148.365C217.07 148.365 215.632 147.17 215.341 145.183H217.07C217.248 146.249 218.007 146.911 219.396 146.911C220.85 146.911 221.593 146.087 221.593 144.714C221.593 143.567 221.044 142.436 219.38 142.436C218.281 142.436 217.651 142.921 217.296 143.454L215.745 143.309L216.068 137.768H222.821V139.125H217.458L217.296 141.693C217.878 141.273 218.572 140.999 219.525 140.999C222.255 140.999 223.321 142.711 223.321 144.682ZM226.862 143.422C225.279 143.422 224.342 142.356 224.342 140.498C224.342 138.624 225.295 137.558 226.862 137.558C228.445 137.558 229.382 138.656 229.382 140.498C229.382 142.356 228.445 143.422 226.862 143.422ZM226.07 148.155L233.34 137.768H234.955L227.702 148.155H226.07ZM226.862 142.259C227.573 142.259 227.96 141.645 227.96 140.498C227.96 139.367 227.573 138.737 226.862 138.737C226.151 138.737 225.78 139.351 225.78 140.498C225.78 141.629 226.167 142.259 226.862 142.259ZM234.147 148.3C232.564 148.3 231.627 147.218 231.627 145.376C231.627 143.503 232.58 142.42 234.147 142.42C235.73 142.42 236.667 143.519 236.667 145.376C236.667 147.234 235.746 148.3 234.147 148.3ZM234.147 147.137C234.858 147.137 235.246 146.523 235.246 145.376C235.246 144.23 234.858 143.6 234.147 143.6C233.453 143.6 233.065 144.23 233.065 145.376C233.065 146.507 233.453 147.137 234.147 147.137Z" fill="#3276F5"/>
<path d="M245.247 147.155V136.955H246.927V145.79H251.862V147.155H245.247ZM254.952 141.77H253.347C253.602 140 254.817 138.95 256.812 138.95C258.987 138.95 260.067 140.225 260.067 142.085V145.205C260.067 146.165 260.157 146.72 260.337 147.155H258.657C258.537 146.855 258.492 146.435 258.477 145.985C257.802 146.93 256.767 147.35 255.807 147.35C254.187 147.35 253.077 146.585 253.077 145.055C253.077 143.96 253.677 143.15 254.877 142.745C255.942 142.385 257.022 142.295 258.462 142.28V142.1C258.462 140.93 257.922 140.3 256.692 140.3C255.657 140.3 255.102 140.87 254.952 141.77ZM254.697 144.995C254.697 145.67 255.252 146.09 256.107 146.09C257.442 146.09 258.462 145.025 258.462 143.735V143.375C255.387 143.405 254.697 144.08 254.697 144.995ZM263.504 141.26C263.504 143.3 268.619 141.59 268.619 144.845C268.619 146.36 267.254 147.35 265.319 147.35C263.384 147.35 262.019 146.45 261.719 144.545H263.324C263.489 145.55 264.239 146.105 265.364 146.105C266.444 146.105 267.014 145.625 267.014 144.95C267.014 142.955 261.974 144.635 261.974 141.35C261.974 140.105 262.949 138.95 264.974 138.95C266.759 138.95 268.079 139.775 268.334 141.77H266.729C266.549 140.645 265.919 140.225 264.899 140.225C264.014 140.225 263.504 140.66 263.504 141.26ZM270.441 144.77V140.405H269.361V139.16H270.441V137.315H272.046V139.16H273.771V140.405H272.046V144.68C272.046 145.595 272.301 146.03 273.426 146.03H273.741V147.2C273.561 147.29 273.186 147.35 272.736 147.35C271.176 147.35 270.441 146.495 270.441 144.77ZM278.791 150.65C278.446 150.65 278.086 150.56 277.906 150.5V149.27H278.341C279.256 149.27 279.601 149.09 280.291 147.425L280.531 146.87L277.321 139.16H279.046L281.026 144.14L281.371 145.235L281.716 144.14L283.636 139.16H285.271L281.641 148.085C280.831 150.08 280.216 150.65 278.791 150.65ZM293.435 144.545C293 146.405 291.62 147.35 289.745 147.35C287.39 147.35 285.95 145.775 285.95 143.165C285.95 140.45 287.39 138.95 289.67 138.95C291.98 138.95 293.375 140.51 293.375 143.075V143.465H287.585C287.675 145.1 288.44 146.015 289.745 146.015C290.765 146.015 291.485 145.535 291.755 144.545H293.435ZM289.67 140.285C288.515 140.285 287.825 141.02 287.63 142.37H291.71C291.515 141.02 290.81 140.285 289.67 140.285ZM296.647 141.77H295.042C295.297 140 296.512 138.95 298.507 138.95C300.682 138.95 301.762 140.225 301.762 142.085V145.205C301.762 146.165 301.852 146.72 302.032 147.155H300.352C300.232 146.855 300.187 146.435 300.172 145.985C299.497 146.93 298.462 147.35 297.502 147.35C295.882 147.35 294.772 146.585 294.772 145.055C294.772 143.96 295.372 143.15 296.572 142.745C297.637 142.385 298.717 142.295 300.157 142.28V142.1C300.157 140.93 299.617 140.3 298.387 140.3C297.352 140.3 296.797 140.87 296.647 141.77ZM296.392 144.995C296.392 145.67 296.947 146.09 297.802 146.09C299.137 146.09 300.157 145.025 300.157 143.735V143.375C297.082 143.405 296.392 144.08 296.392 144.995ZM303.925 147.155V139.16H305.53V140.345C306.055 139.385 306.88 138.95 307.81 138.95C308.125 138.95 308.425 139.025 308.575 139.16V140.57C308.335 140.495 308.05 140.465 307.72 140.465C306.19 140.465 305.53 141.395 305.53 142.79V147.155H303.925Z" fill="#6E7180"/>
<path d="M386.172 136.963C386.172 136.963 391.364 140.787 391.364 142.155C391.364 143.523 386.172 147.347 386.172 147.347" stroke="#313131" stroke-width="1.29808" stroke-linecap="round" stroke-linejoin="round"/>
</g>
</g>
<defs>
<filter id="filter0_dddd_2254_499" x="-0.00195312" y="17.155" width="438" height="270.308" filterUnits="userSpaceOnUse" color-interpolation-filters="sRGB">
<feFlood flood-opacity="0" result="BackgroundImageFix"/>
<feColorMatrix in="SourceAlpha" type="matrix" values="0 0 0 0 0 0 0 0 0 0 0 0 0 0 0 0 0 0 127 0" result="hardAlpha"/>
<feOffset dx="-5" dy="4"/>
<feGaussianBlur stdDeviation="7.5"/>
<feColorMatrix type="matrix" values="0 0 0 0 0 0 0 0 0 0 0 0 0 0 0 0 0 0 0.1 0"/>
<feBlend mode="normal" in2="BackgroundImageFix" result="effect1_dropShadow_2254_499"/>
<feColorMatrix in="SourceAlpha" type="matrix" values="0 0 0 0 0 0 0 0 0 0 0 0 0 0 0 0 0 0 127 0" result="hardAlpha"/>
<feOffset dx="-21" dy="16"/>
<feGaussianBlur stdDeviation="13.5"/>
<feColorMatrix type="matrix" values="0 0 0 0 0 0 0 0 0 0 0 0 0 0 0 0 0 0 0.09 0"/>
<feBlend mode="normal" in2="effect1_dropShadow_2254_499" result="effect2_dropShadow_2254_499"/>
<feColorMatrix in="SourceAlpha" type="matrix" values="0 0 0 0 0 0 0 0 0 0 0 0 0 0 0 0 0 0 127 0" result="hardAlpha"/>
<feOffset dx="-48" dy="36"/>
<feGaussianBlur stdDeviation="18"/>
<feColorMatrix type="matrix" values="0 0 0 0 0 0 0 0 0 0 0 0 0 0 0 0 0 0 0.05 0"/>
<feBlend mode="normal" in2="effect2_dropShadow_2254_499" result="effect3_dropShadow_2254_499"/>
<feColorMatrix in="SourceAlpha" type="matrix" values="0 0 0 0 0 0 0 0 0 0 0 0 0 0 0 0 0 0 127 0" result="hardAlpha"/>
<feOffset dx="-85" dy="64"/>
<feGaussianBlur stdDeviation="21.5"/>
<feColorMatrix type="matrix" values="0 0 0 0 0 0 0 0 0 0 0 0 0 0 0 0 0 0 0.01 0"/>
<feBlend mode="normal" in2="effect3_dropShadow_2254_499" result="effect4_dropShadow_2254_499"/>
<feBlend mode="normal" in="SourceGraphic" in2="effect4_dropShadow_2254_499" result="shape"/>
</filter>
<filter id="filter1_i_2254_499" x="142.998" y="119.616" width="270" height="49.6154" filterUnits="userSpaceOnUse" color-interpolation-filters="sRGB">
<feFlood flood-opacity="0" result="BackgroundImageFix"/>
<feBlend mode="normal" in="SourceGraphic" in2="BackgroundImageFix" result="shape"/>
<feColorMatrix in="SourceAlpha" type="matrix" values="0 0 0 0 0 0 0 0 0 0 0 0 0 0 0 0 0 0 127 0" result="hardAlpha"/>
<feOffset dy="4.61538"/>
<feGaussianBlur stdDeviation="13.8462"/>
<feComposite in2="hardAlpha" operator="arithmetic" k2="-1" k3="1"/>
<feColorMatrix type="matrix" values="0 0 0 0 0 0 0 0 0 0 0 0 0 0 0 0 0 0 0.01 0"/>
<feBlend mode="normal" in2="shape" result="effect1_innerShadow_2254_499"/>
</filter>
<clipPath id="clip0_2254_499">
<rect width="18.4615" height="18.4615" fill="white" transform="translate(156.844 132.924)"/>
</clipPath>
</defs>
</svg>
