<svg width="56" height="56" viewBox="0 0 56 56" fill="none" xmlns="http://www.w3.org/2000/svg">
<g clip-path="url(#clip0_2006_95)">
<rect width="56" height="56" rx="14" fill="#413AA3" fill-opacity="0.2"/>
<rect width="56" height="56" fill="url(#paint0_linear_2006_95)"/>
<g clip-path="url(#clip1_2006_95)">
<path d="M43.1783 25.2053L40.7867 24.9061C40.5075 23.8415 40.0838 22.8203 39.5274 21.8708L41.0084 19.9666C41.2989 19.593 41.2658 19.0617 40.9313 18.7273L38.2785 16.0745C37.9439 15.7399 37.4127 15.7069 37.0392 15.9973L35.1347 17.4784C34.1852 16.922 33.164 16.4983 32.0995 16.2191L31.8003 13.8274C31.772 13.6005 31.6617 13.3918 31.4903 13.2405C31.3189 13.0892 31.0981 13.0057 30.8695 13.0057H28.2795C28.6925 13.7736 28.9272 14.6511 28.9272 15.5824V21.0459C38.2459 21.3163 38.2409 34.7096 28.9272 34.9776V40.441C28.9272 41.3724 28.6925 42.2499 28.2795 43.0178H30.8695C31.0981 43.0178 31.3189 42.9343 31.4903 42.783C31.6617 42.6317 31.772 42.423 31.8003 42.1961L32.0995 39.8044C33.1641 39.5253 34.1853 39.1016 35.1348 38.5452L37.0391 40.0262C37.4125 40.3166 37.9439 40.2836 38.2784 39.949L40.9312 37.2962C41.0929 37.1345 41.1899 36.9194 41.2042 36.6912C41.2184 36.463 41.1488 36.2374 41.0084 36.0569L39.5273 34.1526C40.0836 33.2031 40.5074 32.1819 40.7866 31.1174L43.1782 30.8182C43.4051 30.7899 43.6138 30.6796 43.7651 30.5082C43.9164 30.3368 43.9999 30.116 43.9999 29.8873V26.1362C44 25.9076 43.9165 25.6868 43.7652 25.5153C43.6139 25.3439 43.4052 25.2336 43.1783 25.2053ZM23.4693 12.0007C18.723 12.1817 18.7266 18.9848 23.4693 19.1639C23.9874 19.1639 24.4074 19.584 24.4074 20.1021C24.4074 20.6202 23.9874 21.0402 23.4693 21.0402C20.7834 21.0402 18.5446 19.09 18.0942 16.5313C14.6552 16.2738 12.8768 20.5904 15.4974 22.8279C15.6344 22.9447 15.7348 23.0986 15.7868 23.271C15.8387 23.4434 15.84 23.6271 15.7903 23.8001C15.7407 23.9732 15.6423 24.1284 15.5069 24.2471C15.3715 24.3658 15.2048 24.443 15.0267 24.4695C10.9897 25.1647 10.9924 30.86 15.0267 31.5538C15.2048 31.5803 15.3715 31.6576 15.5069 31.7762C15.6423 31.8949 15.7407 32.0501 15.7903 32.2232C15.8399 32.3963 15.8387 32.58 15.7867 32.7524C15.7348 32.9247 15.6343 33.0786 15.4973 33.1954C12.8761 35.4347 14.6565 39.7496 18.0942 39.492C18.5447 36.9333 20.7834 34.9831 23.4693 34.9831C23.9874 34.9831 24.4074 35.4032 24.4074 35.9213C24.4074 36.4394 23.9874 36.8594 23.4693 36.8594C21.4944 36.8594 19.8876 38.4661 19.8876 40.441C20.0671 45.1849 26.8712 45.1857 27.0508 40.441V28.9498H24.0342C22.0593 28.9498 20.4526 30.5565 20.4526 32.5315C20.4526 33.0496 20.0325 33.4696 19.5144 33.4696C18.9963 33.4696 18.5763 33.0496 18.5763 32.5315C18.5763 30.6535 19.5297 28.9941 20.9779 28.0117C19.5297 27.0293 18.5763 25.3699 18.5763 23.4919C18.5763 22.9738 18.9963 22.5538 19.5144 22.5538C20.0325 22.5538 20.4526 22.9738 20.4526 23.4919C20.4526 25.4668 22.0593 27.0735 24.0342 27.0735H27.0508V15.5824C27.0509 13.6075 25.4442 12.0007 23.4693 12.0007Z" fill="url(#paint1_linear_2006_95)"/>
<path d="M34.0845 28.0117C34.0868 25.1825 31.7564 22.8799 28.9268 22.9221V33.1013C31.7564 33.1435 34.0867 30.8409 34.0845 28.0117Z" fill="url(#paint2_linear_2006_95)"/>
</g>
</g>
<rect x="0.5" y="0.5" width="55" height="55" rx="13.5" stroke="url(#paint3_linear_2006_95)"/>
<defs>
<linearGradient id="paint0_linear_2006_95" x1="28" y1="6.95388e-07" x2="30.3333" y2="56" gradientUnits="userSpaceOnUse">
<stop stop-color="white" stop-opacity="0"/>
<stop offset="1" stop-color="white" stop-opacity="0.12"/>
</linearGradient>
<linearGradient id="paint1_linear_2006_95" x1="28" y1="12.0007" x2="28" y2="43.9993" gradientUnits="userSpaceOnUse">
<stop stop-color="white"/>
<stop offset="1" stop-color="white" stop-opacity="0.7"/>
</linearGradient>
<linearGradient id="paint2_linear_2006_95" x1="31.5056" y1="22.9215" x2="31.5056" y2="33.1019" gradientUnits="userSpaceOnUse">
<stop stop-color="white"/>
<stop offset="1" stop-color="white" stop-opacity="0.7"/>
</linearGradient>
<linearGradient id="paint3_linear_2006_95" x1="-20.5" y1="-29.5" x2="73.1923" y2="18.5317" gradientUnits="userSpaceOnUse">
<stop stop-color="#4E4566" stop-opacity="0"/>
<stop offset="1" stop-color="#4E4566"/>
</linearGradient>
<clipPath id="clip0_2006_95">
<rect width="56" height="56" rx="14" fill="white"/>
</clipPath>
<clipPath id="clip1_2006_95">
<rect width="32" height="32" fill="white" transform="translate(12 12)"/>
</clipPath>
</defs>
</svg>
