<svg width="56" height="56" viewBox="0 0 56 56" fill="none" xmlns="http://www.w3.org/2000/svg">
<g clip-path="url(#clip0_2006_83)">
<rect width="56" height="56" rx="14" fill="#413AA3" fill-opacity="0.2"/>
<rect width="56" height="56" fill="url(#paint0_linear_2006_83)"/>
<g clip-path="url(#clip1_2006_83)">
<path d="M20.1399 20.6417L17.3675 20.8559C16.5961 20.9155 15.909 21.3198 15.4824 21.9651L12.2851 26.8008C11.9616 27.2902 11.9101 27.9026 12.1475 28.4391C12.3848 28.9756 12.8726 29.3495 13.4523 29.4393L15.9907 29.8324C16.5845 26.6812 18.006 23.5377 20.1399 20.6417ZM26.1675 40.0092L26.5607 42.5476C26.6505 43.1273 27.0244 43.6151 27.5608 43.8524C27.7795 43.9495 28.0161 43.9998 28.2553 43.9999C28.5911 43.9997 28.9194 43.9005 29.1992 43.7148L34.035 40.5175C34.6803 40.0908 35.0846 39.4037 35.1441 38.6324L35.3583 35.8601C32.4622 37.994 29.3188 39.4155 26.1675 40.0092ZM25.2128 38.2498C25.301 38.2498 25.3896 38.2425 25.478 38.2278C26.7983 38.0071 28.0708 37.6352 29.2846 37.1484L18.8516 26.7154C18.3648 27.9292 17.993 29.2017 17.7722 30.522C17.6852 31.0424 17.8598 31.5726 18.2328 31.9457L24.0543 37.7672C24.364 38.0769 24.7821 38.2498 25.2128 38.2498ZM41.4484 26.1876C44.0015 21.2517 44.096 16.0358 43.9626 13.5896C43.9169 12.7514 43.2486 12.0831 42.4104 12.0374C41.9434 12.0122 41.4757 11.9998 41.008 12C38.2726 12 33.9445 12.4143 29.8124 14.5516C26.5285 16.2502 22.2225 19.9902 19.682 24.9053C19.712 24.9287 19.7413 24.9536 19.769 24.9812L31.0189 36.2311C31.0465 36.2588 31.0713 36.288 31.0947 36.318C36.0098 33.7775 39.7499 29.4714 41.4484 26.1876ZM30.606 18.765C32.4335 16.9374 35.4073 16.9372 37.235 18.765C38.1204 19.6503 38.6079 20.8274 38.6079 22.0795C38.6079 23.3315 38.1204 24.5087 37.235 25.394C36.3213 26.3077 35.1207 26.7646 33.9205 26.7648C32.72 26.7648 31.5199 26.308 30.606 25.394C29.7206 24.5087 29.233 23.3315 29.233 22.0795C29.233 20.8274 29.7206 19.6503 30.606 18.765Z" fill="url(#paint1_linear_2006_83)"/>
<path d="M31.9316 24.0681C33.0281 25.1647 34.8125 25.1648 35.909 24.0681C36.4402 23.5369 36.7328 22.8307 36.7328 22.0794C36.7328 21.3282 36.4402 20.6219 35.909 20.0907C35.3608 19.5424 34.6405 19.2683 33.9203 19.2683C33.2001 19.2683 32.4799 19.5424 31.9316 20.0907C31.4004 20.6219 31.1078 21.3282 31.1078 22.0794C31.1078 22.8307 31.4004 23.537 31.9316 24.0681ZM12.9563 38.3709C13.1963 38.3709 13.4362 38.2794 13.6192 38.0963L16.68 35.0355C17.0461 34.6694 17.0461 34.0758 16.68 33.7097C16.3139 33.3436 15.7203 33.3436 15.3542 33.7097L12.2934 36.7705C11.9273 37.1366 11.9273 37.7302 12.2934 38.0963C12.3804 38.1835 12.4837 38.2526 12.5975 38.2998C12.7112 38.3469 12.8332 38.3711 12.9563 38.3709ZM19.485 36.5147C19.119 36.1486 18.5254 36.1486 18.1592 36.5147L12.2746 42.3994C11.9085 42.7655 11.9085 43.3591 12.2746 43.7252C12.4577 43.9082 12.6976 43.9997 12.9375 43.9997C13.1775 43.9997 13.4174 43.9082 13.6004 43.7251L19.485 37.8405C19.8512 37.4744 19.8512 36.8809 19.485 36.5147ZM20.9642 39.3198L17.9035 42.3806C17.5374 42.7467 17.5374 43.3402 17.9035 43.7064C18.0865 43.8894 18.3265 43.981 18.5664 43.981C18.8062 43.981 19.0462 43.8895 19.2292 43.7064L22.29 40.6456C22.6561 40.2795 22.6561 39.6859 22.29 39.3198C21.924 38.9537 21.3303 38.9537 20.9642 39.3198Z" fill="url(#paint2_linear_2006_83)"/>
</g>
</g>
<rect x="0.5" y="0.5" width="55" height="55" rx="13.5" stroke="url(#paint3_linear_2006_83)"/>
<defs>
<linearGradient id="paint0_linear_2006_83" x1="28" y1="6.95388e-07" x2="30.3333" y2="56" gradientUnits="userSpaceOnUse">
<stop stop-color="white" stop-opacity="0"/>
<stop offset="1" stop-color="white" stop-opacity="0.12"/>
</linearGradient>
<linearGradient id="paint1_linear_2006_83" x1="28" y1="12" x2="28" y2="43.9999" gradientUnits="userSpaceOnUse">
<stop stop-color="white"/>
<stop offset="1" stop-color="white" stop-opacity="0.7"/>
</linearGradient>
<linearGradient id="paint2_linear_2006_83" x1="24.3664" y1="19.2683" x2="24.3664" y2="43.9997" gradientUnits="userSpaceOnUse">
<stop stop-color="white"/>
<stop offset="1" stop-color="white" stop-opacity="0.7"/>
</linearGradient>
<linearGradient id="paint3_linear_2006_83" x1="-20.5" y1="-29.5" x2="73.1923" y2="18.5317" gradientUnits="userSpaceOnUse">
<stop stop-color="#4E4566" stop-opacity="0"/>
<stop offset="1" stop-color="#4E4566"/>
</linearGradient>
<clipPath id="clip0_2006_83">
<rect width="56" height="56" rx="14" fill="white"/>
</clipPath>
<clipPath id="clip1_2006_83">
<rect width="32" height="32" fill="white" transform="translate(12 12)"/>
</clipPath>
</defs>
</svg>
