<svg width="28" height="28" viewBox="0 0 28 28" fill="none" xmlns="http://www.w3.org/2000/svg">
<g clip-path="url(#clip0_2318_454)">
<path d="M7.3225 7.6782C7.15188 7.50757 6.92046 7.4117 6.67916 7.41167C6.43786 7.41165 6.20643 7.50748 6.03578 7.67808L0.266538 13.4466C0.0958975 13.6172 2.27553e-05 13.8487 4.05009e-09 14.09C-2.27472e-05 14.3313 0.0958083 14.5628 0.266416 14.7334L6.01067 20.4779C6.09507 20.5626 6.19537 20.6297 6.3058 20.6754C6.41623 20.7212 6.53462 20.7446 6.65415 20.7445C6.83413 20.7446 7.01011 20.6913 7.15979 20.5913C7.30948 20.4914 7.42615 20.3493 7.49504 20.183C7.56393 20.0167 7.58195 19.8337 7.54681 19.6572C7.51167 19.4807 7.42495 19.3185 7.29763 19.1913L2.19674 14.0901L7.3225 8.96492C7.49311 8.79428 7.58896 8.56286 7.58896 8.32156C7.58896 8.08026 7.49311 7.84884 7.3225 7.6782ZM27.7335 13.4227L21.9884 7.67796C21.8177 7.50736 21.5863 7.41153 21.345 7.41155C21.1037 7.41158 20.8723 7.50745 20.7016 7.67808C20.6172 7.76258 20.5501 7.8629 20.5044 7.9733C20.4587 8.0837 20.4352 8.20203 20.4352 8.32153C20.4352 8.44102 20.4587 8.55934 20.5045 8.66974C20.5502 8.78013 20.6173 8.88043 20.7018 8.96492L25.8034 14.0662L20.6777 19.1911C20.5932 19.2756 20.5262 19.3758 20.4804 19.4862C20.4347 19.5966 20.4111 19.7149 20.4111 19.8344C20.4111 19.9539 20.4346 20.0722 20.4804 20.1826C20.5261 20.293 20.5931 20.3933 20.6776 20.4778C20.762 20.5624 20.8623 20.6296 20.9728 20.6753C21.0832 20.721 21.2016 20.7445 21.3211 20.7443C21.4406 20.7445 21.559 20.721 21.6694 20.6753C21.7798 20.6296 21.8801 20.5625 21.9645 20.4779L27.7337 14.7095C27.8182 14.625 27.8853 14.5247 27.931 14.4143C27.9768 14.3039 28.0003 14.1856 28.0003 14.0661C28.0002 13.9466 27.9767 13.8282 27.9309 13.7178C27.8851 13.6074 27.818 13.5071 27.7335 13.4227ZM18.9124 7.43714C18.8168 7.36552 18.708 7.31344 18.5922 7.28388C18.4764 7.25433 18.3559 7.24787 18.2377 7.26488C18.1194 7.28189 18.0056 7.32204 17.9029 7.38303C17.8001 7.44402 17.7104 7.52466 17.6388 7.62033L8.90451 19.2894C8.83288 19.385 8.78081 19.4938 8.75125 19.6096C8.72169 19.7254 8.71524 19.8458 8.73225 19.9641C8.74926 20.0824 8.78941 20.1961 8.8504 20.2989C8.91139 20.4017 8.99202 20.4914 9.0877 20.563C9.2447 20.6809 9.4358 20.7446 9.63218 20.7445C9.77372 20.7447 9.91335 20.7118 10.0399 20.6485C10.1665 20.5852 10.2766 20.4931 10.3613 20.3798L19.0955 8.71075C19.1671 8.61512 19.2192 8.5063 19.2488 8.39053C19.2783 8.27476 19.2848 8.15429 19.2678 8.03602C19.2508 7.91775 19.2107 7.80398 19.1497 7.70123C19.0887 7.59847 19.0081 7.50873 18.9124 7.43714Z" fill="#3276F5"/>
</g>
<defs>
<clipPath id="clip0_2318_454">
<rect width="28" height="28" fill="white"/>
</clipPath>
</defs>
</svg>
