<svg width="56" height="56" viewBox="0 0 56 56" fill="none" xmlns="http://www.w3.org/2000/svg">
<rect width="56" height="56" rx="28" fill="#F1F3F4"/>
<g clip-path="url(#clip0_1571_615)">
<path d="M40.3301 37.0993L36.4675 33.2366C35.7559 32.525 34.705 32.3881 33.8661 32.7897L32.4184 31.3419C33.9048 29.6094 34.8043 27.3593 34.8043 24.9029C34.8043 19.4428 30.3622 15.0007 24.9021 15.0007C19.4421 15.0007 15 19.4428 15 24.9028C15 30.3629 19.4421 34.805 24.9021 34.805C27.3586 34.805 29.6087 33.9055 31.3412 32.4191L32.7889 33.8668C32.3879 34.7046 32.5233 35.7557 33.2358 36.4682L37.0985 40.3309C37.9895 41.2218 39.4391 41.2218 40.3301 40.3309C41.2232 39.4379 41.2234 37.9925 40.3301 37.0993ZM24.9021 33.2815C20.2821 33.2815 16.5234 29.5228 16.5234 24.9028C16.5234 20.2827 20.2821 16.5241 24.9021 16.5241C29.5222 16.5241 33.2809 20.2828 33.2809 24.9028C33.2809 29.5228 29.5222 33.2815 24.9021 33.2815ZM34.3131 35.391C34.0154 35.0932 34.0154 34.6115 34.3131 34.3138C34.6101 34.0168 35.0933 34.0168 35.3904 34.3138L35.929 34.8524L34.8518 35.9296L34.3131 35.391ZM39.253 39.2536C38.956 39.5506 38.4728 39.5506 38.1757 39.2536L35.9289 37.0067L37.0061 35.9295L39.2529 38.1763C39.55 38.4734 39.55 38.9566 39.253 39.2536Z" fill="#4267EA"/>
<path d="M27.112 23.9505C27.6302 23.404 27.9491 22.6668 27.9491 21.8562C27.9491 20.1762 26.5823 18.8093 24.9022 18.8093C23.2222 18.8093 21.8554 20.1761 21.8554 21.8562C21.8554 22.6669 22.1743 23.404 22.6925 23.9505C21.2862 24.7306 20.332 26.2308 20.332 27.9497V29.4731C20.332 29.8938 20.6731 30.2349 21.0937 30.2349H28.7108C29.1315 30.2349 29.4725 29.8938 29.4725 29.4731V27.9497C29.4725 26.2308 28.5183 24.7306 27.112 23.9505ZM24.9022 20.3327C25.7423 20.3327 26.4256 21.0161 26.4256 21.8561C26.4256 22.6961 25.7422 23.3795 24.9022 23.3795C24.0622 23.3795 23.3789 22.6961 23.3789 21.8561C23.3789 21.0161 24.0623 20.3327 24.9022 20.3327ZM27.9491 28.7115H21.8554V27.9497C21.8554 26.2698 23.2222 24.9029 24.9022 24.9029C26.5822 24.9029 27.9491 26.2697 27.9491 27.9497V28.7115Z" fill="#4267EA"/>
</g>
<defs>
<clipPath id="clip0_1571_615">
<rect width="26" height="26" fill="white" transform="translate(15 15)"/>
</clipPath>
</defs>
</svg>
