<svg width="400" height="222" viewBox="0 0 400 222" fill="none" xmlns="http://www.w3.org/2000/svg">
<g clip-path="url(#clip0_1598_916)">
<rect width="400" height="222" fill="#F1F3F4"/>
<g clip-path="url(#clip1_1598_916)">
<rect opacity="0.2" x="59.4534" y="-30.1579" width="281.727" height="281.727" rx="140.863" stroke="#D6D6D6" stroke-width="2.28963"/>
<rect opacity="0.3" x="83.1255" y="-6.48653" width="234.383" height="234.383" rx="117.191" stroke="#D6D6D6" stroke-width="2.28963"/>
<rect opacity="0.4" x="106.786" y="17.1853" width="187.051" height="187.051" rx="93.5254" stroke="#D6D6D6" stroke-width="2.28963"/>
<rect opacity="0.5" x="130.457" y="40.846" width="139.719" height="139.719" rx="69.8593" stroke="#D6D6D6" stroke-width="2.28963"/>
<rect opacity="0.6" x="154.129" y="64.5179" width="92.3748" height="92.3748" rx="46.1874" stroke="#D6D6D6" stroke-width="2.28963"/>
<rect opacity="0.7" x="177.79" y="88.1895" width="45.0426" height="45.0426" rx="22.5213" stroke="#D6D6D6" stroke-width="2.28963"/>
</g>
<g filter="url(#filter0_f_1598_916)">
<rect x="120" y="45" width="114" height="114" rx="22" fill="#CDCDCD" fill-opacity="0.7"/>
</g>
<g clip-path="url(#clip2_1598_916)">
<rect x="150" y="61" width="100" height="100" rx="50" fill="white"/>
<rect width="100" height="100" transform="translate(150 61)" fill="url(#paint0_linear_1598_916)"/>
<g filter="url(#filter1_d_1598_916)">
<path d="M192.071 136.135C194.301 137.035 196.724 137.567 199.266 137.654C202.708 137.773 205.979 137.063 208.904 135.713C205.395 134.336 202.218 132.319 199.511 129.813C197.755 132.626 195.154 134.848 192.075 136.135H192.071Z" fill="#FF9100"/>
<path d="M199.506 129.813C193.317 124.091 189.565 115.806 189.881 106.722C189.892 106.426 189.909 106.133 189.924 105.838C188.815 105.549 187.659 105.376 186.467 105.337C184.762 105.277 183.113 105.487 181.553 105.928C179.9 108.821 178.906 112.14 178.779 115.7C178.46 124.879 184.013 132.899 192.063 136.139C195.145 134.852 197.742 132.634 199.498 129.817L199.507 129.813H199.506Z" fill="#FFC400"/>
<path d="M199.506 129.813C200.946 127.512 201.818 124.813 201.917 121.904C202.186 114.256 197.043 107.673 189.923 105.839C189.904 106.134 189.888 106.427 189.88 106.723C189.564 115.807 193.317 124.092 199.505 129.814L199.506 129.813Z" fill="#FF9100"/>
<path d="M201.124 84.3333C197.071 87.5812 193.871 91.8635 191.932 96.7958C190.823 99.6218 190.125 102.656 189.924 105.837C197.044 107.673 202.186 114.255 201.918 121.903C201.815 124.811 200.943 127.507 199.506 129.811C202.218 132.318 205.395 134.33 208.899 135.711C215.94 132.455 220.931 125.454 221.224 117.175C221.409 111.808 219.349 107.025 216.437 102.992C213.357 98.7218 201.127 84.3374 201.127 84.3374L201.124 84.3333Z" fill="#DD2C00"/>
</g>
</g>
<rect x="152.083" y="63.0833" width="95.8333" height="95.8333" rx="47.9167" stroke="url(#paint1_linear_1598_916)" stroke-width="4.16667"/>
</g>
<defs>
<filter id="filter0_f_1598_916" x="16" y="-59" width="322" height="322" filterUnits="userSpaceOnUse" color-interpolation-filters="sRGB">
<feFlood flood-opacity="0" result="BackgroundImageFix"/>
<feBlend mode="normal" in="SourceGraphic" in2="BackgroundImageFix" result="shape"/>
<feGaussianBlur stdDeviation="52" result="effect1_foregroundBlur_1598_916"/>
</filter>
<filter id="filter1_d_1598_916" x="175.909" y="83.619" width="48.1835" height="59.0483" filterUnits="userSpaceOnUse" color-interpolation-filters="sRGB">
<feFlood flood-opacity="0" result="BackgroundImageFix"/>
<feColorMatrix in="SourceAlpha" type="matrix" values="0 0 0 0 0 0 0 0 0 0 0 0 0 0 0 0 0 0 127 0" result="hardAlpha"/>
<feMorphology radius="1.42857" operator="erode" in="SourceAlpha" result="effect1_dropShadow_1598_916"/>
<feOffset dy="2.14286"/>
<feGaussianBlur stdDeviation="2.14286"/>
<feComposite in2="hardAlpha" operator="out"/>
<feColorMatrix type="matrix" values="0 0 0 0 0.141176 0 0 0 0 0.141176 0 0 0 0 0.141176 0 0 0 0.2 0"/>
<feBlend mode="normal" in2="BackgroundImageFix" result="effect1_dropShadow_1598_916"/>
<feBlend mode="normal" in="SourceGraphic" in2="effect1_dropShadow_1598_916" result="shape"/>
</filter>
<linearGradient id="paint0_linear_1598_916" x1="50" y1="1.24176e-06" x2="54.1667" y2="100" gradientUnits="userSpaceOnUse">
<stop stop-color="white" stop-opacity="0"/>
<stop offset="1" stop-color="white" stop-opacity="0.12"/>
</linearGradient>
<linearGradient id="paint1_linear_1598_916" x1="200" y1="61" x2="200" y2="161" gradientUnits="userSpaceOnUse">
<stop stop-color="white" stop-opacity="0.12"/>
<stop offset="1" stop-color="white" stop-opacity="0"/>
</linearGradient>
<clipPath id="clip0_1598_916">
<rect width="400" height="222" fill="white"/>
</clipPath>
<clipPath id="clip1_1598_916">
<rect width="478.741" height="224.8" fill="white" transform="translate(-39 -1)"/>
</clipPath>
<clipPath id="clip2_1598_916">
<rect x="150" y="61" width="100" height="100" rx="50" fill="white"/>
</clipPath>
</defs>
</svg>
