<?xml version="1.0" encoding="UTF-8"?>
<svg xmlns="http://www.w3.org/2000/svg" id="Layer_2" data-name="Layer 2" width="792" height="272" viewBox="0 0 792 272">
  <g id="lgoo">
    <rect width="792" height="272" style="fill: none;"></rect>
    <g>
      <g>
        <path d="m294.49,171.69l26.51-66.7h13.18l26.51,66.7h-12.89l-6.1-16.11h-28.22l-6.1,16.11h-12.89Zm23.1-26.9h19.92l-9.91-26.17-10.01,26.17Z" style="fill: #004f97;"></path>
        <path d="m389.54,143.46v-38.48h12.01v39.5c0,5.86,1.27,10.16,3.81,12.89,2.54,2.73,6.57,4.1,12.11,4.1s9.58-1.37,12.13-4.1c2.55-2.73,3.83-7.03,3.83-12.89v-39.5h12.01v38.48c0,9.21-2.45,16.35-7.35,21.41-4.9,5.06-11.79,7.59-20.65,7.59s-15.74-2.53-20.61-7.59c-4.87-5.06-7.3-12.2-7.3-21.41Z" style="fill: #004f97;"></path>
        <path d="m479.85,123.74c0-6.46,2.26-11.33,6.79-14.61,4.52-3.28,10.19-4.92,16.99-4.92,5.99,0,11.96,1.55,17.92,4.65v11.76c-5.14-3.38-10.64-5.08-16.5-5.08-3.68,0-6.8.63-9.35,1.9-2.56,1.27-3.83,3.27-3.83,6.01,0,2.21,1.16,3.95,3.49,5.2,2.33,1.25,5.14,2.31,8.45,3.17,3.3.86,6.62,1.94,9.96,3.25,3.34,1.3,6.17,3.56,8.5,6.76,2.33,3.21,3.49,7.35,3.49,12.43,0,5.36-2.23,9.74-6.69,13.13-4.46,3.39-9.9,5.08-16.31,5.08-8.46,0-15.8-1.86-22.02-5.59v-12.13c5.73,4.27,12.14,6.4,19.24,6.4,9.18,0,13.77-2.56,13.77-7.67,0-2.31-.83-4.23-2.49-5.76-1.66-1.53-3.76-2.66-6.3-3.39-2.54-.73-5.26-1.59-8.15-2.59-2.9-.99-5.62-2.08-8.16-3.25-2.54-1.17-4.64-3-6.3-5.49-1.66-2.49-2.49-5.57-2.49-9.25Z" style="fill: #004f97;"></path>
        <path d="m553.03,104.99h12.79l18.9,51.81,18.9-51.81h12.79l-25.49,66.7h-12.3l-25.59-66.7Z" style="fill: #004f97;"></path>
        <path d="m646.66,171.69v-66.7h44.38v10.79h-32.37v16.89h28.08v11.33h-28.08v16.89h32.37v10.79h-44.38Z" style="fill: #004f97;"></path>
        <path d="m721.5,117v-12.01h54.69v12.01h-21.39v54.69h-12.01v-54.69h-21.29Z" style="fill: #004f97;"></path>
      </g>
      <g>
        <path d="m140,186.52c.8-.17,3.12-.66,6.46-.64.03,0,.06,0,.1,0-10.67-6.76-15.93-18.71-14.33-32.1-5.65,6.97-14.15,10.93-22.67,9.71,9.93,8.57,15.39,20.39,14.99,32.45,3.3-4.42,8.53-7.93,15.44-9.41Z" style="fill: #f0c2b4;"></path>
        <path d="m47.09,197.34c.16.2.29.37.46.58-7.59-11.75-9.22-19.33-9.51-22.8h-.04s0,.02,0,.02l-.1.03h0s0,0,0,0c-.02,0-.04.02-.07.02h-.04s0,.01,0,.01h-.02c-.06.02-.13.02-.22.02h-.04s-.08,0-.08,0c-.03,0-.07-.02-.11-.03h-.02s-.02,0-.03-.01l-.15-.04-.17-.08s-.08-.04-.12-.06l-.04-.02-.07-.05-.26-.19-.09-.08h-.01s-.05-.06-.08-.08l-.18-.17-.08-.08c-.06-.06-.17-.18-.31-.35l-.05-.06-.21-.26s-.01-.01-.02-.02l-.15-.19-.09-.13-.28-.42-.1-.16c-.09-.15-.22-.36-.31-.51l-.07-.11c-.14-.23-.27-.47-.39-.7l-.04-.08c-.1-.19-.23-.45-.33-.66l-.1-.21c-.09-.19-.2-.43-.29-.62l-.1-.22c-.1-.24-.23-.55-.33-.79l-.03-.06h0c-.1-.27-.23-.6-.33-.85l-.04-.11-.02-.04-.05-.14-.2-.54-.09-.25s-.03-.08-.05-.13c.89,2.75,1.64,5.09,2.32,7.15,1.69,5.15,2.89,8.46,4.24,11.21.51,1.05,1.05,2.02,1.64,2.99,1.55,2.4,3.54,4.98,4.33,6.01.68.89,1.56,2,2.54,3.24Z" style="fill: #f0c2b4;"></path>
        <path d="m35.84,155.78l.04.11c.58,1.46,1.08,2.9,1.5,4.31.02.06.04.13.05.18l.14.45c.03.09.05.17.08.26.16-7.53,3.39-13.02,9.1-15.45-.05-.03-.1-.06-.15-.09-3.38-1.63-5.77-4.63-7.21-8.34-.56-1.35-1.03-2.84-1.39-4.47-.06.45-.12,1.04-.18,1.49-.63,4.5-2.84,12.98-6.69,12.82.05.07.1.15.15.22l.21.29.06.07c.12.19.25.37.38.56l.1.15.28.44.14.21.27.44.13.21c.13.21.25.42.37.64l.15.28.23.42.19.35.13.25s.02.04.03.06l.04.08.19.39.2.41.15.32.18.37c.03.06.06.12.09.18l.1.23c.07.15.16.34.22.49l.08.18c.19.44.38.88.56,1.31.03.06.05.13.08.18Z" style="fill: #fac39d;"></path>
        <path d="m66.29,114.67c.47,2.53.62,5.17.48,7.81,0,.23-.03.46-.04.7-.04.51-.08,1.02-.14,1.53-.06.59-.14,1.18-.24,1.8-.06.36-.11.71-.18,1.07-.1.57-.22,1.14-.36,1.73-.14.61-.3,1.22-.47,1.82-.08.28-.15.55-.24.83-.68,2.18-1.54,4.24-2.56,6.09-.06.12-.11.24-.17.36,8.8-4.23,18.58-1.97,26.88,6.19-2.37-8.71-.65-18.5,4.36-25.91-14.9,6.8-24.06-.51-27.33-4.01Z" style="fill: #f0c2b4;"></path>
        <path d="m99.09,159.09c-.12-.09-.24-.19-.36-.28-.67-.51-1.3-1.05-1.91-1.61-.09-.09-.19-.17-.28-.26-3.24-3.09-5.49-6.81-6.83-10.81-.08.64-.17,1.41-.26,2.01-.53,3.22-3.84,19.54-17.1,23.64.08.04.16.08.25.12,1.54.62,3.05,1.43,4.5,2.39.31.2.61.41.92.62.25.18.5.36.75.55,3.08,2.29,5.8,5.2,8.18,8.77.14.21.29.42.42.64.33.52.66,1.05.98,1.6.15.25.29.5.43.76.25.45.52.88.76,1.35.57-11.58,7.13-20.86,18-25.48-2.8-.67-5.57-1.91-8.21-3.81-.08-.06-.16-.13-.24-.19Z" style="fill: #f0c2b4;"></path>
        <path d="m66.49,207.29c-.54-.49-1.08-.99-1.61-1.53-.51-.52-1.04-1.06-1.57-1.65-.1-.12-.21-.22-.32-.34-.18-.21-.33-.42-.51-.63-.31-.36-.61-.75-.92-1.14-2.05-2.57-3.72-5.13-4.93-7.63.32,7.68-2.69,9.46-8.1,4.77,6.43,7.99,9.16,11.38,12.39,15.65.52.68,1.01,1.33,1.48,1.94-1.97-6.18,6.14-5.71,9.76-5.22-1.82-1.08-3.65-2.43-5.47-4.05-.07-.06-.13-.12-.2-.18Z" style="fill: #f0c2b4;"></path>
        <path d="m38.02,162.46c.07.28.17.66.23.94.01.06.02.1.03.16.02.08.04.16.05.22l.09.38.1.47.08.43.09.44.07.44.07.41.07.47.02.15c0,.05.02.1.02.15.01.08,0,.15.02.23.16,1.12.25,2.14.27,3,0,.24,0,.56,0,.81v.23c0,.15-.02.37-.03.52v.22c-.02.16-.05.36-.07.51h0c-.04.3-.08.56-.14.8v.02s-.01.03-.01.03c-.02.07-.04.13-.05.19-.02.07-.04.14-.06.2l-.04.1-.13.31-.05.09s0,.01-.01.02c0,0,0,0,0,0h0s0,.03-.01.04c-.01.02-.02.03-.04.05,0,0,0,0,0,0-.04.06-.07.13-.12.2v.02s-.18.18-.18.18c-.01.01-.03.03-.04.04h-.01s-.02.03-.03.04c2.75,1.99,9.97,7.73,17.79,17.93-1.27-2.97-1.97-5.81-2.14-8.42-.03-.42-.08-.85-.08-1.26,0-.11,0-.22.01-.34,0-.71.06-1.4.15-2.08.02-.12.04-.24.06-.36.09-.56.22-1.12.38-1.66.07-.24.14-.48.22-.71.15-.42.32-.83.51-1.23.1-.21.18-.42.29-.62.07-.13.12-.27.19-.4-8.59.6-14.7-8.13-17.58-13.38Zm1.13,6.39c.03.23.05.55.06.79-.01-.24-.04-.55-.06-.79Z" style="fill: #f0c2b4;"></path>
        <path d="m61.5,139.78c-.09.12-.19.27-.29.42-.1.14-.19.27-.29.41-.04.06-.09.13-.13.19-.07.1-.15.2-.23.3-3.43,4.48-7.99,6.79-13,4.88-.06-.02-.12-.03-.18-.05,5.56,7.8,8.99,19.27,8.71,29.2.06-.08.13-.15.2-.22,1.03-1.39,2.38-2.48,3.99-3.23.08-.04.16-.07.25-.11.48-.21.96-.4,1.48-.55.6-.18,1.21-.31,1.8-.4.05,0,.1,0,.15-.02.78-.1,1.54-.12,2.26-.1.05,0,.09,0,.14,0,.08,0,.16.02.24.02.15,0,.29.02.43.03,1.24.1,2.52.34,3.85.74.12.03.24.07.33.09-7.71-8.78-11.06-19.7-9.69-31.59Z" style="fill: #f0c2b4;"></path>
        <path d="m87.37,184.87c-.14-.21-.28-.43-.42-.64-2.28-3.38-5.07-6.41-8.18-8.77-.25-.19-.5-.37-.75-.55-.3-.21-.61-.42-.92-.62-1.45-.96-2.96-1.77-4.5-2.39-.18-.07-.35-.16-.53-.23-.41-.15-.82-.27-1.22-.39-1.33-.4-2.61-.64-3.85-.74-.14-.01-.28-.03-.43-.03-.08,0-.16-.02-.24-.02-.05,0-.09,0-.14,0-.79-.02-1.54,0-2.26.1-.05,0-.1.01-.15.02-.63.08-1.22.23-1.8.4-.52.15-1,.34-1.48.55-.08.04-.17.07-.25.11-1.61.76-2.96,1.84-3.99,3.23-.32.43-.61.87-.87,1.35-.11.2-.2.41-.29.62-.19.4-.36.81-.51,1.23-.08.23-.16.47-.22.71-.15.54-.28,1.09-.38,1.66-.02.12-.04.24-.06.36-.09.67-.14,1.36-.15,2.08,0,.11-.01.22-.01.34,0,.41.05.84.08,1.26.17,2.61.87,5.45,2.14,8.42.21.48.39.96.63,1.45,1.21,2.49,2.88,5.06,4.93,7.63.31.39.61.78.92,1.14.18.21.33.42.51.63.1.12.21.22.32.34.52.58,1.04,1.12,1.57,1.65.53.54,1.07,1.04,1.61,1.53.07.06.13.12.2.18,1.82,1.63,3.65,2.98,5.47,4.05,1.38.82,2.74,1.47,4.07,1.97.01,0,.03.01.04.01,2.07.77,4.06,1.18,5.91,1.19h0c.49,0,.96-.05,1.43-.1.03,0,.06,0,.09,0,.05,0,.1,0,.15-.02.05,0,.09,0,.14-.01.45-.06.88-.16,1.31-.28.01,0,.02,0,.03,0,.02,0,.03,0,.05-.01.13-.04.27-.07.4-.12.36-.12.72-.24,1.06-.4.23-.1.44-.22.66-.34.36-.2.71-.42,1.04-.66.12-.09.23-.19.34-.28.01-.01.03-.03.04-.04.16-.13.32-.25.47-.39.2-.19.39-.41.58-.62.18-.2.34-.42.5-.64.3-.4.56-.84.81-1.3.1-.2.21-.39.3-.6.19-.41.35-.84.5-1.28.12-.35.23-.71.32-1.09.07-.27.14-.54.2-.83.01-.07.02-.15.03-.22.12-.65.22-1.3.27-2.02,0-.02,0-.03,0-.04,0-.01,0-.02,0-.03,0,0,0-.02,0-.03,0,0,0-.01,0-.02.05-.73.06-1.47.03-2.22,0-.03,0-.06,0-.09-.19-4.54-1.73-9.35-4.17-13.78-.14-.26-.28-.51-.43-.76-.32-.55-.64-1.08-.98-1.6Z" style="fill: #e30613;"></path>
        <path d="m47.94,198.4c-.31-.38-.56-.7-.84-1.06-.98-1.23-1.86-2.35-2.54-3.24-.79-1.03-2.78-3.61-4.33-6.01-.53-.82-1.01-1.62-1.37-2.33,0,0,0,0,0,0,0-.02-.02-.03-.03-.05l2.01,4.07c2.47,4.4,3.87,6.89,5.19,9.02,1.54,2.49,2.98,4.49,5.88,8.47,2.99,3.65,4.83,5.89,6.4,7.69,2.08,2.38,3.69,3.99,6.9,7.07l1.02.94.36.3.15-.13c-.53-1.15-2.1-3.42-4.34-6.4-.46-.61-.96-1.27-1.48-1.94-3.51-4.58-8.17-10.39-12.99-16.4Z" style="fill: #e30613;"></path>
        <path d="m233.61,207.09c.18-.56.39-1.1.6-1.64-4.97,7.31-13.38,17.03-25.19,21.85.22.02.51.05.71.08.36.05.67.12.98.2,0,0,.02,0,.03,0,.26.07.48.16.69.24.08.03.17.06.25.1.16.08.29.18.42.27.09.07.2.13.28.21.09.08.15.17.21.26.06.08.14.15.19.23.02.05.03.1.05.14.01.04.03.08.04.12.37.96.08,2.08-.74,3.31,9.93-8.6,15.35-13.44,23.85-22.03-.45.24-.9.43-1.34.56-1.8.51-2.13-.81-1.03-3.91Z" style="fill: #abdcf0;"></path>
        <path d="m170.18,241.9c1.01-.9,2.19-1.84,3.54-2.77.28-.19.57-.38.85-.57.37-.25.75-.49,1.15-.74.3-.18.6-.37.92-.56.53-.32,1.09-.64,1.65-.95.15-.08.29-.16.44-.24.91-.5,1.85-.99,2.84-1.48,1.44-.7,3-1.38,4.6-2.03.35-.15.68-.29,1.04-.44-10.88.55-17.79-4.56-18.54-13.7-4.23,6.1-11.87,10.17-20.2,10.81,12.76,4.21,18.73,10.12,20.06,14.26.14-.14.3-.29.44-.43.32-.33.67-.67,1.05-1.01.05-.05.11-.1.16-.15Z" style="fill: #a2d3f3;"></path>
        <path d="m184.84,170.17c-.11-.01-.21-.03-.32-.04-.54-.08-1.08-.19-1.61-.31-4.52-.99-8.71-3.29-12.04-6.79-.86-.91-1.68-1.86-2.42-2.93-.13-.19-.24-.38-.35-.57-.09-.14-.2-.27-.29-.41-.03.21-.06.43-.09.61-.52,2.96-3.92,18.16-19.6,26.21.31.03.69.06,1.11.11,2.12.21,4.11.62,5.97,1.2.2.06.4.13.61.2.43.14.85.29,1.26.45.43.17.86.34,1.3.54.26.12.52.25.78.37.32.15.63.31.95.49.27.14.53.29.79.44.27.16.53.32.8.49.3.19.59.37.88.57.18.12.36.26.54.39.36.26.71.53,1.05.8.09.07.18.15.27.23.41.34.81.69,1.18,1.05.13.12.25.25.37.38.3.3.6.6.88.91.55.6,1.09,1.23,1.61,1.91.44-10.29,6.51-19.99,16.36-26.3Z" style="fill: #aed9c9;"></path>
        <path d="m226.94,200.22c-1.25,1.16-2.54,2.23-3.84,3.19,10.38-3.3,11.29-.22,11.6.85,1.8-3.91,3.58-7.03,7.39-13.25.52-.87,1.06-1.75,1.63-2.67.82-1.33,1.65-2.67,2.47-4-5.69,6.85-9.11,6.41-10.38,4.25-1.91,3.89-4.92,7.96-8.88,11.64Z" style="fill: #abdcf0;"></path>
        <path d="m218.77,206.23c-6.5,3.67-12.82,4.73-16.73,2.55.06,2.88-.68,13.12-13.1,22.69.15-.05.3-.1.45-.15,1.66-.59,3.34-1.14,5-1.63.23-.07.46-.13.68-.2.48-.14.96-.27,1.44-.4.45-.12.9-.23,1.34-.34.17-.04.34-.08.51-.12,1.61-.39,3.15-.69,4.6-.91.35-.05.7-.11,1.05-.15.26-.03.52-.07.77-.09.45-.05.88-.09,1.3-.12.21-.01.42-.03.63-.04.24-.01.46-.02.69-.02.35,0,.71-.03,1.04-.03-1.24-4.22,2.6-12.02,10.33-21.04Z" style="fill: #a2d3f3;"></path>
        <path d="m200.3,207.44c-3.06-3.29-2.5-9.2.84-15.43-6.26,4.56-18.85,10.68-31.79,5.78.18.33.44.75.61,1.08.3.58.58,1.23.84,1.91.14.36.28.72.39,1.08.01.03.02.06.03.1.14.46.27.93.38,1.42,0,.03.02.06.02.09.02.11.04.21.06.32.06.31.11.62.16.94.71,4.57-.24,8.79-2.35,12.39,13.3-8.24,26.63-9.22,31.23-9.29-.14-.13-.3-.24-.44-.39Z" style="fill: #aed9c9;"></path>
        <path d="m203.73,165.11c-2.91,2.18-6.08,3.67-9.32,4.5-.47.12-.95.2-1.42.29-1,.2-2.01.34-3.02.42,5.94,3.62,12.28,10.1,12.14,20.01,1.86-3.03,4.35-6.09,7.39-8.92,2.64-2.45,5.43-4.47,8.19-6.02-6.27-1.36-10.04-6.46-10.27-13.64h0c-1.11,1.21-2.34,2.34-3.7,3.36Z" style="fill: #aed9c9;"></path>
        <path d="m254.44,170.23c-2.8,5.08-4.36,7.79-8.07,13.83-.05.09-.11.18-.16.27-.82,1.33-1.65,2.67-2.47,4-.57.92-1.11,1.81-1.63,2.67-4.49,7.4-7.31,12.76-8.49,16.08-1.1,3.1-.77,4.42,1.03,3.91.44-.13.89-.33,1.34-.56,10.42-5.41,23.83-38.82,21.27-44.27-.63.24-.72.27-2.8,4.06Z" style="fill: #00b5ca;"></path>
        <path d="m212.86,229.16s-.02-.08-.04-.12c-.02-.05-.03-.1-.05-.14-.04-.09-.13-.15-.19-.23-.07-.09-.13-.18-.21-.26-.08-.08-.18-.14-.28-.21-.13-.1-.26-.19-.42-.27-.08-.04-.17-.06-.25-.1-.22-.09-.44-.18-.69-.24-.01,0-.02,0-.03,0-.89-.23-2.02-.31-3.3-.29-.23,0-.45,0-.69.02-.2,0-.42.03-.63.04-.42.03-.86.07-1.3.12-.25.03-.51.06-.77.09-.34.04-.69.1-1.05.15-1.45.23-3,.53-4.6.91-.17.04-.34.08-.51.12-.44.11-.88.22-1.34.34-.48.13-.96.26-1.44.4-.23.07-.45.13-.68.2-1.67.49-3.35,1.04-5,1.63-.5.18-1,.36-1.49.55-.59.23-1.15.47-1.73.7-1.6.66-3.16,1.33-4.6,2.03-.99.48-1.93.98-2.84,1.48-.15.08-.29.16-.44.24-.57.31-1.12.63-1.65.95-.31.19-.62.37-.92.56-.4.25-.78.5-1.15.74-.28.19-.58.38-.85.57-1.35.94-2.53,1.87-3.54,2.77-.06.05-.11.1-.16.15-.37.34-.72.68-1.05,1.01-3.11,3.23-3.67,5.96-.65,7.03,9.36,3.33,38.32-9.4,43.8-17.63.82-1.22,1.11-2.35.74-3.31Z" style="fill: #004f97;"></path>
        <path d="m168.68,218.42c.29-.42.57-.86.83-1.3,2.11-3.6,3.05-7.82,2.35-12.39-.05-.32-.1-.63-.16-.94-.02-.11-.03-.21-.06-.32,0-.03-.02-.06-.02-.09-.11-.49-.24-.96-.38-1.42-.01-.03-.02-.06-.03-.1-.12-.36-.25-.72-.39-1.08-.87-2.16-2.19-4.29-3.94-6.23-.28-.31-.58-.61-.88-.91-.13-.12-.25-.26-.37-.38-.38-.36-.78-.71-1.18-1.05-.09-.08-.18-.16-.27-.23-.34-.28-.69-.54-1.05-.8-.18-.13-.36-.26-.54-.39-.28-.2-.58-.39-.88-.57-.27-.17-.53-.34-.8-.49-.26-.15-.52-.3-.79-.44-.32-.17-.63-.33-.95-.49-.26-.13-.52-.26-.78-.37-.44-.2-.87-.38-1.3-.54-.41-.16-.83-.31-1.26-.45-.2-.07-.41-.14-.61-.2-1.86-.58-3.85-.99-5.97-1.2-.62-.06-1.24-.12-1.88-.15-.31,0-.6,0-.89,0-3.34-.01-5.66.48-6.46.64-6.91,1.48-12.14,4.99-15.44,9.41-6.64,8.9-5.43,21.52,5.92,28.81,5.66,3.64,12.01,4.95,18,4.49,8.33-.64,15.97-4.71,20.2-10.81Z" style="fill: #004f97;"></path>
        <path d="m36.43,174.72c.09.07.18.13.27.19.04.02.07.05.11.08,0,0,0,0,.01,0,.04.02.08.04.12.06.12.06.25.11.36.13.04,0,.07.02.11.03,0,0,.02,0,.02,0,.13.02.26.01.38-.02h0s.04-.02.07-.02c0,0,0,0,0,0h0c.13-.05.25-.11.36-.21h0s.03-.03.04-.04c0,0,0,0,0-.01.04-.04.07-.09.1-.14.03-.04.07-.08.1-.12.03-.04.06-.07.09-.12,0,0,0,0,0,0,0,0,0,0,0,0,.01-.02.03-.03.04-.05,0-.01,0-.03.01-.04h0s0,0,0,0c.02-.03.02-.07.04-.1.1-.19.18-.39.24-.61,0,0,0,0,0-.01.02-.06.04-.13.05-.19,0,0,0,0,0,0,.07-.28.12-.58.16-.89,0-.01,0-.02,0-.04.08-.7.09-1.46.1-2.22-.03-.86-.12-1.88-.27-3-.03-.21-.06-.43-.09-.65-.14-.9-.32-1.87-.55-2.89-.16-.73-.35-1.49-.56-2.26-.03-.11-.06-.23-.09-.34,0,0,0-.01,0-.02-.02-.06-.04-.13-.06-.19-.08-.27-.16-.54-.24-.81-.42-1.41-.92-2.85-1.5-4.31-.04-.1-.08-.19-.12-.29-.18-.44-.36-.88-.56-1.31-.07-.17-.15-.33-.23-.5-.1-.22-.19-.44-.3-.66,0-.02-.02-.04-.03-.05-1.03-2.16-2.26-4.29-3.71-6.26-.32-.41-.76-.95-1.12-1.33-.53-.59-1.52-1.56-1.98-1.51l-.03.23s0,0,0,.01c.05.52.1,1.13.15,1.73.06.62.11,1.24.17,1.78.2,1.62.32,2.66.43,3.45.17,1.32.27,1.94.52,3.43.09.49.19,1.05.29,1.62.15.86.32,1.74.47,2.48.02.1.04.19.07.29.04.17.08.33.11.5.1.45.2.9.3,1.33,0,.03.02.07.02.1.81,3.38,1.78,6.26,2.76,8.54.02.05.04.11.07.16.08.19.17.38.26.56.11.24.22.48.34.71.07.14.14.28.21.41.17.33.35.66.52.95,0,.01.01.03.02.04.13.22.26.41.38.6.07.11.14.23.21.33.02.03.04.06.06.09.17.24.33.45.5.64.02.03.04.06.07.08,0,0,0,0,0,0,.01.01.02.02.03.03.15.17.3.32.45.45.01.02.03.03.05.05.03.02.05.05.08.07.03.03.06.04.09.07Z" style="fill: #ef7d00;"></path>
        <path d="m165.88,155.29c-.19-.51-.36-1.02-.52-1.54,0,0,0,0,0,0-2.12-6.45-1.57-13.58,1.37-19.8h0c-7.64,1.69-18.69,1.67-28.88-7.6.07.3.16.65.24,1,.02.09.04.18.06.27.03.12.06.26.09.37.09.45.18.93.25,1.42.01.08.03.16.04.24.03.16.04.32.06.49.02.14.04.28.05.43,1.07,8.38-1.2,16.02-5.39,21.85,14.64-6.01,26.89-.69,32.61,2.88Z" style="fill: #aed9c9;"></path>
        <path d="m110.59,73.05c-.38.37-.88.85-1.26,1.21-2.67,2.44-5.4,4.41-8.19,5.93-4.31,2.42-8.85,3.87-13.14,3.82,7.02,7.04,9.58,19.31,6.91,32.9,3.99-5.04,9.64-8.69,16.66-9.64,2.01-.27,4.07-.25,6.13.02.06,0,.12,0,.19,0-9.03-8.89-11.69-21.37-7.3-34.24Z" style="fill: #ffdd94;"></path>
        <path d="m115.85,42.05c.07.04.14.08.21.13.49.32.95.69,1.39,1.1.12.11.23.23.35.35.4.4.78.84,1.12,1.33.02.03.05.07.07.1.35.51.65,1.08.94,1.68.06.12.11.25.17.37.27.63.52,1.29.71,2.02,7.05-13.14,21.3-16.07,29.17-16.64-.5-.14-.95-.28-1.42-.42-5.96-1.63-10.79-4-12.73-6.97-.27-.42-.46-.82-.59-1.21,0-.01-.02-.03-.02-.04-.29.27-.67.62-.97.88-3.78,3.23-14.31,9.96-27.82,15.19.03,0,.05,0,.07,0,2.73-.1,6.35.24,9.36,2.13Z" style="fill: #ffdd94;"></path>
        <path d="m163.77,98.53c6.72,7.49,10.03,16.73,9.64,26.5h0c.56-.5,1.15-.98,1.76-1.44.97-.72,1.97-1.35,2.99-1.92.19-.1.37-.21.56-.3.64-.34,1.29-.66,1.95-.94.23-.1.47-.2.7-.3,2.64-1.05,5.36-1.63,8.08-1.77h0c-4.54-7.27-5.67-16.09-2.83-24.42-.35.24-.8.58-1.14.81-2.82,1.89-6.89,3.79-12.13,4.31-3.17.38-6.43.23-9.58-.53Z" style="fill: #aed9c9;"></path>
        <path d="m162.13,98.07c-4.8-1.5-9.26-4.46-12.67-9.19-1.93-2.69-3.23-5.46-3.98-8.23-.21.58-.44,1.27-.65,1.8-1.65,4.2-8.32,18.42-25.05,25.19.1.03.19.07.28.09,2.93.74,5.64,2.05,8.04,3.82.17.12.33.25.49.37.67.52,1.32,1.08,1.94,1.67.15.15.3.31.44.46.63.64,1.22,1.31,1.78,2.01,0,0,0,0,.01.01,2.03,2.57,3.63,5.59,4.69,8.95.02.05.04.09.05.14,2.88-13.76,12.08-23.87,24.61-27.11Z" style="fill: #ffdd94;"></path>
        <path d="m145.02,78.66c-1.49-8.41,2.08-16.46,8.7-21.15-12.81,1.54-24.7-.99-32.63-6.95.82,5.91-2.4,13.07-7.6,19.26-.62.76-1.28,1.54-2.01,2.33,12.7-4.92,24.9-2.53,33.53,6.52Z" style="fill: #ffdd94;"></path>
        <path d="m161.91,34.36c-3.29-.25-6.93-.74-10.86-1.61,10.16,7.8,6.93,18.25,4.06,23.85,4.79-2.88,10.93-4.12,17.79-2.77,1.99.39,3.99,1.03,5.96,1.88.07.03.15.05.23.08,0,0,0,0,0,0-7.04-8.34-8.38-16.53-3.57-21.49-4.09.46-8.83.46-13.6.05Z" style="fill: #ffdd94;"></path>
        <path d="m155.11,56.6c-.48.29-.94.59-1.39.91-6.62,4.7-10.19,12.74-8.7,21.15.12.66.27,1.33.45,1.99.75,2.76,2.05,5.54,3.98,8.23,3.4,4.73,7.87,7.69,12.67,9.19.54.17,1.09.33,1.64.46,3.15.76,6.41.91,9.58.53,6.91-.82,13.41-4.15,17.48-9.21.49-.61.94-1.25,1.35-1.9.04-.06.08-.12.12-.18.19-.31.37-.63.55-.95.05-.09.1-.19.15-.28.05-.09.09-.17.14-.26,0,0,0,0,0,0,.13-.27.26-.54.39-.82.05-.11.09-.22.14-.33.16-.39.32-.78.46-1.18.01-.04.02-.07.04-.11.3-.9.56-1.82.73-2.78.31-1.76.35-3.75.05-5.83,0,0,0,0,0,0-.11-.77-.28-1.55-.49-2.35-.01-.04-.02-.07-.03-.11-.03-.11-.06-.23-.09-.34,0-.03-.02-.06-.02-.09-.24-.82-.53-1.64-.88-2.46,0-.02-.02-.04-.02-.06-.03-.08-.07-.16-.11-.24-.05-.11-.09-.21-.14-.32-.3-.64-.63-1.28-1-1.92-.04-.07-.08-.14-.12-.21-.04-.06-.06-.12-.1-.17-.12-.21-.27-.41-.4-.61-.3-.46-.61-.92-.95-1.38-.05-.07-.11-.14-.17-.21-.22-.29-.44-.57-.67-.85-.2-.24-.41-.48-.62-.71-1.5-1.68-3.32-3.29-5.5-4.77-1.09-.74-2.24-1.46-3.51-2.14-.29-.14-.59-.27-.89-.4-.12-.05-.23-.11-.35-.16-1.96-.85-3.97-1.49-5.96-1.88-6.87-1.35-13.01-.11-17.79,2.77Z" style="fill: #00ab84;"></path>
        <path d="m132.23,153.77c.36-.44.7-.9,1.04-1.36,4.19-5.83,6.46-13.47,5.39-21.85-.02-.14-.03-.28-.05-.43-.02-.16-.03-.32-.06-.49-.01-.08-.03-.16-.04-.24-.1-.6-.21-1.2-.34-1.79-.02-.09-.04-.18-.06-.27-.18-.79-.4-1.55-.64-2.3-1.06-3.36-2.66-6.38-4.69-8.95,0,0,0,0-.01-.01-.56-.71-1.16-1.38-1.78-2.01-.15-.15-.29-.31-.44-.46-.62-.6-1.27-1.15-1.94-1.67-.16-.13-.33-.25-.49-.37-2.4-1.77-5.1-3.08-8.04-3.82-.45-.11-.91-.23-1.37-.32-.33-.06-.66-.09-.99-.14-2.06-.27-4.12-.29-6.13-.02-7.02.95-12.67,4.61-16.66,9.64-.45.57-.89,1.16-1.3,1.77-5.01,7.41-6.74,17.2-4.36,25.91.14.52.29,1.03.46,1.54,1.34,4.01,3.59,7.73,6.83,10.81.09.09.19.17.28.26.6.56,1.24,1.1,1.91,1.61.12.09.23.19.36.28.08.06.16.13.24.19,2.65,1.91,5.42,3.14,8.21,3.81.67.16,1.35.29,2.02.39,8.51,1.22,17.01-2.73,22.67-9.71Z" style="fill: #e30613;"></path>
        <path d="m148.57,32.07c4.1,1.12,8.73,1.9,13.34,2.29,4.77.41,9.51.4,13.6-.05,6.44-.72,11.27-2.57,12.01-5.71.37-1.56-.24-5.62-13.85-9.61-1.15-.31-2.73-.72-4.67-1.13-18.96-3.93-36.04-.64-33.77,6.03.13.39.32.8.59,1.21,1.95,2.98,6.77,5.34,12.73,6.97Z" style="fill: #fbba00;"></path>
        <path d="m58.66,102.3c.42.2.82.42,1.2.68,1.34.86,2.5,2.1,3.49,3.73.97,1.53,1.57,3,1.86,3.82.32.9.58,1.83.8,2.77,2.63-12.68,10.09-23.36,20.46-29.37-2.39-.24-4.67-.98-6.77-2.32-3.32-2.13-5.17-5.13-5.81-8.54-.18.53-.39,1.15-.57,1.63-.65,1.75-6.66,17.3-18.52,26.78.08,0,.15.02.23.02,1.3,0,2.45.28,3.47.74.05.02.11.04.16.07Z" style="fill: #ffdd94;"></path>
        <path d="m46.61,145.56c.12.06.23.13.36.19.2.09.39.15.58.22,5.01,1.91,9.57-.39,13-4.88.12-.16.25-.32.37-.49.1-.13.19-.27.29-.41.47-.68.92-1.4,1.34-2.16,1.02-1.85,1.88-3.91,2.56-6.09.09-.28.16-.55.24-.83.17-.6.33-1.21.47-1.82.14-.59.26-1.16.36-1.73.07-.35.12-.71.18-1.07.09-.61.18-1.21.24-1.8.06-.51.1-1.02.14-1.53.01-.24.03-.47.04-.7.13-2.64-.02-5.28-.48-7.81-.09-.46-.18-.92-.28-1.38-.22-.94-.48-1.87-.8-2.77-.29-.82-.89-2.29-1.86-3.82-.85-1.34-2-2.72-3.49-3.73-.38-.25-.78-.48-1.2-.68-.05-.02-.11-.05-.16-.07-1.02-.46-2.18-.73-3.47-.74-.23,0-.46-.01-.7,0-.77.11-1.73.24-2.89.7-11.85,4.66-16.58,23.32-12.04,35.01,1.44,3.71,3.83,6.71,7.21,8.34Z" style="fill: #ef7d00;"></path>
        <path d="m79.69,81.61c2.09,1.34,4.38,2.08,6.77,2.32.51.05,1.02.07,1.54.08,4.29.05,8.83-1.4,13.14-3.82,4.59-2.58,8.91-6.26,12.36-10.37,5.2-6.19,8.42-13.35,7.6-19.26-.07-.48-.16-.96-.28-1.43-.19-.73-.44-1.39-.71-2.02-.05-.13-.11-.25-.17-.37-.29-.6-.59-1.18-.94-1.68-.02-.03-.05-.07-.07-.1-.35-.49-.73-.93-1.12-1.33-.11-.12-.23-.23-.35-.35-.44-.41-.91-.78-1.39-1.1-.07-.05-.14-.09-.21-.13-3-1.9-6.63-2.24-9.36-2.13-.24,0-.49.02-.72.03-1.42.17-3.32.42-4.7.76-17.32,4.27-29.35,20.75-27.19,32.35.64,3.42,2.49,6.41,5.81,8.54Z" style="fill: #fbba00;"></path>
        <path d="m245.16,107.58c6.01-2.93,7.16-12.97,2.56-22.4-4.61-9.45-13.21-14.73-19.22-11.79-6.02,2.93-7.16,12.96-2.56,22.4,4.61,9.45,13.22,14.72,19.23,11.79Z" style="fill: #00ab84;"></path>
        <path d="m263.2,138.76c-.1-10.29-1.94-18.61-4.1-18.59-2.15.02-3.82,8.38-3.72,18.67.1,10.29,1.94,18.62,4.09,18.59,2.16-.02,3.83-8.38,3.72-18.67Z" style="fill: #00b5ca;"></path>
        <path d="m38.07,92.28c1.85,1.1,7.62-5.16,12.9-14,5.27-8.84,8.04-16.9,6.19-18.01-1.85-1.11-7.63,5.17-12.9,14-5.27,8.84-8.04,16.89-6.19,18Z" style="fill: #fbba00;"></path>
        <path d="m91.17,235.13c-9.48-5.22-17.69-8.48-18.34-7.3-.66,1.18,6.5,6.37,15.98,11.59,9.49,5.22,17.69,8.48,18.34,7.3.65-1.18-6.5-6.37-15.98-11.59Z" style="fill: #e30613;"></path>
        <path d="m202.1,190.33c-.35.56-.66,1.12-.96,1.69-3.34,6.22-3.9,12.13-.84,15.43.13.14.29.26.44.39.4.36.83.68,1.31.95,3.9,2.18,10.23,1.13,16.73-2.55,1.45-.82,2.9-1.75,4.33-2.82,1.3-.97,2.59-2.03,3.84-3.19,3.96-3.67,6.97-7.74,8.88-11.64,2.86-5.84,3.21-11.28.32-14.4-3.53-3.8-10.88-3.07-18.45,1.2-2.76,1.56-5.55,3.57-8.19,6.02-3.04,2.82-5.54,5.88-7.39,8.92Z" style="fill: #00b5ca;"></path>
        <path d="m181.38,120.13c-.23.09-.47.2-.7.3-.66.28-1.31.6-1.95.94-.19.1-.37.2-.56.3-1.02.58-2.03,1.2-2.99,1.92-.61.46-1.2.94-1.76,1.44h0c-1.59,1.42-2.99,3-4.19,4.68-.86,1.21-1.64,2.48-2.28,3.79-.07.14-.13.29-.2.44h0c-2.95,6.22-3.49,13.35-1.37,19.8,0,0,0,0,0,0,.62,1.89,1.46,3.73,2.55,5.46.06.1.12.2.18.3,0,0,0,0,0,0,.11.19.23.39.35.57.73,1.07,1.55,2.02,2.42,2.93,3.33,3.5,7.52,5.8,12.04,6.79.53.12,1.07.23,1.61.31.11.02.21.03.32.04h0c.06,0,.13.02.19.02.68.09,1.35.16,2.04.19.97.04,1.94.02,2.91-.06h0c1.01-.08,2.01-.22,3.02-.42.47-.09.94-.17,1.42-.29,3.24-.83,6.42-2.32,9.32-4.5,1.36-1.02,2.58-2.15,3.7-3.36h0c2.21-2.39,3.94-5.11,5.18-8.01,3.47-8.15,2.98-17.67-2.16-25.14-4.7-6.83-12.21-10.36-19.97-10.28-.34,0-.68.02-1.02.03h0c-2.71.14-5.44.72-8.08,1.77Z" style="fill: #00ab84;"></path>
      </g>
    </g>
  </g>
</svg>
