<svg width="40" height="40" viewBox="0 0 40 40" fill="none" xmlns="http://www.w3.org/2000/svg">
<rect x="0.5" y="0.5" width="39" height="39" rx="19.5" stroke="#29223E"/>
<g clip-path="url(#clip0_2006_357)">
<path d="M20 10.4165C14.475 10.4165 10 14.8165 10 20.2432C10 24.5857 12.865 28.2682 16.8375 29.5665C17.3375 29.659 17.5208 29.3548 17.5208 29.094C17.5208 28.8607 17.5125 28.2423 17.5083 27.4232C14.7267 28.0157 14.14 26.1048 14.14 26.1048C13.685 24.9707 13.0275 24.6673 13.0275 24.6673C12.1217 24.0582 13.0975 24.0707 13.0975 24.0707C14.1017 24.139 14.6292 25.0832 14.6292 25.0832C15.5208 26.5857 16.97 26.1515 17.5417 25.9007C17.6317 25.2648 17.8892 24.8323 18.175 24.5865C15.9542 24.3407 13.62 23.4957 13.62 19.7307C13.62 18.6582 14.0075 17.7815 14.6492 17.094C14.5367 16.8457 14.1992 15.8465 14.7367 14.4932C14.7367 14.4932 15.5742 14.2298 17.4867 15.5007C18.2867 15.2823 19.1367 15.174 19.9867 15.169C20.8367 15.174 21.6867 15.2823 22.4867 15.5007C24.3867 14.2298 25.2242 14.4932 25.2242 14.4932C25.7617 15.8465 25.4242 16.8457 25.3242 17.094C25.9617 17.7815 26.3492 18.6582 26.3492 19.7307C26.3492 23.5057 24.0117 24.3365 21.7867 24.5782C22.1367 24.8732 22.4617 25.4757 22.4617 26.3965C22.4617 27.7115 22.4492 28.7682 22.4492 29.0873C22.4492 29.3448 22.6242 29.6523 23.1367 29.554C27.1375 28.264 30 24.579 30 20.2432C30 14.8165 25.5225 10.4165 20 10.4165Z" fill="white"/>
</g>
<defs>
<clipPath id="clip0_2006_357">
<rect width="20" height="20" fill="white" transform="translate(10 10)"/>
</clipPath>
</defs>
</svg>
