<svg width="28" height="28" viewBox="0 0 28 28" fill="none" xmlns="http://www.w3.org/2000/svg">
<g clip-path="url(#clip0_2313_74)">
<path d="M27.5536 23.6769L22.6374 18.7607L22.6371 18.7603L22.6367 18.76L20.8794 17.0026C20.2857 16.4089 19.3196 16.4087 18.7257 17.0026L18.5103 17.218L17.7681 16.4759C19.2221 14.7325 20.0982 12.4913 20.0982 10.049C20.0981 4.508 15.5901 0 10.049 0C4.50789 0 0 4.508 0 10.049C0 15.5901 4.50789 20.0981 10.049 20.0981C12.4912 20.0981 14.7325 19.222 16.4758 17.7681L17.218 18.5102L17.0025 18.7257C16.4089 19.3194 16.4089 20.2855 17.0026 20.8793L23.6768 27.5535C24.2719 28.1487 25.2354 28.1489 25.8306 27.5536L27.5536 25.8306C28.1474 25.2369 28.1474 24.2708 27.5536 23.6769ZM10.049 18.2706C5.51562 18.2706 1.82744 14.5824 1.82744 10.049C1.82744 5.51567 5.51562 1.82749 10.049 1.82749C14.5824 1.82749 18.2706 5.51567 18.2706 10.049C18.2706 14.5824 14.5824 18.2706 10.049 18.2706ZM18.5102 19.8025L19.8025 18.5103L20.6987 19.4065L19.4065 20.6987L18.5102 19.8025ZM24.7537 26.046L20.6987 21.9909L21.9909 20.6987L26.046 24.7537L24.7537 26.046Z" fill="#3276F5"/>
<path d="M10.0485 3.65503C9.54388 3.65503 9.13477 4.06415 9.13477 4.5688C9.13477 5.07346 9.54388 5.48258 10.0485 5.48258C12.5666 5.48258 14.6152 7.53101 14.6152 10.049C14.6152 10.5536 15.0243 10.9628 15.529 10.9628C16.0336 10.9628 16.4428 10.5536 16.4428 10.049C16.4428 6.52333 13.5743 3.65503 10.0485 3.65503Z" fill="#3276F5"/>
</g>
<defs>
<clipPath id="clip0_2313_74">
<rect width="28" height="28" fill="white"/>
</clipPath>
</defs>
</svg>
