<svg width="26" height="28" viewBox="0 0 26 28" fill="none" xmlns="http://www.w3.org/2000/svg">
<path d="M13 0C6.2152 0 0.695312 5.51988 0.695312 12.3047V18.9766C0.695312 20.3335 1.79929 21.4375 3.15625 21.4375H4.11766C4.45628 22.3922 5.36809 23.0781 6.4375 23.0781C7.79446 23.0781 8.89844 21.9741 8.89844 20.6172V13.9453C8.89844 12.5884 7.79446 11.4844 6.4375 11.4844C5.36809 11.4844 4.45628 12.1703 4.11766 13.125H3.15625C2.86865 13.125 2.5927 13.175 2.33594 13.2661V12.3047C2.33594 6.42452 7.11984 1.64062 13 1.64062C18.8802 1.64062 23.6641 6.42452 23.6641 12.3047V13.2661C23.4007 13.1726 23.1232 13.1249 22.8438 13.125H21.8823C21.5437 12.1703 20.6319 11.4844 19.5625 11.4844C18.2055 11.4844 17.1016 12.5884 17.1016 13.9453V20.6172C17.1016 21.9741 18.2055 23.0781 19.5625 23.0781C19.8108 23.0781 20.0506 23.0408 20.2768 22.9721C19.9699 23.9817 19.0305 24.7188 17.9219 24.7188H15.3198C14.9812 23.764 14.0694 23.0781 13 23.0781C11.643 23.0781 10.5391 24.1821 10.5391 25.5391C10.5391 26.896 11.643 28 13 28C14.0694 28 14.9812 27.3141 15.3198 26.3594H17.9219C20.1835 26.3594 22.0234 24.5194 22.0234 22.2578V21.4375H22.8438C24.2007 21.4375 25.3047 20.3335 25.3047 18.9766V12.3047C25.3047 5.51988 19.7848 0 13 0ZM5.61719 13.9453C5.61719 13.493 5.98518 13.125 6.4375 13.125C6.88982 13.125 7.25781 13.493 7.25781 13.9453V20.6172C7.25781 21.0695 6.88982 21.4375 6.4375 21.4375C5.98518 21.4375 5.61719 21.0695 5.61719 20.6172V13.9453ZM3.15625 14.7656H3.97656V19.7969H3.15625C2.70393 19.7969 2.33594 19.4289 2.33594 18.9766V15.5859C2.33594 15.1336 2.70393 14.7656 3.15625 14.7656ZM13 26.3594C12.5477 26.3594 12.1797 25.9914 12.1797 25.5391C12.1797 25.0867 12.5477 24.7188 13 24.7188C13.4523 24.7188 13.8203 25.0867 13.8203 25.5391C13.8203 25.9914 13.4523 26.3594 13 26.3594ZM20.3828 20.6172C20.3828 21.0695 20.0148 21.4375 19.5625 21.4375C19.1102 21.4375 18.7422 21.0695 18.7422 20.6172V13.9453C18.7422 13.493 19.1102 13.125 19.5625 13.125C20.0148 13.125 20.3828 13.493 20.3828 13.9453V20.6172ZM23.6641 18.9766C23.6641 19.4289 23.2961 19.7969 22.8438 19.7969H22.0234V14.7656H22.8438C23.2961 14.7656 23.6641 15.1336 23.6641 15.5859V18.9766Z" fill="#3276F5"/>
</svg>
