<svg width="28" height="28" viewBox="0 0 28 28" fill="none" xmlns="http://www.w3.org/2000/svg">
<g clip-path="url(#clip0_2216_349)">
<path d="M13.125 17.5L23.625 7" stroke="#3276F5" stroke-width="1.75" stroke-linecap="round" stroke-linejoin="round"/>
<path d="M6.17312 17.5C6.14108 17.2094 6.12501 16.9173 6.125 16.625C6.12606 15.3752 6.42431 14.1436 6.99513 13.0318C7.56596 11.92 8.39299 10.9599 9.40798 10.2307C10.423 9.50155 11.5968 9.02418 12.8327 8.83804C14.0685 8.65189 15.3309 8.7623 16.5156 9.16016" stroke="#3276F5" stroke-width="1.75" stroke-linecap="round" stroke-linejoin="round"/>
<path d="M24.1307 11.445C24.8323 12.8216 25.2472 14.3262 25.3502 15.8679C25.4533 17.4095 25.2423 18.956 24.7301 20.4137C24.6703 20.5855 24.5584 20.7345 24.41 20.8397C24.2616 20.945 24.0841 21.0014 23.9021 21.0011H4.0976C3.91532 21.0003 3.73777 20.9429 3.58947 20.8369C3.44116 20.731 3.32941 20.5815 3.26963 20.4093C2.83216 19.1654 2.61418 17.8549 2.62541 16.5364C2.67354 10.2812 7.84588 5.19418 14.1098 5.24997C15.8753 5.26414 17.6131 5.69035 19.1848 6.49465" stroke="#3276F5" stroke-width="1.75" stroke-linecap="round" stroke-linejoin="round"/>
</g>
<defs>
<clipPath id="clip0_2216_349">
<rect width="28" height="28" fill="white"/>
</clipPath>
</defs>
</svg>
