<svg width="28" height="28" viewBox="0 0 28 28" fill="none" xmlns="http://www.w3.org/2000/svg">
<g clip-path="url(#clip0_2216_399)">
<path d="M8.75026 14C8.75026 12.2694 9.26343 10.5777 10.2249 9.13876C11.1864 7.69983 12.5529 6.57832 14.1518 5.91606C15.7506 5.25379 17.51 5.08051 19.2073 5.41813C20.9046 5.75575 22.4637 6.58911 23.6874 7.81282C24.9112 9.03653 25.7445 10.5956 26.0821 12.293C26.4197 13.9903 26.2465 15.7496 25.5842 17.3485C24.9219 18.9473 23.8004 20.3139 22.3615 21.2754C20.9226 22.2368 19.2308 22.75 17.5003 22.75H7.87526C7.00677 22.7489 6.14845 22.5632 5.35724 22.2051C4.56602 21.847 3.86001 21.3247 3.28605 20.6729C2.71209 20.0211 2.2833 19.2547 2.02813 18.4246C1.77297 17.5944 1.69727 16.7195 1.80605 15.8578C1.91483 14.9962 2.2056 14.1675 2.65908 13.4268C3.11256 12.6862 3.71837 12.0504 4.43631 11.5617C5.15426 11.073 5.96792 10.7426 6.82331 10.5923C7.6787 10.4421 8.55626 10.4755 9.39776 10.6903" stroke="#3276F5" stroke-width="1.75" stroke-linecap="round" stroke-linejoin="round"/>
</g>
<defs>
<clipPath id="clip0_2216_399">
<rect width="28" height="28" fill="white"/>
</clipPath>
</defs>
</svg>
