<svg width="396" height="378" viewBox="0 0 396 378" fill="none" xmlns="http://www.w3.org/2000/svg">
<g filter="url(#filter0_dddd_2304_18)">
<rect x="22" y="11" width="300" height="335" rx="9.23077" fill="white"/>
<rect x="21.4231" y="10.4231" width="301.154" height="336.154" rx="9.80769" stroke="#E5E6EC" stroke-width="1.15385"/>
<path d="M46.0734 42.8462L45.0026 40.0216H39.2795L38.2088 42.8462H36.1411L40.978 30.2923H43.3965L48.2334 42.8462H46.0734ZM41.7719 33.5047L39.9072 38.397H44.3749L42.5103 33.5047L42.1411 32.2862L41.7719 33.5047ZM55.5041 38.7662V33.0062H57.461V42.8462H55.5041V41.517C54.8579 42.5693 53.8241 43.0862 52.5687 43.0862C50.5564 43.0862 49.301 41.9047 49.301 39.5785V33.0062H51.2764V39.1723C51.2764 40.5939 51.8671 41.4431 53.1779 41.4431C54.6179 41.4431 55.5041 40.1323 55.5041 38.7662ZM63.3736 43.0862C60.7705 43.0862 59.2013 41.1477 59.2013 37.9354C59.2013 34.5939 60.8074 32.7477 63.3736 32.7477C64.4997 32.7477 65.4228 33.2093 66.0505 34.1139V29.5539H68.0259V42.8462H66.0505V41.6462C65.4228 42.5693 64.4997 43.0862 63.3736 43.0862ZM63.6321 41.4247C65.2013 41.4247 66.0505 40.2062 66.0505 37.9354C66.0505 35.6831 65.1644 34.4093 63.6321 34.4093C62.0628 34.4093 61.2136 35.6647 61.2136 37.9354C61.2136 40.1693 62.0997 41.4247 63.6321 41.4247ZM70.2238 31.7877V29.5539H72.1992V31.7877H70.2238ZM70.2238 42.8462V33.0062H72.1992V42.8462H70.2238ZM74.6607 39.9108V34.5385H73.3314V33.0062H74.6607V30.7354H76.636V33.0062H78.7591V34.5385H76.636V39.8C76.636 40.9262 76.9499 41.4616 78.3345 41.4616H78.7222V42.9016C78.5007 43.0123 78.0391 43.0862 77.4853 43.0862C75.5653 43.0862 74.6607 42.0339 74.6607 39.9108ZM85.3258 33.3939C85.3258 36.6985 92.932 34.0954 92.932 39.2277C92.932 41.7016 90.9196 43.0862 88.1689 43.0862C85.3812 43.0862 83.4612 41.8123 82.9443 39.1908H85.1043C85.455 40.6123 86.5073 41.3877 88.1873 41.3877C89.9043 41.3877 90.8089 40.6308 90.8089 39.5047C90.8089 35.96 83.2027 38.6 83.2027 33.56C83.2027 31.677 84.7904 30.0523 87.652 30.0523C90.1258 30.0523 92.1566 31.2339 92.5996 33.9847H90.4027C90.052 32.4339 89.0735 31.7508 87.5966 31.7508C86.1566 31.7508 85.3258 32.397 85.3258 33.3939ZM100.803 38.7662V33.0062H102.76V42.8462H100.803V41.517C100.156 42.5693 99.1226 43.0862 97.8672 43.0862C95.8549 43.0862 94.5996 41.9047 94.5996 39.5785V33.0062H96.5749V39.1723C96.5749 40.5939 97.1657 41.4431 98.4765 41.4431C99.9165 41.4431 100.803 40.1323 100.803 38.7662ZM104.98 42.8462V33.0062H106.955V34.2616C107.583 33.2462 108.561 32.7477 109.724 32.7477C111.035 32.7477 112.014 33.32 112.494 34.4462C113.14 33.32 114.211 32.7477 115.503 32.7477C117.441 32.7477 118.697 33.9477 118.697 36.2739V42.8462H116.721V36.68C116.721 35.2585 116.186 34.3908 114.968 34.3908C113.638 34.3908 112.826 35.7016 112.826 37.0677V42.8462H110.851V36.68C110.851 35.2585 110.297 34.3908 109.097 34.3908C107.768 34.3908 106.955 35.7016 106.955 37.0677V42.8462H104.98ZM120.913 42.8462V33.0062H122.888V34.2616C123.516 33.2462 124.495 32.7477 125.658 32.7477C126.968 32.7477 127.947 33.32 128.427 34.4462C129.073 33.32 130.144 32.7477 131.436 32.7477C133.375 32.7477 134.63 33.9477 134.63 36.2739V42.8462H132.655V36.68C132.655 35.2585 132.119 34.3908 130.901 34.3908C129.571 34.3908 128.759 35.7016 128.759 37.0677V42.8462H126.784V36.68C126.784 35.2585 126.23 34.3908 125.03 34.3908C123.701 34.3908 122.888 35.7016 122.888 37.0677V42.8462H120.913ZM138.711 36.2185H136.735C137.049 34.04 138.545 32.7477 141 32.7477C143.677 32.7477 145.006 34.317 145.006 36.6062V40.4462C145.006 41.6277 145.117 42.3108 145.338 42.8462H143.271C143.123 42.477 143.068 41.96 143.049 41.4062C142.218 42.5693 140.945 43.0862 139.763 43.0862C137.769 43.0862 136.403 42.1447 136.403 40.2616C136.403 38.9139 137.142 37.917 138.618 37.4185C139.929 36.9754 141.258 36.8647 143.031 36.8462V36.6247C143.031 35.1847 142.366 34.4093 140.852 34.4093C139.578 34.4093 138.895 35.1108 138.711 36.2185ZM138.397 40.1877C138.397 41.0185 139.08 41.5354 140.132 41.5354C141.775 41.5354 143.031 40.2247 143.031 38.637V38.1939C139.246 38.2308 138.397 39.0616 138.397 40.1877ZM147.299 42.8462V33.0062H149.274V34.4647C149.92 33.2831 150.936 32.7477 152.08 32.7477C152.468 32.7477 152.837 32.84 153.022 33.0062V34.7416C152.726 34.6493 152.376 34.6123 151.969 34.6123C150.086 34.6123 149.274 35.757 149.274 37.4739V42.8462H147.299ZM154.883 47.1477C154.458 47.1477 154.015 47.037 153.794 46.9631V45.4493H154.329C155.455 45.4493 155.88 45.2277 156.729 43.1785L157.024 42.4954L153.074 33.0062H155.197L157.634 39.1354L158.058 40.4831L158.483 39.1354L160.846 33.0062H162.858L158.391 43.9908C157.394 46.4462 156.637 47.1477 154.883 47.1477Z" fill="#313131"/>
<g filter="url(#filter1_i_2304_18)">
<rect x="35.8457" y="61.6924" width="270" height="75" rx="6.92308" fill="#F7F8FA" fill-opacity="0.35"/>
<rect x="36.4226" y="62.2693" width="268.846" height="73.8462" rx="6.34615" stroke="#E5E6EC" stroke-width="1.15385"/>
<path d="M48.8677 88.6924V79.1724H52.2557C54.4817 79.1724 55.8537 80.3344 55.8537 82.2384C55.8537 84.1844 54.4537 85.3184 52.2837 85.3184H50.4357V88.6924H48.8677ZM52.2417 80.4324H50.4357V84.0584H52.1997C53.5157 84.0584 54.2437 83.3584 54.2437 82.2524C54.2437 81.1464 53.5017 80.4324 52.2417 80.4324ZM57.4406 88.6924V81.2304H58.9386V82.3364C59.4286 81.4404 60.1986 81.0344 61.0666 81.0344C61.3606 81.0344 61.6406 81.1044 61.7806 81.2304V82.5464C61.5566 82.4764 61.2906 82.4484 60.9826 82.4484C59.5546 82.4484 58.9386 83.3164 58.9386 84.6184V88.6924H57.4406ZM65.9253 88.8744C63.7553 88.8744 62.4393 87.4044 62.4393 84.9684C62.4393 82.4344 63.7973 81.0344 65.9253 81.0344C68.0953 81.0344 69.4113 82.5324 69.4113 84.9684C69.4113 87.4884 68.0533 88.8744 65.9253 88.8744ZM65.9253 87.6144C67.1993 87.6144 67.8853 86.6904 67.8853 84.9684C67.8853 83.2604 67.1853 82.2944 65.9253 82.2944C64.6653 82.2944 63.9653 83.2324 63.9653 84.9684C63.9653 86.6624 64.6653 87.6144 65.9253 87.6144ZM71.0097 80.3064V78.6124H72.5077V80.3064H71.0097ZM72.5077 89.5604C72.5077 91.1844 71.8077 91.9684 70.4077 91.9684C70.0437 91.9684 69.7637 91.8984 69.6237 91.8284V90.7364H69.7497C70.7577 90.7364 71.0097 90.3304 71.0097 89.4764V81.2304H72.5077V89.5604ZM81.0803 86.2564C80.6743 87.9924 79.3863 88.8744 77.6363 88.8744C75.4383 88.8744 74.0943 87.4044 74.0943 84.9684C74.0943 82.4344 75.4383 81.0344 77.5663 81.0344C79.7223 81.0344 81.0243 82.4904 81.0243 84.8844V85.2484H75.6203C75.7043 86.7744 76.4183 87.6284 77.6363 87.6284C78.5883 87.6284 79.2603 87.1804 79.5123 86.2564H81.0803ZM77.5663 82.2804C76.4883 82.2804 75.8443 82.9664 75.6623 84.2264H79.4703C79.2883 82.9664 78.6303 82.2804 77.5663 82.2804ZM88.9787 83.8344H87.4807C87.2987 82.7704 86.6127 82.2944 85.7447 82.2944C84.4987 82.2944 83.8267 83.2464 83.8267 84.9684C83.8267 86.6624 84.5267 87.6284 85.7867 87.6284C86.6827 87.6284 87.3127 87.1384 87.5367 86.1864H89.0207C88.6987 88.0484 87.4107 88.8744 85.7587 88.8744C83.6027 88.8744 82.3007 87.3904 82.3007 84.9684C82.3007 82.4344 83.6307 81.0344 85.7447 81.0344C87.4107 81.0344 88.7267 81.9724 88.9787 83.8344ZM90.7526 86.4664V82.3924H89.7446V81.2304H90.7526V79.5084H92.2506V81.2304H93.8606V82.3924H92.2506V86.3824C92.2506 87.2364 92.4886 87.6424 93.5386 87.6424H93.8326V88.7344C93.6646 88.8184 93.3146 88.8744 92.8946 88.8744C91.4386 88.8744 90.7526 88.0764 90.7526 86.4664ZM104.437 88.6924L103.625 86.5504H99.2845L98.4725 88.6924H96.9045L100.573 79.1724H102.407L106.075 88.6924H104.437ZM101.175 81.6084L99.7605 85.3184H103.149L101.735 81.6084L101.455 80.6844L101.175 81.6084ZM111.868 85.5984V81.2304H113.352V88.6924H111.868V87.6844C111.378 88.4824 110.594 88.8744 109.642 88.8744C108.116 88.8744 107.164 87.9784 107.164 86.2144V81.2304H108.662V85.9064C108.662 86.9844 109.11 87.6284 110.104 87.6284C111.196 87.6284 111.868 86.6344 111.868 85.5984ZM118.116 88.8744C116.142 88.8744 114.952 87.4044 114.952 84.9684C114.952 82.4344 116.17 81.0344 118.116 81.0344C118.97 81.0344 119.67 81.3844 120.146 82.0704V78.6124H121.644V88.6924H120.146V87.7824C119.67 88.4824 118.97 88.8744 118.116 88.8744ZM118.312 87.6144C119.502 87.6144 120.146 86.6904 120.146 84.9684C120.146 83.2604 119.474 82.2944 118.312 82.2944C117.122 82.2944 116.478 83.2464 116.478 84.9684C116.478 86.6624 117.15 87.6144 118.312 87.6144ZM123.591 80.3064V78.6124H125.089V80.3064H123.591ZM123.591 88.6924V81.2304H125.089V88.6924H123.591ZM127.235 86.4664V82.3924H126.227V81.2304H127.235V79.5084H128.733V81.2304H130.343V82.3924H128.733V86.3824C128.733 87.2364 128.971 87.6424 130.021 87.6424H130.315V88.7344C130.147 88.8184 129.797 88.8744 129.377 88.8744C127.921 88.8744 127.235 88.0764 127.235 86.4664ZM138.231 86.2564C137.825 87.9924 136.537 88.8744 134.787 88.8744C132.589 88.8744 131.245 87.4044 131.245 84.9684C131.245 82.4344 132.589 81.0344 134.717 81.0344C136.873 81.0344 138.175 82.4904 138.175 84.8844V85.2484H132.771C132.855 86.7744 133.569 87.6284 134.787 87.6284C135.739 87.6284 136.411 87.1804 136.663 86.2564H138.231ZM134.717 82.2804C133.639 82.2804 132.995 82.9664 132.813 84.2264H136.621C136.439 82.9664 135.781 82.2804 134.717 82.2804ZM142.615 88.8744C140.641 88.8744 139.451 87.4044 139.451 84.9684C139.451 82.4344 140.669 81.0344 142.615 81.0344C143.469 81.0344 144.169 81.3844 144.645 82.0704V78.6124H146.143V88.6924H144.645V87.7824C144.169 88.4824 143.469 88.8744 142.615 88.8744ZM142.811 87.6144C144.001 87.6144 144.645 86.6904 144.645 84.9684C144.645 83.2604 143.973 82.2944 142.811 82.2944C141.621 82.2944 140.977 83.2464 140.977 84.9684C140.977 86.6624 141.649 87.6144 142.811 87.6144Z" fill="#6E7180"/>
<path d="M50.6837 119.692V117.866H53.3677V108.582H50.6837V106.778H52.1137C53.4117 106.778 53.7637 106.47 53.7637 105.788V105.546H55.8317V117.866H58.4937V119.692H50.6837ZM61.5555 119.692V119.076C61.5555 112.74 69.2335 113.18 69.2335 109.594C69.2335 108.12 68.3535 107.24 66.7695 107.24C65.0315 107.24 64.1735 108.142 63.9095 109.638H61.5115C61.8855 106.932 63.7555 105.26 66.7915 105.26C69.9815 105.26 71.6095 107.152 71.6095 109.572C71.6095 113.994 64.9435 114.148 63.9755 117.866H71.7195V119.692H61.5555ZM79.0933 119.978C75.5513 119.978 73.5053 117.25 73.5053 112.63C73.5053 107.9 75.5953 105.26 79.0933 105.26C82.6133 105.26 84.6593 107.988 84.6593 112.63C84.6593 117.36 82.5693 119.978 79.0933 119.978ZM79.0933 117.976C81.1393 117.976 82.2613 116.084 82.2613 112.63C82.2613 109.198 81.1173 107.262 79.0933 107.262C77.0473 107.262 75.9033 109.154 75.9033 112.63C75.9033 116.018 77.0473 117.976 79.0933 117.976ZM87.171 113.598V111.75H90.603V108.318H92.495V111.75H95.905V113.598H92.495V117.052H90.603V113.598H87.171Z" fill="#313131"/>
</g>
<g filter="url(#filter2_i_2304_18)">
<rect x="35.8457" y="150.539" width="270" height="75" rx="6.92308" fill="#F7F8FA" fill-opacity="0.35"/>
<rect x="36.4226" y="151.115" width="268.846" height="73.8462" rx="6.34615" stroke="#E5E6EC" stroke-width="1.15385"/>
<path d="M48.8677 177.539V168.019H50.4357V177.539H48.8677ZM52.5051 177.539V170.077H54.0031V171.071C54.5071 170.273 55.2911 169.881 56.2571 169.881C57.8111 169.881 58.7771 170.791 58.7771 172.555V177.539H57.2931V172.863C57.2931 171.785 56.8171 171.127 55.7951 171.127C54.6751 171.127 54.0031 172.121 54.0031 173.157V177.539H52.5051ZM63.5388 177.721C61.5648 177.721 60.3748 176.251 60.3748 173.815C60.3748 171.281 61.5928 169.881 63.5388 169.881C64.3928 169.881 65.0928 170.231 65.5688 170.917V167.459H67.0668V177.539H65.5688V176.629C65.0928 177.329 64.3928 177.721 63.5388 177.721ZM63.7348 176.461C64.9248 176.461 65.5688 175.537 65.5688 173.815C65.5688 172.107 64.8968 171.141 63.7348 171.141C62.5448 171.141 61.9008 172.093 61.9008 173.815C61.9008 175.509 62.5728 176.461 63.7348 176.461ZM73.7176 174.445V170.077H75.2016V177.539H73.7176V176.531C73.2276 177.329 72.4436 177.721 71.4916 177.721C69.9656 177.721 69.0136 176.825 69.0136 175.061V170.077H70.5116V174.753C70.5116 175.831 70.9596 176.475 71.9536 176.475C73.0456 176.475 73.7176 175.481 73.7176 174.445ZM78.3553 172.037C78.3553 173.941 83.1293 172.345 83.1293 175.383C83.1293 176.797 81.8553 177.721 80.0493 177.721C78.2433 177.721 76.9693 176.881 76.6893 175.103H78.1873C78.3413 176.041 79.0413 176.559 80.0913 176.559C81.0993 176.559 81.6313 176.111 81.6313 175.481C81.6313 173.619 76.9273 175.187 76.9273 172.121C76.9273 170.959 77.8373 169.881 79.7273 169.881C81.3933 169.881 82.6253 170.651 82.8633 172.513H81.3653C81.1973 171.463 80.6093 171.071 79.6573 171.071C78.8313 171.071 78.3553 171.477 78.3553 172.037ZM84.8294 175.313V171.239H83.8214V170.077H84.8294V168.355H86.3274V170.077H87.9374V171.239H86.3274V175.229C86.3274 176.083 86.5654 176.489 87.6154 176.489H87.9094V177.581C87.7414 177.665 87.3914 177.721 86.9714 177.721C85.5154 177.721 84.8294 176.923 84.8294 175.313ZM89.2031 177.539V170.077H90.7011V171.183C91.1911 170.287 91.9611 169.881 92.8291 169.881C93.1231 169.881 93.4031 169.951 93.5431 170.077V171.393C93.3191 171.323 93.0531 171.295 92.7451 171.295C91.3171 171.295 90.7011 172.163 90.7011 173.465V177.539H89.2031ZM94.7025 169.153V167.459H96.2005V169.153H94.7025ZM94.7025 177.539V170.077H96.2005V177.539H94.7025ZM104.773 175.103C104.367 176.839 103.079 177.721 101.329 177.721C99.1311 177.721 97.7871 176.251 97.7871 173.815C97.7871 171.281 99.1311 169.881 101.259 169.881C103.415 169.881 104.717 171.337 104.717 173.731V174.095H99.3131C99.3971 175.621 100.111 176.475 101.329 176.475C102.281 176.475 102.953 176.027 103.205 175.103H104.773ZM101.259 171.127C100.181 171.127 99.5371 171.813 99.3551 173.073H103.163C102.981 171.813 102.323 171.127 101.259 171.127ZM107.547 172.037C107.547 173.941 112.321 172.345 112.321 175.383C112.321 176.797 111.047 177.721 109.241 177.721C107.435 177.721 106.161 176.881 105.881 175.103H107.379C107.533 176.041 108.233 176.559 109.283 176.559C110.291 176.559 110.823 176.111 110.823 175.481C110.823 173.619 106.119 175.187 106.119 172.121C106.119 170.959 107.029 169.881 108.919 169.881C110.585 169.881 111.817 170.651 112.055 172.513H110.557C110.389 171.463 109.801 171.071 108.849 171.071C108.023 171.071 107.547 171.477 107.547 172.037ZM118.1 170.371C118.1 172.877 123.868 170.903 123.868 174.795C123.868 176.671 122.342 177.721 120.256 177.721C118.142 177.721 116.686 176.755 116.294 174.767H117.932C118.198 175.845 118.996 176.433 120.27 176.433C121.572 176.433 122.258 175.859 122.258 175.005C122.258 172.317 116.49 174.319 116.49 170.497C116.49 169.069 117.694 167.837 119.864 167.837C121.74 167.837 123.28 168.733 123.616 170.819H121.95C121.684 169.643 120.942 169.125 119.822 169.125C118.73 169.125 118.1 169.615 118.1 170.371ZM132.034 175.103C131.628 176.839 130.34 177.721 128.59 177.721C126.392 177.721 125.048 176.251 125.048 173.815C125.048 171.281 126.392 169.881 128.52 169.881C130.676 169.881 131.978 171.337 131.978 173.731V174.095H126.574C126.658 175.621 127.372 176.475 128.59 176.475C129.542 176.475 130.214 176.027 130.466 175.103H132.034ZM128.52 171.127C127.442 171.127 126.798 171.813 126.616 173.073H130.424C130.242 171.813 129.584 171.127 128.52 171.127ZM133.619 177.539V170.077H135.117V171.183C135.607 170.287 136.377 169.881 137.245 169.881C137.539 169.881 137.819 169.951 137.959 170.077V171.393C137.735 171.323 137.469 171.295 137.161 171.295C135.733 171.295 135.117 172.163 135.117 173.465V177.539H133.619ZM141.008 177.539L138.264 170.077H139.874L141.792 175.621L141.974 176.335L142.156 175.621L144.06 170.077H145.586L142.842 177.539H141.008ZM153.277 175.103C152.871 176.839 151.583 177.721 149.833 177.721C147.635 177.721 146.291 176.251 146.291 173.815C146.291 171.281 147.635 169.881 149.763 169.881C151.919 169.881 153.221 171.337 153.221 173.731V174.095H147.817C147.901 175.621 148.615 176.475 149.833 176.475C150.785 176.475 151.457 176.027 151.709 175.103H153.277ZM149.763 171.127C148.685 171.127 148.041 171.813 147.859 173.073H151.667C151.485 171.813 150.827 171.127 149.763 171.127ZM157.661 177.721C155.687 177.721 154.497 176.251 154.497 173.815C154.497 171.281 155.715 169.881 157.661 169.881C158.515 169.881 159.215 170.231 159.691 170.917V167.459H161.189V177.539H159.691V176.629C159.215 177.329 158.515 177.721 157.661 177.721ZM157.857 176.461C159.047 176.461 159.691 175.537 159.691 173.815C159.691 172.107 159.019 171.141 157.857 171.141C156.667 171.141 156.023 172.093 156.023 173.815C156.023 175.509 156.695 176.461 157.857 176.461Z" fill="#6E7180"/>
<path d="M54.2697 208.825C51.0357 208.825 48.9017 207.197 48.9017 204.601C48.9017 202.995 49.7597 201.829 51.1897 201.169C50.0457 200.509 49.3857 199.453 49.3857 198.089C49.3857 195.691 51.3657 194.107 54.2697 194.107C57.1957 194.107 59.1757 195.603 59.1757 198.089C59.1757 199.453 58.4717 200.531 57.3057 201.169C58.7797 201.851 59.6377 203.061 59.6377 204.579C59.6377 207.241 57.5037 208.825 54.2697 208.825ZM54.2697 196.021C52.7297 196.021 51.6957 196.835 51.6957 198.177C51.6957 199.585 52.7077 200.377 54.2697 200.377C55.8097 200.377 56.8657 199.541 56.8657 198.199C56.8657 196.813 55.8537 196.021 54.2697 196.021ZM54.2697 206.911C56.0957 206.911 57.2837 206.031 57.2837 204.469C57.2837 202.929 56.0517 202.027 54.2697 202.027C52.4657 202.027 51.2557 202.907 51.2557 204.491C51.2557 205.987 52.4657 206.911 54.2697 206.911ZM62.2595 202.445V200.597H65.6915V197.165H67.5835V200.597H70.9935V202.445H67.5835V205.899H65.6915V202.445H62.2595Z" fill="#313131"/>
</g>
<g filter="url(#filter3_i_2304_18)">
<rect x="35.8457" y="239.385" width="270" height="75" rx="6.92308" fill="#F7F8FA" fill-opacity="0.35"/>
<rect x="36.4226" y="239.962" width="268.846" height="73.8462" rx="6.34615" stroke="#E5E6EC" stroke-width="1.15385"/>
<path d="M55.6017 266.385L54.7897 264.243H50.4497L49.6377 266.385H48.0697L51.7377 256.865H53.5717L57.2397 266.385H55.6017ZM52.3397 259.301L50.9257 263.011H54.3137L52.8997 259.301L52.6197 258.377L52.3397 259.301ZM59.6588 266.385L56.9148 258.923H58.5248L60.4428 264.467L60.6248 265.181L60.8068 264.467L62.7108 258.923H64.2368L61.4928 266.385H59.6588ZM67.9932 266.427C66.0892 266.427 64.9412 264.971 64.9412 262.591C64.9412 260.099 66.1172 258.727 67.9932 258.727C68.9452 258.727 69.6592 259.063 70.1352 259.707V258.923H71.6332V266.623C71.6332 268.667 70.2752 269.661 68.4832 269.661C66.6912 269.661 65.4032 268.821 65.1372 267.085H66.6352C66.7752 267.981 67.4892 268.457 68.4692 268.457C69.4632 268.457 70.1352 267.939 70.1352 266.651V265.391C69.6312 266.077 68.9032 266.427 67.9932 266.427ZM68.3012 265.167C69.4912 265.167 70.1352 264.257 70.1352 262.577C70.1352 260.939 69.4632 259.987 68.3012 259.987C67.1112 259.987 66.4672 260.897 66.4672 262.591C66.4672 264.229 67.1252 265.167 68.3012 265.167ZM73.4677 266.385V264.663H75.2037V266.385H73.4677ZM86.3525 266.385L85.5405 264.243H81.2005L80.3885 266.385H78.8205L82.4885 256.865H84.3225L87.9905 266.385H86.3525ZM83.0905 259.301L81.6765 263.011H85.0645L83.6505 259.301L83.3705 258.377L83.0905 259.301ZM93.7841 263.291V258.923H95.2681V266.385H93.7841V265.377C93.2941 266.175 92.5101 266.567 91.5581 266.567C90.0321 266.567 89.0801 265.671 89.0801 263.907V258.923H90.5781V263.599C90.5781 264.677 91.0261 265.321 92.0201 265.321C93.1121 265.321 93.7841 264.327 93.7841 263.291ZM100.032 266.567C98.0578 266.567 96.8678 265.097 96.8678 262.661C96.8678 260.127 98.0858 258.727 100.032 258.727C100.886 258.727 101.586 259.077 102.062 259.763V256.305H103.56V266.385H102.062V265.475C101.586 266.175 100.886 266.567 100.032 266.567ZM100.228 265.307C101.418 265.307 102.062 264.383 102.062 262.661C102.062 260.953 101.39 259.987 100.228 259.987C99.0378 259.987 98.3938 260.939 98.3938 262.661C98.3938 264.355 99.0658 265.307 100.228 265.307ZM105.507 257.999V256.305H107.005V257.999H105.507ZM105.507 266.385V258.923H107.005V266.385H105.507ZM109.151 264.159V260.085H108.143V258.923H109.151V257.201H110.649V258.923H112.259V260.085H110.649V264.075C110.649 264.929 110.887 265.335 111.937 265.335H112.231V266.427C112.063 266.511 111.713 266.567 111.293 266.567C109.837 266.567 109.151 265.769 109.151 264.159ZM116.525 266.385V256.865H119.787C122.769 256.865 124.617 258.657 124.617 261.639C124.617 264.621 122.769 266.385 119.787 266.385H116.525ZM119.787 265.111C121.817 265.111 123.021 263.823 123.021 261.639C123.021 259.427 121.817 258.139 119.787 258.139H118.093V265.111H119.787ZM131.073 263.291V258.923H132.557V266.385H131.073V265.377C130.583 266.175 129.799 266.567 128.847 266.567C127.321 266.567 126.369 265.671 126.369 263.907V258.923H127.867V263.599C127.867 264.677 128.315 265.321 129.309 265.321C130.401 265.321 131.073 264.327 131.073 263.291ZM134.521 266.385V258.923H136.019V260.029C136.509 259.133 137.279 258.727 138.147 258.727C138.441 258.727 138.721 258.797 138.861 258.923V260.239C138.637 260.169 138.371 260.141 138.063 260.141C136.635 260.141 136.019 261.009 136.019 262.311V266.385H134.521ZM141.325 261.359H139.827C140.065 259.707 141.199 258.727 143.061 258.727C145.091 258.727 146.099 259.917 146.099 261.653V264.565C146.099 265.461 146.183 265.979 146.351 266.385H144.783C144.671 266.105 144.629 265.713 144.615 265.293C143.985 266.175 143.019 266.567 142.123 266.567C140.611 266.567 139.575 265.853 139.575 264.425C139.575 263.403 140.135 262.647 141.255 262.269C142.249 261.933 143.257 261.849 144.601 261.835V261.667C144.601 260.575 144.097 259.987 142.949 259.987C141.983 259.987 141.465 260.519 141.325 261.359ZM141.087 264.369C141.087 264.999 141.605 265.391 142.403 265.391C143.649 265.391 144.601 264.397 144.601 263.193V262.857C141.731 262.885 141.087 263.515 141.087 264.369ZM148.313 264.159V260.085H147.305V258.923H148.313V257.201H149.811V258.923H151.421V260.085H149.811V264.075C149.811 264.929 150.049 265.335 151.099 265.335H151.393V266.427C151.225 266.511 150.875 266.567 150.455 266.567C148.999 266.567 148.313 265.769 148.313 264.159ZM152.687 257.999V256.305H154.185V257.999H152.687ZM152.687 266.385V258.923H154.185V266.385H152.687ZM159.258 266.567C157.088 266.567 155.772 265.097 155.772 262.661C155.772 260.127 157.13 258.727 159.258 258.727C161.428 258.727 162.744 260.225 162.744 262.661C162.744 265.181 161.386 266.567 159.258 266.567ZM159.258 265.307C160.532 265.307 161.218 264.383 161.218 262.661C161.218 260.953 160.518 259.987 159.258 259.987C157.998 259.987 157.298 260.925 157.298 262.661C157.298 264.355 157.998 265.307 159.258 265.307ZM164.342 266.385V258.923H165.84V259.917C166.344 259.119 167.128 258.727 168.094 258.727C169.648 258.727 170.614 259.637 170.614 261.401V266.385H169.13V261.709C169.13 260.631 168.654 259.973 167.632 259.973C166.512 259.973 165.84 260.967 165.84 262.003V266.385H164.342Z" fill="#6E7180"/>
<path d="M50.6837 297.385V295.559H53.3677V286.275H50.6837V284.471H52.1137C53.4117 284.471 53.7637 284.163 53.7637 283.481V283.239H55.8317V295.559H58.4937V297.385H50.6837ZM70.3335 297.385H67.9355V294.217H61.2035V292.105L68.1775 283.239H70.3335V292.369H72.2915V294.217H70.3335V297.385ZM63.2495 292.369H67.9355V286.209L63.2495 292.369ZM81.6256 297.619C79.0876 297.619 77.5576 295.729 77.5576 292.597C77.5576 289.339 79.1236 287.539 81.6256 287.539C82.7236 287.539 83.6236 287.989 84.2356 288.871V284.425H86.1616V297.385H84.2356V296.215C83.6236 297.115 82.7236 297.619 81.6256 297.619ZM81.8776 295.999C83.4076 295.999 84.2356 294.811 84.2356 292.597C84.2356 290.401 83.3716 289.159 81.8776 289.159C80.3476 289.159 79.5196 290.383 79.5196 292.597C79.5196 294.775 80.3836 295.999 81.8776 295.999ZM90.1226 290.923H88.1966C88.5026 288.799 89.9606 287.539 92.3546 287.539C94.9646 287.539 96.2606 289.069 96.2606 291.301V295.045C96.2606 296.197 96.3686 296.863 96.5846 297.385H94.5686C94.4246 297.025 94.3706 296.521 94.3526 295.981C93.5426 297.115 92.3006 297.619 91.1486 297.619C89.2046 297.619 87.8726 296.701 87.8726 294.865C87.8726 293.551 88.5926 292.579 90.0326 292.093C91.3106 291.661 92.6066 291.553 94.3346 291.535V291.319C94.3346 289.915 93.6866 289.159 92.2106 289.159C90.9686 289.159 90.3026 289.843 90.1226 290.923ZM89.8166 294.793C89.8166 295.603 90.4826 296.107 91.5086 296.107C93.1106 296.107 94.3346 294.829 94.3346 293.281V292.849C90.6446 292.885 89.8166 293.695 89.8166 294.793ZM98.916 301.579C98.502 301.579 98.07 301.471 97.854 301.399V299.923H98.376C99.474 299.923 99.888 299.707 100.716 297.709L101.004 297.043L97.152 287.791H99.222L101.598 293.767L102.012 295.081L102.426 293.767L104.73 287.791H106.692L102.336 298.501C101.364 300.895 100.626 301.579 98.916 301.579ZM109.092 290.311C109.092 292.759 115.23 290.707 115.23 294.613C115.23 296.431 113.592 297.619 111.27 297.619C108.948 297.619 107.31 296.539 106.95 294.253H108.876C109.074 295.459 109.974 296.125 111.324 296.125C112.62 296.125 113.304 295.549 113.304 294.739C113.304 292.345 107.256 294.361 107.256 290.419C107.256 288.925 108.426 287.539 110.856 287.539C112.998 287.539 114.582 288.529 114.888 290.923H112.962C112.746 289.573 111.99 289.069 110.766 289.069C109.704 289.069 109.092 289.591 109.092 290.311Z" fill="#313131"/>
</g>
</g>
<defs>
<filter id="filter0_dddd_2304_18" x="0.845703" y="0.846191" width="394.309" height="491.308" filterUnits="userSpaceOnUse" color-interpolation-filters="sRGB">
<feFlood flood-opacity="0" result="BackgroundImageFix"/>
<feColorMatrix in="SourceAlpha" type="matrix" values="0 0 0 0 0 0 0 0 0 0 0 0 0 0 0 0 0 0 127 0" result="hardAlpha"/>
<feOffset dx="2" dy="6"/>
<feGaussianBlur stdDeviation="7.5"/>
<feColorMatrix type="matrix" values="0 0 0 0 0 0 0 0 0 0 0 0 0 0 0 0 0 0 0.17 0"/>
<feBlend mode="normal" in2="BackgroundImageFix" result="effect1_dropShadow_2304_18"/>
<feColorMatrix in="SourceAlpha" type="matrix" values="0 0 0 0 0 0 0 0 0 0 0 0 0 0 0 0 0 0 127 0" result="hardAlpha"/>
<feOffset dx="7" dy="26"/>
<feGaussianBlur stdDeviation="13.5"/>
<feColorMatrix type="matrix" values="0 0 0 0 0 0 0 0 0 0 0 0 0 0 0 0 0 0 0.15 0"/>
<feBlend mode="normal" in2="effect1_dropShadow_2304_18" result="effect2_dropShadow_2304_18"/>
<feColorMatrix in="SourceAlpha" type="matrix" values="0 0 0 0 0 0 0 0 0 0 0 0 0 0 0 0 0 0 127 0" result="hardAlpha"/>
<feOffset dx="17" dy="58"/>
<feGaussianBlur stdDeviation="18"/>
<feColorMatrix type="matrix" values="0 0 0 0 0 0 0 0 0 0 0 0 0 0 0 0 0 0 0.09 0"/>
<feBlend mode="normal" in2="effect2_dropShadow_2304_18" result="effect3_dropShadow_2304_18"/>
<feColorMatrix in="SourceAlpha" type="matrix" values="0 0 0 0 0 0 0 0 0 0 0 0 0 0 0 0 0 0 127 0" result="hardAlpha"/>
<feOffset dx="29" dy="102"/>
<feGaussianBlur stdDeviation="21.5"/>
<feColorMatrix type="matrix" values="0 0 0 0 0 0 0 0 0 0 0 0 0 0 0 0 0 0 0.03 0"/>
<feBlend mode="normal" in2="effect3_dropShadow_2304_18" result="effect4_dropShadow_2304_18"/>
<feBlend mode="normal" in="SourceGraphic" in2="effect4_dropShadow_2304_18" result="shape"/>
</filter>
<filter id="filter1_i_2304_18" x="35.8457" y="61.6924" width="270" height="79.6154" filterUnits="userSpaceOnUse" color-interpolation-filters="sRGB">
<feFlood flood-opacity="0" result="BackgroundImageFix"/>
<feBlend mode="normal" in="SourceGraphic" in2="BackgroundImageFix" result="shape"/>
<feColorMatrix in="SourceAlpha" type="matrix" values="0 0 0 0 0 0 0 0 0 0 0 0 0 0 0 0 0 0 127 0" result="hardAlpha"/>
<feOffset dy="4.61538"/>
<feGaussianBlur stdDeviation="13.8462"/>
<feComposite in2="hardAlpha" operator="arithmetic" k2="-1" k3="1"/>
<feColorMatrix type="matrix" values="0 0 0 0 0 0 0 0 0 0 0 0 0 0 0 0 0 0 0.01 0"/>
<feBlend mode="normal" in2="shape" result="effect1_innerShadow_2304_18"/>
</filter>
<filter id="filter2_i_2304_18" x="35.8457" y="150.539" width="270" height="79.6154" filterUnits="userSpaceOnUse" color-interpolation-filters="sRGB">
<feFlood flood-opacity="0" result="BackgroundImageFix"/>
<feBlend mode="normal" in="SourceGraphic" in2="BackgroundImageFix" result="shape"/>
<feColorMatrix in="SourceAlpha" type="matrix" values="0 0 0 0 0 0 0 0 0 0 0 0 0 0 0 0 0 0 127 0" result="hardAlpha"/>
<feOffset dy="4.61538"/>
<feGaussianBlur stdDeviation="13.8462"/>
<feComposite in2="hardAlpha" operator="arithmetic" k2="-1" k3="1"/>
<feColorMatrix type="matrix" values="0 0 0 0 0 0 0 0 0 0 0 0 0 0 0 0 0 0 0.01 0"/>
<feBlend mode="normal" in2="shape" result="effect1_innerShadow_2304_18"/>
</filter>
<filter id="filter3_i_2304_18" x="35.8457" y="239.385" width="270" height="79.6154" filterUnits="userSpaceOnUse" color-interpolation-filters="sRGB">
<feFlood flood-opacity="0" result="BackgroundImageFix"/>
<feBlend mode="normal" in="SourceGraphic" in2="BackgroundImageFix" result="shape"/>
<feColorMatrix in="SourceAlpha" type="matrix" values="0 0 0 0 0 0 0 0 0 0 0 0 0 0 0 0 0 0 127 0" result="hardAlpha"/>
<feOffset dy="4.61538"/>
<feGaussianBlur stdDeviation="13.8462"/>
<feComposite in2="hardAlpha" operator="arithmetic" k2="-1" k3="1"/>
<feColorMatrix type="matrix" values="0 0 0 0 0 0 0 0 0 0 0 0 0 0 0 0 0 0 0.01 0"/>
<feBlend mode="normal" in2="shape" result="effect1_innerShadow_2304_18"/>
</filter>
</defs>
</svg>
