<svg width="28" height="28" viewBox="0 0 28 28" fill="none" xmlns="http://www.w3.org/2000/svg">
<g clip-path="url(#clip0_2316_259)">
<path d="M18.1289 4.1288C18.1289 1.85216 16.2767 0 14.0001 0C11.7234 0 9.8712 1.85216 9.8712 4.1288C9.8712 6.40544 11.7234 8.25759 14.0001 8.25759C16.2767 8.25759 18.1289 6.40544 18.1289 4.1288ZM14.0001 6.61702C12.6281 6.61702 11.5118 5.5008 11.5118 4.1288C11.5118 2.7568 12.6281 1.64057 14.0001 1.64057C15.3721 1.64057 16.4883 2.7568 16.4883 4.1288C16.4883 5.5008 15.3721 6.61702 14.0001 6.61702ZM7.15378 22.7901L5.50189 22.3443L4.56745 20.9111C4.2443 20.4154 3.51646 20.4151 3.19315 20.9111L2.2587 22.3443L0.606813 22.7901C0.0354923 22.9443 -0.189711 23.6364 0.182109 24.0972L1.25645 25.4288L1.16998 27.1375C1.14007 27.7286 1.72873 28.1564 2.28189 27.9453L3.8803 27.335L5.4787 27.9453C6.03094 28.1559 6.62058 27.7295 6.59055 27.1375L6.50409 25.4288L7.57843 24.0972C7.95009 23.6366 7.72543 22.9444 7.15378 22.7901ZM4.8498 25.1989L4.88852 25.9638C4.21881 25.7228 4.12688 25.6367 3.88035 25.6367C3.63349 25.6367 3.53921 25.7238 2.87219 25.9638C2.86448 25.3813 3.03018 25.0142 2.73005 24.6424L2.24908 24.0463L2.98856 23.8468C3.4498 23.7223 3.52838 23.3323 3.8803 22.8611C4.2292 23.3282 4.31069 23.7222 4.77203 23.8468L5.51152 24.0463C5.17502 24.5226 4.82562 24.7216 4.8498 25.1989ZM27.3932 22.7901L25.7414 22.3443L24.8069 20.9111C24.4838 20.4154 23.7559 20.4151 23.4326 20.9111L22.4982 22.3443L20.8463 22.7901C20.275 22.9443 20.0497 23.6364 20.4216 24.0972L21.4959 25.4288L21.4094 27.1375C21.3795 27.7286 21.9681 28.1564 22.5213 27.9453L24.1197 27.335L25.7182 27.9453C26.2703 28.1559 26.8601 27.73 26.8301 27.1375L26.7436 25.4288L27.8179 24.0972C28.1896 23.6366 27.9649 22.9444 27.3932 22.7901ZM25.0893 25.1989L25.128 25.9638C24.5667 25.7885 24.2726 25.5207 23.8272 25.6906L23.1116 25.9638L23.1503 25.1989C23.1745 24.7218 22.8279 24.5265 22.4885 24.0462C23.0408 23.8586 23.4405 23.903 23.7015 23.5027L24.1198 22.8611L24.5381 23.5027C24.799 23.9029 25.1941 23.8571 25.751 24.0462C25.4145 24.5226 25.0651 24.7216 25.0893 25.1989ZM18.9244 20.8494L16.2181 20.1191L14.6872 17.771C14.3641 17.2753 13.6362 17.275 13.3129 17.771L11.782 20.1191L9.07572 20.8494C8.50434 21.0036 8.2792 21.6957 8.65102 22.1565L10.4111 24.3381L10.2694 27.1375C10.2395 27.7285 10.828 28.1565 11.3813 27.9454L14.0001 26.9454L16.6188 27.9453C17.1709 28.1559 17.7606 27.7296 17.7306 27.1375L17.5889 24.338L19.349 22.1564C19.7207 21.6958 19.496 21.0037 18.9244 20.8494ZM16.1154 23.5516C15.9888 23.7086 15.9244 23.9067 15.9346 24.1081L16.0285 25.9639L14.2926 25.3011C14.1042 25.2291 13.8959 25.2291 13.7074 25.3011L11.9715 25.9639L12.0655 24.1081C12.0757 23.9067 12.0113 23.7085 11.8846 23.5516L10.7179 22.1055L12.5118 21.6215C12.7065 21.5689 12.875 21.4464 12.9852 21.2775L14.0001 19.721L15.0148 21.2775C15.125 21.4464 15.2935 21.5689 15.4882 21.6215L17.2821 22.1055L16.1154 23.5516ZM7.43766 16.5152H20.5624C21.0155 16.5152 21.3828 16.1479 21.3828 15.6949V12.359C21.3828 10.0975 19.5429 8.25759 17.2812 8.25759H10.7189C8.45726 8.25759 6.61735 10.0975 6.61735 12.359V15.6949C6.61735 16.1479 6.98463 16.5152 7.43766 16.5152ZM8.25798 12.359C8.25798 11.0021 9.3619 9.89816 10.7189 9.89816H17.2812C18.6382 9.89816 19.7421 11.0021 19.7421 12.359V14.8746H8.25798V12.359Z" fill="#3276F5"/>
</g>
<defs>
<clipPath id="clip0_2316_259">
<rect width="28" height="28" fill="white"/>
</clipPath>
</defs>
</svg>
