<svg width="28" height="28" viewBox="0 0 28 28" fill="none" xmlns="http://www.w3.org/2000/svg">
<g clip-path="url(#clip0_2316_247)">
<path d="M27.8992 21.9759L26.2729 17.2431C27.0568 15.6406 27.4711 13.8585 27.4739 12.0653C27.4787 8.94744 26.2724 5.9994 24.0771 3.76432C21.8814 1.52881 18.9555 0.270395 15.8383 0.221012C12.606 0.169934 9.5678 1.39942 7.28367 3.6835C5.08119 5.88593 3.85958 8.78945 3.82091 11.8922C1.65015 13.5266 0.368874 16.0748 0.373085 18.7965C0.375109 20.0702 0.66178 21.3362 1.20499 22.4811L0.0848273 25.7409C-0.107727 26.3013 0.0329289 26.9098 0.451944 27.3288C0.746819 27.6237 1.13559 27.7807 1.53541 27.7807C1.70363 27.7807 1.87382 27.7529 2.0398 27.6959L5.29966 26.5757C6.44455 27.1189 7.71062 27.4056 8.98429 27.4076H8.99785C11.7601 27.4075 14.3277 26.0932 15.9561 23.8693C17.6507 23.8246 19.3274 23.4144 20.8432 22.6729L25.576 24.2992C25.7689 24.3657 25.9714 24.3998 26.1754 24.4C26.6505 24.4 27.1125 24.2134 27.463 23.8629C27.9608 23.3649 28.128 22.6419 27.8992 21.9759ZM8.99774 25.741H8.98686C7.85953 25.7393 6.74002 25.4614 5.74958 24.9374C5.64885 24.8841 5.53826 24.852 5.42466 24.8432C5.31105 24.8343 5.19683 24.8488 5.08906 24.8858L1.7464 26.0344L2.895 22.6918C2.93202 22.5841 2.94655 22.4698 2.93769 22.3562C2.92883 22.2426 2.89677 22.132 2.84348 22.0313C2.31947 21.0408 2.04155 19.9214 2.0398 18.794C2.03701 16.9806 2.74242 15.2618 3.97601 13.9748C4.37894 16.4312 5.54964 18.6947 7.36428 20.477C9.16552 22.2462 11.4297 23.3727 13.8727 23.741C12.5827 25.0124 10.8439 25.741 8.99774 25.741ZM26.2843 22.6843C26.2369 22.7318 26.1807 22.7447 26.1175 22.7229L21.0508 20.9819C20.9431 20.9448 20.8288 20.9303 20.7152 20.9391C20.6016 20.948 20.4911 20.9801 20.3904 21.0334C18.9437 21.7987 17.309 22.2046 15.6628 22.2071H15.647C10.1311 22.2071 5.57491 17.7263 5.48751 12.2117C5.44349 9.43438 6.49994 6.8242 8.46219 4.86196C10.4244 2.89972 13.035 1.84364 15.812 1.88739C21.3319 1.97495 25.8157 6.53955 25.8072 12.0627C25.8046 13.7089 25.3988 15.3437 24.6336 16.7902C24.5803 16.891 24.5482 17.0015 24.5393 17.1152C24.5305 17.2288 24.545 17.343 24.582 17.4507L26.323 22.5174C26.3447 22.5809 26.3317 22.637 26.2843 22.6843Z" fill="#3276F5"/>
<path d="M20.6121 7.62964H10.683C10.2227 7.62964 9.84966 8.00277 9.84966 8.46297C9.84966 8.92322 10.2228 9.2963 10.683 9.2963H20.6121C21.0723 9.2963 21.4454 8.92316 21.4454 8.46297C21.4454 8.00277 21.0723 7.62964 20.6121 7.62964ZM20.6121 11.057H10.683C10.2227 11.057 9.84966 11.4301 9.84966 11.8903C9.84966 12.3505 10.2228 12.7236 10.683 12.7236H20.6121C21.0723 12.7236 21.4454 12.3505 21.4454 11.8903C21.4454 11.4301 21.0723 11.057 20.6121 11.057ZM16.7901 14.4842H10.6829C10.2227 14.4842 9.84961 14.8573 9.84961 15.3175C9.84961 15.7777 10.2227 16.1508 10.6829 16.1508H16.79C17.2502 16.1508 17.6233 15.7777 17.6233 15.3175C17.6233 14.8573 17.2503 14.4842 16.7901 14.4842Z" fill="#3276F5"/>
</g>
<defs>
<clipPath id="clip0_2316_247">
<rect width="28" height="28" fill="white"/>
</clipPath>
</defs>
</svg>
