<svg width="28" height="28" viewBox="0 0 28 28" fill="none" xmlns="http://www.w3.org/2000/svg">
<g clip-path="url(#clip0_2217_2448)">
<path d="M23.7891 5.74219H15.5859L12.8516 7.38281H0.820312M23.7891 5.74219V2.46094C23.7891 1.55482 23.0546 0.820312 22.1484 0.820312H2.46094C1.55482 0.820312 0.820312 1.55482 0.820312 2.46094V7.38281M23.7891 5.74219V9.67969M0.820312 7.38281V22.1484C0.820312 23.0546 1.55482 23.7891 2.46094 23.7891H17.3359M23.3516 12.9609H21.1641M27.1797 23.8984H17.3359M25.5391 9.67969H18.9766C18.0704 9.67969 17.3359 10.4142 17.3359 11.3203V25.5391C17.3359 26.4452 18.0704 27.1797 18.9766 27.1797H25.5391C26.4452 27.1797 27.1797 26.4452 27.1797 25.5391V11.3203C27.1797 10.4142 26.4452 9.67969 25.5391 9.67969Z" stroke="#3276F5" stroke-width="1.64062" stroke-miterlimit="10" stroke-linecap="round" stroke-linejoin="round"/>
<path d="M4.10156 10.6641H13.3984V13.9453H4.10156V10.6641ZM4.10156 17.2266H13.3984V20.5078H4.10156V17.2266Z" stroke="#3276F5" stroke-width="1.64062" stroke-miterlimit="10" stroke-linecap="round" stroke-linejoin="round"/>
</g>
<defs>
<clipPath id="clip0_2217_2448">
<rect width="28" height="28" fill="white"/>
</clipPath>
</defs>
</svg>
