<svg width="28" height="28" viewBox="0 0 28 28" fill="none" xmlns="http://www.w3.org/2000/svg">
<g clip-path="url(#clip0_2217_2475)">
<path d="M5.73814 21.5655H1.64062C1.18759 21.5655 0.820312 21.1982 0.820312 20.7452V1.64062C0.820312 1.18759 1.18759 0.820312 1.64062 0.820312H26.3594C26.8124 0.820312 27.1797 1.18759 27.1797 1.64062V20.7452C27.1797 21.1982 26.8124 21.5655 26.3594 21.5655H22.2927M12.1692 21.5655H9.12472M18.8837 21.5655H15.5869" stroke="#3276F5" stroke-width="1.64062" stroke-miterlimit="10" stroke-linecap="round" stroke-linejoin="round"/>
<path d="M13.8105 10.6666C14.7166 10.6666 15.4512 9.93209 15.4512 9.026C15.4512 8.11991 14.7166 7.38538 13.8105 7.38538C12.9045 7.38538 12.1699 8.11991 12.1699 9.026C12.1699 9.93209 12.9045 10.6666 13.8105 10.6666Z" stroke="#3276F5" stroke-width="1.64062" stroke-miterlimit="10" stroke-linecap="round" stroke-linejoin="round"/>
<path d="M7.37891 13.9191C8.285 13.9191 9.01953 13.1845 9.01953 12.2784C9.01953 11.3724 8.285 10.6378 7.37891 10.6378C6.47281 10.6378 5.73828 11.3724 5.73828 12.2784C5.73828 13.1845 6.47281 13.9191 7.37891 13.9191Z" stroke="#3276F5" stroke-width="1.64062" stroke-miterlimit="10" stroke-linecap="round" stroke-linejoin="round"/>
<path d="M20.5234 11.8103C21.4295 11.8103 22.1641 11.0758 22.1641 10.1697C22.1641 9.26359 21.4295 8.52905 20.5234 8.52905C19.6173 8.52905 18.8828 9.26359 18.8828 10.1697C18.8828 11.0758 19.6173 11.8103 20.5234 11.8103Z" stroke="#3276F5" stroke-width="1.64062" stroke-miterlimit="10" stroke-linecap="round" stroke-linejoin="round"/>
<path d="M27.1797 4.11938H0.820312M23.8973 27.1797H4.10271" stroke="#3276F5" stroke-width="1.64062" stroke-miterlimit="10" stroke-linecap="round" stroke-linejoin="round"/>
<path d="M22.1602 27.1797H18.8894V16.357H22.1602V27.1797Z" stroke="#3276F5" stroke-width="1.64062" stroke-miterlimit="10" stroke-linecap="round" stroke-linejoin="round"/>
<path d="M15.5859 27.1797H12.3152L12.3152 15.2249H15.5859L15.5859 27.1797Z" stroke="#3276F5" stroke-width="1.64062" stroke-miterlimit="10" stroke-linecap="round" stroke-linejoin="round"/>
<path d="M9.01367 27.1797H5.74292L5.74292 18.4583H9.01367L9.01367 27.1797Z" stroke="#3276F5" stroke-width="1.64062" stroke-miterlimit="10" stroke-linecap="round" stroke-linejoin="round"/>
<path d="M9.125 11.3954L12.1695 9.85564M18.6 9.8418L15.6552 9.34021" stroke="#3276F5" stroke-width="1.64062" stroke-miterlimit="10" stroke-linecap="round" stroke-linejoin="round"/>
</g>
<defs>
<clipPath id="clip0_2217_2475">
<rect width="28" height="28" fill="white"/>
</clipPath>
</defs>
</svg>
