<svg width="28" height="28" viewBox="0 0 28 28" fill="none" xmlns="http://www.w3.org/2000/svg">
<g clip-path="url(#clip0_2304_1531)">
<path d="M20.1754 2.20181C17.8639 0.323409 14.8425 -0.39956 11.8855 0.218299C8.19022 0.990432 5.17541 4.01831 4.38353 7.75287C3.71585 10.9019 4.53862 14.0634 6.64092 16.4267C7.68359 17.5989 8.25781 19.0652 8.25781 20.5598V22.2004C8.25781 23.2698 8.94365 24.1816 9.89844 24.5203V25.5364C9.89844 26.8933 11.0024 27.9973 12.3594 27.9973H15.6406C16.9976 27.9973 18.1016 26.8933 18.1016 25.5364V24.5203C19.0564 24.1816 19.7422 23.2698 19.7422 22.2004V20.5598C19.7422 19.0843 20.3335 17.5972 21.407 16.3724C22.978 14.5806 23.8441 12.2788 23.8438 9.89574C23.8438 6.90067 22.5067 4.0963 20.1754 2.20181ZM16.4609 25.5364C16.4609 25.9887 16.0929 26.3567 15.6406 26.3567H12.3594C11.9071 26.3567 11.5391 25.9887 11.5391 25.5364V24.6614H16.4609V25.5364ZM18.1016 22.2004C18.1016 22.6528 17.7336 23.0207 17.2812 23.0207H10.7188C10.2664 23.0207 9.89844 22.6528 9.89844 22.2004V21.3801H18.1016V22.2004ZM14 13.925C14.5575 13.9247 15.1113 13.8355 15.6406 13.6605V19.7395H12.3594V13.6605C12.8887 13.8355 13.4425 13.9247 14 13.925ZM12.6287 12.0117L14 9.26908L15.3713 12.0116C14.4929 12.3733 13.5071 12.3733 12.6287 12.0117ZM20.1732 15.291C19.0326 16.5923 18.3295 18.1467 18.1483 19.7395H17.2812V12.3592C17.2812 12.2473 17.257 12.1239 17.2024 12.0081C17.1996 12.0021 17.1976 11.9958 17.1946 11.9899L14.7337 7.06802C14.6656 6.93174 14.5608 6.81713 14.4312 6.73703C14.3016 6.65692 14.1523 6.61449 13.9999 6.61449C13.8476 6.61449 13.6982 6.65692 13.5687 6.73703C13.4391 6.81713 13.3343 6.93174 13.2662 7.06802L10.8053 11.9899C10.749 12.1047 10.7194 12.2307 10.7187 12.3586V19.7395H9.8537C9.67783 18.1357 8.98778 16.5966 7.86674 15.3363C6.11472 13.3667 5.43009 10.7267 5.9885 8.09319C6.64759 4.98475 9.15228 2.46546 12.2211 1.82425C14.6923 1.30789 17.2144 1.90962 19.1407 3.47505C21.087 5.05661 22.2031 7.39685 22.2031 9.89574C22.2034 11.8809 21.4819 13.7984 20.1732 15.291ZM2.46094 9.89574H0.820312C0.367281 9.89574 0 10.263 0 10.7161C0 11.1691 0.367281 11.5364 0.820312 11.5364H2.46094C2.91397 11.5364 3.28125 11.1691 3.28125 10.7161C3.28125 10.263 2.91397 9.89574 2.46094 9.89574ZM2.80071 5.79418L1.64062 4.6341C1.32027 4.31374 0.800898 4.31374 0.480539 4.6341C0.16018 4.95445 0.16018 5.47382 0.480539 5.79418L1.64062 6.95427C1.96104 7.27468 2.48041 7.27457 2.80071 6.95427C3.12107 6.63391 3.12107 6.11454 2.80071 5.79418ZM2.80071 14.4778C2.48035 14.1575 1.96098 14.1575 1.64062 14.4778L0.480539 15.6379C0.160234 15.9583 0.160234 16.4777 0.480539 16.798C0.800844 17.1183 1.32021 17.1184 1.64062 16.798L2.80071 15.6379C3.12102 15.3176 3.12102 14.7982 2.80071 14.4778ZM27.1797 9.89574H25.5391C25.086 9.89574 24.7188 10.263 24.7188 10.7161C24.7188 11.1691 25.086 11.5364 25.5391 11.5364H27.1797C27.6327 11.5364 28 11.1691 28 10.7161C28 10.263 27.6327 9.89574 27.1797 9.89574ZM27.5195 4.6341C27.1992 4.31374 26.6797 4.31374 26.3594 4.6341L25.1993 5.79418C24.8789 6.11454 24.8789 6.63391 25.1993 6.95427C25.5196 7.27463 26.039 7.27463 26.3594 6.95427L27.5195 5.79418C27.8398 5.47382 27.8398 4.95445 27.5195 4.6341ZM27.5195 15.6379L26.3594 14.4778C26.0391 14.1575 25.5197 14.1575 25.1993 14.4778C24.8789 14.7982 24.8789 15.3176 25.1993 15.6379L26.3594 16.798C26.6796 17.1184 27.1991 17.1184 27.5195 16.798C27.8398 16.4777 27.8398 15.9583 27.5195 15.6379Z" fill="#3276F5"/>
</g>
<defs>
<clipPath id="clip0_2304_1531">
<rect width="28" height="28" fill="white"/>
</clipPath>
</defs>
</svg>
