<svg width="620" height="400" viewBox="0 0 620 400" fill="none" xmlns="http://www.w3.org/2000/svg">
<g clip-path="url(#clip0_2217_1529)">
<rect width="620" height="400" rx="16" fill="#F1F1F1"/>
<rect y="-1" width="620" height="402" fill="#F1F3F4"/>
<path fill-rule="evenodd" clip-rule="evenodd" d="M-426.965 -11.9998V-12L-427.756 -12V-11.9998L-828 -11.9998V-11.2088L-771.048 -11.2088L-771.048 37.0417L-828 37.0417V37.8327L-771.048 37.8327V86.0835L-828 86.0834V86.8744L-771.048 86.8744V135.125H-828V135.916H-771.048V184.167H-828V184.958H-771.048V233.209H-828V234L1228.59 234V233.209L-476.333 233.209V184.958H-427.756V232.937H-426.965V184.958L-378.768 184.958V232.937H-377.977V184.958H-329.782V232.937H-328.991V184.958H-280.794V232.937H-280.003V184.958H-231.806V232.937H-231.015V184.958L-182.819 184.958V232.937H-182.028V184.958H-133.832V232.937H-133.041V184.958H-84.7902V232.937H-83.9992V184.958L-35.7487 184.958V232.937H-34.9577V184.958H13.2933V232.937H14.0844V184.958H62.3348V232.937H63.1259V184.958H111.377V232.937H112.168V184.958L160.418 184.958V232.937H161.209V184.958H209.46V232.937H210.251V184.958H258.502V232.937H259.293V184.958L307.544 184.958V232.937H308.335V184.958H356.585V232.937H357.376V184.958H405.627V232.937H406.418V184.958H454.669V232.937H455.46V184.958L503.711 184.958V232.937H504.502V184.958H552.753V232.937H553.544V184.958H601.795V232.937H602.586V184.958L650.836 184.958V232.937H651.627V184.958H699.878V232.937H700.669V184.958H748.92V232.937H749.711V184.958H797.962V232.937H798.753V184.958L847.003 184.958V232.937H847.794V184.958H896.045V232.937H896.836V184.958H945.087V232.937H945.878V184.958L994.129 184.958V232.937H994.92V184.958H1043.17V232.937H1043.96V184.958H1092.21V232.937H1093V184.958H1141.25V232.937H1142.04V184.958L1190.3 184.958V232.937H1191.09V184.958H1228.59V184.167H1191.09V135.916H1228.59V135.125H1191.09V86.8746H1228.59V86.0836H1191.09V37.8328L1228.59 37.8328V37.0419L1191.09 37.0418V-11.2086L1228.59 -11.2086V-11.9996L1191.09 -11.9996V-12L1190.3 -12V-11.9996L1142.04 -11.9996V-12L1141.25 -12V-11.9996L1093 -11.9997V-12L1092.21 -12V-11.9997L1043.96 -11.9997V-12L1043.17 -12V-11.9997L994.92 -11.9997V-12L994.129 -12V-11.9997L945.878 -11.9997V-12L945.087 -12V-11.9997L896.836 -11.9997V-12L896.045 -12V-11.9997L847.794 -11.9997V-12L847.003 -12V-11.9997L798.753 -11.9997V-12L797.962 -12V-11.9997L749.711 -11.9997V-12L748.92 -12V-11.9997L700.669 -11.9997V-12L699.878 -12V-11.9997L651.627 -11.9997V-12L650.836 -12V-11.9997L602.586 -11.9997V-12L601.795 -12V-11.9997L553.544 -11.9997V-12L552.753 -12V-11.9997L504.502 -11.9997V-12L503.711 -12V-11.9997L455.46 -11.9997V-12L454.669 -12V-11.9997L406.418 -11.9997V-12L405.627 -12V-11.9997L357.376 -11.9997V-12L356.585 -12V-11.9997L308.335 -11.9997V-12L307.544 -12V-11.9997L259.293 -11.9997V-12L258.502 -12V-11.9997L210.251 -11.9997V-12L209.46 -12V-11.9997L161.209 -11.9997V-12L160.418 -12V-11.9997L112.168 -11.9997V-12L111.377 -12V-11.9997L63.1259 -11.9997V-12L62.3348 -12V-11.9997L14.0844 -11.9997V-12L13.2933 -12V-11.9997L-34.9577 -11.9998V-12L-35.7487 -12V-11.9998L-83.9992 -11.9998V-12L-84.7902 -12V-11.9998L-133.041 -11.9998V-12L-133.832 -12V-11.9998L-182.028 -11.9998V-12L-182.819 -12V-11.9998L-231.015 -11.9998V-12L-231.806 -12V-11.9998L-280.003 -11.9998V-12L-280.794 -12V-11.9998L-328.991 -11.9998V-12L-329.782 -12V-11.9998L-377.977 -11.9998V-12L-378.768 -12V-11.9998L-426.965 -11.9998ZM-477.124 233.209V184.958H-525.32V233.209H-477.124ZM-526.111 233.209V184.958L-574.308 184.958V233.209L-526.111 233.209ZM-575.099 233.209V184.958H-623.295V233.209H-575.099ZM-624.086 233.209V184.958H-672.283V233.209H-624.086ZM-673.074 233.209V184.958H-721.27V233.209H-673.074ZM-722.061 233.209V184.958L-770.257 184.958V233.209L-722.061 233.209ZM-722.061 184.167L-770.257 184.167V135.916L-722.061 135.916V184.167ZM-673.074 184.167H-721.27V135.916H-673.074V184.167ZM-624.086 184.167H-672.283V135.916H-624.086V184.167ZM-575.099 184.167H-623.295V135.916H-575.099V184.167ZM-526.111 184.167L-574.308 184.167V135.916L-526.111 135.916V184.167ZM-477.124 184.167H-525.32V135.916H-477.124V184.167ZM-427.756 184.167H-476.333V135.916H-427.756V184.167ZM-378.768 184.167L-426.965 184.167V135.916L-378.768 135.916V184.167ZM-329.782 184.167H-377.977V135.916H-329.782V184.167ZM-280.794 184.167H-328.991V135.916H-280.794V184.167ZM-231.806 184.167H-280.003V135.916H-231.806V184.167ZM-182.819 184.167L-231.015 184.167V135.916L-182.819 135.916V184.167ZM-133.832 184.167H-182.028V135.916H-133.832V184.167ZM-84.7902 184.167H-133.041V135.916H-84.7902V184.167ZM-35.7487 184.167L-83.9992 184.167V135.916L-35.7487 135.916V184.167ZM13.2933 184.167H-34.9577V135.916H13.2933V184.167ZM62.3348 184.167H14.0844V135.916H62.3348V184.167ZM111.377 184.167H63.1259V135.916H111.377V184.167ZM160.418 184.167L112.168 184.167V135.916L160.418 135.916V184.167ZM209.46 184.167H161.209V135.916H209.46V184.167ZM258.502 184.167H210.251V135.916H258.502V184.167ZM307.544 184.167L259.293 184.167V135.916L307.544 135.916V184.167ZM356.585 184.167H308.335V135.916H356.585V184.167ZM405.627 184.167H357.376V135.916H405.627V184.167ZM454.669 184.167H406.418V135.916H454.669V184.167ZM503.711 184.167L455.46 184.167V135.916L503.711 135.916V184.167ZM552.753 184.167H504.502V135.916H552.753V184.167ZM601.795 184.167H553.544V135.916H601.795V184.167ZM650.836 184.167L602.586 184.167V135.916L650.836 135.916V184.167ZM699.878 184.167H651.627V135.916H699.878V184.167ZM748.92 184.167H700.669V135.916H748.92V184.167ZM797.962 184.167H749.711V135.916H797.962V184.167ZM847.003 184.167L798.753 184.167V135.916L847.003 135.916V184.167ZM896.045 184.167H847.794V135.916H896.045V184.167ZM945.087 184.167H896.836V135.916H945.087V184.167ZM994.129 184.167L945.878 184.167V135.916L994.129 135.916V184.167ZM1043.17 184.167H994.92V135.916H1043.17V184.167ZM1092.21 184.167H1043.96V135.916H1092.21V184.167ZM1141.25 184.167H1093V135.916H1141.25V184.167ZM1190.3 184.167L1142.04 184.167V135.916L1190.3 135.916V184.167ZM1190.3 135.125V86.8746L1142.04 86.8746V135.125L1190.3 135.125ZM1141.25 135.125V86.8746L1093 86.8746V135.125H1141.25ZM1092.21 135.125V86.8746H1043.96V135.125H1092.21ZM1043.17 135.125V86.8746L994.92 86.8746V135.125H1043.17ZM994.129 135.125V86.8746H945.878V135.125L994.129 135.125ZM945.087 135.125V86.8746L896.836 86.8746V135.125H945.087ZM896.045 135.125V86.8746H847.794V135.125H896.045ZM847.003 135.125V86.8746L798.753 86.8746V135.125L847.003 135.125ZM797.962 135.125V86.8746H749.711V135.125H797.962ZM748.92 135.125V86.8746L700.669 86.8746V135.125H748.92ZM699.878 135.125V86.8746H651.627V135.125H699.878ZM650.836 135.125V86.8746L602.586 86.8746V135.125L650.836 135.125ZM601.795 135.125V86.8746L553.544 86.8745V135.125H601.795ZM552.753 135.125V86.8745H504.502V135.125H552.753ZM503.711 135.125V86.8745L455.46 86.8745V135.125L503.711 135.125ZM454.669 135.125V86.8745H406.418V135.125H454.669ZM405.627 135.125V86.8745L357.376 86.8745V135.125H405.627ZM356.585 135.125V86.8745H308.335V135.125H356.585ZM307.544 135.125V86.8745L259.293 86.8745V135.125L307.544 135.125ZM258.502 135.125V86.8745H210.251V135.125H258.502ZM209.46 135.125V86.8745L161.209 86.8745V135.125H209.46ZM160.418 135.125V86.8745H112.168V135.125L160.418 135.125ZM111.377 135.125V86.8745L63.1259 86.8745V135.125H111.377ZM62.3348 135.125V86.8745L14.0844 86.8745V135.125H62.3348ZM13.2933 135.125V86.8745H-34.9577V135.125H13.2933ZM-35.7487 135.125V86.8745L-83.9992 86.8745V135.125L-35.7487 135.125ZM-84.7902 135.125V86.8745H-133.041V135.125H-84.7902ZM-133.832 135.125V86.8745L-182.028 86.8745V135.125H-133.832ZM-182.819 135.125V86.8745H-231.015V135.125L-182.819 135.125ZM-231.806 135.125V86.8745L-280.003 86.8745V135.125H-231.806ZM-280.794 135.125V86.8745H-328.991V135.125H-280.794ZM-329.782 135.125V86.8745L-377.977 86.8745V135.125H-329.782ZM-378.768 135.125V86.8745L-426.965 86.8745V135.125L-378.768 135.125ZM-427.756 135.125V86.8745H-476.333V135.125H-427.756ZM-477.124 135.125V86.8745L-525.32 86.8745V135.125H-477.124ZM-526.111 135.125V86.8745H-574.308V135.125L-526.111 135.125ZM-575.099 135.125V86.8745L-623.295 86.8745V135.125H-575.099ZM-624.086 135.125V86.8745H-672.283V135.125H-624.086ZM-673.074 135.125V86.8745L-721.27 86.8744V135.125H-673.074ZM-722.061 135.125V86.8744H-770.257V135.125L-722.061 135.125ZM-722.061 86.0835H-770.257V37.8327L-722.061 37.8327V86.0835ZM-673.074 86.0835L-721.27 86.0835V37.8327L-673.074 37.8327V86.0835ZM-624.086 86.0835H-672.283V37.8327L-624.086 37.8327V86.0835ZM-575.099 86.0835L-623.295 86.0835V37.8327L-575.099 37.8327V86.0835ZM-526.111 86.0835H-574.308V37.8327L-526.111 37.8327V86.0835ZM-477.124 86.0835L-525.32 86.0835V37.8327L-477.124 37.8327V86.0835ZM-427.756 86.0835H-476.333V37.8327L-427.756 37.8327V86.0835ZM-378.768 86.0835L-426.965 86.0835V37.8327L-378.768 37.8327V86.0835ZM-329.782 86.0835L-377.977 86.0835V37.8327L-329.782 37.8327V86.0835ZM-280.794 86.0835H-328.991V37.8327L-280.794 37.8327V86.0835ZM-231.806 86.0835L-280.003 86.0835V37.8327L-231.806 37.8327V86.0835ZM-182.819 86.0835H-231.015V37.8327L-182.819 37.8327V86.0835ZM-133.832 86.0835L-182.028 86.0835V37.8327L-133.832 37.8327V86.0835ZM-84.7902 86.0835H-133.041V37.8327L-84.7902 37.8327V86.0835ZM-35.7487 86.0835L-83.9992 86.0835V37.8327L-35.7487 37.8327V86.0835ZM13.2933 86.0835H-34.9577V37.8327L13.2933 37.8327V86.0835ZM62.3348 86.0835L14.0844 86.0835V37.8327L62.3348 37.8327V86.0835ZM111.377 86.0835L63.1259 86.0835V37.8327L111.377 37.8327V86.0835ZM160.418 86.0835H112.168V37.8327L160.418 37.8328V86.0835ZM209.46 86.0835L161.209 86.0835V37.8328L209.46 37.8328V86.0835ZM258.502 86.0835H210.251V37.8328L258.502 37.8328V86.0835ZM307.544 86.0835L259.293 86.0835V37.8328L307.544 37.8328V86.0835ZM356.585 86.0835H308.335V37.8328L356.585 37.8328V86.0835ZM405.627 86.0835L357.376 86.0835V37.8328L405.627 37.8328V86.0835ZM454.669 86.0835H406.418V37.8328L454.669 37.8328V86.0835ZM503.711 86.0836L455.46 86.0835V37.8328L503.711 37.8328V86.0836ZM552.753 86.0836H504.502V37.8328L552.753 37.8328V86.0836ZM601.795 86.0836L553.544 86.0836V37.8328L601.795 37.8328V86.0836ZM650.836 86.0836L602.586 86.0836V37.8328L650.836 37.8328V86.0836ZM699.878 86.0836H651.627V37.8328L699.878 37.8328V86.0836ZM748.92 86.0836L700.669 86.0836V37.8328L748.92 37.8328V86.0836ZM797.962 86.0836H749.711V37.8328L797.962 37.8328V86.0836ZM847.003 86.0836L798.753 86.0836V37.8328L847.003 37.8328V86.0836ZM896.045 86.0836H847.794V37.8328L896.045 37.8328V86.0836ZM945.087 86.0836L896.836 86.0836V37.8328L945.087 37.8328V86.0836ZM994.129 86.0836H945.878V37.8328L994.129 37.8328V86.0836ZM1043.17 86.0836L994.92 86.0836V37.8328L1043.17 37.8328V86.0836ZM1092.21 86.0836H1043.96V37.8328L1092.21 37.8328V86.0836ZM1141.25 86.0836L1093 86.0836V37.8328L1141.25 37.8328V86.0836ZM1190.3 86.0836L1142.04 86.0836V37.8328L1190.3 37.8328V86.0836ZM1190.3 37.0418V-11.2086L1142.04 -11.2087V37.0418L1190.3 37.0418ZM1141.25 37.0418V-11.2087L1093 -11.2087V37.0418L1141.25 37.0418ZM1092.21 37.0418V-11.2087L1043.96 -11.2087V37.0418L1092.21 37.0418ZM1043.17 37.0418V-11.2087L994.92 -11.2087V37.0418L1043.17 37.0418ZM994.129 37.0418V-11.2087L945.878 -11.2087V37.0418L994.129 37.0418ZM945.087 37.0418V-11.2087L896.836 -11.2087V37.0418L945.087 37.0418ZM896.045 37.0418V-11.2087L847.794 -11.2087V37.0418L896.045 37.0418ZM847.003 37.0418V-11.2087L798.753 -11.2087V37.0418L847.003 37.0418ZM797.962 37.0418V-11.2087L749.711 -11.2087V37.0418L797.962 37.0418ZM748.92 37.0418V-11.2087L700.669 -11.2087V37.0418L748.92 37.0418ZM699.878 37.0418V-11.2087L651.627 -11.2087V37.0418L699.878 37.0418ZM650.836 37.0418V-11.2087L602.586 -11.2087V37.0418L650.836 37.0418ZM601.795 37.0418V-11.2087L553.544 -11.2087V37.0418L601.795 37.0418ZM552.753 37.0418V-11.2087L504.502 -11.2087V37.0418L552.753 37.0418ZM503.711 37.0418V-11.2087L455.46 -11.2087V37.0418L503.711 37.0418ZM454.669 37.0418V-11.2087L406.418 -11.2087V37.0418L454.669 37.0418ZM405.627 37.0418V-11.2087L357.376 -11.2087V37.0418L405.627 37.0418ZM356.585 37.0418V-11.2087L308.335 -11.2087V37.0418L356.585 37.0418ZM307.544 37.0418V-11.2087L259.293 -11.2087V37.0418L307.544 37.0418ZM258.502 37.0418V-11.2087L210.251 -11.2087V37.0418L258.502 37.0418ZM209.46 37.0418V-11.2087L161.209 -11.2087V37.0418L209.46 37.0418ZM160.418 37.0418V-11.2087L112.168 -11.2087V37.0418L160.418 37.0418ZM111.377 37.0418V-11.2087L63.1259 -11.2087V37.0417L111.377 37.0418ZM62.3348 37.0417V-11.2087L14.0844 -11.2088V37.0417L62.3348 37.0417ZM13.2933 37.0417V-11.2088L-34.9577 -11.2088V37.0417L13.2933 37.0417ZM-35.7487 37.0417V-11.2088L-83.9992 -11.2088V37.0417L-35.7487 37.0417ZM-84.7902 37.0417V-11.2088L-133.041 -11.2088V37.0417L-84.7902 37.0417ZM-133.832 37.0417V-11.2088L-182.028 -11.2088V37.0417L-133.832 37.0417ZM-182.819 37.0417V-11.2088L-231.015 -11.2088V37.0417L-182.819 37.0417ZM-231.806 37.0417V-11.2088L-280.003 -11.2088V37.0417L-231.806 37.0417ZM-280.794 37.0417V-11.2088L-328.991 -11.2088V37.0417L-280.794 37.0417ZM-329.782 37.0417V-11.2088L-377.977 -11.2088V37.0417L-329.782 37.0417ZM-378.768 37.0417V-11.2088L-426.965 -11.2088V37.0417L-378.768 37.0417ZM-427.756 37.0417V-11.2088L-476.333 -11.2088V37.0417L-427.756 37.0417ZM-477.124 37.0417V-11.2088L-525.32 -11.2088V37.0417L-477.124 37.0417ZM-526.111 37.0417V-11.2088L-574.308 -11.2088V37.0417L-526.111 37.0417ZM-575.099 37.0417V-11.2088L-623.295 -11.2088V37.0417L-575.099 37.0417ZM-624.086 37.0417V-11.2088L-672.283 -11.2088V37.0417L-624.086 37.0417ZM-673.074 37.0417V-11.2088L-721.27 -11.2088V37.0417L-673.074 37.0417ZM-722.061 37.0417V-11.2088L-770.257 -11.2088L-770.257 37.0417L-722.061 37.0417Z" fill="url(#paint0_radial_2217_1529)" fill-opacity="0.5"/>
<rect x="182.687" y="77.3118" width="252" height="51" rx="11.5" transform="rotate(-2 182.687 77.3118)" fill="white"/>
<rect x="182.687" y="77.3118" width="252" height="51" rx="11.5" transform="rotate(-2 182.687 77.3118)" stroke="url(#paint1_linear_2217_1529)"/>
<g clip-path="url(#clip1_2217_1529)">
<path d="M212.273 109.299L215.569 109.184C215.901 109.172 216.214 109.03 216.44 108.787C216.666 108.545 216.787 108.222 216.775 107.891L216.672 104.951C216.668 104.849 216.639 104.749 216.587 104.661C216.535 104.572 216.463 104.498 216.375 104.444C216.288 104.39 216.189 104.359 216.087 104.353C215.984 104.346 215.882 104.365 215.789 104.408C215.571 104.507 215.335 104.562 215.096 104.57C214.063 104.606 213.191 103.769 213.154 102.705C213.117 101.641 213.928 100.745 214.961 100.708C215.2 100.7 215.439 100.739 215.663 100.822C215.76 100.858 215.864 100.87 215.966 100.856C216.068 100.842 216.165 100.804 216.249 100.743C216.332 100.683 216.399 100.603 216.444 100.51C216.489 100.417 216.511 100.315 216.507 100.212L216.404 97.2724C216.393 96.9411 216.25 96.6279 216.007 96.4019C215.765 96.1758 215.443 96.0552 215.111 96.0668L212.283 96.1656C212.291 96.0615 212.293 95.957 212.29 95.8527C212.264 95.1072 211.942 94.4026 211.397 93.8939C210.851 93.3852 210.126 93.114 209.381 93.14C208.635 93.1661 207.931 93.4872 207.422 94.0327C206.913 94.5782 206.642 95.3035 206.668 96.049C206.671 96.1533 206.681 96.2574 206.696 96.3607L203.868 96.4594C203.537 96.471 203.224 96.6137 202.998 96.8562C202.771 97.0986 202.651 97.421 202.663 97.7523L202.75 100.268C202.646 100.26 202.542 100.258 202.437 100.262C201.692 100.288 200.987 100.609 200.479 101.154C199.97 101.7 199.699 102.425 199.725 103.171C199.751 103.916 200.072 104.621 200.617 105.129C201.163 105.638 201.888 105.909 202.634 105.883C202.738 105.88 202.842 105.87 202.945 105.855L203.033 108.371C203.045 108.702 203.188 109.015 203.43 109.241C203.673 109.467 203.995 109.588 204.326 109.576L207.623 109.461" fill="#212121"/>
</g>
<path d="M237.422 106.92L232.602 95.8811L234.201 95.8252L239.101 106.861L237.422 106.92ZM228.403 107.234L232.522 95.8839L234.121 95.828L230.082 107.176L228.403 107.234ZM230.426 104.17L230.377 102.763L236.821 102.538L236.87 103.945L230.426 104.17ZM240.133 106.825L239.774 95.6306L241.277 95.5781L241.652 106.772L240.133 106.825ZM243.627 106.703L243.268 95.5086L244.771 95.4561L245.146 106.65L243.627 106.703ZM246.834 102.492L246.788 101.165L251.585 100.998L251.631 102.325L246.834 102.492ZM253.678 106.352L253.431 98.3556L254.934 98.3032L255.197 106.299L253.678 106.352ZM254.107 96.635C253.862 96.6436 253.646 96.5604 253.458 96.3855C253.27 96.1999 253.172 95.9846 253.163 95.7394C253.154 95.4835 253.237 95.2672 253.413 95.0903C253.588 94.9027 253.798 94.8047 254.043 94.7961C254.299 94.7872 254.515 94.8703 254.692 95.0456C254.879 95.2098 254.977 95.4199 254.986 95.6757C254.995 95.9209 254.912 96.1426 254.737 96.3408C254.573 96.528 254.363 96.6261 254.107 96.635ZM257.264 106.227L256.984 98.2316L258.407 98.1819L258.555 99.6496L258.783 106.174L257.264 106.227ZM262.796 106.033L262.653 101.94L264.156 101.407L264.315 105.98L262.796 106.033ZM262.653 101.94C262.628 101.215 262.523 100.669 262.34 100.302C262.167 99.9237 261.928 99.6652 261.624 99.5264C261.331 99.3872 260.993 99.319 260.609 99.3217C259.958 99.3444 259.46 99.5913 259.114 100.062C258.767 100.533 258.608 101.185 258.637 102.016L257.982 102.039C257.952 101.197 258.05 100.473 258.274 99.8675C258.498 99.2513 258.834 98.7753 259.281 98.4395C259.739 98.1033 260.293 97.9239 260.943 97.9012C261.903 97.8677 262.665 98.1399 263.229 98.7179C263.804 99.2849 264.113 100.181 264.156 101.407L262.653 101.94ZM265.78 101.831L265.734 100.504L270.531 100.336L270.577 101.663L265.78 101.831ZM276.212 105.757C275.424 105.785 274.714 105.633 274.083 105.303C273.463 104.962 272.966 104.483 272.592 103.866C272.229 103.249 272.033 102.53 272.005 101.709C271.976 100.889 272.121 100.158 272.44 99.5169C272.76 98.8761 273.217 98.3691 273.812 97.9961C274.418 97.6121 275.11 97.4065 275.888 97.3793C276.687 97.3514 277.397 97.508 278.018 97.8493C278.637 98.1798 279.129 98.6536 279.492 99.2707C279.866 99.8873 280.067 100.606 280.096 101.427C280.124 102.248 279.974 102.979 279.644 103.62C279.325 104.261 278.868 104.773 278.273 105.157C277.688 105.529 277.001 105.73 276.212 105.757ZM276.162 104.318C276.642 104.301 277.059 104.169 277.413 103.922C277.767 103.675 278.039 103.345 278.227 102.933C278.426 102.51 278.516 102.026 278.497 101.483C278.478 100.95 278.355 100.479 278.127 100.071C277.91 99.6621 277.611 99.347 277.23 99.1255C276.848 98.9041 276.418 98.8017 275.938 98.8184C275.469 98.8348 275.052 98.9668 274.687 99.2143C274.333 99.4615 274.056 99.7967 273.858 100.22C273.669 100.632 273.585 101.11 273.604 101.654C273.622 102.187 273.74 102.657 273.957 103.066C274.185 103.474 274.489 103.789 274.871 104.011C275.252 104.232 275.682 104.335 276.162 104.318ZM281.8 105.37L281.521 97.3747L282.944 97.325L283.091 98.7928L283.319 105.317L281.8 105.37ZM287.332 105.177L287.189 101.083L288.692 100.55L288.852 105.124L287.332 105.177ZM287.189 101.083C287.164 100.358 287.06 99.8122 286.876 99.4451C286.703 99.0669 286.464 98.8084 286.161 98.6696C285.868 98.5304 285.529 98.4622 285.145 98.4649C284.495 98.4876 283.996 98.7345 283.65 99.2055C283.303 99.6766 283.145 100.328 283.174 101.159L282.518 101.182C282.489 100.34 282.586 99.6162 282.81 99.0107C283.034 98.3945 283.37 97.9185 283.817 97.5827C284.275 97.2465 284.829 97.0671 285.479 97.0444C286.439 97.0109 287.201 97.2831 287.765 97.8611C288.34 98.428 288.649 99.3245 288.692 100.55L287.189 101.083ZM294.208 105.129C293.43 105.156 292.736 105.004 292.127 104.673C291.517 104.331 291.031 103.852 290.667 103.235C290.304 102.618 290.108 101.899 290.08 101.078C290.051 100.257 290.196 99.5266 290.516 98.8857C290.835 98.2449 291.287 97.7381 291.871 97.3655C292.466 96.9818 293.153 96.7764 293.931 96.7492C294.656 96.7239 295.302 96.8881 295.869 97.2419C296.447 97.5846 296.902 98.0917 297.235 98.7631C297.579 99.4236 297.766 100.212 297.798 101.129L296.279 101.182C296.255 100.5 296.15 99.9271 295.963 99.464C295.776 99.0009 295.508 98.658 295.159 98.4354C294.82 98.2018 294.41 98.0933 293.931 98.1101C293.451 98.1268 293.034 98.2588 292.68 98.506C292.336 98.7421 292.07 99.0769 291.882 99.5104C291.705 99.9329 291.627 100.448 291.648 101.056C291.668 101.621 291.797 102.107 292.035 102.515C292.273 102.912 292.583 103.222 292.964 103.443C293.356 103.654 293.791 103.75 294.271 103.734C294.793 103.715 295.221 103.578 295.553 103.321C295.897 103.063 296.163 102.739 296.352 102.348L297.733 102.924C297.524 103.348 297.254 103.726 296.924 104.057C296.604 104.378 296.213 104.632 295.75 104.819C295.297 105.005 294.783 105.109 294.208 105.129ZM291.082 101.363L291.055 100.116L296.907 99.9113L296.951 101.159L291.082 101.363ZM303.072 104.627L302.682 93.4338L304.201 93.3808L304.54 103.087L304.512 104.577L303.072 104.627ZM307.221 104.674C306.549 104.698 305.957 104.542 305.443 104.208C304.941 103.873 304.545 103.396 304.257 102.777C303.968 102.157 303.809 101.431 303.78 100.6C303.751 99.7577 303.859 99.0228 304.104 98.3952C304.348 97.757 304.709 97.2534 305.188 96.8845C305.676 96.5152 306.256 96.3188 306.928 96.2954C307.642 96.2704 308.277 96.4244 308.833 96.7572C309.389 97.09 309.827 97.5656 310.148 98.1841C310.479 98.7916 310.659 99.5165 310.688 100.359C310.717 101.19 310.588 101.926 310.301 102.565C310.024 103.205 309.62 103.71 309.089 104.081C308.558 104.451 307.935 104.649 307.221 104.674ZM306.805 103.312C307.285 103.295 307.702 103.163 308.056 102.916C308.41 102.658 308.681 102.318 308.869 101.895C309.067 101.461 309.156 100.967 309.137 100.413C309.118 99.8584 309 99.3769 308.782 98.9683C308.565 98.5489 308.271 98.2283 307.9 98.0065C307.529 97.7739 307.104 97.6661 306.624 97.6828C306.187 97.6981 305.797 97.8344 305.454 98.0919C305.121 98.3383 304.866 98.6781 304.689 99.1112C304.512 99.5443 304.433 100.033 304.452 100.576C304.471 101.131 304.584 101.618 304.791 102.037C304.998 102.446 305.276 102.768 305.625 103.001C305.975 103.224 306.368 103.327 306.805 103.312ZM317.765 104.114L317.618 102.646L317.39 96.1221L318.893 96.0696L319.173 104.065L317.765 104.114ZM312.017 100.889L311.858 96.3153L313.377 96.2623L313.52 100.356L312.017 100.889ZM313.52 100.356C313.545 101.07 313.644 101.616 313.817 101.994C314.001 102.372 314.245 102.631 314.549 102.769C314.852 102.908 315.191 102.976 315.564 102.974C316.215 102.951 316.713 102.704 317.059 102.233C317.406 101.762 317.564 101.111 317.535 100.28L318.191 100.257C318.22 101.099 318.123 101.828 317.899 102.444C317.675 103.05 317.334 103.521 316.876 103.857C316.429 104.193 315.88 104.372 315.23 104.395C314.27 104.428 313.503 104.156 312.928 103.578C312.363 103 312.06 102.104 312.017 100.889L313.52 100.356ZM324.001 104.088C323.436 104.108 322.927 104.04 322.473 103.885C322.03 103.73 321.649 103.514 321.33 103.237C321.021 102.96 320.786 102.642 320.624 102.285L321.915 101.664C322.097 101.988 322.363 102.251 322.711 102.452C323.059 102.643 323.441 102.731 323.857 102.716C324.315 102.7 324.691 102.607 324.984 102.437C325.277 102.256 325.417 102.011 325.407 101.702C325.396 101.403 325.276 101.173 325.046 101.01C324.816 100.847 324.486 100.72 324.056 100.628L323.298 100.463C322.545 100.286 321.953 100.003 321.523 99.612C321.093 99.2214 320.87 98.7703 320.852 98.2586C320.824 97.4804 321.054 96.8694 321.54 96.4255C322.037 95.9812 322.776 95.742 323.756 95.7077C324.236 95.691 324.676 95.745 325.075 95.8698C325.485 95.9942 325.833 96.1795 326.119 96.4257C326.416 96.6715 326.629 96.9682 326.758 97.3159L325.499 97.9362C325.36 97.6209 325.133 97.394 324.819 97.2556C324.505 97.1171 324.14 97.0551 323.724 97.0697C323.298 97.0846 322.965 97.1869 322.726 97.3767C322.487 97.5665 322.374 97.8266 322.385 98.1571C322.391 98.3383 322.499 98.5106 322.707 98.6741C322.926 98.8266 323.24 98.949 323.649 99.0415L324.519 99.2192C325.046 99.3289 325.485 99.511 325.835 99.7656C326.185 100.01 326.451 100.294 326.634 100.618C326.815 100.932 326.912 101.265 326.925 101.617C326.941 102.096 326.823 102.522 326.569 102.894C326.325 103.255 325.978 103.539 325.526 103.747C325.085 103.954 324.577 104.068 324.001 104.088ZM328.517 103.738L328.269 95.7422L329.773 95.6897L330.036 103.685L328.517 103.738ZM328.946 94.0216C328.701 94.0301 328.484 93.947 328.297 93.7721C328.109 93.5865 328.011 93.3711 328.002 93.126C327.993 92.8701 328.076 92.6537 328.252 92.4769C328.426 92.2893 328.636 92.1913 328.882 92.1827C329.137 92.1738 329.354 92.2569 329.531 92.4322C329.718 92.5964 329.816 92.8065 329.825 93.0623C329.833 93.3075 329.75 93.5292 329.576 93.7274C329.412 93.9146 329.202 94.0126 328.946 94.0216ZM332.102 103.613L331.823 95.6181L333.246 95.5684L333.394 97.0362L333.621 103.56L332.102 103.613ZM337.635 103.42L337.492 99.3265L338.994 98.7938L339.154 103.367L337.635 103.42ZM337.492 99.3265C337.467 98.6017 337.362 98.0556 337.179 97.6885C337.005 97.3103 336.767 97.0518 336.463 96.913C336.17 96.7738 335.831 96.7056 335.447 96.7083C334.797 96.731 334.299 96.9779 333.952 97.4489C333.606 97.92 333.447 98.5712 333.476 99.4027L332.821 99.4256C332.791 98.5835 332.889 97.8596 333.113 97.2541C333.337 96.6379 333.673 96.1619 334.12 95.8261C334.578 95.4899 335.132 95.3105 335.782 95.2878C336.741 95.2543 337.503 95.5265 338.068 96.1045C338.643 96.6714 338.951 97.5679 338.994 98.7938L337.492 99.3265ZM344.51 103.372C343.732 103.399 343.038 103.247 342.429 102.916C341.819 102.575 341.333 102.096 340.97 101.478C340.607 100.861 340.411 100.143 340.382 99.3217C340.354 98.5008 340.499 97.77 340.818 97.1291C341.137 96.4883 341.589 95.9815 342.174 95.6089C342.769 95.2252 343.455 95.0198 344.234 94.9926C344.958 94.9673 345.605 95.1315 346.172 95.4853C346.75 95.828 347.205 96.3351 347.538 97.0065C347.881 97.667 348.069 98.4556 348.101 99.3723L346.582 99.4254C346.558 98.7431 346.452 98.1705 346.266 97.7074C346.079 97.2443 345.81 96.9014 345.461 96.6788C345.122 96.4452 344.713 96.3367 344.233 96.3535C343.753 96.3702 343.336 96.5022 342.982 96.7494C342.638 96.9855 342.372 97.3203 342.185 97.7538C342.007 98.1763 341.929 98.6913 341.95 99.2989C341.97 99.8639 342.099 100.35 342.338 100.758C342.576 101.156 342.885 101.465 343.267 101.686C343.658 101.897 344.094 101.994 344.574 101.977C345.096 101.959 345.523 101.821 345.856 101.564C346.199 101.307 346.465 100.982 346.654 100.592L348.035 101.168C347.826 101.591 347.556 101.969 347.226 102.301C346.907 102.621 346.515 102.875 346.052 103.062C345.6 103.249 345.086 103.352 344.51 103.372ZM341.385 99.6069L341.357 98.3591L347.21 98.1547L347.253 99.4019L341.385 99.6069ZM352.5 103.093C351.935 103.113 351.426 103.045 350.972 102.89C350.529 102.735 350.148 102.519 349.829 102.242C349.52 101.964 349.285 101.647 349.123 101.29L350.414 100.668C350.596 100.993 350.861 101.256 351.21 101.457C351.558 101.648 351.94 101.736 352.356 101.721C352.814 101.705 353.19 101.612 353.483 101.442C353.775 101.261 353.916 101.016 353.905 100.707C353.895 100.408 353.775 100.177 353.545 100.015C353.315 99.852 352.985 99.7247 352.555 99.633L351.797 99.4674C351.044 99.2909 350.452 99.0074 350.022 98.6168C349.592 98.2262 349.368 97.7751 349.351 97.2634C349.323 96.4852 349.553 95.8742 350.039 95.4303C350.536 94.986 351.275 94.7467 352.255 94.7125C352.735 94.6957 353.174 94.7498 353.574 94.8746C353.984 94.999 354.332 95.1843 354.618 95.4305C354.915 95.6763 355.128 95.973 355.257 96.3207L353.998 96.941C353.859 96.6257 353.632 96.3988 353.318 96.2604C353.004 96.1219 352.639 96.0599 352.223 96.0745C351.796 96.0894 351.464 96.1917 351.225 96.3815C350.986 96.5713 350.872 96.8314 350.884 97.1619C350.89 97.3431 350.998 97.5154 351.206 97.6789C351.425 97.8314 351.739 97.9538 352.148 98.0463L353.018 98.224C353.545 98.3337 353.984 98.5158 354.334 98.7704C354.684 99.0144 354.95 99.2986 355.132 99.6231C355.314 99.9369 355.411 100.27 355.423 100.622C355.44 101.101 355.322 101.527 355.068 101.899C354.824 102.259 354.477 102.544 354.025 102.752C353.584 102.959 353.076 103.073 352.5 103.093ZM359.773 102.839C359.208 102.859 358.699 102.791 358.245 102.636C357.802 102.481 357.421 102.265 357.102 101.988C356.793 101.71 356.558 101.393 356.396 101.036L357.687 100.414C357.869 100.739 358.135 101.002 358.483 101.203C358.831 101.394 359.213 101.482 359.629 101.467C360.087 101.451 360.463 101.358 360.756 101.188C361.048 101.007 361.189 100.762 361.179 100.453C361.168 100.154 361.048 99.9235 360.818 99.7607C360.588 99.598 360.258 99.4708 359.828 99.3791L359.07 99.2134C358.317 99.0369 357.725 98.7534 357.295 98.3628C356.865 97.9723 356.641 97.5211 356.624 97.0094C356.596 96.2313 356.826 95.6202 357.312 95.1763C357.809 94.732 358.548 94.4928 359.528 94.4585C360.008 94.4418 360.448 94.4958 360.847 94.6206C361.257 94.745 361.605 94.9303 361.891 95.1765C362.188 95.4223 362.401 95.719 362.53 96.0667L361.271 96.6871C361.132 96.3717 360.905 96.1448 360.591 96.0064C360.277 95.8679 359.912 95.806 359.496 95.8205C359.069 95.8354 358.737 95.9377 358.498 96.1275C358.259 96.3173 358.145 96.5774 358.157 96.9079C358.163 97.0891 358.271 97.2615 358.479 97.4249C358.698 97.5774 359.012 97.6999 359.421 97.7923L360.291 97.97C360.818 98.0797 361.257 98.2618 361.607 98.5164C361.957 98.7604 362.223 99.0446 362.405 99.3691C362.587 99.683 362.684 100.016 362.697 100.368C362.713 100.847 362.595 101.273 362.341 101.645C362.097 102.005 361.75 102.29 361.298 102.498C360.857 102.705 360.349 102.819 359.773 102.839ZM370.806 102.454C370.241 102.474 369.731 102.406 369.278 102.251C368.835 102.096 368.453 101.88 368.134 101.603C367.826 101.325 367.591 101.008 367.429 100.651L368.72 100.029C368.902 100.354 369.167 100.617 369.516 100.818C369.864 101.008 370.246 101.097 370.662 101.082C371.12 101.066 371.496 100.973 371.789 100.803C372.081 100.622 372.222 100.376 372.211 100.067C372.201 99.7688 372.081 99.5382 371.851 99.3755C371.621 99.2127 371.291 99.0855 370.861 98.9938L370.103 98.8281C369.349 98.6517 368.758 98.3681 368.328 97.9776C367.898 97.587 367.674 97.1359 367.656 96.6242C367.629 95.846 367.859 95.2349 368.345 94.791C368.842 94.3468 369.58 94.1075 370.561 94.0733C371.041 94.0565 371.48 94.1105 371.879 94.2353C372.289 94.3598 372.637 94.5451 372.924 94.7912C373.22 95.037 373.433 95.3338 373.563 95.6815L372.304 96.3018C372.165 95.9864 371.938 95.7596 371.624 95.6211C371.309 95.4827 370.944 95.4207 370.529 95.4352C370.102 95.4501 369.769 95.5524 369.531 95.7422C369.292 95.932 369.178 96.1921 369.19 96.5226C369.196 96.7038 369.303 96.8762 369.512 97.0397C369.731 97.1921 370.044 97.3146 370.453 97.407L371.324 97.5848C371.851 97.6944 372.289 97.8766 372.64 98.1312C372.99 98.3751 373.256 98.6593 373.438 98.9838C373.62 99.2977 373.717 99.6305 373.729 99.9823C373.746 100.462 373.627 100.888 373.374 101.259C373.13 101.62 372.782 101.904 372.331 102.112C371.89 102.32 371.381 102.434 370.806 102.454ZM376.319 105.463C376.085 105.471 375.822 105.438 375.531 105.363C375.251 105.287 374.959 105.185 374.656 105.057L375.172 103.79C375.41 103.889 375.616 103.962 375.788 104.009C375.971 104.056 376.116 104.077 376.223 104.074C376.489 104.064 376.71 103.982 376.886 103.826C377.073 103.67 377.22 103.457 377.328 103.187L378.179 100.964L380.783 93.9084L382.414 93.8515L378.938 102.97C378.752 103.468 378.554 103.902 378.343 104.272C378.132 104.642 377.864 104.929 377.54 105.132C377.227 105.335 376.82 105.446 376.319 105.463ZM377.8 102.017L374.019 94.1446L375.634 94.0882L378.77 100.927L379.271 101.966L377.8 102.017ZM386.57 101.903C386.005 101.923 385.495 101.855 385.042 101.701C384.599 101.545 384.218 101.329 383.898 101.052C383.59 100.775 383.355 100.457 383.193 100.1L384.484 99.4786C384.666 99.8032 384.931 100.066 385.28 100.267C385.628 100.458 386.01 100.546 386.426 100.532C386.884 100.516 387.26 100.422 387.553 100.252C387.845 100.071 387.986 99.826 387.975 99.5168C387.965 99.2183 387.845 98.9877 387.615 98.825C387.385 98.6622 387.055 98.535 386.625 98.4433L385.867 98.2776C385.114 98.1012 384.522 97.8176 384.092 97.4271C383.662 97.0365 383.438 96.5854 383.42 96.0737C383.393 95.2955 383.623 94.6844 384.109 94.2405C384.606 93.7963 385.344 93.557 386.325 93.5228C386.805 93.506 387.244 93.56 387.644 93.6848C388.054 93.8093 388.402 93.9946 388.688 94.2407C388.984 94.4865 389.198 94.7833 389.327 95.131L388.068 95.7513C387.929 95.436 387.702 95.2091 387.388 95.0706C387.073 94.9322 386.708 94.8702 386.293 94.8847C385.866 94.8996 385.534 95.0019 385.295 95.1917C385.056 95.3815 384.942 95.6416 384.954 95.9721C384.96 96.1533 385.068 96.3257 385.276 96.4892C385.495 96.6416 385.809 96.7641 386.217 96.8565L387.088 97.0343C387.615 97.1439 388.054 97.3261 388.404 97.5807C388.754 97.8246 389.02 98.1088 389.202 98.4333C389.384 98.7472 389.481 99.08 389.493 99.4318C389.51 99.9115 389.391 100.337 389.138 100.709C388.894 101.07 388.546 101.354 388.095 101.562C387.654 101.769 387.145 101.883 386.57 101.903ZM394.242 101.635C393.443 101.663 392.817 101.482 392.366 101.093C391.915 100.692 391.675 100.108 391.649 99.3405L391.359 91.0416L392.878 90.9885L393.16 99.0636C393.174 99.458 393.28 99.7585 393.479 99.965C393.689 100.16 393.98 100.252 394.354 100.239C394.46 100.235 394.577 100.21 394.703 100.162C394.83 100.115 394.981 100.025 395.158 99.8904L395.775 101.054C395.504 101.244 395.242 101.387 394.989 101.481C394.747 101.575 394.498 101.626 394.242 101.635ZM390.132 94.8947L390.087 93.5835L395.236 93.4037L395.281 94.7149L390.132 94.8947ZM400.68 101.411C399.902 101.438 399.208 101.286 398.599 100.955C397.99 100.613 397.503 100.134 397.14 99.517C396.777 98.8999 396.581 98.181 396.552 97.3602C396.524 96.5393 396.669 95.8085 396.988 95.1676C397.307 94.5268 397.759 94.02 398.344 93.6474C398.939 93.2637 399.626 93.0583 400.404 93.0311C401.129 93.0058 401.775 93.17 402.342 93.5238C402.92 93.8665 403.375 94.3736 403.708 95.045C404.051 95.7055 404.239 96.4941 404.271 97.4108L402.752 97.4639C402.728 96.7816 402.623 96.209 402.436 95.7459C402.249 95.2828 401.981 94.9399 401.631 94.7173C401.292 94.4837 400.883 94.3752 400.403 94.392C399.923 94.4087 399.506 94.5407 399.152 94.7879C398.808 95.024 398.542 95.3588 398.355 95.7923C398.177 96.2148 398.099 96.7298 398.121 97.3374C398.14 97.9024 398.269 98.3889 398.508 98.7968C398.746 99.1941 399.055 99.5035 399.437 99.7249C399.828 99.9354 400.264 100.032 400.744 100.016C401.266 99.9973 401.693 99.8596 402.026 99.6025C402.369 99.345 402.635 99.0209 402.825 98.63L404.206 99.2062C403.996 99.6298 403.727 100.007 403.397 100.339C403.077 100.66 402.686 100.914 402.222 101.101C401.77 101.287 401.256 101.39 400.68 101.411ZM397.555 97.6454L397.527 96.3976L403.38 96.1932L403.423 97.4404L397.555 97.6454ZM405.801 101.04L405.522 93.0445L406.945 92.9948L407.092 94.4626L407.32 100.987L405.801 101.04ZM411.334 100.846L411.191 96.7529L412.693 96.2202L412.853 100.793L411.334 100.846ZM416.866 100.653L416.723 96.5597L418.21 96.0275L418.369 100.601L416.866 100.653ZM411.191 96.7529C411.165 96.028 411.061 95.482 410.877 95.1149C410.704 94.7367 410.466 94.4782 410.162 94.3394C409.869 94.2002 409.53 94.1319 409.146 94.1347C408.496 94.1574 407.998 94.4043 407.651 94.8753C407.305 95.3464 407.146 95.9976 407.175 96.8291L406.519 96.852C406.49 96.0099 406.587 95.286 406.812 94.6805C407.036 94.0643 407.371 93.5883 407.819 93.2525C408.276 92.9163 408.831 92.7369 409.481 92.7141C410.44 92.6806 411.202 92.9529 411.767 93.5309C412.341 94.0978 412.65 94.9943 412.693 96.2202L411.191 96.7529ZM416.723 96.5597C416.698 95.8348 416.594 95.2888 416.41 94.9217C416.226 94.5439 415.988 94.2853 415.695 94.1462C415.402 94.007 415.063 93.9387 414.679 93.9415C414.029 93.9642 413.53 94.2111 413.184 94.6821C412.837 95.1532 412.679 95.8044 412.708 96.6359L412.052 96.6588C412.023 95.8167 412.12 95.0928 412.344 94.4873C412.568 93.8711 412.904 93.3951 413.351 93.0593C413.809 92.7231 414.363 92.5436 415.013 92.5209C415.973 92.4874 416.735 92.7597 417.299 93.3377C417.874 93.9046 418.178 94.8012 418.21 96.0275L416.723 96.5597Z" fill="#212121"/>
<rect x="199.457" y="137.315" width="222" height="51" rx="11.5" transform="rotate(2 199.457 137.315)" fill="white"/>
<rect x="199.457" y="137.315" width="222" height="51" rx="11.5" transform="rotate(2 199.457 137.315)" stroke="url(#paint2_linear_2217_1529)"/>
<g clip-path="url(#clip2_2217_1529)">
<path d="M232.259 161.474C232.227 162.409 231.962 163.322 231.489 164.129C231.016 164.936 230.349 165.612 229.549 166.096C228.749 166.581 227.84 166.858 226.906 166.902C225.971 166.947 225.04 166.758 224.197 166.352L219.969 170.912C219.959 170.923 219.947 170.934 219.937 170.944C219.452 171.396 218.807 171.637 218.145 171.614C217.482 171.591 216.855 171.306 216.403 170.821C215.951 170.336 215.71 169.691 215.733 169.028C215.756 168.365 216.042 167.739 216.527 167.287C216.538 167.277 216.549 167.266 216.561 167.258L221.405 163.358C221.017 162.379 220.912 161.312 221.1 160.277C221.288 159.241 221.763 158.28 222.47 157.5C223.177 156.721 224.088 156.155 225.101 155.868C226.113 155.58 227.186 155.582 228.197 155.873C228.301 155.903 228.396 155.96 228.471 156.037C228.547 156.115 228.601 156.211 228.629 156.316C228.656 156.421 228.656 156.531 228.627 156.636C228.599 156.741 228.544 156.837 228.468 156.914L225.431 159.985L225.801 162.058L227.843 162.571L231.119 159.752C231.201 159.682 231.3 159.633 231.407 159.613C231.513 159.592 231.623 159.599 231.726 159.634C231.829 159.668 231.921 159.729 231.993 159.81C232.065 159.891 232.115 159.989 232.138 160.095C232.234 160.548 232.275 161.012 232.259 161.474Z" fill="#212121"/>
</g>
<path d="M245.197 170.432L245.247 169.008L248.269 169.114C248.93 169.137 249.447 169 249.82 168.704C250.204 168.397 250.406 167.977 250.424 167.444C250.445 166.847 250.248 166.376 249.833 166.031C249.429 165.686 248.848 165.505 248.091 165.49L245.373 165.395L245.418 164.099L247.352 164.183C248.333 164.217 249.176 164.364 249.882 164.624C250.599 164.883 251.141 165.26 251.508 165.753C251.875 166.246 252.046 166.855 252.021 167.58C251.998 168.23 251.829 168.785 251.514 169.243C251.21 169.692 250.788 170.029 250.246 170.256C249.705 170.472 249.061 170.566 248.315 170.54L245.197 170.432ZM244.253 170.399L244.644 159.205L246.195 159.26L245.804 170.453L244.253 170.399ZM245.339 165.441L245.388 164.05L248.33 164.153C248.906 164.173 249.364 164.034 249.705 163.737C250.057 163.44 250.243 163.019 250.262 162.475C250.281 161.91 250.105 161.467 249.732 161.144C249.359 160.822 248.826 160.654 248.132 160.64L245.51 160.548L245.555 159.253L248.243 159.315C249.01 159.342 249.662 159.487 250.197 159.752C250.743 160.005 251.157 160.367 251.44 160.836C251.733 161.305 251.868 161.875 251.844 162.547C251.823 163.144 251.634 163.665 251.277 164.112C250.931 164.559 250.444 164.899 249.817 165.134C249.189 165.368 248.455 165.47 247.612 165.441L245.339 165.441ZM258.938 170.911L258.893 169.437L259.121 162.913L260.624 162.965L260.345 170.961L258.938 170.911ZM253.429 167.293L253.588 162.72L255.107 162.773L254.964 166.866L253.429 167.293ZM254.964 166.866C254.94 167.58 255 168.132 255.147 168.522C255.304 168.911 255.529 169.186 255.822 169.346C256.116 169.505 256.449 169.597 256.821 169.621C257.472 169.643 257.986 169.432 258.365 168.986C258.743 168.54 258.947 167.902 258.976 167.07L259.631 167.093C259.602 167.935 259.454 168.656 259.188 169.255C258.922 169.844 258.549 170.289 258.068 170.593C257.599 170.897 257.039 171.037 256.389 171.014C255.429 170.981 254.683 170.656 254.149 170.04C253.626 169.424 253.386 168.508 253.429 167.293L254.964 166.866ZM262.4 171.032L262.712 163.038L264.215 163.091L263.919 171.085L262.4 171.032ZM263.506 161.369C263.261 161.36 263.051 161.262 262.876 161.075C262.702 160.877 262.619 160.655 262.627 160.41C262.636 160.154 262.734 159.944 262.921 159.78C263.109 159.605 263.325 159.522 263.57 159.53C263.826 159.539 264.036 159.637 264.201 159.824C264.376 160.001 264.459 160.218 264.45 160.473C264.442 160.719 264.343 160.934 264.155 161.12C263.978 161.295 263.762 161.378 263.506 161.369ZM265.986 171.158L266.409 159.965L267.912 160.018L267.505 171.211L265.986 171.158ZM272.719 171.585C271.92 171.557 271.309 171.333 270.886 170.912C270.463 170.481 270.265 169.882 270.292 169.115L270.582 160.816L272.101 160.869L271.819 168.944C271.805 169.338 271.891 169.645 272.075 169.865C272.27 170.075 272.555 170.186 272.928 170.199C273.034 170.203 273.152 170.186 273.282 170.148C273.411 170.109 273.569 170.029 273.755 169.908L274.289 171.111C274.005 171.283 273.734 171.407 273.475 171.483C273.227 171.56 272.975 171.594 272.719 171.585ZM269.09 164.574L269.136 163.263L274.284 163.442L274.239 164.754L269.09 164.574ZM280.11 171.651L280.42 162.776C280.449 161.934 280.674 161.307 281.094 160.895C281.514 160.472 282.135 160.274 282.956 160.303C283.201 160.312 283.466 160.364 283.751 160.459C284.036 160.544 284.325 160.66 284.619 160.809L284.018 161.957C283.798 161.843 283.604 161.761 283.435 161.713C283.277 161.654 283.139 161.622 283.022 161.618C282.67 161.606 282.405 161.714 282.226 161.943C282.048 162.161 281.95 162.509 281.933 162.989L281.629 171.704L280.11 171.651ZM278.922 164.869L278.966 163.606L284.115 163.786L284.071 165.049L278.922 164.869ZM288.833 172.147C288.045 172.12 287.347 171.919 286.741 171.546C286.146 171.162 285.684 170.65 285.354 170.009C285.035 169.368 284.89 168.637 284.918 167.816C284.947 166.995 285.143 166.276 285.506 165.659C285.869 165.042 286.36 164.569 286.98 164.238C287.611 163.897 288.316 163.74 289.094 163.767C289.894 163.795 290.591 164.001 291.186 164.385C291.781 164.758 292.238 165.265 292.558 165.906C292.887 166.547 293.038 167.278 293.009 168.099C292.981 168.92 292.779 169.638 292.406 170.255C292.043 170.872 291.551 171.351 290.931 171.692C290.321 172.023 289.622 172.175 288.833 172.147ZM288.884 170.708C289.363 170.725 289.789 170.623 290.159 170.401C290.53 170.179 290.823 169.869 291.04 169.471C291.268 169.063 291.391 168.587 291.41 168.043C291.429 167.51 291.339 167.032 291.14 166.609C290.952 166.186 290.676 165.851 290.311 165.603C289.946 165.355 289.523 165.223 289.044 165.207C288.575 165.19 288.15 165.293 287.768 165.514C287.398 165.736 287.098 166.051 286.871 166.46C286.654 166.858 286.536 167.328 286.517 167.872C286.499 168.405 286.583 168.883 286.771 169.306C286.97 169.729 287.252 170.064 287.617 170.312C287.982 170.559 288.404 170.692 288.884 170.708ZM295.512 167.882C295.542 167.018 295.732 166.321 296.081 165.789C296.431 165.256 296.871 164.866 297.403 164.618C297.935 164.37 298.488 164.256 299.064 164.276L299.014 165.715C298.534 165.698 298.073 165.757 297.631 165.891C297.199 166.014 296.839 166.237 296.551 166.557C296.273 166.868 296.125 167.3 296.105 167.855L295.512 167.882ZM294.434 172.151L294.713 164.156L296.232 164.209L295.953 172.204L294.434 172.151ZM304.45 175.895C304.215 175.887 303.956 175.835 303.671 175.739C303.397 175.645 303.113 175.523 302.819 175.374L303.422 174.146C303.653 174.261 303.853 174.348 304.022 174.407C304.201 174.467 304.344 174.498 304.451 174.502C304.717 174.511 304.944 174.444 305.13 174.302C305.327 174.159 305.489 173.957 305.616 173.694L306.619 171.536L309.709 164.679L311.34 164.736L307.236 173.591C307.016 174.074 306.788 174.493 306.552 174.847C306.315 175.202 306.028 175.47 305.691 175.65C305.365 175.831 304.951 175.912 304.45 175.895ZM306.167 172.561L302.945 164.443L304.56 164.5L307.212 171.54L307.639 172.612L306.167 172.561ZM315.537 173.08C314.748 173.052 314.05 172.852 313.444 172.479C312.849 172.095 312.387 171.582 312.057 170.941C311.738 170.3 311.593 169.57 311.621 168.749C311.65 167.928 311.846 167.209 312.209 166.592C312.572 165.975 313.064 165.501 313.683 165.17C314.314 164.83 315.019 164.673 315.797 164.7C316.597 164.728 317.294 164.934 317.889 165.317C318.484 165.69 318.941 166.197 319.261 166.838C319.59 167.479 319.741 168.21 319.712 169.031C319.684 169.852 319.482 170.571 319.109 171.187C318.746 171.805 318.254 172.284 317.634 172.625C317.024 172.956 316.325 173.108 315.537 173.08ZM315.587 171.641C316.066 171.658 316.492 171.555 316.862 171.333C317.233 171.111 317.527 170.801 317.743 170.403C317.971 169.995 318.094 169.519 318.113 168.975C318.132 168.442 318.042 167.964 317.843 167.541C317.655 167.118 317.379 166.783 317.014 166.536C316.649 166.288 316.227 166.156 315.747 166.139C315.278 166.123 314.853 166.225 314.471 166.447C314.101 166.669 313.802 166.984 313.574 167.392C313.357 167.79 313.239 168.261 313.22 168.805C313.202 169.338 313.286 169.815 313.474 170.238C313.673 170.661 313.955 170.997 314.32 171.244C314.685 171.492 315.107 171.624 315.587 171.641ZM326.574 173.273L326.529 171.799L326.757 165.275L328.26 165.327L327.981 173.322L326.574 173.273ZM321.065 169.655L321.225 165.082L322.744 165.135L322.601 169.228L321.065 169.655ZM322.601 169.228C322.576 169.942 322.637 170.494 322.783 170.884C322.94 171.273 323.165 171.548 323.459 171.708C323.752 171.867 324.085 171.959 324.458 171.983C325.108 172.005 325.622 171.794 326.001 171.348C326.379 170.902 326.583 170.264 326.612 169.432L327.268 169.455C327.238 170.297 327.09 171.018 326.824 171.617C326.558 172.205 326.185 172.651 325.705 172.955C325.235 173.259 324.675 173.399 324.025 173.376C323.065 173.343 322.319 173.018 321.785 172.402C321.263 171.786 321.022 170.87 321.065 169.655L322.601 169.228ZM331.018 169.122C331.048 168.258 331.238 167.561 331.588 167.028C331.937 166.496 332.378 166.106 332.909 165.858C333.441 165.61 333.995 165.496 334.57 165.516L334.52 166.955C334.04 166.938 333.579 166.997 333.137 167.131C332.706 167.254 332.346 167.477 332.057 167.797C331.78 168.108 331.631 168.54 331.612 169.095L331.018 169.122ZM329.941 173.391L330.22 165.396L331.739 165.449L331.46 173.444L329.941 173.391ZM346.423 173.966L349.405 166.066L350.924 166.119L347.926 174.019L346.423 173.966ZM341.034 173.778L343.968 165.876L345.343 165.924L342.441 173.827L341.034 173.778ZM340.922 173.774L338.483 165.684L340.018 165.738L342.377 173.825L340.922 173.774ZM346.423 173.966L344.08 165.88L345.471 165.928L347.83 174.016L346.423 173.966ZM355.165 174.464C354.377 174.436 353.679 174.236 353.073 173.862C352.478 173.479 352.016 172.966 351.686 172.325C351.367 171.684 351.222 170.953 351.25 170.133C351.279 169.312 351.475 168.593 351.838 167.976C352.201 167.359 352.692 166.885 353.312 166.554C353.943 166.213 354.648 166.057 355.426 166.084C356.226 166.112 356.923 166.318 357.518 166.701C358.113 167.074 358.57 167.581 358.89 168.222C359.219 168.863 359.37 169.594 359.341 170.415C359.313 171.236 359.111 171.955 358.738 172.571C358.375 173.188 357.883 173.668 357.263 174.009C356.653 174.34 355.954 174.491 355.165 174.464ZM355.216 173.025C355.695 173.041 356.121 172.939 356.491 172.717C356.862 172.495 357.156 172.185 357.372 171.787C357.6 171.379 357.723 170.903 357.742 170.359C357.761 169.826 357.671 169.348 357.472 168.925C357.284 168.502 357.008 168.167 356.643 167.919C356.278 167.672 355.856 167.54 355.376 167.523C354.907 167.507 354.482 167.609 354.1 167.831C353.73 168.052 353.431 168.368 353.203 168.776C352.986 169.174 352.868 169.645 352.849 170.188C352.831 170.721 352.915 171.199 353.103 171.622C353.302 172.045 353.584 172.381 353.949 172.628C354.314 172.876 354.736 173.008 355.216 173.025ZM361.844 170.198C361.874 169.335 362.064 168.637 362.413 168.105C362.763 167.573 363.203 167.183 363.735 166.934C364.267 166.686 364.82 166.572 365.396 166.592L365.346 168.031C364.866 168.014 364.405 168.073 363.963 168.207C363.531 168.331 363.171 168.553 362.883 168.874C362.605 169.184 362.457 169.617 362.437 170.171L361.844 170.198ZM360.766 174.467L361.045 166.472L362.565 166.525L362.285 174.52L360.766 174.467ZM367.737 172.293L366.829 171.221L371.193 166.827L373.048 166.891L367.737 172.293ZM366.181 174.656L366.572 163.463L368.091 163.516L367.7 174.709L366.181 174.656ZM371.25 174.833L368.461 170.349L369.489 169.329L373.073 174.897L371.25 174.833ZM374.816 174.958L375.126 166.083C375.155 165.241 375.38 164.614 375.8 164.202C376.22 163.779 376.841 163.582 377.662 163.61C377.907 163.619 378.172 163.671 378.457 163.766C378.742 163.851 379.031 163.968 379.325 164.117L378.725 165.264C378.504 165.15 378.31 165.069 378.141 165.02C377.983 164.961 377.845 164.93 377.728 164.925C377.376 164.913 377.111 165.021 376.932 165.25C376.754 165.468 376.656 165.817 376.639 166.296L376.335 175.011L374.816 174.958ZM373.628 168.176L373.672 166.913L378.821 167.093L378.777 168.356L373.628 168.176ZM379.868 175.134L380.291 163.942L381.794 163.995L381.387 175.187L379.868 175.134ZM387.034 175.577C386.245 175.549 385.547 175.349 384.941 174.975C384.346 174.592 383.884 174.079 383.554 173.438C383.235 172.797 383.09 172.066 383.118 171.245C383.147 170.425 383.343 169.706 383.706 169.089C384.069 168.472 384.561 167.998 385.18 167.667C385.811 167.326 386.516 167.17 387.294 167.197C388.094 167.225 388.791 167.43 389.386 167.814C389.981 168.187 390.438 168.694 390.758 169.335C391.087 169.976 391.238 170.707 391.209 171.528C391.181 172.349 390.98 173.068 390.606 173.684C390.243 174.301 389.751 174.78 389.131 175.122C388.521 175.453 387.822 175.604 387.034 175.577ZM387.084 174.138C387.564 174.154 387.989 174.052 388.359 173.83C388.73 173.608 389.024 173.298 389.24 172.9C389.468 172.492 389.591 172.016 389.61 171.472C389.629 170.939 389.539 170.461 389.34 170.038C389.152 169.615 388.876 169.28 388.511 169.032C388.146 168.785 387.724 168.653 387.244 168.636C386.775 168.619 386.35 168.722 385.968 168.943C385.598 169.165 385.299 169.48 385.071 169.889C384.854 170.287 384.736 170.758 384.717 171.301C384.699 171.834 384.783 172.312 384.971 172.735C385.17 173.158 385.452 173.494 385.817 173.741C386.182 173.989 386.604 174.121 387.084 174.138ZM399.708 175.827L402.69 167.926L404.209 167.979L401.211 175.88L399.708 175.827ZM394.319 175.639L397.253 167.737L398.628 167.785L395.726 175.688L394.319 175.639ZM394.207 175.635L391.768 167.545L393.303 167.599L395.662 175.686L394.207 175.635ZM399.708 175.827L397.365 167.74L398.756 167.789L401.115 175.876L399.708 175.827Z" fill="#212121"/>
<rect x="197.677" y="212.814" width="222" height="51" rx="11.5" transform="rotate(-2 197.677 212.814)" fill="white"/>
<rect x="197.677" y="212.814" width="222" height="51" rx="11.5" transform="rotate(-2 197.677 212.814)" stroke="url(#paint3_linear_2217_1529)"/>
<g clip-path="url(#clip3_2217_1529)">
<path d="M232.39 243.371C232.396 243.536 232.335 243.698 232.222 243.819C232.109 243.94 231.953 244.011 231.787 244.017L216.796 244.541C216.631 244.547 216.469 244.486 216.348 244.373C216.227 244.26 216.156 244.104 216.15 243.938C216.144 243.772 216.204 243.611 216.317 243.49C216.43 243.369 216.587 243.297 216.753 243.291L217.377 243.27L217.203 238.273C217.197 238.107 217.257 237.946 217.37 237.825C217.483 237.703 217.64 237.632 217.806 237.626L219.679 237.561C219.845 237.555 220.006 237.615 220.127 237.728C220.249 237.841 220.32 237.998 220.326 238.164L220.5 243.161L221.75 243.117L221.444 234.372C221.438 234.207 221.499 234.045 221.612 233.924C221.725 233.803 221.881 233.732 222.047 233.726L224.545 233.639C224.711 233.633 224.872 233.693 224.994 233.806C225.115 233.919 225.186 234.076 225.192 234.241L225.497 242.986L226.747 242.942L226.31 230.45C226.304 230.284 226.365 230.123 226.478 230.002C226.591 229.881 226.747 229.809 226.913 229.804L230.036 229.695C230.202 229.689 230.363 229.749 230.484 229.862C230.605 229.975 230.677 230.132 230.683 230.297L231.119 242.79L231.743 242.768C231.909 242.762 232.07 242.822 232.192 242.936C232.313 243.049 232.384 243.205 232.39 243.371Z" fill="#212121"/>
</g>
<path d="M244.673 242.692L244.282 231.498L245.849 231.444L246.24 242.637L244.673 242.692ZM245.872 242.65L245.822 241.211L251.387 241.016L251.437 242.455L245.872 242.65ZM252.627 242.414L252.379 234.418L253.883 234.365L254.146 242.361L252.627 242.414ZM253.056 232.697C252.811 232.705 252.594 232.622 252.407 232.447C252.219 232.262 252.121 232.046 252.112 231.801C252.103 231.545 252.186 231.329 252.362 231.152C252.536 230.965 252.746 230.867 252.992 230.858C253.247 230.849 253.464 230.932 253.641 231.108C253.828 231.272 253.926 231.482 253.935 231.738C253.943 231.983 253.86 232.205 253.686 232.403C253.522 232.59 253.312 232.688 253.056 232.697ZM258.723 242.201L261.642 234.094L263.225 234.039L260.162 242.151L258.723 242.201ZM258.627 242.204L255.022 234.325L256.573 234.271L260.05 242.155L258.627 242.204ZM267.933 242.071C267.155 242.099 266.461 241.947 265.852 241.616C265.242 241.274 264.756 240.795 264.393 240.178C264.03 239.561 263.834 238.842 263.805 238.021C263.777 237.2 263.922 236.469 264.241 235.828C264.56 235.188 265.012 234.681 265.597 234.308C266.192 233.925 266.878 233.719 267.656 233.692C268.381 233.667 269.027 233.831 269.595 234.185C270.172 234.527 270.628 235.034 270.961 235.706C271.304 236.366 271.492 237.155 271.524 238.072L270.005 238.125C269.981 237.442 269.875 236.87 269.688 236.407C269.502 235.944 269.233 235.601 268.884 235.378C268.545 235.144 268.136 235.036 267.656 235.053C267.176 235.07 266.759 235.202 266.405 235.449C266.061 235.685 265.795 236.02 265.608 236.453C265.43 236.876 265.352 237.391 265.373 237.998C265.393 238.563 265.522 239.05 265.761 239.458C265.999 239.855 266.308 240.164 266.689 240.386C267.081 240.596 267.517 240.693 267.996 240.676C268.519 240.658 268.946 240.52 269.279 240.263C269.622 240.006 269.888 239.682 270.077 239.291L271.458 239.867C271.249 240.291 270.979 240.668 270.649 241C270.33 241.321 269.938 241.574 269.475 241.761C269.023 241.948 268.509 242.051 267.933 242.071ZM264.808 238.306L264.78 237.058L270.633 236.854L270.676 238.101L264.808 238.306ZM282.65 241.365L282.534 239.88L282.195 230.174L283.699 230.122L284.089 241.315L282.65 241.365ZM279.971 241.651C279.246 241.676 278.605 241.523 278.049 241.19C277.504 240.857 277.066 240.381 276.735 239.763C276.414 239.144 276.24 238.419 276.211 237.588C276.181 236.746 276.305 236.01 276.582 235.381C276.869 234.742 277.273 234.237 277.794 233.866C278.325 233.495 278.953 233.297 279.678 233.272C280.35 233.249 280.937 233.404 281.439 233.739C281.953 234.073 282.354 234.55 282.642 235.17C282.93 235.779 283.089 236.504 283.118 237.347C283.147 238.178 283.04 238.913 282.795 239.551C282.551 240.189 282.184 240.693 281.695 241.062C281.217 241.431 280.642 241.628 279.971 241.651ZM280.274 240.264C280.722 240.248 281.112 240.117 281.445 239.87C281.778 239.613 282.033 239.274 282.21 238.851C282.387 238.418 282.466 237.924 282.447 237.37C282.427 236.816 282.314 236.334 282.108 235.925C281.901 235.505 281.623 235.184 281.274 234.961C280.924 234.728 280.52 234.62 280.062 234.636C279.593 234.652 279.181 234.789 278.827 235.047C278.473 235.294 278.202 235.634 278.015 236.068C277.827 236.491 277.742 236.979 277.762 237.534C277.781 238.088 277.899 238.575 278.117 238.994C278.344 239.402 278.644 239.723 279.015 239.955C279.385 240.177 279.805 240.28 280.274 240.264ZM291.011 241.073L290.754 236.904C290.723 236.318 290.636 235.835 290.495 235.456C290.353 235.066 290.146 234.774 289.872 234.581C289.599 234.388 289.238 234.299 288.79 234.315C288.374 234.329 288.01 234.427 287.696 234.609C287.393 234.79 287.146 235.066 286.956 235.435L285.579 234.971C285.758 234.602 285.987 234.269 286.265 233.971C286.553 233.672 286.902 233.436 287.313 233.262C287.733 233.076 288.215 232.974 288.759 232.955C289.516 232.929 290.15 233.051 290.661 233.321C291.172 233.591 291.56 234.01 291.825 234.577C292.101 235.133 292.253 235.832 292.283 236.674L292.435 241.024L291.011 241.073ZM288.668 241.347C287.719 241.38 286.97 241.193 286.423 240.785C285.885 240.367 285.603 239.773 285.576 239.006C285.547 238.185 285.797 237.552 286.326 237.106C286.855 236.65 287.614 236.405 288.606 236.37L291.276 236.277L291.334 237.476L289.063 237.555C288.328 237.581 287.81 237.716 287.509 237.962C287.218 238.196 287.08 238.516 287.094 238.921C287.107 239.294 287.261 239.582 287.556 239.785C287.851 239.978 288.249 240.065 288.75 240.048C289.187 240.032 289.557 239.918 289.859 239.705C290.172 239.491 290.408 239.216 290.567 238.88C290.736 238.532 290.813 238.15 290.799 237.735L291.534 237.709C291.572 238.796 291.352 239.669 290.873 240.326C290.394 240.972 289.659 241.313 288.668 241.347ZM297.439 241.041C296.639 241.069 296.014 240.888 295.563 240.498C295.111 240.098 294.872 239.514 294.845 238.746L294.555 230.447L296.074 230.394L296.356 238.469C296.37 238.864 296.477 239.164 296.676 239.371C296.886 239.566 297.177 239.657 297.55 239.644C297.657 239.641 297.773 239.615 297.9 239.568C298.026 239.521 298.178 239.43 298.354 239.296L298.971 240.459C298.701 240.65 298.439 240.793 298.186 240.887C297.944 240.981 297.695 241.032 297.439 241.041ZM293.329 234.3L293.283 232.989L298.432 232.809L298.478 234.121L293.329 234.3ZM305.245 240.576L304.988 236.407C304.956 235.821 304.87 235.338 304.729 234.959C304.587 234.569 304.38 234.277 304.106 234.084C303.832 233.891 303.472 233.802 303.024 233.818C302.608 233.832 302.243 233.93 301.93 234.112C301.626 234.293 301.38 234.569 301.19 234.938L299.813 234.474C299.992 234.105 300.221 233.772 300.498 233.474C300.787 233.175 301.136 232.939 301.546 232.765C301.967 232.579 302.449 232.477 302.993 232.458C303.749 232.432 304.383 232.553 304.894 232.824C305.406 233.094 305.794 233.513 306.059 234.08C306.335 234.636 306.487 235.335 306.517 236.177L306.668 240.527L305.245 240.576ZM302.901 240.85C301.953 240.883 301.204 240.696 300.656 240.288C300.119 239.869 299.837 239.276 299.81 238.509C299.781 237.688 300.031 237.055 300.56 236.609C301.088 236.153 301.848 235.908 302.84 235.873L305.51 235.78L305.568 236.979L303.297 237.058C302.562 237.084 302.043 237.219 301.743 237.465C301.452 237.699 301.314 238.019 301.328 238.424C301.341 238.797 301.495 239.085 301.79 239.288C302.085 239.481 302.483 239.568 302.984 239.551C303.421 239.535 303.791 239.421 304.093 239.208C304.406 238.994 304.641 238.719 304.8 238.382C304.97 238.035 305.047 237.653 305.033 237.238L305.768 237.212C305.806 238.299 305.586 239.172 305.107 239.829C304.628 240.475 303.893 240.816 302.901 240.85ZM308.02 242.321L308.826 238.802L310.473 238.745L309.252 242.278L308.02 242.321ZM319.42 240.273C318.62 240.301 317.905 240.15 317.275 239.82C316.644 239.479 316.141 239 315.768 238.384C315.404 237.767 315.209 237.048 315.18 236.227C315.151 235.406 315.296 234.675 315.616 234.034C315.945 233.393 316.408 232.886 317.003 232.513C317.609 232.129 318.306 231.923 319.095 231.896C319.873 231.868 320.578 232.025 321.209 232.366C321.85 232.707 322.338 233.207 322.67 233.868L321.315 234.492C321.099 234.104 320.795 233.806 320.403 233.595C320.022 233.384 319.587 233.287 319.096 233.304C318.617 233.321 318.194 233.453 317.829 233.701C317.464 233.948 317.183 234.289 316.985 234.723C316.786 235.146 316.696 235.63 316.715 236.173C316.734 236.717 316.857 237.193 317.085 237.601C317.313 238.01 317.623 238.33 318.015 238.561C318.407 238.783 318.843 238.885 319.323 238.868C319.813 238.851 320.246 238.713 320.621 238.454C320.996 238.185 321.272 237.834 321.449 237.401L322.859 237.912C322.575 238.626 322.125 239.192 321.51 239.608C320.905 240.024 320.209 240.246 319.42 240.273ZM324.274 239.912L323.915 228.718L325.418 228.665L325.793 239.859L324.274 239.912ZM331.373 239.856C330.594 239.883 329.901 239.731 329.291 239.4C328.682 239.059 328.195 238.579 327.832 237.962C327.469 237.345 327.273 236.626 327.245 235.806C327.216 234.985 327.361 234.254 327.68 233.613C328 232.972 328.451 232.465 329.036 232.093C329.631 231.709 330.318 231.504 331.096 231.477C331.821 231.451 332.467 231.615 333.034 231.969C333.612 232.312 334.067 232.819 334.4 233.49C334.743 234.151 334.931 234.94 334.963 235.856L333.444 235.909C333.42 235.227 333.315 234.654 333.128 234.191C332.941 233.728 332.673 233.385 332.324 233.163C331.984 232.929 331.575 232.821 331.095 232.837C330.616 232.854 330.199 232.986 329.844 233.233C329.501 233.469 329.235 233.804 329.047 234.238C328.87 234.66 328.792 235.175 328.813 235.783C328.833 236.348 328.962 236.834 329.2 237.242C329.438 237.64 329.748 237.949 330.129 238.17C330.521 238.381 330.956 238.478 331.436 238.461C331.958 238.443 332.386 238.305 332.718 238.048C333.061 237.79 333.328 237.466 333.517 237.076L334.898 237.652C334.688 238.075 334.419 238.453 334.089 238.785C333.769 239.105 333.378 239.359 332.915 239.546C332.462 239.733 331.948 239.836 331.373 239.856ZM328.247 236.091L328.22 234.843L334.072 234.639L334.116 235.886L328.247 236.091ZM341.466 239.311L341.209 235.142C341.178 234.556 341.091 234.073 340.95 233.694C340.808 233.304 340.601 233.012 340.327 232.819C340.053 232.626 339.693 232.537 339.245 232.553C338.829 232.567 338.465 232.665 338.151 232.847C337.848 233.029 337.601 233.304 337.411 233.674L336.034 233.209C336.213 232.84 336.442 232.507 336.72 232.209C337.008 231.911 337.357 231.674 337.767 231.5C338.188 231.314 338.67 231.212 339.214 231.193C339.97 231.167 340.604 231.289 341.116 231.559C341.627 231.829 342.015 232.248 342.28 232.815C342.556 233.371 342.708 234.07 342.738 234.912L342.889 239.262L341.466 239.311ZM339.122 239.585C338.174 239.619 337.425 239.431 336.877 239.023C336.34 238.605 336.058 238.011 336.031 237.244C336.002 236.423 336.252 235.79 336.781 235.345C337.309 234.888 338.069 234.643 339.061 234.609L341.731 234.515L341.789 235.714L339.518 235.793C338.783 235.819 338.265 235.954 337.964 236.2C337.673 236.434 337.535 236.754 337.549 237.159C337.562 237.532 337.716 237.82 338.011 238.023C338.306 238.216 338.704 238.303 339.205 238.286C339.642 238.27 340.012 238.156 340.314 237.943C340.627 237.729 340.862 237.454 341.021 237.118C341.191 236.77 341.268 236.389 341.254 235.973L341.989 235.947C342.027 237.034 341.807 237.907 341.328 238.564C340.849 239.21 340.114 239.551 339.122 239.585ZM345.418 234.867C345.388 234.003 345.529 233.294 345.84 232.739C346.152 232.184 346.564 231.764 347.077 231.479C347.59 231.194 348.134 231.042 348.71 231.022L348.76 232.461C348.28 232.477 347.825 232.568 347.393 232.733C346.971 232.886 346.628 233.133 346.362 233.473C346.107 233.802 345.989 234.244 346.008 234.798L345.418 234.867ZM344.641 239.201L344.362 231.205L345.881 231.152L346.16 239.148L344.641 239.201ZM354.577 234.547C354.547 233.684 354.687 232.974 354.999 232.419C355.31 231.864 355.723 231.444 356.236 231.159C356.749 230.874 357.293 230.722 357.869 230.702L357.919 232.141C357.439 232.158 356.983 232.248 356.552 232.413C356.13 232.566 355.786 232.813 355.521 233.153C355.265 233.482 355.147 233.924 355.167 234.478L354.577 234.547ZM353.8 238.881L353.52 230.886L355.04 230.833L355.319 238.828L353.8 238.881ZM362.819 238.758C362.041 238.785 361.347 238.633 360.738 238.302C360.128 237.961 359.642 237.481 359.279 236.864C358.916 236.247 358.72 235.528 358.691 234.707C358.662 233.887 358.808 233.156 359.127 232.515C359.446 231.874 359.898 231.367 360.483 230.995C361.078 230.611 361.764 230.406 362.542 230.378C363.267 230.353 363.913 230.517 364.481 230.871C365.058 231.214 365.514 231.721 365.847 232.392C366.19 233.053 366.378 233.841 366.41 234.758L364.891 234.811C364.867 234.129 364.761 233.556 364.574 233.093C364.387 232.63 364.119 232.287 363.77 232.065C363.431 231.831 363.022 231.723 362.542 231.739C362.062 231.756 361.645 231.888 361.291 232.135C360.947 232.371 360.681 232.706 360.494 233.14C360.316 233.562 360.238 234.077 360.259 234.685C360.279 235.25 360.408 235.736 360.646 236.144C360.884 236.541 361.194 236.851 361.575 237.072C361.967 237.283 362.403 237.38 362.882 237.363C363.405 237.345 363.832 237.207 364.165 236.95C364.508 236.692 364.774 236.368 364.963 235.977L366.344 236.554C366.135 236.977 365.865 237.355 365.535 237.686C365.216 238.007 364.824 238.261 364.361 238.448C363.909 238.634 363.395 238.738 362.819 238.758ZM359.694 234.993L359.666 233.745L365.519 233.541L365.562 234.788L359.694 234.993ZM368.131 241.582L367.741 230.389L369.164 230.339L369.311 231.807L369.65 241.529L368.131 241.582ZM372.168 238.431C371.496 238.455 370.904 238.299 370.391 237.965C369.888 237.631 369.492 237.153 369.204 236.534C368.915 235.914 368.757 235.189 368.728 234.357C368.698 233.515 368.806 232.78 369.051 232.152C369.295 231.514 369.657 231.011 370.135 230.642C370.624 230.272 371.204 230.076 371.875 230.053C372.59 230.028 373.225 230.182 373.781 230.514C374.337 230.847 374.775 231.323 375.095 231.941C375.426 232.549 375.606 233.274 375.635 234.116C375.664 234.947 375.535 235.683 375.248 236.323C374.972 236.962 374.568 237.467 374.036 237.838C373.505 238.209 372.882 238.406 372.168 238.431ZM371.752 237.069C372.232 237.052 372.649 236.92 373.003 236.673C373.357 236.415 373.628 236.075 373.816 235.652C374.014 235.218 374.104 234.724 374.084 234.17C374.065 233.616 373.947 233.134 373.73 232.725C373.512 232.306 373.218 231.986 372.848 231.764C372.477 231.531 372.051 231.423 371.572 231.44C371.134 231.455 370.744 231.592 370.401 231.849C370.068 232.096 369.813 232.435 369.636 232.868C369.459 233.301 369.38 233.79 369.399 234.334C369.419 234.888 369.532 235.375 369.738 235.795C369.945 236.204 370.223 236.525 370.573 236.758C370.922 236.981 371.315 237.084 371.752 237.069ZM380.959 238.124C380.17 238.152 379.46 238.001 378.829 237.67C378.209 237.329 377.712 236.85 377.338 236.234C376.975 235.617 376.779 234.898 376.751 234.077C376.722 233.256 376.867 232.525 377.186 231.884C377.506 231.243 377.963 230.736 378.558 230.363C379.164 229.979 379.856 229.774 380.634 229.747C381.434 229.719 382.143 229.875 382.764 230.217C383.384 230.547 383.875 231.021 384.238 231.638C384.612 232.255 384.813 232.973 384.842 233.794C384.87 234.615 384.72 235.346 384.39 235.987C384.071 236.628 383.614 237.141 383.019 237.524C382.434 237.897 381.747 238.097 380.959 238.124ZM380.908 236.685C381.388 236.669 381.805 236.537 382.159 236.289C382.514 236.042 382.785 235.713 382.973 235.3C383.172 234.877 383.262 234.394 383.243 233.85C383.224 233.317 383.101 232.846 382.873 232.438C382.656 232.029 382.357 231.714 381.976 231.493C381.594 231.271 381.164 231.169 380.684 231.186C380.215 231.202 379.798 231.334 379.433 231.582C379.079 231.829 378.803 232.164 378.604 232.587C378.415 232.999 378.331 233.477 378.35 234.021C378.368 234.554 378.486 235.025 378.703 235.434C378.931 235.842 379.236 236.157 379.617 236.378C379.998 236.6 380.429 236.702 380.908 236.685ZM387.323 233.403C387.293 232.54 387.434 231.831 387.745 231.275C388.057 230.72 388.469 230.3 388.982 230.015C389.495 229.731 390.039 229.578 390.615 229.558L390.665 230.997C390.186 231.014 389.73 231.105 389.298 231.269C388.876 231.423 388.533 231.67 388.267 232.01C388.012 232.339 387.894 232.78 387.913 233.335L387.323 233.403ZM386.546 237.737L386.267 229.742L387.786 229.689L388.065 237.684L386.546 237.737ZM395.213 237.627C394.414 237.655 393.789 237.474 393.337 237.084C392.886 236.683 392.647 236.099 392.62 235.332L392.33 227.033L393.849 226.98L394.131 235.055C394.145 235.449 394.251 235.75 394.451 235.956C394.66 236.152 394.952 236.243 395.325 236.23C395.431 236.226 395.548 236.201 395.674 236.154C395.801 236.107 395.952 236.016 396.129 235.882L396.746 237.045C396.475 237.236 396.213 237.378 395.961 237.472C395.718 237.566 395.469 237.618 395.213 237.627ZM391.104 230.886L391.058 229.575L396.207 229.395L396.253 230.706L391.104 230.886ZM400.916 237.428C400.351 237.447 399.842 237.38 399.388 237.225C398.945 237.069 398.564 236.853 398.245 236.576C397.936 236.299 397.701 235.982 397.539 235.624L398.83 235.003C399.012 235.327 399.278 235.59 399.626 235.792C399.974 235.982 400.356 236.07 400.772 236.056C401.23 236.04 401.606 235.947 401.899 235.776C402.192 235.595 402.332 235.35 402.322 235.041C402.311 234.743 402.191 234.512 401.961 234.349C401.731 234.186 401.401 234.059 400.971 233.967L400.213 233.802C399.46 233.625 398.868 233.342 398.438 232.951C398.008 232.561 397.785 232.11 397.767 231.598C397.739 230.82 397.969 230.209 398.455 229.765C398.952 229.32 399.691 229.081 400.671 229.047C401.151 229.03 401.591 229.084 401.99 229.209C402.4 229.333 402.748 229.519 403.034 229.765C403.331 230.011 403.544 230.307 403.673 230.655L402.414 231.275C402.275 230.96 402.048 230.733 401.734 230.595C401.42 230.456 401.055 230.394 400.639 230.409C400.213 230.424 399.88 230.526 399.641 230.716C399.402 230.906 399.289 231.166 399.3 231.496C399.306 231.678 399.414 231.85 399.622 232.013C399.841 232.166 400.155 232.288 400.564 232.381L401.434 232.558C401.961 232.668 402.4 232.85 402.75 233.105C403.1 233.349 403.366 233.633 403.549 233.958C403.73 234.271 403.827 234.604 403.84 234.956C403.856 235.436 403.738 235.861 403.484 236.233C403.24 236.594 402.893 236.878 402.441 237.086C402 237.294 401.492 237.407 400.916 237.428Z" fill="#212121"/>
<rect x="189.463" y="272.817" width="242" height="51" rx="11.5" transform="rotate(2 189.463 272.817)" fill="white"/>
<rect x="189.463" y="272.817" width="242" height="51" rx="11.5" transform="rotate(2 189.463 272.817)" stroke="url(#paint4_linear_2217_1529)"/>
<path d="M211.843 304.05C211.464 304.807 210.226 306.562 206.924 306.447C206.759 306.441 206.602 306.37 206.489 306.248C206.376 306.127 206.316 305.966 206.321 305.8C206.437 302.498 208.273 301.386 209.056 301.061C209.131 301.029 209.213 301.013 209.295 301.013C209.377 301.013 209.458 301.029 209.534 301.061C209.61 301.092 209.679 301.138 209.737 301.196C209.795 301.254 209.841 301.323 209.872 301.399C209.904 301.475 209.92 301.556 209.92 301.638C209.92 301.72 209.904 301.801 209.873 301.877C209.841 301.953 209.795 302.022 209.737 302.08C209.679 302.138 209.61 302.184 209.534 302.216C209.024 302.427 207.891 303.124 207.623 305.191C209.703 305.068 210.479 303.986 210.724 303.492C210.761 303.418 210.812 303.353 210.874 303.299C210.935 303.245 211.007 303.204 211.085 303.178C211.163 303.152 211.245 303.141 211.327 303.147C211.409 303.153 211.489 303.175 211.563 303.211C211.636 303.248 211.702 303.299 211.755 303.361C211.809 303.423 211.85 303.495 211.876 303.572C211.902 303.65 211.913 303.732 211.907 303.814C211.901 303.896 211.88 303.976 211.843 304.05ZM221.761 293.139C221.753 292.834 221.634 292.542 221.426 292.319C221.217 292.096 220.935 291.956 220.631 291.927C219.65 291.834 217.137 291.836 214.982 293.846L210.986 297.575C210.926 297.631 210.856 297.675 210.779 297.704C210.702 297.733 210.62 297.746 210.538 297.743C210.372 297.738 210.216 297.666 210.102 297.545C209.989 297.424 209.929 297.263 209.934 297.097C209.94 296.931 210.011 296.774 210.132 296.661L212.279 294.659C212.324 294.617 212.355 294.563 212.369 294.503C212.383 294.443 212.379 294.38 212.358 294.322C212.336 294.264 212.298 294.214 212.248 294.178C212.198 294.142 212.139 294.121 212.077 294.119L210.042 294.048C209.878 294.041 209.714 294.067 209.559 294.125C209.405 294.182 209.264 294.27 209.143 294.382L206.372 296.968C206.202 297.127 206.079 297.33 206.018 297.554C205.957 297.778 205.959 298.014 206.025 298.237C206.091 298.46 206.218 298.66 206.391 298.815C206.564 298.97 206.777 299.073 207.006 299.114L209.995 299.638L213.326 303.21L213.641 306.23C213.665 306.461 213.753 306.681 213.896 306.864C214.038 307.048 214.229 307.188 214.447 307.268C214.574 307.316 214.708 307.342 214.843 307.347C215.007 307.353 215.17 307.327 215.324 307.269C215.477 307.212 215.618 307.124 215.738 307.012L218.511 304.428C218.631 304.316 218.728 304.181 218.796 304.031C218.864 303.881 218.902 303.719 218.907 303.555L218.978 301.52C218.981 301.458 218.964 301.397 218.932 301.345C218.899 301.292 218.852 301.25 218.795 301.225C218.739 301.199 218.677 301.191 218.616 301.201C218.555 301.211 218.498 301.239 218.453 301.281L216.306 303.282C216.243 303.341 216.169 303.386 216.088 303.415C216.007 303.443 215.921 303.455 215.835 303.449C215.75 303.443 215.666 303.419 215.59 303.379C215.514 303.34 215.447 303.284 215.393 303.218C215.295 303.09 215.248 302.93 215.262 302.77C215.277 302.61 215.351 302.461 215.47 302.353L219.451 298.64C221.608 296.63 221.785 294.123 221.761 293.138L221.761 293.139Z" fill="#212121"/>
<path d="M239.337 306.27C238.207 306.231 237.209 305.95 236.341 305.429C235.484 304.897 234.821 304.191 234.35 303.31C233.89 302.419 233.68 301.414 233.719 300.294C233.758 299.154 234.039 298.16 234.559 297.314C235.091 296.457 235.802 295.799 236.693 295.339C237.596 294.869 238.612 294.654 239.742 294.693C240.36 294.715 240.948 294.837 241.506 295.059C242.075 295.271 242.583 295.561 243.029 295.929C243.486 296.286 243.85 296.694 244.123 297.151L242.83 297.939C242.629 297.601 242.362 297.298 242.03 297.03C241.697 296.763 241.326 296.552 240.915 296.399C240.515 296.236 240.107 296.147 239.691 296.132C238.871 296.104 238.134 296.265 237.481 296.615C236.839 296.966 236.326 297.461 235.941 298.098C235.555 298.736 235.348 299.487 235.318 300.35C235.288 301.192 235.438 301.945 235.767 302.607C236.107 303.27 236.59 303.799 237.217 304.195C237.854 304.591 238.588 304.803 239.42 304.832C240.091 304.855 240.693 304.738 241.225 304.479C241.768 304.22 242.197 303.846 242.513 303.355C242.84 302.865 243.015 302.289 243.038 301.628L244.562 301.537C244.527 302.529 244.279 303.385 243.816 304.105C243.364 304.826 242.752 305.375 241.981 305.754C241.21 306.133 240.329 306.305 239.337 306.27ZM240.316 301.629L240.362 300.318L244.599 300.466L244.559 301.617L243.754 301.749L240.316 301.629ZM246.896 302.035C246.926 301.172 247.116 300.474 247.465 299.942C247.814 299.41 248.255 299.019 248.787 298.771C249.318 298.523 249.872 298.409 250.448 298.429L250.397 299.868C249.918 299.851 249.457 299.91 249.014 300.044C248.583 300.168 248.223 300.39 247.934 300.711C247.657 301.021 247.508 301.454 247.489 302.008L246.896 302.035ZM245.818 306.304L246.097 298.309L247.616 298.362L247.337 306.357L245.818 306.304ZM254.904 306.814C254.115 306.786 253.418 306.586 252.812 306.212C252.217 305.829 251.754 305.316 251.424 304.675C251.105 304.034 250.96 303.303 250.989 302.482C251.017 301.661 251.213 300.943 251.576 300.326C251.939 299.708 252.431 299.235 253.051 298.904C253.682 298.563 254.386 298.406 255.164 298.434C255.964 298.461 256.661 298.667 257.256 299.051C257.852 299.424 258.309 299.931 258.628 300.572C258.958 301.213 259.108 301.944 259.08 302.765C259.051 303.586 258.85 304.304 258.476 304.921C258.113 305.538 257.621 306.017 257.001 306.359C256.392 306.689 255.693 306.841 254.904 306.814ZM254.954 305.374C255.434 305.391 255.859 305.289 256.23 305.067C256.6 304.845 256.894 304.535 257.111 304.137C257.338 303.729 257.462 303.253 257.481 302.709C257.499 302.176 257.409 301.698 257.211 301.275C257.023 300.852 256.746 300.517 256.381 300.269C256.016 300.022 255.594 299.889 255.114 299.873C254.645 299.856 254.22 299.959 253.839 300.18C253.468 300.402 253.169 300.717 252.941 301.126C252.724 301.524 252.607 301.994 252.588 302.538C252.569 303.071 252.654 303.549 252.842 303.972C253.04 304.395 253.322 304.73 253.687 304.978C254.052 305.226 254.474 305.358 254.954 305.374ZM267.578 307.064L270.56 299.163L272.079 299.216L269.081 307.117L267.578 307.064ZM262.19 306.876L265.123 298.973L266.498 299.021L263.597 306.925L262.19 306.876ZM262.078 306.872L259.639 298.782L261.174 298.836L263.533 306.923L262.078 306.872ZM267.578 307.064L265.235 298.977L266.626 299.026L268.985 307.113L267.578 307.064ZM275.708 307.54C275.143 307.52 274.64 307.417 274.198 307.231C273.767 307.045 273.402 306.803 273.103 306.505C272.814 306.206 272.602 305.873 272.465 305.506L273.797 304.976C273.956 305.312 274.202 305.593 274.536 305.818C274.87 306.033 275.245 306.147 275.66 306.162C276.119 306.178 276.5 306.111 276.804 305.961C277.109 305.801 277.266 305.567 277.277 305.257C277.287 304.959 277.184 304.721 276.966 304.542C276.748 304.364 276.427 304.214 276.005 304.092L275.26 303.874C274.521 303.646 273.95 303.322 273.549 302.902C273.147 302.482 272.955 302.017 272.973 301.505C273 300.727 273.272 300.133 273.788 299.724C274.314 299.316 275.068 299.129 276.049 299.163C276.529 299.18 276.963 299.264 277.353 299.417C277.753 299.569 278.087 299.778 278.356 300.044C278.634 300.31 278.826 300.621 278.931 300.977L277.632 301.508C277.515 301.183 277.305 300.941 277.001 300.781C276.697 300.621 276.337 300.534 275.921 300.519C275.495 300.504 275.156 300.583 274.905 300.756C274.653 300.929 274.522 301.18 274.51 301.511C274.504 301.692 274.599 301.871 274.795 302.049C275.003 302.216 275.307 302.36 275.709 302.481L276.565 302.719C277.083 302.865 277.508 303.078 277.84 303.356C278.172 303.624 278.417 303.926 278.576 304.262C278.736 304.588 278.809 304.927 278.797 305.279C278.78 305.758 278.632 306.175 278.353 306.528C278.085 306.871 277.719 307.13 277.253 307.306C276.799 307.482 276.284 307.56 275.708 307.54ZM291.209 307.889L294.19 299.989L295.71 300.042L292.712 307.942L291.209 307.889ZM285.82 307.701L288.754 299.799L290.129 299.847L287.227 307.75L285.82 307.701ZM285.708 307.697L283.269 299.607L284.804 299.661L287.163 307.748L285.708 307.697ZM291.209 307.889L288.866 299.803L290.257 299.851L292.616 307.938L291.209 307.889ZM296.579 308.077L296.89 300.083L298.394 300.135L298.098 308.13L296.579 308.077ZM297.685 298.414C297.44 298.405 297.23 298.307 297.055 298.119C296.881 297.921 296.798 297.699 296.806 297.454C296.815 297.198 296.913 296.988 297.1 296.824C297.288 296.649 297.504 296.566 297.749 296.575C298.005 296.584 298.215 296.682 298.38 296.869C298.555 297.046 298.638 297.262 298.629 297.518C298.62 297.763 298.522 297.978 298.334 298.164C298.157 298.339 297.941 298.422 297.685 298.414ZM303.404 308.507C302.605 308.479 301.993 308.255 301.571 307.835C301.148 307.404 300.95 306.805 300.977 306.037L301.267 297.738L302.786 297.791L302.504 305.866C302.49 306.261 302.575 306.568 302.76 306.788C302.955 306.997 303.24 307.109 303.613 307.122C303.719 307.125 303.837 307.108 303.967 307.07C304.096 307.032 304.254 306.952 304.439 306.83L304.974 308.034C304.69 308.205 304.419 308.329 304.16 308.406C303.912 308.482 303.66 308.516 303.404 308.507ZM299.775 301.496L299.82 300.185L304.969 300.365L304.924 301.676L299.775 301.496ZM306.267 308.415L306.648 297.045L308.167 297.099L307.77 308.468L306.267 308.415ZM311.8 308.608L311.943 304.515L313.463 304.088L313.303 308.661L311.8 308.608ZM311.943 304.515C311.968 303.79 311.902 303.238 311.744 302.859C311.587 302.469 311.362 302.194 311.069 302.035C310.786 301.876 310.458 301.784 310.086 301.76C309.425 301.737 308.905 301.949 308.527 302.394C308.148 302.84 307.944 303.479 307.915 304.31L307.276 304.288C307.305 303.446 307.453 302.73 307.719 302.142C307.985 301.543 308.353 301.091 308.823 300.788C309.303 300.484 309.863 300.344 310.503 300.366C311.473 300.4 312.219 300.725 312.742 301.341C313.276 301.946 313.516 302.862 313.463 304.088L311.943 304.515ZM319.656 312.277C319.421 312.269 319.161 312.217 318.876 312.121C318.602 312.026 318.318 311.904 318.025 311.755L318.628 310.528C318.859 310.643 319.058 310.73 319.227 310.789C319.407 310.848 319.55 310.88 319.656 310.884C319.923 310.893 320.149 310.826 320.336 310.683C320.533 310.541 320.694 310.338 320.821 310.076L321.825 307.918L324.914 301.061L326.545 301.118L322.442 309.973C322.222 310.456 321.994 310.875 321.757 311.229C321.521 311.584 321.234 311.852 320.897 312.032C320.57 312.213 320.157 312.294 319.656 312.277ZM321.373 308.943L318.15 300.825L319.765 300.882L322.417 307.922L322.844 308.994L321.373 308.943ZM330.742 309.462C329.953 309.434 329.256 309.234 328.65 308.861C328.055 308.477 327.592 307.964 327.263 307.323C326.943 306.682 326.798 305.951 326.827 305.131C326.855 304.31 327.051 303.591 327.414 302.974C327.778 302.357 328.269 301.883 328.889 301.552C329.52 301.212 330.224 301.055 331.003 301.082C331.802 301.11 332.499 301.316 333.094 301.699C333.69 302.072 334.147 302.579 334.466 303.22C334.796 303.861 334.947 304.592 334.918 305.413C334.889 306.234 334.688 306.953 334.314 307.569C333.951 308.186 333.459 308.666 332.839 309.007C332.23 309.338 331.531 309.489 330.742 309.462ZM330.792 308.023C331.272 308.04 331.697 307.937 332.068 307.715C332.438 307.493 332.732 307.183 332.949 306.785C333.176 306.377 333.3 305.901 333.319 305.357C333.337 304.824 333.247 304.346 333.049 303.923C332.861 303.5 332.584 303.165 332.219 302.917C331.854 302.67 331.432 302.538 330.952 302.521C330.483 302.505 330.058 302.607 329.677 302.829C329.306 303.051 329.007 303.366 328.779 303.774C328.563 304.172 328.445 304.643 328.426 305.186C328.407 305.719 328.492 306.197 328.68 306.62C328.879 307.043 329.16 307.379 329.525 307.626C329.89 307.874 330.313 308.006 330.792 308.023ZM341.779 309.655L341.735 308.181L341.963 301.657L343.466 301.709L343.187 309.704L341.779 309.655ZM336.27 306.037L336.43 301.464L337.949 301.517L337.806 305.61L336.27 306.037ZM337.806 305.61C337.781 306.324 337.842 306.876 337.989 307.265C338.146 307.655 338.371 307.93 338.664 308.09C338.957 308.249 339.291 308.341 339.663 308.365C340.314 308.387 340.828 308.176 341.206 307.73C341.585 307.284 341.789 306.646 341.818 305.814L342.473 305.837C342.444 306.679 342.296 307.4 342.029 307.999C341.763 308.587 341.39 309.033 340.91 309.337C340.441 309.64 339.881 309.781 339.23 309.758C338.271 309.725 337.524 309.4 336.991 308.784C336.468 308.168 336.228 307.252 336.27 306.037L337.806 305.61ZM346.224 305.504C346.254 304.64 346.444 303.943 346.793 303.41C347.143 302.878 347.583 302.488 348.115 302.24C348.647 301.992 349.2 301.877 349.776 301.898L349.726 303.337C349.246 303.32 348.785 303.379 348.343 303.513C347.911 303.636 347.551 303.858 347.263 304.179C346.985 304.49 346.836 304.922 346.817 305.477L346.224 305.504ZM345.146 309.773L345.425 301.778L346.944 301.831L346.665 309.826L345.146 309.773ZM354.305 310.093L354.696 298.899L356.215 298.953L355.876 308.659L355.744 310.143L354.305 310.093ZM358.44 310.429C357.768 310.406 357.188 310.209 356.699 309.84C356.221 309.471 355.86 308.968 355.615 308.329C355.371 307.691 355.263 306.956 355.292 306.125C355.321 305.283 355.48 304.557 355.768 303.948C356.057 303.328 356.452 302.851 356.955 302.517C357.468 302.182 358.061 302.027 358.732 302.05C359.447 302.075 360.069 302.273 360.601 302.644C361.132 303.015 361.536 303.52 361.813 304.159C362.1 304.788 362.229 305.524 362.2 306.366C362.171 307.197 361.991 307.922 361.66 308.54C361.339 309.159 360.901 309.635 360.345 309.967C359.789 310.3 359.154 310.454 358.44 310.429ZM358.12 309.041C358.6 309.058 359.025 308.955 359.396 308.733C359.767 308.501 360.061 308.18 360.278 307.772C360.506 307.353 360.629 306.866 360.649 306.312C360.668 305.757 360.584 305.269 360.396 304.846C360.208 304.413 359.937 304.072 359.583 303.825C359.229 303.567 358.812 303.43 358.333 303.413C357.895 303.398 357.497 303.507 357.136 303.74C356.787 303.962 356.509 304.283 356.302 304.703C356.096 305.123 355.983 305.604 355.964 306.148C355.944 306.702 356.023 307.196 356.2 307.629C356.377 308.052 356.632 308.391 356.965 308.649C357.298 308.895 357.683 309.026 358.12 309.041ZM368.998 310.606L368.953 309.131L369.181 302.607L370.684 302.66L370.405 310.655L368.998 310.606ZM363.489 306.987L363.649 302.414L365.168 302.467L365.025 306.561L363.489 306.987ZM365.025 306.561C365 307.275 365.06 307.827 365.207 308.216C365.364 308.606 365.589 308.88 365.883 309.04C366.176 309.2 366.509 309.291 366.882 309.315C367.532 309.338 368.046 309.126 368.425 308.681C368.803 308.235 369.007 307.596 369.036 306.765L369.692 306.788C369.662 307.63 369.514 308.35 369.248 308.949C368.982 309.538 368.609 309.984 368.128 310.287C367.659 310.591 367.099 310.732 366.449 310.709C365.489 310.675 364.743 310.35 364.209 309.734C363.687 309.118 363.446 308.203 363.489 306.987L365.025 306.561ZM375.22 311.015C374.655 310.995 374.152 310.892 373.71 310.706C373.279 310.52 372.914 310.278 372.615 309.98C372.326 309.681 372.114 309.348 371.977 308.981L373.308 308.451C373.467 308.787 373.714 309.068 374.048 309.293C374.382 309.508 374.756 309.622 375.172 309.637C375.631 309.653 376.012 309.586 376.316 309.436C376.62 309.276 376.778 309.042 376.789 308.732C376.799 308.434 376.695 308.196 376.478 308.017C376.26 307.839 375.939 307.689 375.517 307.567L374.772 307.349C374.033 307.121 373.462 306.797 373.061 306.377C372.659 305.957 372.467 305.492 372.485 304.98C372.512 304.202 372.784 303.608 373.3 303.199C373.826 302.791 374.58 302.604 375.561 302.638C376.04 302.655 376.475 302.739 376.865 302.892C377.265 303.044 377.599 303.253 377.867 303.519C378.146 303.785 378.338 304.096 378.443 304.452L377.144 304.983C377.027 304.658 376.817 304.416 376.513 304.256C376.209 304.096 375.849 304.009 375.433 303.994C375.007 303.979 374.668 304.058 374.416 304.231C374.165 304.404 374.033 304.655 374.022 304.986C374.016 305.167 374.111 305.346 374.307 305.524C374.515 305.691 374.819 305.835 375.221 305.956L376.077 306.194C376.595 306.34 377.02 306.553 377.351 306.831C377.684 307.099 377.929 307.401 378.088 307.737C378.248 308.063 378.321 308.402 378.309 308.754C378.292 309.233 378.144 309.65 377.865 310.003C377.597 310.346 377.23 310.605 376.765 310.781C376.311 310.957 375.796 311.035 375.22 311.015ZM379.749 310.981L380.06 302.987L381.563 303.04L381.268 311.034L379.749 310.981ZM380.855 301.318C380.61 301.309 380.4 301.211 380.225 301.024C380.051 300.825 379.968 300.604 379.976 300.359C379.985 300.103 380.083 299.893 380.27 299.728C380.458 299.554 380.674 299.47 380.919 299.479C381.175 299.488 381.385 299.586 381.549 299.773C381.725 299.95 381.808 300.166 381.799 300.422C381.79 300.667 381.692 300.883 381.504 301.068C381.327 301.244 381.111 301.327 380.855 301.318ZM383.335 311.106L383.614 303.111L385.037 303.161L385.082 304.635L384.854 311.159L383.335 311.106ZM388.867 311.3L389.01 307.206L390.546 306.779L390.386 311.353L388.867 311.3ZM389.01 307.206C389.036 306.481 388.97 305.929 388.812 305.55C388.666 305.161 388.446 304.886 388.152 304.727C387.87 304.567 387.537 304.476 387.153 304.452C386.503 304.429 385.989 304.64 385.61 305.086C385.232 305.532 385.028 306.17 384.999 307.002L384.343 306.979C384.373 306.137 384.521 305.422 384.787 304.833C385.053 304.234 385.421 303.783 385.891 303.479C386.371 303.175 386.936 303.035 387.586 303.058C388.546 303.091 389.287 303.416 389.81 304.032C390.343 304.638 390.589 305.553 390.546 306.779L389.01 307.206ZM395.729 311.731C394.951 311.704 394.27 311.504 393.685 311.132C393.101 310.748 392.649 310.236 392.33 309.595C392.011 308.955 391.865 308.224 391.894 307.403C391.923 306.582 392.119 305.863 392.482 305.246C392.845 304.629 393.331 304.155 393.94 303.824C394.56 303.483 395.26 303.326 396.038 303.353C396.763 303.378 397.396 303.587 397.937 303.98C398.489 304.362 398.908 304.899 399.194 305.592C399.49 306.275 399.622 307.075 399.59 307.992L398.071 307.939C398.095 307.256 398.03 306.678 397.876 306.203C397.721 305.728 397.478 305.367 397.145 305.121C396.823 304.864 396.422 304.727 395.942 304.71C395.463 304.694 395.038 304.796 394.667 305.018C394.307 305.23 394.019 305.545 393.801 305.965C393.595 306.374 393.481 306.882 393.46 307.49C393.44 308.055 393.535 308.549 393.744 308.972C393.954 309.385 394.241 309.715 394.606 309.963C394.982 310.2 395.41 310.327 395.89 310.344C396.412 310.362 396.848 310.255 397.198 310.022C397.558 309.789 397.846 309.484 398.062 309.107L399.4 309.778C399.161 310.186 398.866 310.544 398.514 310.852C398.172 311.15 397.764 311.375 397.289 311.53C396.825 311.684 396.305 311.751 395.729 311.731ZM392.874 307.757L392.934 306.511L398.786 306.715L398.743 307.962L392.874 307.757ZM403.719 312.01C403.154 311.991 402.651 311.888 402.209 311.701C401.778 311.516 401.413 311.273 401.114 310.975C400.825 310.677 400.613 310.344 400.476 309.976L401.807 309.446C401.966 309.782 402.213 310.063 402.546 310.288C402.88 310.503 403.255 310.617 403.671 310.632C404.129 310.648 404.511 310.581 404.815 310.432C405.119 310.271 405.277 310.037 405.288 309.728C405.298 309.429 405.194 309.191 404.976 309.012C404.759 308.834 404.438 308.684 404.016 308.563L403.271 308.344C402.532 308.116 401.961 307.792 401.56 307.372C401.158 306.953 400.966 306.487 400.984 305.975C401.011 305.197 401.283 304.603 401.799 304.195C402.325 303.786 403.079 303.599 404.06 303.633C404.539 303.65 404.974 303.734 405.364 303.887C405.764 304.039 406.098 304.249 406.366 304.514C406.645 304.78 406.837 305.091 406.942 305.447L405.643 305.978C405.526 305.654 405.316 305.411 405.012 305.251C404.708 305.091 404.348 305.004 403.932 304.989C403.506 304.975 403.167 305.053 402.915 305.226C402.664 305.399 402.532 305.65 402.521 305.981C402.514 306.162 402.61 306.341 402.806 306.519C403.014 306.686 403.318 306.831 403.72 306.951L404.576 307.189C405.094 307.335 405.519 307.548 405.85 307.826C406.183 308.094 406.428 308.396 406.587 308.732C406.747 309.058 406.82 309.397 406.808 309.749C406.791 310.228 406.643 310.645 406.364 310.998C406.096 311.341 405.729 311.6 405.264 311.776C404.81 311.952 404.295 312.03 403.719 312.01ZM410.992 312.264C410.427 312.245 409.924 312.142 409.482 311.955C409.051 311.77 408.686 311.527 408.387 311.229C408.098 310.931 407.886 310.598 407.749 310.23L409.08 309.7C409.239 310.036 409.486 310.317 409.819 310.542C410.154 310.757 410.528 310.871 410.944 310.886C411.403 310.902 411.784 310.835 412.088 310.686C412.392 310.525 412.55 310.291 412.561 309.982C412.571 309.683 412.467 309.445 412.249 309.266C412.032 309.088 411.711 308.938 411.289 308.817L410.544 308.598C409.805 308.37 409.234 308.046 408.833 307.626C408.431 307.207 408.239 306.741 408.257 306.229C408.284 305.451 408.556 304.857 409.072 304.449C409.598 304.04 410.352 303.853 411.333 303.887C411.812 303.904 412.247 303.988 412.637 304.141C413.037 304.293 413.371 304.503 413.639 304.768C413.918 305.034 414.11 305.345 414.215 305.701L412.916 306.232C412.799 305.907 412.589 305.665 412.285 305.505C411.981 305.345 411.621 305.258 411.205 305.243C410.779 305.229 410.44 305.307 410.188 305.48C409.937 305.653 409.805 305.904 409.794 306.235C409.787 306.416 409.883 306.595 410.079 306.773C410.287 306.94 410.591 307.084 410.993 307.205L411.849 307.443C412.367 307.589 412.792 307.802 413.123 308.08C413.456 308.348 413.701 308.65 413.86 308.986C414.02 309.312 414.093 309.651 414.081 310.003C414.064 310.482 413.916 310.899 413.637 311.252C413.369 311.595 413.002 311.854 412.537 312.03C412.083 312.206 411.568 312.284 410.992 312.264Z" fill="#212121"/>
</g>
<defs>
<radialGradient id="paint0_radial_2217_1529" cx="0" cy="0" r="1" gradientUnits="userSpaceOnUse" gradientTransform="translate(52.7742 -58.6688) rotate(89.7677) scale(292.671 1315.79)">
<stop stop-opacity="0"/>
<stop offset="1" stop-color="#E2E4E3" stop-opacity="0.44"/>
</radialGradient>
<linearGradient id="paint1_linear_2217_1529" x1="308.67" y1="76.8296" x2="308.67" y2="128.83" gradientUnits="userSpaceOnUse">
<stop stop-color="white" stop-opacity="0.12"/>
<stop offset="1" stop-color="white" stop-opacity="0"/>
</linearGradient>
<linearGradient id="paint2_linear_2217_1529" x1="310.475" y1="136.798" x2="310.475" y2="188.798" gradientUnits="userSpaceOnUse">
<stop stop-color="white" stop-opacity="0.12"/>
<stop offset="1" stop-color="white" stop-opacity="0"/>
</linearGradient>
<linearGradient id="paint3_linear_2217_1529" x1="308.66" y1="212.331" x2="308.66" y2="264.331" gradientUnits="userSpaceOnUse">
<stop stop-color="white" stop-opacity="0.12"/>
<stop offset="1" stop-color="white" stop-opacity="0"/>
</linearGradient>
<linearGradient id="paint4_linear_2217_1529" x1="310.48" y1="272.3" x2="310.48" y2="324.3" gradientUnits="userSpaceOnUse">
<stop stop-color="white" stop-opacity="0.12"/>
<stop offset="1" stop-color="white" stop-opacity="0"/>
</linearGradient>
<clipPath id="clip0_2217_1529">
<rect width="620" height="400" rx="16" fill="white"/>
</clipPath>
<clipPath id="clip1_2217_1529">
<rect width="20" height="20" fill="white" transform="translate(198.719 92.2615) rotate(-2)"/>
</clipPath>
<clipPath id="clip2_2217_1529">
<rect width="20" height="20" fill="white" transform="translate(214.406 153.346) rotate(2)"/>
</clipPath>
<clipPath id="clip3_2217_1529">
<rect width="20" height="20" fill="white" transform="translate(213.709 227.763) rotate(-2)"/>
</clipPath>
</defs>
</svg>
