<svg width="28" height="28" viewBox="0 0 28 28" fill="none" xmlns="http://www.w3.org/2000/svg">
<path d="M14 0C7.2152 0 1.69531 5.51988 1.69531 12.3047V18.9766C1.69531 20.3335 2.79929 21.4375 4.15625 21.4375H5.11766C5.45628 22.3922 6.36809 23.0781 7.4375 23.0781C8.79446 23.0781 9.89844 21.9741 9.89844 20.6172V13.9453C9.89844 12.5884 8.79446 11.4844 7.4375 11.4844C6.36809 11.4844 5.45628 12.1703 5.11766 13.125H4.15625C3.86865 13.125 3.5927 13.175 3.33594 13.2661V12.3047C3.33594 6.42452 8.11984 1.64062 14 1.64062C19.8802 1.64062 24.6641 6.42452 24.6641 12.3047V13.2661C24.4007 13.1726 24.1232 13.1249 23.8438 13.125H22.8823C22.5437 12.1703 21.6319 11.4844 20.5625 11.4844C19.2055 11.4844 18.1016 12.5884 18.1016 13.9453V20.6172C18.1016 21.9741 19.2055 23.0781 20.5625 23.0781C20.8108 23.0781 21.0506 23.0408 21.2768 22.9721C20.9699 23.9817 20.0305 24.7188 18.9219 24.7188H16.3198C15.9812 23.764 15.0694 23.0781 14 23.0781C12.643 23.0781 11.5391 24.1821 11.5391 25.5391C11.5391 26.896 12.643 28 14 28C15.0694 28 15.9812 27.3141 16.3198 26.3594H18.9219C21.1835 26.3594 23.0234 24.5194 23.0234 22.2578V21.4375H23.8438C25.2007 21.4375 26.3047 20.3335 26.3047 18.9766V12.3047C26.3047 5.51988 20.7848 0 14 0ZM6.61719 13.9453C6.61719 13.493 6.98518 13.125 7.4375 13.125C7.88982 13.125 8.25781 13.493 8.25781 13.9453V20.6172C8.25781 21.0695 7.88982 21.4375 7.4375 21.4375C6.98518 21.4375 6.61719 21.0695 6.61719 20.6172V13.9453ZM4.15625 14.7656H4.97656V19.7969H4.15625C3.70393 19.7969 3.33594 19.4289 3.33594 18.9766V15.5859C3.33594 15.1336 3.70393 14.7656 4.15625 14.7656ZM14 26.3594C13.5477 26.3594 13.1797 25.9914 13.1797 25.5391C13.1797 25.0867 13.5477 24.7188 14 24.7188C14.4523 24.7188 14.8203 25.0867 14.8203 25.5391C14.8203 25.9914 14.4523 26.3594 14 26.3594ZM21.3828 20.6172C21.3828 21.0695 21.0148 21.4375 20.5625 21.4375C20.1102 21.4375 19.7422 21.0695 19.7422 20.6172V13.9453C19.7422 13.493 20.1102 13.125 20.5625 13.125C21.0148 13.125 21.3828 13.493 21.3828 13.9453V20.6172ZM24.6641 18.9766C24.6641 19.4289 24.2961 19.7969 23.8438 19.7969H23.0234V14.7656H23.8438C24.2961 14.7656 24.6641 15.1336 24.6641 15.5859V18.9766Z" fill="#3276F5"/>
</svg>
