<svg width="301" height="154" viewBox="0 0 301 154" fill="none" xmlns="http://www.w3.org/2000/svg">
<rect x="1.42308" y="1.42308" width="298.846" height="151.154" rx="9.80769" fill="white"/>
<rect x="1.42308" y="1.42308" width="298.846" height="151.154" rx="9.80769" stroke="#E5E6EC" stroke-width="1.15385"/>
<path d="M17.1934 33.8461V21.2923H21.6611C24.5965 21.2923 26.4057 22.8246 26.4057 25.3354C26.4057 27.9015 24.5595 29.3969 21.698 29.3969H19.2611V33.8461H17.1934ZM21.6426 22.9538H19.2611V27.7354H21.5872C23.3226 27.7354 24.2826 26.8123 24.2826 25.3538C24.2826 23.8954 23.3042 22.9538 21.6426 22.9538ZM36.8614 30.6338C36.326 32.9231 34.6276 34.0861 32.3199 34.0861C29.4214 34.0861 27.6491 32.1477 27.6491 28.9354C27.6491 25.5938 29.4214 23.7477 32.2276 23.7477C35.0707 23.7477 36.7876 25.6677 36.7876 28.8246V29.3046H29.6614C29.7722 31.3169 30.7137 32.4431 32.3199 32.4431C33.5753 32.4431 34.4614 31.8523 34.7937 30.6338H36.8614ZM32.2276 25.3907C30.806 25.3907 29.9568 26.2954 29.7168 27.9569H34.7383C34.4983 26.2954 33.6307 25.3907 32.2276 25.3907ZM38.5815 33.8461V24.0061H40.5569V25.4646C41.2031 24.2831 42.2184 23.7477 43.3631 23.7477C43.7508 23.7477 44.12 23.84 44.3046 24.0061V25.7415C44.0092 25.6492 43.6584 25.6123 43.2523 25.6123C41.3692 25.6123 40.5569 26.7569 40.5569 28.4738V33.8461H38.5815ZM45.4642 33.8461V24.0061H47.4396V25.2615C48.0673 24.2461 49.0458 23.7477 50.2088 23.7477C51.5196 23.7477 52.4981 24.32 52.9781 25.4461C53.6242 24.32 54.695 23.7477 55.9873 23.7477C57.9258 23.7477 59.1811 24.9477 59.1811 27.2738V33.8461H57.2058V27.68C57.2058 26.2584 56.6704 25.3907 55.4519 25.3907C54.1227 25.3907 53.3104 26.7015 53.3104 28.0677V33.8461H51.335V27.68C51.335 26.2584 50.7811 25.3907 49.5811 25.3907C48.2519 25.3907 47.4396 26.7015 47.4396 28.0677V33.8461H45.4642ZM63.262 27.2184H61.2866C61.6005 25.04 63.0958 23.7477 65.5512 23.7477C68.2282 23.7477 69.5574 25.3169 69.5574 27.6061V31.4461C69.5574 32.6277 69.6682 33.3107 69.8897 33.8461H67.822C67.6743 33.4769 67.6189 32.96 67.6005 32.4061C66.7697 33.5692 65.4958 34.0861 64.3143 34.0861C62.3205 34.0861 60.9543 33.1446 60.9543 31.2615C60.9543 29.9138 61.6928 28.9169 63.1697 28.4184C64.4805 27.9754 65.8097 27.8646 67.582 27.8461V27.6246C67.582 26.1846 66.9174 25.4092 65.4035 25.4092C64.1297 25.4092 63.4466 26.1107 63.262 27.2184ZM62.9482 31.1877C62.9482 32.0184 63.6312 32.5354 64.6835 32.5354C66.3266 32.5354 67.582 31.2246 67.582 29.6369V29.1938C63.7974 29.2307 62.9482 30.0615 62.9482 31.1877ZM71.8498 33.8461V24.0061H73.8252V25.3169C74.4898 24.2646 75.5236 23.7477 76.7975 23.7477C78.8467 23.7477 80.1206 24.9477 80.1206 27.2738V33.8461H78.1636V27.68C78.1636 26.2584 77.5359 25.3907 76.1882 25.3907C74.7113 25.3907 73.8252 26.7015 73.8252 28.0677V33.8461H71.8498ZM91.0706 30.6338C90.5352 32.9231 88.8367 34.0861 86.529 34.0861C83.6306 34.0861 81.8583 32.1477 81.8583 28.9354C81.8583 25.5938 83.6306 23.7477 86.4367 23.7477C89.2798 23.7477 90.9967 25.6677 90.9967 28.8246V29.3046H83.8706C83.9813 31.3169 84.9229 32.4431 86.529 32.4431C87.7844 32.4431 88.6706 31.8523 89.0029 30.6338H91.0706ZM86.4367 25.3907C85.0152 25.3907 84.1659 26.2954 83.9259 27.9569H88.9475C88.7075 26.2954 87.8398 25.3907 86.4367 25.3907ZM92.7907 33.8461V24.0061H94.766V25.3169C95.4307 24.2646 96.4645 23.7477 97.7383 23.7477C99.7876 23.7477 101.061 24.9477 101.061 27.2738V33.8461H99.1045V27.68C99.1045 26.2584 98.4768 25.3907 97.1291 25.3907C95.6522 25.3907 94.766 26.7015 94.766 28.0677V33.8461H92.7907ZM103.538 30.9107V25.5384H102.208V24.0061H103.538V21.7354H105.513V24.0061H107.636V25.5384H105.513V30.8C105.513 31.9261 105.827 32.4615 107.211 32.4615H107.599V33.9015C107.378 34.0123 106.916 34.0861 106.362 34.0861C104.442 34.0861 103.538 33.0338 103.538 30.9107ZM112.523 33.8461V21.2923H121.181V22.9538H114.59V26.5354H120.48V28.1784H114.59V32.1846H121.181V33.8461H112.523ZM122.972 33.8461V24.0061H124.947V25.2615C125.575 24.2461 126.553 23.7477 127.716 23.7477C129.027 23.7477 130.006 24.32 130.486 25.4461C131.132 24.32 132.202 23.7477 133.495 23.7477C135.433 23.7477 136.689 24.9477 136.689 27.2738V33.8461H134.713V27.68C134.713 26.2584 134.178 25.3907 132.959 25.3907C131.63 25.3907 130.818 26.7015 130.818 28.0677V33.8461H128.842V27.68C128.842 26.2584 128.289 25.3907 127.089 25.3907C125.759 25.3907 124.947 26.7015 124.947 28.0677V33.8461H122.972ZM140.88 37.9077H138.905V24.0061H140.88V25.1877C141.508 24.2646 142.431 23.7477 143.557 23.7477C146.16 23.7477 147.729 25.6861 147.729 28.8984C147.729 32.24 146.123 34.0861 143.557 34.0861C142.431 34.0861 141.508 33.6246 140.88 32.72V37.9077ZM143.317 25.4092C141.729 25.4092 140.88 26.6461 140.88 28.8984C140.88 31.1507 141.766 32.4246 143.317 32.4246C144.868 32.4246 145.717 31.1692 145.717 28.8984C145.717 26.6646 144.831 25.4092 143.317 25.4092ZM149.465 33.8461V20.5538H151.441V33.8461H149.465ZM157.761 34.0861C154.899 34.0861 153.164 32.1477 153.164 28.9354C153.164 25.5938 154.955 23.7477 157.761 23.7477C160.622 23.7477 162.358 25.7231 162.358 28.9354C162.358 32.2584 160.567 34.0861 157.761 34.0861ZM157.761 32.4246C159.441 32.4246 160.345 31.2061 160.345 28.9354C160.345 26.6831 159.422 25.4092 157.761 25.4092C156.099 25.4092 155.176 26.6461 155.176 28.9354C155.176 31.1692 156.099 32.4246 157.761 32.4246ZM164.455 38.1477C164.031 38.1477 163.587 38.0369 163.366 37.9631V36.4492H163.901C165.027 36.4492 165.452 36.2277 166.301 34.1784L166.597 33.4954L162.646 24.0061H164.769L167.206 30.1354L167.631 31.4831L168.055 30.1354L170.418 24.0061H172.431L167.963 34.9907C166.966 37.4461 166.209 38.1477 164.455 38.1477ZM182.109 30.6338C181.574 32.9231 179.875 34.0861 177.567 34.0861C174.669 34.0861 172.897 32.1477 172.897 28.9354C172.897 25.5938 174.669 23.7477 177.475 23.7477C180.318 23.7477 182.035 25.6677 182.035 28.8246V29.3046H174.909C175.02 31.3169 175.961 32.4431 177.567 32.4431C178.823 32.4431 179.709 31.8523 180.041 30.6338H182.109ZM177.475 25.3907C176.054 25.3907 175.204 26.2954 174.964 27.9569H179.986C179.746 26.2954 178.878 25.3907 177.475 25.3907ZM192.561 30.6338C192.026 32.9231 190.328 34.0861 188.02 34.0861C185.121 34.0861 183.349 32.1477 183.349 28.9354C183.349 25.5938 185.121 23.7477 187.928 23.7477C190.771 23.7477 192.488 25.6677 192.488 28.8246V29.3046H185.361C185.472 31.3169 186.414 32.4431 188.02 32.4431C189.275 32.4431 190.161 31.8523 190.494 30.6338H192.561ZM187.928 25.3907C186.506 25.3907 185.657 26.2954 185.417 27.9569H190.438C190.198 26.2954 189.331 25.3907 187.928 25.3907ZM195.851 26.5907C195.851 29.1015 202.146 26.9969 202.146 31.0031C202.146 32.8677 200.466 34.0861 198.085 34.0861C195.703 34.0861 194.023 32.9784 193.654 30.6338H195.629C195.832 31.8707 196.755 32.5538 198.14 32.5538C199.469 32.5538 200.171 31.9631 200.171 31.1323C200.171 28.6769 193.968 30.7446 193.968 26.7015C193.968 25.1692 195.168 23.7477 197.66 23.7477C199.857 23.7477 201.482 24.7631 201.795 27.2184H199.82C199.598 25.8338 198.823 25.3169 197.568 25.3169C196.478 25.3169 195.851 25.8523 195.851 26.5907Z" fill="#313131"/>
<path d="M19.7157 71.4615V68.9715H23.3757V56.3115H19.7157V53.8515H21.6657C23.4357 53.8515 23.9157 53.4315 23.9157 52.5015V52.1715H26.7357V68.9715H30.3657V71.4615H19.7157ZM34.5109 71.4615V67.7715H38.2309V69.7515C38.2309 72.6315 37.7209 74.4315 36.5509 76.5015H34.8109C35.5309 74.7015 36.0109 73.3215 36.0109 71.4615H34.5109ZM41.3307 71.4615V70.6215C41.3307 61.9815 51.8007 62.5815 51.8007 57.6915C51.8007 55.6815 50.6007 54.4815 48.4407 54.4815C46.0707 54.4815 44.9007 55.7115 44.5407 57.7515H41.2707C41.7807 54.0615 44.3307 51.7815 48.4707 51.7815C52.8207 51.7815 55.0407 54.3615 55.0407 57.6615C55.0407 63.6915 45.9507 63.9015 44.6307 68.9715H55.1907V71.4615H41.3307ZM65.0359 71.4615H61.6759C62.6359 65.1315 65.0659 59.5815 68.6659 54.6915H58.2859V52.1715H72.1159V54.2115C68.0959 59.6415 65.7259 65.4315 65.0359 71.4615ZM87.271 71.4615H84.001V67.1415H74.821V64.2615L84.331 52.1715H87.271V64.6215H89.941V67.1415H87.271V71.4615ZM77.611 64.6215H84.001V56.2215L77.611 64.6215Z" fill="#313131"/>
<g filter="url(#filter0_i_2217_1337)">
<rect x="15.8457" y="92.3077" width="270" height="45" rx="6.92308" fill="#F7F8FA" fill-opacity="0.35"/>
<rect x="16.4226" y="92.8846" width="268.846" height="43.8462" rx="6.34615" stroke="#E5E6EC" stroke-width="1.15385"/>
<g clip-path="url(#clip0_2217_1337)">
<mask id="mask0_2217_1337" style="mask-type:luminance" maskUnits="userSpaceOnUse" x="29" y="105" width="20" height="20">
<path d="M29.6914 105.615H48.1529V124.077H29.6914V105.615Z" fill="white"/>
</mask>
<g mask="url(#mask0_2217_1337)">
<path fill-rule="evenodd" clip-rule="evenodd" d="M47.9279 109.687C48.0721 109.831 48.1531 110.027 48.1531 110.231C48.1531 110.435 48.0721 110.63 47.9279 110.775L40.6202 118.082C40.4759 118.226 40.2803 118.307 40.0763 118.307C39.8724 118.307 39.6767 118.226 39.5325 118.082L36.2302 114.78L31.0048 120.005C30.8597 120.145 30.6654 120.223 30.4637 120.221C30.262 120.22 30.0691 120.139 29.9265 119.996C29.7839 119.853 29.703 119.66 29.7012 119.459C29.6994 119.257 29.777 119.063 29.9171 118.918L35.6863 113.148C35.8306 113.004 36.0262 112.923 36.2302 112.923C36.4342 112.923 36.6298 113.004 36.774 113.148L40.0763 116.451L46.8402 109.687C46.9844 109.543 47.1801 109.462 47.384 109.462C47.588 109.462 47.7836 109.543 47.9279 109.687Z" fill="#3276F5"/>
<path fill-rule="evenodd" clip-rule="evenodd" d="M42 110.231C42 110.027 42.081 109.831 42.2253 109.687C42.3696 109.543 42.5652 109.462 42.7692 109.462H47.3846C47.5886 109.462 47.7843 109.543 47.9285 109.687C48.0728 109.831 48.1538 110.027 48.1538 110.231V114.846C48.1538 115.05 48.0728 115.246 47.9285 115.39C47.7843 115.534 47.5886 115.615 47.3846 115.615C47.1806 115.615 46.9849 115.534 46.8407 115.39C46.6964 115.246 46.6154 115.05 46.6154 114.846V111H42.7692C42.5652 111 42.3696 110.919 42.2253 110.775C42.081 110.63 42 110.435 42 110.231Z" fill="#3276F5"/>
</g>
</g>
<path d="M62.4423 120.846H60.6816V118.52H55.7385V116.969L60.8592 110.459H62.4423V117.163H63.88V118.52H62.4423V120.846ZM57.2408 117.163H60.6816V112.64L57.2408 117.163ZM66.6289 120.846V119.505H68.5997V112.688H66.6289V111.364H67.6789C68.632 111.364 68.8905 111.138 68.8905 110.637V110.459H70.4089V119.505H72.3636V120.846H66.6289ZM76.7925 116.113C75.2094 116.113 74.2725 115.047 74.2725 113.189C74.2725 111.315 75.2256 110.249 76.7925 110.249C78.3756 110.249 79.3125 111.348 79.3125 113.189C79.3125 115.047 78.3756 116.113 76.7925 116.113ZM76.001 120.846L83.2702 110.459H84.8856L77.6325 120.846H76.001ZM76.7925 114.95C77.5033 114.95 77.891 114.336 77.891 113.189C77.891 112.058 77.5033 111.428 76.7925 111.428C76.0817 111.428 75.7102 112.042 75.7102 113.189C75.7102 114.32 76.0979 114.95 76.7925 114.95ZM84.0779 120.992C82.4948 120.992 81.5579 119.909 81.5579 118.068C81.5579 116.194 82.511 115.112 84.0779 115.112C85.661 115.112 86.5979 116.21 86.5979 118.068C86.5979 119.925 85.6771 120.992 84.0779 120.992ZM84.0779 119.828C84.7886 119.828 85.1763 119.215 85.1763 118.068C85.1763 116.921 84.7886 116.291 84.0779 116.291C83.3833 116.291 82.9956 116.921 82.9956 118.068C82.9956 119.198 83.3833 119.828 84.0779 119.828Z" fill="#3276F5"/>
<path d="M95.095 119.846V109.646H96.775V118.481H101.71V119.846H95.095ZM104.799 114.461H103.194C103.449 112.691 104.664 111.641 106.659 111.641C108.834 111.641 109.914 112.916 109.914 114.776V117.896C109.914 118.856 110.004 119.411 110.184 119.846H108.504C108.384 119.546 108.339 119.126 108.324 118.676C107.649 119.621 106.614 120.041 105.654 120.041C104.034 120.041 102.924 119.276 102.924 117.746C102.924 116.651 103.524 115.841 104.724 115.436C105.789 115.076 106.869 114.986 108.309 114.971V114.791C108.309 113.621 107.769 112.991 106.539 112.991C105.504 112.991 104.949 113.561 104.799 114.461ZM104.544 117.686C104.544 118.361 105.099 118.781 105.954 118.781C107.289 118.781 108.309 117.716 108.309 116.426V116.066C105.234 116.096 104.544 116.771 104.544 117.686ZM113.352 113.951C113.352 115.991 118.467 114.281 118.467 117.536C118.467 119.051 117.102 120.041 115.167 120.041C113.232 120.041 111.867 119.141 111.567 117.236H113.172C113.337 118.241 114.087 118.796 115.212 118.796C116.292 118.796 116.862 118.316 116.862 117.641C116.862 115.646 111.822 117.326 111.822 114.041C111.822 112.796 112.797 111.641 114.822 111.641C116.607 111.641 117.927 112.466 118.182 114.461H116.577C116.397 113.336 115.767 112.916 114.747 112.916C113.862 112.916 113.352 113.351 113.352 113.951ZM120.288 117.461V113.096H119.208V111.851H120.288V110.006H121.893V111.851H123.618V113.096H121.893V117.371C121.893 118.286 122.148 118.721 123.273 118.721H123.588V119.891C123.408 119.981 123.033 120.041 122.583 120.041C121.023 120.041 120.288 119.186 120.288 117.461ZM128.639 123.341C128.294 123.341 127.934 123.251 127.754 123.191V121.961H128.189C129.104 121.961 129.449 121.781 130.139 120.116L130.379 119.561L127.169 111.851H128.894L130.874 116.831L131.219 117.926L131.564 116.831L133.484 111.851H135.119L131.489 120.776C130.679 122.771 130.064 123.341 128.639 123.341ZM143.283 117.236C142.848 119.096 141.468 120.041 139.593 120.041C137.238 120.041 135.798 118.466 135.798 115.856C135.798 113.141 137.238 111.641 139.518 111.641C141.828 111.641 143.223 113.201 143.223 115.766V116.156H137.433C137.523 117.791 138.288 118.706 139.593 118.706C140.613 118.706 141.333 118.226 141.603 117.236H143.283ZM139.518 112.976C138.363 112.976 137.673 113.711 137.478 115.061H141.558C141.363 113.711 140.658 112.976 139.518 112.976ZM146.495 114.461H144.89C145.145 112.691 146.36 111.641 148.355 111.641C150.53 111.641 151.61 112.916 151.61 114.776V117.896C151.61 118.856 151.7 119.411 151.88 119.846H150.2C150.08 119.546 150.035 119.126 150.02 118.676C149.345 119.621 148.31 120.041 147.35 120.041C145.73 120.041 144.62 119.276 144.62 117.746C144.62 116.651 145.22 115.841 146.42 115.436C147.485 115.076 148.565 114.986 150.005 114.971V114.791C150.005 113.621 149.465 112.991 148.235 112.991C147.2 112.991 146.645 113.561 146.495 114.461ZM146.24 117.686C146.24 118.361 146.795 118.781 147.65 118.781C148.985 118.781 150.005 117.716 150.005 116.426V116.066C146.93 116.096 146.24 116.771 146.24 117.686ZM153.773 119.846V111.851H155.378V113.036C155.903 112.076 156.728 111.641 157.658 111.641C157.973 111.641 158.273 111.716 158.423 111.851V113.261C158.183 113.186 157.898 113.156 157.568 113.156C156.038 113.156 155.378 114.086 155.378 115.481V119.846H153.773Z" fill="#6E7180"/>
<path d="M259.02 109.654C259.02 109.654 264.212 113.478 264.212 114.846C264.212 116.214 259.02 120.038 259.02 120.038" stroke="#313131" stroke-width="1.29808" stroke-linecap="round" stroke-linejoin="round"/>
</g>
<defs>
<filter id="filter0_i_2217_1337" x="15.8457" y="92.3077" width="270" height="49.6154" filterUnits="userSpaceOnUse" color-interpolation-filters="sRGB">
<feFlood flood-opacity="0" result="BackgroundImageFix"/>
<feBlend mode="normal" in="SourceGraphic" in2="BackgroundImageFix" result="shape"/>
<feColorMatrix in="SourceAlpha" type="matrix" values="0 0 0 0 0 0 0 0 0 0 0 0 0 0 0 0 0 0 127 0" result="hardAlpha"/>
<feOffset dy="4.61538"/>
<feGaussianBlur stdDeviation="13.8462"/>
<feComposite in2="hardAlpha" operator="arithmetic" k2="-1" k3="1"/>
<feColorMatrix type="matrix" values="0 0 0 0 0 0 0 0 0 0 0 0 0 0 0 0 0 0 0.01 0"/>
<feBlend mode="normal" in2="shape" result="effect1_innerShadow_2217_1337"/>
</filter>
<clipPath id="clip0_2217_1337">
<rect width="18.4615" height="18.4615" fill="white" transform="translate(29.6914 105.615)"/>
</clipPath>
</defs>
</svg>
