<svg width="396" height="378" viewBox="0 0 396 378" fill="none" xmlns="http://www.w3.org/2000/svg">
<g filter="url(#filter0_dddd_2217_1608)">
<rect x="22" y="11" width="300" height="335" rx="9.23077" fill="white"/>
<rect x="21.4231" y="10.4231" width="301.154" height="336.154" rx="9.80769" stroke="#E5E6EC" stroke-width="1.15385"/>
<path d="M40.5719 42.8462V32.0277H36.3811V30.2923H46.8119V32.0277H42.6395V42.8462H40.5719ZM48.5154 36.2185H46.54C46.8538 34.04 48.3492 32.7477 50.8046 32.7477C53.4815 32.7477 54.8108 34.317 54.8108 36.6062V40.4462C54.8108 41.6277 54.9215 42.3108 55.1431 42.8462H53.0754C52.9277 42.477 52.8723 41.96 52.8538 41.4062C52.0231 42.5693 50.7492 43.0862 49.5677 43.0862C47.5738 43.0862 46.2077 42.1447 46.2077 40.2616C46.2077 38.9139 46.9461 37.917 48.4231 37.4185C49.7338 36.9754 51.0631 36.8647 52.8354 36.8462V36.6247C52.8354 35.1847 52.1708 34.4093 50.6569 34.4093C49.3831 34.4093 48.7 35.1108 48.5154 36.2185ZM48.2015 40.1877C48.2015 41.0185 48.8846 41.5354 49.9369 41.5354C51.58 41.5354 52.8354 40.2247 52.8354 38.637V38.1939C49.0508 38.2308 48.2015 39.0616 48.2015 40.1877ZM57.1032 42.8462V33.0062H59.0785V34.4647C59.7247 33.2831 60.7401 32.7477 61.8847 32.7477C62.2724 32.7477 62.6416 32.84 62.8262 33.0062V34.7416C62.5308 34.6493 62.1801 34.6123 61.7739 34.6123C59.8908 34.6123 59.0785 35.757 59.0785 37.4739V42.8462H57.1032ZM67.3502 42.9016C64.8394 42.9016 63.3256 40.9816 63.3256 37.8431C63.3256 34.557 64.8763 32.7477 67.3502 32.7477C68.6056 32.7477 69.5471 33.1908 70.1748 34.04V33.0062H72.1502V43.16C72.1502 45.8554 70.3594 47.1662 67.9963 47.1662C65.6333 47.1662 63.9348 46.0585 63.584 43.7693H65.5594C65.744 44.9508 66.6856 45.5785 67.9779 45.5785C69.2886 45.5785 70.1748 44.8954 70.1748 43.197V41.5354C69.5102 42.44 68.5502 42.9016 67.3502 42.9016ZM67.7563 41.24C69.3256 41.24 70.1748 40.04 70.1748 37.8247C70.1748 35.6647 69.2886 34.4093 67.7563 34.4093C66.1871 34.4093 65.3379 35.6093 65.3379 37.8431C65.3379 40.0031 66.2056 41.24 67.7563 41.24ZM83.0984 39.6339C82.5631 41.9231 80.8646 43.0862 78.5569 43.0862C75.6584 43.0862 73.8861 41.1477 73.8861 37.9354C73.8861 34.5939 75.6584 32.7477 78.4646 32.7477C81.3077 32.7477 83.0246 34.6677 83.0246 37.8247V38.3047H75.8984C76.0092 40.317 76.9507 41.4431 78.5569 41.4431C79.8123 41.4431 80.6984 40.8523 81.0307 39.6339H83.0984ZM78.4646 34.3908C77.0431 34.3908 76.1938 35.2954 75.9538 36.957H80.9754C80.7354 35.2954 79.8677 34.3908 78.4646 34.3908ZM85.077 39.9108V34.5385H83.7478V33.0062H85.077V30.7354H87.0524V33.0062H89.1755V34.5385H87.0524V39.8C87.0524 40.9262 87.3662 41.4616 88.7508 41.4616H89.1385V42.9016C88.917 43.0123 88.4555 43.0862 87.9016 43.0862C85.9816 43.0862 85.077 42.0339 85.077 39.9108Z" fill="#313131"/>
<g filter="url(#filter1_i_2217_1608)">
<rect x="35.8457" y="61.6924" width="270" height="75" rx="6.92308" fill="#F7F8FA" fill-opacity="0.35"/>
<rect x="36.4226" y="62.2693" width="268.846" height="73.8462" rx="6.34615" stroke="#E5E6EC" stroke-width="1.15385"/>
<path d="M48.8677 88.6924V79.1724H50.4357V88.6924H48.8677ZM52.5051 88.6924V81.2304H54.0031V82.2244C54.5071 81.4264 55.2911 81.0344 56.2571 81.0344C57.8111 81.0344 58.7771 81.9444 58.7771 83.7084V88.6924H57.2931V84.0164C57.2931 82.9384 56.8171 82.2804 55.7951 82.2804C54.6751 82.2804 54.0031 83.2744 54.0031 84.3104V88.6924H52.5051ZM62.3691 88.6924L59.6251 81.2304H61.2351L63.1531 86.7744L63.3351 87.4884L63.5171 86.7744L65.4211 81.2304H66.9471L64.2031 88.6924H62.3691ZM74.6375 86.2564C74.2315 87.9924 72.9435 88.8744 71.1935 88.8744C68.9955 88.8744 67.6515 87.4044 67.6515 84.9684C67.6515 82.4344 68.9955 81.0344 71.1235 81.0344C73.2795 81.0344 74.5815 82.4904 74.5815 84.8844V85.2484H69.1775C69.2615 86.7744 69.9755 87.6284 71.1935 87.6284C72.1455 87.6284 72.8175 87.1804 73.0695 86.2564H74.6375ZM71.1235 82.2804C70.0455 82.2804 69.4015 82.9664 69.2195 84.2264H73.0275C72.8455 82.9664 72.1875 82.2804 71.1235 82.2804ZM76.222 88.6924V81.2304H77.72V82.2244C78.224 81.4264 79.008 81.0344 79.974 81.0344C81.528 81.0344 82.494 81.9444 82.494 83.7084V88.6924H81.01V84.0164C81.01 82.9384 80.534 82.2804 79.512 82.2804C78.392 82.2804 77.72 83.2744 77.72 84.3104V88.6924H76.222ZM84.6517 86.4664V82.3924H83.6437V81.2304H84.6517V79.5084H86.1497V81.2304H87.7597V82.3924H86.1497V86.3824C86.1497 87.2364 86.3877 87.6424 87.4377 87.6424H87.7317V88.7344C87.5637 88.8184 87.2137 88.8744 86.7937 88.8744C85.3377 88.8744 84.6517 88.0764 84.6517 86.4664ZM92.1474 88.8744C89.9774 88.8744 88.6614 87.4044 88.6614 84.9684C88.6614 82.4344 90.0194 81.0344 92.1474 81.0344C94.3174 81.0344 95.6334 82.5324 95.6334 84.9684C95.6334 87.4884 94.2754 88.8744 92.1474 88.8744ZM92.1474 87.6144C93.4214 87.6144 94.1074 86.6904 94.1074 84.9684C94.1074 83.2604 93.4074 82.2944 92.1474 82.2944C90.8874 82.2944 90.1874 83.2324 90.1874 84.9684C90.1874 86.6624 90.8874 87.6144 92.1474 87.6144ZM97.2318 88.6924V81.2304H98.7298V82.3364C99.2198 81.4404 99.9898 81.0344 100.858 81.0344C101.152 81.0344 101.432 81.1044 101.572 81.2304V82.5464C101.348 82.4764 101.082 82.4484 100.774 82.4484C99.3458 82.4484 98.7298 83.3164 98.7298 84.6184V88.6924H97.2318ZM103.263 91.9544C102.941 91.9544 102.605 91.8704 102.437 91.8144V90.6664H102.843C103.697 90.6664 104.019 90.4984 104.663 88.9444L104.887 88.4264L101.891 81.2304H103.501L105.349 85.8784L105.671 86.9004L105.993 85.8784L107.785 81.2304H109.311L105.923 89.5604C105.167 91.4224 104.593 91.9544 103.263 91.9544ZM119.742 88.6924L118.93 86.5504H114.59L113.778 88.6924H112.21L115.878 79.1724H117.712L121.38 88.6924H119.742ZM116.48 81.6084L115.066 85.3184H118.454L117.04 81.6084L116.76 80.6844L116.48 81.6084ZM128.784 83.8344H127.286C127.104 82.7704 126.418 82.2944 125.55 82.2944C124.304 82.2944 123.632 83.2464 123.632 84.9684C123.632 86.6624 124.332 87.6284 125.592 87.6284C126.488 87.6284 127.118 87.1384 127.342 86.1864H128.826C128.504 88.0484 127.216 88.8744 125.564 88.8744C123.408 88.8744 122.106 87.3904 122.106 84.9684C122.106 82.4344 123.436 81.0344 125.55 81.0344C127.216 81.0344 128.532 81.9724 128.784 83.8344ZM136.675 83.8344H135.177C134.995 82.7704 134.309 82.2944 133.441 82.2944C132.195 82.2944 131.523 83.2464 131.523 84.9684C131.523 86.6624 132.223 87.6284 133.483 87.6284C134.379 87.6284 135.009 87.1384 135.233 86.1864H136.717C136.395 88.0484 135.107 88.8744 133.455 88.8744C131.299 88.8744 129.997 87.3904 129.997 84.9684C129.997 82.4344 131.327 81.0344 133.441 81.0344C135.107 81.0344 136.423 81.9724 136.675 83.8344ZM142.957 85.5984V81.2304H144.441V88.6924H142.957V87.6844C142.467 88.4824 141.683 88.8744 140.731 88.8744C139.205 88.8744 138.253 87.9784 138.253 86.2144V81.2304H139.751V85.9064C139.751 86.9844 140.199 87.6284 141.193 87.6284C142.285 87.6284 142.957 86.6344 142.957 85.5984ZM146.405 88.6924V81.2304H147.903V82.3364C148.393 81.4404 149.163 81.0344 150.031 81.0344C150.325 81.0344 150.605 81.1044 150.745 81.2304V82.5464C150.521 82.4764 150.255 82.4484 149.947 82.4484C148.519 82.4484 147.903 83.3164 147.903 84.6184V88.6924H146.405ZM153.209 83.6664H151.711C151.949 82.0144 153.083 81.0344 154.945 81.0344C156.975 81.0344 157.983 82.2244 157.983 83.9604V86.8724C157.983 87.7684 158.067 88.2864 158.235 88.6924H156.667C156.555 88.4124 156.513 88.0204 156.499 87.6004C155.869 88.4824 154.903 88.8744 154.007 88.8744C152.495 88.8744 151.459 88.1604 151.459 86.7324C151.459 85.7104 152.019 84.9544 153.139 84.5764C154.133 84.2404 155.141 84.1564 156.485 84.1424V83.9744C156.485 82.8824 155.981 82.2944 154.833 82.2944C153.867 82.2944 153.349 82.8264 153.209 83.6664ZM152.971 86.6764C152.971 87.3064 153.489 87.6984 154.287 87.6984C155.533 87.6984 156.485 86.7044 156.485 85.5004V85.1644C153.615 85.1924 152.971 85.8224 152.971 86.6764ZM166.316 83.8344H164.818C164.636 82.7704 163.95 82.2944 163.082 82.2944C161.836 82.2944 161.164 83.2464 161.164 84.9684C161.164 86.6624 161.864 87.6284 163.124 87.6284C164.02 87.6284 164.65 87.1384 164.874 86.1864H166.358C166.036 88.0484 164.748 88.8744 163.096 88.8744C160.94 88.8744 159.638 87.3904 159.638 84.9684C159.638 82.4344 160.968 81.0344 163.082 81.0344C164.748 81.0344 166.064 81.9724 166.316 83.8344ZM168.193 91.9544C167.871 91.9544 167.535 91.8704 167.367 91.8144V90.6664H167.773C168.627 90.6664 168.949 90.4984 169.593 88.9444L169.817 88.4264L166.821 81.2304H168.431L170.279 85.8784L170.601 86.9004L170.923 85.8784L172.715 81.2304H174.241L170.853 89.5604C170.097 91.4224 169.523 91.9544 168.193 91.9544Z" fill="#6E7180"/>
<path d="M54.0057 105.26C54.0277 105.26 54.0277 105.26 54.0497 105.26C57.5037 105.282 59.6817 107.592 59.6817 112.542C59.6817 117.36 57.4817 119.978 53.9397 119.978C51.3217 119.978 49.3637 118.504 48.7257 115.776H51.1237C51.5417 117.25 52.6197 117.976 54.0277 117.976C56.1837 117.976 57.3497 116.304 57.4377 113.136C56.6457 114.258 55.3917 114.918 53.9177 114.918C50.8377 114.918 48.7697 113.136 48.7697 110.034C48.7697 107.064 50.9257 105.26 54.0057 105.26ZM54.0937 107.24C52.3337 107.24 51.1897 108.252 51.1897 110.034C51.1897 111.882 52.3337 112.96 54.0937 112.96C55.8317 112.96 56.9757 111.904 56.9757 110.034C56.9757 108.274 55.8317 107.24 54.0937 107.24ZM66.7255 119.978C63.4915 119.978 61.3575 118.35 61.3575 115.754C61.3575 114.148 62.2155 112.982 63.6455 112.322C62.5015 111.662 61.8415 110.606 61.8415 109.242C61.8415 106.844 63.8215 105.26 66.7255 105.26C69.6515 105.26 71.6315 106.756 71.6315 109.242C71.6315 110.606 70.9275 111.684 69.7615 112.322C71.2355 113.004 72.0935 114.214 72.0935 115.732C72.0935 118.394 69.9595 119.978 66.7255 119.978ZM66.7255 107.174C65.1855 107.174 64.1515 107.988 64.1515 109.33C64.1515 110.738 65.1635 111.53 66.7255 111.53C68.2655 111.53 69.3215 110.694 69.3215 109.352C69.3215 107.966 68.3095 107.174 66.7255 107.174ZM66.7255 118.064C68.5515 118.064 69.7395 117.184 69.7395 115.622C69.7395 114.082 68.5075 113.18 66.7255 113.18C64.9215 113.18 63.7115 114.06 63.7115 115.644C63.7115 117.14 64.9215 118.064 66.7255 118.064ZM73.9893 119.692V116.986H76.7173V119.692H73.9893ZM83.9185 119.692H81.4545C82.1585 115.05 83.9405 110.98 86.5805 107.394H78.9685V105.546H89.1105V107.042C86.1625 111.024 84.4245 115.27 83.9185 119.692ZM93.9763 113.246C91.8203 113.246 90.5443 111.794 90.5443 109.264C90.5443 106.712 91.8423 105.26 93.9763 105.26C96.1323 105.26 97.4083 106.756 97.4083 109.264C97.4083 111.794 96.1323 113.246 93.9763 113.246ZM92.8983 119.692L102.798 105.546H104.998L95.1203 119.692H92.8983ZM93.9763 111.662C94.9443 111.662 95.4723 110.826 95.4723 109.264C95.4723 107.724 94.9443 106.866 93.9763 106.866C93.0083 106.866 92.5023 107.702 92.5023 109.264C92.5023 110.804 93.0303 111.662 93.9763 111.662ZM103.898 119.89C101.742 119.89 100.466 118.416 100.466 115.908C100.466 113.356 101.764 111.882 103.898 111.882C106.054 111.882 107.33 113.378 107.33 115.908C107.33 118.438 106.076 119.89 103.898 119.89ZM103.898 118.306C104.866 118.306 105.394 117.47 105.394 115.908C105.394 114.346 104.866 113.488 103.898 113.488C102.952 113.488 102.424 114.346 102.424 115.908C102.424 117.448 102.952 118.306 103.898 118.306Z" fill="#313131"/>
</g>
<g filter="url(#filter2_i_2217_1608)">
<rect x="35.8457" y="150.539" width="270" height="75" rx="6.92308" fill="#F7F8FA" fill-opacity="0.35"/>
<rect x="36.4226" y="151.115" width="268.846" height="73.8462" rx="6.34615" stroke="#E5E6EC" stroke-width="1.15385"/>
<path d="M48.8677 177.539V168.019H55.4337V169.279H50.4357V172.275H54.9017V173.535H50.4357V177.539H48.8677ZM61.5294 174.445V170.077H63.0134V177.539H61.5294V176.531C61.0394 177.329 60.2554 177.721 59.3034 177.721C57.7774 177.721 56.8254 176.825 56.8254 175.061V170.077H58.3234V174.753C58.3234 175.831 58.7714 176.475 59.7654 176.475C60.8574 176.475 61.5294 175.481 61.5294 174.445ZM64.9771 177.539V167.459H66.4751V177.539H64.9771ZM67.5857 171.225V170.077H68.5657V169.685C68.5657 168.061 69.2657 167.277 70.6657 167.277C71.0437 167.277 71.3377 167.347 71.4777 167.417V168.425H71.3517C70.3157 168.425 70.0637 168.845 70.0637 169.699V170.077H71.4777V171.225H70.0637V177.539H68.5657V171.225H67.5857ZM72.3877 169.153V167.459H73.8857V169.153H72.3877ZM72.3877 177.539V170.077H73.8857V177.539H72.3877ZM75.8255 177.539V167.459H77.3235V177.539H75.8255ZM79.2741 177.539V167.459H80.7721V177.539H79.2741ZM82.7227 177.539V170.077H84.2207V171.029C84.6967 170.259 85.4387 169.881 86.3207 169.881C87.3147 169.881 88.0567 170.315 88.4207 171.169C88.9107 170.315 89.7227 169.881 90.7027 169.881C92.1727 169.881 93.1247 170.791 93.1247 172.555V177.539H91.6267V172.863C91.6267 171.785 91.2207 171.127 90.2967 171.127C89.2887 171.127 88.6727 172.121 88.6727 173.157V177.539H87.1747V172.863C87.1747 171.785 86.7547 171.127 85.8447 171.127C84.8367 171.127 84.2207 172.121 84.2207 173.157V177.539H82.7227ZM101.707 175.103C101.301 176.839 100.013 177.721 98.2633 177.721C96.0653 177.721 94.7213 176.251 94.7213 173.815C94.7213 171.281 96.0653 169.881 98.1933 169.881C100.349 169.881 101.651 171.337 101.651 173.731V174.095H96.2473C96.3313 175.621 97.0453 176.475 98.2633 176.475C99.2153 176.475 99.8873 176.027 100.139 175.103H101.707ZM98.1933 171.127C97.1153 171.127 96.4713 171.813 96.2893 173.073H100.097C99.9153 171.813 99.2573 171.127 98.1933 171.127ZM103.292 177.539V170.077H104.79V171.071C105.294 170.273 106.078 169.881 107.044 169.881C108.598 169.881 109.564 170.791 109.564 172.555V177.539H108.08V172.863C108.08 171.785 107.604 171.127 106.582 171.127C105.462 171.127 104.79 172.121 104.79 173.157V177.539H103.292ZM111.721 175.313V171.239H110.713V170.077H111.721V168.355H113.219V170.077H114.829V171.239H113.219V175.229C113.219 176.083 113.457 176.489 114.507 176.489H114.801V177.581C114.633 177.665 114.283 177.721 113.863 177.721C112.407 177.721 111.721 176.923 111.721 175.313ZM119.095 177.539V168.019H122.665C124.723 168.019 126.025 169.083 126.025 170.763C126.025 171.841 125.535 172.597 124.681 173.017C125.241 173.311 125.549 173.829 125.759 174.683L126.473 177.539H124.821L124.247 174.991C123.995 173.899 123.575 173.689 122.525 173.689H120.663V177.539H119.095ZM122.623 169.279H120.663V172.429H122.595C123.757 172.429 124.415 171.813 124.415 170.847C124.415 169.895 123.757 169.279 122.623 169.279ZM129.356 172.513H127.858C128.096 170.861 129.23 169.881 131.092 169.881C133.122 169.881 134.13 171.071 134.13 172.807V175.719C134.13 176.615 134.214 177.133 134.382 177.539H132.814C132.702 177.259 132.66 176.867 132.646 176.447C132.016 177.329 131.05 177.721 130.154 177.721C128.642 177.721 127.606 177.007 127.606 175.579C127.606 174.557 128.166 173.801 129.286 173.423C130.28 173.087 131.288 173.003 132.632 172.989V172.821C132.632 171.729 132.128 171.141 130.98 171.141C130.014 171.141 129.496 171.673 129.356 172.513ZM129.118 175.523C129.118 176.153 129.636 176.545 130.434 176.545C131.68 176.545 132.632 175.551 132.632 174.347V174.011C129.762 174.039 129.118 174.669 129.118 175.523ZM136.344 175.313V171.239H135.336V170.077H136.344V168.355H137.842V170.077H139.452V171.239H137.842V175.229C137.842 176.083 138.08 176.489 139.13 176.489H139.424V177.581C139.256 177.665 138.906 177.721 138.486 177.721C137.03 177.721 136.344 176.923 136.344 175.313ZM147.34 175.103C146.934 176.839 145.646 177.721 143.896 177.721C141.698 177.721 140.354 176.251 140.354 173.815C140.354 171.281 141.698 169.881 143.826 169.881C145.982 169.881 147.284 171.337 147.284 173.731V174.095H141.88C141.964 175.621 142.678 176.475 143.896 176.475C144.848 176.475 145.52 176.027 145.772 175.103H147.34ZM143.826 171.127C142.748 171.127 142.104 171.813 141.922 173.073H145.73C145.548 171.813 144.89 171.127 143.826 171.127Z" fill="#6E7180"/>
<path d="M54.0057 194.107C54.0277 194.107 54.0277 194.107 54.0497 194.107C57.5037 194.129 59.6817 196.439 59.6817 201.389C59.6817 206.207 57.4817 208.825 53.9397 208.825C51.3217 208.825 49.3637 207.351 48.7257 204.623H51.1237C51.5417 206.097 52.6197 206.823 54.0277 206.823C56.1837 206.823 57.3497 205.151 57.4377 201.983C56.6457 203.105 55.3917 203.765 53.9177 203.765C50.8377 203.765 48.7697 201.983 48.7697 198.881C48.7697 195.911 50.9257 194.107 54.0057 194.107ZM54.0937 196.087C52.3337 196.087 51.1897 197.099 51.1897 198.881C51.1897 200.729 52.3337 201.807 54.0937 201.807C55.8317 201.807 56.9757 200.751 56.9757 198.881C56.9757 197.121 55.8317 196.087 54.0937 196.087ZM72.1595 203.809C72.1595 206.713 70.3115 208.825 66.8355 208.825C63.6455 208.825 61.6875 207.197 61.2915 204.491H63.6455C63.8875 205.943 64.9215 206.845 66.8135 206.845C68.7935 206.845 69.8055 205.723 69.8055 203.853C69.8055 202.291 69.0575 200.751 66.7915 200.751C65.2955 200.751 64.4375 201.411 63.9535 202.137L61.8415 201.939L62.2815 194.393H71.4775V196.241H64.1735L63.9535 199.739C64.7455 199.167 65.6915 198.793 66.9895 198.793C70.7075 198.793 72.1595 201.125 72.1595 203.809ZM73.9893 208.539V205.833H76.7173V208.539H73.9893ZM89.5505 204.557C89.5505 206.955 87.7025 208.825 84.1385 208.825C80.9705 208.825 78.9245 207.153 78.5285 204.381H80.9265C81.1685 205.899 82.1805 206.845 84.1165 206.845C86.0965 206.845 87.1525 205.965 87.1525 204.447C87.1525 203.325 86.5365 202.159 83.5225 202.159H82.8405V200.355H83.3905C86.2725 200.355 86.7565 199.167 86.7565 198.243C86.7565 196.901 85.8545 196.087 84.1605 196.087C82.3785 196.087 81.4545 196.989 81.1905 198.485H78.8365C79.2105 195.779 81.1245 194.107 84.1825 194.107C87.4385 194.107 89.1545 195.889 89.1545 198.221C89.1545 199.541 88.6045 200.531 87.2405 201.125C88.9125 201.829 89.5505 203.061 89.5505 204.557ZM93.9763 202.093C91.8203 202.093 90.5443 200.641 90.5443 198.111C90.5443 195.559 91.8423 194.107 93.9763 194.107C96.1323 194.107 97.4083 195.603 97.4083 198.111C97.4083 200.641 96.1323 202.093 93.9763 202.093ZM92.8983 208.539L102.798 194.393H104.998L95.1203 208.539H92.8983ZM93.9763 200.509C94.9443 200.509 95.4723 199.673 95.4723 198.111C95.4723 196.571 94.9443 195.713 93.9763 195.713C93.0083 195.713 92.5023 196.549 92.5023 198.111C92.5023 199.651 93.0303 200.509 93.9763 200.509ZM103.898 208.737C101.742 208.737 100.466 207.263 100.466 204.755C100.466 202.203 101.764 200.729 103.898 200.729C106.054 200.729 107.33 202.225 107.33 204.755C107.33 207.285 106.076 208.737 103.898 208.737ZM103.898 207.153C104.866 207.153 105.394 206.317 105.394 204.755C105.394 203.193 104.866 202.335 103.898 202.335C102.952 202.335 102.424 203.193 102.424 204.755C102.424 206.295 102.952 207.153 103.898 207.153Z" fill="#313131"/>
</g>
<g filter="url(#filter3_i_2217_1608)">
<rect x="35.8457" y="239.385" width="270" height="75" rx="6.92308" fill="#F7F8FA" fill-opacity="0.35"/>
<rect x="36.4226" y="239.962" width="268.846" height="73.8462" rx="6.34615" stroke="#E5E6EC" stroke-width="1.15385"/>
<path d="M48.8677 266.385V256.865H52.4377C54.4957 256.865 55.7977 257.929 55.7977 259.609C55.7977 260.687 55.3077 261.443 54.4537 261.863C55.0137 262.157 55.3217 262.675 55.5317 263.529L56.2457 266.385H54.5937L54.0197 263.837C53.7677 262.745 53.3477 262.535 52.2977 262.535H50.4357V266.385H48.8677ZM52.3957 258.125H50.4357V261.275H52.3677C53.5297 261.275 54.1877 260.659 54.1877 259.693C54.1877 258.741 53.5297 258.125 52.3957 258.125ZM64.3361 263.949C63.9301 265.685 62.6421 266.567 60.8921 266.567C58.6941 266.567 57.3501 265.097 57.3501 262.661C57.3501 260.127 58.6941 258.727 60.8221 258.727C62.9781 258.727 64.2801 260.183 64.2801 262.577V262.941H58.8761C58.9601 264.467 59.6741 265.321 60.8921 265.321C61.8441 265.321 62.5161 264.873 62.7681 263.949H64.3361ZM60.8221 259.973C59.7441 259.973 59.1001 260.659 58.9181 261.919H62.7261C62.5441 260.659 61.8861 259.973 60.8221 259.973ZM66.1165 264.159V260.085H65.1085V258.923H66.1165V257.201H67.6145V258.923H69.2245V260.085H67.6145V264.075C67.6145 264.929 67.8525 265.335 68.9025 265.335H69.1965V266.427C69.0285 266.511 68.6785 266.567 68.2585 266.567C66.8025 266.567 66.1165 265.769 66.1165 264.159ZM75.1942 263.291V258.923H76.6782V266.385H75.1942V265.377C74.7042 266.175 73.9202 266.567 72.9682 266.567C71.4422 266.567 70.4902 265.671 70.4902 263.907V258.923H71.9882V263.599C71.9882 264.677 72.4362 265.321 73.4302 265.321C74.5222 265.321 75.1942 264.327 75.1942 263.291ZM78.6419 266.385V258.923H80.1399V260.029C80.6299 259.133 81.3999 258.727 82.2679 258.727C82.5619 258.727 82.8419 258.797 82.9819 258.923V260.239C82.7579 260.169 82.4919 260.141 82.1839 260.141C80.7559 260.141 80.1399 261.009 80.1399 262.311V266.385H78.6419ZM84.1413 266.385V258.923H85.6393V259.917C86.1433 259.119 86.9273 258.727 87.8933 258.727C89.4473 258.727 90.4133 259.637 90.4133 261.401V266.385H88.9293V261.709C88.9293 260.631 88.4533 259.973 87.4313 259.973C86.3113 259.973 85.6393 260.967 85.6393 262.003V266.385H84.1413ZM95.375 266.385V256.865H98.945C101.003 256.865 102.305 257.929 102.305 259.609C102.305 260.687 101.815 261.443 100.961 261.863C101.521 262.157 101.829 262.675 102.039 263.529L102.753 266.385H101.101L100.527 263.837C100.275 262.745 99.855 262.535 98.805 262.535H96.943V266.385H95.375ZM98.903 258.125H96.943V261.275H98.875C100.037 261.275 100.695 260.659 100.695 259.693C100.695 258.741 100.037 258.125 98.903 258.125ZM105.635 261.359H104.137C104.375 259.707 105.509 258.727 107.371 258.727C109.401 258.727 110.409 259.917 110.409 261.653V264.565C110.409 265.461 110.493 265.979 110.661 266.385H109.093C108.981 266.105 108.939 265.713 108.925 265.293C108.295 266.175 107.329 266.567 106.433 266.567C104.921 266.567 103.885 265.853 103.885 264.425C103.885 263.403 104.445 262.647 105.565 262.269C106.559 261.933 107.567 261.849 108.911 261.835V261.667C108.911 260.575 108.407 259.987 107.259 259.987C106.293 259.987 105.775 260.519 105.635 261.359ZM105.397 264.369C105.397 264.999 105.915 265.391 106.713 265.391C107.959 265.391 108.911 264.397 108.911 263.193V262.857C106.041 262.885 105.397 263.515 105.397 264.369ZM112.624 264.159V260.085H111.616V258.923H112.624V257.201H114.122V258.923H115.732V260.085H114.122V264.075C114.122 264.929 114.36 265.335 115.41 265.335H115.704V266.427C115.536 266.511 115.186 266.567 114.766 266.567C113.31 266.567 112.624 265.769 112.624 264.159ZM123.62 263.949C123.214 265.685 121.926 266.567 120.176 266.567C117.978 266.567 116.634 265.097 116.634 262.661C116.634 260.127 117.978 258.727 120.106 258.727C122.262 258.727 123.564 260.183 123.564 262.577V262.941H118.16C118.244 264.467 118.958 265.321 120.176 265.321C121.128 265.321 121.8 264.873 122.052 263.949H123.62ZM120.106 259.973C119.028 259.973 118.384 260.659 118.202 261.919H122.01C121.828 260.659 121.17 259.973 120.106 259.973Z" fill="#6E7180"/>
<path d="M49.0997 297.385V296.769C49.0997 290.433 56.7777 290.873 56.7777 287.287C56.7777 285.813 55.8977 284.933 54.3137 284.933C52.5757 284.933 51.7177 285.835 51.4537 287.331H49.0557C49.4297 284.625 51.2997 282.953 54.3357 282.953C57.5257 282.953 59.1537 284.845 59.1537 287.265C59.1537 291.687 52.4877 291.841 51.5197 295.559H59.2637V297.385H49.0997ZM61.5335 297.385V294.679H64.2615V297.385H61.5335ZM68.1187 297.385V295.559H70.8027V286.275H68.1187V284.471H69.5487C70.8467 284.471 71.1987 284.163 71.1987 283.481V283.239H73.2667V295.559H75.9287V297.385H68.1187ZM81.5205 290.939C79.3645 290.939 78.0885 289.487 78.0885 286.957C78.0885 284.405 79.3865 282.953 81.5205 282.953C83.6765 282.953 84.9525 284.449 84.9525 286.957C84.9525 289.487 83.6765 290.939 81.5205 290.939ZM80.4425 297.385L90.3425 283.239H92.5425L82.6645 297.385H80.4425ZM81.5205 289.355C82.4885 289.355 83.0165 288.519 83.0165 286.957C83.0165 285.417 82.4885 284.559 81.5205 284.559C80.5525 284.559 80.0465 285.395 80.0465 286.957C80.0465 288.497 80.5745 289.355 81.5205 289.355ZM91.4425 297.583C89.2865 297.583 88.0105 296.109 88.0105 293.601C88.0105 291.049 89.3085 289.575 91.4425 289.575C93.5985 289.575 94.8745 291.071 94.8745 293.601C94.8745 296.131 93.6205 297.583 91.4425 297.583ZM91.4425 295.999C92.4105 295.999 92.9385 295.163 92.9385 293.601C92.9385 292.039 92.4105 291.181 91.4425 291.181C90.4965 291.181 89.9685 292.039 89.9685 293.601C89.9685 295.141 90.4965 295.999 91.4425 295.999Z" fill="#313131"/>
</g>
</g>
<defs>
<filter id="filter0_dddd_2217_1608" x="0.845703" y="0.846191" width="394.309" height="491.308" filterUnits="userSpaceOnUse" color-interpolation-filters="sRGB">
<feFlood flood-opacity="0" result="BackgroundImageFix"/>
<feColorMatrix in="SourceAlpha" type="matrix" values="0 0 0 0 0 0 0 0 0 0 0 0 0 0 0 0 0 0 127 0" result="hardAlpha"/>
<feOffset dx="2" dy="6"/>
<feGaussianBlur stdDeviation="7.5"/>
<feColorMatrix type="matrix" values="0 0 0 0 0 0 0 0 0 0 0 0 0 0 0 0 0 0 0.17 0"/>
<feBlend mode="normal" in2="BackgroundImageFix" result="effect1_dropShadow_2217_1608"/>
<feColorMatrix in="SourceAlpha" type="matrix" values="0 0 0 0 0 0 0 0 0 0 0 0 0 0 0 0 0 0 127 0" result="hardAlpha"/>
<feOffset dx="7" dy="26"/>
<feGaussianBlur stdDeviation="13.5"/>
<feColorMatrix type="matrix" values="0 0 0 0 0 0 0 0 0 0 0 0 0 0 0 0 0 0 0.15 0"/>
<feBlend mode="normal" in2="effect1_dropShadow_2217_1608" result="effect2_dropShadow_2217_1608"/>
<feColorMatrix in="SourceAlpha" type="matrix" values="0 0 0 0 0 0 0 0 0 0 0 0 0 0 0 0 0 0 127 0" result="hardAlpha"/>
<feOffset dx="17" dy="58"/>
<feGaussianBlur stdDeviation="18"/>
<feColorMatrix type="matrix" values="0 0 0 0 0 0 0 0 0 0 0 0 0 0 0 0 0 0 0.09 0"/>
<feBlend mode="normal" in2="effect2_dropShadow_2217_1608" result="effect3_dropShadow_2217_1608"/>
<feColorMatrix in="SourceAlpha" type="matrix" values="0 0 0 0 0 0 0 0 0 0 0 0 0 0 0 0 0 0 127 0" result="hardAlpha"/>
<feOffset dx="29" dy="102"/>
<feGaussianBlur stdDeviation="21.5"/>
<feColorMatrix type="matrix" values="0 0 0 0 0 0 0 0 0 0 0 0 0 0 0 0 0 0 0.03 0"/>
<feBlend mode="normal" in2="effect3_dropShadow_2217_1608" result="effect4_dropShadow_2217_1608"/>
<feBlend mode="normal" in="SourceGraphic" in2="effect4_dropShadow_2217_1608" result="shape"/>
</filter>
<filter id="filter1_i_2217_1608" x="35.8457" y="61.6924" width="270" height="79.6154" filterUnits="userSpaceOnUse" color-interpolation-filters="sRGB">
<feFlood flood-opacity="0" result="BackgroundImageFix"/>
<feBlend mode="normal" in="SourceGraphic" in2="BackgroundImageFix" result="shape"/>
<feColorMatrix in="SourceAlpha" type="matrix" values="0 0 0 0 0 0 0 0 0 0 0 0 0 0 0 0 0 0 127 0" result="hardAlpha"/>
<feOffset dy="4.61538"/>
<feGaussianBlur stdDeviation="13.8462"/>
<feComposite in2="hardAlpha" operator="arithmetic" k2="-1" k3="1"/>
<feColorMatrix type="matrix" values="0 0 0 0 0 0 0 0 0 0 0 0 0 0 0 0 0 0 0.01 0"/>
<feBlend mode="normal" in2="shape" result="effect1_innerShadow_2217_1608"/>
</filter>
<filter id="filter2_i_2217_1608" x="35.8457" y="150.539" width="270" height="79.6154" filterUnits="userSpaceOnUse" color-interpolation-filters="sRGB">
<feFlood flood-opacity="0" result="BackgroundImageFix"/>
<feBlend mode="normal" in="SourceGraphic" in2="BackgroundImageFix" result="shape"/>
<feColorMatrix in="SourceAlpha" type="matrix" values="0 0 0 0 0 0 0 0 0 0 0 0 0 0 0 0 0 0 127 0" result="hardAlpha"/>
<feOffset dy="4.61538"/>
<feGaussianBlur stdDeviation="13.8462"/>
<feComposite in2="hardAlpha" operator="arithmetic" k2="-1" k3="1"/>
<feColorMatrix type="matrix" values="0 0 0 0 0 0 0 0 0 0 0 0 0 0 0 0 0 0 0.01 0"/>
<feBlend mode="normal" in2="shape" result="effect1_innerShadow_2217_1608"/>
</filter>
<filter id="filter3_i_2217_1608" x="35.8457" y="239.385" width="270" height="79.6154" filterUnits="userSpaceOnUse" color-interpolation-filters="sRGB">
<feFlood flood-opacity="0" result="BackgroundImageFix"/>
<feBlend mode="normal" in="SourceGraphic" in2="BackgroundImageFix" result="shape"/>
<feColorMatrix in="SourceAlpha" type="matrix" values="0 0 0 0 0 0 0 0 0 0 0 0 0 0 0 0 0 0 127 0" result="hardAlpha"/>
<feOffset dy="4.61538"/>
<feGaussianBlur stdDeviation="13.8462"/>
<feComposite in2="hardAlpha" operator="arithmetic" k2="-1" k3="1"/>
<feColorMatrix type="matrix" values="0 0 0 0 0 0 0 0 0 0 0 0 0 0 0 0 0 0 0.01 0"/>
<feBlend mode="normal" in2="shape" result="effect1_innerShadow_2217_1608"/>
</filter>
</defs>
</svg>
