<svg width="400" height="222" viewBox="0 0 400 222" fill="none" xmlns="http://www.w3.org/2000/svg">
<g clip-path="url(#clip0_1598_831)">
<rect width="400" height="222" fill="#F1F3F4"/>
<path fill-rule="evenodd" clip-rule="evenodd" d="M-426.965 -11.9998V-12L-427.756 -12V-11.9998L-828 -11.9998V-11.2088L-771.048 -11.2088L-771.048 37.0417L-828 37.0417V37.8327L-771.048 37.8327V86.0835L-828 86.0834V86.8744L-771.048 86.8744V135.125H-828V135.916H-771.048V184.167H-828V184.958H-771.048V233.209H-828V234L1228.59 234V233.209L-476.333 233.209V184.958H-427.756V232.937H-426.965V184.958L-378.768 184.958V232.937H-377.977V184.958H-329.782V232.937H-328.991V184.958H-280.794V232.937H-280.003V184.958H-231.806V232.937H-231.015V184.958L-182.819 184.958V232.937H-182.028V184.958H-133.832V232.937H-133.041V184.958H-84.7902V232.937H-83.9992V184.958L-35.7487 184.958V232.937H-34.9577V184.958H13.2933V232.937H14.0844V184.958H62.3348V232.937H63.1259V184.958H111.377V232.937H112.168V184.958L160.418 184.958V232.937H161.209V184.958H209.46V232.937H210.251V184.958H258.502V232.937H259.293V184.958L307.544 184.958V232.937H308.335V184.958H356.585V232.937H357.376V184.958H405.627V232.937H406.418V184.958H454.669V232.937H455.46V184.958L503.711 184.958V232.937H504.502V184.958H552.753V232.937H553.544V184.958H601.795V232.937H602.586V184.958L650.836 184.958V232.937H651.627V184.958H699.878V232.937H700.669V184.958H748.92V232.937H749.711V184.958H797.962V232.937H798.753V184.958L847.003 184.958V232.937H847.794V184.958H896.045V232.937H896.836V184.958H945.087V232.937H945.878V184.958L994.129 184.958V232.937H994.92V184.958H1043.17V232.937H1043.96V184.958H1092.21V232.937H1093V184.958H1141.25V232.937H1142.04V184.958L1190.3 184.958V232.937H1191.09V184.958H1228.59V184.167H1191.09V135.916H1228.59V135.125H1191.09V86.8746H1228.59V86.0836H1191.09V37.8328L1228.59 37.8328V37.0419L1191.09 37.0418V-11.2086L1228.59 -11.2086V-11.9996L1191.09 -11.9996V-12L1190.3 -12V-11.9996L1142.04 -11.9996V-12L1141.25 -12V-11.9996L1093 -11.9997V-12L1092.21 -12V-11.9997L1043.96 -11.9997V-12L1043.17 -12V-11.9997L994.92 -11.9997V-12L994.129 -12V-11.9997L945.878 -11.9997V-12L945.087 -12V-11.9997L896.836 -11.9997V-12L896.045 -12V-11.9997L847.794 -11.9997V-12L847.003 -12V-11.9997L798.753 -11.9997V-12L797.962 -12V-11.9997L749.711 -11.9997V-12L748.92 -12V-11.9997L700.669 -11.9997V-12L699.878 -12V-11.9997L651.627 -11.9997V-12L650.836 -12V-11.9997L602.586 -11.9997V-12L601.795 -12V-11.9997L553.544 -11.9997V-12L552.753 -12V-11.9997L504.502 -11.9997V-12L503.711 -12V-11.9997L455.46 -11.9997V-12L454.669 -12V-11.9997L406.418 -11.9997V-12L405.627 -12V-11.9997L357.376 -11.9997V-12L356.585 -12V-11.9997L308.335 -11.9997V-12L307.544 -12V-11.9997L259.293 -11.9997V-12L258.502 -12V-11.9997L210.251 -11.9997V-12L209.46 -12V-11.9997L161.209 -11.9997V-12L160.418 -12V-11.9997L112.168 -11.9997V-12L111.377 -12V-11.9997L63.1259 -11.9997V-12L62.3348 -12V-11.9997L14.0844 -11.9997V-12L13.2933 -12V-11.9997L-34.9577 -11.9998V-12L-35.7487 -12V-11.9998L-83.9992 -11.9998V-12L-84.7902 -12V-11.9998L-133.041 -11.9998V-12L-133.832 -12V-11.9998L-182.028 -11.9998V-12L-182.819 -12V-11.9998L-231.015 -11.9998V-12L-231.806 -12V-11.9998L-280.003 -11.9998V-12L-280.794 -12V-11.9998L-328.991 -11.9998V-12L-329.782 -12V-11.9998L-377.977 -11.9998V-12L-378.768 -12V-11.9998L-426.965 -11.9998ZM-477.124 233.209V184.958H-525.32V233.209H-477.124ZM-526.111 233.209V184.958L-574.308 184.958V233.209L-526.111 233.209ZM-575.099 233.209V184.958H-623.295V233.209H-575.099ZM-624.086 233.209V184.958H-672.283V233.209H-624.086ZM-673.074 233.209V184.958H-721.27V233.209H-673.074ZM-722.061 233.209V184.958L-770.257 184.958V233.209L-722.061 233.209ZM-722.061 184.167L-770.257 184.167V135.916L-722.061 135.916V184.167ZM-673.074 184.167H-721.27V135.916H-673.074V184.167ZM-624.086 184.167H-672.283V135.916H-624.086V184.167ZM-575.099 184.167H-623.295V135.916H-575.099V184.167ZM-526.111 184.167L-574.308 184.167V135.916L-526.111 135.916V184.167ZM-477.124 184.167H-525.32V135.916H-477.124V184.167ZM-427.756 184.167H-476.333V135.916H-427.756V184.167ZM-378.768 184.167L-426.965 184.167V135.916L-378.768 135.916V184.167ZM-329.782 184.167H-377.977V135.916H-329.782V184.167ZM-280.794 184.167H-328.991V135.916H-280.794V184.167ZM-231.806 184.167H-280.003V135.916H-231.806V184.167ZM-182.819 184.167L-231.015 184.167V135.916L-182.819 135.916V184.167ZM-133.832 184.167H-182.028V135.916H-133.832V184.167ZM-84.7902 184.167H-133.041V135.916H-84.7902V184.167ZM-35.7487 184.167L-83.9992 184.167V135.916L-35.7487 135.916V184.167ZM13.2933 184.167H-34.9577V135.916H13.2933V184.167ZM62.3348 184.167H14.0844V135.916H62.3348V184.167ZM111.377 184.167H63.1259V135.916H111.377V184.167ZM160.418 184.167L112.168 184.167V135.916L160.418 135.916V184.167ZM209.46 184.167H161.209V135.916H209.46V184.167ZM258.502 184.167H210.251V135.916H258.502V184.167ZM307.544 184.167L259.293 184.167V135.916L307.544 135.916V184.167ZM356.585 184.167H308.335V135.916H356.585V184.167ZM405.627 184.167H357.376V135.916H405.627V184.167ZM454.669 184.167H406.418V135.916H454.669V184.167ZM503.711 184.167L455.46 184.167V135.916L503.711 135.916V184.167ZM552.753 184.167H504.502V135.916H552.753V184.167ZM601.795 184.167H553.544V135.916H601.795V184.167ZM650.836 184.167L602.586 184.167V135.916L650.836 135.916V184.167ZM699.878 184.167H651.627V135.916H699.878V184.167ZM748.92 184.167H700.669V135.916H748.92V184.167ZM797.962 184.167H749.711V135.916H797.962V184.167ZM847.003 184.167L798.753 184.167V135.916L847.003 135.916V184.167ZM896.045 184.167H847.794V135.916H896.045V184.167ZM945.087 184.167H896.836V135.916H945.087V184.167ZM994.129 184.167L945.878 184.167V135.916L994.129 135.916V184.167ZM1043.17 184.167H994.92V135.916H1043.17V184.167ZM1092.21 184.167H1043.96V135.916H1092.21V184.167ZM1141.25 184.167H1093V135.916H1141.25V184.167ZM1190.3 184.167L1142.04 184.167V135.916L1190.3 135.916V184.167ZM1190.3 135.125V86.8746L1142.04 86.8746V135.125L1190.3 135.125ZM1141.25 135.125V86.8746L1093 86.8746V135.125H1141.25ZM1092.21 135.125V86.8746H1043.96V135.125H1092.21ZM1043.17 135.125V86.8746L994.92 86.8746V135.125H1043.17ZM994.129 135.125V86.8746H945.878V135.125L994.129 135.125ZM945.087 135.125V86.8746L896.836 86.8746V135.125H945.087ZM896.045 135.125V86.8746H847.794V135.125H896.045ZM847.003 135.125V86.8746L798.753 86.8746V135.125L847.003 135.125ZM797.962 135.125V86.8746H749.711V135.125H797.962ZM748.92 135.125V86.8746L700.669 86.8746V135.125H748.92ZM699.878 135.125V86.8746H651.627V135.125H699.878ZM650.836 135.125V86.8746L602.586 86.8746V135.125L650.836 135.125ZM601.795 135.125V86.8746L553.544 86.8745V135.125H601.795ZM552.753 135.125V86.8745H504.502V135.125H552.753ZM503.711 135.125V86.8745L455.46 86.8745V135.125L503.711 135.125ZM454.669 135.125V86.8745H406.418V135.125H454.669ZM405.627 135.125V86.8745L357.376 86.8745V135.125H405.627ZM356.585 135.125V86.8745H308.335V135.125H356.585ZM307.544 135.125V86.8745L259.293 86.8745V135.125L307.544 135.125ZM258.502 135.125V86.8745H210.251V135.125H258.502ZM209.46 135.125V86.8745L161.209 86.8745V135.125H209.46ZM160.418 135.125V86.8745H112.168V135.125L160.418 135.125ZM111.377 135.125V86.8745L63.1259 86.8745V135.125H111.377ZM62.3348 135.125V86.8745L14.0844 86.8745V135.125H62.3348ZM13.2933 135.125V86.8745H-34.9577V135.125H13.2933ZM-35.7487 135.125V86.8745L-83.9992 86.8745V135.125L-35.7487 135.125ZM-84.7902 135.125V86.8745H-133.041V135.125H-84.7902ZM-133.832 135.125V86.8745L-182.028 86.8745V135.125H-133.832ZM-182.819 135.125V86.8745H-231.015V135.125L-182.819 135.125ZM-231.806 135.125V86.8745L-280.003 86.8745V135.125H-231.806ZM-280.794 135.125V86.8745H-328.991V135.125H-280.794ZM-329.782 135.125V86.8745L-377.977 86.8745V135.125H-329.782ZM-378.768 135.125V86.8745L-426.965 86.8745V135.125L-378.768 135.125ZM-427.756 135.125V86.8745H-476.333V135.125H-427.756ZM-477.124 135.125V86.8745L-525.32 86.8745V135.125H-477.124ZM-526.111 135.125V86.8745H-574.308V135.125L-526.111 135.125ZM-575.099 135.125V86.8745L-623.295 86.8745V135.125H-575.099ZM-624.086 135.125V86.8745H-672.283V135.125H-624.086ZM-673.074 135.125V86.8745L-721.27 86.8744V135.125H-673.074ZM-722.061 135.125V86.8744H-770.257V135.125L-722.061 135.125ZM-722.061 86.0835H-770.257V37.8327L-722.061 37.8327V86.0835ZM-673.074 86.0835L-721.27 86.0835V37.8327L-673.074 37.8327V86.0835ZM-624.086 86.0835H-672.283V37.8327L-624.086 37.8327V86.0835ZM-575.099 86.0835L-623.295 86.0835V37.8327L-575.099 37.8327V86.0835ZM-526.111 86.0835H-574.308V37.8327L-526.111 37.8327V86.0835ZM-477.124 86.0835L-525.32 86.0835V37.8327L-477.124 37.8327V86.0835ZM-427.756 86.0835H-476.333V37.8327L-427.756 37.8327V86.0835ZM-378.768 86.0835L-426.965 86.0835V37.8327L-378.768 37.8327V86.0835ZM-329.782 86.0835L-377.977 86.0835V37.8327L-329.782 37.8327V86.0835ZM-280.794 86.0835H-328.991V37.8327L-280.794 37.8327V86.0835ZM-231.806 86.0835L-280.003 86.0835V37.8327L-231.806 37.8327V86.0835ZM-182.819 86.0835H-231.015V37.8327L-182.819 37.8327V86.0835ZM-133.832 86.0835L-182.028 86.0835V37.8327L-133.832 37.8327V86.0835ZM-84.7902 86.0835H-133.041V37.8327L-84.7902 37.8327V86.0835ZM-35.7487 86.0835L-83.9992 86.0835V37.8327L-35.7487 37.8327V86.0835ZM13.2933 86.0835H-34.9577V37.8327L13.2933 37.8327V86.0835ZM62.3348 86.0835L14.0844 86.0835V37.8327L62.3348 37.8327V86.0835ZM111.377 86.0835L63.1259 86.0835V37.8327L111.377 37.8327V86.0835ZM160.418 86.0835H112.168V37.8327L160.418 37.8328V86.0835ZM209.46 86.0835L161.209 86.0835V37.8328L209.46 37.8328V86.0835ZM258.502 86.0835H210.251V37.8328L258.502 37.8328V86.0835ZM307.544 86.0835L259.293 86.0835V37.8328L307.544 37.8328V86.0835ZM356.585 86.0835H308.335V37.8328L356.585 37.8328V86.0835ZM405.627 86.0835L357.376 86.0835V37.8328L405.627 37.8328V86.0835ZM454.669 86.0835H406.418V37.8328L454.669 37.8328V86.0835ZM503.711 86.0836L455.46 86.0835V37.8328L503.711 37.8328V86.0836ZM552.753 86.0836H504.502V37.8328L552.753 37.8328V86.0836ZM601.795 86.0836L553.544 86.0836V37.8328L601.795 37.8328V86.0836ZM650.836 86.0836L602.586 86.0836V37.8328L650.836 37.8328V86.0836ZM699.878 86.0836H651.627V37.8328L699.878 37.8328V86.0836ZM748.92 86.0836L700.669 86.0836V37.8328L748.92 37.8328V86.0836ZM797.962 86.0836H749.711V37.8328L797.962 37.8328V86.0836ZM847.003 86.0836L798.753 86.0836V37.8328L847.003 37.8328V86.0836ZM896.045 86.0836H847.794V37.8328L896.045 37.8328V86.0836ZM945.087 86.0836L896.836 86.0836V37.8328L945.087 37.8328V86.0836ZM994.129 86.0836H945.878V37.8328L994.129 37.8328V86.0836ZM1043.17 86.0836L994.92 86.0836V37.8328L1043.17 37.8328V86.0836ZM1092.21 86.0836H1043.96V37.8328L1092.21 37.8328V86.0836ZM1141.25 86.0836L1093 86.0836V37.8328L1141.25 37.8328V86.0836ZM1190.3 86.0836L1142.04 86.0836V37.8328L1190.3 37.8328V86.0836ZM1190.3 37.0418V-11.2086L1142.04 -11.2087V37.0418L1190.3 37.0418ZM1141.25 37.0418V-11.2087L1093 -11.2087V37.0418L1141.25 37.0418ZM1092.21 37.0418V-11.2087L1043.96 -11.2087V37.0418L1092.21 37.0418ZM1043.17 37.0418V-11.2087L994.92 -11.2087V37.0418L1043.17 37.0418ZM994.129 37.0418V-11.2087L945.878 -11.2087V37.0418L994.129 37.0418ZM945.087 37.0418V-11.2087L896.836 -11.2087V37.0418L945.087 37.0418ZM896.045 37.0418V-11.2087L847.794 -11.2087V37.0418L896.045 37.0418ZM847.003 37.0418V-11.2087L798.753 -11.2087V37.0418L847.003 37.0418ZM797.962 37.0418V-11.2087L749.711 -11.2087V37.0418L797.962 37.0418ZM748.92 37.0418V-11.2087L700.669 -11.2087V37.0418L748.92 37.0418ZM699.878 37.0418V-11.2087L651.627 -11.2087V37.0418L699.878 37.0418ZM650.836 37.0418V-11.2087L602.586 -11.2087V37.0418L650.836 37.0418ZM601.795 37.0418V-11.2087L553.544 -11.2087V37.0418L601.795 37.0418ZM552.753 37.0418V-11.2087L504.502 -11.2087V37.0418L552.753 37.0418ZM503.711 37.0418V-11.2087L455.46 -11.2087V37.0418L503.711 37.0418ZM454.669 37.0418V-11.2087L406.418 -11.2087V37.0418L454.669 37.0418ZM405.627 37.0418V-11.2087L357.376 -11.2087V37.0418L405.627 37.0418ZM356.585 37.0418V-11.2087L308.335 -11.2087V37.0418L356.585 37.0418ZM307.544 37.0418V-11.2087L259.293 -11.2087V37.0418L307.544 37.0418ZM258.502 37.0418V-11.2087L210.251 -11.2087V37.0418L258.502 37.0418ZM209.46 37.0418V-11.2087L161.209 -11.2087V37.0418L209.46 37.0418ZM160.418 37.0418V-11.2087L112.168 -11.2087V37.0418L160.418 37.0418ZM111.377 37.0418V-11.2087L63.1259 -11.2087V37.0417L111.377 37.0418ZM62.3348 37.0417V-11.2087L14.0844 -11.2088V37.0417L62.3348 37.0417ZM13.2933 37.0417V-11.2088L-34.9577 -11.2088V37.0417L13.2933 37.0417ZM-35.7487 37.0417V-11.2088L-83.9992 -11.2088V37.0417L-35.7487 37.0417ZM-84.7902 37.0417V-11.2088L-133.041 -11.2088V37.0417L-84.7902 37.0417ZM-133.832 37.0417V-11.2088L-182.028 -11.2088V37.0417L-133.832 37.0417ZM-182.819 37.0417V-11.2088L-231.015 -11.2088V37.0417L-182.819 37.0417ZM-231.806 37.0417V-11.2088L-280.003 -11.2088V37.0417L-231.806 37.0417ZM-280.794 37.0417V-11.2088L-328.991 -11.2088V37.0417L-280.794 37.0417ZM-329.782 37.0417V-11.2088L-377.977 -11.2088V37.0417L-329.782 37.0417ZM-378.768 37.0417V-11.2088L-426.965 -11.2088V37.0417L-378.768 37.0417ZM-427.756 37.0417V-11.2088L-476.333 -11.2088V37.0417L-427.756 37.0417ZM-477.124 37.0417V-11.2088L-525.32 -11.2088V37.0417L-477.124 37.0417ZM-526.111 37.0417V-11.2088L-574.308 -11.2088V37.0417L-526.111 37.0417ZM-575.099 37.0417V-11.2088L-623.295 -11.2088V37.0417L-575.099 37.0417ZM-624.086 37.0417V-11.2088L-672.283 -11.2088V37.0417L-624.086 37.0417ZM-673.074 37.0417V-11.2088L-721.27 -11.2088V37.0417L-673.074 37.0417ZM-722.061 37.0417V-11.2088L-770.257 -11.2088L-770.257 37.0417L-722.061 37.0417Z" fill="url(#paint0_radial_1598_831)" fill-opacity="0.5"/>
<rect x="74.5202" y="115.589" width="249" height="51" rx="11.5" transform="rotate(-2.36634 74.5202 115.589)" fill="white"/>
<rect x="74.5202" y="115.589" width="249" height="51" rx="11.5" transform="rotate(-2.36634 74.5202 115.589)" stroke="url(#paint1_linear_1598_831)"/>
<g clip-path="url(#clip1_1598_831)">
<path d="M106.569 137.284L105.944 137.31L105.841 134.812C105.727 132.057 103.394 129.909 100.638 130.023C97.8832 130.137 95.7354 132.471 95.8494 135.226L95.9528 137.724L95.3283 137.75C94.8317 137.771 94.3637 137.988 94.0271 138.354C93.6904 138.719 93.5126 139.204 93.5325 139.7L93.8943 148.443C93.9371 149.476 94.8128 150.282 95.8452 150.239L107.086 149.774C108.118 149.731 108.924 148.856 108.881 147.823L108.52 139.08C108.477 138.047 107.601 137.242 106.569 137.284ZM97.5146 135.157C97.4386 133.32 98.8705 131.765 100.707 131.689C102.544 131.613 104.1 133.044 104.176 134.881L104.279 137.379L97.618 137.655L97.5146 135.157ZM102.047 143.912L102.126 145.809C102.135 146.03 102.056 146.245 101.906 146.408C101.757 146.57 101.548 146.667 101.328 146.676C101.107 146.685 100.891 146.606 100.729 146.456C100.566 146.307 100.47 146.098 100.46 145.878L100.382 143.981C99.8746 143.712 99.5154 143.195 99.49 142.582C99.452 141.663 100.168 140.885 101.086 140.847C102.005 140.809 102.782 141.525 102.821 142.444C102.846 143.057 102.531 143.603 102.047 143.912Z" fill="black"/>
</g>
<path d="M124.209 145.255C123.644 145.278 123.134 145.214 122.679 145.062C122.235 144.91 121.853 144.696 121.532 144.421C121.222 144.145 120.984 143.83 120.82 143.473L122.107 142.844C122.292 143.167 122.559 143.428 122.908 143.627C123.258 143.816 123.64 143.901 124.056 143.884C124.514 143.865 124.889 143.77 125.181 143.598C125.472 143.415 125.612 143.169 125.599 142.86C125.587 142.561 125.465 142.331 125.234 142.17C125.003 142.009 124.673 141.884 124.242 141.795L123.483 141.634C122.728 141.462 122.135 141.183 121.702 140.795C121.27 140.407 121.043 139.957 121.022 139.446C120.99 138.668 121.216 138.055 121.699 137.608C122.193 137.161 122.93 136.917 123.911 136.876C124.39 136.856 124.83 136.908 125.23 137.03C125.641 137.152 125.99 137.335 126.278 137.579C126.576 137.823 126.791 138.118 126.923 138.465L125.668 139.094C125.526 138.779 125.298 138.554 124.983 138.417C124.668 138.281 124.302 138.221 123.887 138.238C123.46 138.256 123.128 138.36 122.891 138.552C122.653 138.743 122.541 139.004 122.555 139.334C122.562 139.516 122.671 139.687 122.88 139.849C123.1 140 123.415 140.121 123.824 140.211L124.696 140.383C125.223 140.489 125.663 140.668 126.015 140.921C126.367 141.163 126.635 141.445 126.819 141.768C127.003 142.081 127.102 142.413 127.116 142.765C127.136 143.245 127.02 143.671 126.769 144.044C126.528 144.407 126.182 144.693 125.732 144.904C125.292 145.114 124.784 145.231 124.209 145.255ZM131.879 144.938C131.08 144.971 130.453 144.794 130 144.407C129.546 144.01 129.303 143.427 129.271 142.66L128.928 134.363L130.447 134.3L130.78 142.373C130.797 142.768 130.905 143.067 131.106 143.273C131.317 143.467 131.609 143.556 131.982 143.541C132.088 143.536 132.205 143.51 132.331 143.462C132.457 143.414 132.608 143.323 132.784 143.187L133.408 144.347C133.139 144.539 132.878 144.683 132.625 144.779C132.384 144.875 132.135 144.928 131.879 144.938ZM127.727 138.224L127.672 136.913L132.82 136.7L132.874 138.011L127.727 138.224ZM139.683 144.423L139.398 140.256C139.364 139.67 139.274 139.188 139.13 138.81C138.986 138.42 138.777 138.13 138.502 137.939C138.227 137.747 137.866 137.661 137.418 137.679C137.003 137.696 136.639 137.797 136.326 137.981C136.024 138.164 135.779 138.441 135.592 138.812L134.212 138.356C134.388 137.986 134.615 137.651 134.891 137.351C135.177 137.051 135.525 136.813 135.934 136.636C136.353 136.448 136.835 136.342 137.378 136.32C138.135 136.288 138.77 136.406 139.282 136.673C139.795 136.94 140.186 137.357 140.455 137.922C140.734 138.476 140.891 139.174 140.926 140.016L141.106 144.365L139.683 144.423ZM137.341 144.712C136.392 144.752 135.643 144.569 135.092 144.165C134.552 143.749 134.266 143.158 134.234 142.391C134.2 141.57 134.446 140.935 134.972 140.487C135.498 140.027 136.256 139.777 137.247 139.736L139.917 139.626L139.982 140.824L137.712 140.918C136.977 140.948 136.46 141.087 136.16 141.334C135.871 141.57 135.735 141.891 135.752 142.296C135.767 142.669 135.923 142.956 136.219 143.157C136.516 143.348 136.914 143.433 137.415 143.412C137.852 143.394 138.221 143.278 138.522 143.062C138.833 142.847 139.067 142.57 139.224 142.233C139.391 141.884 139.466 141.502 139.449 141.086L140.184 141.056C140.229 142.143 140.014 143.017 139.54 143.677C139.065 144.326 138.332 144.671 137.341 144.712ZM146.11 144.35C145.31 144.383 144.684 144.206 144.23 143.819C143.776 143.422 143.533 142.839 143.501 142.072L143.159 133.775L144.677 133.712L145.011 141.785C145.027 142.18 145.136 142.479 145.336 142.685C145.547 142.879 145.839 142.968 146.212 142.953C146.319 142.948 146.435 142.922 146.561 142.874C146.687 142.826 146.838 142.735 147.014 142.599L147.639 143.758C147.369 143.951 147.108 144.095 146.856 144.191C146.614 144.287 146.365 144.34 146.11 144.35ZM141.957 137.636L141.903 136.325L147.05 136.112L147.105 137.423L141.957 137.636ZM154.377 143.816L154.22 142.35L153.95 135.827L155.453 135.765L155.783 143.758L154.377 143.816ZM148.608 140.628L148.419 136.056L149.938 135.993L150.107 140.085L148.608 140.628ZM150.107 140.085C150.137 140.799 150.239 141.345 150.415 141.722C150.601 142.099 150.847 142.355 151.151 142.492C151.456 142.629 151.795 142.695 152.168 142.691C152.818 142.664 153.315 142.414 153.659 141.94C154.002 141.467 154.157 140.815 154.122 139.984L154.778 139.956C154.812 140.798 154.72 141.528 154.5 142.146C154.279 142.753 153.941 143.226 153.486 143.565C153.04 143.904 152.493 144.086 151.843 144.113C150.884 144.153 150.115 143.886 149.536 143.312C148.968 142.737 148.658 141.843 148.608 140.628L150.107 140.085ZM160.612 143.751C160.047 143.774 159.537 143.71 159.083 143.558C158.639 143.405 158.256 143.192 157.935 142.917C157.625 142.641 157.388 142.325 157.224 141.969L158.511 141.339C158.695 141.663 158.962 141.924 159.312 142.123C159.661 142.311 160.044 142.397 160.459 142.38C160.918 142.361 161.293 142.265 161.584 142.093C161.876 141.91 162.015 141.664 162.002 141.355C161.99 141.057 161.868 140.827 161.638 140.666C161.407 140.505 161.076 140.379 160.645 140.29L159.886 140.13C159.132 139.958 158.538 139.678 158.106 139.29C157.673 138.903 157.447 138.453 157.425 137.941C157.393 137.163 157.619 136.551 158.102 136.104C158.596 135.656 159.333 135.412 160.314 135.372C160.793 135.352 161.233 135.403 161.633 135.526C162.044 135.647 162.393 135.83 162.681 136.075C162.979 136.319 163.194 136.614 163.326 136.961L162.071 137.589C161.93 137.275 161.702 137.049 161.386 136.913C161.071 136.777 160.706 136.717 160.29 136.734C159.864 136.752 159.532 136.856 159.294 137.047C159.057 137.239 158.945 137.5 158.958 137.83C158.966 138.011 159.074 138.183 159.284 138.345C159.503 138.496 159.818 138.617 160.227 138.706L161.099 138.879C161.627 138.985 162.067 139.164 162.419 139.416C162.77 139.658 163.038 139.941 163.222 140.264C163.406 140.577 163.505 140.909 163.52 141.261C163.54 141.74 163.424 142.167 163.172 142.54C162.931 142.902 162.585 143.189 162.135 143.4C161.695 143.61 161.188 143.727 160.612 143.751ZM165.726 143.571C165.46 143.582 165.221 143.496 165.011 143.313C164.811 143.129 164.705 142.898 164.694 142.621C164.683 142.344 164.769 142.106 164.953 141.906C165.147 141.706 165.378 141.6 165.644 141.589C165.921 141.578 166.16 141.664 166.36 141.848C166.57 142.031 166.681 142.262 166.692 142.539C166.704 142.816 166.612 143.054 166.418 143.255C166.234 143.454 166.003 143.56 165.726 143.571ZM169.482 146.587C169.247 146.597 168.984 146.565 168.693 146.491C168.413 146.418 168.12 146.318 167.816 146.191L168.324 144.921C168.563 145.018 168.769 145.09 168.941 145.136C169.125 145.182 169.27 145.203 169.376 145.198C169.643 145.187 169.864 145.103 170.039 144.947C170.224 144.789 170.37 144.575 170.476 144.304L171.313 142.076L173.871 135.004L175.502 134.936L172.084 144.077C171.902 144.576 171.707 145.011 171.498 145.383C171.289 145.754 171.023 146.043 170.701 146.248C170.389 146.453 169.983 146.566 169.482 146.587ZM170.94 143.132L167.109 135.283L168.724 135.217L171.904 142.035L172.411 143.071L170.94 143.132ZM180.322 142.936C179.533 142.969 178.823 142.822 178.19 142.496C177.567 142.159 177.067 141.683 176.69 141.069C176.323 140.454 176.122 139.736 176.088 138.916C176.054 138.095 176.195 137.363 176.51 136.72C176.825 136.077 177.279 135.568 177.872 135.191C178.475 134.803 179.166 134.593 179.944 134.561C180.743 134.528 181.454 134.68 182.076 135.017C182.698 135.344 183.193 135.814 183.56 136.429C183.938 137.043 184.143 137.761 184.177 138.581C184.211 139.402 184.065 140.134 183.74 140.777C183.425 141.42 182.971 141.935 182.378 142.323C181.796 142.699 181.111 142.904 180.322 142.936ZM180.262 141.498C180.742 141.478 181.158 141.343 181.511 141.094C181.863 140.844 182.133 140.513 182.318 140.099C182.514 139.675 182.601 139.191 182.579 138.647C182.557 138.115 182.43 137.645 182.2 137.238C181.981 136.831 181.679 136.517 181.297 136.298C180.914 136.079 180.483 135.98 180.003 136C179.534 136.019 179.118 136.154 178.755 136.403C178.402 136.653 178.128 136.99 177.932 137.414C177.746 137.828 177.664 138.306 177.687 138.85C177.709 139.382 177.83 139.853 178.049 140.26C178.28 140.667 178.586 140.98 178.969 141.199C179.352 141.418 179.783 141.517 180.262 141.498ZM191.342 142.289L191.185 140.822L190.916 134.3L192.418 134.237L192.749 142.231L191.342 142.289ZM185.573 139.1L185.384 134.528L186.903 134.465L187.072 138.558L185.573 139.1ZM187.072 138.558C187.102 139.272 187.204 139.817 187.38 140.195C187.567 140.571 187.812 140.828 188.117 140.965C188.421 141.102 188.76 141.168 189.134 141.163C189.784 141.136 190.281 140.886 190.624 140.413C190.967 139.94 191.122 139.287 191.088 138.456L191.743 138.429C191.778 139.271 191.685 140.001 191.465 140.618C191.245 141.225 190.907 141.698 190.451 142.037C190.006 142.376 189.458 142.559 188.808 142.586C187.849 142.625 187.08 142.358 186.501 141.784C185.933 141.21 185.624 140.315 185.573 139.1L187.072 138.558ZM195.457 137.811C195.422 136.948 195.558 136.238 195.866 135.68C196.174 135.123 196.583 134.701 197.094 134.413C197.606 134.124 198.149 133.969 198.725 133.945L198.784 135.384C198.304 135.403 197.849 135.497 197.418 135.664C196.998 135.82 196.656 136.069 196.392 136.411C196.139 136.742 196.024 137.184 196.047 137.739L195.457 137.811ZM194.708 142.15L194.378 134.156L195.896 134.094L196.227 142.087L194.708 142.15ZM205.972 141.684L205.847 140.2L205.446 130.496L206.949 130.434L207.411 141.625L205.972 141.684ZM203.295 141.987C202.57 142.017 201.929 141.867 201.37 141.538C200.823 141.208 200.382 140.736 200.047 140.119C199.722 139.503 199.543 138.779 199.509 137.948C199.474 137.106 199.593 136.37 199.866 135.739C200.149 135.098 200.55 134.59 201.068 134.216C201.597 133.842 202.224 133.64 202.948 133.61C203.62 133.582 204.208 133.734 204.713 134.066C205.228 134.397 205.632 134.871 205.925 135.489C206.217 136.096 206.38 136.821 206.415 137.662C206.449 138.494 206.346 139.229 206.106 139.869C205.865 140.509 205.502 141.015 205.015 141.387C204.54 141.759 203.966 141.959 203.295 141.987ZM203.589 140.598C204.037 140.579 204.427 140.446 204.758 140.197C205.089 139.938 205.342 139.596 205.516 139.173C205.691 138.739 205.766 138.244 205.743 137.69C205.72 137.136 205.604 136.655 205.395 136.247C205.186 135.829 204.906 135.51 204.555 135.289C204.204 135.058 203.799 134.952 203.341 134.971C202.872 134.99 202.461 135.13 202.109 135.39C201.757 135.64 201.488 135.982 201.303 136.416C201.118 136.84 201.036 137.33 201.059 137.884C201.082 138.438 201.204 138.924 201.424 139.342C201.654 139.749 201.956 140.067 202.328 140.297C202.7 140.517 203.121 140.617 203.589 140.598ZM213.045 141.584C212.256 141.617 211.545 141.47 210.913 141.144C210.29 140.806 209.79 140.331 209.412 139.716C209.045 139.102 208.845 138.384 208.811 137.563C208.777 136.743 208.918 136.011 209.233 135.368C209.548 134.725 210.002 134.215 210.595 133.839C211.198 133.451 211.888 133.241 212.666 133.209C213.466 133.176 214.177 133.328 214.799 133.665C215.421 133.991 215.916 134.462 216.283 135.077C216.66 135.691 216.866 136.409 216.9 137.229C216.934 138.05 216.788 138.782 216.462 139.425C216.147 140.068 215.693 140.583 215.101 140.971C214.519 141.347 213.833 141.551 213.045 141.584ZM212.985 140.145C213.465 140.125 213.881 139.991 214.233 139.741C214.586 139.492 214.855 139.161 215.041 138.747C215.237 138.323 215.324 137.839 215.301 137.295C215.279 136.762 215.153 136.292 214.923 135.886C214.703 135.478 214.402 135.165 214.019 134.946C213.637 134.727 213.205 134.627 212.726 134.647C212.257 134.667 211.841 134.801 211.477 135.051C211.125 135.301 210.85 135.638 210.655 136.062C210.469 136.475 210.387 136.954 210.41 137.497C210.432 138.03 210.552 138.5 210.772 138.908C211.002 139.314 211.309 139.627 211.692 139.846C212.074 140.065 212.505 140.165 212.985 140.145ZM218.629 141.161L218.299 133.168L219.722 133.109L219.879 134.576L220.148 141.098L218.629 141.161ZM224.161 140.933L223.992 136.84L225.49 136.298L225.679 140.87L224.161 140.933ZM229.692 140.704L229.523 136.611L231.006 136.07L231.195 140.642L229.692 140.704ZM223.992 136.84C223.962 136.115 223.854 135.57 223.668 135.204C223.492 134.827 223.252 134.57 222.947 134.433C222.653 134.296 222.314 134.23 221.93 134.235C221.28 134.262 220.783 134.512 220.44 134.985C220.096 135.458 219.942 136.111 219.976 136.942L219.321 136.969C219.286 136.127 219.379 135.403 219.599 134.796C219.819 134.178 220.152 133.7 220.597 133.361C221.053 133.022 221.606 132.839 222.256 132.812C223.215 132.773 223.979 133.04 224.547 133.614C225.125 134.178 225.44 135.072 225.49 136.298L223.992 136.84ZM229.523 136.611C229.493 135.887 229.385 135.341 229.199 134.975C229.013 134.599 228.772 134.342 228.479 134.205C228.185 134.067 227.846 134.001 227.461 134.006C226.811 134.033 226.315 134.283 225.971 134.757C225.628 135.23 225.473 135.882 225.508 136.713L224.852 136.74C224.817 135.898 224.91 135.174 225.131 134.567C225.351 133.949 225.683 133.471 226.128 133.133C226.584 132.794 227.137 132.611 227.787 132.584C228.746 132.544 229.51 132.811 230.078 133.386C230.656 133.949 230.966 134.844 231.006 136.07L229.523 136.611ZM237.944 140.363L237.66 136.195C237.625 135.609 237.536 135.127 237.392 134.749C237.248 134.36 237.039 134.07 236.764 133.878C236.489 133.687 236.128 133.6 235.68 133.619C235.264 133.636 234.9 133.736 234.588 133.92C234.286 134.103 234.041 134.38 233.853 134.751L232.473 134.296C232.65 133.925 232.877 133.59 233.152 133.291C233.439 132.991 233.787 132.752 234.196 132.575C234.615 132.387 235.096 132.282 235.64 132.259C236.397 132.228 237.031 132.346 237.544 132.613C238.057 132.88 238.448 133.296 238.717 133.862C238.996 134.416 239.153 135.114 239.188 135.956L239.367 140.304L237.944 140.363ZM235.602 140.652C234.654 140.691 233.904 140.509 233.354 140.104C232.814 139.689 232.528 139.098 232.496 138.33C232.462 137.51 232.708 136.875 233.234 136.426C233.759 135.967 234.518 135.716 235.509 135.676L238.179 135.565L238.244 136.763L235.974 136.857C235.239 136.888 234.721 137.027 234.422 137.274C234.133 137.51 233.997 137.83 234.013 138.235C234.029 138.608 234.185 138.896 234.481 139.097C234.777 139.287 235.176 139.372 235.677 139.352C236.114 139.334 236.483 139.217 236.783 139.002C237.095 138.786 237.329 138.509 237.486 138.172C237.653 137.823 237.728 137.441 237.71 137.026L238.446 136.995C238.491 138.082 238.276 138.956 237.802 139.616C237.327 140.266 236.594 140.611 235.602 140.652ZM241.214 140.228L240.916 132.233L242.419 132.171L242.733 140.165L241.214 140.228ZM241.581 130.508C241.336 130.519 241.119 130.437 240.931 130.263C240.741 130.079 240.642 129.864 240.632 129.619C240.621 129.363 240.703 129.146 240.877 128.968C241.051 128.779 241.26 128.68 241.505 128.67C241.761 128.659 241.978 128.741 242.156 128.915C242.344 129.078 242.444 129.288 242.454 129.544C242.464 129.789 242.383 130.011 242.209 130.21C242.046 130.398 241.837 130.498 241.581 130.508ZM244.799 140.08L244.469 132.087L245.891 132.028L246.048 133.494L246.318 140.017L244.799 140.08ZM250.33 139.851L250.161 135.759L251.66 135.216L251.849 139.788L250.33 139.851ZM250.161 135.759C250.131 135.034 250.023 134.489 249.837 134.123C249.662 133.746 249.421 133.489 249.117 133.352C248.823 133.214 248.484 133.148 248.1 133.153C247.45 133.18 246.953 133.43 246.609 133.904C246.266 134.377 246.111 135.029 246.146 135.86L245.49 135.888C245.456 135.046 245.548 134.321 245.769 133.714C245.989 133.097 246.321 132.618 246.767 132.28C247.222 131.941 247.775 131.758 248.425 131.731C249.384 131.691 250.148 131.959 250.716 132.533C251.295 133.096 251.609 133.991 251.66 135.216L250.161 135.759ZM254.297 139.911C254.03 139.922 253.792 139.836 253.581 139.653C253.382 139.469 253.276 139.238 253.265 138.961C253.253 138.684 253.339 138.446 253.523 138.246C253.718 138.046 253.948 137.94 254.215 137.929C254.492 137.918 254.73 138.004 254.93 138.188C255.141 138.371 255.252 138.602 255.263 138.879C255.274 139.156 255.183 139.394 254.988 139.595C254.804 139.794 254.574 139.9 254.297 139.911ZM260.59 139.619C259.791 139.652 259.075 139.506 258.442 139.18C257.809 138.843 257.304 138.367 256.926 137.753C256.559 137.138 256.358 136.421 256.324 135.6C256.291 134.779 256.431 134.048 256.746 133.405C257.072 132.761 257.531 132.251 258.124 131.875C258.727 131.487 259.423 131.276 260.212 131.244C260.99 131.212 261.696 131.364 262.329 131.701C262.972 132.037 263.463 132.535 263.8 133.193L262.448 133.826C262.23 133.44 261.924 133.143 261.531 132.935C261.149 132.726 260.712 132.632 260.222 132.653C259.743 132.672 259.321 132.807 258.958 133.057C258.594 133.307 258.315 133.649 258.119 134.085C257.923 134.509 257.837 134.993 257.859 135.537C257.882 136.08 258.008 136.555 258.238 136.962C258.469 137.369 258.781 137.687 259.175 137.916C259.568 138.135 260.004 138.234 260.484 138.214C260.974 138.194 261.406 138.054 261.78 137.793C262.153 137.521 262.426 137.168 262.601 136.734L264.015 137.236C263.735 137.952 263.288 138.52 262.676 138.941C262.074 139.36 261.379 139.587 260.59 139.619ZM269.127 139.267C268.338 139.299 267.627 139.152 266.995 138.826C266.372 138.489 265.872 138.013 265.494 137.399C265.127 136.784 264.927 136.067 264.893 135.246C264.859 134.425 265 133.694 265.315 133.051C265.63 132.408 266.084 131.898 266.677 131.521C267.28 131.133 267.971 130.923 268.749 130.891C269.548 130.858 270.259 131.01 270.881 131.347C271.503 131.674 271.998 132.145 272.365 132.759C272.742 133.374 272.948 134.091 272.982 134.912C273.016 135.732 272.87 136.464 272.544 137.108C272.229 137.75 271.776 138.266 271.183 138.653C270.601 139.029 269.915 139.234 269.127 139.267ZM269.067 137.828C269.547 137.808 269.963 137.673 270.316 137.424C270.668 137.174 270.937 136.843 271.123 136.43C271.319 136.005 271.406 135.521 271.384 134.978C271.362 134.445 271.235 133.975 271.005 133.568C270.785 133.161 270.484 132.848 270.101 132.629C269.719 132.41 269.288 132.31 268.808 132.33C268.339 132.349 267.923 132.484 267.56 132.734C267.207 132.983 266.933 133.32 266.737 133.744C266.551 134.158 266.469 134.636 266.492 135.18C266.514 135.713 266.635 136.183 266.854 136.59C267.085 136.997 267.391 137.31 267.774 137.529C268.156 137.748 268.588 137.848 269.067 137.828ZM274.711 138.844L274.381 130.85L275.804 130.792L275.961 132.258L276.23 138.781L274.711 138.844ZM280.243 138.615L280.074 134.522L281.573 133.98L281.761 138.552L280.243 138.615ZM285.774 138.386L285.605 134.294L287.088 133.752L287.277 138.324L285.774 138.386ZM280.074 134.522C280.044 133.798 279.936 133.252 279.75 132.886C279.574 132.509 279.334 132.252 279.029 132.116C278.735 131.978 278.396 131.912 278.012 131.917C277.362 131.944 276.865 132.194 276.522 132.668C276.179 133.141 276.024 133.793 276.058 134.624L275.403 134.651C275.368 133.81 275.461 133.085 275.681 132.478C275.902 131.86 276.234 131.382 276.679 131.044C277.135 130.705 277.688 130.522 278.338 130.495C279.297 130.455 280.061 130.722 280.629 131.297C281.207 131.86 281.522 132.755 281.573 133.98L280.074 134.522ZM285.605 134.294C285.575 133.569 285.467 133.024 285.281 132.658C285.095 132.281 284.855 132.024 284.561 131.887C284.267 131.75 283.928 131.684 283.544 131.689C282.893 131.716 282.397 131.966 282.053 132.439C281.71 132.912 281.555 133.565 281.59 134.396L280.934 134.423C280.899 133.581 280.992 132.856 281.213 132.25C281.433 131.632 281.765 131.154 282.21 130.815C282.666 130.476 283.219 130.293 283.869 130.266C284.828 130.227 285.592 130.494 286.16 131.068C286.739 131.632 287.048 132.526 287.088 133.752L285.605 134.294Z" fill="#212121"/>
<path fill-rule="evenodd" clip-rule="evenodd" d="M171.059 55.6797L166.893 55.3628L159.258 65.2668L159.166 65.2598L153.139 54.3168L148.973 54L147.315 75.4926L151.727 75.8281L152.817 61.6842L152.909 61.6911L157.43 69.7978L160.279 70.0145L165.989 62.6859L166.081 62.6929L164.991 76.8368L169.402 77.1723L171.059 55.6797ZM188.657 73.9974C189.14 73.065 189.42 72.0864 189.499 71.0615C189.586 69.9341 189.443 68.8613 189.07 67.8432C188.717 66.8267 188.181 65.9199 187.461 65.123C186.763 64.3276 185.919 63.686 184.929 63.1984C183.941 62.6903 182.865 62.392 181.701 62.3034C180.537 62.2149 179.418 62.3463 178.343 62.6975C177.29 63.0299 176.347 63.5355 175.515 64.2144C174.702 64.8949 174.033 65.71 173.508 66.6598C173.003 67.6111 172.707 68.6504 172.621 69.7778C172.535 70.8848 172.669 71.9465 173.022 72.963C173.395 73.9811 173.931 74.8879 174.63 75.6833C175.349 76.4802 176.203 77.1328 177.191 77.6409C178.201 78.1301 179.288 78.4189 180.452 78.5074C181.698 78.6022 182.859 78.4637 183.935 78.0919C185.013 77.6997 185.948 77.1523 186.742 76.4497C187.536 75.7472 188.174 74.9298 188.657 73.9974ZM179.628 66.4138C180.156 66.2272 180.747 66.1587 181.4 66.2084C182.074 66.2596 182.658 66.4174 183.151 66.6817C183.644 66.946 184.039 67.2854 184.336 67.6997C184.632 68.114 184.843 68.5734 184.969 69.0777C185.094 69.5821 185.136 70.1008 185.095 70.6338C184.997 71.9047 184.551 72.9016 183.755 73.6247C182.96 74.3477 181.96 74.6634 180.755 74.5717C179.448 74.4723 178.478 74.0068 177.843 73.175C177.209 72.3433 176.941 71.292 177.039 70.0211C177.08 69.4881 177.211 68.9826 177.433 68.5046C177.655 68.0267 177.944 67.6054 178.301 67.2407C178.678 66.8777 179.12 66.602 179.628 66.4138ZM202.206 63.8628C204.555 64.0414 206.291 64.8333 207.415 66.2384C208.541 67.623 208.998 69.6886 208.786 72.4354L208.193 80.1223L203.843 79.7915L204.408 72.4736C204.517 71.0592 204.295 69.9392 203.742 69.1137C203.19 68.2882 202.24 67.8242 200.892 67.7216C199.646 67.6269 198.606 67.9293 197.771 68.6287C196.937 69.3281 196.463 70.4055 196.351 71.8609L195.787 79.1788L191.376 78.8434L192.549 63.6233L196.256 63.9052L196.778 65.9243L196.839 65.9289C197.328 65.1826 197.998 64.6253 198.848 64.2569C199.718 63.8901 200.838 63.7588 202.206 63.8628ZM212.385 65.905L211.271 80.3564L215.682 80.6918L216.796 66.2404L212.385 65.905ZM228.751 72.3146L234.68 82.1367L229.871 81.7709L225.659 74.8629L223.487 76.6463L223.132 81.2584L218.721 80.9229L220.378 59.4303L224.789 59.7658L223.853 71.9111L230.126 66.481L235.395 66.8817L228.751 72.3146ZM235.645 71.3544C235.243 72.3134 234.911 74.4841 234.911 74.4841C234.911 74.4841 234.898 76.6481 235.129 77.6553C235.359 78.6625 235.752 79.5584 236.308 80.3429C236.865 81.107 237.587 81.7392 238.473 82.2395C239.381 82.7209 240.457 83.009 241.703 83.1037C242.847 83.1907 243.821 83.0792 244.625 82.7693C245.45 82.4609 246.162 81.8861 246.761 81.0451L246.822 81.0497L247.495 83.1112L251.171 83.3908L252.347 68.14L248.671 67.8604L247.693 69.7654L247.631 69.7607C247.222 68.9461 246.624 68.3027 245.839 67.8306C245.076 67.3395 244.112 67.0498 242.948 66.9612C241.784 66.8727 240.726 67.0087 239.774 67.3693C238.823 67.7094 238.003 68.2243 237.313 68.9141C236.624 69.5834 236.069 70.3968 235.645 71.3544ZM239.444 76.4371C239.32 75.9122 239.28 75.373 239.322 74.8196C239.367 74.2456 239.49 73.7086 239.693 73.2086C239.916 72.7101 240.206 72.2888 240.561 71.9447C240.938 71.5816 241.38 71.3162 241.886 71.1485C242.413 70.9618 243.004 70.8934 243.658 70.9431C244.291 70.9912 244.844 71.1467 245.316 71.4094C245.81 71.6737 246.215 72.0138 246.532 72.4297C246.849 72.8456 247.08 73.3167 247.224 73.8432C247.37 74.3491 247.421 74.8788 247.379 75.4323C247.336 75.9857 247.193 76.5109 246.949 77.0078C246.727 77.4858 246.428 77.9063 246.051 78.2694C245.675 78.612 245.223 78.8766 244.695 79.0632C244.188 79.2515 243.628 79.3223 243.015 79.2757C242.341 79.2244 241.758 79.0666 241.265 78.8023C240.771 78.538 240.376 78.209 240.077 77.8151C239.781 77.4008 239.57 76.9415 239.444 76.4371ZM214.648 64.4104C216.127 64.5228 217.42 63.4127 217.534 61.9308C217.649 60.449 216.543 59.1566 215.063 59.0442C213.584 58.9318 212.291 60.0419 212.176 61.5237C212.062 63.0056 213.168 64.2979 214.648 64.4104Z" fill="url(#paint2_linear_1598_831)"/>
</g>
<defs>
<radialGradient id="paint0_radial_1598_831" cx="0" cy="0" r="1" gradientUnits="userSpaceOnUse" gradientTransform="translate(52.7742 -58.6688) rotate(89.7677) scale(292.671 1315.79)">
<stop stop-opacity="0"/>
<stop offset="1" stop-color="#E2E4E3" stop-opacity="0.44"/>
</radialGradient>
<linearGradient id="paint1_linear_1598_831" x1="199" y1="115.11" x2="199" y2="167.11" gradientUnits="userSpaceOnUse">
<stop stop-color="white" stop-opacity="0.12"/>
<stop offset="1" stop-color="white" stop-opacity="0"/>
</linearGradient>
<linearGradient id="paint2_linear_1598_831" x1="152.749" y1="76.4036" x2="258.093" y2="52.8994" gradientUnits="userSpaceOnUse">
<stop stop-color="#987CE8"/>
<stop offset="1" stop-color="#2FDCDC"/>
</linearGradient>
<clipPath id="clip0_1598_831">
<rect width="400" height="222" fill="white"/>
</clipPath>
<clipPath id="clip1_1598_831">
<rect width="20" height="20" fill="white" transform="translate(90.647 130.437) rotate(-2.37)"/>
</clipPath>
</defs>
</svg>
