<svg width="32" height="32" viewBox="0 0 32 32" fill="none" xmlns="http://www.w3.org/2000/svg">
<g clip-path="url(#clip0_2010_936)">
<path d="M25.125 26.625C24.0779 26.625 23.1797 27.2722 22.8081 28.1875H20.625V30.0625H22.8081C23.1797 30.9778 24.0779 31.625 25.125 31.625C26.5035 31.625 27.625 30.5035 27.625 29.125C27.625 27.7465 26.5035 26.625 25.125 26.625ZM29.5 21.3125C29.103 21.3122 28.7118 21.4071 28.359 21.5892L26.0377 19.6548C25.8692 19.5144 25.6568 19.4375 25.4375 19.4375H20.625V21.3125H25.0981L27.1334 23.0086C27.045 23.2674 27 23.539 27 23.8125C27 25.191 28.1215 26.3125 29.5 26.3125C30.8785 26.3125 32 25.191 32 23.8125C32 22.434 30.8785 21.3125 29.5 21.3125ZM29.5 13.5C28.4529 13.5 27.5547 14.1473 27.1831 15.0625H20.625V16.9375H27.1831C27.5547 17.8528 28.4529 18.5 29.5 18.5C30.8785 18.5 32 17.3785 32 16C32 14.6215 30.8785 13.5 29.5 13.5ZM26.0377 12.3452L28.359 10.4108C28.7117 10.5929 29.103 10.6878 29.5 10.6875C30.8785 10.6875 32 9.566 32 8.1875C32 6.809 30.8785 5.6875 29.5 5.6875C28.1215 5.6875 27 6.809 27 8.1875C27 8.46875 27.0474 8.73894 27.1334 8.99137L25.0981 10.6875H20.625V12.5625H25.4375C25.6568 12.5625 25.8692 12.4856 26.0377 12.3452ZM25.125 5.375C26.5035 5.375 27.625 4.2535 27.625 2.875C27.625 1.4965 26.5035 0.375 25.125 0.375C24.0779 0.375 23.1797 1.02225 22.8081 1.9375H20.625V3.8125H22.8081C23.1797 4.72775 24.0779 5.375 25.125 5.375ZM9.375 16C9.375 19.6186 12.3189 22.5625 15.9375 22.5625C16.9434 22.5625 17.8971 22.3347 18.75 21.9284V10.0716C17.8971 9.66531 16.9434 9.4375 15.9375 9.4375C12.3189 9.4375 9.375 12.3814 9.375 16Z" fill="url(#paint0_linear_2010_936)"/>
<path d="M17.8125 0.0625H14.0625C13.5448 0.0625 13.125 0.48225 13.125 1V2.22031C11.3618 2.58036 9.68403 3.27541 8.18275 4.26775L7.31962 3.40469C6.9535 3.03856 6.35994 3.03856 5.99381 3.40469L3.34219 6.05631C2.97606 6.42238 2.97606 7.016 3.34219 7.38212L4.20525 8.24525C3.21291 9.74653 2.51786 11.4243 2.15781 13.1875H0.9375C0.41975 13.1875 0 13.6073 0 14.125V17.875C0 18.3927 0.41975 18.8125 0.9375 18.8125H2.15781C2.51787 20.5757 3.21292 22.2535 4.20525 23.7548L3.34212 24.6179C3.16634 24.7937 3.06758 25.0322 3.06758 25.2808C3.06758 25.5294 3.16634 25.7678 3.34212 25.9436L5.99381 28.5953C6.35994 28.9614 6.9535 28.9614 7.31962 28.5953L8.18275 27.7323C9.68404 28.7246 11.3618 29.4196 13.125 29.7797V31C13.125 31.5177 13.5448 31.9375 14.0625 31.9375H17.8125C18.3302 31.9375 18.75 31.5177 18.75 31V23.9549C17.8699 24.267 16.9233 24.4375 15.9375 24.4375C11.2851 24.4375 7.5 20.6524 7.5 16C7.5 11.3476 11.2851 7.5625 15.9375 7.5625C16.9233 7.5625 17.8699 7.733 18.75 8.04513V1C18.75 0.48225 18.3302 0.0625 17.8125 0.0625Z" fill="url(#paint1_linear_2010_936)"/>
</g>
<defs>
<linearGradient id="paint0_linear_2010_936" x1="20.6875" y1="0.375" x2="20.6875" y2="31.625" gradientUnits="userSpaceOnUse">
<stop stop-color="white"/>
<stop offset="1" stop-color="white" stop-opacity="0.7"/>
</linearGradient>
<linearGradient id="paint1_linear_2010_936" x1="9.375" y1="0.0625" x2="9.375" y2="31.9375" gradientUnits="userSpaceOnUse">
<stop stop-color="white"/>
<stop offset="1" stop-color="white" stop-opacity="0.7"/>
</linearGradient>
<clipPath id="clip0_2010_936">
<rect width="32" height="32" fill="white"/>
</clipPath>
</defs>
</svg>
