<svg width="32" height="32" viewBox="0 0 32 32" fill="none" xmlns="http://www.w3.org/2000/svg">
<g clip-path="url(#clip0_2010_906)">
<path d="M26.3125 5.6875V9.44125C26.9406 9.35125 27.5788 9.35437 28.1875 9.44125V4.75C28.1875 4.2325 27.7675 3.8125 27.25 3.8125H22.5588C22.6471 4.43438 22.6471 5.06562 22.5588 5.6875H26.3125ZM20.6912 16.9375C20.6028 16.3156 20.6028 15.6844 20.6912 15.0625H11.3088C11.3971 15.6844 11.3971 16.3156 11.3088 16.9375H20.6912ZM31.5944 26.4781L27.5731 23.7062C26.9499 23.2772 26.1031 23.7263 26.1031 24.4781V26.3125H22.5588C22.6471 26.9344 22.6471 27.5656 22.5588 28.1875H26.1031V30.0219C26.1031 30.7799 26.9561 31.2197 27.5731 30.7938L31.5944 28.0219C32.1341 27.6497 32.1353 26.8511 31.5944 26.4781ZM5.6875 26.3125V22.5588C5.06561 22.6469 4.43439 22.6469 3.8125 22.5588V27.25C3.8125 27.7675 4.2325 28.1875 4.75 28.1875H9.44125C9.3529 27.5656 9.3529 26.9344 9.44125 26.3125H5.6875ZM16 0C13.4661 0 11.3894 1.99444 11.2569 4.49594C11.1989 4.28512 11.0682 4.10165 10.8878 3.97806L6.86613 1.20638C6.24487 0.778313 5.39663 1.22425 5.39663 1.97831V3.8125H2.875C2.35725 3.8125 1.9375 4.23225 1.9375 4.75C1.9375 5.26775 2.35725 5.6875 2.875 5.6875H5.39669V7.52169C5.39669 8.28162 6.25038 8.71819 6.86619 8.29362L10.8879 5.52194C11.0683 5.39825 11.199 5.21467 11.257 5.00375C11.3893 7.50537 13.466 9.5 16 9.5C18.6191 9.5 20.75 7.36919 20.75 4.75C20.75 2.13081 18.6191 0 16 0Z" fill="url(#paint0_linear_2010_906)"/>
<path d="M16 32C18.6234 32 20.75 29.8734 20.75 27.25C20.75 24.6266 18.6234 22.5 16 22.5C13.3766 22.5 11.25 24.6266 11.25 27.25C11.25 29.8734 13.3766 32 16 32Z" fill="url(#paint1_linear_2010_906)"/>
<path d="M27.25 20.75C29.8734 20.75 32 18.6234 32 16C32 13.3766 29.8734 11.25 27.25 11.25C24.6266 11.25 22.5 13.3766 22.5 16C22.5 18.6234 24.6266 20.75 27.25 20.75Z" fill="url(#paint2_linear_2010_906)"/>
<path d="M4.75 20.75C7.37335 20.75 9.5 18.6234 9.5 16C9.5 13.3766 7.37335 11.25 4.75 11.25C2.12665 11.25 0 13.3766 0 16C0 18.6234 2.12665 20.75 4.75 20.75Z" fill="url(#paint3_linear_2010_906)"/>
</g>
<defs>
<linearGradient id="paint0_linear_2010_906" x1="16.9686" y1="0" x2="16.9686" y2="30.9602" gradientUnits="userSpaceOnUse">
<stop stop-color="white"/>
<stop offset="1" stop-color="white" stop-opacity="0.7"/>
</linearGradient>
<linearGradient id="paint1_linear_2010_906" x1="16" y1="22.5" x2="16" y2="32" gradientUnits="userSpaceOnUse">
<stop stop-color="white"/>
<stop offset="1" stop-color="white" stop-opacity="0.7"/>
</linearGradient>
<linearGradient id="paint2_linear_2010_906" x1="27.25" y1="11.25" x2="27.25" y2="20.75" gradientUnits="userSpaceOnUse">
<stop stop-color="white"/>
<stop offset="1" stop-color="white" stop-opacity="0.7"/>
</linearGradient>
<linearGradient id="paint3_linear_2010_906" x1="4.75" y1="11.25" x2="4.75" y2="20.75" gradientUnits="userSpaceOnUse">
<stop stop-color="white"/>
<stop offset="1" stop-color="white" stop-opacity="0.7"/>
</linearGradient>
<clipPath id="clip0_2010_906">
<rect width="32" height="32" fill="white"/>
</clipPath>
</defs>
</svg>
