<svg width="32" height="32" viewBox="0 0 32 32" fill="none" xmlns="http://www.w3.org/2000/svg">
<g clip-path="url(#clip0_2010_973)">
<path d="M23.8257 6.24989L18.125 0.548828V6.24989H23.8257Z" fill="url(#paint0_linear_2010_973)"/>
<path d="M21.9012 22.8113C21.8782 22.8344 21.8546 22.8568 21.8305 22.8784C21.6152 23.1088 21.3627 23.3014 21.0836 23.448L16.4431 25.8787C16.0404 26.0892 15.5928 26.1993 15.1384 26.1998C14.3869 26.1998 13.6805 25.9072 13.1493 25.3759C12.8971 25.1242 12.6948 24.8269 12.5532 24.4999H5.3125C4.79475 24.4999 4.375 24.0802 4.375 23.5624C4.375 23.0447 4.79475 22.6249 5.3125 22.6249H12.4301C12.4835 22.437 12.5561 22.2551 12.6468 22.0821L14.3267 18.875H5.3125C4.79475 18.875 4.375 18.4552 4.375 17.9375C4.375 17.4198 4.79475 17 5.3125 17H15.3383L19.0882 13.25H5.3125C4.79475 13.25 4.375 12.8302 4.375 12.3125C4.375 11.7948 4.79475 11.375 5.3125 11.375H20.9375C20.9457 11.375 20.9538 11.376 20.962 11.3763L24.2132 8.125H17.1875C16.6698 8.125 16.25 7.70525 16.25 7.1875V0H2.8125C1.26169 0 0 1.26169 0 2.8125V29.1875C0 30.7383 1.26169 32 2.8125 32H21.5625C23.1133 32 24.375 30.7383 24.375 29.1875V20.3375L21.9012 22.8113ZM31.2689 10.7919C32.2437 9.81719 32.2437 8.23119 31.2689 7.25644C30.7968 6.78425 30.1689 6.52419 29.5012 6.52419C28.8334 6.52419 28.2056 6.78425 27.7334 7.25644L26.8496 8.14031L30.3851 11.6758L31.2689 10.7919Z" fill="url(#paint1_linear_2010_973)"/>
<path d="M14.3073 22.9524C14.2145 23.1294 14.1808 23.3313 14.2109 23.5288C14.2411 23.7263 14.3335 23.909 14.4748 24.0503C14.6161 24.1916 14.7988 24.2841 14.9963 24.3142C15.1938 24.3443 15.3957 24.3106 15.5727 24.2178L19.6025 22.107L16.4181 18.9225L14.3073 22.9524ZM17.5651 17.4218L25.5189 9.46802L29.0539 13.003L21.1001 20.9568L17.5651 17.4218Z" fill="url(#paint2_linear_2010_973)"/>
</g>
<defs>
<linearGradient id="paint0_linear_2010_973" x1="20.9753" y1="0.548828" x2="20.9753" y2="6.24989" gradientUnits="userSpaceOnUse">
<stop stop-color="white"/>
<stop offset="1" stop-color="white" stop-opacity="0.7"/>
</linearGradient>
<linearGradient id="paint1_linear_2010_973" x1="16" y1="0" x2="16" y2="32" gradientUnits="userSpaceOnUse">
<stop stop-color="white"/>
<stop offset="1" stop-color="white" stop-opacity="0.7"/>
</linearGradient>
<linearGradient id="paint2_linear_2010_973" x1="21.627" y1="9.46802" x2="21.627" y2="24.3249" gradientUnits="userSpaceOnUse">
<stop stop-color="white"/>
<stop offset="1" stop-color="white" stop-opacity="0.7"/>
</linearGradient>
<clipPath id="clip0_2010_973">
<rect width="32" height="32" fill="white"/>
</clipPath>
</defs>
</svg>
