<svg width="56" height="56" viewBox="0 0 56 56" fill="none" xmlns="http://www.w3.org/2000/svg">
<g clip-path="url(#clip0_2006_72)">
<rect width="56" height="56" rx="14" fill="#413AA3" fill-opacity="0.2"/>
<rect width="56" height="56" fill="url(#paint0_linear_2006_72)"/>
<g clip-path="url(#clip1_2006_72)">
<path d="M33.625 12H22.375C21.8572 12 21.4375 12.4197 21.4375 12.9375V19.8125C21.4375 20.3303 21.8572 20.75 22.375 20.75H33.625C34.1428 20.75 34.5625 20.3303 34.5625 19.8125V12.9375C34.5625 12.4197 34.1428 12 33.625 12ZM33.625 23.625H22.375C21.8572 23.625 21.4375 24.0447 21.4375 24.5625V31.4375C21.4375 31.9553 21.8572 32.375 22.375 32.375H33.625C34.1428 32.375 34.5625 31.9553 34.5625 31.4375V24.5625C34.5625 24.0447 34.1428 23.625 33.625 23.625ZM33.625 35.25H22.375C21.8572 35.25 21.4375 35.6697 21.4375 36.1875V43.0625C21.4375 43.5803 21.8572 44 22.375 44H33.625C34.1428 44 34.5625 43.5803 34.5625 43.0625V36.1875C34.5625 35.6697 34.1428 35.25 33.625 35.25ZM40.5625 16.875H36.8125C36.2947 16.875 35.875 17.2947 35.875 17.8125C35.875 18.3303 36.2947 18.75 36.8125 18.75H40.5625C41.4241 18.75 42.125 19.4509 42.125 20.3125V24.0625C42.125 24.9241 41.4241 25.625 40.5625 25.625H39.0759L39.9753 24.7253C40.3416 24.3594 40.3416 23.7656 39.9753 23.3997C39.6094 23.0334 39.0156 23.0334 38.6497 23.3997L36.1497 25.8997C35.7834 26.2656 35.7834 26.8591 36.1497 27.2253L38.6497 29.7253C38.8325 29.9084 39.0725 30 39.3125 30C39.5525 30 39.7925 29.9084 39.9753 29.7253C40.3416 29.3594 40.3416 28.7656 39.9753 28.3997L39.0759 27.5H40.5625C42.458 27.5 44 25.958 44 24.0625V20.3125C44 18.417 42.458 16.875 40.5625 16.875ZM17.3503 35.0247C16.9844 34.6584 16.3906 34.6584 16.0247 35.0247C15.6584 35.3906 15.6584 35.9844 16.0247 36.3503L16.9241 37.25H15.4375C14.5759 37.25 13.875 36.5491 13.875 35.6875V31.9375C13.875 31.0759 14.5759 30.375 15.4375 30.375H19.1875C19.7053 30.375 20.125 29.9553 20.125 29.4375C20.125 28.9197 19.7053 28.5 19.1875 28.5H15.4375C13.542 28.5 12 30.042 12 31.9375V35.6875C12 37.583 13.542 39.125 15.4375 39.125H16.9241L16.0247 40.0247C15.6584 40.3906 15.6584 40.9844 16.0247 41.3503C16.2075 41.5334 16.4475 41.625 16.6875 41.625C16.9275 41.625 17.1675 41.5334 17.3503 41.3503L19.8503 38.8503C20.2166 38.4844 20.2166 37.8906 19.8503 37.5247L17.3503 35.0247Z" fill="url(#paint1_linear_2006_72)"/>
</g>
</g>
<rect x="0.5" y="0.5" width="55" height="55" rx="13.5" stroke="url(#paint2_linear_2006_72)"/>
<defs>
<linearGradient id="paint0_linear_2006_72" x1="28" y1="6.95388e-07" x2="30.3333" y2="56" gradientUnits="userSpaceOnUse">
<stop stop-color="white" stop-opacity="0"/>
<stop offset="1" stop-color="white" stop-opacity="0.12"/>
</linearGradient>
<linearGradient id="paint1_linear_2006_72" x1="28" y1="12" x2="28" y2="44" gradientUnits="userSpaceOnUse">
<stop stop-color="white"/>
<stop offset="1" stop-color="white" stop-opacity="0.7"/>
</linearGradient>
<linearGradient id="paint2_linear_2006_72" x1="-20.5" y1="-29.5" x2="73.1923" y2="18.5317" gradientUnits="userSpaceOnUse">
<stop stop-color="#4E4566" stop-opacity="0"/>
<stop offset="1" stop-color="#4E4566"/>
</linearGradient>
<clipPath id="clip0_2006_72">
<rect width="56" height="56" rx="14" fill="white"/>
</clipPath>
<clipPath id="clip1_2006_72">
<rect width="32" height="32" fill="white" transform="translate(12 12)"/>
</clipPath>
</defs>
</svg>
