<svg width="140" height="24" viewBox="0 0 140 24" fill="none" xmlns="http://www.w3.org/2000/svg">
<g clip-path="url(#clip0_2304_1187)">
<path d="M12.2172 7.35181C11.6226 7.35181 11.0414 7.52812 10.547 7.85845C10.0526 8.18878 9.66731 8.65829 9.43977 9.2076C9.21224 9.75692 9.15271 10.3614 9.2687 10.9445C9.3847 11.5277 9.67101 12.0633 10.0914 12.4838C10.5119 12.9042 11.0475 13.1905 11.6307 13.3065C12.2138 13.4225 12.8183 13.363 13.3676 13.1354C13.9169 12.9079 14.3864 12.5226 14.7168 12.0282C15.0471 11.5338 15.2234 10.9526 15.2234 10.358C15.2234 9.56074 14.9067 8.79609 14.3429 8.23231C13.7791 7.66853 13.0145 7.35181 12.2172 7.35181ZM13.8802 11.4817C13.8802 11.0407 13.705 10.6177 13.3931 10.3058C13.0813 9.99388 12.6582 9.81866 12.2172 9.81866C11.7761 9.81866 11.3531 9.99388 11.0412 10.3058C10.7293 10.6177 10.5541 11.0407 10.5541 11.4817C10.3152 11.1559 10.1823 10.7646 10.1734 10.3607C10.1734 10.0923 10.2262 9.82652 10.3289 9.57855C10.4316 9.33058 10.5822 9.10527 10.772 8.91549C10.9618 8.7257 11.1871 8.57516 11.435 8.47244C11.683 8.36973 11.9488 8.31687 12.2172 8.31687C12.4856 8.31687 12.7513 8.36973 12.9993 8.47244C13.2473 8.57516 13.4726 8.7257 13.6624 8.91549C13.8522 9.10527 14.0027 9.33058 14.1054 9.57855C14.2081 9.82652 14.261 10.0923 14.261 10.3607C14.251 10.7644 14.1182 11.1555 13.8802 11.4817Z" fill="#7B7F80"/>
<path d="M8.83833 19.2179C7.89094 19.7677 6.89744 20.2339 5.86912 20.6113C5.84689 20.2237 5.80098 19.8379 5.73163 19.4559C4.45066 20.016 3.12373 20.4645 1.76562 20.7964C2.0975 19.4383 2.54601 18.1113 3.10613 16.8304C2.72508 16.7602 2.3401 16.7135 1.95335 16.6902C2.32819 15.663 2.79361 14.6711 3.34409 13.7263C1.60963 14.9188 0.43569 16.5686 -0.00321481 17.8298C0.416931 17.8258 0.837004 17.8434 1.25533 17.8827C0.691166 19.4039 0.268971 20.9741 -0.00585938 22.5732C1.5895 22.2948 3.156 21.8708 4.67403 21.3067C4.71331 21.725 4.73096 22.1451 4.72691 22.5652C5.99339 22.1131 7.64589 20.9524 8.83833 19.2179Z" fill="#7B7F80"/>
<path d="M20.3741 10.4981C19.4125 8.76552 18.2177 7.17308 16.8232 5.76532C15.4209 4.36053 13.8309 3.15665 12.0984 2.18799C10.9717 2.7295 9.94317 3.45509 9.05514 4.33492C8.29476 5.10142 7.5955 5.92622 6.96374 6.80177C5.06549 6.55844 3.13736 6.86878 1.41133 7.69545C0.841756 8.61633 0.366937 9.59255 -0.00585938 10.6091C1.56945 10.3714 3.17734 10.7174 4.51539 11.5821C4.26949 12.0818 4.05004 12.5551 3.80944 13.0654C4.22919 13.931 4.73498 14.7521 5.31916 15.5164C4.96125 16.3027 4.70962 17.1332 4.57091 17.9859C5.42364 17.8472 6.2541 17.5956 7.04041 17.2377C7.8047 17.8218 8.62583 18.3276 9.4914 18.7474C10.0017 18.5068 10.4776 18.2873 10.9747 18.0414C11.8396 19.3804 12.1856 20.9892 11.9477 22.5653C12.9675 22.2035 13.9489 21.7411 14.8772 21.1852C15.7047 19.4547 16.0141 17.5218 15.7683 15.6195C16.6474 14.9875 17.4734 14.2845 18.2378 13.5175C19.1068 12.6318 19.8281 11.6124 20.3741 10.4981ZM12.2174 14.554C11.3875 14.554 10.5762 14.3079 9.88618 13.8468C9.19615 13.3858 8.65833 12.7304 8.34074 11.9637C8.02315 11.197 7.94006 10.3533 8.10196 9.53935C8.26387 8.7254 8.6635 7.97774 9.25033 7.39092C9.83715 6.80409 10.5848 6.40446 11.3988 6.24255C12.2127 6.08065 13.0564 6.16374 13.8231 6.48133C14.5898 6.79892 15.2452 7.33673 15.7062 8.02677C16.1673 8.7168 16.4134 9.52806 16.4134 10.358C16.412 11.4704 15.9695 12.5369 15.1829 13.3235C14.3963 14.1101 13.3298 14.5526 12.2174 14.554Z" fill="#7B7F80"/>
<path d="M21.0727 1.50588C20.3006 0.73383 17.297 0.384822 14.3463 1.27321C14.1084 1.3446 13.8863 1.44242 13.6562 1.53761C16.6671 3.38944 19.1982 5.92599 21.0436 8.94082C21.1123 8.74516 21.1969 8.5495 21.2525 8.3512C22.1779 5.18369 21.8209 2.25413 21.0727 1.50588Z" fill="#7B7F80"/>
<path d="M85.7689 18.9933C84.0635 18.9933 83.191 17.7507 82.6701 16.2965H82.5009V22.5786H79.3281V7.96519H82.5009V10.3051H82.6939C83.2227 8.8007 84.127 7.66113 85.7689 7.66113C88.011 7.66113 89.2881 9.64942 89.2881 13.3325C89.2881 17.0156 87.9687 18.9933 85.7689 18.9933ZM86.1655 13.3431C86.1655 11.5082 85.6209 10.6779 84.365 10.6779C83.1514 10.6779 82.5009 11.5267 82.5009 12.9597V13.7952C82.5009 15.149 83.2227 16.0532 84.3517 16.0532C85.6023 16.0532 86.1655 15.1675 86.1655 13.3431Z" fill="#7B7F80"/>
<path d="M46.6587 19.8234L45.6672 22.5838C45.6672 22.5838 46.7486 23.2527 48.84 23.2527C51.8542 23.2527 54.128 20.9207 54.128 17.0155V7.96509H50.9393V13.2531C50.9393 14.6095 50.318 15.3075 49.189 15.3075C48.1816 15.3075 47.8115 14.6782 47.8115 13.6841V7.96509H44.6387V14.4429C44.6387 16.7696 45.7359 18.2423 47.5735 18.2423C49.1943 18.2423 50.2175 17.2217 50.7992 15.5983H51.0239V17.5232C51.0239 19.2312 50.117 20.3099 48.5174 20.3099C47.8645 20.3249 47.2205 20.1563 46.6587 19.8234Z" fill="#7B7F80"/>
<path d="M97.4633 16.2963H97.2465C96.6648 17.9065 95.6389 18.9932 94.0208 18.9932C92.0774 18.9932 91.0859 17.547 91.0859 15.2176V7.96509H94.2587V14.3609C94.2587 15.3551 94.6289 15.9844 95.6363 15.9844C96.7626 15.9844 97.3866 15.2863 97.3866 13.93V7.96509H100.559V18.6759H97.4633V16.2963Z" fill="#7B7F80"/>
<path d="M106.019 10.3052H106.214C106.743 8.80072 107.647 7.66116 109.289 7.66116C111.531 7.66116 112.806 9.64945 112.806 13.3325C112.806 17.0156 111.484 18.9828 109.289 18.9828C107.584 18.9828 106.711 17.7401 106.19 16.2859H106.019V18.6655H102.846V3.70044H106.019V10.3052ZM109.686 13.3431C109.686 11.5082 109.035 10.6727 107.885 10.678C106.735 10.6833 106.019 11.5426 106.019 12.9597V13.7952C106.019 15.1172 106.743 16.0532 107.869 16.0532C109.078 16.0532 109.675 15.104 109.675 13.3431H109.686Z" fill="#7B7F80"/>
<path d="M117.819 18.6761H114.646V3.70044H117.819V18.6761Z" fill="#7B7F80"/>
<path d="M120.033 18.6759V7.96509H123.206V18.6759H120.033Z" fill="#7B7F80"/>
<path d="M130.079 10.588C128.813 10.588 128.104 11.405 128.104 13.2981C128.104 15.133 128.765 16.0743 130.121 16.0743C130.559 16.0743 130.981 15.9178 131.313 15.6331C131.645 15.3484 131.864 14.9543 131.93 14.5222L134.838 15.1409C134.516 17.2561 133.048 18.9933 130.132 18.9933C126.896 18.9933 124.865 17.1187 124.865 13.4567C124.865 9.79476 126.851 7.67163 130.111 7.67163C133.154 7.67163 134.463 9.30827 134.799 11.6112L131.851 12.14C131.705 11.3071 131.166 10.5774 130.079 10.588Z" fill="#7B7F80"/>
<path d="M121.613 6.63009C122.594 6.63009 123.389 5.8713 123.389 4.93528C123.389 3.99927 122.594 3.24048 121.613 3.24048C120.631 3.24048 119.836 3.99927 119.836 4.93528C119.836 5.8713 120.631 6.63009 121.613 6.63009Z" fill="#7B7F80"/>
<path d="M39.4278 4.64966C37.6748 5.97166 35.906 8.59716 35.2476 10.6489H35.0255C34.3698 8.59716 32.5957 5.96902 30.8427 4.64966H27.6699V18.6761H30.8427V14.02C30.8427 11.1116 30.6365 8.65268 30.6365 8.65268H30.848C32.2308 10.3448 33.344 13.2162 33.6374 15.8338H36.6225C36.916 13.2162 38.0291 10.3448 39.4119 8.65268H39.6235C39.6235 8.65268 39.4172 11.1142 39.4172 14.02V18.6761H42.59V4.66288L39.4278 4.64966Z" fill="#7B7F80"/>
<path d="M67.5879 13.5466C67.5879 9.845 69.3065 7.67163 72.6115 7.67163C76.0276 7.67163 77.7964 9.88466 77.5822 14.0172H70.7078C70.84 15.5904 71.5698 16.2752 72.823 16.2752C73.9599 16.2752 74.4094 15.7702 74.6738 15.1224L77.3628 15.8231C76.9027 17.4095 75.6309 18.9668 72.7913 18.9668C69.6106 18.9695 67.5879 16.8913 67.5879 13.5466ZM70.7316 12.4626H74.5548C74.5125 11.0639 73.9176 10.2046 72.7305 10.2046C71.4878 10.2046 70.8532 10.9819 70.7316 12.4599V12.4626Z" fill="#7B7F80"/>
<path d="M65.7641 15.2177C65.4832 14.7317 65.0984 14.3138 64.6372 13.9938C64.176 13.6739 63.6498 13.4598 63.0963 13.3669V13.1342C65.1242 12.801 66.2109 11.5055 66.2109 9.22106C66.2109 6.41048 64.5055 4.64429 61.1873 4.64429H56.1875V18.6707H59.3603V14.2579H61.0207C61.6265 14.6239 62.141 15.123 62.5252 15.7174C63.0722 16.6108 63.3817 17.6293 63.4241 18.676H66.7873C66.7873 18.676 66.6234 16.5767 65.7641 15.2177ZM59.3497 7.62408H61.1714C62.5199 7.62408 63.0434 8.35911 63.0434 9.4881C63.0434 10.6171 62.4829 11.4632 61.1714 11.4632H59.3497V7.62408Z" fill="#7B7F80"/>
<path d="M135.326 7.677H137.219V8.02865H136.46V9.99579H136.098V8.02865H135.337L135.326 7.677Z" fill="#7B7F80"/>
<path d="M137.482 7.677H137.935L138.744 9.57804L139.553 7.677H140.002V9.99579H139.637V8.34593L138.937 9.99579H138.54L137.842 8.35651V9.99579H137.482V7.677Z" fill="#7B7F80"/>
</g>
<defs>
<clipPath id="clip0_2304_1187">
<rect width="140" height="22.5058" fill="white" transform="translate(0 0.74707)"/>
</clipPath>
</defs>
</svg>
