<svg width="143" height="22" viewBox="0 0 143 22" fill="none" xmlns="http://www.w3.org/2000/svg">
<path d="M4.92842 2.35242V21H0.967158V2.35242H4.92842ZM16.7838 6.28674C18.0413 6.28674 19.0204 6.67298 19.7211 7.44547C20.4217 8.2 20.772 9.25095 20.772 10.5983V21H16.9455V11.2451C16.9455 10.4726 16.8107 9.93361 16.5413 9.62821C16.2898 9.30484 15.9035 9.14316 15.3825 9.14316C14.8436 9.14316 14.3495 9.31382 13.9004 9.65516C13.4693 9.97853 13.0471 10.4726 12.6339 11.1373V21H8.80737V6.71789H12.1219L12.4183 8.52337C13.0112 7.78681 13.6579 7.22989 14.3585 6.85263C15.0771 6.47537 15.8855 6.28674 16.7838 6.28674ZM30.5297 3.45726C29.8829 3.45726 29.4159 3.60996 29.1284 3.91537C28.8589 4.22077 28.7242 4.71481 28.7242 5.39747V6.71789H32.1196L31.6884 9.41263H28.7242V21H24.8977V9.41263H22.6341V6.71789H24.8977V5.28968C24.8977 3.90639 25.3468 2.78358 26.2451 1.92126C27.1613 1.04098 28.4547 0.600841 30.1255 0.600841C31.4549 0.600841 32.7124 0.88828 33.8981 1.46316L32.8472 3.99621C32.0747 3.63691 31.3022 3.45726 30.5297 3.45726ZM45.6693 13.5356C45.6693 13.7152 45.6423 14.2093 45.5884 15.0177H36.6688C36.7946 16.3112 37.1449 17.2274 37.7198 17.7663C38.2947 18.3053 39.0761 18.5747 40.0642 18.5747C40.675 18.5747 41.2499 18.4759 41.7888 18.2783C42.3278 18.0807 42.9116 17.7663 43.5404 17.3352L45.1303 19.4909C43.5314 20.7844 41.726 21.4312 39.7139 21.4312C37.4683 21.4312 35.7436 20.7575 34.54 19.4101C33.3364 18.0627 32.7345 16.2393 32.7345 13.9398C32.7345 12.4846 32.986 11.1822 33.4891 10.0324C34.01 8.8647 34.7556 7.94849 35.7257 7.28379C36.7138 6.61909 37.8815 6.28674 39.2288 6.28674C41.2589 6.28674 42.8398 6.92449 43.9716 8.2C45.1034 9.47551 45.6693 11.254 45.6693 13.5356ZM41.8697 12.4577C41.8697 10.0863 41.0164 8.90063 39.3097 8.90063C38.5192 8.90063 37.8994 9.19705 37.4503 9.78989C37.0192 10.3648 36.7587 11.3079 36.6688 12.6194H41.8697V12.4577ZM55.8225 6.31368C56.2537 6.31368 56.7298 6.38554 57.2507 6.52926L56.604 10.2211C56.101 10.0953 55.6788 10.0324 55.3375 10.0324C54.4931 10.0324 53.8374 10.3288 53.3703 10.9217C52.9032 11.5145 52.5349 12.4128 52.2655 13.6164V21H48.4389V6.71789H51.7535L52.1038 9.49347C52.4451 8.48744 52.9392 7.70596 53.5859 7.14905C54.2506 6.59214 54.9961 6.31368 55.8225 6.31368ZM70.4061 13.5356C70.4061 13.7152 70.3792 14.2093 70.3253 15.0177H61.4057C61.5314 16.3112 61.8818 17.2274 62.4566 17.7663C63.0315 18.3053 63.813 18.5747 64.8011 18.5747C65.4119 18.5747 65.9867 18.4759 66.5257 18.2783C67.0646 18.0807 67.6485 17.7663 68.2773 17.3352L69.8672 19.4909C68.2683 20.7844 66.4628 21.4312 64.4507 21.4312C62.2051 21.4312 60.4805 20.7575 59.2768 19.4101C58.0732 18.0627 57.4714 16.2393 57.4714 13.9398C57.4714 12.4846 57.7229 11.1822 58.2259 10.0324C58.7469 8.8647 59.4924 7.94849 60.4625 7.28379C61.4506 6.61909 62.6183 6.28674 63.9657 6.28674C65.9957 6.28674 67.5766 6.92449 68.7084 8.2C69.8402 9.47551 70.4061 11.254 70.4061 13.5356ZM66.6065 12.4577C66.6065 10.0863 65.7532 8.90063 64.0465 8.90063C63.2561 8.90063 62.6363 9.19705 62.1872 9.78989C61.756 10.3648 61.4955 11.3079 61.4057 12.6194H66.6065V12.4577ZM81.1522 6.28674C82.4098 6.28674 83.3888 6.67298 84.0895 7.44547C84.7901 8.2 85.1404 9.25095 85.1404 10.5983V21H81.3139V11.2451C81.3139 10.4726 81.1792 9.93361 80.9097 9.62821C80.6582 9.30484 80.2719 9.14316 79.7509 9.14316C79.212 9.14316 78.718 9.31382 78.2688 9.65516C77.8377 9.97853 77.4155 10.4726 77.0023 11.1373V21H73.1758V6.71789H76.4903L76.7867 8.52337C77.3796 7.78681 78.0263 7.22989 78.7269 6.85263C79.4455 6.47537 80.254 6.28674 81.1522 6.28674ZM94.7364 6.28674C95.6886 6.28674 96.5419 6.43046 97.2964 6.71789C98.0689 6.98737 98.7965 7.41853 99.4792 8.01137L97.8084 10.2749C97.3413 9.91565 96.8832 9.65516 96.4341 9.49347C96.0029 9.33179 95.5269 9.25095 95.0059 9.25095C92.9759 9.25095 91.9608 10.8139 91.9608 13.9398C91.9608 15.5207 92.2213 16.6525 92.7423 17.3352C93.2633 18.0178 94.0088 18.3592 94.9789 18.3592C95.482 18.3592 95.9401 18.2873 96.3533 18.1436C96.7665 17.9819 97.2515 17.7214 97.8084 17.3621L99.4792 19.7604C98.1138 20.8742 96.5509 21.4312 94.7903 21.4312C93.3891 21.4312 92.1674 21.1258 91.1255 20.5149C90.1015 19.9041 89.311 19.0418 88.7541 17.928C88.1972 16.7962 87.9187 15.4758 87.9187 13.9667C87.9187 12.4577 88.1972 11.1283 88.7541 9.97853C89.311 8.81081 90.1015 7.90358 91.1255 7.25684C92.1674 6.6101 93.3711 6.28674 94.7364 6.28674ZM113.196 13.5356C113.196 13.7152 113.169 14.2093 113.115 15.0177H104.195C104.321 16.3112 104.671 17.2274 105.246 17.7663C105.821 18.3053 106.602 18.5747 107.591 18.5747C108.201 18.5747 108.776 18.4759 109.315 18.2783C109.854 18.0807 110.438 17.7663 111.067 17.3352L112.657 19.4909C111.058 20.7844 109.252 21.4312 107.24 21.4312C104.995 21.4312 103.27 20.7575 102.066 19.4101C100.863 18.0627 100.261 16.2393 100.261 13.9398C100.261 12.4846 100.512 11.1822 101.015 10.0324C101.536 8.8647 102.282 7.94849 103.252 7.28379C104.24 6.61909 105.408 6.28674 106.755 6.28674C108.785 6.28674 110.366 6.92449 111.498 8.2C112.63 9.47551 113.196 11.254 113.196 13.5356ZM109.396 12.4577C109.396 10.0863 108.543 8.90063 106.836 8.90063C106.046 8.90063 105.426 9.19705 104.977 9.78989C104.545 10.3648 104.285 11.3079 104.195 12.6194H109.396V12.4577ZM132.488 21L131.437 16.8232H125.589L124.538 21H120.415L126.155 2.35242H130.979L136.692 21H132.488ZM126.344 13.8859H130.682L128.5 5.28968L126.344 13.8859ZM142.376 2.35242V21H138.415V2.35242H142.376Z" fill="white"/>
</svg>
