<svg width="400" height="222" viewBox="0 0 400 222" fill="none" xmlns="http://www.w3.org/2000/svg">
<g clip-path="url(#clip0_2779_4709)">
<rect width="400" height="222" fill="#F1F3F4"/>
<g clip-path="url(#clip1_2779_4709)">
<rect opacity="0.2" x="59.4534" y="-30.1579" width="281.727" height="281.727" rx="140.863" stroke="#D6D6D6" stroke-width="2.28963"/>
<rect opacity="0.3" x="83.1255" y="-6.48653" width="234.383" height="234.383" rx="117.191" stroke="#D6D6D6" stroke-width="2.28963"/>
<rect opacity="0.4" x="106.786" y="17.1853" width="187.051" height="187.051" rx="93.5254" stroke="#D6D6D6" stroke-width="2.28963"/>
<rect opacity="0.5" x="130.457" y="40.846" width="139.719" height="139.719" rx="69.8593" stroke="#D6D6D6" stroke-width="2.28963"/>
<rect opacity="0.6" x="154.129" y="64.5179" width="92.3748" height="92.3748" rx="46.1874" stroke="#D6D6D6" stroke-width="2.28963"/>
<rect opacity="0.7" x="177.79" y="88.1895" width="45.0426" height="45.0426" rx="22.5213" stroke="#D6D6D6" stroke-width="2.28963"/>
</g>
<g filter="url(#filter0_f_2779_4709)">
<rect x="120" y="45" width="114" height="114" rx="22" fill="#CDCDCD" fill-opacity="0.7"/>
</g>
<g clip-path="url(#clip2_2779_4709)">
<rect x="150" y="61" width="100" height="100" rx="50" fill="white"/>
<rect width="100" height="100" transform="translate(150 61)" fill="url(#paint0_linear_2779_4709)"/>
<path fill-rule="evenodd" clip-rule="evenodd" d="M188.75 101.615V120.385C187.583 120.797 186.551 121.522 185.768 122.481C184.985 123.44 184.48 124.596 184.31 125.822C184.139 127.049 184.309 128.298 184.801 129.434C185.293 130.571 186.088 131.55 187.099 132.265C188.11 132.98 189.298 133.403 190.533 133.488C191.768 133.573 193.003 133.317 194.102 132.748C195.202 132.179 196.124 131.318 196.767 130.26C197.41 129.202 197.75 127.988 197.75 126.75C197.75 125.354 197.317 123.993 196.511 122.853C195.705 121.713 194.566 120.851 193.25 120.385V117.75H202.25C204.637 117.75 206.926 116.802 208.614 115.114C210.302 113.426 211.25 111.137 211.25 108.75V106.115C212.418 105.703 213.449 104.978 214.232 104.019C215.016 103.06 215.52 101.904 215.69 100.678C215.861 99.4513 215.691 98.2017 215.199 97.0655C214.707 95.9293 213.912 94.9502 212.901 94.2353C211.89 93.5204 210.702 93.0971 209.467 93.0119C208.232 92.9266 206.997 93.1826 205.898 93.7519C204.798 94.3212 203.876 95.1818 203.233 96.2396C202.59 97.2975 202.25 98.5119 202.25 99.75C202.25 102.686 204.129 105.188 206.75 106.115V108.75C206.75 109.943 206.276 111.088 205.432 111.932C204.588 112.776 203.444 113.25 202.25 113.25H193.25V101.615C194.418 101.203 195.449 100.478 196.232 99.5189C197.016 98.5598 197.52 97.404 197.69 96.1777C197.861 94.9513 197.691 93.7017 197.199 92.5655C196.707 91.4293 195.912 90.4502 194.901 89.7353C193.89 89.0204 192.702 88.5971 191.467 88.5119C190.232 88.4266 188.997 88.6826 187.898 89.2519C186.798 89.8212 185.876 90.6818 185.233 91.7396C184.59 92.7975 184.25 94.0119 184.25 95.25C184.25 98.1862 186.129 100.688 188.75 101.615Z" fill="#5F5F5F"/>
<path fill-rule="evenodd" clip-rule="evenodd" d="M188.75 101.615V120.385C187.583 120.797 186.551 121.522 185.768 122.481C184.985 123.44 184.48 124.596 184.31 125.822C184.139 127.049 184.309 128.298 184.801 129.434C185.293 130.571 186.088 131.55 187.099 132.265C188.11 132.98 189.298 133.403 190.533 133.488C191.768 133.573 193.003 133.317 194.102 132.748C195.202 132.179 196.124 131.318 196.767 130.26C197.41 129.202 197.75 127.988 197.75 126.75C197.75 125.354 197.317 123.993 196.511 122.853C195.705 121.713 194.566 120.851 193.25 120.385V117.75H202.25C204.637 117.75 206.926 116.802 208.614 115.114C210.302 113.426 211.25 111.137 211.25 108.75V106.115C212.418 105.703 213.449 104.978 214.232 104.019C215.016 103.06 215.52 101.904 215.69 100.678C215.861 99.4513 215.691 98.2017 215.199 97.0655C214.707 95.9293 213.912 94.9502 212.901 94.2353C211.89 93.5204 210.702 93.0971 209.467 93.0119C208.232 92.9266 206.997 93.1826 205.898 93.7519C204.798 94.3212 203.876 95.1818 203.233 96.2396C202.59 97.2975 202.25 98.5119 202.25 99.75C202.25 102.686 204.129 105.188 206.75 106.115V108.75C206.75 109.943 206.276 111.088 205.432 111.932C204.588 112.776 203.444 113.25 202.25 113.25H193.25V101.615C194.418 101.203 195.449 100.478 196.232 99.5189C197.016 98.5598 197.52 97.404 197.69 96.1777C197.861 94.9513 197.691 93.7017 197.199 92.5655C196.707 91.4293 195.912 90.4502 194.901 89.7353C193.89 89.0204 192.702 88.5971 191.467 88.5119C190.232 88.4266 188.997 88.6826 187.898 89.2519C186.798 89.8212 185.876 90.6818 185.233 91.7396C184.59 92.7975 184.25 94.0119 184.25 95.25C184.25 98.1862 186.129 100.688 188.75 101.615Z" fill="url(#paint1_linear_2779_4709)"/>
</g>
<rect x="152.083" y="63.0833" width="95.8333" height="95.8333" rx="47.9167" stroke="url(#paint2_linear_2779_4709)" stroke-width="4.16667"/>
</g>
<defs>
<filter id="filter0_f_2779_4709" x="16" y="-59" width="322" height="322" filterUnits="userSpaceOnUse" color-interpolation-filters="sRGB">
<feFlood flood-opacity="0" result="BackgroundImageFix"/>
<feBlend mode="normal" in="SourceGraphic" in2="BackgroundImageFix" result="shape"/>
<feGaussianBlur stdDeviation="52" result="effect1_foregroundBlur_2779_4709"/>
</filter>
<linearGradient id="paint0_linear_2779_4709" x1="50" y1="1.24176e-06" x2="54.1667" y2="100" gradientUnits="userSpaceOnUse">
<stop stop-color="white" stop-opacity="0"/>
<stop offset="1" stop-color="white" stop-opacity="0.12"/>
</linearGradient>
<linearGradient id="paint1_linear_2779_4709" x1="200" y1="88.4958" x2="200" y2="133.504" gradientUnits="userSpaceOnUse">
<stop stop-color="#3276F5" stop-opacity="0.8"/>
<stop offset="1" stop-color="#3276F5" stop-opacity="0.5"/>
</linearGradient>
<linearGradient id="paint2_linear_2779_4709" x1="200" y1="61" x2="200" y2="161" gradientUnits="userSpaceOnUse">
<stop stop-color="white" stop-opacity="0.12"/>
<stop offset="1" stop-color="white" stop-opacity="0"/>
</linearGradient>
<clipPath id="clip0_2779_4709">
<rect width="400" height="222" fill="white"/>
</clipPath>
<clipPath id="clip1_2779_4709">
<rect width="478.741" height="224.8" fill="white" transform="translate(-39 -1)"/>
</clipPath>
<clipPath id="clip2_2779_4709">
<rect x="150" y="61" width="100" height="100" rx="50" fill="white"/>
</clipPath>
</defs>
</svg>
