<svg width="40" height="40" viewBox="0 0 40 40" fill="none" xmlns="http://www.w3.org/2000/svg">
<rect x="0.5" y="0.5" width="39" height="39" rx="19.5" stroke="#29223E"/>
<path d="M26.7233 15.1552L28 13.9338V13.6665H23.5773L20.4253 21.5118L16.8393 13.6665H12.202V13.9338L13.6933 15.7292C13.8387 15.8618 13.9147 16.0558 13.8953 16.2512V23.3065C13.9413 23.5605 13.8587 23.8218 13.68 24.0065L12 26.0425V26.3065H16.7633V26.0392L15.0833 24.0065C14.9934 23.9156 14.9257 23.8051 14.8856 23.6836C14.8455 23.5622 14.834 23.4331 14.852 23.3065V17.2038L19.0333 26.3098H19.5193L23.1147 17.2038V24.4578C23.1147 24.6492 23.1147 24.6885 22.9893 24.8138L21.696 26.0652V26.3332H27.9707V26.0658L26.724 24.8452C26.67 24.8045 26.6282 24.7498 26.603 24.6871C26.5779 24.6243 26.5704 24.5559 26.5813 24.4892V15.5112C26.5702 15.4445 26.5775 15.3761 26.6025 15.3133C26.6276 15.2505 26.6694 15.1958 26.7233 15.1552Z" fill="white"/>
</svg>
