<?xml version="1.0" encoding="utf-8"?>
<!-- Generator: Adobe Illustrator 25.2.1, SVG Export Plug-In . SVG Version: 6.00 Build 0)  -->
<svg version="1.1" id="Layer_1" xmlns="http://www.w3.org/2000/svg" xmlns:xlink="http://www.w3.org/1999/xlink" x="0px" y="0px"
	 viewBox="0 0 1663.5 283.46" style="enable-background:new 0 0 1663.5 283.46;" xml:space="preserve">
<style type="text/css">
	.st0{fill:#041F55;}
	.st1{fill:#FFD939;}
	.st2{fill:#3975F4;}
	.st3{fill:#41A8FB;}
	.st4{fill:#3AD6FC;}
	.st5{fill:#FFFFFF;}
	.st6{fill:#BFBFBF;}
	.st7{fill:#404040;}
	.st8{fill:#808080;}
</style>
<g>
	<path class="st0" d="M597.06,53.65v135.8c0,4.75-3.85,8.6-8.6,8.6h-15.98v-61.97h-73.75v53.38c0,4.75-3.85,8.6-8.6,8.6h-15.98
		V62.25c0-4.75,3.85-8.6,8.6-8.6h15.98v61.77h73.75V62.25c0-4.75,3.85-8.6,8.6-8.6H597.06z"/>
	<path class="st0" d="M735.18,95.79l-59.96,141.84c-1.35,3.18-4.46,5.25-7.92,5.25h-19.71l18.39-44.83L618.66,95.79h26.65
		l31.4,73.75h0.62l28.57-68.46c1.34-3.2,4.47-5.29,7.94-5.29H735.18z"/>
	<path class="st0" d="M770.36,240.61h-14.53V104.39c0-4.75,3.85-8.6,8.6-8.6h14.56l-0.03,11.57h1.03
		c4.34-8.47,17.56-14.87,34.08-14.87c34.09,0,55.78,26.65,55.78,54.54c0,26.86-21.48,54.54-55.78,54.54
		c-13.84,0-29.54-7.23-33.88-15.29h-1.24v45.73C778.96,236.76,775.11,240.61,770.36,240.61z M780.41,147.03
		c0,20.86,15.91,33.47,33.67,33.47c17.77,0,31.4-12.6,31.4-33.47c0-19.83-13.64-33.47-31.4-33.47
		C795.9,113.56,780.41,126.57,780.41,147.03z"/>
	<path class="st0" d="M1564,240.61h-14.53V104.39c0-4.75,3.85-8.6,8.6-8.6h14.56l-0.03,11.57h1.03
		c4.34-8.47,17.56-14.87,34.08-14.87c34.09,0,55.78,26.65,55.78,54.54c0,26.86-21.48,54.54-55.78,54.54
		c-13.84,0-29.54-7.23-33.88-15.29h-1.24v45.73C1572.6,236.76,1568.75,240.61,1564,240.61z M1574.05,147.03
		c0,20.86,15.91,33.47,33.67,33.47c17.77,0,31.4-12.6,31.4-33.47c0-19.83-13.64-33.47-31.4-33.47
		C1589.54,113.56,1574.05,126.57,1574.05,147.03z"/>
	<path class="st0" d="M1006.84,155.7h-88.42c3.72,14.87,16.32,24.79,31.4,24.79c9.36,0,17.78-3.65,23.71-10.08
		c2.57-2.79,6.61-3.66,10.04-2.04l14.79,6.96c-9.5,15.29-26.65,26.03-48.55,26.03c-34.09,0-56.81-26.65-56.81-54.54
		c0-26.86,22.52-54.33,56.81-54.33c34.29,0,57.02,27.47,57.02,54.33V155.7z M981.02,136.7c-4.13-14.67-16.73-23.34-31.19-23.34
		c-14.67,0-27.06,8.68-30.99,23.34H981.02z"/>
	<path class="st0" d="M1100.68,94.14v26.03c-3.71-2.89-10.12-4.34-16.73-4.34c-16.53,0-24.17,10.33-24.17,30.99v42.63
		c0,4.75-3.85,8.6-8.6,8.6h-15.98v-93.66c0-4.75,3.85-8.6,8.6-8.6h14.66l-0.13,12.4h1.03c4.13-8.26,14.46-15.49,30.99-15.49
		C1094.28,92.69,1097.8,93.31,1100.68,94.14z"/>
	<path class="st0" d="M1147.31,95.79v140.14c0,4.75-3.85,8.6-8.6,8.6h-15.98V104.39c0-4.75,3.85-8.6,8.6-8.6H1147.31z"/>
	<path class="st0" d="M1178.81,146.82v-42.43c0-4.75,3.85-8.6,8.6-8.6h15.98v51.03c0,22.52,11.57,33.47,31.4,33.47
		c17.36,0,33.26-12.6,33.26-33.47l-0.17-42.39c-0.02-4.76,3.84-8.63,8.6-8.63h15.95v93.66c0,4.75-3.85,8.6-8.6,8.6h-14.42
		l0.09-12.19h-1.03c-4.13,8.26-19,15.29-35.53,15.29C1194.5,201.15,1178.81,180.7,1178.81,146.82z"/>
	<path class="st0" d="M1515.71,143.31v46.15c0,4.75-3.85,8.6-8.6,8.6h-15.78v-51.23c0-23.96-7.23-33.26-26.03-33.26
		c-14.87,0-32.44,12.6-32.44,33.67v42.22c0,4.75-3.85,8.6-8.6,8.6h-15.78v-51.23c0-23.96-7.02-33.26-26.03-33.26
		c-16.53,0-32.85,13.43-32.85,35.33v40.57c0,4.75-3.85,8.6-8.6,8.6h-15.78v-93.66c0-4.75,3.85-8.6,8.6-8.6h14.45l-0.11,17.56h1.24
		c5.37-9.3,19.01-20.66,38.43-20.66c19.83,0,33.47,7.85,40.28,23.34h0.83c5.58-9.09,19.21-23.34,41.32-23.34h0.42
		C1499.81,92.69,1515.71,109.43,1515.71,143.31z"/>
	<path class="st1" d="M1147.31,58.69V42.71h-15.98c-4.75,0-8.6,3.85-8.6,8.6v15.98h15.98C1143.46,67.29,1147.31,63.44,1147.31,58.69
		z"/>
	<path class="st2" d="M73.95,11.74C69.42,4.43,61.55,0,53.08,0H0l109.45,176.58L42.77,282.54h53.69c8.82,0,16.96-4.4,21.38-11.56
		l58.28-94.39L73.95,11.74z"/>
	<rect x="228.92" y="142.2" class="st2" width="35.32" height="35.32"/>
	<rect x="264.24" y="71.56" class="st3" width="35.32" height="35.32"/>
	<path class="st3" d="M264.24,142.2h-35.32v-22.96c0-6.82,5.53-12.35,12.35-12.35h22.96V142.2z"/>
	<path class="st1" d="M299.56,71.56h-35.32V48.6c0-6.82,5.53-12.35,12.35-12.35h22.96V71.56z"/>
	<path class="st1" d="M334.88,36.25h-35.32V13.28c0-6.82,5.53-12.35,12.35-12.35h22.96V36.25z"/>
	<path class="st4" d="M299.56,36.25h35.32v22.96c0,6.82-5.53,12.35-12.35,12.35h-22.96V36.25z"/>
	<path class="st4" d="M264.24,106.88h35.32v22.96c0,6.82-5.53,12.35-12.35,12.35h-22.96V106.88z"/>
	<path class="st4" d="M264.24,177.51h35.32v22.96c0,6.82-5.53,12.35-12.35,12.35h-22.96V177.51z"/>
	<path class="st4" d="M264.24,271.11v-22.96h22.96c6.82,0,12.35,5.53,12.35,12.35v22.96h-22.96
		C269.77,283.46,264.24,277.93,264.24,271.11z"/>
	<path class="st1" d="M334.87,235.79v-22.96h22.96c6.82,0,12.35,5.53,12.35,12.35v22.96h-22.96
		C340.41,248.15,334.87,242.62,334.87,235.79z"/>
	<path class="st4" d="M334.88,165.16V142.2h-22.96c-6.82,0-12.35,5.53-12.35,12.35v22.96h22.96
		C329.34,177.51,334.88,171.98,334.88,165.16z"/>
	<path class="st1" d="M370.19,129.84v-22.96h-22.96c-6.82,0-12.35,5.53-12.35,12.35v22.96h22.96
		C364.66,142.2,370.19,136.67,370.19,129.84z"/>
	<rect x="228.92" y="177.51" class="st3" width="35.32" height="35.32"/>
	<path class="st2" d="M264.24,248.15h-22.96c-6.82,0-12.35-5.53-12.35-12.35v-22.96h35.32V248.15z"/>
	<path class="st2" d="M205.96,212.83h22.96v-35.32h-35.32v22.96C193.61,207.3,199.14,212.83,205.96,212.83z"/>
</g>
</svg>
