<svg width="55" height="30" viewBox="0 0 55 30" fill="none" xmlns="http://www.w3.org/2000/svg">
<g clip-path="url(#clip0_1598_1109)">
<path d="M11.2133 9.94565C9.11775 9.94565 7.18079 10.6533 5.60571 11.855V3.26392H0.651855V29.6152H5.60571V28.0918C7.17964 29.2935 9.11775 30.0012 11.2133 30.0012C16.4888 30.0012 20.7671 25.5126 20.7671 19.9728C20.7671 14.4331 16.4888 9.94565 11.2133 9.94565ZM10.7388 25.1059C7.90456 25.1059 5.60571 22.8071 5.60571 19.9728C5.60571 17.1386 7.90456 14.8409 10.7388 14.8409C13.573 14.8409 15.8707 17.1386 15.8707 19.9728C15.8707 22.8071 13.573 25.1059 10.7388 25.1059Z" fill="#7A828D"/>
<path d="M54.1563 17.1972V29.614H49.2013V17.7326C49.2013 17.1674 49.0313 16.6079 48.7142 16.1391C48.157 15.3154 47.1908 14.8984 46.2235 14.8191C45.371 14.749 44.4094 14.9064 43.6604 15.3361C43.4099 15.4797 43.1779 15.6532 42.9699 15.8531C42.3013 16.4964 41.9026 17.3971 41.9026 18.3277V29.6152H36.9476V10.4385H41.9026V11.4713C41.9026 11.1738 43.256 10.6017 43.4995 10.4983C44.1303 10.2317 44.8012 10.0674 45.4813 9.99276C49.9251 9.50335 54.154 12.5053 54.154 17.1984L54.1563 17.1972Z" fill="#7A828D"/>
<path d="M34.6706 15.2545V10.4373H29.0733V5.22729H27.4362L24.1183 7.54108V10.9291L20.766 13.5427V15.2545H24.1183V22.722C24.1183 23.4194 24.1942 24.1167 24.3676 24.7911C25.443 28.9821 29.2032 29.9989 31.3113 29.9989C33.6458 29.9989 34.6717 29.2464 34.6717 29.2464V24.5372C34.6717 24.5372 33.8066 25.2219 31.5928 25.2219C30.707 25.2219 30.1268 24.9186 29.75 24.5533C29.3077 24.1259 29.0733 23.5262 29.0733 22.9116V15.2533H34.6706V15.2545Z" fill="#7A828D"/>
<path d="M53.1097 0.0516926L37.6324 5.9499C37.2211 6.10615 36.95 6.50135 36.95 6.94136V7.97533C36.95 8.1557 37.1131 8.29241 37.29 8.26025L51.7759 5.6581C53.1545 5.40994 54.1563 4.21169 54.1563 2.81124V0.772023C54.1563 0.232062 53.6152 -0.141315 53.1109 0.0516926H53.1097Z" fill="#7A828D"/>
</g>
<defs>
<clipPath id="clip0_1598_1109">
<rect width="53.5044" height="30" fill="white" transform="translate(0.651855)"/>
</clipPath>
</defs>
</svg>
