<svg width="139" height="34" viewBox="0 0 139 34" fill="none" xmlns="http://www.w3.org/2000/svg">
<g clip-path="url(#clip0_1598_1085)">
<path fill-rule="evenodd" clip-rule="evenodd" d="M0.756139 23.7916C0.325455 24.356 0.0952611 25.0466 0.102687 25.7594C0.0210051 29.3683 5.62733 33.6825 16.0826 33.987C25.1344 34.2469 33.5624 30.5935 33.5624 25.7074C33.5698 25.054 33.4139 24.408 33.102 23.8288C32.6416 22.9525 27.2878 14.8215 27.2878 14.8215C27.2878 14.8215 25.5799 12.0072 23.8349 12.3042C22.6171 12.5122 21.9117 13.6483 20.3597 16.4403C19.1493 18.6383 16.1048 24.4748 14.6643 27.1406C14.2336 27.9277 12.7113 31.0167 10.8995 30.4227C9.28072 29.8509 9.19161 27.1703 9.02825 25.3659C8.94657 24.5045 8.70895 22.1432 8.65697 21.4452C8.38222 17.4799 7.86243 16.767 6.91938 16.8042C5.54565 16.8561 2.167 21.8164 0.756139 23.7916Z" fill="#7A828D"/>
<path fill-rule="evenodd" clip-rule="evenodd" d="M15.8599 9.80178C15.8599 9.80178 20.1964 9.48248 23.3968 10.9899C23.4934 11.027 23.6048 10.9825 23.6493 10.8859C23.6716 10.8339 23.6716 10.7745 23.6419 10.7226L17.9316 0.705431C17.746 0.297024 17.3524 0.0222768 16.8994 0C16.1792 0 16.0975 1.38116 16.0975 1.38116L15.8599 9.80178Z" fill="#7A828D"/>
<path fill-rule="evenodd" clip-rule="evenodd" d="M16.8994 0C16.8994 0 16.7657 0 16.7138 0.698006C16.6692 1.32918 15.8969 12.8389 15.7113 15.5715C15.689 15.8982 15.4068 16.1507 15.0801 16.1284H15.0727C12.845 15.965 8.26343 14.9923 8.26343 12.9725C8.2857 12.6681 8.37481 12.3785 8.53817 12.1186L15.5999 0.794539C15.8672 0.326726 16.3573 0.0297024 16.8994 0Z" fill="#7A828D"/>
<path fill-rule="evenodd" clip-rule="evenodd" d="M56.5818 8.27216L47.6117 25.5664H51.577L52.7873 23.0194H60.3689L61.6089 25.5664H65.5816L56.5818 8.27216ZM58.8986 19.8412H54.3096L56.6041 15.0443L58.8986 19.8412Z" fill="#7A828D"/>
<path fill-rule="evenodd" clip-rule="evenodd" d="M95.0465 18.3116L86.5145 8.27216V25.5664H90.1382V17.7992L95.0465 23.5986L99.9771 17.7918V25.5664H103.608L103.616 8.27216L95.0465 18.3116Z" fill="#7A828D"/>
<path fill-rule="evenodd" clip-rule="evenodd" d="M138.353 8.59146H134.729V18.4675L123.538 8.27216V25.5664H127.155L127.17 16.4626L138.353 25.9896V8.59146Z" fill="#7A828D"/>
<path fill-rule="evenodd" clip-rule="evenodd" d="M113.559 8.27216L104.581 25.5664H108.546L109.749 23.0194H117.346L118.586 25.5738H122.558L113.559 8.27216ZM111.264 19.819L113.559 15.022L115.853 19.8264L111.264 19.819Z" fill="#7A828D"/>
<path fill-rule="evenodd" clip-rule="evenodd" d="M83.6556 8.27216L75.1013 18.3116L66.5544 8.27216L66.5619 25.5664H70.1856V17.7992L75.1013 23.5986L80.0245 17.7918V25.5664H83.6556V8.27216Z" fill="#7A828D"/>
</g>
<defs>
<clipPath id="clip0_1598_1085">
<rect width="138.55" height="34" fill="white" transform="translate(0.101807)"/>
</clipPath>
</defs>
</svg>
