<svg width="131" height="36" viewBox="0 0 131 36" fill="none" xmlns="http://www.w3.org/2000/svg">
<path fill-rule="evenodd" clip-rule="evenodd" d="M46.7764 24.7909L48.5936 22.6871C49.6726 23.7295 50.7752 24.5113 51.9015 25.0325C53.0278 25.5537 54.2062 25.8143 55.4366 25.8143C56.8563 25.8143 58.0157 25.5016 58.9149 24.8761C59.814 24.2507 60.2636 23.4547 60.2636 22.4881C60.2636 21.6162 59.9513 20.9387 59.3266 20.4554C58.7019 19.9721 57.6703 19.6072 56.2316 19.3609L52.9095 18.8207C51.0923 18.5175 49.7341 17.9346 48.8349 17.0723C47.9358 16.2099 47.4862 15.068 47.4862 13.6466C47.4862 11.9218 48.1582 10.5383 49.5022 9.49589C50.8462 8.45348 52.6161 7.93225 54.8119 7.93225C56.2316 7.93225 57.6419 8.16443 59.0427 8.62878C60.4435 9.09314 61.7022 9.76124 62.8191 10.6331L61.1722 12.9074C60.0932 12.0924 59.0143 11.4812 57.9353 11.0737C56.8563 10.6662 55.7679 10.4625 54.6699 10.4625C53.3827 10.4625 52.3416 10.7373 51.5466 11.2869C50.7516 11.8366 50.3541 12.5473 50.3541 13.4191C50.3541 14.2341 50.6285 14.8548 51.1775 15.2812C51.7264 15.7077 52.6351 16.0251 53.9033 16.2337L57.1118 16.7454C59.1941 17.0865 60.7321 17.7072 61.7259 18.6075C62.7197 19.5077 63.2166 20.7254 63.2166 22.2606C63.2166 23.1704 63.0271 24.0043 62.6487 24.7624C62.2701 25.5205 61.7354 26.1649 61.0445 26.6956C60.3535 27.2263 59.5159 27.6385 58.5316 27.9323C57.5472 28.2261 56.4682 28.3729 55.2946 28.3729C53.7046 28.3729 52.1713 28.0602 50.6948 27.4348C49.2183 26.8094 47.9121 25.928 46.7764 24.7909Z" fill="#7A828D"/>
<path fill-rule="evenodd" clip-rule="evenodd" d="M77.0548 26.6295L69.6508 11.6717V28.0678H66.87V7.93225H70.8418L77.0833 20.7903L83.2963 7.93225H87.2681V28.0678H84.4594V11.6429L77.0548 26.6295Z" fill="#7A828D"/>
<path fill-rule="evenodd" clip-rule="evenodd" d="M92.1393 28.0678V7.93225H99.2196C100.729 7.93225 102.129 8.18631 103.419 8.6945C104.709 9.20268 105.827 9.90266 106.773 10.7944C107.719 11.6861 108.46 12.7552 108.995 14.0017C109.529 15.2482 109.797 16.5906 109.797 18.0288C109.797 19.4671 109.529 20.7999 108.995 22.0272C108.46 23.2545 107.724 24.314 106.787 25.2057C105.851 26.0974 104.733 26.7973 103.434 27.3055C102.134 27.8137 100.729 28.0678 99.2196 28.0678H92.1393ZM99.2773 10.6362H95.1493V25.364H99.2773C100.309 25.364 101.284 25.177 102.201 24.8031C103.118 24.4291 103.907 23.9113 104.566 23.2497C105.225 22.5881 105.746 21.8115 106.128 20.9197C106.51 20.028 106.701 19.0644 106.701 18.0288C106.701 16.9933 106.51 16.0201 106.128 15.1092C105.746 14.1983 105.225 13.412 104.566 12.7505C103.907 12.0888 103.118 11.5711 102.201 11.1971C101.284 10.8232 100.309 10.6362 99.2773 10.6362Z" fill="#7A828D"/>
<path fill-rule="evenodd" clip-rule="evenodd" d="M118.628 28.0678L110.406 7.93225H113.655L120.468 25.0763L127.395 7.93225H130.5L122.163 28.0678H118.628Z" fill="#7A828D"/>
<path fill-rule="evenodd" clip-rule="evenodd" d="M37.3384 17.5677C37.3384 17.5677 36.9292 7.7517 28.9736 2.96547C17.5057 -3.93373 7.99411 3.3674 7.99411 3.3674C7.99411 3.3674 20.2965 -0.562946 30.8624 7.18542C30.8624 7.18542 16.658 -1.31292 3.54191 9.32888C3.54191 9.32888 2.28707 11.4114 2.32762 14.4195C2.32762 14.4195 13.3233 0.420138 30.66 7.72127C30.66 7.72127 11.9849 2.92153 4.82358 19.2423C4.82358 19.2423 6.08669 20.6764 8.80362 21.0508C8.80362 21.0508 13.2559 5.10892 30.66 8.25712C30.66 8.25712 17.3638 7.87485 13.5257 19.7782C13.5257 19.7782 17.1684 17.3668 20.0017 14.4195C22.0777 12.26 25.061 10.9364 28.5688 10.9364C32.0767 10.9364 35.4377 13.8228 36.6638 16.2281L37.3384 17.5677Z" fill="#7A828D"/>
<path fill-rule="evenodd" clip-rule="evenodd" d="M0.5 18.4322C0.5 18.4322 0.909172 28.2483 8.86481 33.0344C20.3327 39.9337 29.8443 32.6326 29.8443 32.6326C29.8443 32.6326 17.5418 36.5629 6.976 28.8146C6.976 28.8146 21.1804 37.3129 34.2965 26.6711C34.2965 26.6711 35.5514 24.5886 35.5107 21.5804C35.5107 21.5804 24.5151 35.5798 7.17836 28.2787C7.17836 28.2787 25.8534 33.0784 33.0148 16.7576C33.0148 16.7576 31.7517 15.3236 29.0347 14.9491C29.0347 14.9491 24.5826 30.891 7.17836 27.7428C7.17836 27.7428 20.4747 28.1251 24.3127 16.2218C24.3127 16.2218 20.6699 18.6332 17.8367 21.5804C15.7607 23.74 12.7774 25.0635 9.26953 25.0635C5.7617 25.0635 2.40072 22.1772 1.17458 19.7719L0.5 18.4322Z" fill="#7A828D"/>
</svg>
