<svg width="56" height="56" viewBox="0 0 56 56" fill="none" xmlns="http://www.w3.org/2000/svg">
<rect width="56" height="56" rx="28" fill="#F1F3F4"/>
<g clip-path="url(#clip0_1571_664)">
<path d="M24.3286 26.3564C25.3382 26.319 25.3374 24.8701 24.3286 24.833H22.6968C22.2761 24.833 21.9351 25.1741 21.9351 25.5947V30.49C21.9351 30.9107 22.2761 31.2518 22.6968 31.2518H24.3286C25.3382 31.2143 25.3374 29.7654 24.3286 29.7283H23.4585V28.8041H23.9207C24.9302 28.7666 24.9295 27.3178 23.9207 27.2807H23.4585V26.3564H24.3286ZM34.8809 27.2265C34.8809 26.5866 34.6318 25.9853 34.1797 25.5338C33.7277 25.0819 33.1267 24.8331 32.4874 24.8331H31.6716C31.2509 24.8331 30.9098 25.1741 30.9098 25.5948V30.4901C30.9473 31.4997 32.3961 31.4989 32.4333 30.4901V29.6201H32.4874C33.1265 29.6201 33.7275 29.371 34.1793 28.9192C34.6252 28.4739 34.8809 27.8569 34.8809 27.2265ZM32.4874 28.0966H32.4333V26.3564H32.4874C33.637 26.3966 33.6432 28.0521 32.4874 28.0966ZM29.9856 27.2265C29.9856 25.9045 28.9167 24.8331 27.5921 24.8331H26.7762C26.3556 24.8331 26.0145 25.1741 26.0145 25.5948V30.4901C26.052 31.4997 27.5008 31.4989 27.538 30.4901V29.8814L28.6853 31.0287C28.9826 31.3261 29.465 31.3262 29.7625 31.0287C30.06 30.7313 30.06 30.2489 29.7625 29.9515L28.9843 29.1732C30.0337 28.4191 29.9856 27.2554 29.9856 27.2265ZM27.5921 28.0966H27.538V26.3564H27.5921C28.7412 26.3964 28.7483 28.0518 27.5921 28.0966Z" fill="#4267EA"/>
<path d="M28 15.0425C20.8318 15.0425 15 20.8743 15 28.0425C15.6536 45.265 40.3491 45.2604 41 28.0423C41 20.8743 35.1682 15.0425 28 15.0425ZM28 36.2555C23.4713 36.2555 19.787 32.5712 19.787 28.0425C20.1999 17.1617 35.8018 17.1647 36.2131 28.0426C36.213 32.5712 32.5287 36.2555 28 36.2555ZM16.5234 28.0425C16.5234 26.7563 16.7361 25.5189 17.1281 24.3635L18.7406 25.0315C18.1085 26.9108 18.1085 29.1741 18.7406 31.0534L17.1281 31.7212C16.7361 30.5659 16.5234 29.3285 16.5234 28.0425ZM37.2594 25.0315L38.8719 24.3635C39.6731 26.6516 39.6731 29.4331 38.872 31.7212L37.2594 31.0534C37.8915 29.1741 37.8915 26.9107 37.2594 25.0315ZM38.2862 22.957L36.6751 23.6245C35.7405 21.7969 34.2453 20.3017 32.4177 19.3673L33.0852 17.7561C35.3355 18.8731 37.1692 20.7068 38.2862 22.957ZM31.6788 17.1706L31.0108 18.7831C29.1316 18.151 26.8683 18.151 24.9892 18.7831L24.3212 17.1706C26.6093 16.3694 29.3907 16.3694 31.6788 17.1706ZM22.9148 17.7561L23.5822 19.3673C21.7546 20.3018 20.2594 21.797 19.3249 23.6246L17.7137 22.957C18.8308 20.7068 20.6645 18.8731 22.9148 17.7561ZM17.7136 33.1276L19.3249 32.4603C20.2594 34.2879 21.7546 35.7831 23.5821 36.7175L22.9147 38.3287C20.6643 37.2117 18.8306 35.3779 17.7136 33.1276ZM24.321 38.9143L24.989 37.3018C26.8683 37.9339 29.1317 37.9339 31.011 37.3018L31.679 38.9143C29.3908 39.7156 26.6092 39.7156 24.321 38.9143ZM33.0854 38.3287L32.4179 36.7175C34.2455 35.7831 35.7407 34.2879 36.6752 32.4603L38.2865 33.1276C37.1694 35.3779 35.3357 37.2117 33.0854 38.3287Z" fill="#4267EA"/>
</g>
<defs>
<clipPath id="clip0_1571_664">
<rect width="26" height="26" fill="white" transform="translate(15 15)"/>
</clipPath>
</defs>
</svg>
