<svg width="129" height="19" viewBox="0 0 129 19" fill="none" xmlns="http://www.w3.org/2000/svg">
<path d="M20.8309 0.0558033C22.5164 0.0390806 24.2019 0.0223571 26.0515 0.194794C26.2168 6.4504 26.2179 12.5168 26.2191 18.5833C24.5335 18.6 22.848 18.6167 20.9984 18.4484C20.8343 17.0416 20.8343 15.8198 20.8343 14.7676C18.1796 16.0536 15.5676 17.3188 12.9557 18.584C10.9105 18.6006 8.86521 18.6171 6.58823 18.5024C3.7161 17.4258 1.7374 15.7686 0.648072 13.1258C0.592731 12.9916 0.24996 12.9758 0.0410156 12.9049C0.0410156 10.6266 0.0410156 8.34835 0.172708 5.89557C1.74137 3.15149 3.72661 1.18021 6.48727 0.0551004C8.53254 0.0385583 10.5778 0.0220165 12.8622 0.139032C15.6847 1.45463 18.2681 2.63668 20.8309 3.80928C20.8309 2.66478 20.8309 1.36029 20.8309 0.0558033ZM15.0646 13.1036C15.7902 12.5002 16.6038 11.975 17.2239 11.2777C18.7213 9.59382 18.7631 9.00305 17.2185 7.36553C15.6644 5.7179 13.8153 4.56181 11.4458 4.22301C9.02657 3.87711 6.44211 4.9823 5.4566 7.11945C4.44651 9.30992 5.21339 12.0054 7.2656 13.5081C9.86016 15.4079 12.3519 14.5291 15.0646 13.1036Z" fill="#7A828D"/>
<path d="M109.386 0.0554504C111.312 0.038923 113.238 0.0223966 115.406 0.140637C118.338 1.49819 121.028 2.72097 123.73 3.94896C123.73 2.7691 123.73 1.41265 123.73 0.0561985C125.078 0.0369503 126.431 -0.0517876 127.771 0.042951C128.149 0.0696094 128.488 0.634664 128.978 1.01322C129.113 1.23302 129.113 1.39237 128.973 1.74111C128.807 6.66751 128.777 11.4045 128.772 16.1415C128.772 16.3773 128.994 16.6133 129.113 16.8491C129.113 17.118 129.113 17.3869 129.113 17.7903C128.304 18.1638 127.509 18.5008 126.683 18.6148C125.824 18.7334 124.935 18.6365 123.896 18.448C123.733 16.9851 123.733 15.7079 123.733 14.6411C120.896 15.9992 118.196 17.2918 115.496 18.5845C113.57 18.601 111.644 18.6175 109.483 18.5027C105.171 17.182 102.666 13.8402 102.563 9.72747C102.438 4.76357 104.994 1.78496 109.386 0.0554504ZM109.401 5.54603C108.031 6.84268 107.227 8.40771 107.748 10.2875C108.323 12.3656 109.507 13.9095 111.849 14.3882C114.883 15.0083 119.362 12.9858 120.53 10.1498C120.785 9.5307 120.581 8.56367 120.266 7.91297C119.947 7.25451 119.255 6.75899 118.68 6.24533C116.295 4.11703 111.738 3.05633 109.401 5.54603Z" fill="#7A828D"/>
<path d="M47.3625 0.0570678C49.048 0.0403429 50.7336 0.0236179 52.5832 0.196052C52.7467 3.47869 52.7112 6.57284 52.7714 9.66513C52.7856 10.3934 52.9562 11.2221 53.3404 11.8216C54.8585 14.1903 57.019 14.9159 59.8072 14.3717C63.4642 13.6579 66.0119 10.8501 66.0111 7.19583C66.0106 4.81624 66.0079 2.43665 66.0063 0.0570643C67.6918 0.0403409 69.3773 0.0236164 71.2269 0.196053C71.3921 6.45166 71.3933 12.5181 71.3944 18.5845C69.7089 18.6013 68.0234 18.618 66.1737 18.4644C66.0096 17.6542 66.0096 17.0145 66.0096 16.3429C64.1685 17.1119 62.4047 17.8486 60.6409 18.5853C58.5955 18.6018 56.5502 18.6184 54.2706 18.504C49.5785 16.7144 47.5782 13.5335 47.3905 8.98496C47.2678 6.01367 47.3642 3.03335 47.3625 0.0570678Z" fill="#7A828D"/>
<path d="M86.7976 0.0551673C88.7235 0.0386539 90.6494 0.0221401 92.8103 0.136981C97.1808 1.47608 99.7087 4.83476 99.7122 9.12832C99.7148 12.28 99.7158 15.4317 99.7175 18.5834C98.1511 18.6001 96.5848 18.6169 94.8548 18.4444C94.6918 15.6948 94.6928 13.1344 94.6928 10.574C94.6927 5.76856 92.096 3.51813 87.4596 4.30463C83.8559 4.91593 81.0681 8.18272 81.0689 11.7953C81.0693 14.058 81.072 16.3207 81.0737 18.5834C79.3882 18.6002 77.7027 18.6169 75.8531 18.4444C75.6878 12.1888 75.6867 6.12239 75.6855 0.055953C77.3711 0.0392292 79.0566 0.0225051 80.9063 0.17891C81.0704 0.925451 81.0704 1.49886 81.0704 2.26559C83.149 1.46333 84.9733 0.759249 86.7976 0.0551673Z" fill="#7A828D"/>
<path d="M44.7031 0.0314691C44.6931 1.27065 44.5234 2.48463 44.3669 3.60382C42.7005 4.27395 40.96 4.77896 39.4175 5.639C36.9921 6.99131 35.6029 9.01386 35.8608 12.0127C36.0385 14.0794 35.8959 16.1737 35.898 18.4197C34.2142 18.6006 32.5288 18.6174 30.6793 18.445C30.514 12.1894 30.5129 6.12293 30.5117 0.0564864C32.1973 0.0397629 33.8828 0.0230391 35.7324 0.179444C35.8966 0.925983 35.8966 1.49939 35.8966 2.26612C37.9741 1.46429 39.7989 0.759997 41.6238 0.0557027C42.5969 0.0392241 43.5701 0.0227446 44.7031 0.0314691Z" fill="#7A828D"/>
</svg>
