<svg width="51" height="28" viewBox="0 0 51 28" fill="none" xmlns="http://www.w3.org/2000/svg">
<path d="M10.3886 9.28145C8.43275 9.28145 6.62492 9.94196 5.15485 11.0635V3.04517H0.53125V27.6397H5.15485V26.2178C6.62385 27.3394 8.43275 27.9999 10.3886 27.9999C15.3124 27.9999 19.3055 23.8106 19.3055 18.6402C19.3055 13.4697 15.3124 9.28145 10.3886 9.28145ZM9.94572 23.431C7.30045 23.431 5.15485 21.2854 5.15485 18.6402C5.15485 15.9949 7.30045 13.8504 9.94572 13.8504C12.591 13.8504 14.7355 15.9949 14.7355 18.6402C14.7355 21.2854 12.591 23.431 9.94572 23.431Z" fill="#7A828D"/>
<path d="M50.4696 16.0491V27.6382H45.845V16.5488C45.845 16.0213 45.6863 15.4991 45.3903 15.0616C44.8703 14.2928 43.9685 13.9035 43.0657 13.8296C42.27 13.7642 41.3725 13.9111 40.6734 14.3121C40.4397 14.4461 40.2231 14.608 40.029 14.7946C39.4049 15.3951 39.0329 16.2357 39.0329 17.1043V27.6392H34.4082V9.74102H39.0329V10.705C39.0329 10.4273 40.296 9.89328 40.5233 9.79678C41.112 9.54802 41.7382 9.39468 42.373 9.32499C46.5205 8.8682 50.4675 11.67 50.4675 16.0502L50.4696 16.0491Z" fill="#7A828D"/>
<path d="M32.2823 14.2364V9.7404H27.0582V4.87769H25.5302L22.4335 7.03722V10.1993L19.3047 12.6387V14.2364H22.4335V21.2061C22.4335 21.857 22.5043 22.5078 22.6662 23.1372C23.6699 27.0489 27.1794 27.9978 29.147 27.9978C31.3258 27.9978 32.2834 27.2955 32.2834 27.2955V22.9003C32.2834 22.9003 31.4759 23.5393 29.4097 23.5393C28.583 23.5393 28.0415 23.2563 27.6898 22.9153C27.277 22.5164 27.0582 21.9567 27.0582 21.383V14.2353H32.2823V14.2364Z" fill="#7A828D"/>
<path d="M49.4926 0.0470989L35.0471 5.5521C34.6632 5.69792 34.4102 6.06678 34.4102 6.47746V7.44249C34.4102 7.61084 34.5624 7.73844 34.7275 7.70842L48.2477 5.27974C49.5344 5.04813 50.4694 3.92976 50.4694 2.62267V0.719408C50.4694 0.215444 49.9644 -0.133041 49.4937 0.0470989H49.4926Z" fill="#7A828D"/>
</svg>
