<svg width="169" height="28" viewBox="0 0 169 28" fill="none" xmlns="http://www.w3.org/2000/svg">
<g clip-path="url(#clip0_2370_245)">
<path d="M15.1934 8.42285C14.4799 8.42285 13.7825 8.63443 13.1892 9.03082C12.596 9.42722 12.1336 9.99063 11.8605 10.6498C11.5875 11.309 11.5161 12.0343 11.6553 12.7341C11.7945 13.4339 12.138 14.0767 12.6425 14.5812C13.1471 15.0857 13.7899 15.4293 14.4896 15.5685C15.1894 15.7077 15.9148 15.6362 16.5739 15.3632C17.2331 15.0902 17.7965 14.6278 18.1929 14.0345C18.5893 13.4413 18.8009 12.7438 18.8009 12.0303C18.8009 11.0736 18.4208 10.156 17.7443 9.47946C17.0678 8.80292 16.1502 8.42285 15.1934 8.42285ZM17.1891 13.3788C17.1891 12.8495 16.9789 12.3419 16.6046 11.9676C16.2303 11.5933 15.7227 11.3831 15.1934 11.3831C14.6641 11.3831 14.1565 11.5933 13.7822 11.9676C13.408 12.3419 13.1977 12.8495 13.1977 13.3788C12.9111 12.9878 12.7516 12.5182 12.7408 12.0335C12.7408 11.7114 12.8043 11.3925 12.9275 11.0949C13.0508 10.7974 13.2314 10.527 13.4592 10.2993C13.6869 10.0715 13.9573 9.89087 14.2549 9.76762C14.5524 9.64436 14.8713 9.58093 15.1934 9.58093C15.5155 9.58093 15.8344 9.64436 16.132 9.76762C16.4295 9.89087 16.6999 10.0715 16.9277 10.2993C17.1554 10.527 17.3361 10.7974 17.4593 11.0949C17.5826 11.3925 17.646 11.7114 17.646 12.0335C17.634 12.518 17.4747 12.9872 17.1891 13.3788Z" fill="#7A828D"/>
<path d="M11.1384 22.6614C10.0015 23.3212 8.80935 23.8807 7.57536 24.3335C7.5487 23.8684 7.4936 23.4054 7.41038 22.947C5.87322 23.6192 4.2809 24.1574 2.65117 24.5556C3.04943 22.9259 3.58763 21.3336 4.25978 19.7964C3.80252 19.7122 3.34055 19.6561 2.87644 19.6282C3.32625 18.3956 3.88475 17.2053 4.54533 16.0715C2.46397 17.5025 1.05525 19.4823 0.528564 20.9957C1.03274 20.9909 1.53683 21.012 2.03882 21.0592C1.36182 22.8847 0.855187 24.7689 0.525391 26.6877C2.43982 26.3537 4.31962 25.845 6.14125 25.168C6.18839 25.67 6.20958 26.174 6.20471 26.6782C7.72448 26.1357 9.70749 24.7428 11.1384 22.6614Z" fill="#7A828D"/>
<path d="M24.9814 12.1977C23.8274 10.1186 22.3937 8.2077 20.7203 6.51839C19.0375 4.83264 17.1295 3.38799 15.0505 2.22559C13.6985 2.8754 12.4642 3.74611 11.3986 4.8019C10.4861 5.72171 9.64702 6.71147 8.8889 7.76213C6.611 7.47013 4.29725 7.84253 2.22601 8.83454C1.54253 9.9396 0.972746 11.1111 0.525391 12.331C2.41576 12.0456 4.34524 12.4609 5.95089 13.4986C5.65582 14.0982 5.39247 14.6662 5.10375 15.2785C5.60745 16.3172 6.21439 17.3026 6.91542 18.2197C6.48592 19.1633 6.18396 20.1598 6.01751 21.1831C7.04079 21.0166 8.03735 20.7147 8.98092 20.2852C9.89806 20.9862 10.8834 21.5932 11.9221 22.0969C12.5345 21.8081 13.1056 21.5448 13.702 21.2497C14.7399 22.8565 15.1552 24.787 14.8696 26.6784C16.0934 26.2442 17.2711 25.6894 18.3851 25.0222C19.378 22.9456 19.7494 20.6262 19.4543 18.3434C20.5094 17.585 21.5005 16.7413 22.4177 15.8211C23.4606 14.7582 24.3261 13.5348 24.9814 12.1977ZM15.1933 17.0648C14.1974 17.0648 13.2239 16.7695 12.3958 16.2162C11.5678 15.6629 10.9224 14.8765 10.5413 13.9565C10.1602 13.0364 10.0605 12.024 10.2548 11.0472C10.4491 10.0705 10.9286 9.17329 11.6328 8.4691C12.337 7.76491 13.2342 7.28535 14.2109 7.09106C15.1877 6.89678 16.2001 6.99649 17.1202 7.37759C18.0402 7.7587 18.8266 8.40408 19.3799 9.23212C19.9332 10.0602 20.2285 11.0337 20.2285 12.0296C20.2268 13.3645 19.6958 14.6442 18.7519 15.5881C17.8079 16.5321 16.5282 17.0631 15.1933 17.0648Z" fill="#7A828D"/>
<path d="M25.8177 1.40837C24.8912 0.481914 21.2869 0.0631047 17.7461 1.12917C17.4605 1.21483 17.194 1.33223 16.918 1.44645C20.531 3.66865 23.5683 6.7125 25.7828 10.3303C25.8653 10.0955 25.9668 9.86072 26.0334 9.62276C27.1439 5.82174 26.7156 2.30628 25.8177 1.40837Z" fill="#7A828D"/>
<path d="M103.454 22.3928C101.407 22.3928 100.36 20.9016 99.735 19.1566H99.532V26.6952H95.7246V9.15906H99.532V11.967H99.7636C100.398 10.1617 101.483 8.79419 103.454 8.79419C106.144 8.79419 107.677 11.1801 107.677 15.5999C107.677 20.0196 106.093 22.3928 103.454 22.3928ZM103.929 15.6125C103.929 13.4106 103.276 12.4144 101.769 12.4144C100.312 12.4144 99.532 13.4328 99.532 15.1525V16.1551C99.532 17.7796 100.398 18.8647 101.753 18.8647C103.254 18.8647 103.929 17.8018 103.929 15.6125Z" fill="#7A828D"/>
<path d="M56.5217 23.3882L55.3319 26.7006C55.3319 26.7006 56.6295 27.5034 59.1392 27.5034C62.7562 27.5034 65.4848 24.7049 65.4848 20.0187V9.1582H61.6584V15.5038C61.6584 17.1315 60.9128 17.9691 59.5581 17.9691C58.3492 17.9691 57.905 17.214 57.905 16.021V9.1582H54.0977V16.9316C54.0977 19.7236 55.4144 21.4909 57.6195 21.4909C59.5644 21.4909 60.7923 20.2662 61.4903 18.3181H61.76V20.6279C61.76 22.6775 60.6717 23.972 58.7522 23.972C57.9687 23.9899 57.1959 23.7877 56.5217 23.3882Z" fill="#7A828D"/>
<path d="M117.487 19.1557H117.227C116.529 21.0879 115.298 22.392 113.356 22.392C111.024 22.392 109.834 20.6564 109.834 17.8612V9.1582H113.641V16.8332C113.641 18.0262 114.086 18.7813 115.294 18.7813C116.646 18.7813 117.395 17.9437 117.395 16.316V9.1582H121.202V22.0112H117.487V19.1557Z" fill="#7A828D"/>
<path d="M127.755 11.9667H127.989C128.624 10.1614 129.709 8.79388 131.679 8.79388C134.37 8.79388 135.899 11.1798 135.899 15.5995C135.899 20.0193 134.313 22.3798 131.679 22.3798C129.633 22.3798 128.586 20.8886 127.961 19.1436H127.755V21.9991H123.947V4.04102H127.755V11.9667ZM132.155 15.6122C132.155 13.4103 131.375 12.4077 129.995 12.414C128.614 12.4204 127.755 13.4516 127.755 15.1522V16.1548C127.755 17.7412 128.624 18.8644 129.976 18.8644C131.426 18.8644 132.143 17.7253 132.143 15.6122H132.155Z" fill="#7A828D"/>
<path d="M141.915 22.0118H138.107V4.04102H141.915V22.0118Z" fill="#7A828D"/>
<path d="M144.57 22.0112V9.1582H148.378V22.0112H144.57Z" fill="#7A828D"/>
<path d="M156.628 12.3058C155.108 12.3058 154.258 13.2862 154.258 15.5579C154.258 17.7598 155.051 18.8893 156.679 18.8893C157.203 18.8893 157.71 18.7015 158.109 18.3599C158.507 18.0183 158.769 17.5454 158.849 17.0269L162.339 17.7693C161.952 20.3076 160.191 22.3921 156.691 22.3921C152.808 22.3921 150.371 20.1426 150.371 15.7482C150.371 11.3539 152.754 8.80615 156.666 8.80615C160.318 8.80615 161.888 10.7701 162.291 13.5336L158.754 14.1682C158.579 13.1688 157.932 12.2931 156.628 12.3058Z" fill="#7A828D"/>
<path d="M146.468 7.5563C147.646 7.5563 148.6 6.64576 148.6 5.52254C148.6 4.39932 147.646 3.48877 146.468 3.48877C145.291 3.48877 144.336 4.39932 144.336 5.52254C144.336 6.64576 145.291 7.5563 146.468 7.5563Z" fill="#7A828D"/>
<path d="M47.8438 5.18018C45.7403 6.76658 43.6177 9.91717 42.8276 12.3793H42.5611C41.7743 9.91717 39.6453 6.76341 37.5417 5.18018H33.7344V22.0119H37.5417V16.4246C37.5417 12.9345 37.2943 9.9838 37.2943 9.9838H37.5481C39.2075 12.0144 40.5432 15.4601 40.8954 18.6011H44.4775C44.8297 15.4601 46.1654 12.0144 47.8248 9.9838H48.0786C48.0786 9.9838 47.8311 12.9377 47.8311 16.4246V22.0119H51.6385V5.19604L47.8438 5.18018Z" fill="#7A828D"/>
<path d="M81.6387 15.8561C81.6387 11.4142 83.701 8.80615 87.667 8.80615C91.7663 8.80615 93.8889 11.4618 93.6319 16.4209H85.3826C85.5412 18.3087 86.4169 19.1305 87.9208 19.1305C89.2851 19.1305 89.8245 18.5245 90.1418 17.7471L93.3685 18.5879C92.8165 20.4916 91.2903 22.3604 87.8827 22.3604C84.0659 22.3635 81.6387 19.8697 81.6387 15.8561ZM85.4111 14.5553H89.999C89.9482 12.8769 89.2344 11.8457 87.8098 11.8457C86.3186 11.8457 85.5571 12.7785 85.4111 14.5521V14.5553Z" fill="#7A828D"/>
<path d="M79.4489 17.8621C79.1119 17.279 78.6501 16.7775 78.0967 16.3935C77.5433 16.0096 76.9118 15.7527 76.2476 15.6412V15.3619C78.6811 14.9622 79.9851 13.4075 79.9851 10.6662C79.9851 7.2935 77.9387 5.17407 73.9568 5.17407H67.957V22.0058H71.7644V16.7104H73.7569C74.4838 17.1496 75.1012 17.7485 75.5622 18.4618C76.2187 19.5339 76.5901 20.7561 76.641 22.0121H80.6768C80.6768 22.0121 80.4801 19.4929 79.4489 17.8621ZM71.7517 8.74982H73.9378C75.5559 8.74982 76.1841 9.63186 76.1841 10.9867C76.1841 12.3414 75.5115 13.3567 73.9378 13.3567H71.7517V8.74982Z" fill="#7A828D"/>
<path d="M162.922 8.81348H165.194V9.23546H164.283V11.596H163.848V9.23546H162.935L162.922 8.81348Z" fill="#7A828D"/>
<path d="M165.512 8.81348H166.054L167.025 11.0947L167.996 8.81348H168.535V11.596H168.098V9.6162L167.257 11.596H166.781L165.943 9.62889V11.596H165.512V8.81348Z" fill="#7A828D"/>
</g>
<defs>
<clipPath id="clip0_2370_245">
<rect width="168" height="27.0069" fill="white" transform="translate(0.53125 0.496582)"/>
</clipPath>
</defs>
</svg>
