<svg width="28" height="28" viewBox="0 0 28 28" fill="none" xmlns="http://www.w3.org/2000/svg">
<g clip-path="url(#clip0_2318_448)">
<path d="M19.7552 15.1151L18.0605 13.4203L22.5394 8.9414L23.1195 9.52142C23.4951 9.89701 24.1272 9.82302 24.4029 9.36342L27.8831 3.56313C27.9772 3.40627 28.0162 3.22244 27.9939 3.04087C27.9715 2.85931 27.8891 2.69043 27.7597 2.56109L25.4396 0.240983C25.3102 0.111635 25.1413 0.0292358 24.9598 0.00688157C24.7782 -0.0154726 24.5944 0.0235011 24.4375 0.117608L18.6372 3.5978C18.1795 3.87244 18.1025 4.50451 18.4792 4.8812L19.0593 5.46121L14.5803 9.94016L12.8855 8.2454C13.4821 6.01645 12.8736 3.59293 11.1864 1.90561C9.07581 -0.204883 5.91636 -0.538913 3.44553 0.792012C3.33295 0.852651 3.23611 0.93877 3.16273 1.04349C3.08935 1.14822 3.04147 1.26865 3.02291 1.39516C3.00436 1.52168 3.01563 1.65079 3.05584 1.77217C3.09605 1.89356 3.16409 2.00386 3.25451 2.09428L6.33297 5.17274C6.65283 5.4926 6.65283 6.01301 6.33297 6.33276C6.0131 6.65263 5.49275 6.65268 5.17288 6.33276L2.09443 3.25425C2.00402 3.16381 1.89372 3.09576 1.77233 3.05553C1.65094 3.01531 1.52183 3.00402 1.3953 3.02258C1.26877 3.04114 1.14834 3.08903 1.04362 3.16242C0.938894 3.23581 0.852782 3.33268 0.792159 3.44527C-0.533734 5.90686 -0.211845 9.06839 1.90587 11.186C3.58941 12.8696 6.01168 13.4832 8.24565 12.8853L8.78017 13.4197L1.20319 20.9969C-0.400571 22.6006 -0.401555 25.1927 1.20319 26.7975C2.80241 28.3966 5.40448 28.3967 7.00376 26.7975L14.5807 19.2203L15.1153 19.7549C14.5188 21.9839 15.1272 24.4074 16.8145 26.0947C18.925 28.2053 22.0845 28.5393 24.5553 27.2084C24.6679 27.1477 24.7647 27.0616 24.8381 26.9569C24.9115 26.8522 24.9594 26.7317 24.9779 26.6052C24.9965 26.4787 24.9852 26.3496 24.945 26.2282C24.9048 26.1068 24.8368 25.9965 24.7463 25.9061L21.6679 22.8277C21.348 22.5078 21.348 21.9874 21.6679 21.6676C21.9877 21.3478 22.5082 21.3478 22.828 21.6676L25.9064 24.7461C25.9968 24.8365 26.1072 24.9045 26.2285 24.9447C26.3499 24.9849 26.479 24.9962 26.6055 24.9776C26.732 24.959 26.8525 24.9112 26.9572 24.8378C27.0619 24.7644 27.148 24.6676 27.2087 24.5551C28.5346 22.0935 28.2127 18.9319 26.095 16.8143C24.4115 15.1308 21.9892 14.5172 19.7552 15.1151ZM24.7324 1.85393L26.1467 3.26825L23.5367 7.61841L20.3822 4.46404L24.7324 1.85393ZM20.2193 6.62129L21.3794 7.78132L16.9004 12.2603L15.7403 11.1002L20.2193 6.62129ZM5.84368 25.6375C4.88414 26.597 3.32281 26.597 2.36322 25.6375C1.40045 24.6747 1.39984 23.1204 2.36322 22.157L9.94014 14.5799L13.4206 18.0603L5.84368 25.6375ZM26.1914 22.711L23.988 20.5076C23.0286 19.5482 21.4674 19.5482 20.5079 20.5076C19.5484 21.467 19.5484 23.0282 20.5079 23.9878L22.7113 26.1912C21.0372 26.6483 19.2378 26.1979 17.9746 24.9348C16.6377 23.5978 16.1837 21.5823 16.8182 19.8C16.8702 19.6538 16.8797 19.4959 16.8456 19.3445C16.8115 19.1932 16.7351 19.0546 16.6254 18.9449L9.05574 11.3753C8.94603 11.2655 8.80746 11.1892 8.6561 11.1551C8.50474 11.121 8.34682 11.1305 8.20065 11.1825C6.41828 11.8169 4.40283 11.3629 3.06589 10.026C1.80273 8.76285 1.35238 6.96353 1.80945 5.28944L4.01286 7.49285C4.97229 8.45228 6.5335 8.45222 7.49305 7.49285C8.45248 6.53341 8.45248 4.9722 7.49305 4.01266L5.28964 1.80925C6.96367 1.35206 8.7631 1.80252 10.0263 3.06569C11.3632 4.40263 11.8172 6.41813 11.1827 8.20044C11.1307 8.34661 11.1212 8.50454 11.1553 8.6559C11.1894 8.80726 11.2658 8.94583 11.3755 9.05554L18.9451 16.6251C19.0548 16.7348 19.1934 16.8112 19.3447 16.8453C19.4961 16.8794 19.654 16.8699 19.8002 16.8179C21.5825 16.1835 23.598 16.6375 24.935 17.9744C26.1982 19.2376 26.6485 21.0369 26.1914 22.711Z" fill="#3276F5"/>
<path d="M10.6648 17.499C10.3444 17.1787 9.82509 17.1787 9.50473 17.499L4.49218 22.5117C4.17188 22.8321 4.17188 23.3514 4.49218 23.6718C4.8126 23.9921 5.33185 23.9921 5.65221 23.6718L10.6647 18.659C10.985 18.3387 10.985 17.8193 10.6648 17.499Z" fill="#3276F5"/>
</g>
<defs>
<clipPath id="clip0_2318_448">
<rect width="28" height="28" fill="white"/>
</clipPath>
</defs>
</svg>
