<svg width="439" height="294" viewBox="0 0 439 294" fill="none" xmlns="http://www.w3.org/2000/svg">
<rect x="99" y="10.4" width="298" height="162" rx="10" transform="rotate(-2 99 10.4)" fill="white"/>
<g filter="url(#filter0_dddd_2254_495)">
<g clip-path="url(#clip0_2254_495)">
<rect x="129.736" y="25.1506" width="298" height="162" rx="9.23077" fill="white"/>
<path d="M146.904 91.1506V80.2706H148.696V89.6946H153.96V91.1506H146.904ZM158.887 91.3586C156.407 91.3586 154.903 89.6786 154.903 86.8946C154.903 83.9986 156.455 82.3986 158.887 82.3986C161.367 82.3986 162.871 84.1106 162.871 86.8946C162.871 89.7746 161.319 91.3586 158.887 91.3586ZM158.887 89.9186C160.343 89.9186 161.127 88.8626 161.127 86.8946C161.127 84.9426 160.327 83.8386 158.887 83.8386C157.447 83.8386 156.647 84.9106 156.647 86.8946C156.647 88.8306 157.447 89.9186 158.887 89.9186ZM167.946 91.3586C165.466 91.3586 163.962 89.6786 163.962 86.8946C163.962 83.9986 165.514 82.3986 167.946 82.3986C170.426 82.3986 171.93 84.1106 171.93 86.8946C171.93 89.7746 170.378 91.3586 167.946 91.3586ZM167.946 89.9186C169.402 89.9186 170.186 88.8626 170.186 86.8946C170.186 84.9426 169.386 83.8386 167.946 83.8386C166.506 83.8386 165.706 84.9106 165.706 86.8946C165.706 88.8306 166.506 89.9186 167.946 89.9186ZM173.437 91.1506V79.6306H175.149V86.2386L178.541 82.6226H180.589L176.909 86.4146L180.813 91.1506H178.685L175.149 86.8946V91.1506H173.437ZM181.902 81.5666V79.6306H183.614V81.5666H181.902ZM181.902 91.1506V82.6226H183.614V91.1506H181.902ZM185.523 91.1506V82.6226H187.235V83.7586C187.811 82.8466 188.707 82.3986 189.811 82.3986C191.587 82.3986 192.691 83.4386 192.691 85.4546V91.1506H190.995V85.8066C190.995 84.5746 190.451 83.8226 189.283 83.8226C188.003 83.8226 187.235 84.9586 187.235 86.1426V91.1506H185.523ZM197.685 91.1986C195.509 91.1986 194.197 89.5346 194.197 86.8146C194.197 83.9666 195.541 82.3986 197.685 82.3986C198.773 82.3986 199.589 82.7826 200.133 83.5186V82.6226H201.845V91.4226C201.845 93.7586 200.293 94.8946 198.245 94.8946C196.197 94.8946 194.725 93.9346 194.421 91.9506H196.133C196.293 92.9746 197.109 93.5186 198.229 93.5186C199.365 93.5186 200.133 92.9266 200.133 91.4546V90.0146C199.557 90.7986 198.725 91.1986 197.685 91.1986ZM198.037 89.7586C199.397 89.7586 200.133 88.7186 200.133 86.7986C200.133 84.9266 199.365 83.8386 198.037 83.8386C196.677 83.8386 195.941 84.8786 195.941 86.8146C195.941 88.6866 196.693 89.7586 198.037 89.7586ZM205.786 83.9506V82.6226H206.938V82.1746C206.938 80.3186 207.722 79.4226 209.322 79.4226C209.754 79.4226 210.09 79.5026 210.266 79.5826V80.7346H210.106C208.922 80.7346 208.634 81.2146 208.634 82.1906V82.6226H210.266V83.9506H208.634V91.1506H206.938V83.9506H205.786ZM214.732 91.3586C212.252 91.3586 210.748 89.6786 210.748 86.8946C210.748 83.9986 212.3 82.3986 214.732 82.3986C217.212 82.3986 218.716 84.1106 218.716 86.8946C218.716 89.7746 217.164 91.3586 214.732 91.3586ZM214.732 89.9186C216.188 89.9186 216.972 88.8626 216.972 86.8946C216.972 84.9426 216.172 83.8386 214.732 83.8386C213.292 83.8386 212.492 84.9106 212.492 86.8946C212.492 88.8306 213.292 89.9186 214.732 89.9186ZM220.223 91.1506V82.6226H221.935V83.8866C222.495 82.8626 223.375 82.3986 224.367 82.3986C224.703 82.3986 225.023 82.4786 225.183 82.6226V84.1266C224.927 84.0466 224.623 84.0146 224.271 84.0146C222.639 84.0146 221.935 85.0066 221.935 86.4946V91.1506H220.223ZM226.044 85.3106V83.3266H228.028V85.3106H226.044ZM226.044 91.1506V89.1826H228.028V91.1506H226.044Z" fill="#565656"/>
<path d="M163.852 119.767H160.576C159.932 117.583 158.112 116.379 155.844 116.379C152.372 116.379 150.3 119.151 150.3 123.659C150.3 128.167 152.344 130.883 155.844 130.883C158.028 130.883 159.792 129.763 160.52 127.607H163.824C162.788 131.387 159.596 133.515 155.844 133.515C150.412 133.515 147.108 129.791 147.108 123.659C147.108 117.555 150.44 113.747 155.928 113.747C159.708 113.747 162.956 115.819 163.852 119.767ZM171.047 133.151V116.743H164.691V114.111H180.511V116.743H174.183V133.151H171.047ZM190.144 133.515C184.46 133.515 180.988 129.763 180.988 123.659C180.988 117.555 184.46 113.747 190.144 113.747C195.772 113.747 199.272 117.555 199.272 123.659C199.272 129.763 195.772 133.515 190.144 133.515ZM190.144 130.883C193.868 130.883 196.08 128.139 196.08 123.659C196.08 119.151 193.868 116.379 190.144 116.379C186.42 116.379 184.18 119.151 184.18 123.659C184.18 128.139 186.42 130.883 190.144 130.883ZM205.16 120.551V118.227H207.176V117.443C207.176 114.195 208.548 112.627 211.348 112.627C212.104 112.627 212.692 112.767 213 112.907V114.923H212.72C210.648 114.923 210.144 115.763 210.144 117.471V118.227H213V120.551H210.144V133.151H207.176V120.551H205.16ZM220.535 133.515C216.195 133.515 213.563 130.575 213.563 125.703C213.563 120.635 216.279 117.835 220.535 117.835C224.875 117.835 227.507 120.831 227.507 125.703C227.507 130.743 224.791 133.515 220.535 133.515ZM220.535 130.995C223.083 130.995 224.455 129.147 224.455 125.703C224.455 122.287 223.055 120.355 220.535 120.355C218.015 120.355 216.615 122.231 216.615 125.703C216.615 129.091 218.015 130.995 220.535 130.995ZM229.864 133.151V118.227H232.86V120.439C233.84 118.647 235.38 117.835 237.116 117.835C237.704 117.835 238.264 117.975 238.544 118.227V120.859C238.096 120.719 237.564 120.663 236.948 120.663C234.092 120.663 232.86 122.399 232.86 125.003V133.151H229.864ZM246.023 139.675C245.379 139.675 244.707 139.507 244.371 139.395V137.099H245.183C246.891 137.099 247.535 136.763 248.823 133.655L249.271 132.619L243.279 118.227H246.499L250.195 127.523L250.839 129.567L251.483 127.523L255.067 118.227H258.119L251.343 134.887C249.831 138.611 248.683 139.675 246.023 139.675ZM265.518 133.515C261.178 133.515 258.546 130.575 258.546 125.703C258.546 120.635 261.262 117.835 265.518 117.835C269.858 117.835 272.49 120.831 272.49 125.703C272.49 130.743 269.774 133.515 265.518 133.515ZM265.518 130.995C268.066 130.995 269.438 129.147 269.438 125.703C269.438 122.287 268.038 120.355 265.518 120.355C262.998 120.355 261.598 122.231 261.598 125.703C261.598 129.091 262.998 130.995 265.518 130.995ZM284.255 126.963V118.227H287.223V133.151H284.255V131.135C283.275 132.731 281.707 133.515 279.803 133.515C276.751 133.515 274.847 131.723 274.847 128.195V118.227H277.843V127.579C277.843 129.735 278.739 131.023 280.727 131.023C282.911 131.023 284.255 129.035 284.255 126.963ZM290.31 133.151V118.227H293.306V120.439C294.286 118.647 295.826 117.835 297.562 117.835C298.15 117.835 298.71 117.975 298.99 118.227V120.859C298.542 120.719 298.01 120.663 297.394 120.663C294.538 120.663 293.306 122.399 293.306 125.003V133.151H290.31ZM160.184 155.435H157.188C156.824 153.307 155.452 152.355 153.716 152.355C151.224 152.355 149.88 154.259 149.88 157.703C149.88 161.091 151.28 163.023 153.8 163.023C155.592 163.023 156.852 162.043 157.3 160.139H160.268C159.624 163.863 157.048 165.515 153.744 165.515C149.432 165.515 146.828 162.547 146.828 157.703C146.828 152.635 149.488 149.835 153.716 149.835C157.048 149.835 159.68 151.711 160.184 155.435ZM168.744 165.515C164.404 165.515 161.772 162.575 161.772 157.703C161.772 152.635 164.488 149.835 168.744 149.835C173.084 149.835 175.716 152.831 175.716 157.703C175.716 162.743 173 165.515 168.744 165.515ZM168.744 162.995C171.292 162.995 172.664 161.147 172.664 157.703C172.664 154.287 171.264 152.355 168.744 152.355C166.224 152.355 164.824 154.231 164.824 157.703C164.824 161.091 166.224 162.995 168.744 162.995ZM178.073 165.151V150.227H181.069V152.131C182.021 150.591 183.505 149.835 185.269 149.835C187.257 149.835 188.741 150.703 189.469 152.411C190.449 150.703 192.073 149.835 194.033 149.835C196.973 149.835 198.877 151.655 198.877 155.183V165.151H195.881V155.799C195.881 153.643 195.069 152.327 193.221 152.327C191.205 152.327 189.973 154.315 189.973 156.387V165.151H186.977V155.799C186.977 153.643 186.137 152.327 184.317 152.327C182.301 152.327 181.069 154.315 181.069 156.387V165.151H178.073ZM204.954 171.311H201.958V150.227H204.954V152.019C205.906 150.619 207.306 149.835 209.014 149.835C212.962 149.835 215.342 152.775 215.342 157.647C215.342 162.715 212.906 165.515 209.014 165.515C207.306 165.515 205.906 164.815 204.954 163.443V171.311ZM208.65 152.355C206.242 152.355 204.954 154.231 204.954 157.647C204.954 161.063 206.298 162.995 208.65 162.995C211.002 162.995 212.29 161.091 212.29 157.647C212.29 154.259 210.946 152.355 208.65 152.355ZM220.523 155.099H217.527C218.003 151.795 220.271 149.835 223.995 149.835C228.055 149.835 230.071 152.215 230.071 155.687V161.511C230.071 163.303 230.239 164.339 230.575 165.151H227.439C227.215 164.591 227.131 163.807 227.103 162.967C225.843 164.731 223.911 165.515 222.119 165.515C219.095 165.515 217.023 164.087 217.023 161.231C217.023 159.187 218.143 157.675 220.383 156.919C222.371 156.247 224.387 156.079 227.075 156.051V155.715C227.075 153.531 226.067 152.355 223.771 152.355C221.839 152.355 220.803 153.419 220.523 155.099ZM220.047 161.119C220.047 162.379 221.083 163.163 222.679 163.163C225.171 163.163 227.075 161.175 227.075 158.767V158.095C221.335 158.151 220.047 159.411 220.047 161.119ZM233.268 165.151V150.227H236.264V152.215C237.272 150.619 238.84 149.835 240.772 149.835C243.88 149.835 245.812 151.655 245.812 155.183V165.151H242.844V155.799C242.844 153.643 241.892 152.327 239.848 152.327C237.608 152.327 236.264 154.315 236.264 156.387V165.151H233.268ZM249.358 171.675C248.714 171.675 248.042 171.507 247.706 171.395V169.099H248.518C250.226 169.099 250.87 168.763 252.158 165.655L252.606 164.619L246.614 150.227H249.834L253.53 159.523L254.174 161.567L254.818 159.523L258.402 150.227H261.454L254.678 166.887C253.166 170.611 252.018 171.675 249.358 171.675Z" fill="#313131"/>
<mask id="path-6-inside-1_2254_495" fill="white">
<path d="M129.891 25.1506H427.891V59.1506H129.891V25.1506Z"/>
</mask>
<path d="M129.891 25.1506H427.891V59.1506H129.891V25.1506Z" fill="#F3F5F9"/>
<path d="M427.891 59.1506V58.1506H129.891V59.1506V60.1506H427.891V59.1506Z" fill="#E5E6EC" mask="url(#path-6-inside-1_2254_495)"/>
<g clip-path="url(#clip1_2254_495)">
<path d="M156.578 41.0256C156.578 41.1748 156.519 41.3179 156.413 41.4234C156.308 41.5289 156.165 41.5881 156.016 41.5881H153.766C153.616 41.5881 153.473 41.5289 153.368 41.4234C153.262 41.3179 153.203 41.1748 153.203 41.0256C153.203 40.8765 153.262 40.7334 153.368 40.6279C153.473 40.5224 153.616 40.4631 153.766 40.4631H156.016C156.165 40.4631 156.308 40.5224 156.413 40.6279C156.519 40.7334 156.578 40.8765 156.578 41.0256ZM162.203 38.2131V47.2131C162.203 47.5115 162.085 47.7977 161.874 48.0086C161.663 48.2196 161.376 48.3381 161.078 48.3381H148.703C148.405 48.3381 148.119 48.2196 147.908 48.0086C147.697 47.7977 147.578 47.5115 147.578 47.2131V38.2131C147.578 37.9148 147.697 37.6286 147.908 37.4176C148.119 37.2067 148.405 37.0881 148.703 37.0881H151.516V36.5256C151.516 36.0781 151.693 35.6489 152.01 35.3324C152.326 35.0159 152.756 34.8381 153.203 34.8381H156.578C157.026 34.8381 157.455 35.0159 157.771 35.3324C158.088 35.6489 158.266 36.0781 158.266 36.5256V37.0881H161.078C161.376 37.0881 161.663 37.2067 161.874 37.4176C162.085 37.6286 162.203 37.9148 162.203 38.2131ZM152.641 37.0881H157.141V36.5256C157.141 36.3765 157.081 36.2334 156.976 36.1279C156.87 36.0224 156.727 35.9631 156.578 35.9631H153.203C153.054 35.9631 152.911 36.0224 152.805 36.1279C152.7 36.2334 152.641 36.3765 152.641 36.5256V37.0881ZM161.078 41.1388V38.2131H148.703V41.1388C150.602 42.1723 152.729 42.7135 154.891 42.7131C157.052 42.7135 159.18 42.1723 161.078 41.1388Z" fill="#212121"/>
</g>
<path d="M177.155 47.3326C174.313 47.3326 172.577 45.4566 172.577 42.4046C172.577 39.3526 174.313 37.4486 177.155 37.4486C179.969 37.4486 181.719 39.3526 181.719 42.4046C181.719 45.4566 179.969 47.3326 177.155 47.3326ZM177.155 46.0166C179.017 46.0166 180.123 44.6446 180.123 42.4046C180.123 40.1506 179.017 38.7646 177.155 38.7646C175.293 38.7646 174.173 40.1506 174.173 42.4046C174.173 44.6446 175.293 46.0166 177.155 46.0166ZM184.532 50.2306H183.034V39.6886H184.532V40.5846C185.008 39.8846 185.708 39.4926 186.562 39.4926C188.536 39.4926 189.726 40.9626 189.726 43.3986C189.726 45.9326 188.508 47.3326 186.562 47.3326C185.708 47.3326 185.008 46.9826 184.532 46.2966V50.2306ZM186.38 40.7526C185.176 40.7526 184.532 41.6906 184.532 43.3986C184.532 45.1066 185.204 46.0726 186.38 46.0726C187.556 46.0726 188.2 45.1206 188.2 43.3986C188.2 41.7046 187.528 40.7526 186.38 40.7526ZM197.525 44.7146C197.119 46.4506 195.831 47.3326 194.081 47.3326C191.883 47.3326 190.539 45.8626 190.539 43.4266C190.539 40.8926 191.883 39.4926 194.011 39.4926C196.167 39.4926 197.469 40.9486 197.469 43.3426V43.7066H192.065C192.149 45.2326 192.863 46.0866 194.081 46.0866C195.033 46.0866 195.705 45.6386 195.957 44.7146H197.525ZM194.011 40.7386C192.933 40.7386 192.289 41.4246 192.107 42.6846H195.915C195.733 41.4246 195.075 40.7386 194.011 40.7386ZM198.689 47.1506V39.6886H200.187V40.6826C200.691 39.8846 201.475 39.4926 202.441 39.4926C203.995 39.4926 204.961 40.4026 204.961 42.1666V47.1506H203.477V42.4746C203.477 41.3966 203.001 40.7386 201.979 40.7386C200.859 40.7386 200.187 41.7326 200.187 42.7686V47.1506H198.689ZM213.325 47.3326C210.483 47.3326 208.747 45.4566 208.747 42.4046C208.747 39.3526 210.483 37.4486 213.325 37.4486C216.139 37.4486 217.889 39.3526 217.889 42.4046C217.889 45.4566 216.139 47.3326 213.325 47.3326ZM213.325 46.0166C215.187 46.0166 216.293 44.6446 216.293 42.4046C216.293 40.1506 215.187 38.7646 213.325 38.7646C211.463 38.7646 210.343 40.1506 210.343 42.4046C210.343 44.6446 211.463 46.0166 213.325 46.0166ZM220.703 50.2306H219.205V39.6886H220.703V40.5846C221.179 39.8846 221.879 39.4926 222.733 39.4926C224.707 39.4926 225.897 40.9626 225.897 43.3986C225.897 45.9326 224.679 47.3326 222.733 47.3326C221.879 47.3326 221.179 46.9826 220.703 46.2966V50.2306ZM222.551 40.7526C221.347 40.7526 220.703 41.6906 220.703 43.3986C220.703 45.1066 221.375 46.0726 222.551 46.0726C223.727 46.0726 224.371 45.1206 224.371 43.3986C224.371 41.7046 223.699 40.7526 222.551 40.7526ZM228.571 50.2306H227.073V39.6886H228.571V40.5846C229.047 39.8846 229.747 39.4926 230.601 39.4926C232.575 39.4926 233.765 40.9626 233.765 43.3986C233.765 45.9326 232.547 47.3326 230.601 47.3326C229.747 47.3326 229.047 46.9826 228.571 46.2966V50.2306ZM230.419 40.7526C229.215 40.7526 228.571 41.6906 228.571 43.3986C228.571 45.1066 229.243 46.0726 230.419 46.0726C231.595 46.0726 232.239 45.1206 232.239 43.3986C232.239 41.7046 231.567 40.7526 230.419 40.7526ZM238.063 47.3326C235.893 47.3326 234.577 45.8626 234.577 43.4266C234.577 40.8926 235.935 39.4926 238.063 39.4926C240.233 39.4926 241.549 40.9906 241.549 43.4266C241.549 45.9466 240.191 47.3326 238.063 47.3326ZM238.063 46.0726C239.337 46.0726 240.023 45.1486 240.023 43.4266C240.023 41.7186 239.323 40.7526 238.063 40.7526C236.803 40.7526 236.103 41.6906 236.103 43.4266C236.103 45.1206 236.803 46.0726 238.063 46.0726ZM242.728 47.1506V39.6886H244.226V40.7946C244.716 39.8986 245.486 39.4926 246.354 39.4926C246.648 39.4926 246.928 39.5626 247.068 39.6886V41.0046C246.844 40.9346 246.578 40.9066 246.27 40.9066C244.842 40.9066 244.226 41.7746 244.226 43.0766V47.1506H242.728ZM248.003 44.9246V40.8506H246.995V39.6886H248.003V37.9666H249.501V39.6886H251.111V40.8506H249.501V44.8406C249.501 45.6946 249.739 46.1006 250.789 46.1006H251.083V47.1926C250.915 47.2766 250.565 47.3326 250.145 47.3326C248.689 47.3326 248.003 46.5346 248.003 44.9246ZM256.661 44.0566V39.6886H258.145V47.1506H256.661V46.1426C256.171 46.9406 255.387 47.3326 254.435 47.3326C252.909 47.3326 251.957 46.4366 251.957 44.6726V39.6886H253.455V44.3646C253.455 45.4426 253.903 46.0866 254.897 46.0866C255.989 46.0866 256.661 45.0926 256.661 44.0566ZM259.689 47.1506V39.6886H261.187V40.6826C261.691 39.8846 262.475 39.4926 263.441 39.4926C264.995 39.4926 265.961 40.4026 265.961 42.1666V47.1506H264.477V42.4746C264.477 41.3966 264.001 40.7386 262.979 40.7386C261.859 40.7386 261.187 41.7326 261.187 42.7686V47.1506H259.689ZM267.502 38.7646V37.0706H269V38.7646H267.502ZM267.502 47.1506V39.6886H269V47.1506H267.502ZM270.727 44.9246V40.8506H269.719V39.6886H270.727V37.9666H272.225V39.6886H273.835V40.8506H272.225V44.8406C272.225 45.6946 272.463 46.1006 273.513 46.1006H273.807V47.1926C273.639 47.2766 273.289 47.3326 272.869 47.3326C271.413 47.3326 270.727 46.5346 270.727 44.9246ZM275.213 50.4126C274.891 50.4126 274.555 50.3286 274.387 50.2726V49.1246H274.793C275.647 49.1246 275.969 48.9566 276.613 47.4026L276.837 46.8846L273.841 39.6886H275.451L277.299 44.3366L277.621 45.3586L277.943 44.3366L279.735 39.6886H281.261L277.873 48.0186C277.117 49.8806 276.543 50.4126 275.213 50.4126Z" fill="#333333"/>
</g>
<rect x="129.159" y="24.5737" width="299.154" height="163.154" rx="9.80769" stroke="#E5E6EC" stroke-width="1.15385"/>
</g>
<defs>
<filter id="filter0_dddd_2254_495" x="0.582031" y="12.9968" width="438.309" height="282.308" filterUnits="userSpaceOnUse" color-interpolation-filters="sRGB">
<feFlood flood-opacity="0" result="BackgroundImageFix"/>
<feColorMatrix in="SourceAlpha" type="matrix" values="0 0 0 0 0 0 0 0 0 0 0 0 0 0 0 0 0 0 127 0" result="hardAlpha"/>
<feOffset dx="-5" dy="4"/>
<feGaussianBlur stdDeviation="7.5"/>
<feColorMatrix type="matrix" values="0 0 0 0 0 0 0 0 0 0 0 0 0 0 0 0 0 0 0.1 0"/>
<feBlend mode="normal" in2="BackgroundImageFix" result="effect1_dropShadow_2254_495"/>
<feColorMatrix in="SourceAlpha" type="matrix" values="0 0 0 0 0 0 0 0 0 0 0 0 0 0 0 0 0 0 127 0" result="hardAlpha"/>
<feOffset dx="-21" dy="16"/>
<feGaussianBlur stdDeviation="13.5"/>
<feColorMatrix type="matrix" values="0 0 0 0 0 0 0 0 0 0 0 0 0 0 0 0 0 0 0.09 0"/>
<feBlend mode="normal" in2="effect1_dropShadow_2254_495" result="effect2_dropShadow_2254_495"/>
<feColorMatrix in="SourceAlpha" type="matrix" values="0 0 0 0 0 0 0 0 0 0 0 0 0 0 0 0 0 0 127 0" result="hardAlpha"/>
<feOffset dx="-48" dy="36"/>
<feGaussianBlur stdDeviation="18"/>
<feColorMatrix type="matrix" values="0 0 0 0 0 0 0 0 0 0 0 0 0 0 0 0 0 0 0.05 0"/>
<feBlend mode="normal" in2="effect2_dropShadow_2254_495" result="effect3_dropShadow_2254_495"/>
<feColorMatrix in="SourceAlpha" type="matrix" values="0 0 0 0 0 0 0 0 0 0 0 0 0 0 0 0 0 0 127 0" result="hardAlpha"/>
<feOffset dx="-85" dy="64"/>
<feGaussianBlur stdDeviation="21.5"/>
<feColorMatrix type="matrix" values="0 0 0 0 0 0 0 0 0 0 0 0 0 0 0 0 0 0 0.01 0"/>
<feBlend mode="normal" in2="effect3_dropShadow_2254_495" result="effect4_dropShadow_2254_495"/>
<feBlend mode="normal" in="SourceGraphic" in2="effect4_dropShadow_2254_495" result="shape"/>
</filter>
<clipPath id="clip0_2254_495">
<rect x="129.736" y="25.1506" width="298" height="162" rx="9.23077" fill="white"/>
</clipPath>
<clipPath id="clip1_2254_495">
<rect width="18" height="18" fill="white" transform="translate(145.891 33.1506)"/>
</clipPath>
</defs>
</svg>
