<svg width="28" height="28" viewBox="0 0 28 28" fill="none" xmlns="http://www.w3.org/2000/svg">
<path d="M23.8984 14.6645H21.1576C20.7846 14.6645 20.4234 14.7155 20.0797 14.8092C19.4017 13.4763 18.0175 12.5605 16.4224 12.5605H11.5776C9.98255 12.5605 8.5983 13.4763 7.92028 14.8092C7.56903 14.7132 7.20653 14.6645 6.84239 14.6645H4.10156C1.83996 14.6645 0 16.5044 0 18.766V23.1475C0 24.5045 1.10398 25.6084 2.46094 25.6084H25.5391C26.896 25.6084 28 24.5045 28 23.1475V18.766C28 16.5044 26.16 14.6645 23.8984 14.6645ZM7.47605 16.6622V23.9679H2.46094C2.00862 23.9679 1.64062 23.5999 1.64062 23.1476V18.7661C1.64062 17.4091 2.7446 16.3052 4.10156 16.3052H6.84239C7.06508 16.3052 7.28071 16.3354 7.48601 16.3911C7.47972 16.4814 7.4764 16.5718 7.47605 16.6622ZM18.8833 23.9679H9.11668V16.6622C9.11668 15.3052 10.2207 14.2012 11.5776 14.2012H16.4224C17.7793 14.2012 18.8833 15.3052 18.8833 16.6622V23.9679ZM26.3594 23.1476C26.3594 23.5999 25.9914 23.9679 25.5391 23.9679H20.5239V16.6622C20.5236 16.5717 20.5203 16.4813 20.514 16.3911C20.7238 16.3341 20.9402 16.3051 21.1576 16.3051H23.8984C25.2554 16.3051 26.3594 17.4091 26.3594 18.766V23.1476Z" fill="#3276F5"/>
<path d="M5.47283 6.91811C3.46312 6.91811 1.82813 8.55311 1.82813 10.5628C1.82807 12.5725 3.46312 14.2075 5.47283 14.2075C7.48248 14.2075 9.11753 12.5725 9.11753 10.5628C9.11753 8.55311 7.48254 6.91811 5.47283 6.91811ZM5.47277 12.5669C4.3677 12.5669 3.4687 11.6679 3.4687 10.5628C3.4687 9.45775 4.3677 8.55874 5.47277 8.55874C6.57784 8.55874 7.47685 9.45775 7.47685 10.5628C7.47685 11.6679 6.57784 12.5669 5.47277 12.5669ZM14.0008 2.39136C11.3159 2.39136 9.13153 4.57569 9.13153 7.26062C9.13153 9.94556 11.3159 12.1299 14.0008 12.1299C16.6857 12.1299 18.8701 9.94556 18.8701 7.26062C18.8701 4.57574 16.6857 2.39136 14.0008 2.39136ZM14.0008 10.4893C12.2205 10.4893 10.7722 9.04092 10.7722 7.26062C10.7722 5.48038 12.2205 4.03198 14.0008 4.03198C15.7811 4.03198 17.2294 5.48033 17.2294 7.26062C17.2294 9.04092 15.7811 10.4893 14.0008 10.4893ZM22.5288 6.91811C20.5191 6.91811 18.8841 8.55311 18.8841 10.5628C18.8841 12.5725 20.5191 14.2075 22.5288 14.2075C24.5385 14.2075 26.1735 12.5725 26.1735 10.5628C26.1735 8.55311 24.5385 6.91811 22.5288 6.91811ZM22.5288 12.5669C21.4238 12.5669 20.5247 11.6679 20.5247 10.5628C20.5247 9.45775 21.4238 8.55874 22.5288 8.55874C23.6338 8.55874 24.5328 9.45775 24.5328 10.5628C24.5328 11.6679 23.6338 12.5669 22.5288 12.5669Z" fill="#3276F5"/>
</svg>
