<svg width="301" height="154" viewBox="0 0 301 154" fill="none" xmlns="http://www.w3.org/2000/svg">
<rect x="1.42308" y="1.42308" width="298.846" height="151.154" rx="9.80769" fill="white"/>
<rect x="1.42308" y="1.42308" width="298.846" height="151.154" rx="9.80769" stroke="#E5E6EC" stroke-width="1.15385"/>
<path d="M27.7903 25.0216H25.6303C25.2057 23.5816 24.0057 22.7877 22.5103 22.7877C20.2211 22.7877 18.8549 24.6154 18.8549 27.5877C18.8549 30.56 20.2026 32.3508 22.5103 32.3508C23.9503 32.3508 25.1134 31.6123 25.5934 30.1908H27.7719C27.0888 32.6831 24.9842 34.0862 22.5103 34.0862C18.9288 34.0862 16.7503 31.6308 16.7503 27.5877C16.7503 23.5631 18.9472 21.0523 22.5657 21.0523C25.058 21.0523 27.1995 22.4185 27.7903 25.0216ZM33.6343 34.0862C30.7727 34.0862 29.0373 32.1477 29.0373 28.9354C29.0373 25.5939 30.8281 23.7477 33.6343 23.7477C36.4958 23.7477 38.2312 25.7231 38.2312 28.9354C38.2312 32.2585 36.4404 34.0862 33.6343 34.0862ZM33.6343 32.4247C35.3143 32.4247 36.2189 31.2062 36.2189 28.9354C36.2189 26.6831 35.2958 25.4093 33.6343 25.4093C31.9727 25.4093 31.0496 26.6462 31.0496 28.9354C31.0496 31.1693 31.9727 32.4247 33.6343 32.4247ZM39.9697 33.8462V24.0062H41.9451V25.317C42.6097 24.2647 43.6436 23.7477 44.9174 23.7477C46.9667 23.7477 48.2405 24.9477 48.2405 27.2739V33.8462H46.2836V27.68C46.2836 26.2585 45.6559 25.3908 44.3082 25.3908C42.8313 25.3908 41.9451 26.7016 41.9451 28.0677V33.8462H39.9697ZM50.7167 30.9108V25.5385H49.3874V24.0062H50.7167V21.7354H52.692V24.0062H54.8151V25.5385H52.692V30.8C52.692 31.9262 53.0059 32.4616 54.3905 32.4616H54.7782V33.9016C54.5567 34.0123 54.0951 34.0862 53.5413 34.0862C51.6213 34.0862 50.7167 33.0339 50.7167 30.9108ZM56.1149 33.8462V24.0062H58.0903V25.4647C58.7365 24.2831 59.7519 23.7477 60.8965 23.7477C61.2842 23.7477 61.6534 23.84 61.838 24.0062V25.7416C61.5426 25.6493 61.1919 25.6123 60.7857 25.6123C58.9026 25.6123 58.0903 26.757 58.0903 28.4739V33.8462H56.1149ZM64.718 27.2185H62.7426C63.0565 25.04 64.5519 23.7477 67.0072 23.7477C69.6842 23.7477 71.0134 25.317 71.0134 27.6062V31.4462C71.0134 32.6277 71.1242 33.3108 71.3457 33.8462H69.278C69.1303 33.477 69.0749 32.96 69.0565 32.4062C68.2257 33.5693 66.9519 34.0862 65.7703 34.0862C63.7765 34.0862 62.4103 33.1447 62.4103 31.2616C62.4103 29.9139 63.1488 28.917 64.6257 28.4185C65.9365 27.9754 67.2657 27.8647 69.038 27.8462V27.6247C69.038 26.1847 68.3734 25.4093 66.8596 25.4093C65.5857 25.4093 64.9026 26.1108 64.718 27.2185ZM64.4042 31.1877C64.4042 32.0185 65.0872 32.5354 66.1396 32.5354C67.7826 32.5354 69.038 31.2247 69.038 29.637V29.1939C65.2534 29.2308 64.4042 30.0616 64.4042 31.1877ZM81.632 27.44H79.6566C79.4166 26.037 78.512 25.4093 77.3673 25.4093C75.7243 25.4093 74.8381 26.6647 74.8381 28.9354C74.8381 31.1693 75.7612 32.4431 77.4227 32.4431C78.6043 32.4431 79.435 31.797 79.7304 30.5416H81.6873C81.2627 32.997 79.5643 34.0862 77.3858 34.0862C74.5427 34.0862 72.8258 32.1293 72.8258 28.9354C72.8258 25.5939 74.5796 23.7477 77.3673 23.7477C79.5643 23.7477 81.2996 24.9847 81.632 27.44ZM83.602 30.9108V25.5385H82.2728V24.0062H83.602V21.7354H85.5774V24.0062H87.7005V25.5385H85.5774V30.8C85.5774 31.9262 85.8912 32.4616 87.2758 32.4616H87.6635V33.9016C87.442 34.0123 86.9805 34.0862 86.4266 34.0862C84.5066 34.0862 83.602 33.0339 83.602 30.9108ZM92.5871 33.8462V21.2923H101.246V22.9539H94.6548V26.5354H100.544V28.1785H94.6548V32.1847H101.246V33.8462H92.5871ZM103.036 33.8462V24.0062H105.011V25.2616C105.639 24.2462 106.618 23.7477 107.781 23.7477C109.091 23.7477 110.07 24.32 110.55 25.4462C111.196 24.32 112.267 23.7477 113.559 23.7477C115.498 23.7477 116.753 24.9477 116.753 27.2739V33.8462H114.778V27.68C114.778 26.2585 114.242 25.3908 113.024 25.3908C111.695 25.3908 110.882 26.7016 110.882 28.0677V33.8462H108.907V27.68C108.907 26.2585 108.353 25.3908 107.153 25.3908C105.824 25.3908 105.011 26.7016 105.011 28.0677V33.8462H103.036ZM120.945 37.9077H118.969V24.0062H120.945V25.1877C121.572 24.2647 122.495 23.7477 123.622 23.7477C126.225 23.7477 127.794 25.6862 127.794 28.8985C127.794 32.24 126.188 34.0862 123.622 34.0862C122.495 34.0862 121.572 33.6247 120.945 32.72V37.9077ZM123.382 25.4093C121.794 25.4093 120.945 26.6462 120.945 28.8985C120.945 31.1508 121.831 32.4247 123.382 32.4247C124.932 32.4247 125.782 31.1693 125.782 28.8985C125.782 26.6647 124.895 25.4093 123.382 25.4093ZM129.53 33.8462V20.5539H131.505V33.8462H129.53ZM137.825 34.0862C134.964 34.0862 133.228 32.1477 133.228 28.9354C133.228 25.5939 135.019 23.7477 137.825 23.7477C140.687 23.7477 142.422 25.7231 142.422 28.9354C142.422 32.2585 140.631 34.0862 137.825 34.0862ZM137.825 32.4247C139.505 32.4247 140.41 31.2062 140.41 28.9354C140.41 26.6831 139.487 25.4093 137.825 25.4093C136.164 25.4093 135.241 26.6462 135.241 28.9354C135.241 31.1693 136.164 32.4247 137.825 32.4247ZM144.52 38.1477C144.095 38.1477 143.652 38.037 143.43 37.9631V36.4493H143.966C145.092 36.4493 145.517 36.2277 146.366 34.1785L146.661 33.4954L142.71 24.0062H144.833L147.27 30.1354L147.695 31.4831L148.12 30.1354L150.483 24.0062H152.495L148.027 34.9908C147.03 37.4462 146.273 38.1477 144.52 38.1477ZM162.173 30.6339C161.638 32.9231 159.94 34.0862 157.632 34.0862C154.733 34.0862 152.961 32.1477 152.961 28.9354C152.961 25.5939 154.733 23.7477 157.54 23.7477C160.383 23.7477 162.1 25.6677 162.1 28.8247V29.3047H154.973C155.084 31.317 156.026 32.4431 157.632 32.4431C158.887 32.4431 159.773 31.8523 160.106 30.6339H162.173ZM157.54 25.3908C156.118 25.3908 155.269 26.2954 155.029 27.957H160.05C159.81 26.2954 158.943 25.3908 157.54 25.3908ZM172.626 30.6339C172.09 32.9231 170.392 34.0862 168.084 34.0862C165.186 34.0862 163.414 32.1477 163.414 28.9354C163.414 25.5939 165.186 23.7477 167.992 23.7477C170.835 23.7477 172.552 25.6677 172.552 28.8247V29.3047H165.426C165.537 31.317 166.478 32.4431 168.084 32.4431C169.34 32.4431 170.226 31.8523 170.558 30.6339H172.626ZM167.992 25.3908C166.57 25.3908 165.721 26.2954 165.481 27.957H170.503C170.263 26.2954 169.395 25.3908 167.992 25.3908ZM175.915 26.5908C175.915 29.1016 182.211 26.997 182.211 31.0031C182.211 32.8677 180.531 34.0862 178.149 34.0862C175.767 34.0862 174.087 32.9785 173.718 30.6339H175.694C175.897 31.8708 176.82 32.5539 178.204 32.5539C179.534 32.5539 180.235 31.9631 180.235 31.1323C180.235 28.677 174.032 30.7447 174.032 26.7016C174.032 25.1693 175.232 23.7477 177.724 23.7477C179.921 23.7477 181.546 24.7631 181.86 27.2185H179.884C179.663 25.8339 178.887 25.317 177.632 25.317C176.543 25.317 175.915 25.8523 175.915 26.5908Z" fill="#313131"/>
<path d="M29.5257 71.4615H26.2557V67.1415H17.0757V64.2615L26.5857 52.1715H29.5257V64.6215H32.1957V67.1415H29.5257V71.4615ZM19.8657 64.6215H26.2557V56.2215L19.8657 64.6215ZM36.7009 71.4615V68.9715H40.3609V56.3115H36.7009V53.8515H38.6509C40.4209 53.8515 40.9009 53.4315 40.9009 52.5015V52.1715H43.7209V68.9715H47.3509V71.4615H36.7009ZM51.526 71.4615V70.6215C51.526 61.9815 61.996 62.5815 61.996 57.6915C61.996 55.6815 60.796 54.4815 58.636 54.4815C56.266 54.4815 55.096 55.7115 54.736 57.7515H51.466C51.976 54.0615 54.526 51.7815 58.666 51.7815C63.016 51.7815 65.236 54.3615 65.236 57.6615C65.236 63.6915 56.146 63.9015 54.826 68.9715H65.386V71.4615H51.526Z" fill="#313131"/>
<g filter="url(#filter0_i_2217_1763)">
<rect x="15.8457" y="92.3077" width="270" height="45" rx="6.92308" fill="#F7F8FA" fill-opacity="0.35"/>
<rect x="16.4226" y="92.8847" width="268.846" height="43.8462" rx="6.34615" stroke="#E5E6EC" stroke-width="1.15385"/>
<g clip-path="url(#clip0_2217_1763)">
<mask id="mask0_2217_1763" style="mask-type:luminance" maskUnits="userSpaceOnUse" x="29" y="105" width="20" height="20">
<path d="M29.6914 105.615H48.1529V124.077H29.6914V105.615Z" fill="white"/>
</mask>
<g mask="url(#mask0_2217_1763)">
<path fill-rule="evenodd" clip-rule="evenodd" d="M47.9279 109.687C48.0721 109.831 48.1531 110.027 48.1531 110.231C48.1531 110.435 48.0721 110.63 47.9279 110.775L40.6202 118.082C40.4759 118.227 40.2803 118.308 40.0763 118.308C39.8724 118.308 39.6767 118.227 39.5325 118.082L36.2302 114.78L31.0048 120.005C30.8597 120.146 30.6654 120.223 30.4637 120.221C30.262 120.22 30.0691 120.139 29.9265 119.996C29.7839 119.853 29.703 119.661 29.7012 119.459C29.6994 119.257 29.777 119.063 29.9171 118.918L35.6863 113.149C35.8306 113.004 36.0262 112.923 36.2302 112.923C36.4342 112.923 36.6298 113.004 36.774 113.149L40.0763 116.451L46.8402 109.687C46.9844 109.543 47.1801 109.462 47.384 109.462C47.588 109.462 47.7836 109.543 47.9279 109.687Z" fill="#3276F5"/>
<path fill-rule="evenodd" clip-rule="evenodd" d="M42 110.231C42 110.027 42.081 109.831 42.2253 109.687C42.3696 109.543 42.5652 109.462 42.7692 109.462H47.3846C47.5886 109.462 47.7843 109.543 47.9285 109.687C48.0728 109.831 48.1538 110.027 48.1538 110.231V114.846C48.1538 115.05 48.0728 115.246 47.9285 115.39C47.7843 115.534 47.5886 115.616 47.3846 115.616C47.1806 115.616 46.9849 115.534 46.8407 115.39C46.6964 115.246 46.6154 115.05 46.6154 114.846V111H42.7692C42.5652 111 42.3696 110.919 42.2253 110.775C42.081 110.631 42 110.435 42 110.231Z" fill="#3276F5"/>
</g>
</g>
<path d="M62.4423 120.846H60.6816V118.52H55.7385V116.969L60.8592 110.459H62.4423V117.163H63.88V118.52H62.4423V120.846ZM57.2408 117.163H60.6816V112.64L57.2408 117.163ZM65.4497 120.846V118.859H67.4528V120.846H65.4497ZM77.1989 117.922C77.1989 119.683 75.8419 121.056 73.225 121.056C70.8989 121.056 69.3966 119.828 69.1058 117.793H70.8666C71.0442 118.908 71.7873 119.602 73.2089 119.602C74.6627 119.602 75.4381 118.956 75.4381 117.842C75.4381 117.018 74.9858 116.162 72.7727 116.162H72.2719V114.837H72.6758C74.7919 114.837 75.1473 113.965 75.1473 113.286C75.1473 112.301 74.485 111.703 73.2412 111.703C71.9327 111.703 71.2542 112.365 71.0604 113.464H69.3319C69.6066 111.477 71.0119 110.249 73.2573 110.249C75.6481 110.249 76.9081 111.558 76.9081 113.27C76.9081 114.239 76.5042 114.966 75.5027 115.402C76.7304 115.919 77.1989 116.824 77.1989 117.922ZM80.7716 116.113C79.1886 116.113 78.2516 115.047 78.2516 113.189C78.2516 111.315 79.2047 110.249 80.7716 110.249C82.3547 110.249 83.2916 111.348 83.2916 113.189C83.2916 115.047 82.3547 116.113 80.7716 116.113ZM79.9801 120.846L87.2493 110.459H88.8647L81.6116 120.846H79.9801ZM80.7716 114.95C81.4824 114.95 81.8701 114.336 81.8701 113.189C81.8701 112.058 81.4824 111.428 80.7716 111.428C80.0609 111.428 79.6893 112.042 79.6893 113.189C79.6893 114.32 80.077 114.95 80.7716 114.95ZM88.057 120.992C86.4739 120.992 85.537 119.909 85.537 118.068C85.537 116.194 86.4901 115.112 88.057 115.112C89.6401 115.112 90.577 116.21 90.577 118.068C90.577 119.925 89.6563 120.992 88.057 120.992ZM88.057 119.828C88.7678 119.828 89.1555 119.215 89.1555 118.068C89.1555 116.921 88.7678 116.291 88.057 116.291C87.3624 116.291 86.9747 116.921 86.9747 118.068C86.9747 119.198 87.3624 119.828 88.057 119.828Z" fill="#3276F5"/>
<path d="M99.095 119.846V109.646H100.775V118.481H105.71V119.846H99.095ZM108.799 114.461H107.194C107.449 112.691 108.664 111.641 110.659 111.641C112.834 111.641 113.914 112.916 113.914 114.776V117.896C113.914 118.856 114.004 119.411 114.184 119.846H112.504C112.384 119.546 112.339 119.126 112.324 118.676C111.649 119.621 110.614 120.041 109.654 120.041C108.034 120.041 106.924 119.276 106.924 117.746C106.924 116.651 107.524 115.841 108.724 115.436C109.789 115.076 110.869 114.986 112.309 114.971V114.791C112.309 113.621 111.769 112.991 110.539 112.991C109.504 112.991 108.949 113.561 108.799 114.461ZM108.544 117.686C108.544 118.361 109.099 118.781 109.954 118.781C111.289 118.781 112.309 117.716 112.309 116.426V116.066C109.234 116.096 108.544 116.771 108.544 117.686ZM117.352 113.951C117.352 115.991 122.467 114.281 122.467 117.536C122.467 119.051 121.102 120.041 119.167 120.041C117.232 120.041 115.867 119.141 115.567 117.236H117.172C117.337 118.241 118.087 118.796 119.212 118.796C120.292 118.796 120.862 118.316 120.862 117.641C120.862 115.646 115.822 117.326 115.822 114.041C115.822 112.796 116.797 111.641 118.822 111.641C120.607 111.641 121.927 112.466 122.182 114.461H120.577C120.397 113.336 119.767 112.916 118.747 112.916C117.862 112.916 117.352 113.351 117.352 113.951ZM124.288 117.461V113.096H123.208V111.851H124.288V110.006H125.893V111.851H127.618V113.096H125.893V117.371C125.893 118.286 126.148 118.721 127.273 118.721H127.588V119.891C127.408 119.981 127.033 120.041 126.583 120.041C125.023 120.041 124.288 119.186 124.288 117.461ZM132.639 123.341C132.294 123.341 131.934 123.251 131.754 123.191V121.961H132.189C133.104 121.961 133.449 121.781 134.139 120.116L134.379 119.561L131.169 111.851H132.894L134.874 116.831L135.219 117.926L135.564 116.831L137.484 111.851H139.119L135.489 120.776C134.679 122.771 134.064 123.341 132.639 123.341ZM147.283 117.236C146.848 119.096 145.468 120.041 143.593 120.041C141.238 120.041 139.798 118.466 139.798 115.856C139.798 113.141 141.238 111.641 143.518 111.641C145.828 111.641 147.223 113.201 147.223 115.766V116.156H141.433C141.523 117.791 142.288 118.706 143.593 118.706C144.613 118.706 145.333 118.226 145.603 117.236H147.283ZM143.518 112.976C142.363 112.976 141.673 113.711 141.478 115.061H145.558C145.363 113.711 144.658 112.976 143.518 112.976ZM150.495 114.461H148.89C149.145 112.691 150.36 111.641 152.355 111.641C154.53 111.641 155.61 112.916 155.61 114.776V117.896C155.61 118.856 155.7 119.411 155.88 119.846H154.2C154.08 119.546 154.035 119.126 154.02 118.676C153.345 119.621 152.31 120.041 151.35 120.041C149.73 120.041 148.62 119.276 148.62 117.746C148.62 116.651 149.22 115.841 150.42 115.436C151.485 115.076 152.565 114.986 154.005 114.971V114.791C154.005 113.621 153.465 112.991 152.235 112.991C151.2 112.991 150.645 113.561 150.495 114.461ZM150.24 117.686C150.24 118.361 150.795 118.781 151.65 118.781C152.985 118.781 154.005 117.716 154.005 116.426V116.066C150.93 116.096 150.24 116.771 150.24 117.686ZM157.773 119.846V111.851H159.378V113.036C159.903 112.076 160.728 111.641 161.658 111.641C161.973 111.641 162.273 111.716 162.423 111.851V113.261C162.183 113.186 161.898 113.156 161.568 113.156C160.038 113.156 159.378 114.086 159.378 115.481V119.846H157.773Z" fill="#6E7180"/>
<path d="M259.02 109.654C259.02 109.654 264.212 113.478 264.212 114.846C264.212 116.214 259.02 120.038 259.02 120.038" stroke="#313131" stroke-width="1.29808" stroke-linecap="round" stroke-linejoin="round"/>
</g>
<defs>
<filter id="filter0_i_2217_1763" x="15.8457" y="92.3077" width="270" height="49.6154" filterUnits="userSpaceOnUse" color-interpolation-filters="sRGB">
<feFlood flood-opacity="0" result="BackgroundImageFix"/>
<feBlend mode="normal" in="SourceGraphic" in2="BackgroundImageFix" result="shape"/>
<feColorMatrix in="SourceAlpha" type="matrix" values="0 0 0 0 0 0 0 0 0 0 0 0 0 0 0 0 0 0 127 0" result="hardAlpha"/>
<feOffset dy="4.61538"/>
<feGaussianBlur stdDeviation="13.8462"/>
<feComposite in2="hardAlpha" operator="arithmetic" k2="-1" k3="1"/>
<feColorMatrix type="matrix" values="0 0 0 0 0 0 0 0 0 0 0 0 0 0 0 0 0 0 0.01 0"/>
<feBlend mode="normal" in2="shape" result="effect1_innerShadow_2217_1763"/>
</filter>
<clipPath id="clip0_2217_1763">
<rect width="18.4615" height="18.4615" fill="white" transform="translate(29.6914 105.615)"/>
</clipPath>
</defs>
</svg>
