<svg width="55" height="30" viewBox="0 0 55 30" fill="none" xmlns="http://www.w3.org/2000/svg">
<path d="M11.0839 9.94564C8.98836 9.94564 7.05139 10.6533 5.47632 11.855V3.26392H0.522461V29.6152H5.47632V28.0918C7.05024 29.2935 8.98836 30.0012 11.0839 30.0012C16.3594 30.0012 20.6377 25.5126 20.6377 19.9728C20.6377 14.4331 16.3594 9.94564 11.0839 9.94564ZM10.6094 25.1059C7.77517 25.1059 5.47632 22.8071 5.47632 19.9728C5.47632 17.1386 7.77517 14.8409 10.6094 14.8409C13.4436 14.8409 15.7413 17.1386 15.7413 19.9728C15.7413 22.8071 13.4436 25.1059 10.6094 25.1059Z" fill="#9597B3"/>
<path d="M54.027 17.1972V29.614H49.072V17.7326C49.072 17.1674 48.902 16.6079 48.5849 16.1391C48.0277 15.3154 47.0615 14.8984 46.0942 14.8191C45.2418 14.749 44.2802 14.9064 43.5311 15.3361C43.2807 15.4797 43.0486 15.6532 42.8406 15.8531C42.172 16.4964 41.7734 17.3971 41.7734 18.3277V29.6152H36.8184V10.4385H41.7734V11.4713C41.7734 11.1738 43.1267 10.6017 43.3703 10.4983C44.001 10.2317 44.6719 10.0674 45.352 9.99276C49.7958 9.50335 54.0247 12.5053 54.0247 17.1984L54.027 17.1972Z" fill="#9597B3"/>
<path d="M34.5413 15.2545V10.4373H28.9441V5.22729H27.307L23.9891 7.54109V10.9291L20.6367 13.5427V15.2545H23.9891V22.722C23.9891 23.4194 24.0649 24.1167 24.2384 24.7911C25.3137 28.9821 29.0739 29.9989 31.182 29.9989C33.5165 29.9989 34.5424 29.2464 34.5424 29.2464V24.5372C34.5424 24.5372 33.6774 25.2219 31.4635 25.2219C30.5777 25.2219 29.9976 24.9186 29.6207 24.5533C29.1784 24.1259 28.9441 23.5262 28.9441 22.9116V15.2533H34.5413V15.2545Z" fill="#9597B3"/>
<path d="M52.9801 0.0516926L37.5027 5.9499C37.0914 6.10615 36.8203 6.50135 36.8203 6.94136V7.97533C36.8203 8.1557 36.9834 8.29241 37.1604 8.26025L51.6463 5.6581C53.0249 5.40994 54.0267 4.21169 54.0267 2.81124V0.772023C54.0267 0.232062 53.4856 -0.141315 52.9812 0.0516926H52.9801Z" fill="#9597B3"/>
</svg>
