<svg width="181" height="30" viewBox="0 0 181 30" fill="none" xmlns="http://www.w3.org/2000/svg">
<g clip-path="url(#clip0_2006_725)">
<path d="M15.7363 9.0238C14.9718 9.0238 14.2245 9.25049 13.5889 9.6752C12.9533 10.0999 12.4579 10.7036 12.1653 11.4098C11.8728 12.1161 11.7962 12.8932 11.9454 13.643C12.0945 14.3928 12.4626 15.0815 13.0032 15.622C13.5437 16.1626 14.2324 16.5307 14.9822 16.6798C15.732 16.829 16.5091 16.7524 17.2154 16.4599C17.9216 16.1674 18.5253 15.6719 18.95 15.0363C19.3747 14.4007 19.6014 13.6534 19.6014 12.889C19.6014 11.8639 19.1942 10.8807 18.4693 10.1559C17.7445 9.43102 16.7614 9.0238 15.7363 9.0238ZM17.8745 14.3337C17.8745 13.7666 17.6492 13.2227 17.2482 12.8218C16.8472 12.4208 16.3034 12.1955 15.7363 12.1955C15.1692 12.1955 14.6253 12.4208 14.2243 12.8218C13.8233 13.2227 13.598 13.7666 13.598 14.3337C13.2909 13.9148 13.12 13.4116 13.1085 12.8924C13.1085 12.5473 13.1765 12.2056 13.3085 11.8868C13.4406 11.5679 13.6341 11.2783 13.8781 11.0343C14.1222 10.7902 14.4118 10.5967 14.7307 10.4646C15.0495 10.3326 15.3912 10.2646 15.7363 10.2646C16.0813 10.2646 16.423 10.3326 16.7419 10.4646C17.0607 10.5967 17.3504 10.7902 17.5944 11.0343C17.8384 11.2783 18.0319 11.5679 18.164 11.8868C18.296 12.2056 18.364 12.5473 18.364 12.8924C18.3512 13.4114 18.1804 13.9142 17.8745 14.3337Z" fill="#9597B3"/>
<path d="M11.3916 24.2805C10.1735 24.9874 8.89618 25.5868 7.57405 26.072C7.54548 25.5736 7.48644 25.0775 7.39728 24.5864C5.75032 25.3066 4.04427 25.8832 2.29813 26.3099C2.72483 24.5638 3.30148 22.8577 4.02164 21.2108C3.53172 21.1206 3.03675 21.0604 2.53949 21.0306C3.02143 19.7099 3.61982 18.4346 4.32759 17.2198C2.09756 18.753 0.588214 20.8742 0.023908 22.4958C0.564096 22.4906 1.10419 22.5132 1.64204 22.5638C0.916683 24.5196 0.373861 26.5384 0.0205078 28.5944C2.07168 28.2364 4.08576 27.6914 6.0375 26.966C6.08801 27.5039 6.11071 28.044 6.10549 28.5842C7.73382 28.0029 9.85847 26.5105 11.3916 24.2805Z" fill="#9597B3"/>
<path d="M26.2233 13.0691C24.987 10.8415 23.4509 8.79411 21.6579 6.98414C19.855 5.17797 17.8106 3.63013 15.5831 2.3847C14.1345 3.08094 12.8121 4.01384 11.6704 5.14504C10.6927 6.13055 9.79368 7.19101 8.98141 8.31671C6.54081 8.00386 4.06179 8.40286 1.8426 9.46572C1.1103 10.6497 0.499818 11.9049 0.0205078 13.2119C2.0459 12.9062 4.1132 13.3511 5.83354 14.4629C5.51739 15.1054 5.23524 15.7139 4.92589 16.37C5.46557 17.4829 6.11587 18.5386 6.86697 19.5212C6.40679 20.5322 6.08326 21.6 5.90493 22.6963C7.00129 22.518 8.06903 22.1945 9.08 21.7343C10.0626 22.4854 11.1184 23.1357 12.2313 23.6754C12.8874 23.366 13.4993 23.0839 14.1384 22.7677C15.2504 24.4892 15.6953 26.5577 15.3893 28.5841C16.7006 28.1189 17.9623 27.5245 19.1559 26.8096C20.2198 24.5847 20.6176 22.0997 20.3015 19.6538C21.4319 18.8412 22.4938 17.9373 23.4766 16.9513C24.5939 15.8125 25.5213 14.5018 26.2233 13.0691ZM15.7361 18.2839C14.6691 18.2839 13.626 17.9674 12.7388 17.3746C11.8517 16.7818 11.1602 15.9393 10.7519 14.9535C10.3435 13.9677 10.2367 12.883 10.4448 11.8365C10.653 10.79 11.1668 9.82867 11.9213 9.07418C12.6758 8.31969 13.6371 7.80588 14.6836 7.59771C15.7301 7.38955 16.8148 7.49639 17.8006 7.90471C18.7864 8.31304 19.629 9.00452 20.2218 9.89171C20.8146 10.7789 21.131 11.8219 21.131 12.889C21.1292 14.3192 20.5602 15.6904 19.5489 16.7017C18.5375 17.7131 17.1664 18.2821 15.7361 18.2839Z" fill="#9597B3"/>
<path d="M27.1204 1.50767C26.1277 0.515037 22.266 0.066313 18.4722 1.20852C18.1663 1.30031 17.8807 1.42609 17.585 1.54847C21.4561 3.9294 24.7104 7.19067 27.083 11.0669C27.1714 10.8153 27.2801 10.5638 27.3515 10.3088C28.5413 6.23628 28.0824 2.46971 27.1204 1.50767Z" fill="#9597B3"/>
<path d="M110.302 23.9915C108.109 23.9915 106.987 22.3938 106.317 20.5241H106.1V28.6012H102.021V9.81251H106.1V12.821H106.348C107.028 10.8867 108.19 9.42157 110.302 9.42157C113.184 9.42157 114.826 11.9779 114.826 16.7134C114.826 21.4488 113.13 23.9915 110.302 23.9915ZM110.811 16.727C110.811 14.3677 110.111 13.3003 108.496 13.3003C106.936 13.3003 106.1 14.3915 106.1 16.234V17.3083C106.1 19.0488 107.028 20.2114 108.479 20.2114C110.087 20.2114 110.811 19.0726 110.811 16.727Z" fill="#9597B3"/>
<path d="M60.0171 25.0589L58.7423 28.6079C58.7423 28.6079 60.1327 29.468 62.8216 29.468C66.697 29.468 69.6205 26.4697 69.6205 21.4487V9.81244H65.5208V16.6113C65.5208 18.3552 64.7219 19.2527 63.2703 19.2527C61.9752 19.2527 61.4992 18.4436 61.4992 17.1654V9.81244H57.4199V18.1411C57.4199 21.1326 58.8307 23.026 61.1933 23.026C63.2771 23.026 64.5927 21.7139 65.3406 19.6266H65.6296V22.1014C65.6296 24.2974 64.4635 25.6844 62.4069 25.6844C61.5675 25.7036 60.7395 25.4869 60.0171 25.0589Z" fill="#9597B3"/>
<path d="M125.337 20.5241H125.058C124.311 22.5943 122.992 23.9915 120.911 23.9915C118.412 23.9915 117.138 22.132 117.138 19.1371V9.81244H121.217V18.0357C121.217 19.3139 121.693 20.1229 122.988 20.1229C124.436 20.1229 125.239 19.2255 125.239 17.4816V9.81244H129.318V23.5835H125.337V20.5241Z" fill="#9597B3"/>
<path d="M136.338 12.821H136.59C137.27 10.8867 138.432 9.42157 140.543 9.42157C143.426 9.42157 145.064 11.9779 145.064 16.7134C145.064 21.4488 143.365 23.9779 140.543 23.9779C138.351 23.9779 137.229 22.3802 136.559 20.5105H136.338V23.57H132.259V4.32922H136.338V12.821ZM141.053 16.727C141.053 14.3677 140.217 13.2935 138.738 13.3003C137.259 13.3071 136.338 14.4119 136.338 16.234V17.3083C136.338 19.008 137.27 20.2114 138.718 20.2114C140.271 20.2114 141.04 18.991 141.04 16.727H141.053Z" fill="#9597B3"/>
<path d="M151.51 23.5836H147.431V4.32922H151.51V23.5836Z" fill="#9597B3"/>
<path d="M154.354 23.5835V9.81244H158.434V23.5835H154.354Z" fill="#9597B3"/>
<path d="M167.273 13.1847C165.645 13.1847 164.734 14.2351 164.734 16.6691C164.734 19.0283 165.583 20.2385 167.327 20.2385C167.889 20.2385 168.433 20.0373 168.859 19.6713C169.286 19.3052 169.567 18.7986 169.653 18.2431L173.392 19.0385C172.977 21.7581 171.091 23.9915 167.341 23.9915C163.18 23.9915 160.569 21.5813 160.569 16.8731C160.569 12.1649 163.122 9.43512 167.314 9.43512C171.227 9.43512 172.909 11.5394 173.341 14.5003L169.551 15.1802C169.364 14.1093 168.67 13.1711 167.273 13.1847Z" fill="#9597B3"/>
<path d="M156.388 8.09574C157.65 8.09574 158.672 7.12016 158.672 5.91671C158.672 4.71326 157.65 3.73767 156.388 3.73767C155.126 3.73767 154.104 4.71326 154.104 5.91671C154.104 7.12016 155.126 8.09574 156.388 8.09574Z" fill="#9597B3"/>
<path d="M50.7198 5.54956C48.466 7.24928 46.1918 10.6249 45.3453 13.2629H45.0598C44.2167 10.6249 41.9357 7.24588 39.6819 5.54956H35.6025V23.5836H39.6819V17.5972C39.6819 13.8578 39.4167 10.6963 39.4167 10.6963H39.6887C41.4666 12.8719 42.8977 16.5637 43.2751 19.9292H47.113C47.4904 16.5637 48.9215 12.8719 50.6994 10.6963H50.9714C50.9714 10.6963 50.7062 13.8612 50.7062 17.5972V23.5836H54.7855V5.56656L50.7198 5.54956Z" fill="#9597B3"/>
<path d="M86.9268 16.9887C86.9268 12.2295 89.1364 9.43512 93.3857 9.43512C97.7777 9.43512 100.052 12.2804 99.7766 17.5938H90.9381C91.1081 19.6164 92.0463 20.4969 93.6576 20.4969C95.1194 20.4969 95.6973 19.8476 96.0372 19.0147L99.4945 19.9156C98.903 21.9552 97.2678 23.9575 93.6168 23.9575C89.5273 23.9609 86.9268 21.2889 86.9268 16.9887ZM90.9687 15.5949H95.8843C95.8299 13.7966 95.065 12.6918 93.5387 12.6918C91.9409 12.6918 91.1251 13.6912 90.9687 15.5915V15.5949Z" fill="#9597B3"/>
<path d="M84.5813 19.1371C84.2202 18.5123 83.7254 17.975 83.1325 17.5636C82.5395 17.1523 81.863 16.877 81.1513 16.7575V16.4584C83.7586 16.03 85.1558 14.3643 85.1558 11.4272C85.1558 7.81361 82.9632 5.54279 78.6969 5.54279H72.2686V23.5768H76.3479V17.9031H78.4827C79.2616 18.3737 79.9231 19.0154 80.417 19.7796C81.1204 20.9283 81.5182 22.2378 81.5728 23.5836H85.8969C85.8969 23.5836 85.6861 20.8844 84.5813 19.1371ZM76.3343 9.37395H78.6765C80.4102 9.37395 81.0833 10.319 81.0833 11.7705C81.0833 13.2221 80.3626 14.3099 78.6765 14.3099H76.3343V9.37395Z" fill="#9597B3"/>
<path d="M174.018 9.44196H176.452V9.89408H175.476V12.4233H175.01V9.89408H174.031L174.018 9.44196Z" fill="#9597B3"/>
<path d="M176.791 9.44196H177.372L178.413 11.8861L179.453 9.44196H180.031V12.4233H179.562V10.302L178.661 12.4233H178.151L177.253 10.3156V12.4233H176.791V9.44196Z" fill="#9597B3"/>
</g>
<defs>
<clipPath id="clip0_2006_725">
<rect width="180" height="28.936" fill="white" transform="translate(0.0273438 0.531982)"/>
</clipPath>
</defs>
</svg>
