<svg width="149" height="40" viewBox="0 0 149 40" fill="none" xmlns="http://www.w3.org/2000/svg">
<path fill-rule="evenodd" clip-rule="evenodd" d="M14.0414 37.4802C21.3904 37.4802 27.3484 38.0445 27.3484 38.74C27.3484 39.4355 21.3904 39.9998 14.0414 39.9998C6.69235 39.9998 0.734375 39.4355 0.734375 38.74C0.734375 38.0445 6.69235 37.4802 14.0414 37.4802Z" fill="#767890"/>
<path fill-rule="evenodd" clip-rule="evenodd" d="M13.3106 0.113801L38.4985 10.8049C39.2247 11.1111 39.5659 11.9554 39.2553 12.6815L28.5642 37.8695C28.258 38.5956 27.4137 38.9368 26.6876 38.6263L1.49961 27.9352C0.77345 27.6289 0.432245 26.7847 0.742829 26.0585L11.4339 0.870577C11.7401 0.144422 12.5844 -0.196784 13.3106 0.113801Z" fill="#353746"/>
<path fill-rule="evenodd" clip-rule="evenodd" d="M37.8729 12.1522C37.9254 12.2835 37.9297 12.4366 37.8685 12.5765L27.5273 36.9421C27.4092 37.2264 27.0768 37.3577 26.7968 37.2396L2.43125 26.8984C2.29127 26.8372 2.18628 26.7278 2.13379 26.5922L37.8772 12.1522H37.8729Z" fill="#535568"/>
<path fill-rule="evenodd" clip-rule="evenodd" d="M13.3322 2.33162L36.8928 12.3316C37.0372 12.3928 37.1028 12.559 37.0416 12.7034L27.0416 36.264C26.9804 36.4084 26.8142 36.474 26.6698 36.4128L3.10913 26.4128C2.96478 26.3516 2.89916 26.1854 2.9604 26.041L12.9603 2.48035C13.0216 2.33599 13.1878 2.27038 13.3322 2.33162Z" fill="#9597B3"/>
<path fill-rule="evenodd" clip-rule="evenodd" d="M37.0416 12.4847C37.0678 12.5503 37.0722 12.629 37.0416 12.699L27.0416 36.2597C26.9804 36.404 26.8142 36.4697 26.6698 36.4084L3.10916 26.4085C3.03917 26.3779 2.98668 26.321 2.95605 26.2554L37.0416 12.4847Z" fill="#767890"/>
<path fill-rule="evenodd" clip-rule="evenodd" d="M32.7152 13.189L18.0959 20.5599L16.6436 14.0289L32.7152 13.189Z" fill="white"/>
<path fill-rule="evenodd" clip-rule="evenodd" d="M7.65039 25.8267L22.2697 18.4558L23.722 24.9868L7.65039 25.8267Z" fill="#E6E6E6"/>
<path fill-rule="evenodd" clip-rule="evenodd" d="M18.0967 20.5599L22.2699 18.4558L22.5761 19.8381L18.0967 20.5599Z" fill="#B3B3B3"/>
<path fill-rule="evenodd" clip-rule="evenodd" d="M58.6387 10.8093V15.2712H57.6107C57.6107 15.2712 55.8522 15.0131 55.8522 15.7874C55.8522 16.5573 56.6221 16.8154 57.6982 17.6728C58.7699 18.5301 60.441 20.503 60.441 22.7777C60.441 25.0524 58.9406 27.9658 54.2249 27.9658C49.5093 27.9658 49.8942 27.4496 49.8942 27.4496V22.4321C49.8942 22.4321 51.4822 22.9483 52.9388 22.9483C54.3955 22.9483 54.6536 22.4759 54.6536 22.0034C54.6536 21.531 49.7236 18.5345 49.7236 15.5293C49.7236 14.3394 50.0255 10.2537 55.3841 10.2537C57.4882 10.2931 58.6431 10.8093 58.6431 10.8093H58.6387Z" fill="#9597B3"/>
<path fill-rule="evenodd" clip-rule="evenodd" d="M62.1602 10.2537H67.6019V27.9614H62.1602V10.2537Z" fill="#9597B3"/>
<path fill-rule="evenodd" clip-rule="evenodd" d="M91.4463 23.4601H96.5425V27.9614H91.4463H86.3457V10.2537H91.4463H96.5425V14.755H91.4463V16.8547H95.9038V21.3604H91.4463V23.4601Z" fill="#9597B3"/>
<path fill-rule="evenodd" clip-rule="evenodd" d="M98.8701 10.2537H99.0801H103.988H105.598C109.36 10.2537 112.44 13.3333 112.44 17.0953C112.44 20.8573 109.684 23.9369 105.926 23.9369H104.316V27.9702H98.8745V10.2581L98.8701 10.2537ZM104.312 14.9694V19.2169H104.614C105.782 19.2169 106.735 18.2633 106.735 17.0953C106.735 15.9274 105.782 14.9737 104.614 14.9737H104.312V14.9694Z" fill="#9597B3"/>
<path fill-rule="evenodd" clip-rule="evenodd" d="M78.9661 10.2319C81.3108 10.2319 83.4412 11.1418 85.0247 12.6291L81.9101 16.5923C81.2015 15.7568 80.1472 15.2275 78.9661 15.2275C76.8358 15.2275 75.1079 16.9554 75.1079 19.0857C75.1079 21.2161 76.8358 22.944 78.9661 22.944C80.1472 22.944 81.2015 22.4147 81.9101 21.5791L85.0247 25.5424C83.4412 27.0297 81.3108 27.9396 78.9661 27.9396C74.0755 27.9396 70.1123 23.9763 70.1123 19.0857C70.1123 14.1951 74.0755 10.2319 78.9661 10.2319Z" fill="#9597B3"/>
<path fill-rule="evenodd" clip-rule="evenodd" d="M119.74 10.2537L129.031 27.9614H110.444L119.74 10.2537Z" fill="#9597B3"/>
<path fill-rule="evenodd" clip-rule="evenodd" d="M117.501 27.9614H113.932L119.881 18.8889L124.212 23.6089L117.501 27.9614Z" fill="#E6E6E6"/>
<path fill-rule="evenodd" clip-rule="evenodd" d="M117.427 22.629L119.881 18.8889L120.799 19.8862L117.427 22.629Z" fill="#B3B3B3"/>
<path fill-rule="evenodd" clip-rule="evenodd" d="M121.048 12.7515L122.317 15.1706L117.426 22.629L114.767 19.7287L117.076 15.3281L121.048 12.7515Z" fill="white"/>
<path fill-rule="evenodd" clip-rule="evenodd" d="M130.943 10.2537H136.385H139.626V14.9256H136.385V27.9614H130.943V14.9256H127.706V10.2537H130.943Z" fill="#9597B3"/>
<path fill-rule="evenodd" clip-rule="evenodd" d="M99.2073 32.034L99.3341 31.1591H94.3692L94.2379 32.034H95.2353H97.0507H99.2029H99.2073ZM93.9142 34.195L93.3105 38.1932H98.4243L98.5511 37.3183H94.4435L94.7847 35.048H98.3193L98.4505 34.195H97.16H94.9116H93.9142ZM104.916 34.4268L108.547 31.1635H107.239L102.926 35.0524L103.512 31.1635H102.506L101.443 38.1976H102.449L102.72 36.3691L104.203 35.0436L106.495 38.1976H107.619L104.894 34.4487L104.912 34.4268H104.916ZM112.09 38.2763C113.84 38.2763 115.025 37.4539 114.955 36.0847C114.85 33.9456 111.276 34.6499 111.206 33.1714C111.171 32.4277 111.88 31.9334 113.035 31.9334C113.748 31.9334 114.43 32.1259 114.973 32.4977L115.336 31.6753C114.745 31.2947 113.91 31.0804 113.048 31.0804C111.329 31.0804 110.165 31.9159 110.231 33.2588C110.34 35.5073 113.91 34.7549 113.984 36.2247C114.023 36.9902 113.28 37.4189 112.142 37.4189C111.268 37.4189 110.38 37.1083 109.824 36.614L109.422 37.4189C109.96 37.9001 111.023 38.2719 112.094 38.2719L112.09 38.2763ZM121.233 31.1635H118.621L117.558 38.1976H118.564L118.883 36.0672H120.764C122.794 36.0672 124.01 35.0217 123.923 33.2239C123.857 31.9159 122.877 31.1635 121.241 31.1635H121.233ZM120.734 35.1923H119.015L119.496 32.0384H121.184C122.247 32.0384 122.873 32.4715 122.912 33.3157C122.974 34.5537 122.169 35.1967 120.734 35.1967V35.1923ZM132.488 33.2239C132.422 31.9159 131.442 31.1635 129.793 31.1635H127.173L126.11 38.1976H127.125L127.444 36.0454H129.321H129.513L130.843 38.1976H131.906L130.506 35.9054C131.814 35.5642 132.554 34.6193 132.484 33.2239H132.488ZM129.308 35.1923H127.571L128.052 32.0384H129.75C130.826 32.0384 131.447 32.4715 131.491 33.3157C131.552 34.5537 130.747 35.1967 129.312 35.1967L129.308 35.1923ZM140.712 32.0384L140.839 31.1635H135.874L135.742 32.0384H136.74H140.707H140.712ZM135.419 34.1993L134.815 38.1976H139.929L140.056 37.3227H135.948L136.289 35.0524H139.824L139.955 34.1993H136.421H135.423H135.419ZM145.121 38.2807C146.871 38.2807 148.057 37.4583 147.987 36.0891C147.882 33.95 144.308 34.6543 144.238 33.1757C144.203 32.4321 144.911 31.9378 146.066 31.9378C146.779 31.9378 147.462 32.1302 148.004 32.5021L148.367 31.6797C147.777 31.2991 146.941 31.0848 146.079 31.0848C144.36 31.0848 143.197 31.9203 143.262 33.2632C143.371 35.5117 146.941 34.7593 147.015 36.2291C147.055 36.9946 146.311 37.4233 145.174 37.4233C144.299 37.4233 143.411 37.1127 142.855 36.6184L142.453 37.4233C142.991 37.9045 144.054 38.2763 145.126 38.2763L145.121 38.2807Z" fill="#9597B3"/>
</svg>
