<svg width="131" height="36" viewBox="0 0 131 36" fill="none" xmlns="http://www.w3.org/2000/svg">
<path fill-rule="evenodd" clip-rule="evenodd" d="M46.6475 24.7909L48.4647 22.6871C49.5436 23.7295 50.6463 24.5113 51.7726 25.0325C52.8989 25.5537 54.0773 25.8143 55.3077 25.8143C56.7274 25.8143 57.8868 25.5016 58.786 24.8761C59.6851 24.2507 60.1347 23.4547 60.1347 22.4881C60.1347 21.6162 59.8224 20.9387 59.1977 20.4554C58.573 19.9721 57.5414 19.6072 56.1027 19.3609L52.7806 18.8207C50.9634 18.5175 49.6052 17.9346 48.706 17.0723C47.8069 16.2099 47.3573 15.068 47.3573 13.6466C47.3573 11.9218 48.0293 10.5383 49.3733 9.49589C50.7173 8.45348 52.4872 7.93225 54.683 7.93225C56.1027 7.93225 57.513 8.16443 58.9138 8.62878C60.3146 9.09314 61.5733 9.76124 62.6902 10.6331L61.0433 12.9074C59.9643 12.0924 58.8854 11.4812 57.8064 11.0737C56.7274 10.6662 55.6389 10.4625 54.541 10.4625C53.2538 10.4625 52.2127 10.7373 51.4177 11.2869C50.6227 11.8366 50.2251 12.5473 50.2251 13.4191C50.2251 14.2341 50.4996 14.8548 51.0485 15.2812C51.5975 15.7077 52.5061 16.0251 53.7744 16.2337L56.9829 16.7454C59.0652 17.0865 60.6032 17.7072 61.597 18.6075C62.5908 19.5077 63.0877 20.7254 63.0877 22.2606C63.0877 23.1704 62.8982 24.0043 62.5198 24.7624C62.1412 25.5205 61.6065 26.1649 60.9156 26.6956C60.2246 27.2263 59.387 27.6385 58.4027 27.9323C57.4183 28.2261 56.3393 28.3729 55.1657 28.3729C53.5757 28.3729 52.0424 28.0602 50.5659 27.4348C49.0894 26.8094 47.7832 25.928 46.6475 24.7909Z" fill="#9597B3"/>
<path fill-rule="evenodd" clip-rule="evenodd" d="M76.926 26.6295L69.522 11.6717V28.0678H66.7412V7.93225H70.713L76.9546 20.7903L83.1675 7.93225H87.1393V28.0678H84.3306V11.6429L76.926 26.6295Z" fill="#9597B3"/>
<path fill-rule="evenodd" clip-rule="evenodd" d="M92.0107 28.0678V7.93225H99.091C100.601 7.93225 102.001 8.18631 103.291 8.6945C104.581 9.20268 105.699 9.90266 106.644 10.7944C107.591 11.6861 108.331 12.7552 108.866 14.0017C109.401 15.2482 109.669 16.5906 109.669 18.0288C109.669 19.4671 109.401 20.7999 108.866 22.0272C108.331 23.2545 107.595 24.314 106.659 25.2057C105.723 26.0974 104.605 26.7973 103.305 27.3055C102.006 27.8137 100.601 28.0678 99.091 28.0678H92.0107ZM99.1488 10.6362H95.0207V25.364H99.1488C100.18 25.364 101.155 25.177 102.072 24.8031C102.99 24.4291 103.778 23.9113 104.437 23.2497C105.097 22.5881 105.617 21.8115 105.999 20.9197C106.382 20.028 106.573 19.0644 106.573 18.0288C106.573 16.9933 106.382 16.0201 105.999 15.1092C105.617 14.1983 105.097 13.412 104.437 12.7505C103.778 12.0888 102.99 11.5711 102.072 11.1971C101.155 10.8232 100.18 10.6362 99.1488 10.6362Z" fill="#9597B3"/>
<path fill-rule="evenodd" clip-rule="evenodd" d="M118.499 28.0678L110.277 7.93225H113.526L120.339 25.0763L127.266 7.93225H130.371L122.034 28.0678H118.499Z" fill="#9597B3"/>
<path fill-rule="evenodd" clip-rule="evenodd" d="M37.209 17.5677C37.209 17.5677 36.7998 7.7517 28.8442 2.96547C17.3763 -3.93373 7.86472 3.3674 7.86472 3.3674C7.86472 3.3674 20.1671 -0.562946 30.733 7.18542C30.733 7.18542 16.5286 -1.31292 3.41252 9.32888C3.41252 9.32888 2.15768 11.4114 2.19823 14.4195C2.19823 14.4195 13.1939 0.420138 30.5306 7.72127C30.5306 7.72127 11.8555 2.92153 4.69418 19.2423C4.69418 19.2423 5.9573 20.6764 8.67423 21.0508C8.67423 21.0508 13.1265 5.10892 30.5306 8.25712C30.5306 8.25712 17.2344 7.87485 13.3963 19.7782C13.3963 19.7782 17.039 17.3668 19.8723 14.4195C21.9483 12.26 24.9316 10.9364 28.4394 10.9364C31.9473 10.9364 35.3083 13.8228 36.5344 16.2281L37.209 17.5677Z" fill="#9597B3"/>
<path fill-rule="evenodd" clip-rule="evenodd" d="M0.371094 18.4322C0.371094 18.4322 0.780266 28.2483 8.7359 33.0344C20.2037 39.9337 29.7153 32.6326 29.7153 32.6326C29.7153 32.6326 17.4129 36.5629 6.84709 28.8146C6.84709 28.8146 21.0515 37.3129 34.1676 26.6711C34.1676 26.6711 35.4225 24.5886 35.3818 21.5804C35.3818 21.5804 24.3861 35.5798 7.04945 28.2787C7.04945 28.2787 25.7245 33.0784 32.8859 16.7576C32.8859 16.7576 31.6228 15.3236 28.9058 14.9491C28.9058 14.9491 24.4536 30.891 7.04945 27.7428C7.04945 27.7428 20.3458 28.1251 24.1838 16.2218C24.1838 16.2218 20.541 18.6332 17.7078 21.5804C15.6318 23.74 12.6484 25.0635 9.14062 25.0635C5.6328 25.0635 2.27181 22.1772 1.04567 19.7719L0.371094 18.4322Z" fill="#9597B3"/>
</svg>
