<svg width="45" height="44" viewBox="0 0 45 44" fill="none" xmlns="http://www.w3.org/2000/svg">
<path fill-rule="evenodd" clip-rule="evenodd" d="M22.1116 1.46631C21.1436 1.46631 14.5142 1.58364 11.7569 2.18498C9.98222 2.61031 7.67956 2.96231 7.31289 4.53164C7.09289 9.95831 7.10756 14.505 7.35689 18.3623C8.51556 33.6596 14.6462 39.849 22.1116 42.533C29.5769 39.849 35.7076 33.6596 36.8662 18.3623C37.1156 14.505 37.1302 9.95831 36.9102 4.53164C36.5436 2.96231 34.2409 2.61031 32.4662 2.18498C29.7089 1.58364 23.0796 1.46631 22.1116 1.46631Z" fill="black"/>
<path fill-rule="evenodd" clip-rule="evenodd" d="M11.9023 9.03456H32.3183C28.9597 8.24256 25.733 8.19856 22.1103 8.13989C18.4877 8.19856 15.261 8.24256 11.9023 9.03456Z" fill="#222224"/>
<path fill-rule="evenodd" clip-rule="evenodd" d="M35.2368 12.511H8.98349C8.93949 13.611 8.91016 14.7257 8.91016 15.8697H35.3102C35.3102 14.7257 35.2808 13.611 35.2368 12.511Z" fill="#222224"/>
<path fill-rule="evenodd" clip-rule="evenodd" d="M35.1946 19.345H9.0293C9.10263 20.4596 9.2053 21.589 9.35196 22.7036H34.872C35.0186 21.589 35.1213 20.4596 35.1946 19.345Z" fill="#222224"/>
<path fill-rule="evenodd" clip-rule="evenodd" d="M31.7623 33.0144H12.4609C13.0183 34.0264 13.6489 34.9651 14.3823 35.8451C14.5289 36.0211 14.6756 36.1971 14.8223 36.3731H29.4009C29.5476 36.1971 29.6943 36.0211 29.8409 35.8451C30.5743 34.9651 31.2049 34.0264 31.7623 33.0144Z" fill="#222224"/>
<path fill-rule="evenodd" clip-rule="evenodd" d="M24.9269 39.8491H19.2949C20.1309 40.2891 21.0696 40.6705 22.1109 41.0078C23.1523 40.6705 24.0909 40.2891 24.9269 39.8491Z" fill="#222224"/>
<path fill-rule="evenodd" clip-rule="evenodd" d="M10.9201 29.5386H33.3015C33.6828 28.4533 34.0055 27.3239 34.2548 26.1653H9.9668C10.2161 27.3239 10.5388 28.4533 10.9201 29.5386Z" fill="#222224"/>
<path fill-rule="evenodd" clip-rule="evenodd" d="M15.1292 15.8697V12.511H11.7266V15.8697H15.1292Z" fill="#484A4A"/>
<path fill-rule="evenodd" clip-rule="evenodd" d="M18.5918 9.03456H21.9945V8.13989C20.8211 8.15456 19.6918 8.16923 18.5918 8.21323V9.03456Z" fill="#484A4A"/>
<path fill-rule="evenodd" clip-rule="evenodd" d="M15.129 9.03463V8.47729C14.0583 8.60929 12.9877 8.78529 11.9023 9.03463H15.129Z" fill="#484A4A"/>
<path fill-rule="evenodd" clip-rule="evenodd" d="M25.4551 8.21338V9.03471H28.8431V8.44805C27.7284 8.33071 26.5991 8.25738 25.4551 8.21338Z" fill="#484A4A"/>
<path fill-rule="evenodd" clip-rule="evenodd" d="M21.9945 12.511H18.5918V15.8697H21.9945V12.511Z" fill="#484A4A"/>
<path fill-rule="evenodd" clip-rule="evenodd" d="M25.4551 12.511V15.8697H28.8431V12.511H25.4551Z" fill="#484A4A"/>
<path fill-rule="evenodd" clip-rule="evenodd" d="M32.3047 12.511V15.8697H35.3114C35.3114 14.7257 35.282 13.611 35.238 12.511H32.3047Z" fill="#484A4A"/>
<path fill-rule="evenodd" clip-rule="evenodd" d="M35.194 19.345H32.3047V22.7036H34.8714C35.018 21.589 35.1207 20.4596 35.194 19.345Z" fill="#484A4A"/>
<path fill-rule="evenodd" clip-rule="evenodd" d="M28.8431 22.7036V19.345H25.4551V22.7036H28.8431Z" fill="#484A4A"/>
<path fill-rule="evenodd" clip-rule="evenodd" d="M21.9945 22.7036V19.345H18.5918V22.7036H21.9945Z" fill="#484A4A"/>
<path fill-rule="evenodd" clip-rule="evenodd" d="M15.1292 22.7036V19.345H11.7266V22.7036H15.1292Z" fill="#484A4A"/>
<path fill-rule="evenodd" clip-rule="evenodd" d="M15.1292 26.1653H11.7266V29.5386H15.1292V26.1653Z" fill="#484A4A"/>
<path fill-rule="evenodd" clip-rule="evenodd" d="M18.5918 26.1653V29.5386H21.9945V26.1653H18.5918Z" fill="#484A4A"/>
<path fill-rule="evenodd" clip-rule="evenodd" d="M25.4551 26.1653V29.5386H28.8431V26.1653H25.4551Z" fill="#484A4A"/>
<path fill-rule="evenodd" clip-rule="evenodd" d="M32.3047 26.1653V29.5386H33.302C33.6834 28.4533 34.006 27.3239 34.2554 26.1653H32.3047Z" fill="#484A4A"/>
<path fill-rule="evenodd" clip-rule="evenodd" d="M28.8431 33.0144H25.4551V36.3731H28.8431V33.0144Z" fill="#484A4A"/>
<path fill-rule="evenodd" clip-rule="evenodd" d="M21.9945 36.3731V33.0144H18.5918V36.3731H21.9945Z" fill="#484A4A"/>
<path fill-rule="evenodd" clip-rule="evenodd" d="M15.1303 36.3731V33.0144H12.4609C13.0183 34.0264 13.6489 34.9651 14.3823 35.8451C14.5289 36.0211 14.6756 36.1971 14.8223 36.3731H15.1303Z" fill="#484A4A"/>
<path fill-rule="evenodd" clip-rule="evenodd" d="M21.9936 39.8491H19.2949C20.1016 40.2598 20.9963 40.6411 21.9936 40.9785V39.8491Z" fill="#484A4A"/>
<path fill-rule="evenodd" clip-rule="evenodd" d="M9.08751 10.6482C9.11684 10.0469 10.0115 9.56287 10.5542 9.40154C14.4115 8.25754 18.0195 8.19887 22.1115 8.1402C26.2035 8.19887 29.8115 8.25754 33.6688 9.40154C34.2115 9.56287 35.1062 10.0469 35.1355 10.6482C35.6782 18.8909 35.1795 29.3922 29.8408 35.8455C27.9048 38.1922 25.6608 39.8349 22.1115 41.0082C18.5622 39.8349 16.3182 38.1922 14.3822 35.8455C9.04351 29.3922 8.54484 18.8909 9.08751 10.6482ZM22.1115 6.9082C19.3542 6.9082 13.8835 7.09887 9.82084 8.2282C8.89684 8.47754 8.00217 9.09354 8.00217 9.8122L7.82617 13.4055C7.45951 25.3002 9.99684 38.1482 22.1115 42.2402C34.2262 38.1482 36.7635 25.3002 36.3968 13.4055L36.2208 9.8122C36.2208 9.09354 35.3262 8.47754 34.4022 8.2282C30.3395 7.09887 24.8688 6.9082 22.1115 6.9082Z" fill="url(#paint0_linear_2304_511)"/>
<path fill-rule="evenodd" clip-rule="evenodd" d="M32.3194 9.03481C32.774 9.15214 33.214 9.26947 33.6687 9.40147C34.2114 9.56281 35.106 10.0468 35.1354 10.6481C35.1794 11.2495 35.2087 11.8801 35.238 12.5108C35.282 13.6108 35.3114 14.7255 35.3114 15.8695C35.2967 17.0135 35.2674 18.1721 35.194 19.3455C35.1207 20.4601 35.018 21.5895 34.8714 22.7041C34.7247 23.8775 34.5194 25.0361 34.2554 26.1655C34.006 27.3241 33.6834 28.4535 33.302 29.5388C33.0087 30.3601 32.686 31.1668 32.3047 31.9441V34.0415C35.766 28.2775 36.6167 20.6655 36.3967 13.4055L36.2207 9.81214C36.2207 9.09347 35.326 8.47747 34.402 8.22814C33.742 8.03747 33.038 7.87614 32.3047 7.74414L32.3194 9.03481Z" fill="#F6BA2A"/>
<path fill-rule="evenodd" clip-rule="evenodd" d="M15.1292 12.5112V9.03516H11.9026C11.8439 9.04982 11.7852 9.06449 11.7266 9.07916V12.5112H15.1292Z" fill="#1D231E"/>
<path fill-rule="evenodd" clip-rule="evenodd" d="M18.5918 9.03516V12.5112H21.9945V9.03516H18.5918Z" fill="#1D231E"/>
<path fill-rule="evenodd" clip-rule="evenodd" d="M25.4551 9.03516V12.5112H28.8431V9.03516H25.4551Z" fill="#1D231E"/>
<path fill-rule="evenodd" clip-rule="evenodd" d="M32.3047 9.03516V12.5112H35.238C35.2087 11.8805 35.1794 11.2498 35.1354 10.6485C35.106 10.0472 34.2114 9.56316 33.6687 9.40182C33.214 9.26982 32.774 9.15249 32.3194 9.03516H32.3047Z" fill="#1D231E"/>
<path fill-rule="evenodd" clip-rule="evenodd" d="M35.3114 15.8689H32.3047V19.3449H35.194C35.2674 18.1716 35.2967 17.0129 35.3114 15.8689Z" fill="#1D231E"/>
<path fill-rule="evenodd" clip-rule="evenodd" d="M28.8431 19.3449V15.8689H25.4551V19.3449H28.8431Z" fill="#1D231E"/>
<path fill-rule="evenodd" clip-rule="evenodd" d="M21.9945 19.3449V15.8689H18.5918V19.3449H21.9945Z" fill="#1D231E"/>
<path fill-rule="evenodd" clip-rule="evenodd" d="M15.1292 19.3449V15.8689H11.7266V19.3449H15.1292Z" fill="#1D231E"/>
<path fill-rule="evenodd" clip-rule="evenodd" d="M15.1292 22.7036H11.7266V26.1649H15.1292V22.7036Z" fill="#1D231E"/>
<path fill-rule="evenodd" clip-rule="evenodd" d="M18.5918 22.7036V26.1649H21.9945V22.7036H18.5918Z" fill="#1D231E"/>
<path fill-rule="evenodd" clip-rule="evenodd" d="M25.4551 22.7036V26.1649H28.8431V22.7036H25.4551Z" fill="#1D231E"/>
<path fill-rule="evenodd" clip-rule="evenodd" d="M32.3047 22.7036V26.1649H34.2554C34.5194 25.0356 34.7247 23.8769 34.8714 22.7036H32.3047Z" fill="#1D231E"/>
<path fill-rule="evenodd" clip-rule="evenodd" d="M33.302 29.5383H32.3047V31.9437C32.686 31.1663 33.0087 30.3597 33.302 29.5383Z" fill="#1D231E"/>
<path fill-rule="evenodd" clip-rule="evenodd" d="M28.8431 36.373H25.4551V39.5704C26.7604 38.837 27.8604 37.9717 28.8431 36.9597V36.373Z" fill="#1D231E"/>
<path fill-rule="evenodd" clip-rule="evenodd" d="M25.4551 33.0143H28.8431V29.5383H25.4551V33.0143Z" fill="#1D231E"/>
<path fill-rule="evenodd" clip-rule="evenodd" d="M21.9945 33.0143V29.5383H18.5918V33.0143H21.9945Z" fill="#1D231E"/>
<path fill-rule="evenodd" clip-rule="evenodd" d="M15.1292 33.0143V29.5383H11.7266V31.5477C11.9612 32.0463 12.1959 32.5303 12.4599 33.0143H15.1292Z" fill="#1D231E"/>
<path fill-rule="evenodd" clip-rule="evenodd" d="M21.9945 36.373H18.5918V39.4677C18.8118 39.5997 19.0465 39.7317 19.2958 39.849H21.9945V36.373Z" fill="#1D231E"/>
<path fill-rule="evenodd" clip-rule="evenodd" d="M15.1303 36.6957V36.373H14.8223C14.9249 36.4904 15.0276 36.593 15.1303 36.6957Z" fill="#1D231E"/>
<path fill-rule="evenodd" clip-rule="evenodd" d="M22.1124 34.613C22.9924 34.613 23.7844 34.965 24.371 35.5517C24.943 36.1237 25.295 36.9157 25.295 37.7957C25.295 38.6757 24.943 39.4824 24.371 40.0544C23.7844 40.6264 22.9924 40.993 22.1124 40.993C21.2324 40.993 20.4404 40.6264 19.8537 40.0544C19.2817 39.4824 18.9297 38.6757 18.9297 37.7957C18.9297 36.9157 19.2817 36.1237 19.8537 35.5517C20.4404 34.965 21.2324 34.613 22.1124 34.613Z" fill="black" stroke="black" stroke-width="0.0305574"/>
<path fill-rule="evenodd" clip-rule="evenodd" d="M24.2535 35.6544C23.7108 35.1118 22.9482 34.7598 22.1122 34.7598C21.2762 34.7598 20.5135 35.1118 19.9708 35.6544C19.4135 36.1971 19.0762 36.9598 19.0762 37.7958C19.0762 38.6318 19.4135 39.3944 19.9708 39.9518C20.5135 40.4944 21.2762 40.8318 22.1122 40.8318C22.9482 40.8318 23.7108 40.4944 24.2535 39.9518C24.8108 39.3944 25.1482 38.6318 25.1482 37.7958C25.1482 36.9598 24.8108 36.1971 24.2535 35.6544Z" fill="#F8DA36"/>
<path fill-rule="evenodd" clip-rule="evenodd" d="M22.1125 35.3164C22.8018 35.3164 23.4178 35.5951 23.8725 36.0351C24.3271 36.4897 24.6058 37.1057 24.6058 37.7951C24.6058 38.4844 24.3271 39.1004 23.8725 39.5551C23.4178 40.0097 22.8018 40.2884 22.1125 40.2884C21.4231 40.2884 20.8071 40.0097 20.3525 39.5551C19.8978 39.1004 19.6191 38.4844 19.6191 37.7951C19.6191 37.1057 19.8978 36.4897 20.3525 36.0351C20.8071 35.5951 21.4231 35.3164 22.1125 35.3164Z" fill="black"/>
<path fill-rule="evenodd" clip-rule="evenodd" d="M21.2479 37.5901L22.1279 36.8421L22.1133 36.2994L21.3066 35.6101C20.9839 35.7274 20.6906 35.9181 20.4559 36.1528C20.3679 36.2408 20.2946 36.3288 20.2213 36.4314L20.4413 37.2381L21.2479 37.5901ZM22.2159 36.8421L23.0959 37.6048L23.8879 37.2528L24.0786 36.5341C23.9906 36.3874 23.8733 36.2701 23.7706 36.1528C23.5506 35.9328 23.2866 35.7568 23.0079 35.6394L22.2013 36.2994L22.2159 36.8421ZM23.1253 37.6928L22.7733 38.8368L23.1546 39.2328L23.9613 39.2181C24.2693 38.8221 24.4453 38.3381 24.4453 37.7954C24.4453 37.7954 24.4453 37.7808 24.4453 37.7661L23.9173 37.3408L23.1253 37.6928ZM22.6999 38.8808H21.6586L21.2039 39.3354L21.4239 40.0248C21.6439 40.0981 21.8786 40.1274 22.1133 40.1274C22.3773 40.1274 22.6119 40.0981 22.8466 40.0101L23.0813 39.2914L22.6999 38.8808ZM21.1306 39.2914L21.5853 38.8368L21.2333 37.6781L20.4119 37.3261L19.7812 37.8541C19.7959 38.3968 19.9866 38.9101 20.3239 39.2914H21.1306Z" fill="white"/>
<path d="M9.0293 4.38497C9.54263 4.26764 10.056 4.1503 10.5546 4.03297C10.8186 3.98897 11.0093 4.00364 11.1413 4.1063C11.288 4.20897 11.3466 4.35564 11.3466 4.53164C11.3466 4.69297 11.3026 4.83964 11.2 4.97164C11.1413 5.05964 11.0533 5.14764 10.9213 5.2063C11.112 5.22097 11.244 5.26497 11.332 5.35297C11.4346 5.45564 11.4786 5.57297 11.4786 5.74897C11.4786 5.88097 11.4346 6.01297 11.376 6.1303C11.3173 6.2623 11.2293 6.36497 11.112 6.45297C11.0533 6.51164 10.9506 6.5703 10.804 6.6143C10.628 6.68764 10.496 6.73164 10.4373 6.7463C9.96796 6.8783 9.49863 7.0103 9.0293 7.1423C9.0293 6.68764 9.0293 6.23297 9.0293 5.76364C9.0293 5.30897 9.0293 4.83964 9.0293 4.38497ZM9.85063 5.26497C9.96796 5.23564 10.0853 5.2063 10.2026 5.17697C10.3346 5.14764 10.4226 5.10364 10.4813 5.04497C10.5253 4.9863 10.5546 4.91297 10.5546 4.83964C10.5546 4.75164 10.5253 4.69297 10.4813 4.66364C10.4226 4.6343 10.3346 4.6343 10.2173 4.66364C10.1 4.69297 9.96796 4.7223 9.85063 4.73697C9.85063 4.91297 9.85063 5.08897 9.85063 5.26497ZM9.85063 6.32097C9.9973 6.29164 10.1293 6.24764 10.276 6.2183C10.408 6.1743 10.5106 6.1303 10.5693 6.05697C10.628 5.9983 10.6573 5.92497 10.6573 5.83697C10.6573 5.76364 10.628 5.70497 10.5693 5.66097C10.5106 5.63164 10.408 5.63164 10.276 5.67564C10.1293 5.70497 9.9973 5.7343 9.85063 5.7783C9.85063 5.9543 9.85063 6.14497 9.85063 6.32097ZM13.4586 5.6903C13.1506 5.7343 12.8426 5.79297 12.5346 5.85164C12.4906 5.9983 12.4466 6.15964 12.4026 6.3063C12.124 6.36497 11.8453 6.42364 11.5666 6.4823C11.728 5.9983 11.904 5.52897 12.0653 5.05964C12.2266 4.5903 12.4026 4.12097 12.564 3.65164C12.8573 3.60764 13.1506 3.54897 13.4586 3.50497C13.62 3.91564 13.7813 4.3263 13.9426 4.73697C14.1186 5.14764 14.28 5.5583 14.4413 5.96897C14.1626 6.01297 13.884 6.05697 13.5906 6.10097C13.5466 5.96897 13.5026 5.8223 13.4586 5.6903ZM13.2826 5.14764C13.2386 5.00097 13.1946 4.8543 13.136 4.70764C13.092 4.56097 13.048 4.4143 13.004 4.25297C12.9453 4.42897 12.9013 4.5903 12.8573 4.75164C12.7986 4.91297 12.7546 5.08897 12.7106 5.2503C12.9013 5.22097 13.092 5.17697 13.2826 5.14764ZM14.7053 3.32897C14.9693 3.28497 15.248 3.25564 15.5266 3.2263C15.5266 3.54897 15.5266 3.87164 15.5266 4.20897C15.5266 4.53164 15.5266 4.86897 15.5266 5.19164C15.9373 5.14764 16.3626 5.10364 16.8026 5.05964C16.8026 5.27964 16.8026 5.49964 16.8026 5.70497C16.0986 5.7783 15.3946 5.85164 14.7053 5.93964C14.7053 5.49964 14.7053 5.05964 14.7053 4.6343C14.7053 4.1943 14.7053 3.7543 14.7053 3.32897ZM17.1986 3.0503C17.4773 3.02097 17.7413 3.0063 18.02 2.99164C18.02 3.43164 18.02 3.85697 18.02 4.29697C18.02 4.73697 18.02 5.17697 18.02 5.61697C17.7413 5.6463 17.4773 5.66097 17.1986 5.67564C17.1986 5.23564 17.1986 4.79564 17.1986 4.3703C17.1986 3.9303 17.1986 3.4903 17.1986 3.0503ZM21.5546 2.84497C21.8186 2.84497 22.0973 2.84497 22.3613 2.84497C22.3613 3.10897 22.3613 3.37297 22.3613 3.63697C22.3613 3.90097 22.3613 4.16497 22.3613 4.42897C22.3613 4.57564 22.3466 4.73697 22.288 4.86897C22.244 5.00097 22.1706 5.13297 22.068 5.23564C21.9653 5.3383 21.848 5.41164 21.7453 5.45564C21.584 5.5143 21.3933 5.54364 21.1733 5.54364C21.0413 5.54364 20.8946 5.54364 20.748 5.52897C20.6013 5.5143 20.4693 5.48497 20.3666 5.4263C20.264 5.3823 20.176 5.30897 20.088 5.2063C20 5.1183 19.9413 5.01564 19.912 4.91297C19.868 4.73697 19.8386 4.5903 19.8386 4.4583C19.8386 4.1943 19.8386 3.94497 19.8386 3.68097C19.8386 3.41697 19.8386 3.15297 19.8386 2.88897C20.1026 2.8743 20.3813 2.8743 20.6453 2.85964C20.6453 3.12364 20.6453 3.4023 20.6453 3.6663C20.6453 3.94497 20.6453 4.20897 20.6453 4.47297C20.6453 4.61964 20.6893 4.73697 20.7773 4.8103C20.8506 4.8983 20.968 4.92764 21.1 4.92764C21.2466 4.92764 21.3493 4.88364 21.4373 4.8103C21.5106 4.7223 21.5546 4.60497 21.5546 4.4583C21.5546 4.1943 21.5546 3.9303 21.5546 3.65164C21.5546 3.38764 21.5546 3.10897 21.5546 2.84497ZM22.9186 2.84497C23.168 2.84497 23.4173 2.85964 23.6813 2.85964C23.8426 3.10897 24.004 3.3583 24.1653 3.60764C24.3413 3.85697 24.5026 4.1063 24.664 4.35564C24.664 4.12097 24.664 3.87164 24.664 3.6223C24.664 3.38764 24.664 3.1383 24.664 2.88897C24.928 2.90364 25.1773 2.9183 25.4413 2.93297C25.4413 3.37297 25.4413 3.81297 25.4413 4.25297C25.4413 4.70764 25.4413 5.14764 25.4413 5.58764C25.1773 5.57297 24.928 5.5583 24.664 5.54364C24.5026 5.2943 24.3413 5.04497 24.18 4.8103C24.004 4.56097 23.8426 4.31164 23.6813 4.0623C23.6813 4.29697 23.6813 4.5463 23.6813 4.79564C23.6813 5.0303 23.6813 5.27964 23.6813 5.5143C23.432 5.5143 23.168 5.5143 22.9186 5.49964C22.9186 5.05964 22.9186 4.61964 22.9186 4.17964C22.9186 3.72497 22.9186 3.28497 22.9186 2.84497ZM26.0133 2.97697C26.292 2.99164 26.556 3.0063 26.8346 3.03564C26.8346 3.47564 26.8346 3.91564 26.8346 4.35564C26.8346 4.79564 26.8346 5.23564 26.8346 5.67564C26.556 5.66097 26.292 5.63164 26.0133 5.61697C26.0133 5.17697 26.0133 4.73697 26.0133 4.29697C26.0133 3.85697 26.0133 3.41697 26.0133 2.97697ZM27.2306 3.06497C28.0666 3.1383 28.888 3.2263 29.724 3.32897C29.724 3.54897 29.724 3.76897 29.724 3.98897C29.4306 3.94497 29.1666 3.91564 28.888 3.8863C28.888 4.20897 28.888 4.5463 28.888 4.86897C28.888 5.2063 28.888 5.54364 28.888 5.8663C28.6093 5.83697 28.3453 5.80764 28.0666 5.7783C28.0666 5.45564 28.0666 5.1183 28.0666 4.78097C28.0666 4.4583 28.0666 4.12097 28.0666 3.7983C27.788 3.76897 27.5093 3.73964 27.2306 3.7103C27.2306 3.4903 27.2306 3.28497 27.2306 3.06497ZM30.076 3.37297C30.8093 3.4903 31.5426 3.59297 32.2613 3.72497C32.2613 3.91564 32.2613 4.1063 32.2613 4.29697C31.8066 4.22364 31.352 4.13564 30.8973 4.0623C30.8973 4.20897 30.8973 4.34097 30.8973 4.48764C31.3226 4.56097 31.748 4.6343 32.1733 4.70764C32.1733 4.88364 32.1733 5.0743 32.1733 5.2503C31.748 5.17697 31.3226 5.10364 30.8973 5.0303C30.8973 5.2063 30.8973 5.3823 30.8973 5.5583C31.3666 5.63164 31.836 5.71964 32.3053 5.80764C32.3053 5.9983 32.3053 6.20364 32.3053 6.40897C31.572 6.2623 30.824 6.14497 30.076 6.02764C30.076 5.58764 30.076 5.14764 30.076 4.70764C30.076 4.26764 30.076 3.82764 30.076 3.37297ZM32.76 3.82764C33.156 3.90097 33.5666 3.98897 33.9773 4.07697C34.212 4.13564 34.4026 4.22364 34.5493 4.3263C34.696 4.42897 34.828 4.56097 34.916 4.70764C35.0186 4.8543 35.0773 5.0303 35.1213 5.2063C35.1653 5.3823 35.1946 5.57297 35.1946 5.76364C35.1946 6.05697 35.1653 6.27697 35.092 6.40897C35.0333 6.55564 34.9453 6.67297 34.828 6.7463C34.7106 6.81964 34.5933 6.84897 34.4613 6.84897C34.2853 6.84897 34.124 6.8343 33.9773 6.7903C33.5666 6.68764 33.156 6.59964 32.76 6.49697C32.76 6.05697 32.76 5.6023 32.76 5.1623C32.76 4.7223 32.76 4.26764 32.76 3.82764ZM33.5813 4.60497C33.5813 4.8543 33.5813 5.08897 33.5813 5.3383C33.5813 5.58764 33.5813 5.83697 33.5813 6.07164C33.64 6.0863 33.7133 6.10097 33.772 6.1303C33.948 6.1743 34.0653 6.18897 34.1386 6.15964C34.212 6.14497 34.2706 6.0863 34.3146 5.9983C34.3586 5.9103 34.3733 5.76364 34.3733 5.54364C34.3733 5.2503 34.3293 5.04497 34.2413 4.91297C34.1386 4.79564 33.992 4.70764 33.7866 4.64897C33.7133 4.6343 33.64 4.61964 33.5813 4.60497Z" fill="#FEFEFE"/>
<path fill-rule="evenodd" clip-rule="evenodd" d="M30.3985 15.7226L30.4132 27.4853C30.4279 27.6906 30.4572 27.8813 30.5305 28.0573C30.7065 28.424 31.1465 28.7466 31.4545 28.9813L32.8039 29.9786L31.1319 30.008C30.6039 30.008 30.1492 30.1693 29.6945 30.448C29.3865 30.6386 29.0932 30.8733 28.7999 31.108C28.4625 31.372 28.1399 31.636 27.7732 31.8706C26.7905 32.5013 25.8079 32.7506 24.6492 32.7066C24.2239 32.7066 23.7985 32.6626 23.3879 32.56C23.2559 32.6773 23.1239 32.8093 22.9919 32.9266C21.8185 34.1146 20.1025 34.364 18.6505 33.4986C18.5185 33.4253 18.3865 33.3373 18.2545 33.2346C18.1372 33.132 18.0199 33.044 17.9025 32.9413L17.8879 32.9266C16.8172 31.9 15.4972 31.108 14.1919 30.3893L13.8105 30.184L13.9132 29.7586C14.1185 28.908 14.1919 27.9986 14.2359 27.1333C14.2945 26.092 14.2945 25.0653 14.2945 24.024V17.8786C14.2945 17.204 14.2945 16.5293 14.2505 15.8693C14.2065 14.96 14.0892 14.08 13.9132 13.2L13.8252 12.7893L14.1919 12.584C15.2039 12.0413 16.2012 11.484 17.1105 10.7653C17.5359 10.428 17.9319 10.076 18.3279 9.72396C19.3399 8.68263 21.5399 8.8293 22.6105 9.67996L22.6252 9.69463L22.6399 9.7093C23.1532 10.1786 23.6519 10.648 24.1799 11.088C24.9425 11.704 25.7345 12.232 26.5705 12.7306L26.9372 12.9506V12.9653L27.0399 12.9946C27.1572 13.024 27.2745 13.068 27.3919 13.112C28.7705 13.5226 29.8852 13.8306 31.3372 13.7573L32.1145 13.728L31.9092 14.476C31.7625 14.9893 31.2785 15.2386 30.8239 15.4586C30.7505 15.5026 30.5012 15.6346 30.3985 15.7226Z" fill="black"/>
<mask id="mask0_2304_511" style="mask-type:luminance" maskUnits="userSpaceOnUse" x="14" y="9" width="13" height="25">
<path d="M14.4707 13.0825C16.8027 11.8211 17.3894 11.3225 18.724 10.1198C19.4574 9.34248 21.3494 9.40114 22.2587 10.1198C23.6227 11.3811 24.444 12.1291 26.292 13.2145C25.6907 15.4731 25.7787 18.1865 26.732 18.8905C25.4707 18.9785 24.5614 18.9638 23.9014 20.6651C24.5907 21.9998 25.0014 22.6011 26.732 22.9385C25.72 23.5398 25.7347 27.4265 26.248 29.7731C24.7227 30.7411 24.0774 31.1078 22.596 32.5305C21.628 33.5131 19.8974 33.9825 18.284 32.5305C17.184 31.4598 15.82 30.6385 14.4707 29.8905C14.852 28.2478 14.852 26.1651 14.8667 24.0238C14.8667 21.9705 14.8667 19.9318 14.8667 17.8785C14.8667 16.1771 14.808 14.7398 14.4707 13.0825Z" fill="white"/>
</mask>
<g mask="url(#mask0_2304_511)">
<path fill-rule="evenodd" clip-rule="evenodd" d="M20.499 21.7063L20.719 21.721L20.6897 21.9263L20.4844 21.9116L20.499 21.7063Z" fill="#595959"/>
<path fill-rule="evenodd" clip-rule="evenodd" d="M20.5294 21.7355L20.5148 21.8821L20.6614 21.8968L20.6761 21.7501L20.5294 21.7355ZM20.4268 21.6328L20.7934 21.6475L20.7641 22.0141L20.4121 21.9848L20.4268 21.6328Z" fill="#5A5A5A"/>
<path fill-rule="evenodd" clip-rule="evenodd" d="M20.4709 21.6625L20.4416 21.9558L20.7349 21.9705L20.7496 21.6918L20.4709 21.6625ZM20.3682 21.5452L20.8669 21.5892L20.8229 22.0878L20.3242 22.0438L20.3682 21.5452Z" fill="#5A5A5A"/>
<path fill-rule="evenodd" clip-rule="evenodd" d="M20.3967 21.589L20.3673 22.0143L20.7927 22.0437L20.822 21.6183L20.3967 21.589ZM20.294 21.4717L20.9393 21.5157L20.8953 22.161L20.25 22.117L20.294 21.4717Z" fill="#5B5B5B"/>
<path fill-rule="evenodd" clip-rule="evenodd" d="M20.3391 21.5155L20.2951 22.0875L20.8671 22.1315L20.9111 21.5595L20.3391 21.5155ZM20.2364 21.3982L21.0137 21.4569L20.9551 22.2342L20.1777 22.1755L20.2364 21.3982Z" fill="#5B5B5B"/>
<path fill-rule="evenodd" clip-rule="evenodd" d="M20.2648 21.4276L20.2062 22.1463L20.9248 22.205L20.9835 21.4863L20.2648 21.4276ZM20.1622 21.325L21.1008 21.3836L21.0275 22.3223L20.1035 22.249L20.1622 21.325Z" fill="#5C5C5C"/>
<path fill-rule="evenodd" clip-rule="evenodd" d="M20.2063 21.3544L20.133 22.2197L20.9983 22.2784L21.057 21.4277L20.2063 21.3544ZM20.1036 21.2371L21.1743 21.3251L21.0863 22.3957L20.0156 22.3077L20.1036 21.2371Z" fill="#5C5C5C"/>
<path fill-rule="evenodd" clip-rule="evenodd" d="M20.134 21.2812L20.0607 22.2785L21.058 22.3518L21.1314 21.3545L20.134 21.2812ZM20.0314 21.1638L21.2487 21.2518L21.1607 22.4692L19.9434 22.3812L20.0314 21.1638Z" fill="#5D5D5D"/>
<path fill-rule="evenodd" clip-rule="evenodd" d="M20.0745 21.2077L19.9865 22.3517L21.1305 22.4397L21.2185 21.2957L20.0745 21.2077ZM19.9718 21.0903L21.3211 21.193L21.2185 22.5423L19.8691 22.4397L19.9718 21.0903Z" fill="#5E5E5E"/>
<path fill-rule="evenodd" clip-rule="evenodd" d="M20.0022 21.1195L19.9142 22.4102L21.1902 22.5128L21.2929 21.2222L20.0022 21.1195ZM19.9142 21.0168L21.4102 21.1195L21.2929 22.6302L19.7969 22.5128L19.9142 21.0168Z" fill="#5E5E5E"/>
<path fill-rule="evenodd" clip-rule="evenodd" d="M19.9437 21.0465L19.8263 22.4839L21.2637 22.5865L21.3663 21.1639L19.9437 21.0465ZM19.841 20.9292L21.4837 21.0612L21.3517 22.7039L19.709 22.5719L19.841 20.9292Z" fill="#5F5F5F"/>
<path fill-rule="evenodd" clip-rule="evenodd" d="M19.8694 20.973L19.7521 22.5424L21.3214 22.6597L21.4388 21.0904L19.8694 20.973ZM19.7814 20.8557L21.5561 20.9877L21.4241 22.777L19.6348 22.645L19.7814 20.8557Z" fill="#5F5F5F"/>
<path fill-rule="evenodd" clip-rule="evenodd" d="M19.8099 20.8998L19.6779 22.6158L21.3939 22.7478L21.5259 21.0318L19.8099 20.8998ZM19.7072 20.7825L21.6285 20.9291L21.4819 22.8505L19.5605 22.7038L19.7072 20.7825Z" fill="#606060"/>
<path fill-rule="evenodd" clip-rule="evenodd" d="M19.7376 20.8263L19.6056 22.6743L21.4536 22.821L21.6003 20.9583L19.7376 20.8263ZM19.6496 20.709L21.7176 20.8557L21.5563 22.9383L19.4883 22.777L19.6496 20.709Z" fill="#606060"/>
<path fill-rule="evenodd" clip-rule="evenodd" d="M19.6771 20.7387L19.5158 22.748L21.5251 22.8947L21.6718 20.9L19.6771 20.7387ZM19.5744 20.6213L21.7891 20.7973L21.6131 23.012L19.3984 22.836L19.5744 20.6213Z" fill="#616161"/>
<path fill-rule="evenodd" clip-rule="evenodd" d="M19.6048 20.6652L19.4435 22.8065L21.5848 22.9679L21.7462 20.8265L19.6048 20.6652ZM19.5168 20.5479L21.8635 20.7239L21.6875 23.0852L19.3262 22.9092L19.5168 20.5479Z" fill="#626262"/>
<path fill-rule="evenodd" clip-rule="evenodd" d="M19.5472 20.5917L19.3712 22.8797L21.6592 23.041L21.8352 20.7677L19.5472 20.5917ZM19.4446 20.4744L21.9379 20.665L21.7472 23.1584L19.2539 22.9677L19.4446 20.4744Z" fill="#626262"/>
<path fill-rule="evenodd" clip-rule="evenodd" d="M19.473 20.5185L19.297 22.9385L21.717 23.1291L21.9077 20.6945L19.473 20.5185ZM19.385 20.4011L22.025 20.6065L21.8197 23.2465L19.1797 23.0411L19.385 20.4011Z" fill="#636363"/>
<path fill-rule="evenodd" clip-rule="evenodd" d="M19.4125 20.4306L19.2072 22.9972L21.7885 23.2026L21.9792 20.6359L19.4125 20.4306ZM19.3098 20.3132L22.0965 20.5332L21.8765 23.3199L19.0898 23.0999L19.3098 20.3132Z" fill="#636363"/>
<path fill-rule="evenodd" clip-rule="evenodd" d="M19.3402 20.3573L19.1349 23.0707L21.8482 23.276L22.0536 20.5627L19.3402 20.3573ZM19.2522 20.24L22.1709 20.4747L21.9509 23.3933L19.0176 23.1733L19.2522 20.24Z" fill="#646464"/>
<path fill-rule="evenodd" clip-rule="evenodd" d="M19.2826 20.2838L19.0626 23.1292L21.9226 23.3492L22.128 20.5038L19.2826 20.2838ZM19.18 20.1665L22.2453 20.4012L22.0106 23.4665L18.9453 23.2318L19.18 20.1665Z" fill="#646565"/>
<path fill-rule="evenodd" clip-rule="evenodd" d="M19.2084 20.2104L18.9884 23.2024L21.9804 23.437L22.2151 20.4304L19.2084 20.2104ZM19.1204 20.093L22.3324 20.3424L22.0831 23.5544L18.8711 23.305L19.1204 20.093Z" fill="#656565"/>
<path fill-rule="evenodd" clip-rule="evenodd" d="M19.1508 20.1227L18.9015 23.2614L22.0548 23.5107L22.2895 20.372L19.1508 20.1227ZM19.0482 20.0054L22.4068 20.2694L22.1428 23.628L18.7988 23.364L19.0482 20.0054Z" fill="#666666"/>
<path fill-rule="evenodd" clip-rule="evenodd" d="M19.0757 20.0492L18.8263 23.3346L22.1117 23.5839L22.361 20.2986L19.0757 20.0492ZM18.9877 19.9319L22.4783 20.2106L22.2143 23.7012L18.709 23.4372L18.9877 19.9319Z" fill="#666666"/>
<path fill-rule="evenodd" clip-rule="evenodd" d="M19.0181 19.976L18.7541 23.3933L22.1861 23.6573L22.4354 20.24L19.0181 19.976ZM18.9154 19.8586L22.5527 20.1373L22.2741 23.7746L18.6367 23.496L18.9154 19.8586Z" fill="#676767"/>
<path fill-rule="evenodd" clip-rule="evenodd" d="M18.9458 19.9025L18.6818 23.4665L22.2458 23.7452L22.5245 20.1665L18.9458 19.9025ZM18.8578 19.7852L22.6418 20.0785L22.3485 23.8478L18.5645 23.5692L18.8578 19.7852Z" fill="#676767"/>
<path fill-rule="evenodd" clip-rule="evenodd" d="M18.8862 19.8143L18.5929 23.525L22.3036 23.8183L22.5969 20.1077L18.8862 19.8143ZM18.7836 19.7117L22.7142 20.005L22.4062 23.9357L18.4902 23.6277L18.7836 19.7117Z" fill="#686868"/>
<path fill-rule="evenodd" clip-rule="evenodd" d="M18.8111 19.7414L18.5177 23.5987L22.3751 23.892L22.6684 20.0347L18.8111 19.7414ZM18.7231 19.624L22.7857 19.9467L22.4777 24.0094L18.4004 23.7014L18.7231 19.624Z" fill="#686969"/>
<path fill-rule="evenodd" clip-rule="evenodd" d="M18.7535 19.6679L18.4455 23.6572L22.4348 23.9652L22.7428 19.9759L18.7535 19.6679ZM18.6508 19.5505L22.8601 19.8732L22.5375 24.0825L18.3281 23.7599L18.6508 19.5505Z" fill="#696969"/>
<path fill-rule="evenodd" clip-rule="evenodd" d="M18.6812 19.5946L18.3732 23.7306L22.5092 24.0533L22.8319 19.9026L18.6812 19.5946ZM18.5932 19.4773L22.9492 19.8146L22.6119 24.156L18.2559 23.8333L18.5932 19.4773Z" fill="#6A6A6A"/>
<path fill-rule="evenodd" clip-rule="evenodd" d="M18.6236 19.5065L18.2863 23.7891L22.5689 24.1265L22.9063 19.8438L18.6236 19.5065ZM18.5209 19.4038L23.0236 19.7411L22.6716 24.2438L18.1836 23.8918L18.5209 19.4038Z" fill="#6A6A6A"/>
<path fill-rule="evenodd" clip-rule="evenodd" d="M18.5484 19.4335L18.2111 23.8628L22.6404 24.2002L22.9777 19.7708L18.5484 19.4335ZM18.4604 19.3162L23.0951 19.6828L22.7431 24.3175L18.0938 23.9655L18.4604 19.3162Z" fill="#6B6B6B"/>
<path fill-rule="evenodd" clip-rule="evenodd" d="M18.4889 19.36L18.1369 23.9213L22.6982 24.2733L23.0502 19.712L18.4889 19.36ZM18.3862 19.2427L23.1675 19.6093L22.8009 24.3907L18.0195 24.024L18.3862 19.2427Z" fill="#6B6B6B"/>
<path fill-rule="evenodd" clip-rule="evenodd" d="M18.4166 19.2865L18.0646 23.9945L22.7726 24.3612L23.1393 19.6385L18.4166 19.2865ZM18.3286 19.1692L23.2419 19.5505L22.8753 24.4639L17.9473 24.0972L18.3286 19.1692Z" fill="#6C6C6C"/>
<path fill-rule="evenodd" clip-rule="evenodd" d="M18.359 19.1986L17.9923 24.0533L22.8323 24.4346L23.2137 19.5799L18.359 19.1986ZM18.2563 19.0959L23.331 19.4773L22.935 24.5519L17.875 24.1559L18.2563 19.0959Z" fill="#6C6D6D"/>
<path fill-rule="evenodd" clip-rule="evenodd" d="M18.2838 19.1254L17.9025 24.1267L22.9038 24.5081L23.2852 19.5067L18.2838 19.1254ZM18.1958 19.0081L23.4025 19.4187L23.0065 24.6254L17.7852 24.2294L18.1958 19.0081Z" fill="#6D6D6D"/>
<path fill-rule="evenodd" clip-rule="evenodd" d="M18.2243 19.0521L17.8283 24.1855L22.9616 24.5815L23.3576 19.4481L18.2243 19.0521ZM18.1216 18.9348L23.4749 19.3455L23.0643 24.6988L17.7109 24.2881L18.1216 18.9348Z" fill="#6E6E6E"/>
<path fill-rule="evenodd" clip-rule="evenodd" d="M18.152 18.9787L17.756 24.2587L23.036 24.6693L23.4467 19.3747L18.152 18.9787ZM18.064 18.8613L23.5493 19.2867L23.1387 24.772L17.6387 24.3613L18.064 18.8613Z" fill="#6E6E6E"/>
<path fill-rule="evenodd" clip-rule="evenodd" d="M18.0925 18.8905L17.6818 24.3172L23.0938 24.7425L23.5191 19.3158L18.0925 18.8905ZM17.9898 18.7878L23.6365 19.2132L23.1965 24.8598L17.5645 24.4198L17.9898 18.7878Z" fill="#6F6F6F"/>
<path fill-rule="evenodd" clip-rule="evenodd" d="M18.0192 18.8175L17.5939 24.3909L23.1672 24.8162L23.5926 19.2429L18.0192 18.8175ZM17.9312 18.7002L23.7099 19.1549L23.2699 24.9335L17.4766 24.4935L17.9312 18.7002Z" fill="#6F6F6F"/>
<path fill-rule="evenodd" clip-rule="evenodd" d="M17.9616 18.744L17.5216 24.4494L23.227 24.8894L23.667 19.184L17.9616 18.744ZM17.859 18.6267L23.7843 19.0814L23.3296 25.0067L17.4043 24.552L17.859 18.6267Z" fill="#707070"/>
<path fill-rule="evenodd" clip-rule="evenodd" d="M17.8874 18.6708L17.4474 24.5228L23.2994 24.9628L23.7541 19.1108L17.8874 18.6708ZM17.7994 18.5535L23.8567 19.0228L23.4021 25.0801L17.3301 24.6255L17.7994 18.5535Z" fill="#707171"/>
<path fill-rule="evenodd" clip-rule="evenodd" d="M17.8298 18.5973L17.3751 24.5813L23.3591 25.0506L23.8285 19.052L17.8298 18.5973ZM17.7271 18.48L23.9458 18.9493L23.4618 25.168L17.2578 24.684L17.7271 18.48Z" fill="#717171"/>
<path fill-rule="evenodd" clip-rule="evenodd" d="M17.7566 18.5097L17.2873 24.655L23.4326 25.1243L23.9019 18.979L17.7566 18.5097ZM17.6686 18.3923L24.0193 18.891L23.5353 25.2417L17.1699 24.7577L17.6686 18.3923Z" fill="#727272"/>
<path fill-rule="evenodd" clip-rule="evenodd" d="M17.697 18.4362L17.213 24.7135L23.4904 25.1975L23.9744 18.9202L17.697 18.4362ZM17.5944 18.3188L24.0917 18.8175L23.593 25.3148L17.0957 24.8162L17.5944 18.3188Z" fill="#727272"/>
<path fill-rule="evenodd" clip-rule="evenodd" d="M17.6394 18.3627L17.1408 24.7867L23.5648 25.2707L24.0488 18.8467L17.6394 18.3627ZM17.5368 18.2454L24.1661 18.7587L23.6674 25.388L17.0234 24.8894L17.5368 18.2454Z" fill="#737373"/>
<path fill-rule="evenodd" clip-rule="evenodd" d="M17.5652 18.2895L17.0666 24.8455L23.6226 25.3588L24.1359 18.7881L17.5652 18.2895ZM17.4626 18.1721L24.2532 18.6855L23.7252 25.4761L16.9492 24.9481L17.4626 18.1721Z" fill="#737373"/>
<path fill-rule="evenodd" clip-rule="evenodd" d="M17.5057 18.2008L16.9777 24.9182L23.695 25.4315L24.2083 18.7142L17.5057 18.2008ZM17.403 18.0835L24.3257 18.6262L23.7977 25.5488L16.875 25.0208L17.403 18.0835Z" fill="#747474"/>
<path fill-rule="evenodd" clip-rule="evenodd" d="M17.4344 18.1283L16.9064 24.9777L23.7557 25.5057L24.2837 18.6563L17.4344 18.1283ZM17.3317 18.011L24.4011 18.5537L23.8584 25.623L16.7891 25.0803L17.3317 18.011Z" fill="#747575"/>
<path fill-rule="evenodd" clip-rule="evenodd" d="M17.3748 18.0548L16.8322 25.0508L23.8282 25.5788L24.3562 18.5828L17.3748 18.0548ZM17.2722 17.9375L24.4735 18.4948L23.9308 25.6962L16.7148 25.1535L17.2722 17.9375Z" fill="#757575"/>
<path fill-rule="evenodd" clip-rule="evenodd" d="M17.3006 17.9813L16.758 25.1093L23.886 25.6667L24.4433 18.524L17.3006 17.9813ZM17.198 17.864L24.5606 18.4213L23.9886 25.784L16.6406 25.212L17.198 17.864Z" fill="#767676"/>
<path fill-rule="evenodd" clip-rule="evenodd" d="M17.243 17.8934L16.671 25.1828L23.9604 25.7401L24.5177 18.4508L17.243 17.8934ZM17.1404 17.7908L24.635 18.3628L24.063 25.8574L16.5684 25.2708L17.1404 17.7908Z" fill="#767676"/>
<path fill-rule="evenodd" clip-rule="evenodd" d="M17.1698 17.8195L16.5978 25.2408L24.0191 25.8128L24.5911 18.3915L17.1698 17.8195ZM17.0671 17.7021L24.7085 18.2888L24.1218 25.9301L16.4805 25.3435L17.0671 17.7021Z" fill="#777777"/>
<path fill-rule="evenodd" clip-rule="evenodd" d="M17.1102 17.747L16.5236 25.315L24.0916 25.887L24.6636 18.3336L17.1102 17.747ZM17.0076 17.6296L24.7809 18.231L24.1942 26.0043L16.4062 25.403L17.0076 17.6296Z" fill="#777777"/>
<path fill-rule="evenodd" clip-rule="evenodd" d="M17.038 17.6735L16.4513 25.3735L24.1513 25.9748L24.7527 18.2602L17.038 17.6735ZM16.9353 17.5562L24.87 18.1575L24.254 26.0775L16.334 25.4762L16.9353 17.5562Z" fill="#787878"/>
<path fill-rule="evenodd" clip-rule="evenodd" d="M16.9784 17.5853L16.3624 25.4467L24.2238 26.048L24.8251 18.2013L16.9784 17.5853ZM16.8758 17.4827L24.9424 18.0987L24.3264 26.1653L16.2598 25.5347L16.8758 17.4827Z" fill="#787979"/>
<path fill-rule="evenodd" clip-rule="evenodd" d="M16.9052 17.5114L16.2892 25.5047L24.2825 26.1207L24.8985 18.1274L16.9052 17.5114ZM16.8025 17.394L25.0159 18.0247L24.3852 26.238L16.1719 25.6074L16.8025 17.394Z" fill="#797979"/>
<path fill-rule="evenodd" clip-rule="evenodd" d="M16.8476 17.4389L16.2169 25.5789L24.3569 26.1949L24.9729 18.0695L16.8476 17.4389ZM16.7449 17.3215L25.0903 17.9669L24.4596 26.3122L16.0996 25.6669L16.7449 17.3215Z" fill="#7A7A7A"/>
<path fill-rule="evenodd" clip-rule="evenodd" d="M16.7734 17.3656L16.1427 25.6376L24.4147 26.283L25.0601 17.9963L16.7734 17.3656ZM16.6707 17.2483L25.1627 17.8936L24.5174 26.3856L16.0254 25.7403L16.6707 17.2483Z" fill="#7A7A7A"/>
<path fill-rule="evenodd" clip-rule="evenodd" d="M16.7138 17.2775L16.0538 25.7108L24.4872 26.3561L25.1325 17.9375L16.7138 17.2775ZM16.6112 17.1748L25.2498 17.8348L24.5752 26.4735L15.9512 25.7988L16.6112 17.1748Z" fill="#7B7B7B"/>
<path fill-rule="evenodd" clip-rule="evenodd" d="M16.6406 17.2035L15.9806 25.7688L24.5459 26.4288L25.2059 17.8635L16.6406 17.2035ZM16.5379 17.0862L25.3233 17.7608L24.6486 26.5462L15.8633 25.8715L16.5379 17.0862Z" fill="#7B7C7C"/>
<path fill-rule="evenodd" clip-rule="evenodd" d="M16.583 17.13L15.9083 25.842L24.6203 26.502L25.2803 17.8047L16.583 17.13ZM16.4803 17.0127L25.3977 17.702L24.7083 26.6194L15.791 25.93L16.4803 17.0127Z" fill="#7C7C7C"/>
<path fill-rule="evenodd" clip-rule="evenodd" d="M16.5088 17.0575L15.8341 25.9015L24.6781 26.5909L25.3675 17.7322L16.5088 17.0575ZM16.4061 16.9402L25.4701 17.6295L24.7808 26.6935L15.7168 26.0042L16.4061 16.9402Z" fill="#7C7D7D"/>
<path fill-rule="evenodd" clip-rule="evenodd" d="M16.4512 16.9696L15.7619 25.9749L24.7525 26.6643L25.4419 17.6736L16.4512 16.9696ZM16.3485 16.8669L25.5592 17.5709L24.8405 26.7816L15.6445 26.0629L16.3485 16.8669Z" fill="#7D7D7D"/>
<path fill-rule="evenodd" clip-rule="evenodd" d="M16.378 16.8957L15.674 26.033L24.8113 26.737L25.5153 17.5997L16.378 16.8957ZM16.2753 16.7783L25.6326 17.497L24.914 26.8543L15.5566 26.1357L16.2753 16.7783Z" fill="#7E7E7E"/>
<path fill-rule="evenodd" clip-rule="evenodd" d="M16.3184 16.8222L15.5998 26.1062L24.8838 26.8102L25.5878 17.5408L16.3184 16.8222ZM16.2158 16.7048L25.7051 17.4382L24.9718 26.9275L15.4824 26.1942L16.2158 16.7048Z" fill="#7E7E7E"/>
<path fill-rule="evenodd" clip-rule="evenodd" d="M16.2462 16.7487L15.5275 26.1647L24.9435 26.8833L25.6768 17.4673L16.2462 16.7487ZM16.1435 16.6313L25.7795 17.3647L25.0462 27.0007L15.4102 26.2673L16.1435 16.6313Z" fill="#7F7F7F"/>
<path fill-rule="evenodd" clip-rule="evenodd" d="M16.1866 16.6762L15.4533 26.2388L25.0159 26.9722L25.7493 17.4095L16.1866 16.6762ZM16.0839 16.5588L25.8666 17.3068L25.1039 27.0895L15.3359 26.3268L16.0839 16.5588Z" fill="#7F8080"/>
<path fill-rule="evenodd" clip-rule="evenodd" d="M16.1134 16.5875L15.3654 26.2969L25.0747 27.0449L25.8227 17.3355L16.1134 16.5875ZM16.0107 16.4702L25.94 17.2329L25.1774 27.1622L15.248 26.3995L16.0107 16.4702Z" fill="#808080"/>
<path fill-rule="evenodd" clip-rule="evenodd" d="M16.0558 16.5143L15.2931 26.3703L25.1491 27.1183L25.8971 17.277L16.0558 16.5143ZM15.9531 16.397L26.0144 17.1743L25.2371 27.2356L15.1758 26.4583L15.9531 16.397Z" fill="#808181"/>
<path fill-rule="evenodd" clip-rule="evenodd" d="M15.9816 16.4408L15.2189 26.4288L25.2069 27.1915L25.9696 17.2035L15.9816 16.4408ZM15.8789 16.3235L26.0869 17.1008L25.3096 27.3088L15.1016 26.5315L15.8789 16.3235Z" fill="#818181"/>
<path fill-rule="evenodd" clip-rule="evenodd" d="M15.922 16.3673L15.1447 26.502L25.2793 27.2793L26.0567 17.1447L15.922 16.3673ZM15.8193 16.25L26.174 17.042L25.3673 27.3967L15.0273 26.59L15.8193 16.25Z" fill="#828282"/>
<path fill-rule="evenodd" clip-rule="evenodd" d="M15.8497 16.2797L15.0577 26.561L25.3391 27.353L26.1311 17.0717L15.8497 16.2797ZM15.7471 16.1624L26.2484 16.969L25.4417 27.4704L14.9551 26.6637L15.7471 16.1624Z" fill="#828282"/>
<path fill-rule="evenodd" clip-rule="evenodd" d="M15.7912 16.2062L14.9845 26.6342L25.4125 27.4262L26.2045 17.0129L15.7912 16.2062ZM15.6885 16.0889L26.3219 16.9102L25.5005 27.5435L14.8672 26.7222L15.6885 16.0889Z" fill="#838383"/>
<path fill-rule="evenodd" clip-rule="evenodd" d="M15.717 16.133L14.9103 26.693L25.4703 27.4996L26.277 16.9396L15.717 16.133ZM15.6143 16.0156L26.3943 16.837L25.573 27.617L14.793 26.7956L15.6143 16.0156Z" fill="#838484"/>
<path fill-rule="evenodd" clip-rule="evenodd" d="M15.6594 16.0595L14.838 26.7661L25.5447 27.5875L26.366 16.8808L15.6594 16.0595ZM15.5567 15.9421L26.4834 16.7781L25.6327 27.7048L14.7207 26.8541L15.5567 15.9421Z" fill="#848484"/>
<path fill-rule="evenodd" clip-rule="evenodd" d="M15.5852 15.9713L14.7492 26.8247L25.6025 27.6607L26.4385 16.8073L15.5852 15.9713ZM15.4825 15.8687L26.5558 16.7047L25.7052 27.778L14.6465 26.9273L15.4825 15.8687Z" fill="#848585"/>
<path fill-rule="evenodd" clip-rule="evenodd" d="M15.5266 15.8983L14.6759 26.8983L25.6759 27.7343L26.5119 16.749L15.5266 15.8983ZM15.4239 15.781L26.6293 16.6463L25.7639 27.8517L14.5586 26.9863L15.4239 15.781Z" fill="#858585"/>
<path fill-rule="evenodd" clip-rule="evenodd" d="M15.4543 15.8249L14.6037 26.9569L25.7357 27.8075L26.5863 16.6755L15.4543 15.8249ZM15.3663 15.7075L26.7037 16.5729L25.8383 27.9249L14.4863 27.0595L15.3663 15.7075Z" fill="#868686"/>
<path fill-rule="evenodd" clip-rule="evenodd" d="M15.3948 15.7516L14.5294 27.0303L25.8081 27.8956L26.6734 16.6169L15.3948 15.7516ZM15.2921 15.6343L26.7908 16.5143L25.8961 27.9983L14.4121 27.1183L15.2921 15.6343Z" fill="#868686"/>
<path fill-rule="evenodd" clip-rule="evenodd" d="M15.3225 15.6635L14.4425 27.0888L25.8678 27.9688L26.7478 16.5435L15.3225 15.6635ZM15.2345 15.5608L26.8652 16.4408L25.9705 28.0861L14.3398 27.1915L15.2345 15.5608Z" fill="#878787"/>
<path fill-rule="evenodd" clip-rule="evenodd" d="M15.264 15.5905L14.3693 27.1625L25.9413 28.0425L26.8213 16.4851L15.264 15.5905ZM15.1613 15.4731L26.9386 16.3825L26.0293 28.1598L14.252 27.2505L15.1613 15.4731Z" fill="#878888"/>
<path fill-rule="evenodd" clip-rule="evenodd" d="M15.1897 15.517L14.2951 27.221L25.9991 28.1157L26.8937 16.4117L15.1897 15.517ZM15.1017 15.3997L27.0111 16.309L26.1017 28.233L14.1777 27.3237L15.1017 15.3997Z" fill="#888888"/>
<path fill-rule="evenodd" clip-rule="evenodd" d="M15.1302 15.4435L14.2208 27.2942L26.0715 28.2035L26.9808 16.3528L15.1302 15.4435ZM15.0275 15.3262L27.0835 16.2502L26.1595 28.3062L14.1035 27.3822L15.0275 15.3262Z" fill="#888989"/>
<path fill-rule="evenodd" clip-rule="evenodd" d="M15.0579 15.3556L14.1339 27.3529L26.1313 28.2769L27.0553 16.2796L15.0579 15.3556ZM14.9699 15.2529L27.1726 16.1769L26.2339 28.3943L14.0312 27.4556L14.9699 15.2529Z" fill="#898989"/>
<path fill-rule="evenodd" clip-rule="evenodd" d="M14.9994 15.2824L14.0607 27.4264L26.2047 28.3504L27.1287 16.221L14.9994 15.2824ZM14.8967 15.165L27.246 16.1184L26.2927 28.4677L13.9434 27.5144L14.8967 15.165Z" fill="#8A8A8A"/>
<path fill-rule="evenodd" clip-rule="evenodd" d="M14.9251 15.2091L13.9865 27.4851L26.2625 28.4238L27.2011 16.1478L14.9251 15.2091ZM14.8371 15.0918L27.3185 16.0598L26.3651 28.5411L13.8691 27.5878L14.8371 15.0918Z" fill="#8A8A8A"/>
<path fill-rule="evenodd" clip-rule="evenodd" d="M14.8675 15.1356L13.9142 27.5436L26.3369 28.5116L27.2902 16.089L14.8675 15.1356ZM14.7649 15.0183L27.3929 15.9863L26.4249 28.6143L13.7969 27.6463L14.7649 15.0183Z" fill="#8B8B8B"/>
<path fill-rule="evenodd" clip-rule="evenodd" d="M14.7933 15.0475L13.84 27.6168L26.3947 28.5848L27.3627 16.0155L14.7933 15.0475ZM14.7053 14.9448L27.48 15.9275L26.4973 28.7022L13.7227 27.7195L14.7053 14.9448Z" fill="#8B8C8C"/>
<path fill-rule="evenodd" clip-rule="evenodd" d="M14.7348 14.9745L13.7521 27.6758L26.4681 28.6585L27.4361 15.9572L14.7348 14.9745ZM14.6321 14.8572L27.5534 15.8545L26.5561 28.7758L13.6348 27.7785L14.6321 14.8572Z" fill="#8C8C8C"/>
<path fill-rule="evenodd" clip-rule="evenodd" d="M14.6625 14.901L13.6798 27.749L26.5278 28.7317L27.5105 15.8837L14.6625 14.901ZM14.5745 14.7837L27.6278 15.7957L26.6305 28.849L13.5625 27.8517L14.5745 14.7837Z" fill="#8C8D8D"/>
<path fill-rule="evenodd" clip-rule="evenodd" d="M14.6029 14.8278L13.6056 27.8078L26.6003 28.8051L27.5976 15.8251L14.6029 14.8278ZM14.5003 14.7104L27.7003 15.7224L26.6883 28.9224L13.4883 27.9104L14.5003 14.7104Z" fill="#8D8D8D"/>
<path fill-rule="evenodd" clip-rule="evenodd" d="M14.5287 14.7543L13.5314 27.881L26.6581 28.893L27.6701 15.7516L14.5287 14.7543ZM14.4407 14.637L27.7874 15.6636L26.7607 29.0103L13.4141 27.9836L14.4407 14.637Z" fill="#8E8E8E"/>
<path fill-rule="evenodd" clip-rule="evenodd" d="M14.4721 14.6666L13.4455 27.94L26.7188 28.9667L27.7455 15.6933L14.4721 14.6666ZM14.3695 14.5493L27.8628 15.5906L26.8215 29.084L13.3281 28.0427L14.3695 14.5493Z" fill="#8E8F8F"/>
<path fill-rule="evenodd" clip-rule="evenodd" d="M14.3979 14.5932L13.3712 28.0132L26.7912 29.0398L27.8179 15.6198L14.3979 14.5932ZM14.3099 14.4758L27.9352 15.5318L26.8939 29.1572L13.2539 28.1158L14.3099 14.4758Z" fill="#8F8F8F"/>
<path fill-rule="evenodd" clip-rule="evenodd" d="M14.3384 14.5197L13.297 28.0717L26.849 29.113L27.905 15.561L14.3384 14.5197ZM14.2357 14.4023L28.0077 15.4583L26.9517 29.2303L13.1797 28.1743L14.2357 14.4023Z" fill="#8F9090"/>
<path fill-rule="evenodd" clip-rule="evenodd" d="M14.2661 14.4464L13.2248 28.1451L26.9234 29.2011L27.9794 15.4878L14.2661 14.4464ZM14.1781 14.3291L28.0968 15.3998L27.0261 29.3184L13.1074 28.2478L14.1781 14.3291Z" fill="#909090"/>
<path fill-rule="evenodd" clip-rule="evenodd" d="M14.2065 14.3585L13.1359 28.2039L26.9812 29.2745L28.0519 15.4292L14.2065 14.3585ZM14.1039 14.2412L28.1692 15.3265L27.0839 29.3919L13.0332 28.3065L14.1039 14.2412Z" fill="#909191"/>
<path fill-rule="evenodd" clip-rule="evenodd" d="M14.1333 14.2853L13.0626 28.2773L27.0546 29.348L28.1253 15.356L14.1333 14.2853ZM14.0453 14.168L28.2426 15.268L27.1573 29.4653L12.9453 28.38L14.0453 14.168Z" fill="#919191"/>
<path fill-rule="evenodd" clip-rule="evenodd" d="M14.0757 14.2118L12.9904 28.3358L27.1144 29.4211L28.1997 15.2971L14.0757 14.2118ZM13.973 14.0945L28.317 15.1945L27.217 29.5385L12.873 28.4385L13.973 14.0945Z" fill="#929292"/>
<path fill-rule="evenodd" clip-rule="evenodd" d="M14.0015 14.1383L12.9162 28.409L27.1868 29.509L28.2868 15.2237L14.0015 14.1383ZM13.9135 14.021L28.4042 15.1357L27.2895 29.6263L12.7988 28.5117L13.9135 14.021Z" fill="#929393"/>
<path fill-rule="evenodd" clip-rule="evenodd" d="M13.9439 14.0507L12.8292 28.468L27.2466 29.5827L28.3612 15.1653L13.9439 14.0507ZM13.8412 13.9333L28.4786 15.0627L27.3492 29.7L12.7266 28.5707L13.8412 13.9333Z" fill="#939393"/>
<path fill-rule="evenodd" clip-rule="evenodd" d="M13.8707 13.9772L12.756 28.5412L27.32 29.6559L28.4347 15.0919L13.8707 13.9772ZM13.7827 13.8599L28.552 15.0039L27.4227 29.7732L12.6387 28.6439L13.7827 13.8599Z" fill="#939494"/>
<path fill-rule="evenodd" clip-rule="evenodd" d="M13.8111 13.904L12.6818 28.6L27.3778 29.7293L28.5071 15.0333L13.8111 13.904ZM13.7085 13.7866L28.6245 14.9306L27.4805 29.8466L12.5645 28.7026L13.7085 13.7866Z" fill="#949494"/>
<path fill-rule="evenodd" clip-rule="evenodd" d="M13.7389 13.8305L12.6095 28.6731L27.4522 29.8171L28.5962 14.9598L13.7389 13.8305ZM13.6509 13.7131L28.7135 14.8718L27.5549 29.9198L12.4922 28.7758L13.6509 13.7131Z" fill="#949595"/>
<path fill-rule="evenodd" clip-rule="evenodd" d="M13.6793 13.7423L12.5206 28.7316L27.51 29.8903L28.6686 14.901L13.6793 13.7423ZM13.5766 13.6396L28.786 14.7983L27.6126 30.0076L12.418 28.8343L13.5766 13.6396Z" fill="#959595"/>
<path fill-rule="evenodd" clip-rule="evenodd" d="M13.6061 13.6693L12.4474 28.8053L27.5834 29.964L28.7421 14.828L13.6061 13.6693ZM13.5181 13.552L28.8594 14.74L27.6861 30.0813L12.3301 28.908L13.5181 13.552Z" fill="#969696"/>
<path fill-rule="evenodd" clip-rule="evenodd" d="M13.5465 13.5958L12.3732 28.8638L27.6412 30.0372L28.8145 14.7692L13.5465 13.5958ZM13.4439 13.4785L28.9319 14.6665L27.7439 30.1545L12.2559 28.9665L13.4439 13.4785Z" fill="#969797"/>
<path fill-rule="evenodd" clip-rule="evenodd" d="M13.4743 13.5226L12.3009 28.9373L27.7156 30.1253L28.9036 14.6959L13.4743 13.5226ZM13.3863 13.4053L29.0063 14.6079L27.8183 30.2279L12.1836 29.0399L13.3863 13.4053Z" fill="#979797"/>
<path fill-rule="evenodd" clip-rule="evenodd" d="M13.4147 13.4345L12.212 28.9958L27.7734 30.1985L28.976 14.6371L13.4147 13.4345ZM13.312 13.3318L29.0934 14.5345L27.876 30.3158L12.1094 29.0985L13.312 13.3318Z" fill="#979898"/>
<path fill-rule="evenodd" clip-rule="evenodd" d="M13.3415 13.3615L12.1388 29.0695L27.8468 30.2721L29.0495 14.5641L13.3415 13.3615ZM13.2535 13.2441L29.1668 14.4761L27.9495 30.3895L12.0215 29.1721L13.2535 13.2441Z" fill="#989898"/>
<path fill-rule="evenodd" clip-rule="evenodd" d="M13.2839 13.288L12.0666 29.128L27.9066 30.3453L29.1239 14.5053L13.2839 13.288ZM13.1812 13.1707L29.2412 14.4027L28.0092 30.4627L11.9492 29.2307L13.1812 13.1707Z" fill="#989999"/>
<path fill-rule="evenodd" clip-rule="evenodd" d="M13.2097 13.2145L11.9923 29.2012L27.979 30.4332L29.211 14.4318L13.2097 13.2145ZM13.1217 13.0972L29.3137 14.3438L28.0817 30.5358L11.875 29.3038L13.1217 13.0972Z" fill="#999999"/>
<path fill-rule="evenodd" clip-rule="evenodd" d="M13.1521 13.1266L11.9201 29.2599L28.0387 30.5066L29.2854 14.3733L13.1521 13.1266ZM13.0494 13.0239L29.4027 14.2706L28.1414 30.6239L11.8027 29.3626L13.0494 13.0239Z" fill="#9A9A9A"/>
<path fill-rule="evenodd" clip-rule="evenodd" d="M13.0935 13.0534L11.8322 29.3334L28.1122 30.58L29.3588 14.3L13.0935 13.0534ZM12.9908 12.936L29.4762 14.212L28.2148 30.6974L11.7148 29.436L12.9908 12.936Z" fill="#9A9B9B"/>
<path fill-rule="evenodd" clip-rule="evenodd" d="M13.0193 12.9801L11.758 29.3921L28.17 30.6535L29.4313 14.2415L13.0193 12.9801ZM12.9166 12.8628L29.5486 14.1388L28.2726 30.7708L11.6406 29.4948L12.9166 12.8628Z" fill="#9B9B9B"/>
<path fill-rule="evenodd" clip-rule="evenodd" d="M12.9597 12.9066L11.6837 29.4653L28.2424 30.7413L29.5184 14.168L12.9597 12.9066ZM12.8571 12.7893L29.6211 14.08L28.3451 30.844L11.5664 29.568L12.8571 12.7893Z" fill="#9B9C9C"/>
<path fill-rule="evenodd" clip-rule="evenodd" d="M12.8875 12.8332L11.6115 29.5238L28.3021 30.8145L29.5928 14.1092L12.8875 12.8332ZM12.7848 12.7158L29.7101 14.0065L28.4048 30.9318L11.4941 29.6265L12.7848 12.7158Z" fill="#9C9C9C"/>
<path fill-rule="evenodd" clip-rule="evenodd" d="M12.8289 12.7455L11.5236 29.5975L28.3756 30.8882L29.6663 14.0362L12.8289 12.7455ZM12.7263 12.6282L29.7836 13.9482L28.4783 31.0055L11.4062 29.7002L12.7263 12.6282Z" fill="#9C9D9D"/>
<path fill-rule="evenodd" clip-rule="evenodd" d="M12.7547 12.672L11.4494 29.656L28.4334 30.9614L29.7387 13.9774L12.7547 12.672ZM12.652 12.5547L29.856 13.8747L28.536 31.0787L11.332 29.7587L12.652 12.5547Z" fill="#9D9D9D"/>
<path fill-rule="evenodd" clip-rule="evenodd" d="M12.6971 12.5988L11.3771 29.7294L28.5078 31.0348L29.8278 13.9041L12.6971 12.5988ZM12.5944 12.4814L29.9304 13.8161L28.6104 31.1521L11.2598 29.8174L12.5944 12.4814Z" fill="#9D9E9E"/>
<path fill-rule="evenodd" clip-rule="evenodd" d="M12.6229 12.5253L11.3029 29.788L28.5655 31.1226L29.9002 13.8453L12.6229 12.5253ZM12.5202 12.408L30.0175 13.7426L28.6682 31.24L11.1855 29.8906L12.5202 12.408Z" fill="#9E9E9E"/>
<path fill-rule="evenodd" clip-rule="evenodd" d="M12.5643 12.4376L11.215 29.8616L28.639 31.1963L29.9737 13.787L12.5643 12.4376ZM12.4617 12.3203L30.091 13.6843L28.7417 31.3136L11.0977 29.9496L12.4617 12.3203Z" fill="#9E9F9F"/>
<path fill-rule="evenodd" clip-rule="evenodd" d="M12.4921 12.3642L11.1427 29.9202L28.6987 31.2695L30.0481 13.7135L12.4921 12.3642ZM12.3894 12.2468L30.1654 13.6108L28.8014 31.3868L11.0254 30.0228L12.3894 12.2468Z" fill="#9F9F9F"/>
<path fill-rule="evenodd" clip-rule="evenodd" d="M12.4325 12.2907L11.0685 29.9933L28.7712 31.3427L30.1205 13.6547L12.4325 12.2907ZM12.3298 12.1733L30.2378 13.552L28.8738 31.46L10.9512 30.0813L12.3298 12.1733Z" fill="#9FA0A0"/>
<path fill-rule="evenodd" clip-rule="evenodd" d="M12.3602 12.2174L10.9962 30.0521L28.8309 31.4308L30.2096 13.5814L12.3602 12.2174ZM12.2576 12.1001L30.3269 13.4788L28.9336 31.5481L10.8789 30.1548L12.2576 12.1001Z" fill="#A0A0A0"/>
<path fill-rule="evenodd" clip-rule="evenodd" d="M12.3007 12.1288L10.9074 30.1248L28.9034 31.5035L30.282 13.5221L12.3007 12.1288ZM12.198 12.0115L30.3994 13.4195L28.9914 31.6208L10.8047 30.2128L12.198 12.0115Z" fill="#A0A1A1"/>
<path fill-rule="evenodd" clip-rule="evenodd" d="M12.2275 12.0563L10.8341 30.1843L28.9621 31.5776L30.3555 13.4496L12.2275 12.0563ZM12.1248 11.939L30.4728 13.347L29.0648 31.695L10.7168 30.287L12.1248 11.939Z" fill="#A1A1A1"/>
<path fill-rule="evenodd" clip-rule="evenodd" d="M12.1699 11.9828L10.7619 30.2575L29.0365 31.6508L30.4299 13.3908L12.1699 11.9828ZM12.0672 11.8655L30.5472 13.2881L29.1245 31.7681L10.6445 30.3455L12.0672 11.8655Z" fill="#A1A2A2"/>
<path fill-rule="evenodd" clip-rule="evenodd" d="M12.0956 11.9093L10.6876 30.316L29.0943 31.7387L30.517 13.3173L12.0956 11.9093ZM11.993 11.792L30.6343 13.2147L29.197 31.8413L10.5703 30.4187L11.993 11.792Z" fill="#A2A2A2"/>
<path fill-rule="evenodd" clip-rule="evenodd" d="M12.0361 11.8214L10.5988 30.3894L29.1668 31.8121L30.5894 13.2587L12.0361 11.8214ZM11.9334 11.7188L30.7068 13.1561L29.2548 31.9294L10.4961 30.4774L11.9334 11.7188Z" fill="#A2A3A3"/>
<path fill-rule="evenodd" clip-rule="evenodd" d="M11.9629 11.7482L10.5255 30.4482L29.2255 31.8855L30.6629 13.1855L11.9629 11.7482ZM11.8602 11.6309L30.7802 13.0829L29.3282 32.0029L10.4082 30.5509L11.8602 11.6309Z" fill="#A3A3A3"/>
<path fill-rule="evenodd" clip-rule="evenodd" d="M11.9053 11.675L10.4533 30.5216L29.2999 31.959L30.7373 13.127L11.9053 11.675ZM11.8026 11.5576L30.8546 13.0243L29.3879 32.0763L10.3359 30.6096L11.8026 11.5576Z" fill="#A3A4A4"/>
<path fill-rule="evenodd" clip-rule="evenodd" d="M11.8311 11.6015L10.3791 30.5801L29.3577 32.0468L30.8244 13.0535L11.8311 11.6015ZM11.7284 11.4841L30.9271 12.9508L29.4604 32.1495L10.2617 30.6828L11.7284 11.4841Z" fill="#A4A4A4"/>
<path fill-rule="evenodd" clip-rule="evenodd" d="M11.7735 11.5133L10.2921 30.6533L29.4321 32.12L30.8988 12.9946L11.7735 11.5133ZM11.6708 11.4106L31.0161 12.892L29.5201 32.2373L10.1895 30.7413L11.6708 11.4106Z" fill="#A4A5A5"/>
<path fill-rule="evenodd" clip-rule="evenodd" d="M11.7002 11.4394L10.2189 30.7114L29.4909 32.1927L30.9722 12.9207L11.7002 11.4394ZM11.5976 11.322L31.0896 12.818L29.5936 32.31L10.1016 30.814L11.5976 11.322Z" fill="#A5A5A5"/>
<path fill-rule="evenodd" clip-rule="evenodd" d="M11.6407 11.3668L10.1447 30.7855L29.5633 32.2668L31.0447 12.8628L11.6407 11.3668ZM11.538 11.2495L31.162 12.7602L29.6513 32.3842L10.0273 30.8735L11.538 11.2495Z" fill="#A5A6A6"/>
<path fill-rule="evenodd" clip-rule="evenodd" d="M11.5684 11.2936L10.0724 30.8443L29.6231 32.3549L31.1337 12.7896L11.5684 11.2936ZM11.4657 11.1763L31.2364 12.6869L29.7257 32.4576L9.95508 30.9469L11.4657 11.1763Z" fill="#A6A6A6"/>
<path fill-rule="evenodd" clip-rule="evenodd" d="M11.5089 11.2054L9.99819 30.9174L29.6955 32.4281L31.2062 12.7308L11.5089 11.2054ZM11.4062 11.1028L31.3235 12.6281L29.7835 32.5455L9.88086 31.0055L11.4062 11.1028Z" fill="#A6A7A7"/>
<path fill-rule="evenodd" clip-rule="evenodd" d="M11.4356 11.1315L9.9103 30.9755L29.7543 32.5008L31.2796 12.6568L11.4356 11.1315ZM11.333 11.0142L31.397 12.5542L29.857 32.6182L9.79297 31.0782L11.333 11.0142Z" fill="#A7A7A7"/>
<path fill-rule="evenodd" clip-rule="evenodd" d="M11.3761 11.058L9.83608 31.0487L29.8267 32.574L31.3521 12.598L11.3761 11.058ZM11.2734 10.9407L31.4694 12.4953L29.9148 32.6913L9.71875 31.1367L11.2734 10.9407Z" fill="#A7A8A8"/>
<path fill-rule="evenodd" clip-rule="evenodd" d="M11.3038 10.9855L9.76382 31.1082L29.8865 32.6628L31.4412 12.5255L11.3038 10.9855ZM11.2012 10.8682L31.5438 12.4228L29.9892 32.7655L9.64648 31.2108L11.2012 10.8682Z" fill="#A8A8A8"/>
<path fill-rule="evenodd" clip-rule="evenodd" d="M11.2443 10.9123L9.6896 31.1816L29.9589 32.7363L31.5136 12.4669L11.2443 10.9123ZM11.1416 10.7949L31.6309 12.3643L30.0469 32.8536L9.57227 31.2696L11.1416 10.7949Z" fill="#A8A9A9"/>
<path fill-rule="evenodd" clip-rule="evenodd" d="M11.171 10.8236L9.60171 31.2396L30.0177 32.809L31.587 12.393L11.171 10.8236ZM11.0684 10.7063L31.7044 12.2903L30.1204 32.9263L9.48438 31.3423L11.0684 10.7063Z" fill="#A9A9A9"/>
<path fill-rule="evenodd" clip-rule="evenodd" d="M11.1134 10.7501L9.52944 31.3128L30.0921 32.8821L31.6614 12.3341L11.1134 10.7501ZM11.0108 10.6328L31.7788 12.2315L30.1801 32.9995L9.41211 31.4008L11.0108 10.6328Z" fill="#A9AAAA"/>
<path fill-rule="evenodd" clip-rule="evenodd" d="M11.0392 10.6767L9.45522 31.3713L30.1499 32.9553L31.7486 12.2607L11.0392 10.6767ZM10.9366 10.5593L31.8512 12.158L30.2526 33.0727L9.33789 31.474L10.9366 10.5593Z" fill="#A9AAAA"/>
<path fill-rule="evenodd" clip-rule="evenodd" d="M10.9816 10.6041L9.38296 31.4455L30.2243 33.0442L31.823 12.2028L10.9816 10.6041ZM10.879 10.4868L31.9403 12.1001L30.3123 33.1615L9.26562 31.5335L10.879 10.4868Z" fill="#AAABAB"/>
<path fill-rule="evenodd" clip-rule="evenodd" d="M10.9084 10.5155L9.29507 31.5035L30.2831 33.1169L31.8964 12.1289L10.9084 10.5155ZM10.8204 10.3982L32.0137 12.0262L30.3857 33.2342L9.17773 31.6062L10.8204 10.3982Z" fill="#AAABAB"/>
<path fill-rule="evenodd" clip-rule="evenodd" d="M10.8488 10.4423L9.22085 31.577L30.3555 33.1903L31.9688 12.0703L10.8488 10.4423ZM10.7462 10.325L32.0862 11.9676L30.4435 33.3076L9.10352 31.665L10.7462 10.325Z" fill="#ABACAC"/>
<path fill-rule="evenodd" clip-rule="evenodd" d="M10.7766 10.3688L9.14858 31.6355L30.4153 33.2635L32.0433 11.9968L10.7766 10.3688ZM10.6886 10.2515L32.1606 11.8941L30.5179 33.3808L9.03125 31.7381L10.6886 10.2515Z" fill="#ABACAC"/>
<path fill-rule="evenodd" clip-rule="evenodd" d="M10.717 10.2953L9.07436 31.7086L30.4877 33.3513L32.1304 11.938L10.717 10.2953ZM10.6144 10.178L32.2477 11.8353L30.5757 33.4686L8.95703 31.7966L10.6144 10.178Z" fill="#ACADAD"/>
<path fill-rule="evenodd" clip-rule="evenodd" d="M10.6428 10.2077L8.98548 31.7677L30.5455 33.425L32.2028 11.865L10.6428 10.2077ZM10.5548 10.0903L32.3201 11.7623L30.6481 33.5423L8.88281 31.8703L10.5548 10.0903Z" fill="#ACADAD"/>
<path fill-rule="evenodd" clip-rule="evenodd" d="M10.5862 10.1342L8.91421 31.8408L30.6209 33.4982L32.2782 11.8062L10.5862 10.1342ZM10.4835 10.0168L32.3955 11.7035L30.7089 33.6155L8.79688 31.9288L10.4835 10.0168Z" fill="#ADAEAE"/>
<path fill-rule="evenodd" clip-rule="evenodd" d="M10.512 10.0609L8.83999 31.8996L30.6787 33.5716L32.3507 11.7329L10.512 10.0609ZM10.424 9.9436L32.468 11.6303L30.7813 33.6889L8.72266 32.0023L10.424 9.9436Z" fill="#ADAEAE"/>
<path fill-rule="evenodd" clip-rule="evenodd" d="M10.4524 9.98745L8.76577 31.9728L30.7511 33.6594L32.4378 11.6741L10.4524 9.98745ZM10.3498 9.87012L32.5551 11.5715L30.8391 33.7621L8.64844 32.0608L10.3498 9.87012Z" fill="#AEAEAE"/>
<path fill-rule="evenodd" clip-rule="evenodd" d="M10.3802 9.90027L8.67884 32.0323L30.8108 33.7336L32.5122 11.6016L10.3802 9.90027ZM10.2922 9.79761L32.6295 11.5136L30.9135 33.8509L8.57617 32.1349L10.2922 9.79761Z" fill="#AEAFAF"/>
<path fill-rule="evenodd" clip-rule="evenodd" d="M10.3216 9.82632L8.60561 32.0903L30.8843 33.8063L32.5856 11.5423L10.3216 9.82632ZM10.2189 9.70898L32.7029 11.4397L30.9723 33.9237L8.48828 32.193L10.2189 9.70898Z" fill="#AFAFAF"/>
<path fill-rule="evenodd" clip-rule="evenodd" d="M10.2474 9.75283L8.5314 32.1635L30.9421 33.8795L32.6581 11.4688L10.2474 9.75283ZM10.1594 9.6355L32.7754 11.3808L31.0447 33.9968L8.41406 32.2662L10.1594 9.6355Z" fill="#AFB0B0"/>
<path fill-rule="evenodd" clip-rule="evenodd" d="M10.1898 9.67959L8.45913 32.2223L31.0165 33.9676L32.7471 11.4103L10.1898 9.67959ZM10.0871 9.56226L32.8645 11.3076L31.1045 34.0703L8.3418 32.3249L10.0871 9.56226Z" fill="#B0B0B0"/>
<path fill-rule="evenodd" clip-rule="evenodd" d="M10.1156 9.59144L8.37024 32.2954L31.0742 34.0408L32.8196 11.3368L10.1156 9.59144ZM10.0276 9.48877L32.9369 11.2488L31.1769 34.1581L8.26758 32.3981L10.0276 9.48877Z" fill="#B0B1B1"/>
<path fill-rule="evenodd" clip-rule="evenodd" d="M10.057 9.51846L8.29702 32.3545L31.1477 34.1145L32.893 11.2785L10.057 9.51846ZM9.95435 9.40112L33.0104 11.1758L31.2357 34.2318L8.17969 32.4571L9.95435 9.40112Z" fill="#B1B1B1"/>
<path fill-rule="evenodd" clip-rule="evenodd" d="M9.98476 9.44497L8.22476 32.4276L31.2074 34.1876L32.9674 11.205L9.98476 9.44497ZM9.89676 9.32764L33.0848 11.117L31.3101 34.305L8.10742 32.5303L9.89676 9.32764Z" fill="#B1B2B2"/>
<path fill-rule="evenodd" clip-rule="evenodd" d="M9.9252 9.37148L8.15054 32.4862L31.2652 34.2755L33.0545 11.1462L9.9252 9.37148ZM9.82254 9.25415L33.1572 11.0435L31.3679 34.3782L8.0332 32.5888L9.82254 9.25415Z" fill="#B2B2B2"/>
<path fill-rule="evenodd" clip-rule="evenodd" d="M9.85098 9.28357L8.07632 32.5596L31.3377 34.3489L33.127 11.0729L9.85098 9.28357ZM9.76298 9.18091L33.2443 10.9849L31.4403 34.4662L7.95898 32.6622L9.76298 9.18091Z" fill="#B2B3B3"/>
<path fill-rule="evenodd" clip-rule="evenodd" d="M9.79243 9.21035L7.98843 32.6184L31.3964 34.4223L33.2004 11.0144L9.79243 9.21035ZM9.68976 9.09302L33.3178 10.9117L31.4991 34.5397L7.87109 32.721L9.68976 9.09302Z" fill="#B3B3B3"/>
<path fill-rule="evenodd" clip-rule="evenodd" d="M9.72016 9.13711L7.91616 32.6918L31.4708 34.4958L33.2748 10.9411L9.72016 9.13711ZM9.63216 9.01978L33.3922 10.8531L31.5735 34.6131L7.79883 32.7944L9.63216 9.01978Z" fill="#B3B4B4"/>
<path fill-rule="evenodd" clip-rule="evenodd" d="M9.66061 9.06362L7.84194 32.7503L31.5286 34.5836L33.3619 10.8823L9.66061 9.06362ZM9.55794 8.94629L33.4646 10.7796L31.6313 34.6863L7.72461 32.853L9.55794 8.94629Z" fill="#B4B4B4"/>
<path fill-rule="evenodd" clip-rule="evenodd" d="M9.58834 8.97547L7.76968 32.8235L31.603 34.6568L33.4363 10.8088L9.58834 8.97547ZM9.50034 8.8728L33.5537 10.7208L31.7057 34.7741L7.65234 32.9261L9.50034 8.8728Z" fill="#B4B5B5"/>
<path fill-rule="evenodd" clip-rule="evenodd" d="M9.52979 8.90249L7.68179 32.8825L31.6618 34.7305L33.5098 10.7505L9.52979 8.90249ZM9.42712 8.78516L33.6271 10.6478L31.7645 34.8478L7.56445 32.9852L9.42712 8.78516Z" fill="#B5B5B5"/>
<path fill-rule="evenodd" clip-rule="evenodd" d="M9.45557 8.829L7.60757 32.9557L31.7342 34.8037L33.5822 10.677L9.45557 8.829ZM9.36757 8.71167L33.6996 10.589L31.8369 34.921L7.49023 33.0583L9.36757 8.71167Z" fill="#B5B6B6"/>
<path fill-rule="evenodd" clip-rule="evenodd" d="M9.39797 8.75576L7.5353 33.0144L31.794 34.8771L33.6713 10.6184L9.39797 8.75576ZM9.2953 8.63843L33.774 10.5158L31.8966 34.9944L7.41797 33.1171L9.2953 8.63843Z" fill="#B6B6B6"/>
<path fill-rule="evenodd" clip-rule="evenodd" d="M9.32375 8.68227L7.46108 33.0876L31.8664 34.9649L33.7437 10.5449L9.32375 8.68227ZM9.23575 8.56494L33.8611 10.4569L31.9691 35.0823L7.34375 33.1903L9.23575 8.56494Z" fill="#B6B7B7"/>
<path fill-rule="evenodd" clip-rule="evenodd" d="M9.26519 8.59463L7.37319 33.1466L31.9252 35.0386L33.8172 10.4866L9.26519 8.59463ZM9.16253 8.47729L33.9345 10.384L32.0279 35.156L7.25586 33.2493L9.16253 8.47729Z" fill="#B7B7B7"/>
<path fill-rule="evenodd" clip-rule="evenodd" d="M9.19293 8.52114L7.30093 33.2198L31.9996 35.1118L33.8916 10.4131L9.19293 8.52114ZM9.10493 8.40381L34.0089 10.3251L32.1023 35.2291L7.18359 33.3225L9.10493 8.40381Z" fill="#B7B8B8"/>
<path fill-rule="evenodd" clip-rule="evenodd" d="M9.13234 8.4476L7.22568 33.2783L32.0563 35.1849L33.963 10.3543L9.13234 8.4476ZM9.05901 8.37427L34.051 10.2809L32.1297 35.2729L7.15234 33.3516L9.05901 8.37427Z" fill="#B8B8B8"/>
</g>
<path fill-rule="evenodd" clip-rule="evenodd" d="M21.9947 13.5075C23.2707 13.7275 24.4587 14.2555 25.456 15.0182C25.6174 15.1355 25.7787 15.2675 25.9254 15.4142C25.984 14.6809 26.1014 13.9329 26.292 13.2142C25.984 13.0382 25.7054 12.8622 25.456 12.7009C25.3534 12.6422 25.2507 12.5689 25.1627 12.5102C24.0334 11.7622 23.3 11.0875 22.2587 10.1195C22.1707 10.0609 22.0827 10.0022 21.9947 9.94352C21.012 9.40085 19.3987 9.41552 18.724 10.1195C18.68 10.1635 18.636 10.2075 18.592 10.2515C17.5507 11.1609 16.9494 11.6742 15.4974 12.5102C15.38 12.5835 15.2627 12.6422 15.1307 12.7155C14.9254 12.8329 14.7054 12.9502 14.4707 13.0822C14.6614 14.0355 14.764 14.9302 14.8227 15.8395C14.9254 15.7222 15.028 15.6342 15.1307 15.5315C16.0987 14.6369 17.272 13.9769 18.592 13.6395C19.2374 13.4782 19.8974 13.3902 20.6014 13.3902C21.0707 13.3902 21.54 13.4342 21.9947 13.5075Z" fill="#DFE0E0"/>
<path fill-rule="evenodd" clip-rule="evenodd" d="M18.592 29.3624C17.272 29.025 16.0987 28.365 15.1307 27.4704C15.0134 27.3677 14.9107 27.265 14.808 27.1624C14.764 28.013 14.6907 28.805 14.544 29.5384C14.5147 29.6557 14.5 29.773 14.4707 29.8904C14.6907 30.0077 14.9107 30.1397 15.1307 30.257C16.26 30.9024 17.36 31.6357 18.284 32.5304C18.3867 32.6184 18.4894 32.6917 18.592 32.7797C18.6947 32.853 18.812 32.941 18.944 33.0144C20.044 33.6597 21.1587 33.5277 21.9947 33.0144C22.2147 32.8677 22.42 32.7064 22.596 32.5304C23.7987 31.3864 24.444 30.917 25.456 30.2717C25.6907 30.125 25.9547 29.9637 26.248 29.773C26.2334 29.6997 26.2187 29.6117 26.204 29.5384C26.0867 28.937 25.9987 28.2624 25.9547 27.573C25.7934 27.7197 25.6174 27.8664 25.456 27.9837C24.4587 28.7464 23.2707 29.2744 21.9947 29.4944C21.9214 29.509 21.848 29.5237 21.7747 29.5384C21.3934 29.5824 20.9974 29.6117 20.6014 29.6117C20.1907 29.6117 19.8094 29.5824 19.428 29.5384C19.1347 29.4944 18.856 29.4357 18.592 29.3624Z" fill="#DFE0E0"/>
<path fill-rule="evenodd" clip-rule="evenodd" d="M23.1816 13.8158V13.0238C23.1229 12.8332 23.0643 12.6718 23.0056 12.5105C22.7416 11.9238 22.3749 11.5132 21.9936 11.2492C21.4363 10.8678 20.8349 10.7505 20.3509 10.7358C19.8083 10.7358 19.1336 10.9118 18.5909 11.3665C18.2683 11.6452 17.9896 12.0118 17.8429 12.5105C17.7843 12.6865 17.7403 12.8918 17.7109 13.0972V13.9185V15.8692V19.1985C17.9896 18.9492 18.2829 18.7438 18.5909 18.6118C19.6909 18.0985 20.8936 18.2598 21.9936 18.8318C22.2723 18.9785 22.5363 19.1398 22.8003 19.3452C22.9323 19.4332 23.0496 19.5505 23.1816 19.6532V19.3452V15.8692V13.8158Z" fill="black"/>
<path fill-rule="evenodd" clip-rule="evenodd" d="M23.0643 20.8121C22.9616 20.4308 22.5363 20.0788 21.9936 19.8001C21.6416 19.6241 21.2309 19.4628 20.8056 19.3455C20.6003 19.2868 20.3803 19.2281 20.1749 19.1841C19.6616 19.0961 19.0896 19.1255 18.6056 19.3455H18.5909C18.2243 19.5215 17.9163 19.8001 17.7109 20.2255V21.7801C17.9896 22.1028 18.2829 22.3521 18.5909 22.5135C18.7376 22.5868 18.8696 22.6601 19.0163 22.7041C19.6029 22.9095 20.2043 22.8655 20.7469 22.7041C21.2016 22.5721 21.6269 22.3375 21.9936 22.0735C22.5509 21.6628 22.9616 21.1641 23.0643 20.8121Z" fill="black"/>
<path fill-rule="evenodd" clip-rule="evenodd" d="M21.9936 23.1883C20.9963 23.7309 19.7643 23.8336 18.5909 23.3203C18.2976 23.1883 17.9896 23.0123 17.7109 22.8069V26.1656V29.0843V29.5389V30.0523C18.0043 30.5216 18.2829 30.9323 18.5909 31.2696C19.2069 31.9589 19.8816 32.3549 20.7909 32.3549C21.1869 32.3549 21.5976 32.1936 21.9936 31.8563C22.4336 31.4749 22.8589 30.8736 23.1816 30.0523V29.5389V29.1869V26.1656V22.7043V22.1763C23.0349 22.3669 22.8736 22.5429 22.6829 22.7043C22.4776 22.8949 22.2429 23.0563 21.9936 23.1883Z" fill="black"/>
<path fill-rule="evenodd" clip-rule="evenodd" d="M15.5269 14.0068C15.5269 18.8908 15.5269 24.0241 15.5269 28.9081C15.5269 29.1721 15.3803 29.4508 15.0723 29.6415C15.5856 29.5681 15.8203 29.7441 16.0109 29.9788C15.8496 27.6028 15.8349 25.8135 15.8643 23.2175C15.9083 19.5948 15.8936 16.2655 15.9963 13.0535C15.7323 13.3028 15.4096 13.3908 15.0723 13.3468C15.3216 13.5228 15.5269 13.8015 15.5269 14.0068Z" fill="white"/>
<path fill-rule="evenodd" clip-rule="evenodd" d="M25.9836 18.4505C25.5729 18.3771 25.2943 18.5385 25.0743 18.7731C25.3236 16.9985 25.3823 15.1945 25.0449 13.3318C25.7343 13.8305 25.5729 13.9625 25.5583 14.4611C25.5583 15.4291 25.5436 16.3971 25.5436 17.3505C25.5436 17.9811 25.6756 18.1425 25.9836 18.4505Z" fill="white"/>
<path fill-rule="evenodd" clip-rule="evenodd" d="M25.0742 22.8799C25.2649 24.1119 25.5142 28.1012 25.1476 29.8759C25.4262 29.7439 25.5289 29.6265 25.8809 29.5092C25.3236 29.0105 25.5729 25.2265 25.5582 23.9799C25.5876 23.6719 25.7196 23.4665 26.0422 23.2172C25.6316 23.2612 25.3969 23.1732 25.0742 22.8799Z" fill="white"/>
<path fill-rule="evenodd" clip-rule="evenodd" d="M27.3039 28.1601C27.1572 23.2907 27.6266 17.6294 26.8786 13.5374C28.2279 13.9481 29.5186 14.4174 31.3666 14.3294C31.2199 14.8574 30.0466 15.0041 29.8266 15.5614C29.8412 19.5507 29.8412 23.5254 29.8412 27.5001C29.8706 28.3507 30.2372 28.7907 31.1172 29.4361C28.5359 29.4801 28.0519 32.2961 24.6639 32.1347C22.5226 32.1934 19.6479 30.5361 19.1492 26.8254L19.0319 16.1481C19.1052 15.5174 18.9146 15.0481 18.5039 14.6374C19.2959 13.6841 19.9266 12.7454 20.3226 11.5281C20.7186 12.7307 21.3199 13.6694 22.1412 14.5054L21.5986 15.5321C21.5986 19.8294 21.5986 24.1121 21.5986 28.4094C21.9066 29.9787 22.7719 31.2254 24.8106 31.3134C26.0572 31.1814 27.1426 30.0667 27.3039 28.1601Z" fill="#B6252A"/>
<path fill-rule="evenodd" clip-rule="evenodd" d="M27.5518 14.2849C27.8011 14.2409 28.0651 15.0769 28.1091 16.3822C28.2264 19.5649 28.3144 25.4902 28.0211 28.2915C27.9478 29.0249 27.7424 29.4942 27.5371 29.5675C27.6544 29.3329 27.7571 28.3355 27.7718 26.9569C27.8011 24.0235 27.8304 19.3595 27.7718 16.4995C27.7424 15.4875 27.6544 14.6955 27.5518 14.2849Z" fill="#D45155"/>
<path fill-rule="evenodd" clip-rule="evenodd" d="M19.6459 15.8691C19.6606 15.4291 19.6313 14.9891 19.3086 14.6958C19.4553 14.2998 19.7193 13.9771 20.1299 13.7131V24.9771C19.9686 24.5078 19.9246 23.8771 19.6606 23.5691L19.6459 15.8691Z" fill="#D45155"/>
<defs>
<linearGradient id="paint0_linear_2304_511" x1="7.78937" y1="24.5783" x2="36.4337" y2="24.5783" gradientUnits="userSpaceOnUse">
<stop stop-color="#F8DA36"/>
<stop offset="0.701961" stop-color="#F7CA30"/>
<stop offset="1" stop-color="#F6BA2A"/>
</linearGradient>
</defs>
</svg>
