<svg width="41" height="24" viewBox="0 0 41 24" fill="none" xmlns="http://www.w3.org/2000/svg">
<g clip-path="url(#clip0_2304_471)">
<path d="M8.09117 8.12651C6.4854 8.12651 5.00112 8.66881 3.79415 9.58966V3.00635H-0.00195312V23.1991H3.79415V22.0317C5.00024 22.9526 6.4854 23.4949 8.09117 23.4949C12.1338 23.4949 15.4122 20.0553 15.4122 15.8103C15.4122 11.5652 12.1338 8.12651 8.09117 8.12651ZM7.72758 19.7437C5.55574 19.7437 3.79415 17.9821 3.79415 15.8103C3.79415 13.6384 5.55574 11.8777 7.72758 11.8777C9.89943 11.8777 11.6601 13.6384 11.6601 15.8103C11.6601 17.9821 9.89943 19.7437 7.72758 19.7437Z" fill="#015BFD"/>
<path d="M40.9974 13.6832V23.1981H37.2004V14.0934C37.2004 13.6603 37.0701 13.2316 36.8272 12.8724C36.4002 12.2412 35.6598 11.9216 34.9186 11.8609C34.2653 11.8072 33.5285 11.9278 32.9545 12.257C32.7626 12.3671 32.5847 12.5 32.4254 12.6532C31.913 13.1462 31.6075 13.8364 31.6075 14.5495V23.199H27.8105V8.50405H31.6075V9.29549C31.6075 9.06748 32.6446 8.62906 32.8312 8.54983C33.3145 8.34559 33.8287 8.2197 34.3498 8.16248C37.7551 7.78744 40.9957 10.0878 40.9957 13.6841L40.9974 13.6832Z" fill="#015BFD"/>
<path d="M26.0671 12.1947V8.50341H21.778V4.51099H20.5235L17.981 6.28403V8.8802L15.4121 10.883V12.1947H17.981V17.9171C17.981 18.4514 18.0391 18.9858 18.172 19.5026C18.996 22.7141 21.8775 23.4932 23.4929 23.4932C25.2818 23.4932 26.068 22.9166 26.068 22.9166V19.308C26.068 19.308 25.405 19.8327 23.7086 19.8327C23.0298 19.8327 22.5853 19.6003 22.2965 19.3204C21.9576 18.9929 21.778 18.5333 21.778 18.0623V12.1939H26.0671V12.1947Z" fill="#015BFD"/>
<path d="M40.1956 0.544842L28.3354 5.0646C28.0203 5.18433 27.8125 5.48717 27.8125 5.82434V6.61667C27.8125 6.75488 27.9375 6.85964 28.0731 6.83499L39.1735 4.84099C40.2299 4.65083 40.9976 3.73262 40.9976 2.65946V1.09683C40.9976 0.683058 40.583 0.396942 40.1965 0.544842H40.1956Z" fill="#FF0000"/>
</g>
<defs>
<clipPath id="clip0_2304_471">
<rect width="41" height="22.9888" fill="white" transform="translate(0 0.505615)"/>
</clipPath>
</defs>
</svg>
