<svg width="102" height="28" viewBox="0 0 102 28" fill="none" xmlns="http://www.w3.org/2000/svg">
<path fill-rule="evenodd" clip-rule="evenodd" d="M35.9922 19.2817L37.4056 17.6454C38.2448 18.4562 39.1024 19.0642 39.9784 19.4696C40.8544 19.875 41.771 20.0777 42.7279 20.0777C43.8322 20.0777 44.7339 19.8345 45.4333 19.348C46.1326 18.8615 46.4823 18.2424 46.4823 17.4906C46.4823 16.8125 46.2393 16.2856 45.7535 15.9096C45.2676 15.5337 44.4652 15.25 43.3463 15.0584L40.7624 14.6382C39.349 14.4024 38.2926 13.9491 37.5933 13.2784C36.894 12.6076 36.5443 11.7195 36.5443 10.6139C36.5443 9.27245 37.067 8.19636 38.1123 7.3856C39.1576 6.57484 40.5342 6.16943 42.2421 6.16943C43.3463 6.16943 44.4431 6.35002 45.5326 6.71118C46.6222 7.07235 47.6012 7.59198 48.4698 8.27007L47.1889 10.039C46.3498 9.40511 45.5106 8.92972 44.6714 8.6128C43.8322 8.29587 42.9856 8.1374 42.1316 8.1374C41.1305 8.1374 40.3207 8.35114 39.7023 8.77862C39.084 9.20614 38.7748 9.75892 38.7748 10.437C38.7748 11.0709 38.9883 11.5537 39.4153 11.8853C39.8422 12.217 40.5489 12.4639 41.5354 12.6261L44.0309 13.0241C45.6504 13.2894 46.8466 13.7722 47.6196 14.4724C48.3926 15.1726 48.7791 16.1197 48.7791 17.3137C48.7791 18.0213 48.6316 18.6699 48.3373 19.2596C48.0429 19.8492 47.627 20.3504 47.0896 20.7631C46.5522 21.1759 45.9007 21.4965 45.1351 21.725C44.3695 21.9535 43.5303 22.0677 42.6175 22.0677C41.3808 22.0677 40.1882 21.8245 39.0398 21.3381C37.8915 20.8516 36.8756 20.1661 35.9922 19.2817Z" fill="#414042"/>
<path fill-rule="evenodd" clip-rule="evenodd" d="M59.5426 20.7118L53.7839 9.0779V21.8305H51.6211V6.16943H54.7103L59.5648 16.1701L64.3971 6.16943H67.4863V21.8305H65.3017V9.05552L59.5426 20.7118Z" fill="#414042"/>
<path fill-rule="evenodd" clip-rule="evenodd" d="M71.2754 21.8305V6.16943H76.7823C77.9565 6.16943 79.0453 6.36704 80.0487 6.76229C81.052 7.15755 81.9217 7.70197 82.6572 8.39552C83.3931 9.08907 83.969 9.92062 84.3853 10.8901C84.8011 11.8596 85.0095 12.9037 85.0095 14.0223C85.0095 15.141 84.8011 16.1776 84.3853 17.1321C83.969 18.0867 83.3965 18.9108 82.6684 19.6043C81.9402 20.2979 81.0706 20.8423 80.0599 21.2375C79.0492 21.6328 77.9565 21.8305 76.7823 21.8305H71.2754ZM76.8271 8.27262H73.6163V19.7275H76.8271C77.6294 19.7275 78.3878 19.5821 79.1008 19.2913C79.8143 19.0004 80.4277 18.5977 80.9401 18.0831C81.4531 17.5685 81.8581 16.9645 82.1553 16.2709C82.4525 15.5773 82.6014 14.8279 82.6014 14.0224C82.6014 13.217 82.4525 12.4601 82.1553 11.7516C81.8581 11.0431 81.4531 10.4316 80.9401 9.91702C80.4277 9.40242 79.8143 8.99972 79.1008 8.70887C78.3878 8.41802 77.6294 8.27262 76.8271 8.27262Z" fill="#414042"/>
<path fill-rule="evenodd" clip-rule="evenodd" d="M91.8769 21.8305L85.4824 6.16943H88.0092L93.3079 19.5037L98.6962 6.16943H101.111L94.6268 21.8305H91.8769Z" fill="#414042"/>
<path fill-rule="evenodd" clip-rule="evenodd" d="M28.6532 13.6638C28.6532 13.6638 28.335 6.0291 22.1472 2.30647C13.2278 -3.05957 5.82989 2.61909 5.82989 2.61909C5.82989 2.61909 15.3984 -0.437847 23.6164 5.58866C23.6164 5.58866 12.5685 -1.02116 2.36707 7.2558C2.36707 7.2558 1.39109 8.8755 1.42262 11.2152C1.42262 11.2152 9.97483 0.326774 23.4589 6.00543C23.4589 6.00543 8.93387 2.2723 3.36392 14.9662C3.36392 14.9662 4.34634 16.0816 6.45951 16.3729C6.45951 16.3729 9.92238 3.97361 23.4589 6.42221C23.4589 6.42221 13.1174 6.12488 10.1322 15.3831C10.1322 15.3831 12.9655 13.5075 15.1691 11.2152C16.7838 9.53553 19.1042 8.50611 21.8325 8.50611C24.5608 8.50611 27.1749 10.751 28.1285 12.6218L28.6532 13.6638Z" fill="#EC1C23"/>
<path fill-rule="evenodd" clip-rule="evenodd" d="M0 14.3363C0 14.3363 0.318245 21.971 6.50596 25.6936C15.4254 31.0597 22.8233 25.381 22.8233 25.381C22.8233 25.381 13.2548 28.4379 5.03689 22.4114C5.03689 22.4114 16.0847 29.0213 26.2862 20.7443C26.2862 20.7443 27.2622 19.1246 27.2306 16.7849C27.2306 16.7849 18.6784 27.6733 5.19428 21.9947C5.19428 21.9947 19.7193 25.7277 25.2893 13.0338C25.2893 13.0338 24.3069 11.9185 22.1937 11.6272C22.1937 11.6272 18.7309 24.0264 5.19428 21.5779C5.19428 21.5779 15.5358 21.8752 18.521 12.6171C18.521 12.6171 15.6877 14.4926 13.4841 16.7849C11.8694 18.4645 9.54905 19.494 6.82074 19.494C4.09244 19.494 1.47833 17.249 0.524673 15.3782L0 14.3363Z" fill="#414042"/>
</svg>
