<svg width="24" height="28" viewBox="0 0 24 28" fill="none" xmlns="http://www.w3.org/2000/svg">
<path d="M20.6406 1.53426H17.5604C16.7475 0.595492 15.5497 0 14.2148 0H9.78516C8.45034 0 7.25247 0.595492 6.43965 1.53426H3.35938C2.00241 1.53426 0.898438 2.64042 0.898438 4.00001V25.5342C0.898438 26.8938 2.00241 28 3.35938 28H20.6406C21.9976 28 23.1016 26.8938 23.1016 25.5342V4.00001C23.1016 2.64037 21.9976 1.53426 20.6406 1.53426ZM9.78516 1.64385H14.2148C15.4823 1.64385 16.535 2.49233 16.8809 3.61643H7.11914C7.46444 2.4943 8.5157 1.64385 9.78516 1.64385ZM21.4609 25.5342C21.4609 25.9874 21.0929 26.3561 20.6406 26.3561H3.35938C2.90705 26.3561 2.53906 25.9874 2.53906 25.5342V4.00001C2.53906 3.54681 2.90705 3.17811 3.35938 3.17811H5.53845C5.41709 3.5872 5.35546 4.01167 5.35547 4.43838C5.35547 4.89229 5.72275 5.26028 6.17578 5.26028H17.8242C18.2773 5.26028 18.6445 4.89229 18.6445 4.43838C18.6445 4.01167 18.5829 3.5872 18.4615 3.17811H20.6406C21.0929 3.17811 21.4609 3.54681 21.4609 4.00001V25.5342Z" fill="#3276F5"/>
<path d="M7.95643 16.3322L6.75003 17.5409L6.45504 17.2453C6.13474 16.9243 5.61532 16.9243 5.29496 17.2453C4.9746 17.5663 4.9746 18.0867 5.29496 18.4077L6.16996 19.2844C6.49026 19.6053 7.00968 19.6054 7.33004 19.2844L9.11646 17.4944C9.43682 17.1735 9.43682 16.6531 9.11646 16.3321C8.79616 16.0111 8.27674 16.0111 7.95643 16.3322ZM18.0703 16.9864H11.4532C11.0001 16.9864 10.6328 17.3544 10.6328 17.8083C10.6328 18.2622 11.0001 18.6302 11.4532 18.6302H18.0703C18.5234 18.6302 18.8907 18.2622 18.8907 17.8083C18.8907 17.3544 18.5234 16.9864 18.0703 16.9864ZM7.95643 21.0445L6.75003 22.2532L6.45504 21.9576C6.13474 21.6366 5.61532 21.6366 5.29496 21.9576C4.9746 22.2786 4.9746 22.799 5.29496 23.12L6.16996 23.9967C6.49026 24.3176 7.00968 24.3177 7.33004 23.9967L9.11646 22.2067C9.43682 21.8858 9.43682 21.3654 9.11646 21.0444C8.79616 20.7235 8.27674 20.7235 7.95643 21.0445ZM18.0703 21.6987H11.4532C11.0001 21.6987 10.6328 22.0667 10.6328 22.5206C10.6328 22.9745 11.0001 23.3425 11.4532 23.3425H18.0703C18.5234 23.3425 18.8907 22.9745 18.8907 22.5206C18.8907 22.0667 18.5234 21.6987 18.0703 21.6987ZM13.5644 13.184L16.1016 10.6419V10.7398C16.1016 11.1937 16.4689 11.5617 16.9219 11.5617C17.3749 11.5617 17.7422 11.1937 17.7422 10.7398C17.7422 8.41489 17.746 8.63134 17.7328 8.53952C17.6748 8.1374 17.3307 7.83558 16.9216 7.83569H14.8438C14.3907 7.83569 14.0235 8.20369 14.0235 8.65759C14.0235 9.1115 14.3907 9.47949 14.8438 9.47949H14.9415L12.9844 11.4404L10.5019 8.95312C10.1816 8.63211 9.66219 8.63211 9.34183 8.95312L6.38871 11.912C6.06835 12.233 6.06835 12.7534 6.38871 13.0744C6.70901 13.3954 7.22843 13.3954 7.54879 13.0744L9.9219 10.6967L12.4044 13.184C12.7246 13.5049 13.2441 13.505 13.5644 13.184Z" fill="#3276F5"/>
</svg>
