<svg width="32" height="32" viewBox="0 0 32 32" fill="none" xmlns="http://www.w3.org/2000/svg">
<g clip-path="url(#clip0_2010_963)">
<path d="M27.2647 6.51177C26.8845 4.98933 26.0346 3.60865 24.8303 2.57446C23.4506 1.38965 21.6904 0.737209 19.8738 0.737209C18.511 0.737209 17.2056 1.08865 16.0534 1.76008C14.8332 0.644209 13.2333 0.017334 11.5522 0.017334C7.94638 0.017334 4.99925 2.89177 4.88163 6.4694C3.63506 6.81783 2.50638 7.52708 1.64356 8.5164C0.584156 9.73062 0.00030556 11.2874 0 12.8988C0 16.579 2.994 19.573 6.67419 19.573H25.3258C29.006 19.573 32 16.579 32 12.8988C32 9.94815 30.043 7.35602 27.2647 6.51177ZM10.0625 21.4481V23.2325H6.74394C6.33469 21.7916 5.00787 20.7327 3.4375 20.7327C1.54206 20.7327 0 22.2748 0 24.1702C0 26.0656 1.54206 27.6077 3.4375 27.6077C5.008 27.6077 6.33488 26.5486 6.74406 25.1075H11C11.5175 25.1075 11.9375 24.6881 11.9375 24.17V21.4481H10.0625ZM16.9375 25.2387V21.4481H15.0625V25.2387C13.6214 25.6479 12.5625 26.9748 12.5625 28.5452C12.5625 30.4406 14.1046 31.9827 16 31.9827C17.8954 31.9827 19.4375 30.4406 19.4375 28.5452C19.4375 26.9748 18.3786 25.6479 16.9375 25.2387ZM28.5625 20.7327C26.9921 20.7327 25.6653 21.7916 25.2561 23.2325H21.9375V21.4481H20.0625V24.17C20.0625 24.6881 20.4825 25.1075 21 25.1075H25.2559C25.6651 26.5486 26.992 27.6077 28.5625 27.6077C30.4579 27.6077 32 26.0656 32 24.1702C32 22.2748 30.4579 20.7327 28.5625 20.7327Z" fill="black"/>
<path d="M27.2647 6.51177C26.8845 4.98933 26.0346 3.60865 24.8303 2.57446C23.4506 1.38965 21.6904 0.737209 19.8738 0.737209C18.511 0.737209 17.2056 1.08865 16.0534 1.76008C14.8332 0.644209 13.2333 0.017334 11.5522 0.017334C7.94638 0.017334 4.99925 2.89177 4.88163 6.4694C3.63506 6.81783 2.50638 7.52708 1.64356 8.5164C0.584156 9.73062 0.00030556 11.2874 0 12.8988C0 16.579 2.994 19.573 6.67419 19.573H25.3258C29.006 19.573 32 16.579 32 12.8988C32 9.94815 30.043 7.35602 27.2647 6.51177ZM10.0625 21.4481V23.2325H6.74394C6.33469 21.7916 5.00787 20.7327 3.4375 20.7327C1.54206 20.7327 0 22.2748 0 24.1702C0 26.0656 1.54206 27.6077 3.4375 27.6077C5.008 27.6077 6.33488 26.5486 6.74406 25.1075H11C11.5175 25.1075 11.9375 24.6881 11.9375 24.17V21.4481H10.0625ZM16.9375 25.2387V21.4481H15.0625V25.2387C13.6214 25.6479 12.5625 26.9748 12.5625 28.5452C12.5625 30.4406 14.1046 31.9827 16 31.9827C17.8954 31.9827 19.4375 30.4406 19.4375 28.5452C19.4375 26.9748 18.3786 25.6479 16.9375 25.2387ZM28.5625 20.7327C26.9921 20.7327 25.6653 21.7916 25.2561 23.2325H21.9375V21.4481H20.0625V24.17C20.0625 24.6881 20.4825 25.1075 21 25.1075H25.2559C25.6651 26.5486 26.992 27.6077 28.5625 27.6077C30.4579 27.6077 32 26.0656 32 24.1702C32 22.2748 30.4579 20.7327 28.5625 20.7327Z" fill="url(#paint0_linear_2010_963)"/>
</g>
<defs>
<linearGradient id="paint0_linear_2010_963" x1="16" y1="0.017334" x2="16" y2="31.9827" gradientUnits="userSpaceOnUse">
<stop stop-color="white"/>
<stop offset="1" stop-color="white" stop-opacity="0.7"/>
</linearGradient>
<clipPath id="clip0_2010_963">
<rect width="32" height="32" fill="white"/>
</clipPath>
</defs>
</svg>
