<?xml version="1.0" encoding="UTF-8"?><svg id="Layer_2" xmlns="http://www.w3.org/2000/svg" xmlns:xlink="http://www.w3.org/1999/xlink" viewBox="0 0 1467.36 520.31"><defs><style>.cls-1{fill:#c8362a;}.cls-2{fill:#1b4072;}.cls-3{fill:url(#New_Gradient_Swatch_3);}.cls-4{fill:url(#New_Gradient_Swatch_3-2);}.cls-5{fill:url(#New_Gradient_Swatch_3-3);}</style><linearGradient id="New_Gradient_Swatch_3" x1="623.96" y1="1448.09" x2="819.78" y2="1448.09" gradientTransform="translate(132.71 -1043.65) rotate(-20)" gradientUnits="userSpaceOnUse"><stop offset="0" stop-color="#f36f27"/><stop offset=".98" stop-color="#ffd449"/></linearGradient><linearGradient id="New_Gradient_Swatch_3-2" y1="1593.18" x2="819.78" y2="1593.18" xlink:href="#New_Gradient_Swatch_3"/><linearGradient id="New_Gradient_Swatch_3-3" x1="623.96" y1="1520.63" x2="819.78" y2="1520.63" xlink:href="#New_Gradient_Swatch_3"/></defs><g id="Layer_1-2"><g><g><path class="cls-1" d="M1229.86,116.8l83.4,28.09,28.8-47.28-120.64,10.15c.2,1.85,1.53,6.72,8.44,9.05Z"/><path class="cls-3" d="M1394.76,2.28c-.88-1.07-3.45-3.4-8.28-1.64-1.12,.41-2.32,1.01-3.66,1.84l-155.11,95.33c-6.21,3.82-6.44,9.04-6.28,9.94l120.64-10.15,51.63-84.25c1.08-1.74,4.34-7.06,1.06-11.08Z"/><path class="cls-1" d="M1267.43,220.01l45.84-75.13,52.46,17.71-98.94,69.77c-1.03-1.54-3.15-6.14,.65-12.35Z"/><path class="cls-4" d="M1467.36,201.74c.01,1.39-.46,4.82-5.29,6.58-1.12,.41-2.43,.72-3.99,.95l-180.1,26.67c-7.21,1.07-10.74-2.79-11.2-3.57l98.94-69.77,93.7,31.35c1.95,.64,7.86,2.62,7.94,7.8Z"/><path class="cls-5" d="M1313.26,144.88l52.46,17.71s63.76-44.97,74.82-52.77c11.05-7.79,14.79-11.1,13.01-16-1.78-4.9-6.78-5.03-20.25-3.89-13.48,1.14-91.23,7.67-91.23,7.67l-28.8,47.28"/></g><g><path class="cls-2" d="M113.48,300.04c0-4.42-2.36-6.48-6.5-6.48h-11.79v-31.86h34.21c13.28,0,20.07,5.6,20.07,18.29v8.86c0,5.6-.6,9.44-.6,9.44h.6c6.79-21.54,24.78-38.65,47.77-38.65,3.25,0,6.79,.59,6.79,.59v36.87s-3.83-.59-9.14-.59c-15.93,0-34.22,9.14-41,31.56-2.07,7.37-3.25,15.63-3.25,24.48v59.59h-37.16v-112.09Z"/><path class="cls-2" d="M225.93,261.69h37.09l.08,112.38c0,4.12,2.36,6.5,6.48,6.5h11.8v31.56h-35.69c-13.86,0-19.76-5.9-19.76-20.06v-130.37Z"/><path class="cls-2" d="M309.78,300.04c0-4.42-2.36-6.48-6.49-6.48h-11.8v-31.86h34.52c13.28,0,19.76,6.19,19.76,16.81v4.43c0,3.25-.3,6.49-.3,6.49h.58c7.08-14.75,25.07-31.26,48.67-31.26s37.46,10.62,43.95,30.96h.59c7.97-16.22,27.44-30.96,51.33-30.96,31.27,0,49.26,17.7,49.26,57.21v96.18l-37.46-.12v-88.98c0-17.1-3.25-30.09-20.66-30.09-18.58,0-31.85,15.63-35.98,34.51-1.77,5.9-2.37,12.09-2.37,19.17v66.08h-37.45v-89.67c0-16.23-2.36-30.09-20.36-30.09-18.88,0-31.56,15.63-36.28,34.81-1.47,5.9-2.36,12.09-2.36,18.88v66.08h-37.17v-112.09Z"/><path class="cls-2" d="M702.9,329.53c0-39.82-23.59-71.37-66.67-71.37s-76.39,32.44-76.39,78.75c0,42.78,30.97,78.76,80.82,78.76,37.46,0,60.47-22.72,60.47-22.72l-15.64-25.95s-17.99,16.82-42.18,16.82c-22.71,0-42.18-13.88-45.13-40.43h103.84s.88-9.43,.88-13.86Zm-103.53-12.09c4.13-18.88,17.7-30.38,36.87-30.38,15.34,0,27.73,12.39,28.32,30.38h-65.19Z"/><path class="cls-2" d="M850.2,261.69c-11.81,0-16.51,7.08-16.51,13.86v3.83h-.6s-11.5-21.23-46.3-21.23c-43.35,0-66.67,33.62-66.67,74.92s24.48,76.1,67.55,76.1c20.06,0,33.04-6.79,41.89-19.47h.57c-.06,.02-.28,.28-.28,3.35v7.08c0,27.14-19.77,36.87-42.48,36.87s-41.59-10.03-41.59-10.03l-11.52,29.5c14.46,7.68,34.52,12.98,53.4,12.98,39.24,0,79.35-19.47,79.35-71.09v-98.92c0-3.83,2.66-5.89,6.5-5.89h11.5v-31.86h-34.81Zm-54.57,115.92c-24.18,0-37.46-19.46-37.46-45.71s12.39-41.89,35.1-41.89c20.34,0,37.46,9.15,37.46,43.36s-17.11,44.25-35.1,44.25Z"/><path class="cls-2" d="M1029.83,380.57c-4.13,0-6.48-2.37-6.48-6.5v-56.05c0-33.62-14.76-57.25-64.91-57.25-15.63,0-49.66,.78-49.66,.78l-.03,31.7s42.62-.45,49.41-.45c19.18,0,27.72,2.21,27.72,23.74v1.18h-4.71c-24.48,0-89.37,3.84-89.37,51.04,0,30.09,24.48,46.9,51.32,46.9,33.93,0,45.43-26.56,45.43-26.56h.6s-.3,2.66-.3,6.51c0,8.85,5.3,16.51,19.17,16.51h33.63v-31.56h-11.8Zm-43.36-33.63c0,18.28-14.16,39.53-34.21,39.53-15.34,0-22.71-9.45-22.71-19.47,0-20.95,30.96-23.61,50.43-23.61h6.48v3.56Z"/><path class="cls-2" d="M1061.53,241.04c0-4.42-2.38-6.49-6.5-6.49h-11.81v-31.85h35.7c13.86,0,20.05,6.19,20.05,19.76v52.8c0,7.38-.58,12.69-.58,12.69h.58c7.08-14.45,25.67-29.79,51.62-29.79,33.63,0,52.51,17.4,52.51,57.21v58.7c0,4.12,2.35,6.5,6.48,6.5h11.81v31.56h-35.69c-13.87,0-19.77-5.9-19.77-20.06v-69.03c0-18.29-5.01-30.67-23.89-30.67s-35.1,12.99-40.71,31.26c-1.77,5.9-2.36,12.4-2.36,19.48v69.02h-37.45V241.04Z"/><path class="cls-2" d="M0,215.06H37.37v46.8h34.12v31.9H37.37v58.4c0,24.71,19.42,28.24,29.7,28.24,4.13,0,6.78-.58,6.78-.58v32.65s-4.71,.89-11.48,.89c-20.88,0-62.37-6.18-62.37-56.49V215.06Z"/></g><g><path class="cls-2" d="M16.77,520.31c-6.88,0-11.56-2.27-14.74-4.31l3.33-5.97c2.49,1.74,6.42,3.7,11.11,3.7,4.08,0,8.85-1.82,8.85-6.35,0-7.64-12.02-9.15-18.06-15.88-2.04-2.27-3.4-5.06-3.4-8.92,0-7.25,5.59-13.3,15.64-13.3,5.29,0,9.23,1.36,11.79,2.72l-.08,7.41c-3.4-2.04-7.25-3.48-11.34-3.48-4.31,0-7.86,1.81-7.86,5.75,0,9.82,21.77,9.52,21.77,24.79,0,8.39-7.4,13.83-17.01,13.83Z"/><path class="cls-2" d="M53.14,519.55v-49.81h26.61l-2.42,6.8h-16.25v14.14h16.17v6.8h-16.17v15.27h18.74v6.8h-26.68Z"/><path class="cls-2" d="M120.32,520.31c-15.49,0-24.64-10.88-24.64-25.09s10.43-25.92,26.3-25.92c5.52,0,10.05,1.28,12.85,2.8l-.15,7.56c-3.93-2.42-7.78-3.63-12.62-3.63-11.41,0-17.76,8.46-17.76,18.59,0,10.73,6.5,18.67,17.23,18.67,4.38,0,8.46-1.28,12.02-3.25l2.27,5.89c-5.21,3.1-10.35,4.38-15.49,4.38Z"/><path class="cls-2" d="M188.68,514.94c-3.33,3.4-8.31,5.37-15.42,5.37s-11.64-1.74-14.74-4.76c-3.7-3.55-4.84-8.92-4.84-14.13v-31.67h7.86v31.29c0,3.47,.98,6.88,3.17,9.22,1.89,2.04,4.76,3.25,8.69,3.25,4.38,0,7.41-1.21,9.3-3.25,2.04-2.12,2.8-5.21,2.8-8.77v-31.74h7.93v31.82c0,5.29-1.51,10.05-4.76,13.38Z"/><path class="cls-2" d="M241.92,519.55c-7.78-12.85-11.64-19.65-13.6-20.18h-4.61v20.18h-7.94v-49.81h12.39c12.47,0,17.24,6.28,17.24,13.91,0,6.8-4.46,11.18-9.37,13.15v.07c2.04,1.06,7.33,9.9,15.11,22.67h-9.22Zm-13.68-42.93h-4.53v16.55h4.69c5.14,0,8.92-3.93,8.92-8.69,0-4.31-2.64-7.86-9.07-7.86Z"/><path class="cls-2" d="M268.27,519.55v-49.81h7.93v49.81h-7.93Z"/><path class="cls-2" d="M329.61,476.54h-13.68v43h-8.01v-43h-14.43v-6.8h38.32l-2.19,6.8Z"/><path class="cls-2" d="M348.68,519.55v-49.81h7.93v49.81h-7.93Z"/><path class="cls-2" d="M378.8,519.55v-49.81h26.61l-2.42,6.8h-16.25v14.14h16.17v6.8h-16.17v15.27h18.74v6.8h-26.68Z"/><path class="cls-2" d="M437.35,520.31c-6.88,0-11.56-2.27-14.74-4.31l3.33-5.97c2.49,1.74,6.42,3.7,11.11,3.7,4.08,0,8.84-1.82,8.84-6.35,0-7.64-12.01-9.15-18.06-15.88-2.04-2.27-3.4-5.06-3.4-8.92,0-7.25,5.59-13.3,15.64-13.3,5.29,0,9.22,1.36,11.79,2.72l-.08,7.41c-3.4-2.04-7.25-3.48-11.34-3.48-4.31,0-7.86,1.81-7.86,5.75,0,9.82,21.77,9.52,21.77,24.79,0,8.39-7.4,13.83-17.01,13.83Z"/></g></g></g></svg>