<svg width="28" height="28" viewBox="0 0 28 28" fill="none" xmlns="http://www.w3.org/2000/svg">
<path d="M21.4922 4.10156V2.23114C21.4922 1.45195 20.8605 0.820312 20.0814 0.820312H7.91864C7.13945 0.820312 6.50781 1.45195 6.50781 2.23114V4.10156M21.4922 4.10156H6.50781M21.4922 4.10156V7.71094M6.50781 4.10156V7.71094M21.4922 20.2891V25.7688C21.4922 26.548 20.8605 27.1797 20.0813 27.1797H7.91875C7.13945 27.1797 6.50781 26.548 6.50781 25.7688V20.2891M17.5547 12.2773L19.2773 14L17.5547 15.7227M10.4453 12.2773L8.72266 14L10.4453 15.7227M14.7676 10.9939L13.2324 17.0061" stroke="#3276F5" stroke-width="1.64062" stroke-miterlimit="10" stroke-linecap="round" stroke-linejoin="round"/>
<path d="M12.6055 23.8984H15.3945M4.42969 7.71094H23.5703V20.2891H4.42969V7.71094Z" stroke="#3276F5" stroke-width="1.64062" stroke-miterlimit="10" stroke-linecap="round" stroke-linejoin="round"/>
</svg>
