<svg width="396" height="378" viewBox="0 0 396 378" fill="none" xmlns="http://www.w3.org/2000/svg">
<g filter="url(#filter0_dddd_2254_266)">
<rect x="22" y="11" width="300" height="335" rx="9.23077" fill="white"/>
<rect x="21.4231" y="10.4231" width="301.154" height="336.154" rx="9.80769" stroke="#E5E6EC" stroke-width="1.15385"/>
<path d="M40.5165 42.8462V38.2862L36.0672 30.2923H38.3934L41.0703 35.2216L41.6242 36.4954L42.1595 35.2216L44.8365 30.2923H47.0334L42.5842 38.2862V42.8462H40.5165ZM51.1823 43.0862C48.3208 43.0862 46.5854 41.1477 46.5854 37.9354C46.5854 34.5939 48.3762 32.7477 51.1823 32.7477C54.0439 32.7477 55.7793 34.7231 55.7793 37.9354C55.7793 41.2585 53.9885 43.0862 51.1823 43.0862ZM51.1823 41.4247C52.8623 41.4247 53.767 40.2062 53.767 37.9354C53.767 35.6831 52.8439 34.4093 51.1823 34.4093C49.5208 34.4093 48.5977 35.6462 48.5977 37.9354C48.5977 40.1693 49.5208 41.4247 51.1823 41.4247ZM63.7209 38.7662V33.0062H65.6778V42.8462H63.7209V41.517C63.0747 42.5693 62.0409 43.0862 60.7855 43.0862C58.7732 43.0862 57.5178 41.9047 57.5178 39.5785V33.0062H59.4932V39.1723C59.4932 40.5939 60.084 41.4431 61.3947 41.4431C62.8347 41.4431 63.7209 40.1323 63.7209 38.7662ZM67.8981 42.8462V33.0062H69.8735V34.4647C70.5196 33.2831 71.535 32.7477 72.6796 32.7477C73.0673 32.7477 73.4366 32.84 73.6212 33.0062V34.7416C73.3258 34.6493 72.975 34.6123 72.5689 34.6123C70.6858 34.6123 69.8735 35.757 69.8735 37.4739V42.8462H67.8981ZM78.3677 42.8462V30.2923H82.8354C85.7708 30.2923 87.58 31.8247 87.58 34.3354C87.58 36.9016 85.7338 38.397 82.8723 38.397H80.4354V42.8462H78.3677ZM82.8169 31.9539H80.4354V36.7354H82.7615C84.4969 36.7354 85.4569 35.8123 85.4569 34.3539C85.4569 32.8954 84.4784 31.9539 82.8169 31.9539ZM89.3034 42.8462V33.0062H91.2788V34.4647C91.9249 33.2831 92.9403 32.7477 94.0849 32.7477C94.4726 32.7477 94.8419 32.84 95.0265 33.0062V34.7416C94.7311 34.6493 94.3803 34.6123 93.9742 34.6123C92.0911 34.6123 91.2788 35.757 91.2788 37.4739V42.8462H89.3034ZM100.123 43.0862C97.2612 43.0862 95.5258 41.1477 95.5258 37.9354C95.5258 34.5939 97.3166 32.7477 100.123 32.7477C102.984 32.7477 104.72 34.7231 104.72 37.9354C104.72 41.2585 102.929 43.0862 100.123 43.0862ZM100.123 41.4247C101.803 41.4247 102.707 40.2062 102.707 37.9354C102.707 35.6831 101.784 34.4093 100.123 34.4093C98.4612 34.4093 97.5381 35.6462 97.5381 37.9354C97.5381 40.1693 98.4612 41.4247 100.123 41.4247ZM106.458 31.7877V29.5539H108.434V31.7877H106.458ZM108.434 43.9908C108.434 46.1323 107.511 47.1662 105.664 47.1662C105.184 47.1662 104.815 47.0739 104.631 46.9816V45.5416H104.797C106.126 45.5416 106.458 45.0062 106.458 43.88V33.0062H108.434V43.9908ZM119.369 39.6339C118.833 41.9231 117.135 43.0862 114.827 43.0862C111.929 43.0862 110.157 41.1477 110.157 37.9354C110.157 34.5939 111.929 32.7477 114.735 32.7477C117.578 32.7477 119.295 34.6677 119.295 37.8247V38.3047H112.169C112.28 40.317 113.221 41.4431 114.827 41.4431C116.083 41.4431 116.969 40.8523 117.301 39.6339H119.369ZM114.735 34.3908C113.313 34.3908 112.464 35.2954 112.224 36.957H117.246C117.006 35.2954 116.138 34.3908 114.735 34.3908ZM129.415 36.44H127.44C127.2 35.037 126.295 34.4093 125.151 34.4093C123.507 34.4093 122.621 35.6647 122.621 37.9354C122.621 40.1693 123.544 41.4431 125.206 41.4431C126.387 41.4431 127.218 40.797 127.514 39.5416H129.471C129.046 41.997 127.347 43.0862 125.169 43.0862C122.326 43.0862 120.609 41.1293 120.609 37.9354C120.609 34.5939 122.363 32.7477 125.151 32.7477C127.347 32.7477 129.083 33.9847 129.415 36.44ZM131.385 39.9108V34.5385H130.056V33.0062H131.385V30.7354H133.361V33.0062H135.484V34.5385H133.361V39.8C133.361 40.9262 133.674 41.4616 135.059 41.4616H135.447V42.9016C135.225 43.0123 134.764 43.0862 134.21 43.0862C132.29 43.0862 131.385 42.0339 131.385 39.9108Z" fill="#313131"/>
<g filter="url(#filter1_i_2254_266)">
<rect x="35.8457" y="61.6924" width="270" height="75" rx="6.92308" fill="#F7F8FA" fill-opacity="0.35"/>
<rect x="36.4226" y="62.2693" width="268.846" height="73.8462" rx="6.34615" stroke="#E5E6EC" stroke-width="1.15385"/>
<path d="M48.8677 88.6924V79.1724H52.3677C54.3837 79.1724 55.6577 80.1664 55.6577 81.7624C55.6577 82.6444 55.2097 83.3304 54.3837 83.6804C55.5597 84.0304 56.1897 84.8564 56.1897 85.9764C56.1897 87.6984 54.9437 88.6924 52.8437 88.6924H48.8677ZM52.3257 80.4184H50.4357V83.2184H52.2977C53.4177 83.2184 54.0477 82.6584 54.0477 81.8464C54.0477 80.9644 53.4037 80.4184 52.3257 80.4184ZM52.6477 84.4364H50.4357V87.4464H52.8017C53.9077 87.4464 54.5797 86.8444 54.5797 85.9344C54.5797 85.0244 53.8657 84.4364 52.6477 84.4364ZM59.1964 83.6664H57.6984C57.9364 82.0144 59.0704 81.0344 60.9324 81.0344C62.9624 81.0344 63.9704 82.2244 63.9704 83.9604V86.8724C63.9704 87.7684 64.0544 88.2864 64.2224 88.6924H62.6544C62.5424 88.4124 62.5004 88.0204 62.4864 87.6004C61.8564 88.4824 60.8904 88.8744 59.9944 88.8744C58.4824 88.8744 57.4464 88.1604 57.4464 86.7324C57.4464 85.7104 58.0064 84.9544 59.1264 84.5764C60.1204 84.2404 61.1284 84.1564 62.4724 84.1424V83.9744C62.4724 82.8824 61.9684 82.2944 60.8204 82.2944C59.8544 82.2944 59.3364 82.8264 59.1964 83.6664ZM58.9584 86.6764C58.9584 87.3064 59.4764 87.6984 60.2744 87.6984C61.5204 87.6984 62.4724 86.7044 62.4724 85.5004V85.1644C59.6024 85.1924 58.9584 85.8224 58.9584 86.6764ZM72.3028 83.8344H70.8048C70.6228 82.7704 69.9368 82.2944 69.0688 82.2944C67.8228 82.2944 67.1508 83.2464 67.1508 84.9684C67.1508 86.6624 67.8508 87.6284 69.1108 87.6284C70.0068 87.6284 70.6368 87.1384 70.8608 86.1864H72.3448C72.0228 88.0484 70.7348 88.8744 69.0828 88.8744C66.9268 88.8744 65.6248 87.3904 65.6248 84.9684C65.6248 82.4344 66.9548 81.0344 69.0688 81.0344C70.7348 81.0344 72.0508 81.9724 72.3028 83.8344ZM73.8808 88.6924V78.6124H75.3788V84.3944L78.3468 81.2304H80.1388L76.9188 84.5484L80.3348 88.6924H78.4728L75.3788 84.9684V88.6924H73.8808ZM81.5677 88.6924V78.6124H83.0657V88.6924H81.5677ZM88.1383 88.8744C85.9683 88.8744 84.6523 87.4044 84.6523 84.9684C84.6523 82.4344 86.0103 81.0344 88.1383 81.0344C90.3083 81.0344 91.6243 82.5324 91.6243 84.9684C91.6243 87.4884 90.2663 88.8744 88.1383 88.8744ZM88.1383 87.6144C89.4123 87.6144 90.0983 86.6904 90.0983 84.9684C90.0983 83.2604 89.3983 82.2944 88.1383 82.2944C86.8783 82.2944 86.1783 83.2324 86.1783 84.9684C86.1783 86.6624 86.8783 87.6144 88.1383 87.6144ZM95.9107 88.7344C94.0067 88.7344 92.8587 87.2784 92.8587 84.8984C92.8587 82.4064 94.0347 81.0344 95.9107 81.0344C96.8627 81.0344 97.5767 81.3704 98.0527 82.0144V81.2304H99.5507V88.9304C99.5507 90.9744 98.1927 91.9684 96.4007 91.9684C94.6087 91.9684 93.3207 91.1284 93.0547 89.3924H94.5527C94.6927 90.2884 95.4067 90.7644 96.3867 90.7644C97.3807 90.7644 98.0527 90.2464 98.0527 88.9584V87.6984C97.5487 88.3844 96.8207 88.7344 95.9107 88.7344ZM96.2187 87.4744C97.4087 87.4744 98.0527 86.5644 98.0527 84.8844C98.0527 83.2464 97.3807 82.2944 96.2187 82.2944C95.0287 82.2944 94.3847 83.2044 94.3847 84.8984C94.3847 86.5364 95.0427 87.4744 96.2187 87.4744Z" fill="#6E7180"/>
<path d="M49.0997 119.692V119.076C49.0997 112.74 56.7777 113.18 56.7777 109.594C56.7777 108.12 55.8977 107.24 54.3137 107.24C52.5757 107.24 51.7177 108.142 51.4537 109.638H49.0557C49.4297 106.932 51.2997 105.26 54.3357 105.26C57.5257 105.26 59.1537 107.152 59.1537 109.572C59.1537 113.994 52.4877 114.148 51.5197 117.866H59.2637V119.692H49.0997ZM66.6375 119.978C63.0955 119.978 61.0495 117.25 61.0495 112.63C61.0495 107.9 63.1395 105.26 66.6375 105.26C70.1575 105.26 72.2035 107.988 72.2035 112.63C72.2035 117.36 70.1135 119.978 66.6375 119.978ZM66.6375 117.976C68.6835 117.976 69.8055 116.084 69.8055 112.63C69.8055 109.198 68.6615 107.262 66.6375 107.262C64.5915 107.262 63.4475 109.154 63.4475 112.63C63.4475 116.018 64.5915 117.976 66.6375 117.976Z" fill="#313131"/>
<path d="M76.9517 116.466V112.392H75.9437V111.23H76.9517V109.508H78.4497V111.23H80.0597V112.392H78.4497V116.382C78.4497 117.236 78.6877 117.642 79.7377 117.642H80.0317V118.734C79.8637 118.818 79.5137 118.874 79.0937 118.874C77.6377 118.874 76.9517 118.076 76.9517 116.466ZM82.4594 113.666H80.9614C81.1994 112.014 82.3334 111.034 84.1954 111.034C86.2254 111.034 87.2334 112.224 87.2334 113.96V116.872C87.2334 117.768 87.3174 118.286 87.4854 118.692H85.9174C85.8054 118.412 85.7634 118.02 85.7494 117.6C85.1194 118.482 84.1534 118.874 83.2574 118.874C81.7454 118.874 80.7094 118.16 80.7094 116.732C80.7094 115.71 81.2694 114.954 82.3894 114.576C83.3834 114.24 84.3914 114.156 85.7354 114.142V113.974C85.7354 112.882 85.2314 112.294 84.0834 112.294C83.1174 112.294 82.5994 112.826 82.4594 113.666ZM82.2214 116.676C82.2214 117.306 82.7394 117.698 83.5374 117.698C84.7834 117.698 85.7354 116.704 85.7354 115.5V115.164C82.8654 115.192 82.2214 115.822 82.2214 116.676ZM90.1618 113.19C90.1618 115.094 94.9358 113.498 94.9358 116.536C94.9358 117.95 93.6618 118.874 91.8558 118.874C90.0498 118.874 88.7758 118.034 88.4958 116.256H89.9938C90.1478 117.194 90.8478 117.712 91.8978 117.712C92.9058 117.712 93.4378 117.264 93.4378 116.634C93.4378 114.772 88.7338 116.34 88.7338 113.274C88.7338 112.112 89.6438 111.034 91.5338 111.034C93.1998 111.034 94.4318 111.804 94.6698 113.666H93.1718C93.0038 112.616 92.4158 112.224 91.4638 112.224C90.6378 112.224 90.1618 112.63 90.1618 113.19ZM96.1599 118.692V108.612H97.6579V114.394L100.626 111.23H102.418L99.1979 114.548L102.614 118.692H100.752L97.6579 114.968V118.692H96.1599Z" fill="#313131"/>
</g>
<g filter="url(#filter2_i_2254_266)">
<rect x="35.8457" y="150.539" width="270" height="75" rx="6.92308" fill="#F7F8FA" fill-opacity="0.35"/>
<rect x="36.4226" y="151.115" width="268.846" height="73.8462" rx="6.34615" stroke="#E5E6EC" stroke-width="1.15385"/>
<path d="M48.8677 177.539V168.019H52.1297C55.1117 168.019 56.9597 169.811 56.9597 172.793C56.9597 175.775 55.1117 177.539 52.1297 177.539H48.8677ZM52.1297 176.265C54.1597 176.265 55.3637 174.977 55.3637 172.793C55.3637 170.581 54.1597 169.293 52.1297 169.293H50.4357V176.265H52.1297ZM65.3341 175.103C64.9281 176.839 63.6401 177.721 61.8901 177.721C59.6921 177.721 58.3481 176.251 58.3481 173.815C58.3481 171.281 59.6921 169.881 61.8201 169.881C63.9761 169.881 65.2781 171.337 65.2781 173.731V174.095H59.8741C59.9581 175.621 60.6721 176.475 61.8901 176.475C62.8421 176.475 63.5141 176.027 63.7661 175.103H65.3341ZM61.8201 171.127C60.7421 171.127 60.0981 171.813 59.9161 173.073H63.7241C63.5421 171.813 62.8841 171.127 61.8201 171.127ZM68.1085 172.037C68.1085 173.941 72.8825 172.345 72.8825 175.383C72.8825 176.797 71.6085 177.721 69.8025 177.721C67.9965 177.721 66.7225 176.881 66.4425 175.103H67.9405C68.0945 176.041 68.7945 176.559 69.8445 176.559C70.8525 176.559 71.3845 176.111 71.3845 175.481C71.3845 173.619 66.6805 175.187 66.6805 172.121C66.6805 170.959 67.5905 169.881 69.4805 169.881C71.1465 169.881 72.3785 170.651 72.6165 172.513H71.1185C70.9505 171.463 70.3625 171.071 69.4105 171.071C68.5845 171.071 68.1085 171.477 68.1085 172.037ZM74.3866 169.153V167.459H75.8846V169.153H74.3866ZM74.3866 177.539V170.077H75.8846V177.539H74.3866ZM80.5232 177.581C78.6192 177.581 77.4712 176.125 77.4712 173.745C77.4712 171.253 78.6472 169.881 80.5232 169.881C81.4752 169.881 82.1892 170.217 82.6652 170.861V170.077H84.1632V177.777C84.1632 179.821 82.8052 180.815 81.0132 180.815C79.2212 180.815 77.9332 179.975 77.6672 178.239H79.1652C79.3052 179.135 80.0192 179.611 80.9992 179.611C81.9932 179.611 82.6652 179.093 82.6652 177.805V176.545C82.1612 177.231 81.4332 177.581 80.5232 177.581ZM80.8312 176.321C82.0212 176.321 82.6652 175.411 82.6652 173.731C82.6652 172.093 81.9932 171.141 80.8312 171.141C79.6412 171.141 78.9972 172.051 78.9972 173.745C78.9972 175.383 79.6552 176.321 80.8312 176.321ZM86.1237 177.539V170.077H87.6217V171.071C88.1257 170.273 88.9097 169.881 89.8757 169.881C91.4297 169.881 92.3957 170.791 92.3957 172.555V177.539H90.9117V172.863C90.9117 171.785 90.4357 171.127 89.4137 171.127C88.2937 171.127 87.6217 172.121 87.6217 173.157V177.539H86.1237Z" fill="#6E7180"/>
<path d="M59.6597 204.557C59.6597 206.955 57.8117 208.825 54.2477 208.825C51.0797 208.825 49.0337 207.153 48.6377 204.381H51.0357C51.2777 205.899 52.2897 206.845 54.2257 206.845C56.2057 206.845 57.2617 205.965 57.2617 204.447C57.2617 203.325 56.6457 202.159 53.6317 202.159H52.9497V200.355H53.4997C56.3817 200.355 56.8657 199.167 56.8657 198.243C56.8657 196.901 55.9637 196.087 54.2697 196.087C52.4877 196.087 51.5637 196.989 51.2997 198.485H48.9457C49.3197 195.779 51.2337 194.107 54.2917 194.107C57.5477 194.107 59.2637 195.889 59.2637 198.221C59.2637 199.541 58.7137 200.531 57.3497 201.125C59.0217 201.829 59.6597 203.061 59.6597 204.557ZM61.5555 208.539V207.923C61.5555 201.587 69.2335 202.027 69.2335 198.441C69.2335 196.967 68.3535 196.087 66.7695 196.087C65.0315 196.087 64.1735 196.989 63.9095 198.485H61.5115C61.8855 195.779 63.7555 194.107 66.7915 194.107C69.9815 194.107 71.6095 195.999 71.6095 198.419C71.6095 202.841 64.9435 202.995 63.9755 206.713H71.7195V208.539H61.5555Z" fill="#313131"/>
<path d="M76.9517 205.313V201.239H75.9437V200.077H76.9517V198.355H78.4497V200.077H80.0597V201.239H78.4497V205.229C78.4497 206.083 78.6877 206.489 79.7377 206.489H80.0317V207.581C79.8637 207.665 79.5137 207.721 79.0937 207.721C77.6377 207.721 76.9517 206.923 76.9517 205.313ZM82.4594 202.513H80.9614C81.1994 200.861 82.3334 199.881 84.1954 199.881C86.2254 199.881 87.2334 201.071 87.2334 202.807V205.719C87.2334 206.615 87.3174 207.133 87.4854 207.539H85.9174C85.8054 207.259 85.7634 206.867 85.7494 206.447C85.1194 207.329 84.1534 207.721 83.2574 207.721C81.7454 207.721 80.7094 207.007 80.7094 205.579C80.7094 204.557 81.2694 203.801 82.3894 203.423C83.3834 203.087 84.3914 203.003 85.7354 202.989V202.821C85.7354 201.729 85.2314 201.141 84.0834 201.141C83.1174 201.141 82.5994 201.673 82.4594 202.513ZM82.2214 205.523C82.2214 206.153 82.7394 206.545 83.5374 206.545C84.7834 206.545 85.7354 205.551 85.7354 204.347V204.011C82.8654 204.039 82.2214 204.669 82.2214 205.523ZM90.1618 202.037C90.1618 203.941 94.9358 202.345 94.9358 205.383C94.9358 206.797 93.6618 207.721 91.8558 207.721C90.0498 207.721 88.7758 206.881 88.4958 205.103H89.9938C90.1478 206.041 90.8478 206.559 91.8978 206.559C92.9058 206.559 93.4378 206.111 93.4378 205.481C93.4378 203.619 88.7338 205.187 88.7338 202.121C88.7338 200.959 89.6438 199.881 91.5338 199.881C93.1998 199.881 94.4318 200.651 94.6698 202.513H93.1718C93.0038 201.463 92.4158 201.071 91.4638 201.071C90.6378 201.071 90.1618 201.477 90.1618 202.037ZM96.1599 207.539V197.459H97.6579V203.241L100.626 200.077H102.418L99.1979 203.395L102.614 207.539H100.752L97.6579 203.815V207.539H96.1599Z" fill="#313131"/>
</g>
<g filter="url(#filter3_i_2254_266)">
<rect x="35.8457" y="239.385" width="270" height="75" rx="6.92308" fill="#F7F8FA" fill-opacity="0.35"/>
<rect x="36.4226" y="239.962" width="268.846" height="73.8462" rx="6.34615" stroke="#E5E6EC" stroke-width="1.15385"/>
<path d="M48.8677 266.385V256.865H52.1297C55.1117 256.865 56.9597 258.657 56.9597 261.639C56.9597 264.621 55.1117 266.385 52.1297 266.385H48.8677ZM52.1297 265.111C54.1597 265.111 55.3637 263.823 55.3637 261.639C55.3637 259.427 54.1597 258.139 52.1297 258.139H50.4357V265.111H52.1297ZM65.3341 263.949C64.9281 265.685 63.6401 266.567 61.8901 266.567C59.6921 266.567 58.3481 265.097 58.3481 262.661C58.3481 260.127 59.6921 258.727 61.8201 258.727C63.9761 258.727 65.2781 260.183 65.2781 262.577V262.941H59.8741C59.9581 264.467 60.6721 265.321 61.8901 265.321C62.8421 265.321 63.5141 264.873 63.7661 263.949H65.3341ZM61.8201 259.973C60.7421 259.973 60.0981 260.659 59.9161 261.919H63.7241C63.5421 260.659 62.8841 259.973 61.8201 259.973ZM68.6445 266.385L65.9005 258.923H67.5105L69.4285 264.467L69.6105 265.181L69.7925 264.467L71.6965 258.923H73.2225L70.4785 266.385H68.6445ZM80.9129 263.949C80.5069 265.685 79.2189 266.567 77.4689 266.567C75.2709 266.567 73.9269 265.097 73.9269 262.661C73.9269 260.127 75.2709 258.727 77.3989 258.727C79.5549 258.727 80.8569 260.183 80.8569 262.577V262.941H75.4529C75.5369 264.467 76.2509 265.321 77.4689 265.321C78.4209 265.321 79.0929 264.873 79.3449 263.949H80.9129ZM77.3989 259.973C76.3209 259.973 75.6769 260.659 75.4949 261.919H79.3029C79.1209 260.659 78.4629 259.973 77.3989 259.973ZM82.4973 266.385V256.305H83.9953V266.385H82.4973ZM89.0679 266.567C86.8979 266.567 85.5819 265.097 85.5819 262.661C85.5819 260.127 86.9399 258.727 89.0679 258.727C91.2379 258.727 92.5539 260.225 92.5539 262.661C92.5539 265.181 91.1959 266.567 89.0679 266.567ZM89.0679 265.307C90.3419 265.307 91.0279 264.383 91.0279 262.661C91.0279 260.953 90.3279 259.987 89.0679 259.987C87.8079 259.987 87.1079 260.925 87.1079 262.661C87.1079 264.355 87.8079 265.307 89.0679 265.307ZM95.6503 269.465H94.1523V258.923H95.6503V259.819C96.1263 259.119 96.8263 258.727 97.6803 258.727C99.6543 258.727 100.844 260.197 100.844 262.633C100.844 265.167 99.6263 266.567 97.6803 266.567C96.8263 266.567 96.1263 266.217 95.6503 265.531V269.465ZM97.4983 259.987C96.2943 259.987 95.6503 260.925 95.6503 262.633C95.6503 264.341 96.3223 265.307 97.4983 265.307C98.6743 265.307 99.3183 264.355 99.3183 262.633C99.3183 260.939 98.6463 259.987 97.4983 259.987Z" fill="#6E7180"/>
<path d="M49.0997 297.385V296.769C49.0997 290.433 56.7777 290.873 56.7777 287.287C56.7777 285.813 55.8977 284.933 54.3137 284.933C52.5757 284.933 51.7177 285.835 51.4537 287.331H49.0557C49.4297 284.625 51.2997 282.953 54.3357 282.953C57.5257 282.953 59.1537 284.845 59.1537 287.265C59.1537 291.687 52.4877 291.841 51.5197 295.559H59.2637V297.385H49.0997ZM72.1595 292.655C72.1595 295.559 70.3115 297.671 66.8355 297.671C63.6455 297.671 61.6875 296.043 61.2915 293.337H63.6455C63.8875 294.789 64.9215 295.691 66.8135 295.691C68.7935 295.691 69.8055 294.569 69.8055 292.699C69.8055 291.137 69.0575 289.597 66.7915 289.597C65.2955 289.597 64.4375 290.257 63.9535 290.983L61.8415 290.785L62.2815 283.239H71.4775V285.087H64.1735L63.9535 288.585C64.7455 288.013 65.6915 287.639 66.9895 287.639C70.7075 287.639 72.1595 289.971 72.1595 292.655Z" fill="#313131"/>
<path d="M76.9517 294.159V290.085H75.9437V288.923H76.9517V287.201H78.4497V288.923H80.0597V290.085H78.4497V294.075C78.4497 294.929 78.6877 295.335 79.7377 295.335H80.0317V296.427C79.8637 296.511 79.5137 296.567 79.0937 296.567C77.6377 296.567 76.9517 295.769 76.9517 294.159ZM82.4594 291.359H80.9614C81.1994 289.707 82.3334 288.727 84.1954 288.727C86.2254 288.727 87.2334 289.917 87.2334 291.653V294.565C87.2334 295.461 87.3174 295.979 87.4854 296.385H85.9174C85.8054 296.105 85.7634 295.713 85.7494 295.293C85.1194 296.175 84.1534 296.567 83.2574 296.567C81.7454 296.567 80.7094 295.853 80.7094 294.425C80.7094 293.403 81.2694 292.647 82.3894 292.269C83.3834 291.933 84.3914 291.849 85.7354 291.835V291.667C85.7354 290.575 85.2314 289.987 84.0834 289.987C83.1174 289.987 82.5994 290.519 82.4594 291.359ZM82.2214 294.369C82.2214 294.999 82.7394 295.391 83.5374 295.391C84.7834 295.391 85.7354 294.397 85.7354 293.193V292.857C82.8654 292.885 82.2214 293.515 82.2214 294.369ZM90.1618 290.883C90.1618 292.787 94.9358 291.191 94.9358 294.229C94.9358 295.643 93.6618 296.567 91.8558 296.567C90.0498 296.567 88.7758 295.727 88.4958 293.949H89.9938C90.1478 294.887 90.8478 295.405 91.8978 295.405C92.9058 295.405 93.4378 294.957 93.4378 294.327C93.4378 292.465 88.7338 294.033 88.7338 290.967C88.7338 289.805 89.6438 288.727 91.5338 288.727C93.1998 288.727 94.4318 289.497 94.6698 291.359H93.1718C93.0038 290.309 92.4158 289.917 91.4638 289.917C90.6378 289.917 90.1618 290.323 90.1618 290.883ZM96.1599 296.385V286.305H97.6579V292.087L100.626 288.923H102.418L99.1979 292.241L102.614 296.385H100.752L97.6579 292.661V296.385H96.1599Z" fill="#313131"/>
</g>
</g>
<defs>
<filter id="filter0_dddd_2254_266" x="0.845703" y="0.846191" width="394.309" height="491.308" filterUnits="userSpaceOnUse" color-interpolation-filters="sRGB">
<feFlood flood-opacity="0" result="BackgroundImageFix"/>
<feColorMatrix in="SourceAlpha" type="matrix" values="0 0 0 0 0 0 0 0 0 0 0 0 0 0 0 0 0 0 127 0" result="hardAlpha"/>
<feOffset dx="2" dy="6"/>
<feGaussianBlur stdDeviation="7.5"/>
<feColorMatrix type="matrix" values="0 0 0 0 0 0 0 0 0 0 0 0 0 0 0 0 0 0 0.17 0"/>
<feBlend mode="normal" in2="BackgroundImageFix" result="effect1_dropShadow_2254_266"/>
<feColorMatrix in="SourceAlpha" type="matrix" values="0 0 0 0 0 0 0 0 0 0 0 0 0 0 0 0 0 0 127 0" result="hardAlpha"/>
<feOffset dx="7" dy="26"/>
<feGaussianBlur stdDeviation="13.5"/>
<feColorMatrix type="matrix" values="0 0 0 0 0 0 0 0 0 0 0 0 0 0 0 0 0 0 0.15 0"/>
<feBlend mode="normal" in2="effect1_dropShadow_2254_266" result="effect2_dropShadow_2254_266"/>
<feColorMatrix in="SourceAlpha" type="matrix" values="0 0 0 0 0 0 0 0 0 0 0 0 0 0 0 0 0 0 127 0" result="hardAlpha"/>
<feOffset dx="17" dy="58"/>
<feGaussianBlur stdDeviation="18"/>
<feColorMatrix type="matrix" values="0 0 0 0 0 0 0 0 0 0 0 0 0 0 0 0 0 0 0.09 0"/>
<feBlend mode="normal" in2="effect2_dropShadow_2254_266" result="effect3_dropShadow_2254_266"/>
<feColorMatrix in="SourceAlpha" type="matrix" values="0 0 0 0 0 0 0 0 0 0 0 0 0 0 0 0 0 0 127 0" result="hardAlpha"/>
<feOffset dx="29" dy="102"/>
<feGaussianBlur stdDeviation="21.5"/>
<feColorMatrix type="matrix" values="0 0 0 0 0 0 0 0 0 0 0 0 0 0 0 0 0 0 0.03 0"/>
<feBlend mode="normal" in2="effect3_dropShadow_2254_266" result="effect4_dropShadow_2254_266"/>
<feBlend mode="normal" in="SourceGraphic" in2="effect4_dropShadow_2254_266" result="shape"/>
</filter>
<filter id="filter1_i_2254_266" x="35.8457" y="61.6924" width="270" height="79.6154" filterUnits="userSpaceOnUse" color-interpolation-filters="sRGB">
<feFlood flood-opacity="0" result="BackgroundImageFix"/>
<feBlend mode="normal" in="SourceGraphic" in2="BackgroundImageFix" result="shape"/>
<feColorMatrix in="SourceAlpha" type="matrix" values="0 0 0 0 0 0 0 0 0 0 0 0 0 0 0 0 0 0 127 0" result="hardAlpha"/>
<feOffset dy="4.61538"/>
<feGaussianBlur stdDeviation="13.8462"/>
<feComposite in2="hardAlpha" operator="arithmetic" k2="-1" k3="1"/>
<feColorMatrix type="matrix" values="0 0 0 0 0 0 0 0 0 0 0 0 0 0 0 0 0 0 0.01 0"/>
<feBlend mode="normal" in2="shape" result="effect1_innerShadow_2254_266"/>
</filter>
<filter id="filter2_i_2254_266" x="35.8457" y="150.539" width="270" height="79.6154" filterUnits="userSpaceOnUse" color-interpolation-filters="sRGB">
<feFlood flood-opacity="0" result="BackgroundImageFix"/>
<feBlend mode="normal" in="SourceGraphic" in2="BackgroundImageFix" result="shape"/>
<feColorMatrix in="SourceAlpha" type="matrix" values="0 0 0 0 0 0 0 0 0 0 0 0 0 0 0 0 0 0 127 0" result="hardAlpha"/>
<feOffset dy="4.61538"/>
<feGaussianBlur stdDeviation="13.8462"/>
<feComposite in2="hardAlpha" operator="arithmetic" k2="-1" k3="1"/>
<feColorMatrix type="matrix" values="0 0 0 0 0 0 0 0 0 0 0 0 0 0 0 0 0 0 0.01 0"/>
<feBlend mode="normal" in2="shape" result="effect1_innerShadow_2254_266"/>
</filter>
<filter id="filter3_i_2254_266" x="35.8457" y="239.385" width="270" height="79.6154" filterUnits="userSpaceOnUse" color-interpolation-filters="sRGB">
<feFlood flood-opacity="0" result="BackgroundImageFix"/>
<feBlend mode="normal" in="SourceGraphic" in2="BackgroundImageFix" result="shape"/>
<feColorMatrix in="SourceAlpha" type="matrix" values="0 0 0 0 0 0 0 0 0 0 0 0 0 0 0 0 0 0 127 0" result="hardAlpha"/>
<feOffset dy="4.61538"/>
<feGaussianBlur stdDeviation="13.8462"/>
<feComposite in2="hardAlpha" operator="arithmetic" k2="-1" k3="1"/>
<feColorMatrix type="matrix" values="0 0 0 0 0 0 0 0 0 0 0 0 0 0 0 0 0 0 0.01 0"/>
<feBlend mode="normal" in2="shape" result="effect1_innerShadow_2254_266"/>
</filter>
</defs>
</svg>
