<svg width="140" height="34" viewBox="0 0 140 34" fill="none" xmlns="http://www.w3.org/2000/svg">
<path fill-rule="evenodd" clip-rule="evenodd" d="M1.62699 23.7916C1.1963 24.356 0.966111 25.0466 0.973536 25.7594C0.891855 29.3683 6.49818 33.6825 16.9534 33.987C26.0052 34.2469 34.4333 30.5935 34.4333 25.7074C34.4407 25.054 34.2848 24.408 33.9729 23.8288C33.5125 22.9525 28.1586 14.8215 28.1586 14.8215C28.1586 14.8215 26.4508 12.0072 24.7057 12.3042C23.4879 12.5122 22.7825 13.6483 21.2306 16.4403C20.0202 18.6383 16.9757 24.4748 15.5351 27.1406C15.1044 27.9277 13.5822 31.0167 11.7704 30.4227C10.1516 29.8509 10.0625 27.1703 9.8991 25.3659C9.81742 24.5045 9.5798 22.1432 9.52782 21.4452C9.25307 17.4799 8.73328 16.767 7.79023 16.8042C6.4165 16.8561 3.03785 21.8164 1.62699 23.7916Z" fill="#9597B3"/>
<path fill-rule="evenodd" clip-rule="evenodd" d="M16.7305 9.80178C16.7305 9.80178 21.067 9.48248 24.2674 10.9899C24.364 11.027 24.4754 10.9825 24.5199 10.8859C24.5422 10.8339 24.5422 10.7745 24.5125 10.7226L18.8022 0.705431C18.6166 0.297024 18.223 0.0222768 17.7701 0C17.0498 0 16.9681 1.38116 16.9681 1.38116L16.7305 9.80178Z" fill="#9597B3"/>
<path fill-rule="evenodd" clip-rule="evenodd" d="M17.7707 0C17.7707 0 17.6371 0 17.5851 0.698006C17.5405 1.32918 16.7683 12.8389 16.5826 15.5715C16.5604 15.8982 16.2782 16.1507 15.9515 16.1284H15.944C13.7164 15.965 9.13477 14.9923 9.13477 12.9725C9.15704 12.6681 9.24615 12.3785 9.40951 12.1186L16.4713 0.794539C16.7386 0.326726 17.2287 0.0297024 17.7707 0Z" fill="#9597B3"/>
<path fill-rule="evenodd" clip-rule="evenodd" d="M57.4525 8.27216L48.4824 25.5664H52.4477L53.6581 23.0194H61.2396L62.4797 25.5664H66.4524L57.4525 8.27216ZM59.7693 19.8412H55.1803L57.4748 15.0443L59.7693 19.8412Z" fill="#9597B3"/>
<path fill-rule="evenodd" clip-rule="evenodd" d="M95.9168 18.3116L87.3848 8.27216V25.5664H91.0085V17.7992L95.9168 23.5986L100.847 17.7918V25.5664H104.478L104.486 8.27216L95.9168 18.3116Z" fill="#9597B3"/>
<path fill-rule="evenodd" clip-rule="evenodd" d="M139.223 8.59146H135.6V18.4675L124.409 8.27216V25.5664H128.025L128.04 16.4626L139.223 25.9896V8.59146Z" fill="#9597B3"/>
<path fill-rule="evenodd" clip-rule="evenodd" d="M114.43 8.27216L105.452 25.5664H109.417L110.62 23.0194H118.217L119.457 25.5738H123.43L114.43 8.27216ZM112.135 19.819L114.43 15.022L116.724 19.8264L112.135 19.819Z" fill="#9597B3"/>
<path fill-rule="evenodd" clip-rule="evenodd" d="M84.5259 8.27216L75.9717 18.3116L67.4248 8.27216L67.4322 25.5664H71.0559V17.7992L75.9717 23.5986L80.8948 17.7918V25.5664H84.5259V8.27216Z" fill="#9597B3"/>
</svg>
