<svg width="154" height="26" viewBox="0 0 154 26" fill="none" xmlns="http://www.w3.org/2000/svg">
<g clip-path="url(#clip0_2006_775)">
<path d="M52.0556 25.6976C49.2973 25.4107 47.5029 24.4567 46.734 22.8685C46.4377 22.2564 46.1941 21.0849 46.1917 20.2608C46.1849 17.8504 47.3727 16.1816 49.6878 15.3489C51.0016 14.8764 52.2268 14.7301 54.8729 14.7301H57.2756V14.0517C57.2756 12.2953 55.9711 11.2354 53.8307 11.2528C52.6562 11.2623 51.8432 11.4753 50.3716 12.1592C49.0361 12.7798 48.7094 12.8009 48.064 12.3087C47.6667 12.0056 46.8733 10.5044 46.815 9.94543C46.7853 9.66023 46.8584 9.57435 47.5218 9.11575C49.8868 7.48077 54.1003 6.7674 56.9895 7.51281C58.9334 8.01431 60.3799 9.11455 61.1569 10.6825C61.867 12.1158 61.8956 12.4452 61.8998 19.2658L61.9036 25.2544L61.6614 25.3143C60.1839 25.6799 54.1862 25.9193 52.0556 25.6976ZM56.9392 21.9816L57.2756 21.9143V19.9367V17.959L55.419 17.9599C52.5891 17.9612 51.621 18.1978 51.0642 19.0244C50.8742 19.3065 50.818 19.5403 50.8183 20.0469C50.8188 21.1209 51.2419 21.5902 52.4861 21.8977C53.0515 22.0374 56.3496 22.0995 56.9392 21.9816ZM116.858 25.6933C113.816 25.3029 111.619 23.8779 110.39 21.4986C108.911 18.6361 108.949 14.4082 110.477 11.5816C112.07 8.63635 115.111 7.00362 118.579 7.23145C122.108 7.46328 124.291 9.08821 125.302 12.2367C125.697 13.4668 125.835 14.532 125.835 16.3523V17.8514H119.954H114.073L114.136 18.3766C114.267 19.4855 114.983 20.5081 116.014 21.0575C116.917 21.5387 117.747 21.726 118.975 21.726C120.756 21.726 122.321 21.2419 123.556 20.3093L124.143 19.8664L124.34 20.1235C124.448 20.2649 124.683 20.6772 124.863 21.0396C125.447 22.2199 125.235 23.3699 124.291 24.1362C122.698 25.429 119.697 26.0576 116.858 25.6933ZM121.441 14.5673C121.542 14.4669 121.308 13.294 121.089 12.7969C120.801 12.1441 120.22 11.568 119.55 11.2703C118.763 10.9207 117.216 10.9201 116.34 11.269C115.219 11.7154 114.274 12.9263 114.136 14.0927L114.073 14.6224H117.73C119.741 14.6224 121.411 14.5977 121.441 14.5673ZM4.64536 25.6407C2.90433 25.4334 1.26797 24.8367 0.748734 24.2196C0.384837 23.7871 0.28112 23.1224 0.449802 22.3039C0.624096 21.458 1.15807 20.2854 1.33449 20.361C1.4092 20.393 1.85778 20.5852 2.33135 20.7882C3.9141 21.4664 5.74708 21.7915 7.45735 21.6972C9.15716 21.6036 9.87718 21.1361 9.85495 20.1408C9.83461 19.2304 9.27199 18.9014 6.85964 18.3893C4.26144 17.8378 3.2439 17.4059 2.1851 16.4056C1.25237 15.5244 0.770735 14.3124 0.770735 12.8466C0.770735 11.3136 1.26707 10.1451 2.34753 9.13435C4.28707 7.32 7.70271 6.75594 11.7367 7.5838C12.8984 7.82219 14.2339 8.27991 14.3045 8.46383C14.398 8.70763 14.0372 10.2035 13.7366 10.818C13.5874 11.123 13.3334 11.4601 13.1722 11.5673C12.785 11.8244 11.9674 11.8016 10.7802 11.5005C9.50227 11.1764 7.37631 11.0889 6.55851 11.3266C5.77966 11.553 5.39875 11.9764 5.39875 12.6157C5.39875 13.5307 5.87547 13.8239 8.11584 14.2867C11.6554 15.018 13.321 15.9558 14.1226 17.6689C14.6821 18.8646 14.799 21.0726 14.3301 22.3961C12.6691 25.8033 8.37583 26.1931 4.64536 25.6407ZM80.0822 25.5536C78.2797 25.1762 77.1869 24.1827 76.5825 22.3717C76.3991 21.8224 76.3823 21.1951 76.3496 13.6539C76.3302 9.18459 76.3431 5.37194 76.3782 5.1813C76.5334 4.33805 77.4911 3.76077 79.6291 3.22181C80.3507 3.03988 80.9683 2.89103 81.0013 2.89103C81.0344 2.89103 81.0614 3.93233 81.0614 5.20503V7.51904H83.442H85.8225L85.7771 8.8913C85.7423 9.94111 85.6844 10.3615 85.5306 10.6804C85.2253 11.3131 84.9216 11.3937 82.8408 11.3937H81.0614V15.8374C81.0614 20.2317 81.0641 20.2865 81.3036 20.7614C81.4793 21.11 81.6786 21.3102 82.0301 21.4917C82.4859 21.727 82.6085 21.7393 84.1126 21.701L85.7109 21.6603L85.6732 22.9039C85.6425 23.9192 85.595 24.2167 85.4145 24.5239C85.1607 24.956 84.6501 25.3314 84.0877 25.4993C83.4523 25.689 80.8946 25.7237 80.0822 25.5536ZM38.8833 22.5748C38.8708 21.7281 38.8711 20.5768 38.8711 18.9974C38.8711 15.6096 38.8291 13.4682 38.7558 13.1265C38.4894 11.8845 37.6143 11.2588 36.0553 11.1955C33.4157 11.2927 32.6904 12.9246 32.6287 14.2828L32.6788 25.4391C31.1014 25.4814 29.5244 25.4587 27.9469 25.4391L27.8931 19.1967C27.8402 13.0635 27.8352 12.9467 27.6076 12.5238C27.1117 11.6023 26.4772 11.2623 25.1372 11.1998C23.8206 11.1384 23.0888 11.3485 22.4751 11.9641C21.6991 12.7427 21.7185 12.5619 21.6806 19.3582L21.6467 25.4391C20.1054 25.4585 18.564 25.4778 17.0226 25.4972L17.0245 19.2257C17.0266 12.1813 17.0365 12.0665 17.7724 10.5735C18.5292 9.03794 19.9579 7.96286 21.9197 7.45266C23.0284 7.16431 25.7973 7.18906 26.9399 7.49753C28.1276 7.8182 29.0366 8.31475 29.7148 9.01337L30.3015 9.61779L30.9029 9.02584C31.6294 8.31083 32.5427 7.80738 33.6712 7.49978C34.8879 7.16814 37.582 7.16855 38.8003 7.50053C41.3414 8.193 42.9368 9.8089 43.4441 12.2039C43.5736 12.8153 43.6034 14.103 43.6049 19.1583C43.6066 24.9078 43.5933 25.3674 43.4232 25.4328C40.8017 25.962 38.8242 25.7498 38.8833 22.5748ZM140.714 25.4941C140.074 25.3575 139.721 25.166 139.459 24.8126C139.24 24.5156 139.233 24.3801 139.181 18.7316C139.164 16.9479 139.147 15.7595 139.131 13.9759C139.228 12.184 138.315 11.1299 136.046 11.1784C133.821 11.1316 132.946 12.3591 133.015 13.412L132.992 25.4391H130.624H128.256V19.3043C128.256 13.7928 128.276 13.0864 128.449 12.3514C129 10.0037 130.408 8.46828 132.681 7.73728C134.369 7.19435 136.125 7.06934 138.029 7.35643C141.215 7.83664 143.047 9.33335 143.772 12.0489C143.934 12.6542 143.961 13.5148 143.996 19.0482L144.035 25.3573L143.787 25.4289C143.365 25.5511 141.196 25.597 140.714 25.4941ZM64.9278 25.4391C64.9793 23.7685 64.9323 20.9016 64.9428 19.0717C64.9828 13.1754 64.9928 12.9231 65.2204 12.0932C65.88 9.68849 67.2199 8.32419 69.5114 7.72399C70.4832 7.46945 72.5327 7.34334 73.7871 7.46089L74.629 7.53978L74.5828 8.84786C74.5471 9.85715 74.4867 10.2666 74.3185 10.6403C73.9842 11.3831 73.8885 11.4263 72.4156 11.4995C71.0311 11.5683 70.8488 11.6233 70.3835 12.1124C69.7149 12.8153 69.7176 12.7915 69.6767 19.4389L69.6398 25.4391C68.0347 25.4564 66.4386 25.4441 64.9278 25.4391ZM88.1906 15.5643C88.2261 4.57028 88.184 5.24032 88.9389 3.65228C89.4013 2.6794 90.5413 1.54507 91.5846 1.01977C92.9643 0.325045 93.927 0.149728 96.3446 0.152873C97.4989 0.154373 98.5838 0.192609 98.7553 0.237839L99.0673 0.320074L99 1.4172C98.9191 2.73459 98.7062 3.51159 98.3292 3.866C98.064 4.11526 97.963 4.13177 96.363 4.1876C94.9153 4.23812 94.6135 4.27937 94.2325 4.47886C93.3882 4.92093 92.9005 5.84413 92.9005 7.00044V7.51904H95.3112H97.722L97.7925 8.24553C97.8635 8.97581 97.7181 10.3938 97.5377 10.7308C97.4844 10.8303 97.3345 11.0081 97.2046 11.1258C96.9896 11.3206 96.7852 11.343 94.9344 11.3751L92.9005 11.4104V18.4517V25.493H88.1585L88.1906 15.5643ZM98.952 19.116L98.9846 13.2207C99.0243 12.2403 99.4126 11.2514 99.8677 10.458C100.668 9.07724 101.929 8.18906 103.717 7.72967C104.725 7.47079 106.744 7.34658 108.103 7.45986L109.045 7.53837L109.044 8.36282C109.043 9.37064 108.876 10.4532 108.656 10.8784C108.411 11.3528 107.93 11.5013 106.639 11.5013C106.112 11.5013 105.816 11.5086 105.581 11.5535C104.918 11.7071 104.32 12.2926 103.988 12.9082C103.752 13.3415 103.715 13.7116 103.713 14.1773L103.686 19.4311L103.655 25.493H101.286H98.9167L98.952 19.116Z" fill="#9597B3"/>
<path fill-rule="evenodd" clip-rule="evenodd" d="M146.852 19.1028H153.371V25.4809H146.852V19.1028Z" fill="#9597B3"/>
</g>
<defs>
<clipPath id="clip0_2006_775">
<rect width="153" height="25.6943" fill="white" transform="translate(0.371094 0.152832)"/>
</clipPath>
</defs>
</svg>
