<svg width="143" height="22" viewBox="0 0 143 22" fill="none" xmlns="http://www.w3.org/2000/svg">
<g clip-path="url(#clip0_2012_166)">
<path d="M4.92806 2.35241V21H0.966797V2.35241H4.92806ZM16.7834 6.28673C18.0409 6.28673 19.02 6.67297 19.7207 7.44546C20.4213 8.19999 20.7716 9.25094 20.7716 10.5983V21H16.9451V11.2451C16.9451 10.4726 16.8103 9.9336 16.5409 9.6282C16.2894 9.30483 15.9031 9.14315 15.3821 9.14315C14.8432 9.14315 14.3491 9.31381 13.9 9.65515C13.4689 9.97852 13.0467 10.4726 12.6335 11.1373V21H8.80701V6.71788H12.1215L12.4179 8.52336C13.0108 7.7868 13.6575 7.22988 14.3581 6.85262C15.0767 6.47536 15.8851 6.28673 16.7834 6.28673ZM30.5293 3.45725C29.8825 3.45725 29.4155 3.60995 29.128 3.91536C28.8585 4.22076 28.7238 4.7148 28.7238 5.39746V6.71788H32.1192L31.688 9.41262H28.7238V21H24.8973V9.41262H22.6337V6.71788H24.8973V5.28967C24.8973 3.90638 25.3464 2.78357 26.2447 1.92125C27.1609 1.04097 28.4543 0.60083 30.1251 0.60083C31.4545 0.60083 32.712 0.888269 33.8977 1.46315L32.8468 3.9962C32.0743 3.6369 31.3018 3.45725 30.5293 3.45725ZM45.6689 13.5356C45.6689 13.7152 45.6419 14.2093 45.588 15.0177H36.6684C36.7942 16.3112 37.1445 17.2274 37.7194 17.7663C38.2943 18.3053 39.0757 18.5747 40.0638 18.5747C40.6746 18.5747 41.2495 18.4759 41.7884 18.2783C42.3274 18.0807 42.9112 17.7663 43.54 17.3352L45.1299 19.4909C43.531 20.7844 41.7256 21.4312 39.7135 21.4312C37.4679 21.4312 35.7432 20.7575 34.5396 19.4101C33.336 18.0627 32.7341 16.2393 32.7341 13.9398C32.7341 12.4846 32.9856 11.1822 33.4887 10.0324C34.0096 8.86469 34.7552 7.94848 35.7253 7.28378C36.7134 6.61908 37.8811 6.28673 39.2284 6.28673C41.2585 6.28673 42.8394 6.92448 43.9712 8.19999C45.103 9.4755 45.6689 11.254 45.6689 13.5356ZM41.8693 12.4577C41.8693 10.0863 41.016 8.90062 39.3093 8.90062C38.5188 8.90062 37.899 9.19704 37.4499 9.78988C37.0188 10.3648 36.7583 11.3079 36.6684 12.6194H41.8693V12.4577ZM55.8221 6.31367C56.2533 6.31367 56.7294 6.38553 57.2503 6.52925L56.6036 10.2211C56.1006 10.0953 55.6784 10.0324 55.3371 10.0324C54.4927 10.0324 53.837 10.3288 53.3699 10.9217C52.9028 11.5145 52.5345 12.4128 52.2651 13.6164V21H48.4385V6.71788H51.7531L52.1034 9.49346C52.4447 8.48743 52.9388 7.70595 53.5855 7.14904C54.2502 6.59213 54.9957 6.31367 55.8221 6.31367ZM70.4057 13.5356C70.4057 13.7152 70.3788 14.2093 70.3249 15.0177H61.4053C61.531 16.3112 61.8814 17.2274 62.4562 17.7663C63.0311 18.3053 63.8126 18.5747 64.8007 18.5747C65.4115 18.5747 65.9863 18.4759 66.5253 18.2783C67.0642 18.0807 67.6481 17.7663 68.2769 17.3352L69.8668 19.4909C68.2679 20.7844 66.4624 21.4312 64.4503 21.4312C62.2047 21.4312 60.4801 20.7575 59.2764 19.4101C58.0728 18.0627 57.471 16.2393 57.471 13.9398C57.471 12.4846 57.7225 11.1822 58.2255 10.0324C58.7465 8.86469 59.492 7.94848 60.4621 7.28378C61.4502 6.61908 62.6179 6.28673 63.9653 6.28673C65.9953 6.28673 67.5762 6.92448 68.708 8.19999C69.8398 9.4755 70.4057 11.254 70.4057 13.5356ZM66.6061 12.4577C66.6061 10.0863 65.7528 8.90062 64.0461 8.90062C63.2557 8.90062 62.6359 9.19704 62.1868 9.78988C61.7556 10.3648 61.4951 11.3079 61.4053 12.6194H66.6061V12.4577ZM81.1518 6.28673C82.4094 6.28673 83.3884 6.67297 84.0891 7.44546C84.7897 8.19999 85.14 9.25094 85.14 10.5983V21H81.3135V11.2451C81.3135 10.4726 81.1788 9.9336 80.9093 9.6282C80.6578 9.30483 80.2715 9.14315 79.7505 9.14315C79.2116 9.14315 78.7176 9.31381 78.2684 9.65515C77.8373 9.97852 77.4151 10.4726 77.0019 11.1373V21H73.1754V6.71788H76.4899L76.7863 8.52336C77.3792 7.7868 78.0259 7.22988 78.7265 6.85262C79.4451 6.47536 80.2536 6.28673 81.1518 6.28673ZM94.736 6.28673C95.6882 6.28673 96.5415 6.43045 97.296 6.71788C98.0685 6.98736 98.7961 7.41852 99.4788 8.01136L97.808 10.2749C97.3409 9.91564 96.8828 9.65515 96.4337 9.49346C96.0025 9.33178 95.5265 9.25094 95.0055 9.25094C92.9755 9.25094 91.9604 10.8139 91.9604 13.9398C91.9604 15.5207 92.2209 16.6525 92.7419 17.3352C93.2629 18.0178 94.0084 18.3592 94.9785 18.3592C95.4816 18.3592 95.9397 18.2873 96.3529 18.1436C96.7661 17.9819 97.2511 17.7214 97.808 17.3621L99.4788 19.7604C98.1134 20.8742 96.5505 21.4312 94.7899 21.4312C93.3887 21.4312 92.167 21.1258 91.1251 20.5149C90.1011 19.9041 89.3106 19.0418 88.7537 17.928C88.1968 16.7962 87.9183 15.4758 87.9183 13.9667C87.9183 12.4577 88.1968 11.1283 88.7537 9.97852C89.3106 8.8108 90.1011 7.90357 91.1251 7.25683C92.167 6.61009 93.3707 6.28673 94.736 6.28673ZM113.196 13.5356C113.196 13.7152 113.169 14.2093 113.115 15.0177H104.195C104.321 16.3112 104.671 17.2274 105.246 17.7663C105.821 18.3053 106.602 18.5747 107.591 18.5747C108.201 18.5747 108.776 18.4759 109.315 18.2783C109.854 18.0807 110.438 17.7663 111.067 17.3352L112.657 19.4909C111.058 20.7844 109.252 21.4312 107.24 21.4312C104.995 21.4312 103.27 20.7575 102.066 19.4101C100.863 18.0627 100.261 16.2393 100.261 13.9398C100.261 12.4846 100.512 11.1822 101.015 10.0324C101.536 8.86469 102.282 7.94848 103.252 7.28378C104.24 6.61908 105.408 6.28673 106.755 6.28673C108.785 6.28673 110.366 6.92448 111.498 8.19999C112.63 9.4755 113.196 11.254 113.196 13.5356ZM109.396 12.4577C109.396 10.0863 108.543 8.90062 106.836 8.90062C106.046 8.90062 105.426 9.19704 104.977 9.78988C104.545 10.3648 104.285 11.3079 104.195 12.6194H109.396V12.4577ZM132.488 21L131.437 16.8232H125.589L124.538 21H120.415L126.155 2.35241H130.979L136.692 21H132.488ZM126.344 13.8859H130.682L128.5 5.28967L126.344 13.8859ZM142.376 2.35241V21H138.415V2.35241H142.376Z" fill="black"/>
</g>
<defs>
<clipPath id="clip0_2012_166">
<rect width="143" height="22" fill="white"/>
</clipPath>
</defs>
</svg>
