<svg width="28" height="28" viewBox="0 0 28 28" fill="none" xmlns="http://www.w3.org/2000/svg">
<path d="M27.8045 0.250313C27.6417 0.087344 27.4187 -0.00453098 27.1897 0.000172143C27.0896 0.00142996 24.6997 0.040094 21.5494 0.820266C18.6245 1.54466 14.4704 3.07525 11.2921 6.25358C10.9227 6.6231 10.5765 7.00613 10.2501 7.39857C7.67293 7.0489 5.19619 7.77263 3.02575 9.5252C1.17556 11.019 0.203982 12.7323 0.163623 12.8045C0.0930371 12.9306 0.0555634 13.0725 0.0547027 13.217C0.0538419 13.3615 0.0896223 13.5038 0.158701 13.6308C0.227894 13.7576 0.328128 13.8649 0.450032 13.9425C0.571935 14.02 0.711524 14.0655 0.855748 14.0744L5.70374 14.3771L4.37538 15.7055C4.21518 15.8657 4.12519 16.083 4.12519 16.3095C4.12519 16.5361 4.21518 16.7533 4.37538 16.9135L5.04683 17.5849C5.03765 17.5941 5.02786 17.6031 5.01867 17.6123C2.13943 20.4917 2.05012 24.9532 2.04777 25.1418C2.04632 25.2549 2.06734 25.3671 2.10962 25.472C2.15189 25.5769 2.21457 25.6723 2.29402 25.7528C2.37347 25.8333 2.46811 25.8972 2.57245 25.9408C2.67679 25.9844 2.78874 26.0068 2.90183 26.0068H2.91276C3.10138 26.0045 7.5629 25.9152 10.4421 23.0358C10.4515 23.0266 10.4605 23.0169 10.4695 23.0075L11.141 23.6791C11.3012 23.8393 11.5185 23.9293 11.7451 23.9293C11.9716 23.9293 12.1889 23.8393 12.3491 23.6791L13.6775 22.3506L13.9801 27.1988C13.9891 27.3431 14.0345 27.4827 14.1122 27.6045C14.1898 27.7264 14.2971 27.8266 14.424 27.8957C14.5509 27.9648 14.6932 28.0007 14.8377 27.9998C14.9822 27.999 15.1241 27.9616 15.2501 27.891C15.3223 27.8504 17.0356 26.879 18.5294 25.0288C20.282 22.8582 21.006 20.3817 20.6562 17.8045C21.0485 17.4783 21.4317 17.1319 21.8011 16.7625C24.9796 13.5842 26.51 9.43027 27.2344 6.50514C28.0145 3.35509 28.0532 0.965024 28.0545 0.864836C28.0559 0.750901 28.0346 0.637826 27.9917 0.532275C27.9487 0.426724 27.8851 0.330889 27.8045 0.250313ZM6.18734 16.3096L7.6464 14.8506L13.204 20.4082L11.7449 21.8673L6.18734 16.3096ZM6.22661 18.8205C6.23601 18.8112 6.2452 18.802 6.25461 18.7928L9.26176 21.8002L9.2342 21.828C7.57372 23.4885 5.16195 24.0342 3.84196 24.2128C4.02057 22.8923 4.56657 20.4809 6.22661 18.8205ZM14.6164 19.4046L8.64981 13.4379C9.49894 11.3613 10.7262 9.23552 12.5001 7.46157C14.8626 5.09912 17.8512 3.72641 20.3395 2.93596L25.1186 7.71537C24.3282 10.2034 22.9557 13.1921 20.5931 15.5545C18.7977 17.3498 16.6406 18.5734 14.6165 19.4046H14.6164ZM25.6309 5.86863L22.186 2.4237C23.9153 2.0112 25.3957 1.83581 26.2929 1.76171C26.2188 2.65913 26.0434 4.13952 25.6309 5.86858V5.86863ZM4.14132 10.8203C5.6642 9.60439 7.30849 9.00217 9.04908 9.0182C8.23583 10.2482 7.59276 11.5232 7.08586 12.7517L2.48954 12.4648C2.89805 11.9647 3.45171 11.371 4.14132 10.8203ZM17.2345 23.9133C16.6835 24.6029 16.0899 25.1568 15.5898 25.5652L15.3029 20.9687C16.5314 20.4616 17.8064 19.8188 19.0364 19.0055C19.0526 20.7463 18.4505 22.3906 17.2345 23.9133Z" fill="#3276F5"/>
<path d="M20.4315 7.62386C19.7816 6.97384 18.9173 6.61597 17.9983 6.61597C17.0791 6.61597 16.2148 6.97384 15.5649 7.62386C14.2232 8.96562 14.2232 11.1486 15.5649 12.4904C16.2148 13.1405 17.0791 13.4985 17.9983 13.4985C18.9173 13.4985 19.7814 13.1405 20.4315 12.4904C21.0815 11.8406 21.4394 10.9763 21.4394 10.0572C21.4394 9.13804 21.0815 8.27371 20.4315 7.62386ZM19.2235 11.2824C18.8962 11.6099 18.4611 11.7899 17.9983 11.7899C17.5354 11.7899 17.1003 11.6099 16.7728 11.2826C16.0973 10.6069 16.0973 9.50762 16.7728 8.8319C17.1003 8.50465 17.5354 8.32435 17.9983 8.32435C18.461 8.32435 18.8962 8.50465 19.2235 8.8319C19.5507 9.15915 19.731 9.5943 19.731 10.0572C19.731 10.5202 19.5507 10.9551 19.2235 11.2824Z" fill="#3276F5"/>
</svg>
