<svg width="28" height="28" viewBox="0 0 28 28" fill="none" xmlns="http://www.w3.org/2000/svg">
<g clip-path="url(#clip0_2254_308)">
<path d="M24.3906 10.6641C24.3906 8.95573 23.0847 7.5536 21.4169 7.39834C21.5683 7.05873 21.6562 6.68489 21.6562 6.28906C21.6562 4.77892 20.432 3.55469 18.9219 3.55469C18.9219 2.04455 17.6976 0.820312 16.1875 0.820312C15.2888 0.820312 14.4984 1.25973 14 1.9291C13.5016 1.25973 12.7112 0.820312 11.8125 0.820312C10.3024 0.820312 9.07812 2.04455 9.07812 3.55469C7.56798 3.55469 6.34375 4.77892 6.34375 6.28906C6.34375 6.68489 6.43174 7.05873 6.58306 7.39834C4.91526 7.5536 3.60938 8.95573 3.60938 10.6641C3.60938 12.3724 4.91526 13.7745 6.58306 13.9298C6.43174 14.2694 6.34375 14.6432 6.34375 15.0391C6.34375 16.5492 7.56798 17.7734 9.07812 17.7734C9.07812 19.2836 10.3024 20.5078 11.8125 20.5078C12.7112 20.5078 13.5016 20.0684 14 19.399C14.4984 20.0684 15.2888 20.5078 16.1875 20.5078C17.6976 20.5078 18.9219 19.2836 18.9219 17.7734C20.432 17.7734 21.6562 16.5492 21.6562 15.0391C21.6562 14.6432 21.5683 14.2694 21.4169 13.9298C23.0847 13.7745 24.3906 12.3724 24.3906 10.6641Z" stroke="#3276F5" stroke-width="1.64062" stroke-miterlimit="10" stroke-linecap="round" stroke-linejoin="round"/>
<path d="M21.6562 15.039C21.6562 13.5289 20.432 12.3047 18.9219 12.3047M6.34375 15.039C6.34375 13.5289 7.56798 12.3047 9.07812 12.3047M14 19.414V1.92908M16.9884 4.35556C18.0562 3.28773 19.7875 3.28773 20.8554 4.35556C21.9233 5.42339 21.9232 7.15469 20.8554 8.22257M11.0116 4.35556C9.94377 3.28773 8.21248 3.28773 7.14459 4.35556C6.07671 5.42339 6.07677 7.15469 7.14459 8.22257M10.7188 20.277V22.8047C10.7188 23.4087 11.2084 23.8984 11.8125 23.8984H16.1875C16.7916 23.8984 17.2812 23.4087 17.2812 22.8047V20.277M24.9375 4.10154L27.1797 3.00779M24.9375 16.1328L27.1797 17.2265M3.0625 4.10154L0.820312 3.00779M3.0625 16.1328L0.820312 17.2265M14.8203 27.1797H13.1797C12.5756 27.1797 12.0859 26.69 12.0859 26.0859V23.8984H15.9141V26.0859C15.9141 26.69 15.4244 27.1797 14.8203 27.1797Z" stroke="#3276F5" stroke-width="1.64062" stroke-miterlimit="10" stroke-linecap="round" stroke-linejoin="round"/>
</g>
<defs>
<clipPath id="clip0_2254_308">
<rect width="28" height="28" fill="white"/>
</clipPath>
</defs>
</svg>
