<svg width="465" height="361" viewBox="0 0 465 361" fill="none" xmlns="http://www.w3.org/2000/svg">
<g filter="url(#filter0_dddd_2304_1117)">
<rect x="20" y="10.5" width="376" height="300" rx="10" fill="white"/>
<rect x="19.4577" y="9.95769" width="377.085" height="301.085" rx="10.5423" stroke="#E5E6EC" stroke-width="1.08462"/>
<rect x="33.6302" y="26.01" width="349.06" height="79.06" rx="7.05" fill="white"/>
<rect x="33.6302" y="26.01" width="349.06" height="79.06" rx="7.05" stroke="#E5E6EC" stroke-width="0.94"/>
<rect x="48.1992" y="40.5798" width="49.82" height="49.82" rx="7.52" fill="#F3F5F9"/>
<g clip-path="url(#clip0_2304_1117)">
<path d="M83.7628 54.8816C83.6316 54.7503 83.4519 54.6763 83.2674 54.6801C83.1867 54.6811 81.2611 54.7122 78.7229 55.3408C76.3662 55.9245 73.0193 57.1577 70.4584 59.7185C70.1608 60.0163 69.8818 60.3249 69.6189 60.6411C67.5424 60.3593 65.5469 60.9425 63.7981 62.3545C62.3074 63.5581 61.5246 64.9385 61.4921 64.9967C61.4352 65.0983 61.405 65.2126 61.4043 65.329C61.4036 65.4455 61.4324 65.5602 61.4881 65.6624C61.5439 65.7646 61.6246 65.851 61.7228 65.9136C61.8211 65.9761 61.9335 66.0127 62.0497 66.0199L65.9558 66.2638L64.8855 67.3341C64.7565 67.4631 64.684 67.6382 64.684 67.8207C64.684 68.0033 64.7565 68.1783 64.8855 68.3074L65.4265 68.8484C65.4191 68.8558 65.4113 68.863 65.4038 68.8704C63.084 71.1904 63.012 74.7851 63.0102 74.9371C63.009 75.0282 63.0259 75.1186 63.06 75.2031C63.094 75.2876 63.1445 75.3645 63.2086 75.4293C63.2726 75.4942 63.3488 75.5457 63.4329 75.5808C63.517 75.6159 63.6072 75.634 63.6983 75.634H63.7071C63.8591 75.6321 67.4538 75.5601 69.7736 73.2402C69.7811 73.2328 69.7884 73.225 69.7956 73.2174L70.3367 73.7586C70.4658 73.8876 70.6409 73.9601 70.8234 73.9601C71.0059 73.9601 71.181 73.8876 71.3101 73.7586L72.3804 72.6882L72.6242 76.5944C72.6315 76.7106 72.6681 76.8231 72.7306 76.9213C72.7932 77.0195 72.8796 77.1002 72.9819 77.1559C73.0841 77.2116 73.1988 77.2405 73.3152 77.2398C73.4316 77.2391 73.5459 77.209 73.6475 77.1521C73.7056 77.1194 75.0861 76.3367 76.2897 74.846C77.7017 73.0971 78.285 71.1017 78.0033 69.0253C78.3193 68.7624 78.6281 68.4833 78.9257 68.1857C81.4867 65.6249 82.7197 62.278 83.3034 59.9212C83.932 57.3832 83.9631 55.4575 83.9641 55.3767C83.9653 55.2849 83.9481 55.1938 83.9135 55.1088C83.8789 55.0237 83.8277 54.9465 83.7628 54.8816ZM66.3455 67.8208L67.5211 66.6452L71.9989 71.1231L70.8233 72.2987L66.3455 67.8208ZM66.3771 69.8439C66.3847 69.8364 66.3921 69.8289 66.3997 69.8216L68.8226 72.2447L68.8004 72.267C67.4625 73.6049 65.5193 74.0447 64.4558 74.1886C64.5997 73.1245 65.0396 71.1817 66.3771 69.8439ZM73.1369 70.3145L68.3295 65.5071C69.0137 63.8339 70.0025 62.1211 71.4318 60.6918C73.3353 58.7884 75.7432 57.6824 77.748 57.0455L81.5987 60.8963C80.9618 62.901 79.856 65.309 77.9524 67.2124C76.5058 68.6589 74.7678 69.6448 73.1369 70.3145H73.1369ZM82.0114 59.4084L79.2358 56.6327C80.6292 56.3004 81.8219 56.1591 82.5448 56.0994C82.4851 56.8224 82.3438 58.0152 82.0114 59.4083V59.4084ZM64.697 63.398C65.924 62.4183 67.2488 61.9331 68.6512 61.946C67.996 62.9371 67.4778 63.9643 67.0694 64.9542L63.3661 64.723C63.6952 64.3201 64.1413 63.8417 64.697 63.398ZM75.2463 73.9472C74.8024 74.5028 74.3241 74.9491 73.9211 75.2782L73.69 71.5747C74.6798 71.1661 75.7071 70.6482 76.6981 69.9929C76.7112 71.3955 76.226 72.7204 75.2463 73.9472Z" fill="#3276F5"/>
<path d="M77.8217 60.8226C77.2981 60.2988 76.6017 60.0105 75.8613 60.0105C75.1207 60.0105 74.4242 60.2988 73.9006 60.8226C72.8196 61.9036 72.8196 63.6625 73.9006 64.7436C74.4242 65.2674 75.1207 65.5559 75.8613 65.5559C76.6017 65.5559 77.298 65.2674 77.8217 64.7436C78.3455 64.2201 78.6338 63.5236 78.6338 62.7832C78.6338 62.0426 78.3455 61.3462 77.8217 60.8226ZM76.8484 63.7703C76.5847 64.0342 76.2341 64.1792 75.8613 64.1792C75.4883 64.1792 75.1377 64.0342 74.8739 63.7705C74.3296 63.226 74.3296 62.3403 74.8739 61.7959C75.1377 61.5322 75.4883 61.387 75.8613 61.387C76.2341 61.387 76.5847 61.5322 76.8484 61.7959C77.1121 62.0596 77.2573 62.4102 77.2573 62.7832C77.2573 63.1562 77.1121 63.5066 76.8484 63.7703Z" fill="#3276F5"/>
</g>
<path d="M114.999 70.4897V69.2414H116.834V62.8945H114.999V61.6613H115.976C116.864 61.6613 117.104 61.4507 117.104 60.9845V60.819H118.518V69.2414H120.338V70.4897H114.999ZM129.831 67.2561C129.831 69.2414 128.567 70.6853 126.191 70.6853C124.01 70.6853 122.672 69.5723 122.401 67.7224H124.01C124.176 68.715 124.883 69.3317 126.176 69.3317C127.53 69.3317 128.221 68.5646 128.221 67.2862C128.221 66.2184 127.71 65.1656 126.161 65.1656C125.138 65.1656 124.552 65.6168 124.221 66.1131L122.777 65.9777L123.078 60.819H129.365V62.0824H124.371L124.221 64.4737C124.762 64.0827 125.409 63.827 126.296 63.827C128.838 63.827 129.831 65.4213 129.831 67.2561ZM131.728 66.3237V65.0603H134.075V62.7141H135.368V65.0603H137.699V66.3237H135.368V68.6849H134.075V66.3237H131.728ZM144.474 62.7893C144.474 65.4814 150.671 63.3608 150.671 67.5419C150.671 69.5573 149.031 70.6853 146.79 70.6853C144.519 70.6853 142.955 69.6475 142.534 67.5118H144.294C144.579 68.6699 145.437 69.3016 146.805 69.3016C148.204 69.3016 148.941 68.6849 148.941 67.7675C148.941 64.8798 142.745 67.0305 142.745 62.9246C142.745 61.3905 144.038 60.067 146.369 60.067C148.385 60.067 150.039 61.0296 150.4 63.2705H148.61C148.324 62.0072 147.527 61.4507 146.324 61.4507C145.151 61.4507 144.474 61.9771 144.474 62.7893ZM152.39 68.0984V63.7217H151.307V62.4734H152.39V60.6235H153.999V62.4734H155.729V63.7217H153.999V68.0081C153.999 68.9256 154.255 69.3617 155.383 69.3617H155.699V70.5349C155.519 70.6251 155.143 70.6853 154.691 70.6853C153.127 70.6853 152.39 69.828 152.39 68.0984ZM158.457 65.0904H156.848C157.104 63.3157 158.322 62.2629 160.322 62.2629C162.503 62.2629 163.586 63.5413 163.586 65.4062V68.5345C163.586 69.4971 163.676 70.0536 163.857 70.4897H162.172C162.052 70.1889 162.007 69.7678 161.992 69.3166C161.315 70.2641 160.277 70.6853 159.315 70.6853C157.69 70.6853 156.577 69.9182 156.577 68.3841C156.577 67.2862 157.179 66.4741 158.382 66.068C159.45 65.707 160.533 65.6168 161.977 65.6017V65.4213C161.977 64.2481 161.435 63.6165 160.202 63.6165C159.164 63.6165 158.608 64.188 158.457 65.0904ZM158.202 68.324C158.202 69.0008 158.758 69.4219 159.616 69.4219C160.954 69.4219 161.977 68.3541 161.977 67.0606V66.6997C158.894 66.7297 158.202 67.4065 158.202 68.324ZM165.604 70.4897V62.4734H167.213V63.6616C167.74 62.699 168.567 62.2629 169.499 62.2629C169.815 62.2629 170.116 62.3381 170.266 62.4734V63.8872C170.026 63.812 169.74 63.7819 169.409 63.7819C167.875 63.7819 167.213 64.7144 167.213 66.1131V70.4897H165.604ZM171.572 68.0984V63.7217H170.489V62.4734H171.572V60.6235H173.181V62.4734H174.911V63.7217H173.181V68.0081C173.181 68.9256 173.437 69.3617 174.565 69.3617H174.881V70.5349C174.7 70.6251 174.324 70.6853 173.873 70.6853C172.309 70.6853 171.572 69.828 171.572 68.0984ZM181.174 67.1659V62.4734H182.768V70.4897H181.174V69.4069C180.647 70.2641 179.805 70.6853 178.782 70.6853C177.143 70.6853 176.12 69.7227 176.12 67.8277V62.4734H177.73V67.4968C177.73 68.6549 178.211 69.3467 179.279 69.3467C180.452 69.3467 181.174 68.2789 181.174 67.1659ZM186.336 73.7985H184.727V62.4734H186.336V63.436C186.848 62.684 187.6 62.2629 188.517 62.2629C190.638 62.2629 191.916 63.8421 191.916 66.459C191.916 69.1813 190.608 70.6853 188.517 70.6853C187.6 70.6853 186.848 70.3093 186.336 69.5723V73.7985ZM188.322 63.6165C187.028 63.6165 186.336 64.6241 186.336 66.459C186.336 68.2939 187.058 69.3317 188.322 69.3317C189.585 69.3317 190.277 68.3089 190.277 66.459C190.277 64.6392 189.555 63.6165 188.322 63.6165ZM194.759 64.579C194.759 66.6245 199.888 64.9099 199.888 68.1736C199.888 69.6926 198.519 70.6853 196.579 70.6853C194.639 70.6853 193.27 69.7829 192.97 67.8728H194.579C194.744 68.8805 195.496 69.4369 196.624 69.4369C197.707 69.4369 198.279 68.9557 198.279 68.2789C198.279 66.2785 193.225 67.963 193.225 64.6693C193.225 63.4209 194.203 62.2629 196.233 62.2629C198.023 62.2629 199.346 63.0901 199.602 65.0904H197.993C197.812 63.9624 197.181 63.5413 196.158 63.5413C195.271 63.5413 194.759 63.9774 194.759 64.579ZM205.795 62.7893C205.795 65.4814 211.991 63.3608 211.991 67.5419C211.991 69.5573 210.352 70.6853 208.111 70.6853C205.84 70.6853 204.275 69.6475 203.854 67.5118H205.614C205.9 68.6699 206.757 69.3016 208.126 69.3016C209.524 69.3016 210.261 68.6849 210.261 67.7675C210.261 64.8798 204.065 67.0305 204.065 62.9246C204.065 61.3905 205.358 60.067 207.69 60.067C209.705 60.067 211.359 61.0296 211.72 63.2705H209.931C209.645 62.0072 208.848 61.4507 207.644 61.4507C206.471 61.4507 205.795 61.9771 205.795 62.7893ZM220.283 65.2709H218.674C218.478 64.1278 217.741 63.6165 216.809 63.6165C215.47 63.6165 214.748 64.6392 214.748 66.4891C214.748 68.3089 215.5 69.3467 216.854 69.3467C217.816 69.3467 218.493 68.8203 218.734 67.7976H220.328C219.982 69.7979 218.598 70.6853 216.824 70.6853C214.508 70.6853 213.109 69.091 213.109 66.4891C213.109 63.7669 214.538 62.2629 216.809 62.2629C218.598 62.2629 220.012 63.2705 220.283 65.2709ZM223.347 65.0904H221.738C221.993 63.3157 223.211 62.2629 225.212 62.2629C227.393 62.2629 228.475 63.5413 228.475 65.4062V68.5345C228.475 69.4971 228.566 70.0536 228.746 70.4897H227.062C226.941 70.1889 226.896 69.7678 226.881 69.3166C226.204 70.2641 225.167 70.6853 224.204 70.6853C222.58 70.6853 221.467 69.9182 221.467 68.3841C221.467 67.2862 222.068 66.4741 223.272 66.068C224.339 65.707 225.422 65.6168 226.866 65.6017V65.4213C226.866 64.2481 226.325 63.6165 225.091 63.6165C224.054 63.6165 223.497 64.188 223.347 65.0904ZM223.091 68.324C223.091 69.0008 223.648 69.4219 224.505 69.4219C225.843 69.4219 226.866 68.3541 226.866 67.0606V66.6997C223.783 66.7297 223.091 67.4065 223.091 68.324ZM230.493 70.4897V59.6609H232.103V70.4897H230.493ZM241.162 67.8728C240.726 69.7377 239.342 70.6853 237.462 70.6853C235.101 70.6853 233.657 69.1061 233.657 66.4891C233.657 63.7669 235.101 62.2629 237.387 62.2629C239.703 62.2629 241.102 63.827 241.102 66.3989V66.7899H235.296C235.386 68.4293 236.153 69.3467 237.462 69.3467C238.485 69.3467 239.206 68.8654 239.477 67.8728H241.162ZM237.387 63.6014C236.229 63.6014 235.537 64.3384 235.341 65.692H239.432C239.237 64.3384 238.53 63.6014 237.387 63.6014ZM245.721 70.6853C243.601 70.6853 242.322 69.1061 242.322 66.4891C242.322 63.7669 243.631 62.2629 245.721 62.2629C246.639 62.2629 247.391 62.6389 247.902 63.3758V59.6609H249.511V70.4897H247.902V69.5121C247.391 70.2641 246.639 70.6853 245.721 70.6853ZM245.932 69.3317C247.21 69.3317 247.902 68.339 247.902 66.4891C247.902 64.6542 247.18 63.6165 245.932 63.6165C244.654 63.6165 243.962 64.6392 243.962 66.4891C243.962 68.3089 244.684 69.3317 245.932 69.3317ZM254.525 70.4897V60.2625H261.579V61.6161H256.209V64.5339H261.007V65.8725H256.209V69.1361H261.579V70.4897H254.525ZM263.188 70.4897V62.4734H264.797V63.5413C265.338 62.684 266.181 62.2629 267.218 62.2629C268.888 62.2629 269.926 63.2405 269.926 65.1355V70.4897H268.331V65.4664C268.331 64.3083 267.82 63.6014 266.722 63.6014C265.519 63.6014 264.797 64.6693 264.797 65.7822V70.4897H263.188ZM274.891 70.6853C272.77 70.6853 271.492 69.1061 271.492 66.4891C271.492 63.7669 272.8 62.2629 274.891 62.2629C275.808 62.2629 276.56 62.6389 277.072 63.3758V59.6609H278.681V70.4897H277.072V69.5121C276.56 70.2641 275.808 70.6853 274.891 70.6853ZM275.101 69.3317C276.38 69.3317 277.072 68.339 277.072 66.4891C277.072 64.6542 276.35 63.6165 275.101 63.6165C273.823 63.6165 273.131 64.6392 273.131 66.4891C273.131 68.3089 273.853 69.3317 275.101 69.3317ZM280.592 67.0757V65.707H284.637V67.0757H280.592ZM286.796 68.0984V63.7217H285.713V62.4734H286.796V60.6235H288.405V62.4734H290.134V63.7217H288.405V68.0081C288.405 68.9256 288.66 69.3617 289.788 69.3617H290.104V70.5349C289.924 70.6251 289.548 70.6853 289.097 70.6853C287.532 70.6853 286.796 69.828 286.796 68.0984ZM294.698 70.6853C292.366 70.6853 290.953 69.1061 290.953 66.4891C290.953 63.7669 292.412 62.2629 294.698 62.2629C297.029 62.2629 298.443 63.8721 298.443 66.4891C298.443 69.1963 296.984 70.6853 294.698 70.6853ZM294.698 69.3317C296.066 69.3317 296.803 68.339 296.803 66.4891C296.803 64.6542 296.051 63.6165 294.698 63.6165C293.344 63.6165 292.592 64.6241 292.592 66.4891C292.592 68.3089 293.344 69.3317 294.698 69.3317ZM299.979 67.0757V65.707H304.025V67.0757H299.979ZM306.093 70.4897V60.2625H313.147V61.6161H307.777V64.5339H312.575V65.8725H307.777V69.1361H313.147V70.4897H306.093ZM314.756 70.4897V62.4734H316.365V63.5413C316.906 62.684 317.749 62.2629 318.786 62.2629C320.456 62.2629 321.493 63.2405 321.493 65.1355V70.4897H319.899V65.4664C319.899 64.3083 319.388 63.6014 318.29 63.6014C317.087 63.6014 316.365 64.6693 316.365 65.7822V70.4897H314.756ZM326.459 70.6853C324.338 70.6853 323.06 69.1061 323.06 66.4891C323.06 63.7669 324.368 62.2629 326.459 62.2629C327.376 62.2629 328.128 62.6389 328.639 63.3758V59.6609H330.249V70.4897H328.639V69.5121C328.128 70.2641 327.376 70.6853 326.459 70.6853ZM326.669 69.3317C327.948 69.3317 328.639 68.339 328.639 66.4891C328.639 64.6542 327.917 63.6165 326.669 63.6165C325.391 63.6165 324.699 64.6392 324.699 66.4891C324.699 68.3089 325.421 69.3317 326.669 69.3317Z" fill="#333333"/>
<rect x="33.6302" y="121.05" width="348.74" height="79.06" rx="7.05" fill="white"/>
<rect x="33.6302" y="121.05" width="348.74" height="79.06" rx="7.05" stroke="#E5E6EC" stroke-width="0.94"/>
<rect x="48.1992" y="135.62" width="49.82" height="49.82" rx="7.52" fill="#F3F5F9"/>
<g clip-path="url(#clip1_2304_1117)">
<mask id="mask0_2304_1117" style="mask-type:luminance" maskUnits="userSpaceOnUse" x="61" y="149" width="23" height="24">
<path d="M83.2139 171.575V150.426H62.0645V171.575H83.2139Z" fill="white" stroke="white" stroke-width="1.41"/>
</mask>
<g mask="url(#mask0_2304_1117)">
<path d="M70.2283 150.381H76.3073L73.2827 157.247H79.4699L70.239 171.619L72.6778 161.803H65.8105L70.2283 150.381Z" stroke="#3276F5" stroke-width="1.41" stroke-miterlimit="10" stroke-linecap="round" stroke-linejoin="round"/>
</g>
</g>
<path d="M119.917 165.53H118.277V163.364H113.675V161.92L118.443 155.859H119.917V162.101H121.255V163.364H119.917V165.53ZM115.074 162.101H118.277V157.89L115.074 162.101ZM126.056 165.726C123.634 165.726 122.236 163.861 122.236 160.702C122.236 157.469 123.664 155.664 126.056 155.664C128.462 155.664 129.861 157.529 129.861 160.702C129.861 163.936 128.432 165.726 126.056 165.726ZM126.056 164.357C127.454 164.357 128.221 163.063 128.221 160.702C128.221 158.356 127.439 157.032 126.056 157.032C124.657 157.032 123.875 158.326 123.875 160.702C123.875 163.018 124.657 164.357 126.056 164.357ZM132.977 161.123C131.503 161.123 130.63 160.131 130.63 158.401C130.63 156.656 131.518 155.664 132.977 155.664C134.451 155.664 135.323 156.687 135.323 158.401C135.323 160.131 134.451 161.123 132.977 161.123ZM132.24 165.53L139.008 155.859H140.512L133.759 165.53H132.24ZM132.977 160.04C133.638 160.04 133.999 159.469 133.999 158.401C133.999 157.348 133.638 156.762 132.977 156.762C132.315 156.762 131.969 157.333 131.969 158.401C131.969 159.454 132.33 160.04 132.977 160.04ZM139.76 165.665C138.286 165.665 137.414 164.658 137.414 162.943C137.414 161.199 138.301 160.191 139.76 160.191C141.234 160.191 142.106 161.214 142.106 162.943C142.106 164.673 141.249 165.665 139.76 165.665ZM139.76 164.583C140.422 164.583 140.782 164.011 140.782 162.943C140.782 161.875 140.422 161.289 139.76 161.289C139.113 161.289 138.752 161.875 138.752 162.943C138.752 163.996 139.113 164.583 139.76 164.583ZM146.41 165.53V155.303H153.464V156.656H148.095V159.875H152.893V161.229H148.095V165.53H146.41ZM156.019 160.131H154.41C154.666 158.356 155.884 157.303 157.884 157.303C160.065 157.303 161.148 158.582 161.148 160.447V163.575C161.148 164.537 161.238 165.094 161.419 165.53H159.734C159.614 165.229 159.569 164.808 159.554 164.357C158.877 165.304 157.839 165.726 156.877 165.726C155.252 165.726 154.139 164.959 154.139 163.424C154.139 162.327 154.741 161.514 155.944 161.108C157.012 160.747 158.095 160.657 159.539 160.642V160.462C159.539 159.288 158.997 158.657 157.764 158.657C156.726 158.657 156.17 159.228 156.019 160.131ZM155.764 163.364C155.764 164.041 156.32 164.462 157.177 164.462C158.516 164.462 159.539 163.394 159.539 162.101V161.74C156.455 161.77 155.764 162.447 155.764 163.364ZM164.444 159.619C164.444 161.665 169.573 159.95 169.573 163.214C169.573 164.733 168.204 165.726 166.264 165.726C164.324 165.726 162.955 164.823 162.655 162.913H164.264C164.429 163.921 165.181 164.477 166.309 164.477C167.392 164.477 167.964 163.996 167.964 163.319C167.964 161.319 162.91 163.003 162.91 159.71C162.91 158.461 163.888 157.303 165.918 157.303C167.708 157.303 169.031 158.13 169.287 160.131H167.678C167.497 159.003 166.866 158.582 165.843 158.582C164.956 158.582 164.444 159.018 164.444 159.619ZM171.249 163.139V158.762H170.166V157.514H171.249V155.664H172.858V157.514H174.588V158.762H172.858V163.048C172.858 163.966 173.114 164.402 174.242 164.402H174.558V165.575C174.377 165.665 174.001 165.726 173.55 165.726C171.986 165.726 171.249 164.868 171.249 163.139ZM182.911 162.913C182.475 164.778 181.091 165.726 179.211 165.726C176.85 165.726 175.406 164.146 175.406 161.529C175.406 158.807 176.85 157.303 179.136 157.303C181.452 157.303 182.851 158.867 182.851 161.439V161.83H177.045C177.136 163.47 177.903 164.387 179.211 164.387C180.234 164.387 180.956 163.906 181.227 162.913H182.911ZM179.136 158.642C177.978 158.642 177.286 159.379 177.091 160.732H181.181C180.986 159.379 180.279 158.642 179.136 158.642ZM184.463 165.53V157.514H186.072V158.702C186.598 157.739 187.426 157.303 188.358 157.303C188.674 157.303 188.975 157.378 189.125 157.514V158.927C188.885 158.852 188.599 158.822 188.268 158.822C186.734 158.822 186.072 159.755 186.072 161.153V165.53H184.463ZM193.293 165.53V155.303H196.932C199.324 155.303 200.798 156.551 200.798 158.597C200.798 160.687 199.294 161.905 196.963 161.905H194.977V165.53H193.293ZM196.917 156.656H194.977V160.552H196.872C198.286 160.552 199.068 159.8 199.068 158.612C199.068 157.423 198.271 156.656 196.917 156.656ZM202.352 165.53V157.514H203.961V158.702C204.488 157.739 205.315 157.303 206.247 157.303C206.563 157.303 206.864 157.378 207.015 157.514V158.927C206.774 158.852 206.488 158.822 206.157 158.822C204.623 158.822 203.961 159.755 203.961 161.153V165.53H202.352ZM211.317 165.726C208.985 165.726 207.572 164.146 207.572 161.529C207.572 158.807 209.031 157.303 211.317 157.303C213.648 157.303 215.062 158.912 215.062 161.529C215.062 164.237 213.603 165.726 211.317 165.726ZM211.317 164.372C212.685 164.372 213.422 163.379 213.422 161.529C213.422 159.695 212.67 158.657 211.317 158.657C209.963 158.657 209.211 159.664 209.211 161.529C209.211 163.349 209.963 164.372 211.317 164.372ZM219.636 165.726C217.516 165.726 216.237 164.146 216.237 161.529C216.237 158.807 217.546 157.303 219.636 157.303C220.554 157.303 221.306 157.679 221.817 158.416V154.701H223.426V165.53H221.817V164.552C221.306 165.304 220.554 165.726 219.636 165.726ZM219.847 164.372C221.125 164.372 221.817 163.379 221.817 161.529C221.817 159.695 221.095 158.657 219.847 158.657C218.569 158.657 217.877 159.679 217.877 161.529C217.877 163.349 218.599 164.372 219.847 164.372ZM230.421 162.206V157.514H232.015V165.53H230.421V164.447C229.894 165.304 229.052 165.726 228.03 165.726C226.39 165.726 225.367 164.763 225.367 162.868V157.514H226.977V162.537C226.977 163.695 227.458 164.387 228.526 164.387C229.699 164.387 230.421 163.319 230.421 162.206ZM240.757 160.311H239.148C238.953 159.168 238.216 158.657 237.283 158.657C235.945 158.657 235.223 159.679 235.223 161.529C235.223 163.349 235.975 164.387 237.328 164.387C238.291 164.387 238.968 163.861 239.208 162.838H240.802C240.457 164.838 239.073 165.726 237.298 165.726C234.982 165.726 233.583 164.131 233.583 161.529C233.583 158.807 235.012 157.303 237.283 157.303C239.073 157.303 240.487 158.311 240.757 160.311ZM242.513 163.139V158.762H241.43V157.514H242.513V155.664H244.122V157.514H245.852V158.762H244.122V163.048C244.122 163.966 244.378 164.402 245.506 164.402H245.821V165.575C245.641 165.665 245.265 165.726 244.814 165.726C243.25 165.726 242.513 164.868 242.513 163.139ZM250.133 165.53V155.303H253.638C256.841 155.303 258.827 157.228 258.827 160.431C258.827 163.635 256.841 165.53 253.638 165.53H250.133ZM253.638 164.161C255.819 164.161 257.112 162.778 257.112 160.431C257.112 158.055 255.819 156.671 253.638 156.671H251.818V164.161H253.638ZM267.673 162.913C267.236 164.778 265.853 165.726 263.973 165.726C261.611 165.726 260.168 164.146 260.168 161.529C260.168 158.807 261.611 157.303 263.898 157.303C266.214 157.303 267.612 158.867 267.612 161.439V161.83H261.807C261.897 163.47 262.664 164.387 263.973 164.387C264.995 164.387 265.717 163.906 265.988 162.913H267.673ZM263.898 158.642C262.739 158.642 262.048 159.379 261.852 160.732H265.943C265.747 159.379 265.041 158.642 263.898 158.642ZM269.224 165.53V154.701H270.834V165.53H269.224ZM272.779 156.521V154.701H274.388V156.521H272.779ZM272.779 165.53V157.514H274.388V165.53H272.779ZM278.363 165.53L275.416 157.514H277.145L279.206 163.47L279.401 164.237L279.597 163.47L281.642 157.514H283.282L280.334 165.53H278.363ZM291.393 162.913C290.957 164.778 289.573 165.726 287.693 165.726C285.332 165.726 283.888 164.146 283.888 161.529C283.888 158.807 285.332 157.303 287.618 157.303C289.934 157.303 291.333 158.867 291.333 161.439V161.83H285.527C285.618 163.47 286.385 164.387 287.693 164.387C288.716 164.387 289.438 163.906 289.708 162.913H291.393ZM287.618 158.642C286.46 158.642 285.768 159.379 285.572 160.732H289.663C289.468 159.379 288.761 158.642 287.618 158.642ZM292.945 165.53V157.514H294.554V158.702C295.08 157.739 295.908 157.303 296.84 157.303C297.156 157.303 297.457 157.378 297.607 157.514V158.927C297.366 158.852 297.081 158.822 296.75 158.822C295.216 158.822 294.554 159.755 294.554 161.153V165.53H292.945ZM299.274 169.034C298.928 169.034 298.567 168.944 298.386 168.884V167.651H298.822C299.74 167.651 300.086 167.47 300.778 165.801L301.018 165.244L297.8 157.514H299.529L301.515 162.507L301.861 163.605L302.206 162.507L304.132 157.514H305.771L302.131 166.463C301.319 168.463 300.702 169.034 299.274 169.034Z" fill="#333333"/>
<rect x="33.6302" y="216.09" width="348.74" height="79.06" rx="7.05" fill="white"/>
<rect x="33.6302" y="216.09" width="348.74" height="79.06" rx="7.05" stroke="#E5E6EC" stroke-width="0.94"/>
<rect x="48.1992" y="230.66" width="49.82" height="49.82" rx="7.52" fill="#F3F5F9"/>
<g clip-path="url(#clip2_2304_1117)">
<mask id="mask1_2304_1117" style="mask-type:luminance" maskUnits="userSpaceOnUse" x="61" y="244" width="23" height="24">
<path d="M83.2139 266.615V245.466H62.0645V266.615H83.2139Z" fill="white" stroke="white" stroke-width="1.41"/>
</mask>
<g mask="url(#mask1_2304_1117)">
<path d="M62.0195 245.421V266.659H83.2576" stroke="#3276F5" stroke-width="1.41" stroke-miterlimit="10" stroke-linecap="round" stroke-linejoin="round"/>
<path d="M62.0195 266.659L64.8513 263.827H67.683L70.5148 256.748L73.3465 259.58L76.1782 252.5L79.01 255.332L81.8417 246.837" stroke="#3276F5" stroke-width="1.41" stroke-miterlimit="10" stroke-linecap="round" stroke-linejoin="round"/>
</g>
</g>
<path d="M121.135 257.848C121.135 259.487 119.872 260.766 117.435 260.766C115.269 260.766 113.871 259.623 113.6 257.728H115.239C115.405 258.765 116.097 259.412 117.42 259.412C118.774 259.412 119.496 258.81 119.496 257.773C119.496 257.006 119.075 256.208 117.014 256.208H116.548V254.975H116.924C118.894 254.975 119.225 254.163 119.225 253.531C119.225 252.614 118.608 252.057 117.45 252.057C116.232 252.057 115.6 252.674 115.42 253.697H113.811C114.066 251.847 115.375 250.704 117.465 250.704C119.691 250.704 120.864 251.922 120.864 253.516C120.864 254.419 120.488 255.096 119.556 255.502C120.699 255.983 121.135 256.825 121.135 257.848ZM127.74 260.57L126.026 258.104L125.635 257.427L125.244 258.104L123.574 260.57H121.799L124.762 256.404L122.025 252.554H123.965L125.454 254.72L125.845 255.411L126.236 254.72L127.695 252.554H129.455L126.717 256.404L129.68 260.57H127.74ZM133.808 260.57V250.343H135.493V260.57H133.808ZM137.566 260.57V252.554H139.175V253.622C139.716 252.764 140.559 252.343 141.596 252.343C143.266 252.343 144.303 253.321 144.303 255.216V260.57H142.709V255.547C142.709 254.389 142.198 253.682 141.1 253.682C139.897 253.682 139.175 254.75 139.175 255.863V260.57H137.566ZM153.044 255.351H151.434C151.239 254.208 150.502 253.697 149.569 253.697C148.231 253.697 147.509 254.72 147.509 256.569C147.509 258.389 148.261 259.427 149.614 259.427C150.577 259.427 151.254 258.901 151.494 257.878H153.089C152.743 259.878 151.359 260.766 149.584 260.766C147.268 260.766 145.87 259.171 145.87 256.569C145.87 253.847 147.298 252.343 149.569 252.343C151.359 252.343 152.773 253.351 153.044 255.351ZM154.588 260.57V252.554H156.198V253.742C156.724 252.779 157.551 252.343 158.484 252.343C158.8 252.343 159.1 252.418 159.251 252.554V253.968C159.01 253.892 158.724 253.862 158.393 253.862C156.859 253.862 156.198 254.795 156.198 256.193V260.57H154.588ZM167.313 257.953C166.877 259.818 165.493 260.766 163.613 260.766C161.252 260.766 159.808 259.186 159.808 256.569C159.808 253.847 161.252 252.343 163.538 252.343C165.854 252.343 167.253 253.907 167.253 256.479V256.87H161.447C161.538 258.51 162.305 259.427 163.613 259.427C164.636 259.427 165.358 258.946 165.628 257.953H167.313ZM163.538 253.682C162.38 253.682 161.688 254.419 161.492 255.772H165.583C165.388 254.419 164.681 253.682 163.538 253.682ZM170.384 255.171H168.774C169.03 253.396 170.248 252.343 172.249 252.343C174.429 252.343 175.512 253.622 175.512 255.487V258.615C175.512 259.577 175.603 260.134 175.783 260.57H174.099C173.978 260.269 173.933 259.848 173.918 259.397C173.241 260.344 172.204 260.766 171.241 260.766C169.617 260.766 168.504 259.999 168.504 258.464C168.504 257.367 169.105 256.554 170.308 256.148C171.376 255.787 172.459 255.697 173.903 255.682V255.502C173.903 254.328 173.362 253.697 172.128 253.697C171.091 253.697 170.534 254.268 170.384 255.171ZM170.128 258.404C170.128 259.081 170.684 259.502 171.542 259.502C172.88 259.502 173.903 258.434 173.903 257.141V256.78C170.82 256.81 170.128 257.487 170.128 258.404ZM178.809 254.659C178.809 256.705 183.937 254.99 183.937 258.254C183.937 259.773 182.569 260.766 180.628 260.766C178.688 260.766 177.32 259.863 177.019 257.953H178.628C178.794 258.961 179.546 259.517 180.674 259.517C181.756 259.517 182.328 259.036 182.328 258.359C182.328 256.359 177.275 258.043 177.275 254.75C177.275 253.501 178.252 252.343 180.283 252.343C182.072 252.343 183.396 253.17 183.652 255.171H182.042C181.862 254.043 181.23 253.622 180.207 253.622C179.32 253.622 178.809 254.058 178.809 254.659ZM192.517 257.953C192.081 259.818 190.697 260.766 188.817 260.766C186.456 260.766 185.012 259.186 185.012 256.569C185.012 253.847 186.456 252.343 188.742 252.343C191.058 252.343 192.457 253.907 192.457 256.479V256.87H186.651C186.741 258.51 187.508 259.427 188.817 259.427C189.84 259.427 190.561 258.946 190.832 257.953H192.517ZM188.742 253.682C187.584 253.682 186.892 254.419 186.696 255.772H190.787C190.592 254.419 189.885 253.682 188.742 253.682ZM197.021 251.561V249.741H198.63V251.561H197.021ZM197.021 260.57V252.554H198.63V260.57H197.021ZM200.575 260.57V252.554H202.184V253.622C202.726 252.764 203.568 252.343 204.606 252.343C206.275 252.343 207.313 253.321 207.313 255.216V260.57H205.719V255.547C205.719 254.389 205.207 253.682 204.109 253.682C202.906 253.682 202.184 254.75 202.184 255.863V260.57H200.575ZM214.801 260.57V251.757H211.387V250.343H219.885V251.757H216.485V260.57H214.801ZM227.12 257.953C226.684 259.818 225.301 260.766 223.421 260.766C221.059 260.766 219.615 259.186 219.615 256.569C219.615 253.847 221.059 252.343 223.345 252.343C225.662 252.343 227.06 253.907 227.06 256.479V256.87H221.255C221.345 258.51 222.112 259.427 223.421 259.427C224.443 259.427 225.165 258.946 225.436 257.953H227.12ZM223.345 253.682C222.187 253.682 221.495 254.419 221.3 255.772H225.391C225.195 254.419 224.488 253.682 223.345 253.682ZM230.191 255.171H228.582C228.838 253.396 230.056 252.343 232.056 252.343C234.237 252.343 235.32 253.622 235.32 255.487V258.615C235.32 259.577 235.41 260.134 235.591 260.57H233.906C233.786 260.269 233.741 259.848 233.726 259.397C233.049 260.344 232.011 260.766 231.048 260.766C229.424 260.766 228.311 259.999 228.311 258.464C228.311 257.367 228.913 256.554 230.116 256.148C231.184 255.787 232.267 255.697 233.711 255.682V255.502C233.711 254.328 233.169 253.697 231.936 253.697C230.898 253.697 230.342 254.268 230.191 255.171ZM229.935 258.404C229.935 259.081 230.492 259.502 231.349 259.502C232.688 259.502 233.711 258.434 233.711 257.141V256.78C230.627 256.81 229.935 257.487 229.935 258.404ZM237.338 260.57V252.554H238.947V253.576C239.458 252.749 240.256 252.343 241.203 252.343C242.271 252.343 243.068 252.809 243.459 253.727C243.985 252.809 244.858 252.343 245.911 252.343C247.49 252.343 248.512 253.321 248.512 255.216V260.57H246.903V255.547C246.903 254.389 246.467 253.682 245.474 253.682C244.392 253.682 243.73 254.75 243.73 255.863V260.57H242.12V255.547C242.12 254.389 241.669 253.682 240.692 253.682C239.609 253.682 238.947 254.75 238.947 255.863V260.57H237.338ZM253.541 260.57V250.343H260.595V251.696H255.225V254.614H260.023V255.953H255.225V259.216H260.595V260.57H253.541ZM261.301 253.802V252.554H262.384V252.133C262.384 250.388 263.121 249.546 264.625 249.546C265.031 249.546 265.347 249.621 265.512 249.696V250.779H265.362C264.249 250.779 263.978 251.23 263.978 252.148V252.554H265.512V253.802H263.978V260.57H262.384V253.802H261.301ZM265.605 253.802V252.554H266.688V252.133C266.688 250.388 267.425 249.546 268.929 249.546C269.335 249.546 269.65 249.621 269.816 249.696V250.779H269.666C268.553 250.779 268.282 251.23 268.282 252.148V252.554H269.816V253.802H268.282V260.57H266.688V253.802H265.605ZM270.811 251.561V249.741H272.42V251.561H270.811ZM270.811 260.57V252.554H272.42V260.57H270.811ZM281.148 255.351H279.539C279.343 254.208 278.606 253.697 277.674 253.697C276.335 253.697 275.613 254.72 275.613 256.569C275.613 258.389 276.365 259.427 277.719 259.427C278.681 259.427 279.358 258.901 279.599 257.878H281.193C280.847 259.878 279.464 260.766 277.689 260.766C275.373 260.766 273.974 259.171 273.974 256.569C273.974 253.847 275.403 252.343 277.674 252.343C279.464 252.343 280.877 253.351 281.148 255.351ZM282.693 251.561V249.741H284.302V251.561H282.693ZM282.693 260.57V252.554H284.302V260.57H282.693ZM293.361 257.953C292.925 259.818 291.541 260.766 289.661 260.766C287.3 260.766 285.856 259.186 285.856 256.569C285.856 253.847 287.3 252.343 289.586 252.343C291.902 252.343 293.301 253.907 293.301 256.479V256.87H287.495C287.586 258.51 288.353 259.427 289.661 259.427C290.684 259.427 291.406 258.946 291.677 257.953H293.361ZM289.586 253.682C288.428 253.682 287.736 254.419 287.541 255.772H291.631C291.436 254.419 290.729 253.682 289.586 253.682ZM294.913 260.57V252.554H296.522V253.622C297.063 252.764 297.906 252.343 298.943 252.343C300.613 252.343 301.651 253.321 301.651 255.216V260.57H300.056V255.547C300.056 254.389 299.545 253.682 298.447 253.682C297.244 253.682 296.522 254.75 296.522 255.863V260.57H294.913ZM310.391 255.351H308.782C308.586 254.208 307.849 253.697 306.917 253.697C305.578 253.697 304.856 254.72 304.856 256.569C304.856 258.389 305.608 259.427 306.962 259.427C307.924 259.427 308.601 258.901 308.842 257.878H310.436C310.09 259.878 308.706 260.766 306.932 260.766C304.615 260.766 303.217 259.171 303.217 256.569C303.217 253.847 304.646 252.343 306.917 252.343C308.706 252.343 310.12 253.351 310.391 255.351ZM312.257 264.074C311.911 264.074 311.551 263.984 311.37 263.924V262.691H311.806C312.724 262.691 313.07 262.51 313.761 260.841L314.002 260.284L310.783 252.554H312.513L314.498 257.547L314.844 258.645L315.19 257.547L317.115 252.554H318.755L315.115 261.503C314.303 263.503 313.686 264.074 312.257 264.074Z" fill="#333333"/>
</g>
<defs>
<filter id="filter0_dddd_2304_1117" x="0.116016" y="0.955283" width="464.648" height="446.929" filterUnits="userSpaceOnUse" color-interpolation-filters="sRGB">
<feFlood flood-opacity="0" result="BackgroundImageFix"/>
<feColorMatrix in="SourceAlpha" type="matrix" values="0 0 0 0 0 0 0 0 0 0 0 0 0 0 0 0 0 0 127 0" result="hardAlpha"/>
<feOffset dx="1.88" dy="5.64"/>
<feGaussianBlur stdDeviation="7.05"/>
<feColorMatrix type="matrix" values="0 0 0 0 0 0 0 0 0 0 0 0 0 0 0 0 0 0 0.17 0"/>
<feBlend mode="normal" in2="BackgroundImageFix" result="effect1_dropShadow_2304_1117"/>
<feColorMatrix in="SourceAlpha" type="matrix" values="0 0 0 0 0 0 0 0 0 0 0 0 0 0 0 0 0 0 127 0" result="hardAlpha"/>
<feOffset dx="6.58" dy="24.44"/>
<feGaussianBlur stdDeviation="12.69"/>
<feColorMatrix type="matrix" values="0 0 0 0 0 0 0 0 0 0 0 0 0 0 0 0 0 0 0.15 0"/>
<feBlend mode="normal" in2="effect1_dropShadow_2304_1117" result="effect2_dropShadow_2304_1117"/>
<feColorMatrix in="SourceAlpha" type="matrix" values="0 0 0 0 0 0 0 0 0 0 0 0 0 0 0 0 0 0 127 0" result="hardAlpha"/>
<feOffset dx="15.98" dy="54.52"/>
<feGaussianBlur stdDeviation="16.92"/>
<feColorMatrix type="matrix" values="0 0 0 0 0 0 0 0 0 0 0 0 0 0 0 0 0 0 0.09 0"/>
<feBlend mode="normal" in2="effect2_dropShadow_2304_1117" result="effect3_dropShadow_2304_1117"/>
<feColorMatrix in="SourceAlpha" type="matrix" values="0 0 0 0 0 0 0 0 0 0 0 0 0 0 0 0 0 0 127 0" result="hardAlpha"/>
<feOffset dx="27.26" dy="95.88"/>
<feGaussianBlur stdDeviation="20.21"/>
<feColorMatrix type="matrix" values="0 0 0 0 0 0 0 0 0 0 0 0 0 0 0 0 0 0 0.03 0"/>
<feBlend mode="normal" in2="effect3_dropShadow_2304_1117" result="effect4_dropShadow_2304_1117"/>
<feBlend mode="normal" in="SourceGraphic" in2="effect4_dropShadow_2304_1117" result="shape"/>
</filter>
<clipPath id="clip0_2304_1117">
<rect width="22.56" height="22.56" fill="white" transform="translate(61.3594 54.6799)"/>
</clipPath>
<clipPath id="clip1_2304_1117">
<rect width="22.56" height="22.56" fill="white" transform="translate(61.3594 149.72)"/>
</clipPath>
<clipPath id="clip2_2304_1117">
<rect width="22.56" height="22.56" fill="white" transform="translate(61.3594 244.76)"/>
</clipPath>
</defs>
</svg>
