<svg width="139" height="20" viewBox="0 0 139 20" fill="none" xmlns="http://www.w3.org/2000/svg">
<g clip-path="url(#clip0_2213_530)">
<path d="M22.9643 0.0601032C24.7702 0.042186 26.5761 0.0242679 28.5579 0.209022C28.7349 6.91145 28.7361 13.4112 28.7374 19.911C26.9314 19.9289 25.1255 19.9468 23.1438 19.7665C22.968 18.2592 22.968 16.9501 22.968 15.8228C20.1236 17.2006 17.3251 18.5562 14.5266 19.9118C12.3353 19.9295 10.1439 19.9472 7.70433 19.8243C4.62704 18.6708 2.50701 16.8952 1.33987 14.0637C1.28058 13.9199 0.913322 13.903 0.689453 13.827C0.689453 11.386 0.689453 8.94497 0.830552 6.317C2.51126 3.37691 4.6383 1.26483 7.59615 0.05935C9.78751 0.0416264 11.9789 0.023903 14.4264 0.149277C17.4505 1.55885 20.2185 2.82533 22.9643 4.08168C22.9643 2.85543 22.9643 1.45777 22.9643 0.0601032ZM16.7862 14.0399C17.5636 13.3934 18.4353 12.8306 19.0997 12.0835C20.7041 10.2794 20.7488 9.64644 19.0939 7.89196C17.4288 6.12664 15.4477 4.88796 12.9088 4.52497C10.3168 4.15436 7.54776 5.33849 6.49186 7.6283C5.40963 9.97522 6.23128 12.8633 8.43008 14.4733C11.21 16.5087 13.8797 15.5672 16.7862 14.0399Z" fill="#7A828D"/>
<path d="M117.845 0.0594111C119.909 0.0417033 121.972 0.0239964 124.295 0.150682C127.437 1.6052 130.319 2.91532 133.214 4.23103C133.214 2.96689 133.214 1.51355 133.214 0.0602127C134.658 0.0395896 136.108 -0.0554867 137.544 0.0460189C137.948 0.0745815 138.311 0.679997 138.837 1.08559C138.981 1.32109 138.981 1.49182 138.831 1.86548C138.654 7.14377 138.621 12.2191 138.616 17.2945C138.616 17.5471 138.854 17.7999 138.981 18.0527C138.981 18.3408 138.981 18.6289 138.981 19.061C138.115 19.4612 137.263 19.8222 136.378 19.9444C135.457 20.0714 134.505 19.9676 133.392 19.7657C133.217 18.1983 133.217 16.8299 133.217 15.6869C130.178 17.142 127.285 18.527 124.392 19.9119C122.328 19.9296 120.265 19.9473 117.95 19.8243C113.329 18.4093 110.646 14.8288 110.535 10.4223C110.401 5.10382 113.139 1.91246 117.845 0.0594111ZM117.861 5.94217C116.394 7.33145 115.532 9.00826 116.09 11.0223C116.707 13.2489 117.975 14.9031 120.484 15.416C123.735 16.0803 128.534 13.9133 129.786 10.8748C130.059 10.2115 129.84 9.17535 129.502 8.47818C129.16 7.77269 128.42 7.24178 127.803 6.69143C125.247 4.41111 120.366 3.27464 117.861 5.94217Z" fill="#7A828D"/>
<path d="M51.3904 0.0599756C53.1963 0.0420561 55.0022 0.0241365 56.9839 0.208888C57.1591 3.726 57.1211 7.04116 57.1856 10.3543C57.2008 11.1346 57.3836 12.0225 57.7952 12.6648C59.4218 15.2028 61.7366 15.9802 64.7239 15.3971C68.6421 14.6323 71.3718 11.624 71.371 7.70865C71.3705 5.15909 71.3676 2.60953 71.3658 0.059972C73.1717 0.042054 74.9777 0.0241349 76.9594 0.208889C77.1364 6.91132 77.1376 13.4111 77.1388 19.9108C75.3329 19.9288 73.527 19.9467 71.5452 19.7821C71.3693 18.9141 71.3693 18.2286 71.3693 17.5091C69.3967 18.333 67.507 19.1223 65.6172 19.9117C63.4258 19.9294 61.2343 19.9471 58.7919 19.8245C53.7647 17.9071 51.6215 14.499 51.4203 9.62557C51.2889 6.44205 51.3922 3.24884 51.3904 0.0599756Z" fill="#7A828D"/>
<path d="M93.644 0.0594217C95.7075 0.0417288 97.7709 0.0240354 100.086 0.147079C104.769 1.58182 107.477 5.18041 107.481 9.78066C107.484 13.1575 107.485 16.5343 107.487 19.9111C105.809 19.929 104.13 19.9469 102.277 19.7622C102.102 16.8162 102.103 14.0729 102.103 11.3296C102.103 6.18092 99.3209 3.76974 94.3533 4.61242C90.4923 5.26738 87.5053 8.76751 87.5061 12.6382C87.5066 15.0625 87.5095 17.4868 87.5113 19.9111C85.7054 19.929 83.8995 19.947 81.9178 19.7622C81.7407 13.0598 81.7395 6.56002 81.7383 0.0602636C83.5442 0.0423452 85.3501 0.0244265 87.3319 0.192004C87.5078 0.991869 87.5078 1.60624 87.5078 2.42773C89.7349 1.56817 91.6895 0.813795 93.644 0.0594217Z" fill="#7A828D"/>
<path d="M48.541 0.0333507C48.5303 1.36105 48.3484 2.66174 48.1807 3.86087C46.3953 4.57887 44.5305 5.11995 42.8779 6.04142C40.2792 7.49033 38.7908 9.65734 39.0671 12.8703C39.2575 15.0847 39.1047 17.3286 39.1069 19.735C37.3029 19.9288 35.4971 19.9468 33.5155 19.7621C33.3384 13.0597 33.3372 6.55991 33.3359 0.0601549C35.1419 0.0422369 36.9478 0.0243186 38.9296 0.191896C39.1054 0.991758 39.1054 1.60613 39.1054 2.42762C41.3314 1.56852 43.2865 0.813917 45.2417 0.0593152C46.2844 0.0416596 47.327 0.024003 48.541 0.0333507Z" fill="#7A828D"/>
</g>
<defs>
<clipPath id="clip0_2213_530">
<rect width="138.125" height="20" fill="white" transform="translate(0.689453)"/>
</clipPath>
</defs>
</svg>
