<svg width="181" height="30" viewBox="0 0 181 30" fill="none" xmlns="http://www.w3.org/2000/svg">
<g clip-path="url(#clip0_1598_1136)">
<path d="M15.865 9.0238C15.1006 9.0238 14.3533 9.25049 13.7177 9.6752C13.0821 10.0999 12.5866 10.7036 12.2941 11.4098C12.0016 12.1161 11.925 12.8932 12.0741 13.643C12.2233 14.3928 12.5914 15.0815 13.132 15.622C13.6725 16.1626 14.3612 16.5307 15.111 16.6798C15.8607 16.829 16.6379 16.7524 17.3442 16.4599C18.0504 16.1674 18.6541 15.6719 19.0788 15.0363C19.5035 14.4007 19.7302 13.6534 19.7302 12.889C19.7302 11.8639 19.323 10.8807 18.5981 10.1559C17.8733 9.43102 16.8901 9.0238 15.865 9.0238ZM18.0033 14.3337C18.0033 13.7666 17.778 13.2227 17.377 12.8218C16.976 12.4208 16.4321 12.1955 15.865 12.1955C15.2979 12.1955 14.7541 12.4208 14.3531 12.8218C13.9521 13.2227 13.7268 13.7666 13.7268 14.3337C13.4197 13.9148 13.2488 13.4116 13.2373 12.8924C13.2373 12.5473 13.3052 12.2056 13.4373 11.8868C13.5694 11.5679 13.7629 11.2783 14.0069 11.0342C14.2509 10.7902 14.5406 10.5967 14.8594 10.4646C15.1783 10.3326 15.52 10.2646 15.865 10.2646C16.2101 10.2646 16.5518 10.3326 16.8706 10.4646C17.1895 10.5967 17.4791 10.7902 17.7231 11.0342C17.9672 11.2783 18.1607 11.5679 18.2928 11.8868C18.4248 12.2056 18.4928 12.5473 18.4928 12.8924C18.48 13.4114 18.3092 13.9142 18.0033 14.3337Z" fill="#7A828D"/>
<path d="M11.5205 24.2805C10.3024 24.9874 9.02509 25.5868 7.70296 26.072C7.67438 25.5736 7.61535 25.0775 7.52618 24.5864C5.87923 25.3066 4.17318 25.8832 2.42703 26.3099C2.85374 24.5638 3.43038 22.8577 4.15055 21.2108C3.66062 21.1206 3.16565 21.0604 2.6684 21.0306C3.15034 19.7099 3.74873 18.4346 4.4565 17.2198C2.22647 18.753 0.71712 20.8742 0.152814 22.4958C0.693002 22.4906 1.2331 22.5132 1.77094 22.5638C1.04559 24.5196 0.502767 26.5384 0.149414 28.5944C2.20059 28.2364 4.21466 27.6914 6.16641 26.966C6.21692 27.5039 6.23961 28.044 6.2344 28.5842C7.86273 28.0029 9.98737 26.5105 11.5205 24.2805Z" fill="#7A828D"/>
<path d="M26.3522 13.0691C25.1159 10.8415 23.5798 8.79411 21.7868 6.98414C19.9839 5.17797 17.9395 3.63013 15.712 2.3847C14.2634 3.08094 12.941 4.01384 11.7993 5.14504C10.8216 6.13055 9.92258 7.19101 9.11032 8.31671C6.66971 8.00386 4.19069 8.40286 1.97151 9.46572C1.23921 10.6497 0.628724 11.9049 0.149414 13.2119C2.17481 12.9062 4.24211 13.3511 5.96244 14.4629C5.6463 15.1054 5.36415 15.7139 5.0548 16.37C5.59447 17.4829 6.24477 18.5386 6.99587 19.5212C6.53569 20.5322 6.21217 21.6 6.03383 22.6963C7.1302 22.518 8.19794 22.1945 9.2089 21.7343C10.1916 22.4854 11.2473 23.1357 12.3602 23.6754C13.0163 23.366 13.6282 23.0839 14.2673 22.7677C15.3793 24.4892 15.8242 26.5577 15.5183 28.5841C16.8295 28.1189 18.0912 27.5245 19.2848 26.8096C20.3487 24.5847 20.7465 22.0997 20.4304 19.6538C21.5608 18.8412 22.6227 17.9373 23.6055 16.9513C24.7228 15.8125 25.6502 14.5018 26.3522 13.0691ZM15.865 18.2839C14.798 18.2839 13.7549 17.9674 12.8677 17.3746C11.9806 16.7818 11.2891 15.9393 10.8808 14.9535C10.4724 13.9677 10.3656 12.883 10.5738 11.8365C10.7819 10.79 11.2957 9.82867 12.0502 9.07418C12.8047 8.31969 13.766 7.80588 14.8125 7.59771C15.859 7.38955 16.9437 7.49639 17.9295 7.90471C18.9153 8.31304 19.7579 9.00452 20.3507 9.89171C20.9435 10.7789 21.2599 11.8219 21.2599 12.889C21.2581 14.3192 20.6891 15.6904 19.6778 16.7017C18.6664 17.7131 17.2953 18.2821 15.865 18.2839Z" fill="#7A828D"/>
<path d="M27.2498 1.50767C26.2571 0.515037 22.3954 0.066313 18.6016 1.20852C18.2957 1.30031 18.0101 1.42609 17.7144 1.54847C21.5855 3.9294 24.8398 7.19067 27.2124 11.0669C27.3008 10.8153 27.4095 10.5638 27.4809 10.3088C28.6707 6.23628 28.2118 2.46971 27.2498 1.50767Z" fill="#7A828D"/>
<path d="M110.43 23.9915C108.238 23.9915 107.116 22.3938 106.446 20.5241H106.229V28.6012H102.149V9.81251H106.229V12.821H106.477C107.157 10.8867 108.319 9.42157 110.43 9.42157C113.313 9.42157 114.955 11.9779 114.955 16.7134C114.955 21.4488 113.259 23.9915 110.43 23.9915ZM110.94 16.727C110.94 14.3677 110.24 13.3003 108.625 13.3003C107.065 13.3003 106.229 14.3915 106.229 16.234V17.3083C106.229 19.0488 107.157 20.2114 108.608 20.2114C110.216 20.2114 110.94 19.0726 110.94 16.727Z" fill="#7A828D"/>
<path d="M60.146 25.0589L58.8712 28.6079C58.8712 28.6079 60.2616 29.468 62.9505 29.468C66.8259 29.468 69.7494 26.4697 69.7494 21.4487V9.81244H65.6497V16.6113C65.6497 18.3552 64.8508 19.2527 63.3992 19.2527C62.1041 19.2527 61.6281 18.4436 61.6281 17.1654V9.81244H57.5488V18.1411C57.5488 21.1326 58.9596 23.026 61.3222 23.026C63.406 23.026 64.7216 21.7139 65.4695 19.6266H65.7585V22.1014C65.7585 24.2974 64.5924 25.6844 62.5358 25.6844C61.6964 25.7036 60.8684 25.4869 60.146 25.0589Z" fill="#7A828D"/>
<path d="M125.466 20.5241H125.187C124.44 22.5943 123.121 23.9915 121.04 23.9915C118.542 23.9915 117.267 22.132 117.267 19.1371V9.81244H121.346V18.0357C121.346 19.3139 121.822 20.1229 123.117 20.1229C124.565 20.1229 125.368 19.2255 125.368 17.4816V9.81244H129.447V23.5835H125.466V20.5241Z" fill="#7A828D"/>
<path d="M136.467 12.821H136.718C137.398 10.8867 138.561 9.42157 140.672 9.42157C143.555 9.42157 145.193 11.9779 145.193 16.7134C145.193 21.4488 143.493 23.9779 140.672 23.9779C138.479 23.9779 137.357 22.3802 136.688 20.5105H136.467V23.57H132.387V4.32922H136.467V12.821ZM141.182 16.727C141.182 14.3677 140.346 13.2935 138.867 13.3003C137.388 13.3071 136.467 14.4119 136.467 16.234V17.3083C136.467 19.008 137.398 20.2114 138.846 20.2114C140.4 20.2114 141.168 18.991 141.168 16.727H141.182Z" fill="#7A828D"/>
<path d="M151.638 23.5836H147.559V4.32922H151.638V23.5836Z" fill="#7A828D"/>
<path d="M154.484 23.5835V9.81244H158.563V23.5835H154.484Z" fill="#7A828D"/>
<path d="M167.402 13.1847C165.773 13.1847 164.862 14.2351 164.862 16.6691C164.862 19.0283 165.712 20.2385 167.456 20.2385C168.018 20.2385 168.562 20.0373 168.988 19.6713C169.415 19.3052 169.696 18.7986 169.781 18.2431L173.521 19.0385C173.106 21.7581 171.219 23.9915 167.47 23.9915C163.309 23.9915 160.698 21.5813 160.698 16.8731C160.698 12.1649 163.251 9.43512 167.442 9.43512C171.355 9.43512 173.038 11.5394 173.47 14.5003L169.679 15.1802C169.492 14.1093 168.799 13.1711 167.402 13.1847Z" fill="#7A828D"/>
<path d="M156.517 8.09574C157.778 8.09574 158.801 7.12016 158.801 5.91671C158.801 4.71326 157.778 3.73767 156.517 3.73767C155.255 3.73767 154.232 4.71326 154.232 5.91671C154.232 7.12016 155.255 8.09574 156.517 8.09574Z" fill="#7A828D"/>
<path d="M50.8486 5.54956C48.5948 7.24928 46.3206 10.6249 45.4741 13.2629H45.1885C44.3455 10.6249 42.0645 7.24588 39.8106 5.54956H35.7313V23.5836H39.8106V17.5972C39.8106 13.8578 39.5455 10.6963 39.5455 10.6963H39.8174C41.5953 12.8719 43.0265 16.5637 43.4038 19.9292H47.2418C47.6191 16.5637 49.0503 12.8719 50.8282 10.6963H51.1002C51.1002 10.6963 50.835 13.8612 50.835 17.5972V23.5836H54.9143V5.56656L50.8486 5.54956Z" fill="#7A828D"/>
<path d="M87.0559 16.9887C87.0559 12.2295 89.2655 9.43512 93.5148 9.43512C97.9069 9.43512 100.181 12.2804 99.9058 17.5938H91.0672C91.2372 19.6164 92.1755 20.4969 93.7868 20.4969C95.2485 20.4969 95.8265 19.8476 96.1664 19.0147L99.6236 19.9156C99.0321 21.9552 97.397 23.9575 93.746 23.9575C89.6565 23.9609 87.0559 21.2889 87.0559 16.9887ZM91.0978 15.5949H96.0134C95.959 13.7966 95.1942 12.6918 93.6678 12.6918C92.0701 12.6918 91.2542 13.6912 91.0978 15.5915V15.5949Z" fill="#7A828D"/>
<path d="M84.7103 19.1371C84.3492 18.5123 83.8544 17.975 83.2615 17.5636C82.6685 17.1523 81.992 16.877 81.2803 16.7575V16.4584C83.8877 16.03 85.2848 14.3643 85.2848 11.4272C85.2848 7.81361 83.0922 5.54279 78.8259 5.54279H72.3976V23.5768H76.4769V17.9031H78.6117C79.3906 18.3737 80.0521 19.0154 80.546 19.7796C81.2494 20.9283 81.6473 22.2378 81.7018 23.5836H86.0259C86.0259 23.5836 85.8151 20.8844 84.7103 19.1371ZM76.4633 9.37395H78.8055C80.5392 9.37395 81.2123 10.319 81.2123 11.7705C81.2123 13.2221 80.4916 14.3099 78.8055 14.3099H76.4633V9.37395Z" fill="#7A828D"/>
<path d="M174.146 9.44196H176.58V9.89408H175.604V12.4233H175.139V9.89408H174.16L174.146 9.44196Z" fill="#7A828D"/>
<path d="M176.92 9.44196H177.501L178.542 11.8861L179.582 9.44196H180.16V12.4233H179.691V10.302L178.79 12.4233H178.28L177.382 10.3156V12.4233H176.92V9.44196Z" fill="#7A828D"/>
</g>
<defs>
<clipPath id="clip0_1598_1136">
<rect width="180" height="28.936" fill="white" transform="translate(0.15625 0.531982)"/>
</clipPath>
</defs>
</svg>
