<svg width="154" height="26" viewBox="0 0 154 26" fill="none" xmlns="http://www.w3.org/2000/svg">
<g clip-path="url(#clip0_1598_1223)">
<path d="M52.1844 25.6976C49.4261 25.4107 47.6316 24.4567 46.8628 22.8685C46.5665 22.2564 46.3229 21.0849 46.3205 20.2608C46.3137 17.8504 47.5015 16.1816 49.8166 15.3489C51.1303 14.8764 52.3556 14.7301 55.0017 14.7301H57.4044V14.0517C57.4044 12.2953 56.0998 11.2354 53.9595 11.2528C52.785 11.2623 51.972 11.4753 50.5004 12.1592C49.1649 12.7798 48.8382 12.8009 48.1928 12.3087C47.7955 12.0056 47.002 10.5044 46.9438 9.94543C46.914 9.66023 46.9872 9.57435 47.6505 9.11575C50.0155 7.48078 54.229 6.7674 57.1183 7.51281C59.0621 8.01431 60.5087 9.11455 61.2856 10.6825C61.9958 12.1158 62.0243 12.4452 62.0286 19.2658L62.0324 25.2544L61.7902 25.3143C60.3127 25.6799 54.315 25.9193 52.1844 25.6976ZM57.068 21.9816L57.4044 21.9143V19.9367V17.959L55.5478 17.9599C52.7179 17.9612 51.7498 18.1978 51.193 19.0244C51.003 19.3065 50.9468 19.5403 50.9471 20.0469C50.9476 21.1209 51.3707 21.5902 52.6149 21.8977C53.1803 22.0374 56.4784 22.0995 57.068 21.9816ZM116.987 25.6933C113.945 25.3029 111.747 23.8779 110.518 21.4986C109.04 18.6361 109.077 14.4082 110.606 11.5816C112.198 8.63635 115.239 7.00362 118.708 7.23145C122.237 7.46328 124.42 9.08821 125.431 12.2367C125.826 13.4668 125.964 14.532 125.964 16.3523V17.8514H120.083H114.202L114.264 18.3766C114.396 19.4855 115.112 20.5081 116.143 21.0575C117.046 21.5387 117.875 21.726 119.104 21.726C120.885 21.726 122.45 21.2419 123.685 20.3093L124.272 19.8664L124.468 20.1235C124.576 20.2649 124.812 20.6772 124.991 21.0396C125.576 22.2199 125.364 23.3699 124.42 24.1362C122.827 25.429 119.826 26.0576 116.987 25.6933ZM121.57 14.5673C121.671 14.4669 121.437 13.294 121.218 12.7969C120.93 12.1441 120.349 11.568 119.679 11.2703C118.892 10.9207 117.344 10.9201 116.468 11.269C115.348 11.7154 114.403 12.9263 114.265 14.0927L114.202 14.6224H117.859C119.87 14.6224 121.54 14.5977 121.57 14.5673ZM4.77414 25.6407C3.03311 25.4334 1.39675 24.8367 0.877518 24.2196C0.513622 23.7871 0.409904 23.1224 0.578586 22.3039C0.75288 21.458 1.28685 20.2854 1.46327 20.361C1.53798 20.393 1.98657 20.5852 2.46013 20.7882C4.04288 21.4664 5.87587 21.7915 7.58614 21.6972C9.28594 21.6036 10.006 21.1361 9.98373 20.1408C9.9634 19.2304 9.40078 18.9014 6.98842 18.3893C4.39023 17.8378 3.37269 17.4059 2.31388 16.4056C1.38116 15.5244 0.899519 14.3124 0.899519 12.8466C0.899519 11.3136 1.39585 10.1451 2.47632 9.13435C4.41586 7.32 7.83149 6.75594 11.8655 7.5838C13.0272 7.82219 14.3627 8.27991 14.4333 8.46383C14.5268 8.70763 14.166 10.2035 13.8654 10.818C13.7162 11.123 13.4622 11.4601 13.3009 11.5673C12.9138 11.8244 12.0962 11.8016 10.9089 11.5005C9.63105 11.1764 7.50509 11.0889 6.68729 11.3266C5.90844 11.553 5.52754 11.9764 5.52754 12.6157C5.52754 13.5307 6.00426 13.8239 8.24462 14.2867C11.7842 15.018 13.4497 15.9558 14.2514 17.6689C14.8109 18.8646 14.9278 21.0726 14.4589 22.3961C12.7979 25.8033 8.50461 26.1931 4.77414 25.6407ZM80.211 25.5536C78.4085 25.1762 77.3157 24.1827 76.7112 22.3717C76.5279 21.8224 76.5111 21.1951 76.4784 13.6539C76.459 9.18459 76.4719 5.37194 76.507 5.1813C76.6622 4.33805 77.6199 3.76077 79.7578 3.22181C80.4795 3.03988 81.097 2.89103 81.1301 2.89103C81.1632 2.89103 81.1902 3.93233 81.1902 5.20503V7.51904H83.5708H85.9513L85.9059 8.8913C85.8711 9.94111 85.8132 10.3615 85.6593 10.6804C85.3541 11.3131 85.0504 11.3937 82.9695 11.3937H81.1902V15.8374C81.1902 20.2317 81.1929 20.2865 81.4324 20.7614C81.6081 21.11 81.8073 21.3102 82.1589 21.4917C82.6147 21.727 82.7373 21.7393 84.2414 21.701L85.8397 21.6603L85.802 22.9039C85.7713 23.9192 85.7238 24.2167 85.5433 24.5239C85.2895 24.956 84.7789 25.3314 84.2165 25.4993C83.5811 25.689 81.0234 25.7237 80.211 25.5536ZM39.012 22.5748C38.9996 21.7281 38.9999 20.5768 38.9999 18.9974C38.9999 15.6096 38.9578 13.4682 38.8845 13.1265C38.6182 11.8845 37.743 11.2588 36.184 11.1955C33.5444 11.2927 32.8192 12.9246 32.7575 14.2828L32.8076 25.4392C31.2301 25.4814 29.6531 25.4587 28.0757 25.4392L28.0218 19.1967C27.969 13.0635 27.964 12.9467 27.7363 12.5238C27.2404 11.6023 26.606 11.2623 25.266 11.1998C23.9493 11.1384 23.2175 11.3485 22.6039 11.9641C21.8278 12.7427 21.8473 12.5619 21.8094 19.3582L21.7755 25.4392C20.2341 25.4585 18.6928 25.4778 17.1514 25.4972L17.1533 19.2257C17.1554 12.1813 17.1653 12.0665 17.9012 10.5735C18.658 9.03794 20.0867 7.96286 22.0485 7.45266C23.1572 7.16431 25.9261 7.18906 27.0686 7.49753C28.2564 7.8182 29.1654 8.31475 29.8435 9.01337L30.4303 9.61779L31.0317 9.02584C31.7582 8.31083 32.6715 7.80738 33.8 7.49978C35.0167 7.16814 37.7108 7.16855 38.9291 7.50053C41.4701 8.193 43.0656 9.8089 43.5729 12.2039C43.7024 12.8153 43.7322 14.103 43.7337 19.1583C43.7354 24.9078 43.7221 25.3674 43.5519 25.4328C40.9305 25.962 38.953 25.7498 39.012 22.5748ZM140.842 25.4941C140.202 25.3575 139.85 25.166 139.588 24.8126C139.368 24.5156 139.362 24.3801 139.309 18.7316C139.293 16.9479 139.276 15.7595 139.26 13.9759C139.357 12.184 138.443 11.1299 136.175 11.1784C133.95 11.1316 133.074 12.3591 133.144 13.412L133.121 25.4392H130.753H128.385V19.3043C128.385 13.7928 128.405 13.0864 128.577 12.3514C129.129 10.0038 130.537 8.46828 132.81 7.73728C134.498 7.19435 136.253 7.06934 138.158 7.35643C141.344 7.83664 143.176 9.33335 143.901 12.0489C144.063 12.6542 144.09 13.5148 144.125 19.0482L144.164 25.3573L143.916 25.4289C143.493 25.5511 141.325 25.597 140.842 25.4941ZM65.0566 25.4392C65.1081 23.7685 65.0611 20.9016 65.0716 19.0717C65.1115 13.1754 65.1216 12.9231 65.3492 12.0932C66.0088 9.68849 67.3487 8.32419 69.6402 7.72399C70.612 7.46945 72.6615 7.34334 73.9159 7.46089L74.7578 7.53978L74.7115 8.84786C74.6758 9.85715 74.6155 10.2666 74.4473 10.6403C74.113 11.3831 74.0173 11.4263 72.5444 11.4995C71.1598 11.5683 70.9776 11.6233 70.5123 12.1124C69.8437 12.8153 69.8463 12.7915 69.8055 19.4389L69.7686 25.4392C68.1635 25.4564 66.5674 25.4441 65.0566 25.4392ZM88.3193 15.5643C88.3549 4.57028 88.3128 5.24032 89.0676 3.65228C89.5301 2.6794 90.6701 1.54507 91.7134 1.01977C93.0931 0.325045 94.0558 0.149728 96.4734 0.152873C97.6277 0.154373 98.7126 0.192609 98.8841 0.237839L99.1961 0.320074L99.1287 1.4172C99.0479 2.73459 98.835 3.51159 98.458 3.866C98.1928 4.11526 98.0918 4.13177 96.4918 4.1876C95.044 4.23812 94.7423 4.27937 94.3613 4.47886C93.517 4.92093 93.0293 5.84413 93.0293 7.00044V7.51904H95.44H97.8507L97.9213 8.24553C97.9923 8.97581 97.8469 10.3938 97.6665 10.7308C97.6132 10.8303 97.4633 11.0081 97.3334 11.1258C97.1184 11.3206 96.914 11.343 95.0632 11.3751L93.0293 11.4104V18.4517V25.493H88.2872L88.3193 15.5643ZM99.0808 19.116L99.1134 13.2207C99.1531 12.2403 99.5414 11.2514 99.9965 10.458C100.797 9.07724 102.057 8.18906 103.846 7.72967C104.854 7.47079 106.873 7.34658 108.232 7.45986L109.174 7.53837L109.172 8.36282C109.171 9.37064 109.005 10.4532 108.785 10.8784C108.539 11.3528 108.059 11.5013 106.767 11.5013C106.241 11.5013 105.945 11.5086 105.71 11.5535C105.047 11.7071 104.449 12.2926 104.117 12.9082C103.881 13.3415 103.844 13.7116 103.842 14.1773L103.815 19.4311L103.784 25.493H101.415H99.0455L99.0808 19.116Z" fill="#7A828D"/>
<path fill-rule="evenodd" clip-rule="evenodd" d="M146.98 19.1028H153.5V25.4809H146.98V19.1028Z" fill="#7A828D"/>
</g>
<defs>
<clipPath id="clip0_1598_1223">
<rect width="153" height="25.6943" fill="white" transform="translate(0.5 0.152832)"/>
</clipPath>
</defs>
</svg>
