<svg width="91" height="36" viewBox="0 0 91 36" fill="none" xmlns="http://www.w3.org/2000/svg">
<g clip-path="url(#clip0_2900_1902)">
<path d="M28.5109 36H10.7871L30.6766 7.33704L32.7761 8.26522C35.7816 9.61328 38.2788 11.9558 39.8258 14.8508C41.3727 17.768 41.881 21.1271 41.2622 24.3094C40.6877 27.3149 39.1849 30.0332 36.8865 32.1547C34.6103 34.2763 31.7816 35.6022 28.6877 35.9779L28.5109 36ZM21.3506 30.4752H28.1573C30.0357 30.21 31.7374 29.3923 33.1296 28.1105C34.544 26.8066 35.4722 25.1271 35.8258 23.2928C36.4667 19.9779 35.0744 16.5746 32.4446 14.4972L21.3506 30.4752Z" fill="#7A828D"/>
<path d="M11.3618 28.663L9.26237 27.7348C6.25685 26.3867 3.75961 24.0442 2.21265 21.1492C0.665686 18.232 0.157399 14.8729 0.776184 11.6906C1.35077 8.68509 2.85353 5.96686 5.15187 3.84531C7.42811 1.72376 10.2568 0.397785 13.3508 0.022094L13.5276 0H31.2513L11.3618 28.663ZM13.8812 5.52486C12.0027 5.79005 10.301 6.60774 8.90878 7.8895C7.49441 9.19337 6.56624 10.8729 6.21265 12.7072C5.57176 16.0221 6.96403 19.4254 9.59386 21.5028L20.6878 5.52486H13.8812Z" fill="#7A828D"/>
<path d="M28.5109 36H10.7871L30.6766 7.33704L32.7761 8.26522C35.7816 9.61328 38.2788 11.9558 39.8258 14.8508C41.3727 17.768 41.881 21.1271 41.2622 24.3094C40.6877 27.3149 39.1849 30.0332 36.8865 32.1547C34.6103 34.2763 31.7816 35.6022 28.6877 35.9779L28.5109 36ZM21.3506 30.4752H28.1573C30.0357 30.21 31.7374 29.3923 33.1296 28.1105C34.544 26.8066 35.4722 25.1271 35.8258 23.2928C36.4667 19.9779 35.0744 16.5746 32.4446 14.4972L21.3506 30.4752Z" fill="#7A828D"/>
<path d="M11.3618 28.663L9.26237 27.7348C6.25685 26.3867 3.75961 24.0442 2.21265 21.1492C0.665686 18.232 0.157399 14.8729 0.776184 11.6906C1.35077 8.68509 2.85353 5.96686 5.15187 3.84531C7.42811 1.72376 10.2568 0.397785 13.3508 0.022094L13.5276 0H31.2513L11.3618 28.663ZM13.8812 5.52486C12.0027 5.79005 10.301 6.60774 8.90878 7.8895C7.49441 9.19337 6.56624 10.8729 6.21265 12.7072C5.57176 16.0221 6.96403 19.4254 9.59386 21.5028L20.6878 5.52486H13.8812Z" fill="#464D57"/>
<path d="M50.1452 16C50.111 16 50.0803 15.9897 50.0529 15.9692C50.0324 15.9419 50.0222 15.9111 50.0222 15.8769V8.94282C50.0222 8.90863 50.0324 8.88128 50.0529 8.86076C50.0803 8.83341 50.111 8.81973 50.1452 8.81973H52.7609C53.2943 8.81973 53.7661 8.91205 54.1764 9.09668C54.5868 9.28132 54.9047 9.5446 55.1304 9.88651C55.3561 10.2284 55.4689 10.6216 55.4689 11.0661V13.7536C55.4689 14.1981 55.3561 14.5913 55.1304 14.9332C54.9047 15.2751 54.5868 15.5384 54.1764 15.723C53.7661 15.9077 53.2943 16 52.7609 16H50.1452ZM51.7249 14.4921C51.7249 14.5263 51.742 14.5434 51.7762 14.5434H52.8327C53.1062 14.5434 53.3285 14.4477 53.4995 14.2562C53.6704 14.0579 53.7593 13.7946 53.7661 13.4664V11.3533C53.7661 11.0251 53.6772 10.7652 53.4995 10.5738C53.3285 10.3755 53.1028 10.2763 52.8225 10.2763H51.7762C51.742 10.2763 51.7249 10.2934 51.7249 10.3276V14.4921ZM56.7938 16C56.7596 16 56.7288 15.9897 56.7015 15.9692C56.681 15.9419 56.6707 15.9111 56.6707 15.8769V8.94282C56.6707 8.90863 56.681 8.88128 56.7015 8.86076C56.7288 8.83341 56.7596 8.81973 56.7938 8.81973H58.2504C58.2846 8.81973 58.3119 8.83341 58.3324 8.86076C58.3598 8.88128 58.3735 8.90863 58.3735 8.94282V15.8769C58.3735 15.9111 58.3598 15.9419 58.3324 15.9692C58.3119 15.9897 58.2846 16 58.2504 16H56.7938ZM62.3293 16.0821C61.7822 16.0821 61.3001 15.9726 60.8829 15.7538C60.4726 15.535 60.1512 15.2273 59.9187 14.8306C59.6931 14.434 59.5802 13.9758 59.5802 13.4561V11.3533C59.5802 10.8336 59.6931 10.3789 59.9187 9.98909C60.1512 9.59246 60.4726 9.28474 60.8829 9.06591C61.3001 8.84708 61.7822 8.73767 62.3293 8.73767C62.8695 8.73767 63.3482 8.84366 63.7653 9.05565C64.1825 9.2608 64.5039 9.5446 64.7295 9.90703C64.962 10.2695 65.0783 10.6695 65.0783 11.1072V11.1584C65.0783 11.1926 65.0646 11.2234 65.0372 11.2508C65.0167 11.2713 64.9894 11.2815 64.9552 11.2815H63.4986C63.4644 11.2815 63.4337 11.2713 63.4063 11.2508C63.3858 11.2234 63.3755 11.1926 63.3755 11.1584C63.3755 10.8918 63.2798 10.6661 63.0883 10.4814C62.9037 10.29 62.6507 10.1942 62.3293 10.1942C62.0147 10.1942 61.7617 10.2968 61.5702 10.502C61.3787 10.7071 61.283 10.9738 61.283 11.3021V13.5074C61.283 13.8357 61.389 14.1024 61.601 14.3075C61.813 14.5127 62.0797 14.6152 62.4011 14.6152C62.702 14.6152 62.9447 14.5366 63.1293 14.3793C63.314 14.2152 63.4063 13.9895 63.4063 13.7023V13.4151C63.4063 13.3809 63.3892 13.3638 63.355 13.3638H62.3293C62.2951 13.3638 62.2643 13.3536 62.2369 13.333C62.2164 13.3057 62.2062 13.2749 62.2062 13.2407V12.1124C62.2062 12.0782 62.2164 12.0509 62.2369 12.0303C62.2643 12.003 62.2951 11.9893 62.3293 11.9893H64.9552C64.9894 11.9893 65.0167 12.003 65.0372 12.0303C65.0646 12.0509 65.0783 12.0782 65.0783 12.1124V13.5074C65.0783 14.0203 64.962 14.4716 64.7295 14.8614C64.5039 15.2512 64.1825 15.5521 63.7653 15.7641C63.355 15.9761 62.8763 16.0821 62.3293 16.0821ZM66.4046 16C66.3704 16 66.3397 15.9897 66.3123 15.9692C66.2918 15.9419 66.2815 15.9111 66.2815 15.8769V8.94282C66.2815 8.90863 66.2918 8.88128 66.3123 8.86076C66.3397 8.83341 66.3704 8.81973 66.4046 8.81973H67.8612C67.8954 8.81973 67.9227 8.83341 67.9433 8.86076C67.9706 8.88128 67.9843 8.90863 67.9843 8.94282V15.8769C67.9843 15.9111 67.9706 15.9419 67.9433 15.9692C67.9227 15.9897 67.8954 16 67.8612 16H66.4046ZM74.4942 8.81973C74.5284 8.81973 74.5558 8.83341 74.5763 8.86076C74.6036 8.88128 74.6173 8.90863 74.6173 8.94282V10.1635C74.6173 10.1977 74.6036 10.2284 74.5763 10.2558C74.5558 10.2763 74.5284 10.2866 74.4942 10.2866H72.6991C72.665 10.2866 72.6479 10.3037 72.6479 10.3378V15.8769C72.6479 15.9111 72.6342 15.9419 72.6068 15.9692C72.5863 15.9897 72.559 16 72.5248 16H71.0682C71.034 16 71.0032 15.9897 70.9759 15.9692C70.9554 15.9419 70.9451 15.9111 70.9451 15.8769V10.3378C70.9451 10.3037 70.928 10.2866 70.8938 10.2866H69.1603C69.1261 10.2866 69.0953 10.2763 69.068 10.2558C69.0475 10.2284 69.0372 10.1977 69.0372 10.1635V8.94282C69.0372 8.90863 69.0475 8.88128 69.068 8.86076C69.0953 8.83341 69.1261 8.81973 69.1603 8.81973H74.4942ZM79.6585 16C79.5833 16 79.5354 15.9658 79.5149 15.8974L79.2482 14.9845C79.2345 14.9572 79.2174 14.9435 79.1969 14.9435H76.8582C76.8377 14.9435 76.8206 14.9572 76.8069 14.9845L76.5402 15.8974C76.5197 15.9658 76.4718 16 76.3966 16H74.8272C74.7861 16 74.7554 15.9897 74.7349 15.9692C74.7143 15.9419 74.7109 15.9043 74.7246 15.8564L76.9197 8.9223C76.9402 8.85392 76.9847 8.81973 77.0531 8.81973H78.9917C79.0601 8.81973 79.1046 8.85392 79.1251 8.9223L81.3305 15.8564C81.3373 15.8701 81.3407 15.8872 81.3407 15.9077C81.3407 15.9692 81.3031 16 81.2279 16H79.6585ZM77.2172 13.569C77.2103 13.61 77.224 13.6305 77.2582 13.6305H78.7866C78.8276 13.6305 78.8413 13.61 78.8276 13.569L78.048 10.9328C78.0412 10.9054 78.0309 10.8952 78.0173 10.902C78.0036 10.902 77.9933 10.9123 77.9865 10.9328L77.2172 13.569ZM82.5238 16C82.4896 16 82.4588 15.9897 82.4315 15.9692C82.4109 15.9419 82.4007 15.9111 82.4007 15.8769V8.94282C82.4007 8.90863 82.4109 8.88128 82.4315 8.86076C82.4588 8.83341 82.4896 8.81973 82.5238 8.81973H83.9803C84.0145 8.81973 84.0419 8.83341 84.0624 8.86076C84.0898 8.88128 84.1034 8.90863 84.1034 8.94282V14.4921C84.1034 14.5263 84.1205 14.5434 84.1547 14.5434H87.4269C87.4611 14.5434 87.4884 14.5571 87.5089 14.5845C87.5363 14.605 87.55 14.6323 87.55 14.6665V15.8769C87.55 15.9111 87.5363 15.9419 87.5089 15.9692C87.4884 15.9897 87.4611 16 87.4269 16H82.5238Z" fill="#7A828D"/>
<path d="M50.1452 26.8423C50.111 26.8423 50.0803 26.8321 50.0529 26.8116C50.0324 26.7842 50.0222 26.7534 50.0222 26.7193V19.7852C50.0222 19.751 50.0324 19.7236 50.0529 19.7031C50.0803 19.6758 50.111 19.6621 50.1452 19.6621H52.7609C53.2943 19.6621 53.7661 19.7544 54.1764 19.939C54.5868 20.1237 54.9047 20.3869 55.1304 20.7289C55.3561 21.0708 55.4689 21.464 55.4689 21.9085V24.5959C55.4689 25.0404 55.3561 25.4336 55.1304 25.7756C54.9047 26.1175 54.5868 26.3808 54.1764 26.5654C53.7661 26.75 53.2943 26.8423 52.7609 26.8423H50.1452ZM51.7249 25.3345C51.7249 25.3687 51.742 25.3858 51.7762 25.3858H52.8327C53.1062 25.3858 53.3285 25.29 53.4995 25.0986C53.6704 24.9003 53.7593 24.637 53.7661 24.3087V22.1957C53.7661 21.8674 53.6772 21.6076 53.4995 21.4161C53.3285 21.2178 53.1028 21.1186 52.8225 21.1186H51.7762C51.742 21.1186 51.7249 21.1357 51.7249 21.1699V25.3345ZM60.9176 26.8423C60.8424 26.8423 60.7946 26.8082 60.774 26.7398L60.5073 25.8269C60.4937 25.7995 60.4766 25.7858 60.4561 25.7858H58.1173C58.0968 25.7858 58.0797 25.7995 58.0661 25.8269L57.7994 26.7398C57.7788 26.8082 57.731 26.8423 57.6558 26.8423H56.0864C56.0453 26.8423 56.0146 26.8321 55.994 26.8116C55.9735 26.7842 55.9701 26.7466 55.9838 26.6987L58.1789 19.7647C58.1994 19.6963 58.2439 19.6621 58.3122 19.6621H60.2509C60.3193 19.6621 60.3637 19.6963 60.3843 19.7647L62.5896 26.6987C62.5965 26.7124 62.5999 26.7295 62.5999 26.75C62.5999 26.8116 62.5623 26.8423 62.4871 26.8423H60.9176ZM58.4764 24.4113C58.4695 24.4523 58.4832 24.4729 58.5174 24.4729H60.0458C60.0868 24.4729 60.1005 24.4523 60.0868 24.4113L59.3072 21.7751C59.3004 21.7478 59.2901 21.7375 59.2764 21.7444C59.2628 21.7444 59.2525 21.7546 59.2457 21.7751L58.4764 24.4113ZM64.7189 26.8218C64.6848 26.8218 64.654 26.8116 64.6266 26.7911C64.6061 26.7637 64.5959 26.7329 64.5959 26.6987V24.2677C64.5959 24.2404 64.5924 24.2198 64.5856 24.2062L62.4828 19.8057C62.4691 19.7783 62.4623 19.7578 62.4623 19.7441C62.4623 19.6894 62.4999 19.6621 62.5751 19.6621H64.1548C64.2232 19.6621 64.271 19.6928 64.2984 19.7544L65.4165 22.3495C65.437 22.3906 65.4575 22.3906 65.478 22.3495L66.6063 19.7544C66.6337 19.6928 66.6816 19.6621 66.7499 19.6621H68.3399C68.3877 19.6621 68.4185 19.6758 68.4322 19.7031C68.4527 19.7236 68.4527 19.7578 68.4322 19.8057L66.2986 24.2062C66.2918 24.2198 66.2883 24.2404 66.2883 24.2677V26.6987C66.2883 26.7329 66.2747 26.7637 66.2473 26.7911C66.2268 26.8116 66.1994 26.8218 66.1653 26.8218H64.7189Z" fill="#7A828D"/>
</g>
<defs>
<clipPath id="clip0_2900_1902">
<rect width="90" height="36" fill="white" transform="translate(0.519531)"/>
</clipPath>
</defs>
</svg>
